<svg width="77" height="130" viewBox="0 0 77 130" fill="none" xmlns="http://www.w3.org/2000/svg">
<path d="M11.7527 73.315C5.97533 72.4164 -0.777998 72.587 0.744669 78.7084C2.578 86.0724 8.294 89.1057 12.4647 90.3804C14.4753 90.995 17.7273 91.6764 21.6087 90.9897C25.8233 90.2417 28.6887 87.4204 29.2833 85.835C30.154 83.5097 30.2607 78.9377 27.1073 76.1177C23.314 72.7257 16.8913 74.1137 11.7527 73.315Z" fill="black"/>
<path d="M65.7148 73.315C71.4921 72.4164 78.2454 72.587 76.7228 78.7084C74.8894 86.0724 69.1734 89.1057 65.0028 90.3804C62.9921 90.995 59.7401 91.6764 55.8588 90.9897C51.6441 90.2417 48.7788 87.4204 48.1841 85.835C47.3134 83.5097 47.2068 78.9377 50.3601 76.1177C54.1534 72.7257 60.5761 74.1137 65.7148 73.315Z" fill="black"/>
<path d="M31.0091 126.858C32.0424 125.609 35.2224 118.947 33.0357 118.043C30.9651 117.074 17.7304 119.311 15.2957 119.943C12.7771 120.598 10.3691 122.499 11.7051 123.729C12.3691 124.338 13.8291 124.666 15.4384 124.765C15.1664 125.601 15.4224 126.439 16.5371 126.929C17.6717 127.429 19.4477 127.455 21.1491 127.222C21.4997 128.022 22.3251 128.729 23.6717 128.995C26.3144 129.517 29.9397 128.149 31.0091 126.858Z" fill="#FF5500"/>
<path d="M46.4583 126.858C45.4249 125.609 42.2449 118.947 44.4316 118.043C46.5023 117.074 59.7369 119.311 62.1716 119.943C64.6903 120.598 67.0983 122.499 65.7623 123.729C65.0983 124.338 63.6383 124.666 62.0289 124.765C62.3009 125.601 62.0449 126.439 60.9303 126.929C59.7956 127.429 58.0196 127.455 56.3183 127.222C55.9676 128.022 55.1423 128.729 53.7956 128.995C51.1529 129.517 47.5276 128.149 46.4583 126.858Z" fill="#FF5500"/>
<path d="M63.2825 93.4101C61.6252 81.6048 50.1799 60.7541 38.7345 60.7541C27.2879 60.7541 15.8425 81.6048 14.1852 93.4101C10.1372 122.262 36.2225 124.046 38.7345 123.778C41.2452 124.046 67.3305 122.262 63.2825 93.4101Z" fill="black"/>
<path d="M51.6745 75.3724C62.3998 72.7151 69.8358 68.9884 69.8358 57.7431C69.8358 30.0311 55.9198 22.4271 38.7332 22.1591C21.5478 22.4271 7.63184 30.0311 7.63184 57.7431C7.63184 68.9884 15.0678 72.7151 25.7932 75.3724C26.0985 75.5284 26.3612 75.6804 26.5892 75.8324H50.8732C51.1052 75.6804 51.3692 75.5284 51.6745 75.3724Z" fill="black"/>
<path d="M54.7174 35.2487C47.4641 34.1807 42.8374 53.426 42.6441 54.8687C41.9374 60.1513 40.5788 62.7126 38.8708 62.7126C37.1601 62.7126 35.7961 60.1487 35.0908 54.8367C34.9014 53.3993 30.2788 34.1807 23.0228 35.2487C12.3868 36.814 8.54943 53.442 12.3868 62.7567C16.2241 72.07 32.1361 75.45 38.8708 75.45C45.6054 75.45 61.5188 72.07 65.3548 62.7567C69.1908 53.442 65.3548 36.814 54.7174 35.2487Z" fill="white"/>
<path d="M55.1341 53.5677C55.7088 56.3424 54.2288 58.9931 51.8301 59.4891C49.4328 59.9851 47.0234 58.1384 46.4488 55.3637C45.8754 52.5891 47.3541 49.9371 49.7528 49.4411C52.1514 48.9451 54.5608 50.7931 55.1341 53.5677Z" fill="black"/>
<path d="M50.0729 52.8372C50.2382 53.6372 49.7236 54.4199 48.9249 54.5852C48.1249 54.7505 47.3422 54.2359 47.1769 53.4359C47.0116 52.6372 47.5262 51.8545 48.3249 51.6892C49.1249 51.5239 49.9076 52.0372 50.0729 52.8372Z" fill="white"/>
<path d="M49.7409 57.7175C50.3076 57.8615 50.9223 57.9415 51.4596 57.8468C52.0089 57.7855 52.4823 57.5188 52.8703 57.1415C53.2583 56.7815 53.4756 56.2535 53.6303 55.6881C53.7689 55.1188 53.8223 54.4908 53.8223 53.8801V53.8628C53.8223 53.7481 53.9143 53.6548 54.0303 53.6548C54.1236 53.6548 54.2036 53.7175 54.2289 53.8015C54.4329 54.4588 54.4889 55.1335 54.4103 55.8281C54.3396 56.5215 54.0503 57.2321 53.5343 57.7948C53.0263 58.3335 52.2743 58.6775 51.5423 58.7108C50.8009 58.7348 50.1143 58.5441 49.5169 58.1521C49.4036 58.0788 49.3729 57.9255 49.4463 57.8121C49.5049 57.7228 49.6129 57.6855 49.7129 57.7095L49.7409 57.7175Z" fill="#5B5B5A"/>
<path d="M22.3333 53.5677C21.7587 56.3424 23.2387 58.9931 25.6373 59.4891C28.0347 59.9851 30.444 58.1384 31.0187 55.3637C31.592 52.5891 30.1133 49.9371 27.7147 49.4411C25.316 48.9451 22.9067 50.7931 22.3333 53.5677Z" fill="black"/>
<path d="M27.3945 52.8372C27.2292 53.6372 27.7439 54.4199 28.5425 54.5852C29.3425 54.7505 30.1252 54.2359 30.2905 53.4359C30.4559 52.6372 29.9412 51.8545 29.1425 51.6892C28.3425 51.5239 27.5599 52.0372 27.3945 52.8372Z" fill="white"/>
<path d="M27.7265 57.7175C27.1598 57.8615 26.5452 57.9415 26.0078 57.8468C25.4585 57.7855 24.9852 57.5188 24.5972 57.1415C24.2092 56.7815 23.9918 56.2535 23.8372 55.6881C23.6985 55.1188 23.6452 54.4908 23.6452 53.8801V53.8628C23.6452 53.7481 23.5532 53.6548 23.4372 53.6548C23.3438 53.6548 23.2638 53.7175 23.2385 53.8015C23.0345 54.4588 22.9785 55.1335 23.0572 55.8281C23.1278 56.5215 23.4172 57.2321 23.9332 57.7948C24.4412 58.3335 25.1932 58.6775 25.9252 58.7108C26.6665 58.7348 27.3532 58.5441 27.9505 58.1521C28.0638 58.0788 28.0945 57.9255 28.0212 57.8121C27.9625 57.7228 27.8545 57.6855 27.7545 57.7095L27.7265 57.7175Z" fill="#5B5B5A"/>
<path d="M38.8697 58.1355C36.6657 58.1355 34.9017 59.7835 34.8271 59.8555C34.7471 59.9315 34.7231 60.0421 34.7631 60.1408C34.8244 60.2835 36.2591 63.6581 38.8697 63.6581C39.8511 63.6581 40.8124 63.1795 41.6497 62.2741C42.4124 61.4488 43.0431 60.2501 42.9924 59.9955C42.9297 59.6861 41.0644 58.1355 38.8697 58.1355Z" fill="#FF5500"/>
<path d="M55.664 93.0585C54.5213 84.9172 46.628 70.5358 38.7346 70.5358C30.84 70.5358 22.9466 84.9172 21.8026 93.0585C19.012 112.956 37.0013 114.187 38.7346 114.003C40.4666 114.187 58.456 112.956 55.664 93.0585Z" fill="white"/>
<path d="M65.9623 36.0221C65.9623 44.9288 53.8276 34.8141 38.8596 34.8141C23.8916 34.8141 11.7583 44.9288 11.7583 36.0221C11.7583 27.1154 23.8916 10.5634 38.8596 10.5634C53.8276 10.5634 65.9623 27.1154 65.9623 36.0221Z" fill="#C51A24"/>
<path d="M32.8659 35.5169C32.5832 33.0316 32.1832 30.5529 31.6432 28.0742C32.1819 30.5529 32.5846 33.0316 32.8659 35.5169Z" fill="#C51A24"/>
<path d="M15.3959 28.5494C14.5532 29.0241 13.7372 29.5708 12.8919 30.0961C10.9559 31.3414 9.61719 34.0708 9.56519 35.9294C9.59052 37.5214 9.40519 39.0988 9.08386 40.6588C8.63452 42.4854 10.9665 42.8068 13.7825 41.6508C16.1625 40.6508 18.2639 39.7641 20.2399 39.0041C19.2852 35.4788 17.8905 32.0001 15.3959 28.5494Z" fill="#007736"/>
<path d="M30.4297 23.3398C24.9191 24.2132 19.9457 25.9638 15.3977 28.5492C17.8924 31.9998 19.2857 35.4785 20.2391 39.0038C24.8537 37.2172 28.8564 36.0825 32.8657 35.5172C32.5831 33.0318 32.1831 30.5532 31.6431 28.0745C31.2977 26.4958 30.9151 24.9158 30.4297 23.3398Z" fill="#990D1A"/>
<path d="M15.3972 28.5495H15.3959C17.8905 32.0001 19.2852 35.4788 20.2399 39.0041C19.2852 35.4788 17.8919 32.0001 15.3972 28.5495Z" fill="#C51A24"/>
<path d="M47.0377 23.3398C41.6244 22.4718 35.8431 22.4718 30.4297 23.3398C30.9137 24.9158 31.2991 26.4972 31.6431 28.0745C32.1817 30.5532 32.5844 33.0318 32.8657 35.5172C36.8004 34.9612 40.6657 34.9612 44.6017 35.5172C45.0617 31.4505 45.7884 27.3918 47.0377 23.3398Z" fill="#007736"/>
<path d="M44.6016 35.5169C48.6123 36.0836 52.6149 37.2169 57.2283 39.0036C58.1829 35.4796 59.5749 31.9996 62.0723 28.5489C57.5216 25.9636 52.5483 24.2143 47.0376 23.3396C45.7883 27.3916 45.0616 31.4503 44.6016 35.5169Z" fill="#990D1A"/>
<path d="M47.0377 23.3398C47.039 23.3398 47.0377 23.3398 47.0377 23.3398C45.7884 27.3918 45.0617 31.4505 44.6017 35.5172C45.063 31.4505 45.7884 27.3918 47.0377 23.3398Z" fill="#C51A24"/>
<path d="M57.2278 39.0039C59.2025 39.7639 61.3065 40.6505 63.6852 41.6505C66.5025 42.8079 68.8332 42.4839 68.3852 40.6585C68.0625 39.0985 67.8745 37.5239 67.9025 35.9305C67.8492 34.0705 66.5132 31.3412 64.5758 30.0959C63.7318 29.5705 62.9145 29.0252 62.0718 28.5492C59.5772 31.9999 58.1825 35.4785 57.2278 39.0039Z" fill="#007736"/>
<path d="M38.8738 12.7434C39.1084 12.7248 42.6791 13.0008 43.4711 12.3314C45.0524 10.9994 44.1324 10.6328 44.6791 9.55944C45.2724 8.39677 46.0364 7.99544 45.9871 7.34344C45.8831 5.97544 44.5831 4.16877 43.1898 3.67544C41.5951 3.10877 40.1391 0.756775 38.6671 0.868775C38.0111 0.918108 37.1351 2.55811 36.2538 3.06477C35.8431 3.30211 34.1484 3.86877 33.9271 4.12611C32.8098 5.42877 31.9871 6.56211 32.0778 7.76744C32.1924 9.27544 32.9671 11.3834 34.0324 12.3848C35.8604 14.1048 37.8004 12.8248 38.8738 12.7434Z" fill="#007736"/>
<path d="M22.9297 71.6693C23.3417 71.8413 24.0004 72.252 24.5844 72.4947C25.1791 72.7773 25.8084 73.0187 26.4351 73.2373C27.6871 73.6893 29.0057 73.9947 30.3297 74.2467C32.9817 74.7347 35.7604 74.8987 38.5804 74.8787C41.3991 74.8573 44.1684 74.5973 46.9017 74.084C48.259 73.7973 49.6124 73.4667 50.939 73.0253C52.247 72.628 53.6444 72.0187 54.7604 71.5213L55.1084 71.3653C55.9577 70.988 56.9524 71.3693 57.331 72.2187C57.583 72.7867 57.495 73.4213 57.155 73.892C55.9884 75.4987 54.7244 76.54 53.2884 77.5733C51.8537 78.54 50.3244 79.3787 48.7151 79.996C45.5124 81.2853 42.0777 81.8667 38.7004 81.9533C35.3311 82.0267 31.8591 81.644 28.5537 80.38C26.9017 79.776 25.3044 78.964 23.8457 77.9053C23.1324 77.3453 22.4351 76.7787 21.8097 76.1027C21.1644 75.4053 20.6537 74.78 20.0897 73.7453C19.6431 72.9227 19.9471 71.896 20.7671 71.448C21.2351 71.1947 21.7697 71.1827 22.2271 71.372L22.9297 71.6693Z" fill="#C51A24"/>
<path d="M68.2448 109.005C62.2808 108.427 54.9141 98.7012 53.4768 86.4692C53.2314 84.3892 52.9714 82.4265 52.5221 80.6612C51.8874 78.1679 50.6341 76.5585 48.8954 76.0079C47.4848 75.5599 46.2514 75.9559 45.9714 76.1959C46.0888 76.0945 46.3288 75.7132 46.3288 75.1719H39.2381C39.2381 71.9332 42.0981 69.3132 46.1901 68.8012C51.3168 68.1679 57.3888 71.0345 59.3941 78.9145C59.9528 81.1079 60.2381 83.3852 60.5128 85.5892C61.5074 93.5385 64.5981 96.3532 70.3074 99.2225C71.4768 99.8105 70.9394 102.028 70.5488 104.832C70.1048 108.013 68.9181 109.071 68.2448 109.005Z" fill="#C51A24"/>
</svg>
