<?xml version="1.0" encoding="UTF-8"?>
<svg width="500" height="500" version="1.1" viewBox="0 0 132.29167 132.29168" xmlns="http://www.w3.org/2000/svg" xmlns:xlink="http://www.w3.org/1999/xlink">
 <defs>
  <linearGradient id="a">
   <stop stop-color="#ebb45b" offset="0"/>
   <stop stop-color="#ebb45b" stop-opacity="0" offset="1"/>
  </linearGradient>
  <linearGradient id="n" x1="64.558" x2="63.235" y1="164.71" y2="247.54" gradientTransform="translate(0,3.576e-5)" gradientUnits="userSpaceOnUse">
   <stop stop-color="#660080" offset="0"/>
   <stop stop-color="#f95" offset="1"/>
  </linearGradient>
  <linearGradient id="o" x1="65.617" x2="65.352" y1="297" y2="165.3" gradientTransform="matrix(1 0 0 .444 0 165.13)" gradientUnits="userSpaceOnUse">
   <stop stop-color="#660080" offset="0"/>
   <stop stop-color="#ff7f2a" offset="1"/>
  </linearGradient>
  <linearGradient id="p" x1="66.41" x2="66.41" y1="181.64" y2="223.18" gradientTransform="translate(0 25.665)" gradientUnits="userSpaceOnUse">
   <stop stop-color="#fd5" offset="0"/>
   <stop stop-color="#e47e5c" stop-opacity="0" offset="1"/>
  </linearGradient>
  <linearGradient id="q" x1="27.781" x2="27.781" y1="271.34" y2="281.39" gradientTransform="translate(-.52917 2.3812)" gradientUnits="userSpaceOnUse">
   <stop offset="0"/>
   <stop stop-opacity="0" offset="1"/>
  </linearGradient>
  <linearGradient id="r" x1="60.59" x2="60.59" y1="259.43" y2="265.51" gradientTransform="translate(1.8521 1.5875)" gradientUnits="userSpaceOnUse">
   <stop offset="0"/>
   <stop stop-opacity="0" offset="1"/>
  </linearGradient>
  <linearGradient id="s" x1="35.19" x2="35.19" y1="251.23" y2="256.78" gradientTransform="translate(-2.9104 3.7042)" gradientUnits="userSpaceOnUse">
   <stop offset="0"/>
   <stop stop-opacity="0" offset="1"/>
  </linearGradient>
  <filter id="l" x="-.048002" y="-.03585" width="1.096" height="1.0717" color-interpolation-filters="sRGB">
   <feGaussianBlur stdDeviation="0.63340353"/>
  </filter>
  <filter id="m" x="-.045946" y="-.042485" width="1.0919" height="1.085" color-interpolation-filters="sRGB">
   <feGaussianBlur stdDeviation="0.61804597"/>
  </filter>
  <linearGradient id="t" x1="88.955" x2="72.496" y1="204.92" y2="204.92" gradientTransform="matrix(2.0909 0 0 1 -90.963 0)" gradientUnits="userSpaceOnUse" xlink:href="#a"/>
  <linearGradient id="u" x1="88.955" x2="72.496" y1="204.92" y2="204.92" gradientTransform="matrix(-2.0909 0 0 1 273.06 0)" gradientUnits="userSpaceOnUse" xlink:href="#a"/>
 </defs>
 <g transform="translate(0 -164.71)">
  <path d="m0 164.71h132.29v132.29h-132.29z" fill="url(#n)" style="paint-order:normal"/>
  <circle cx="66.146" cy="233.63" r="24.209" fill="url(#p)" style="paint-order:normal"/>
  <path d="m0 238.26h132.29v58.738h-132.29z" fill="url(#o)" style="paint-order:normal"/>
  <path d="m85.46 231.38h46.831v65.617h-93.133l6.2341-4.4925 6.2003-1.0659 9.9569-4.4509 6.7192-4.5911 10.383-3.0538 4.2645-7.008 5.1204-4.279 4.5631-7.3071-3.7345-4.7148-6.4789-1.8699-4.676-4.3363-2.709-4.0212-2.5404-2.4976-2.0626-5.1043 3.8296-1.9139 1.5351-2.0476 2.6252-0.61914 2.0678-1.7536z" style="paint-order:normal"/>
  <path d="m57.3 200.69v7.9375l33.75-3.099v-2.2559z" fill="url(#t)" fill-rule="evenodd"/>
  <path d="m86.783 206.51h8.4667l1.0583 25.929h-10.848z" style="paint-order:normal"/>
  <rect x="84.667" y="229.8" width="12.7" height="2.6458" style="paint-order:normal"/>
  <path d="m124.8 200.69v7.9375l-33.75-3.099v-2.2559z" fill="url(#u)" fill-rule="evenodd"/>
  <path transform="matrix(.26458 0 0 .26458 0 164.71)" d="m332 141v17.242h24v-17.242zm3.8223 1.752h2.9824v13.74h-2.9824zm7.084 0h2.9824v13.74h-2.9824zm7.0859 0h2.9824v13.74h-2.9824z" style="paint-order:normal"/>
  <path transform="matrix(1 0 0 .33383 0 134.75)" d="m91.017 191.96 5.9619 10.326-11.924-1e-5z" style="paint-order:normal"/>
  <path d="m27.781 273.72a4.7625 4.7625 0 0 0 -4.6442 3.7248 4.7625 4.7625 0 0 0 -2.2014 0.76274 4.7625 4.7625 0 0 0 -2.1503 -0.51883 4.7625 4.7625 0 0 0 -4.486 3.1796 4.7625 4.7625 0 0 0 -1.9394 2.6412h30.229a4.7625 4.7625 0 0 0 0.0093 -0.26459 4.7625 4.7625 0 0 0 -4.7625 -4.7625 4.7625 4.7625 0 0 0 -1.6785 0.30799 4.7625 4.7625 0 0 0 -4.1114 -2.4231 4.7625 4.7625 0 0 0 -4.2643 -2.6474z" fill="url(#q)" style="paint-order:normal"/>
  <path d="m62.865 261.28a3.0956 3.2179 0 0 0 -3.0187 2.5168 3.0956 3.2179 0 0 0 -1.4309 0.51537 3.0956 3.2179 0 0 0 -1.3977 -0.35056 3.0956 3.2179 0 0 0 -2.9159 2.1484 3.0956 3.2179 0 0 0 -1.2606 1.7846h19.649a3.0956 3.2179 0 0 0 6e-3 -0.17878 3.0956 3.2179 0 0 0 -3.0956 -3.2179 3.0956 3.2179 0 0 0 -1.091 0.2081 3.0956 3.2179 0 0 0 -2.6724 -1.6372 3.0956 3.2179 0 0 0 -2.7718 -1.7888z" fill="url(#r)" style="paint-order:normal"/>
  <path d="m32.438 255.2a3.0956 3.2179 0 0 0 -3.0187 2.5168 3.0956 3.2179 0 0 0 -1.4309 0.51537 3.0956 3.2179 0 0 0 -1.3977 -0.35056 3.0956 3.2179 0 0 0 -2.9159 2.1484 3.0956 3.2179 0 0 0 -1.2606 1.7846h19.649a3.0956 3.2179 0 0 0 6e-3 -0.17878 3.0956 3.2179 0 0 0 -3.0956 -3.2179 3.0956 3.2179 0 0 0 -1.091 0.2081 3.0956 3.2179 0 0 0 -2.6724 -1.6372 3.0956 3.2179 0 0 0 -2.7718 -1.7888z" fill="url(#s)" style="paint-order:normal"/>
  <path d="m7.2713 172.65 0.1389 0.28144 0.31058 0.0451-0.22474 0.21907 0.053054 0.30932-0.27779-0.14604-0.27779 0.14604 0.053054-0.30932-0.22474-0.21907 0.31058-0.0451z" fill="#fff6d5" style="paint-order:normal"/>
  <path d="m43.387 176.09 0.17233 0.34918 0.38534 0.056-0.27884 0.2718 0.06582 0.38379-0.34466-0.1812-0.34466 0.1812 0.06582-0.38379-0.27884-0.2718 0.38534-0.056z" fill="#fff6d5" style="paint-order:normal"/>
  <path d="m78.222 171.33 0.1446 0.29301 0.32335 0.047-0.23398 0.22807 0.05523 0.32204-0.28921-0.15205-0.28921 0.15205 0.05523-0.32204-0.23398-0.22807 0.32335-0.047z" fill="#fff6d5" style="paint-order:normal"/>
  <path d="m116.5 180.33 0.11688 0.23682 0.26134 0.038-0.18911 0.18434 0.0446 0.26029-0.23375-0.12289-0.23376 0.12289 0.0446-0.26029-0.18911-0.18434 0.26135-0.038z" fill="#fff6d5" style="paint-order:normal"/>
  <path d="m102.19 189.32 0.10975 0.22236 0.24539 0.0357-0.17757 0.17309 0.0419 0.2444-0.21949-0.11539-0.21949 0.11539 0.0419-0.2444-0.17757-0.17309 0.2454-0.0357z" fill="#fff6d5" style="paint-order:normal"/>
  <path d="m20.09 185.09 0.16805 0.34051 0.37577 0.0546-0.27191 0.26505 0.06419 0.37425-0.3361-0.1767-0.3361 0.1767 0.06419-0.37425-0.27191-0.26505 0.37577-0.0546z" fill="#fff6d5" style="paint-order:normal"/>
  <path d="m38.252 188.79 0.1389 0.28144 0.31058 0.0451-0.22474 0.21907 0.05305 0.30933-0.27779-0.14605-0.27779 0.14605 0.05305-0.30933-0.22474-0.21907 0.31058-0.0451z" fill="#fff6d5" style="paint-order:normal"/>
  <path d="m105.46 169.21 0.1389 0.28144 0.31058 0.0451-0.22474 0.21907 0.0531 0.30932-0.2778-0.14604-0.27779 0.14604 0.053-0.30932-0.22474-0.21907 0.31059-0.0451z" fill="#fff6d5" style="paint-order:normal"/>
  <path d="m26.875 168.95 0.1389 0.28144 0.31058 0.0451-0.22474 0.21907 0.05305 0.30933-0.27779-0.14605-0.27779 0.14605 0.05305-0.30933-0.22474-0.21907 0.31058-0.0451z" fill="#fff6d5" style="paint-order:normal"/>
  <path d="m81.572 180.33 0.11688 0.23682 0.26135 0.038-0.18911 0.18434 0.04464 0.26029-0.23376-0.12289-0.23376 0.12289 0.04464-0.26029-0.18911-0.18434 0.26135-0.038z" fill="#fff6d5" style="paint-order:normal"/>
  <path d="m55.468 167.89 0.1446 0.293 0.32334 0.047-0.23398 0.22807 0.05523 0.32204-0.28921-0.15204-0.28921 0.15204 0.05523-0.32204-0.23398-0.22807 0.32334-0.047z" fill="#fff6d5" style="paint-order:normal"/>
  <path d="m59.267 182.34 0.11688 0.23682 0.26135 0.038-0.18911 0.18434 0.04464 0.26029-0.23376-0.12289-0.23376 0.12289 0.04464-0.26029-0.18911-0.18434 0.26135-0.038z" fill="#fff6d5" style="paint-order:normal"/>
  <path d="m6.8792 190.28 0.11688 0.23682 0.26135 0.038-0.18911 0.18434 0.044644 0.26029-0.23376-0.12289-0.23376 0.12289 0.044644-0.26029-0.18911-0.18434 0.26135-0.038z" fill="#fff6d5" style="paint-order:normal"/>
  <path d="m94.192 172.29 0.11688 0.23682 0.26135 0.038-0.18911 0.18434 0.04464 0.26029-0.23376-0.12289-0.23376 0.12289 0.04464-0.26029-0.18911-0.18434 0.26135-0.038z" fill="#fff6d5" style="paint-order:normal"/>
  <path d="m126.74 184.46 0.11688 0.23683 0.26135 0.038-0.18912 0.18434 0.0446 0.26029-0.23376-0.12289-0.23376 0.12289 0.0447-0.26029-0.18912-0.18434 0.26135-0.038z" fill="#fff6d5" style="paint-order:normal"/>
  <path d="m103.19 179.43 0.11688 0.23682 0.26135 0.038-0.18912 0.18434 0.0447 0.26029-0.23376-0.12289-0.23376 0.12289 0.0447-0.26029-0.18912-0.18434 0.26135-0.038z" fill="#fff6d5" style="paint-order:normal"/>
  <path d="m32.279 176.25 0.11688 0.23682 0.26135 0.038-0.18911 0.18434 0.04464 0.26029-0.23376-0.12289-0.23376 0.12289 0.04464-0.26029-0.18911-0.18434 0.26135-0.038z" fill="#fff6d5" style="paint-order:normal"/>
  <path d="m115.62 169.11 0.11688 0.23682 0.26134 0.038-0.18911 0.18434 0.0446 0.26029-0.23375-0.1229-0.23376 0.1229 0.0446-0.26029-0.18911-0.18434 0.26135-0.038z" fill="#fff6d5" style="paint-order:normal"/>
  <path d="m15.875 168.85 0.11688 0.23682 0.26135 0.038-0.18911 0.18434 0.04464 0.26029-0.23376-0.12289-0.23376 0.12289 0.04464-0.26029-0.18911-0.18434 0.26135-0.038z" fill="#fff6d5" style="paint-order:normal"/>
  <path d="m5.0271 180.75 0.11688 0.23682 0.26135 0.038-0.18911 0.18434 0.044644 0.26029-0.23376-0.12289-0.23376 0.12289 0.044644-0.26029-0.18911-0.18434 0.26135-0.038z" fill="#fff6d5" style="paint-order:normal"/>
  <path d="m68.263 175.73 0.11688 0.23682 0.26135 0.038-0.18911 0.18434 0.04464 0.2603-0.23376-0.1229-0.23376 0.1229 0.04464-0.2603-0.18911-0.18434 0.26135-0.038z" fill="#fff6d5" style="paint-order:normal"/>
  <path d="m86.783 173.87 0.11688 0.23682 0.26135 0.038-0.18911 0.18434 0.04464 0.26029-0.23376-0.12289-0.23376 0.12289 0.04464-0.26029-0.18911-0.18434 0.26135-0.038z" fill="#fff6d5" style="paint-order:normal"/>
  <path d="m70.908 186.31 0.11688 0.23682 0.26135 0.038-0.18911 0.18434 0.04464 0.26029-0.23376-0.12289-0.23376 0.12289 0.04464-0.26029-0.18911-0.18434 0.26135-0.038z" fill="#fff6d5" style="paint-order:normal"/>
  <path d="m39.952 168.05 0.11688 0.23683 0.26135 0.038-0.18911 0.18434 0.04464 0.26029-0.23376-0.12289-0.23376 0.12289 0.04464-0.26029-0.18911-0.18434 0.26135-0.038z" fill="#fff6d5" style="paint-order:normal"/>
  <path d="m124.62 168.85 0.11688 0.23682 0.26135 0.038-0.18912 0.18434 0.0446 0.26029-0.23376-0.12289-0.23375 0.12289 0.0446-0.26029-0.18911-0.18434 0.26134-0.038z" fill="#fff6d5" style="paint-order:normal"/>
  <path d="m84.667 167.52 0.11688 0.23682 0.26135 0.038-0.18911 0.18434 0.04464 0.26029-0.23376-0.12289-0.23376 0.12289 0.04464-0.26029-0.18911-0.18434 0.26135-0.038z" fill="#fff6d5" style="paint-order:normal"/>
  <path d="m97.631 167.26 0.11688 0.23682 0.26135 0.038-0.18911 0.18434 0.04464 0.26029-0.23376-0.12289-0.23376 0.12289 0.04464-0.26029-0.18911-0.18434 0.26135-0.038z" fill="#fff6d5" style="paint-order:normal"/>
  <path d="m69.85 167.52 0.11688 0.23682 0.26135 0.038-0.18911 0.18434 0.04464 0.26029-0.23376-0.12289-0.23376 0.12289 0.04464-0.26029-0.18911-0.18434 0.26135-0.038z" fill="#fff6d5" style="paint-order:normal"/>
  <path d="m2.3812 166.99 0.11688 0.23682 0.26135 0.038-0.18911 0.18434 0.044643 0.26029-0.23376-0.12289-0.23376 0.12289 0.044644-0.26029-0.18911-0.18434 0.26135-0.038z" fill="#fff6d5" style="paint-order:normal"/>
  <path d="m15.61 178.11 0.11688 0.23682 0.26135 0.038-0.18911 0.18434 0.04464 0.26029-0.23376-0.12289-0.23376 0.12289 0.04464-0.26029-0.18911-0.18434 0.26135-0.038z" fill="#fff6d5" style="paint-order:normal"/>
  <path d="m128.06 177.84 0.11688 0.23682 0.26135 0.038-0.18911 0.18434 0.0446 0.26029-0.23376-0.12289-0.23375 0.12289 0.0446-0.26029-0.18911-0.18434 0.26135-0.038z" fill="#fff6d5" style="paint-order:normal"/>
  <path d="m56.621 174.93 0.11688 0.23682 0.26135 0.038-0.18911 0.18434 0.04464 0.26029-0.23376-0.12289-0.23376 0.12289 0.04464-0.26029-0.18911-0.18434 0.26135-0.038z" fill="#fff6d5" style="paint-order:normal"/>
  <path d="m23.019 175.2 0.11688 0.23682 0.26135 0.038-0.18911 0.18434 0.04464 0.26029-0.23376-0.12289-0.23376 0.12289 0.04464-0.26029-0.18911-0.18434 0.26135-0.038z" fill="#fff6d5" style="paint-order:normal"/>
  <path d="m121.44 173.61 0.11688 0.23682 0.26134 0.038-0.18911 0.18434 0.0446 0.26029-0.23375-0.1229-0.23376 0.1229 0.0446-0.26029-0.18912-0.18434 0.26135-0.038z" fill="#fff6d5" style="paint-order:normal"/>
  <path d="m91.281 183.4 0.11688 0.23682 0.26135 0.038-0.18911 0.18434 0.04464 0.26029-0.23376-0.1229-0.23376 0.1229 0.04464-0.26029-0.18911-0.18434 0.26135-0.038z" fill="#fff6d5" style="paint-order:normal"/>
  <path d="m119.06 189.75 0.11688 0.23682 0.26135 0.038-0.18912 0.18434 0.0447 0.26029-0.23376-0.12289-0.23376 0.12289 0.0447-0.26029-0.18912-0.18434 0.26135-0.038z" fill="#fff6d5" style="paint-order:normal"/>
  <path transform="matrix(.76208 .25258 -.066526 .19017 16.273 139.64)" d="m14.023 174.48 33.406 0.54877-0.46831-1.0583z" fill="#fff6d5" fill-rule="evenodd" filter="url(#l)"/>
  <path transform="matrix(.67056 .17549 -.044701 .16454 88.566 142.38)" d="m14.023 174.48 33.406 0.54877-0.46831-1.0583z" fill="#fff6d5" fill-rule="evenodd" filter="url(#m)"/>
 </g>
</svg>
