<?xml version="1.0" encoding="UTF-8"?>
<svg width="278.88" height="173.43" enable-background="new 0 0 278.88 173.428" viewBox="0 0 278.88 173.428" xmlns="http://www.w3.org/2000/svg">
 <path d="m58.65348,141.10196c-6.019-6.917 8.798-23.289 11.718-30.284-6.463,0-12.605-.533-18.554,2.441-6.266,3.133-14.404,6.654-21.483,4.885-15.008-3.752-25.776-17.131-30.273-31.75101 2.414.972 4.624,3.238 5.86,5.862-1.546-4.785-2.653-9.628-2.93-14.654 2.086,6.361 6.896,11.687 8.789,17.585-.718-6.8-5.154-13.207-3.906-19.54 .479,5.923 4.217,11.374 6.835,16.609-.191-4.646.75-13.993 3.907-16.609-1.546,5.339-2.367,22.803.976,25.4 1.307-9.65 3.547-17.624 7.812-26.377-1.45,6.312-7.074,28.481-.976,32.23901 .263-1.684 1.542-3.061 1.953-4.884 2.843,1.624 5.859,2.108 5.859-1.466 0-5.425 2.34-2.09201 3.906-5.373 1.192-2.499 4.129-1.288 2.441-6.351-1.624-4.872.694-4.009 4.396-5.861 6.389-3.198-9.801-10.729 0-15.631 9.347-4.676 5.067-2.525-.977-11.235 4.786-4.879 11.659-2.847 17.577-4.885-4.085-4.38-9.296-9.336-11.23-15.143-2.283-6.856 14.959-2.087 18.066-1.465-.032-4.215 3.46-2.984 6.836-1.954-.529-6.595-6.166-11.59-5.859-18.562 7.781.66 15.455,11.196 18.554-.977 4.1,3.063 5.638,6.971 8.789,10.746 1.732-5.523 1.953-11.656 1.953-17.584 0-10.257 9.42701,1.457 13.67101,2.931 2.694-12.027 10.756,2.634 14.648,4.885-1.043-14.601 3.92-6.916 10.742-.977 3.324-3.326 6.701-8.673 11.718-8.793-.604,7.993 7.96,13.227 6.836,21.494 5.914-2.689 17.758-13.998 21.482-7.816 1.902,3.158 2.939,16.486 2.932,20.517-.01,5.339-2.923,9.489-2.932,14.654 3.848-3.068 17.909-10.534 20.51-6.838 3.121,4.437-3.957,21.636-4.885,26.377 5.997-1.104 11-4.137 16.602-5.862 0,5.185.661,10.813-.977,15.631 4.328-1.435 6.774-4.289 10.742-5.861-1.495,5.231-.791,6.776 2.93,7.815 4.292,1.199 5.775-8.586 7.813,1.954 .706-1.938 2.276-3.144 2.93-4.885 3.153,4.409 10.27,2.233 14.648,2.931 3.875.618 5.237.176 8.788,1.954 3.396,1.7 12.608,1.232 14.647,2.931 4.378,3.647 2.315,8.354-1.953,10.74701-2.291,1.284-9.938,1.954-12.694,1.954-4.088,0-10.174,4.63-14.647,5.861-11.098,3.054-22.76,1.953-34.18,1.953h-7.125c-5.521,0-2.297.674-3.617,4.886-1.104,3.522-.805,10.78 0,13.677 1.848,6.65 11.057,19.851 16.113,24.912 4.8,4.805 13.85,2.666 17.09,8.305h-1.953c.84.811 1.472,1.917 1.953,2.932-2.754-1.15-2.577.11-4.883,0 .714,1.967-.092,2.393 0,3.907-.574-1.13-1.671-1.526-2.93-2.932-1.737,1.891-2.602.158-2.93,3.909-4.108-3.142-7.4-1.602-11.719-3.909-4.285-2.289-4.485-6.403-8.102-8.575-7.977-4.791-12.946-11.44-17.287-18.778-1.824-3.085-7.635-17.143-11.719-16.12-7.439,1.861-12.547-1.599-19.531,2.442-5.837,3.377-8.812,10.095-11.719,16.607-1.539,3.448-6.636,12.899-3.417,16.12 3.502,3.503 6.279,2.17 8.3,7.328-1.265-.485-2.79-.522-3.906-.979 .102,1.286-.009,2.618 0,3.908-2.939-3.531-5.01-2.814-5.858,1.955-1.659-4.235-4.573-4.887-5.86,0-.155-3.882-2.914-6.966-5.859-3.909-.779-5.575-5.462-10.177.488-16.118 2.1-2.097.888-12.014 1.464-15.145 .718-3.901 1.527-9.951 2.93-13.677-9.684-1.98-19.774,2.904-30.27301-1.954 .193,11.835-4.882,20.143-4.882,32.24 0,4.354 19.52801,7.647 11.71801,10.746 .646,1.272.54,2.514.976,3.907-2.935-1.734-4.93-1.193-5.85901,1.954-2.276-3.392-5.503-2.123-5.859,1.955-1.215-4.945-7.549-4.268-11.719-6.352-3.417-1.707-3.291-14.46-2.929-18.073h-1.953c.286,2.125-.708,3.326-.977,4.885-1.267-2.654-1.971-1.565-3.906-2.931 .192,1.27-.114,2.627 0,3.907-1.297-1.382-3.672-2.354-5.859-3.907 .054.973-.025,1.957 0,2.931-3.614-2.745-5.724-5.571-7.811-8.792m12.695-4.885c.804-1.839 2.435-3.552 3.906-4.884 .828,3.878 3.025,6.959 3.906,10.747-3.744-.665-6.441-2.413-7.812-5.863" fill="#ffbf00" fill-rule="evenodd"/>
 <path d="m7.87448,95.18596c-3.676-4.624-4.563-11.79-4.883-17.585 .98,2.988 11.546,21.774 4.883,17.585m4.881,6.839c-2.052-7.506-6.246-19.459-4.882-26.379 .479,5.923 4.217,11.374 6.835,16.609-.191-4.646.75-13.993 3.907-16.609-1.302,4.5 2.355,34.12801-5.86,26.379m6.836-.979c1.307-9.65 3.547-17.624 7.812-26.377-2.37,10.316-2.929,20.568-2.929,31.26301-3.206-.183-4.983-1.851-4.883-4.886m5.859,5.863c.66-1.208 2.518-2.428 2.93-4.884 2.351,1.251 5.859,2.082 5.859-1.466 0-5.425 2.34-2.09201 3.906-5.373 1.192-2.499 4.129-1.288 2.441-6.351-1.624-4.872.694-4.009 4.396-5.861 6.389-3.198-9.801-10.729 0-15.631 2.703-1.353 6.858.366 6.835-3.419-.004-.644-6.926-6.539-7.812-7.815 4.786-4.879 11.659-2.847 17.577-4.885-4.085-4.38-9.296-9.336-11.23-15.143-2.283-6.856 14.959-2.087 18.066-1.465-.032-4.215 3.46-2.984 6.836-1.954-.529-6.595-6.166-11.59-5.859-18.562 7.781.66 15.455,11.196 18.554-.977 4.1,3.063 5.638,6.971 8.789,10.746 1.732-5.523 1.953-11.656 1.953-17.584 0-10.257 9.42701,1.457 13.67101,2.931 2.694-12.027 10.756,2.634 14.648,4.885-1.043-14.601 3.92-6.916 10.742-.977 3.324-3.326 6.701-8.673 11.718-8.793-.604,7.993 7.96,13.227 6.836,21.494 5.222-2.375 17.493-13.428 21.482-8.793 1.403,1.63 2.784,16.899 2.932,19.539 .348,6.222-2.571,10.657-2.932,16.608 3.848-3.068 17.909-10.534 20.51-6.838 3.121,4.437-3.957,21.636-4.885,26.377 6.022-1.109 11.05-4.668 16.602-5.862 0,5.185.661,10.813-.977,15.631 4.328-1.435 6.774-4.289 10.742-5.861-1.495,5.231-.791,6.776 2.93,7.815 4.292,1.199 5.775-8.586 7.813,1.954 .706-1.938 2.276-3.144 2.93-4.885 9.835,5.466-10.542,9.379-14.648,7.328-4.52-2.257-7.013-1.298-12.695-3.42-6.536-2.441-7.832-4.947-12.695-9.77-1.175,3.882-11.609-4.112-13.672-7.815-3.064-5.502 2.442-12.384-5.857-13.677 .181,1.528-.394,3.395 0,4.884-4.063-2.996-6.979-8.864-11.719-11.235-5.225-2.614-14.593-11.91-14.648-18.074-2.792,2.192-20.603-.521-22.46-3.908-3.135,1.718-26.65401,3.963-28.31801.977-4.221,4.939-13.095,6.524-18.555,9.769-2.145,1.275-1.367-1.722-3.906,0-.35.237-2.107,4.932-2.929,5.862-4.643,5.25-8.891,8.995-12.207,15.631-1.644,3.29-3.678,5.61-5.371,8.792-3.063,5.758-3.098,13.038-5.86,18.563-4.678,9.352-8.409,23.52101-22.463,21.492" fill="#8f0000" fill-rule="evenodd"/>
 <path d="m66.46548,149.89496c-2.917-2.213-4.012-4.146 0-4.885 0,1.538.277,3.375 0,4.885m4.883.977c-2.225-2.167-2.61-3.974.976-4.884 .446,2.025-.168,3.352-.976,4.884m4.882-.977c-5.96-5.804 4.374-7.284 0,0m.977-4.885c.253-.734 0-2.146 0-2.93h1.953c1.001,3.495-1.073,1.813-1.953,2.93m16.601,24.425c-4.835-5.906 3.115-7.319 0,0m5.859-1.955c-7.769-4.635 3.57801-7.949 0,0m5.85901-1.954c-1.528-.133-2.174-.887-3.906-.976 .446-1.361.294-2.673.977-3.908 1.539-.533.943.942 1.953.977 .075-1.229.147-2.687 0-3.908 2.914,2.801 1.493,2.055 0,3.908 .622,1.289.537,2.506.976,3.907m17.578,0c.154-1.257 0-2.64 0-3.907h1.953c.283,2.381-.967,2.195-1.953,3.907m5.859,3.909c-2.927-7.274 4.56-6.488 0,0m5.86,0c-1.456-1.647-2.325-4.031-2.93-5.863 3.993-1.859 4.853,2.178 2.93,5.863m5.858-1.955c-1.617-.694-2.64-2.118-3.905-2.93 .313-.902.653-2.125.976-2.932h1.953c.703,1.875 1.031,3.782.976,5.862m.977-3.908c.046-1.299 0-2.607 0-3.907 1.436,1.686 2.22,2.961 2.93,4.886-.987-.734-1.928-.621-2.93-.979m78.123,5.863c-7.001-3.209.426-7.559 0,0m5.859-.977c-6.163-5.453 2.922-6.139 0,0m4.883-3.908c-3.578-.835-4.287-3.202-3.906-5.862 2.57.72 2.48.589 3.906,2.931h-1.953c.425,1.207 1.471,1.902 1.953,2.931" fill="#e5cc99" fill-rule="evenodd"/>
 <path d="m250.05 88.348c2.526-1.761 3.532-2.621 4.885 0.976-2.448 1.218-3.04 0.451-4.885-0.976" fill="#fff" fill-rule="evenodd"/>
 <path d="m252.98 90.3c-1.145-1.633-3.239-1.547-0.979-3.907 2.846 1.196 1.172 1.703 0.979 3.907" fill="#ffab00" fill-rule="evenodd"/>
 <path d="m252.00549,89.32395c.431-1.178-.918-2.101.979-1.954 .242,1.526-.584.875-.979,1.954m19.532,3.908c-1.462-.938-2.797.701-2.928-1.954 2.776-.578 1.762,1.205 2.928,1.954" fill-rule="evenodd"/>
 <path d="m.06148,87.36996c1.69,3.521 3.915,7.076 6.836,6.838 4.86,2.627 1.796,5.92701 6.836,8.79301 4.006,2.278 4.413-2.282 8.789,2.932-8.343-2.736-2.267,7.815 4.882,7.815 6.657,0 11.933.53 18.555-1.954 5.359-2.01 9.761-5.51 15.624-5.861-.973-1.171-2.074-3.224-2.929-3.907 1.231.986 4.008,2.331 5.859,3.907-2.843-5.382-7.042-7.011-6.836-13.677 .816,5.55 4.983,8.894 8.789,12.69901 .158-7.327-5.909-12.68801-2.93-20.516 .702,7.979 3.368,12.751 6.836,20.516-.838-6.07801-4.638-11.279-1.953-17.585-.8,9.739 7.812,15.528 7.812,24.425v14.166c0,4.171 2.233,5.236 2.93,8.303 1.473,6.479 1.953,14.463 1.953,20.518 0,9.128 10.277,5.62 10.742,11.723-3.589-2.07-8.23-1.395-11.23-4.396-2.364-2.364-.974-13.779-1.464-17.097-1.379-9.332-3.906-16.888-3.906-27.354-3.913,3.458-15.781,12.829-6.836,17.585-2.809-1.437-4.267-1.41-5.859-.978-1.031-1.128-.978-1.331-1.953-1.954-2.527,5.99 5.047,10.387 2.929,14.655-3.341-3.365-10.063-10.441-4.394-16.119 4.676-4.684 8.566-13.646 11.23-20.027-13.388,0-25.322,8.697-38.084,7.814-16.787-1.162-25.609-18.02-32.228-31.264m66.404,59.594c-.125-1.273 0-2.628 0-3.908 .804.472 2.927,2.49 3.906,3.908 .05-.154-.745,1.196-.976,1.955-.865-.972-1.82-1.315-2.93-1.955m5.859,0c.111-1.011-.376-2.122-.976-2.931 4.261,1.941 1.79,1.621.976,2.931m3.906-1.954c.54-1.152-1.005-2.106.977-1.954 .54,1.836-.728,1.423-.977,1.954m18.555,20.516c.983-.983-.917-2.655 1.953-1.954 .702,2.87-.97.97-1.953,1.954m5.85901-.976c.034-.825-1.18901-.608-.97701-1.954 3.61401,1.267 1.77801,1.031.97701,1.954m3.906-6.84c-3.747-1.806-9.17401-.581-11.71801-4.396-2.347-3.52-.499-18.211 0-21.005 .977-5.471 3.533-10.223 3.906-16.607 .422-7.219-1.611-14.967-.977-22.47001 1.146,1.506 2.393,2.757 2.93,5.861 .401-8.805 1.95301-16.176 1.95301-25.401 2.797,7.461 1.21,15.39.976,23.447 2.631-2.938 4.264-10.63 4.883-15.631 4.573,6.854-4.303,16.701-4.883,23.44601 2.359-2.729 5.19-6.47601 6.836-8.792-3.556,7.696-12.95101,19.539 2.929,19.539 1.782,0 11.281-2.339 10.743-1.954 3.609-2.583 1.831-3.909 3.906-8.793-.202,2.262.145,4.572 0,6.839 .448-1.456 1.664-2.438 1.953-2.93-.34,2.036-.088,1.973 0,3.907-.582-4.255 2.583-8.511 4.883-10.746-1.522,3.872-3.394,7.43-3.907,11.723 3.204-4.935 7.589-9.97 11.718-12.701-2.965,4.574-8.175,9.888-10.253,16.121-2.181,6.543-2.712,13.03-4.883,19.539-1.232,3.694.489,6.634.489,10.258 0,2.083-2.459,2.194-2.93,3.907-1.193,4.344-2.343,7.333 0,11.725-6.604-3.513-.346-9.187.977-13.677 2.623-8.898.625-19.622 3.906-28.333-9.128-1.867-19.831,3.884-29.29601-1.954-2.927,9.961-5.146,17.325-4.883,27.355 .343,13.106 5.187,4.43 10.74201,11.723m20.507,5.862c.288-1.358-.302-1.979.978-2.93 .683.741 2.264,2.249 2.929,2.93-.501,1.119-.808.523-.976,1.954-1.244-.437-1.889-1.384-2.931-1.954m5.86,1.954c.732-1.296-.68-2.598 1.953-1.954 .085.841-.197,1.484 0,2.932-.396-.675-1.132-1.246-1.953-.978m4.882,0c.262-.823-.298-1.555-.976-1.954 1.757.145 1.884.198 2.929.979l-1.953.975m4.882-.976c-.161-1.359.247-2.021-.977-2.932l.977.978c0-2.631-.052,1.523 0,1.954m.977-3.908c-2.79-1.127-5.996-2.807-7.812-4.885 2.823-3.954.12-10.859 3.418-14.166 3.179-3.187 4.874-8.278 6.836-12.213 3.494-7.006 19.85-13.986 26.854-17.585-2.16,1.594-3.521,4.076-4.883,5.862 4.049-1.564 9.214-5.696 11.717-8.792-1.723,3.384-5.157,6.408-8.787,7.814 11.141-1.793 20.452-9.79 31.25-10.746 12.02-1.064 34.869,7.188 46.873-1.954-3.694.051-6.019-1.49-6.836-4.88501 5.992,1.87601 26.021,2.54201 29.295-2.931-6.675-2.668-15.42-.271-21.482-1.955 6.043-2.476 24.034,3.798 26.365-.976-2.908,8.41101-14.745,8.62501-23.436,11.72301-14.863,5.298-28.741,4.885-44.488,4.885-11.048,0-8.152,1.187-9.375,10.991-1.021,8.187 1.689,11.447 6.952,18.029 3.396,4.247 5.521,11.648 9.802,14.943 4.257,3.277 11.161,2.068 13.672,6.839-5.481-4.601-11.51-3.699-16.602-8.793-2.905-2.907-14.823-19.635-15.625-22.47-1.566-5.539 5.948-23.007-5.859-17.097-6.339,3.172-10.934,8.903-7.811,16.119 2.16-1.688 4.392-1.861 6.834-2.932-1.556,1.047-4.454,3.133-4.881,5.863 2.263-1.962 4.854-2.97 7.813-2.932-1.917,1.448-5.518,2.758-6.836,5.861 1.559-.908 2.119-.541 3.904-.976-7.514,3.389 6.68,15.468 10.255,19.05 6.6,6.613 11.145,8.928 18.065,13.188-6.681,6.472-12.609-6.004-16.891-8.575-12.476-7.494-19.964-21.206-26.076-33.434-1.115-2.23-14.177-1.771-17.578-.977-8.679,2.029-9.438,6.841-13.671,13.188-3.332,4.996-3.904,10.256-6.348,15.144-3.058,6.123 2.145,7.209 5.372,9.775m-18.554-50.803c-1.441-2.372-1.441-5.442 0-7.814 0,2.582.184,5.24 0,7.814m-97.65401-2.93c18.912,2.73 23.734-24.627 26.855-37.124 3.002-12.021 16.016-23.721 22.949-32.24-2.224,7.235-10.014,12.62-13.672,18.563-5.206,8.456-8.533,13.379-10.488,23.157-1.388,6.94-13.114,35.591-25.644,27.644m50.78-70.341c4.922.062 17.264-6.068 20.508-9.769 1.463,2.954 25.92301,1.298 28.31801-.977 1.967,3.585 19.923,6.004 22.46,3.908 .063,7.103 8.848,13.381 13.672,17.585 3.092,2.693 10.437,10.868 12.695,10.747-6.775,5.194-26.595-18.829-27.344-26.378-7.207,2.937-17.253-.242-22.459-4.884-3.469,1.927-12.433,5.812-16.601,5.861-4.34.051-7.071-3.441-11.71901-2.931-6.508.714-16.201,12.839-19.53,6.838m101.55901,26.378c.02,6.162 10.025,13.51 15.625,14.655-3.326,7.084-23.676-10.419-15.625-14.655m19.531,16.609c2.005,5.881 9.92,5.485 14.648,7.814-4.901.001-17.721-.236-14.648-7.814m16.601,7.815c3.224,1.55 8.25,2.692 10.742.979-3.033,3.026-8.436,3.765-10.742-.979m5.86,79.133c-.02-.945-1.206-.502-.977-1.953 1.271.105 2.652-.218 3.906,0v1.953c-.875,0-2.08-.197-2.929,0m5.859-1.953c.105-.882-.193-1.494-.977-1.954 1.34-.184.896-.609 1.953-.978 1.671,2.544-.267,1.68-.976,2.932m22.461-76.20201c2.18-4.448 5.885-2.527 8.787,0-2.443,1.84-4.859,2.008-6.836,0 1.161-.77 1.372-1.273 1.953-1.955 1.545,1 1.908,1.407 2.932,2.931-2.622,1.32-5.256.979-6.836-.976" fill="#ff7f00" fill-rule="evenodd"/>
 <path d="m2.01448,92.25495c.996,1.425 2.676,2.675 3.907,3.907 .2-.281.671-1.465.976-1.955-.305,3.95 1.25,7.41201 4.883,10.74701 2.909-2 1.57-.479 4.882-.977-7.247,6.84 12.069,12.7 17.09,12.7 11.893,0 23.116-7.814 35.644-7.814-.248-1.146-.408-1.826-.977-2.932 1.415,1.3 2.899,1.684 3.906,2.932 .261-1.347 1.164-2.033.977-3.909 2.334,3.487 2.273,7.649 1.953,11.724-2.225-2.4-5.176-2.698-7.813-.977 1.747-1.628 1.692-2.958 2.93-4.884-13.247,0-24.493,8.241-37.107,7.814-15.253-.514-24.523-14.145-31.251-26.37601m95.7,26.37701c1.629-6.963-.12-14.099 2.93001-20.51601-1.05601,3.71501-1.24401,7.80101-.97701,11.72301 .322-.887.63101-1.969.97701-2.931-2.19101,5.257.697,11.463 6.836,8.793-.29.13-1.866,1.521-2.93,1.954 6.954,1.445 13.471.703 20.507,0-.703-.585-1.279-1.335-1.953-1.954l3.906,1.954c.041-1.624.826-2.763.977-3.908 4.263,11.363-22.802,8.342-30.27301,4.885m58.59201,3.909c4.558-2.569 10.514-3.182 15.625-4.885-.503.378-2.427,2.563-2.93,2.931 13.777-2.854 20.954-11.723 36.132-11.723 15.954,0 29.98,1.096 44.919-4.886-1.046-.498-2.655-1.807-2.928-1.953 2.54,1.176 5.159,1.199 7.813,0-12.662,10.794-32.996,7.814-48.395,7.814-11.107,0-27.08,3.31-31.682,15.631-1.056-5.068-13.946-3.702-18.554-2.929m92.772-34.193c.736-.748 1.731-.858 2.928-1.955-.368.668-1.383,1.44-1.953,1.955 1.583.333 2.837.936 4.885.976-2.821,1.847-3.5.197-5.86-.976" fill="#ff4000" fill-rule="evenodd"/>
 <path d="m9.82748,96.16295c-1.794-6.334-6.305-11.995-6.836-18.562 1.878,5.727 9.805,13.089 6.836,18.562m6.835,7.815c-3.73-8.103-6.784-18.578-8.788-27.35401 1.319,7.258 6.265,13.604 8.788,20.516 0-7.306.039-14.372.977-21.493 1.609,5.408 2.001,21.766-.977,28.331m5.859,1.954c-2.325-8.61401.23-23.45501 4.882-31.26301-1.197,5.215-2.255,30.815-4.882,31.26301m4.882-.977c.38-1.165.994-1.646.977-2.93 2.191.401 2.939.742 3.906,1.953-3.247.194-3.192.814-4.883.977m6.836-6.838c1.565-2.057 3.948-3.359 6.836-3.909-2.801,1.271-4.661,2.605-3.906,4.886-1.091-1.005-3.687-1.367-2.93-.977m5.859-10.747c-.416-4.434 4.773-3.443 6.836-5.861-2.162,2.661-2.667,2.483-5.859,3.907 .706.511 1.344,1.329 1.953,1.954-1.552-1.046-1.72-.24-2.93,0m.977-15.631c-.339-5.309 7.133-4.415 10.742-6.839-1.364,3.596-4.782,4.886-8.789,3.908v1.953h1.953c-1.233.268-3.739.977-3.906.978m3.906-14.655c-1.453-4.878 14.214-5.496 17.578-4.885-4.574.259-11.095,1.53-15.625,2.931 .416.805.55,2.135.978,2.931-1.016-.338-1.946-.578-2.931-.977m5.859-20.516c-3.467-7.088 14.232-2.623 17.578-1.954-.041-5.343 10.451-2.391 5.859,2.931-.392-.647-1.362-1.477-1.953-1.954-.326.977 0,1.303.977.977-4.871,2.692-14.994-3.343-20.508-1.954 2.529,2.12 5.155,4.407 7.813,5.862l-.977.977c-1.838-2.257-7.605-4.908-8.789-4.885m18.555-18.562c-.152-1.258 0-2.636 0-3.908 7.781.66 15.455,11.196 18.554-.977 4.077,3.046 10.52,9.783 7.812,14.654-.771-1.862-1.973-3.016-2.929-4.884 .516,1.185.626,1.568.976,2.931-5.845-2.905-17.329-5.26-21.484-9.77 .733,1.889 1.106,4.038 1.953,5.862-1.484-2.446-2.108-2.119-2.929-4.885-1.86-.547-1.339.557-1.953.977m51.75601,5.861c-4.681-9.652-15.246-12.568-19.531-20.516-.542,4.698 2.917,7.28 2.93,11.724-.96-3.532-3.025-6.538-3.906-9.77-.587.555-1.25101.808-1.95301,1.955-1.44-11.829 9.63201.551 13.67101,1.954 1.822-8.134 6.366-3.503 9.766,0 6.156,6.341 4.357,8.67 2.929,16.608-.8-1.02-1.944-.934-2.929-2.931 1.957,1.558-.05.448-.977.976m5.859-15.631c.485-9.553 7.87,2.384 10.742,4.885 3.324-3.326 6.701-8.673 11.718-8.793-.516,6.83 8.876,13.195 6.836,19.539-.872,2.713-6.482,4.479-9.766,5.862 .361-3.449.336-2.484-.977-5.862 .263,1.079.841,1.5.977,2.932-5.521-3.133-11.603-14.228-16.601-19.539 .277,3.051 1.634,6.052 2.93,8.792-2.662-1.835-3.607-9.183-5.859-7.816m32.226,16.609c3.795-1.491 18.553-15.945 18.553-5.862 0,6.162 2.598,11.605 2.932,17.585 .348,6.222-2.571,10.657-2.932,16.608 3.848-3.068 17.909-10.534 20.51-6.838 3.121,4.437-3.957,21.636-4.885,26.377 6.022-1.109 11.05-4.668 16.602-5.862 0,5.185.661,10.813-.977,15.631 4.328-1.435 6.774-4.289 10.742-5.861-1.495,5.231-.791,6.776 2.93,7.815 4.792,1.339 5.52-7.717 7.813,2.931-2.598.457-4.333,1.267-5.859,1.954-2.431-1.727-4.795-3.645-6.836-5.861-.026,1.265-.137,2.651 0,3.907-.095-.283-1.6-2.556-1.953-3.907-2.7,5.884-9.466,1.082-10.742-3.907-.066,1.313-.771,1.642-.977,2.93-.425-5.196-1.782-.252-4.883-1.954-2.243-1.232-4.402-3.267-6.836-5.861-1.388.745-7.389-14.037-7.811-18.562-.992,1.582-.961,6.233-1.953,7.815 .311-2.561-.408-5.271 0-7.815-.608.545-2.064,1.046-2.932,1.954-2.085-2.812-4.877-3.953-6.834-2.931-2.326-9.073-4.706-22.108-10.742-29.308-1.333,3.181-.977,7.006-.977,10.746-1-2.557.73-10.635-1.953-11.724m73.24,58.617c.635-.812 1.172-.72.977-1.954 1.494,1.153 3.213,2.66 3.906,3.907-2.741-1.611-3.454-1.366-4.883-1.953" fill="#bf0000" fill-rule="evenodd"/>
 <path d="m66.46548,149.89496c-1.728-1.631-2.895-2.476-2.93-4.885 2.235.749 2.461,2.468 2.93,4.885m4.883.977c-.94-1.605-1.687-1.741-1.953-3.907 2.693.447 1.43,1.779 1.953,3.907m4.882-.977c-1.017-1.81-1.391-1.961-1.953-3.907 2.703.448 1.415,1.781 1.953,3.907m.977-4.885c.904-.817-.737-3.103 1.953-.977 .175,2.278-.958.078-1.953.977m16.601,24.425c-.923-1.689-1.223-3.062-1.953-4.885 2.22,1.531 1.391,2.67 1.953,4.885m5.859-1.955c-1.082-1.034-.269-2.508-2.929-1.954v-1.954c2.748.458 2.102,1.921 2.929,3.908m5.85901-1.954c-1.523-.358-2.168-.886-3.906-.976v-1.954c2.798-.126 2.483,1.126 3.906,2.93m-.976-3.907c1.404-1.406 1.402-1.403 0,0m18.554,3.907c.208-1.216 0-2.671 0-3.907 1.923,1.75.278,2.287 0,3.907m5.859,3.909c-.531-2.407-1.046-3.884 0-5.863 1.242,2.336.515,3.584 0,5.863m5.86,0c-1.219-1.663-1.843-3.326-2.93-4.885l.977-.979c2.22,1.726 1.905,3.23 1.953,5.864m5.858-1.955c-1.81-1.048-3.208-2.505-3.905-3.908 3.1.119 2.712,1.564 3.905,3.908m3.906-2.93c-1.832-1.34-3.216-.251-2.93-2.932 .967.965 1.889,2.049 2.93,2.932m75.194,4.885c-1.448-.989-2.75-1.47-3.906-2.932 2.802-1.816 2.783.385 3.906,2.932m5.859-.977c-.839-.721-2.183-2.469-2.93-3.907 3.508-.25 2.357,1.421 2.93,3.907m4.883-3.908c-2.055-1.114-3.317-.66-3.906-2.932 1.778.509 2.421,1.697 3.906,2.932m-2.93-3.908c.235-.836-.279-1.544-.977-1.954 2.525.978 2.329.525 3.906,2.931-1.68.419-1.801-.765-2.929-.977" fill="#b29966" fill-rule="evenodd"/>
 <path d="m24.47548,109.83896c.724-.301 1.816-1.434 3.906-.976-1.249,3-2.372,1.47-3.906.976m13.67-1.953c-.943-.974-2.134,1.364-1.953-.978 2.27-.354 1.636-.354 3.906,0 .181,2.342-1.01.005-1.953.978m11.719-6.84c-.304-1.908-1.583-2.143 0-3.907 1.621,2.276.154,3.04301 0,3.907m1.953-9.768c-.881-2.328-1.95-3.829.976-4.885 1.167,3.091 1.623,5.637-.976,4.885m10.743-16.609c.837-2.718.494-4.432 3.906-3.908-.124,2.883-1.636,3.152-3.906,3.908m-.978-12.7c.332-3.104.985-4.847 3.906-4.884-.081,2.81-1.64,3.856-3.906,4.884m13.672-5.862c1.244-9.907 8.073,4.101 0,0m0-8.793c.986-1.573.993-2.709 2.929-2.931-.144,2.836-.533,2.727-1.953,4.885-.748-.44-.729-1.776-.976-1.954m13.671,14.655c5.792-4.243 2.959,4.608 0,0m6.836-24.424c-8.644-4.128 11.72301-2.402 0,0m6.83601,8.793c-7.13901-5.668 10.578-4.679 0,0m9.765,5.861c-.063-.1-1.582-.346-1.953-.977 2.648-1.6 4.58-2.372 1.953.977m2.93-19.539c-4.772-1.922-.192-4.757 0,0m11.718,1.954c1.754-1.238 1.87-3.403 3.907,0-1.741,1.912-2.284.309-3.907,0m-.976,10.747c1.448-1.938 1.775-3.123 3.906,0-1.926,1.044-1.976.228-3.906,0m11.718-5.862c-.343-1.85.012-2.916 3.906-2.931 .231,3.25-1.34,2.697-3.906,2.931m-1.953,20.516c-1.429-5.698 6.472.039 0,0m15.624-10.746c-.32-1.813-1.553-2.698 1.953-2.931 .831,3.082-.67,1.942-1.953,2.931m0,8.792c-.238-1.141-1.396-1.245-.977-2.931 4.292.624 3.008,1.219.977,2.931m10.743,2.931c-.531-1.877-1.573-2.531 0-3.908 2.592,2.693 1.473,2.669 0,3.908m-4.883,12.7c.719.258 2.159,0 2.93,0-.365,1.546.002,1.658-.977,2.932-2.045-.764-1.117-1.598-1.953-2.932m10.742-6.838c6.048-3.025 3.014,5.302 0,0m4.883,12.701c.688-.356 1.399-1.402 1.953-1.954 1.054,3.111.762,1.93-.977,3.907 .143-.894-.219-1.482-.976-1.953m8.789,11.723c.429-.131 1.093-1.442 2.93-.978-.984,2.691-1.696,1.161-2.93.978m10.74-1.954c-.396-1.366-1.435-2.015-.975-3.908h1.951c.45,2.05-.751,3.257-.976,3.908m12.695,2.931c.045-1.299 0-2.608 0-3.907 3.425,1.391 3.817,2.811 0,3.907m11.719,5.862c-1.198-1.727-2.535-2.416.977-3.909 1.741,2.507.21,2.146-.977,3.909m6.836-5.862c.735-1.038-.053-2.068 1.953-1.955-.618.619-1.448,1.242-1.953,1.955" fill="#ff0" fill-rule="evenodd"/>
</svg>
