<?xml version="1.0" encoding="UTF-8"?>
<svg viewBox="0 0 271.25 70" xmlns="http://www.w3.org/2000/svg">
 <g transform="matrix(1.25,0,0,-1.25,0,70)">
  <g transform="scale(.24)">
   <path d="m383.152,218.242 .977-6.762c4.641,2.852 9.848,5.946 15.547,4.645 2.281-1.305 4.152-2.934 2.605-5.703-4.64-3.012-8.871-8.223-12.941-11.399-.082-.898.406-2.039-.57-2.527 4.07-1.465 5.371-5.129 7.812-8.305 15.875-24.433 40.621-39.824 59.832-59.937 15.387-15.313 37.203-1.141 55.844-4.074 14.41.082 32.238,2.687 45.015-4.153 14.735-3.175 31.016-4.64 40.297,9.203 1.547,3.5 4.153,6.434 4.723,10.422 3.418,4.481 2.113,12.301 1.055,17.512-3.094,2.688-2.766,7.734-7.243,8.793-5.945.246-12.128,3.098-17.093,6.68-2.934,2.441-2.282,6.84-1.547,9.851 3.254,3.34 5.371,5.864 9.765,6.274 12.375,2.605 14.247-15.637 26.375-14.496 12.211-12.543 28.004,2.687 41.926-5.703 8.383-1.629 15.547-6.758 23.77-8.793 3.824-3.012 6.347-10.997 13.429-8.797 7.735,6.109 22.141,9.609 20.11,22.722 3.5,7.086 11.152,12.215 18.723,11.403 .566-.571 1.058-1.469 2.035-.981l.566.41-3.172-9.285c6.188,1.711 12.617,5.946 20.676,4.641 1.141-1.137.895-1.711 0-3.012-3.094-1.387-5.129-3.504-7.246-5.703 5.617-2.035 13.433-.16 18.074-3.582 .16-3.258-4.152-2.359-5.617-4.723-7.004,1.223-12.781-2.199-19.133-1.058l-1.625-1.465 1.625-1.141c25.317-.976 49.496-5.863 73.836-7.656 24.34-3.5 46.563-11.563 70.902-15.066 2.606-.571 4.801-.813 7.246-1.059 .407-3.094 3.907-3.5 6.184-4.641 1.059.407 1.793,1.547 3.012,1.059 1.14-1.141 1.711-2.606 3.176-3.582-6.754-2.281-14.817,1.547-21.247,4.641-3.906-3.012-6.675,3.91-9.281-1.547-12.289,3.422-26.781-.164-38.746,1.058-16.769-1.222-31.992-1.058-49.168-1.058-5.781-.325-13.676-1.305-20.105-3.094l-3.094-1.059c4.559-2.851 11.312-2.605 15.953-6.109 5.781-2.359 13.922-1.141 17.094-7.246-.242-1.711 0-3.504-1.465-4.645-3.336-.812-3.988,3.91-7.246,1.551-3.172-.652-5.453-6.68-8.871-3.586-.653,2.117 2.769,1.387 2.035,3.586-2.035,1.953-5.535.567-8.223,1.055-2.605-.895-1.465-4.235-1.058-5.781-1.789-1.059-5.125-.571-5.125,2.117 .972.816.078,2.281.972,3.097-2.031.567-4.066.977-6.183,1.547-2.364-.898-.246-5.621-4.071-4.156-1.953.98-.734,3.504-1.058,5.215-1.875.57-5.293,1.14-6.758,0 .082-1.711 0-3.746-2.035-3.664-.895.73-2.524.73-2.606,2.035 1.387,3.176-1.953,3.5-4.07,4.805-1.383.324-2.359-.571-2.605-1.629-1.219-1.305.492-5.782-3.172-4.153-4.399,1.871 2.605,8.551-4.071,7.817-3.421,1.14-4.07-1.875-5.781-3.664 1.953-2.688-7.57-5.293 0-6.192 .817,2.039 2.77.653 4.235.981 0-4.399 5.371-2.121 7.812-4.156 1.875.57 3.258,2.281 5.617,1.546 .246-5.211 8.141-3.906 12.457-5.617 .407,2.035 3.012,2.606 4.641,1.547-2.363-4.0702 3.5-4.7226 5.617-5.6991 2.195.0781 4.149-.2461 5.695-1.5469 1.875-3.5859-.976-6.5156-4.07-7.168-2.441.8946-3.336-1.4648-5.207-1.6289-6.351.3242-12.699.8946-18.156,3.6641-20.676.7344-40.781,5.8633-60.481,10.8318-5.617-6.1092-15.875,1.953-22.711-3.5857-16.851-3.582-30.773-13.8438-48.601-15.0625-8.219-3.0938-6.918-14.4141-12.86-19.5469-6.351-2.1992-6.675-8.957-13.515-9.8516-4.477-3.664-11.07-2.5273-14.977-7.8203-6.429-1.0586-11.316-5.8632-17.582-7.7343-2.199,1.0586-3.011-1.6289-4.64-2.1172-2.364-1.0586-5.375-2.0352-7.735-1.4688-4.476-6.1875-14.652-3.9883-20.758-8.7929h-2.035c-7.164-8.0625-16.441,2.7695-23.687-5.211-5.699-2.3633-8.387-7.5742-11.399-11.89061-4.312-2.03906-8.218-9.28516-14.488-5.70313l.57,3.09766c-4.804,2.03516-7.488-3.99219-12.457-2.60547 .082,4.96484 6.188,7.89845 8.793,11.39845 3.989,2.8516 9.282,5.1328 11.883,9.2851-7.242,4.8047-13.918-4.4804-20.676-2.0351-1.218,4.5586 6.512,7.5742 2.606,10.8281-7.731-1.5469-15.305-6.5937-20.188-11.8047-.816.0782-1.14-.8984-2.035-.5703-3.012,2.0352 1.629,4.1524 0,6.1875-1.465-1.5469-3.5-1.3867-5.211-2.0351l-6.183-4.1524c-.653.9766-2.528,0-3.094,1.5469-.164,3.5 3.742,5.1289 5.695,7.7344-4.394,1.3047-9.035.082-12.289-2.6055-1.387-.4883-2.199,1.3047-2.605,1.5469l-.571.5703c9.118,12.7851 21.653,19.9531 37.2,18.0781 5.211.7344 9.609,4.3984 12.863,8.8789 1.629,4.4766 3.418,8.793.488,13.2735-6.269,8.6328-18.234,7.0859-27.84,9.4453-9.605.082-18.234,3.1757-26.375,7.25-7.57.3242-14.328,2.9297-21.164,5.0468-18.804,3.1758-35.656,14.2536-53.238,22.3166-9.445,7.41-19.539,15.39-29.957,21.578 1.629.816.324,1.629 0,2.609-5.941,2.442-13.922-1.629-19.617,2.606-18.723.894-33.539.324-51.285.488-12.946,1.219-22.711-2.199-35.168-1.058-12.942-2.934-28.817-2.118-41.762-6.68-8.625.246-15.219-5.863-23.77-3.582-13.265-3.258-25.804-8.063-38.3395-9.774-3.418-.57-5.8594-2.929-9.2812-3.582-11.9649-2.281-23.6875-3.504-35.1641-8.879-12.5352,0-21.8164-9.2027-34.1094-8.2222-2.9297-2.1172-6.99999-2.1172-10.90624-2.0352-.08203,1.9531 2.03516,2.6836 3.66016,3.0114 11.31638,13.356 28.16798,17.344 41.92578,26.875 29.9531,13.274 59.5035,27.282 88.8905,41.86 34.11,10.504 66.59,24.754 100.86,34.691 39.074,1.301 82.707-2.117 120.398-3.176 1.223-.898 1.789-.898 3.012,0 .73,4.559-2.77,7.981-6.188,10.422-6.43.328-11.07,4.887-16.523,7.738-.328,4.235 4.558,4.399 7.242,5.782 5.293-.571 11.398-1.141 16.039-1.629-1.141,1.953-2.199,4.558-.977,6.68 .895,1.707 3.254,2.117 5.047,2.605 7.242-1.387 13.918-7.492 17.664-13.926" fill="#231f20"/>
   <path d="m86.598 141.61v-2.527c-17.91-7.082-35.574-14.738-52.914-23.207 7.8164 4.969 16.281 7.492 23.77 12.949 9.4453 0.078 13.84 9.61 23.281 9.77 1.957 1.14 3.9101 2.117 5.8633 3.015" fill="#a4835b"/>
   <path d="m86.598 139.08v2.527c6.3476 2.77 13.105 4.641 18.968 8.305 6.348 1.469 11.559 5.133 17.094 8.879 3.094-0.98 5.617 2.93 8.711 3.582 3.336-0.57 5.289 2.281 8.059 2.934v-6.68c-17.746-6.188-35.414-12.621-52.832-19.547" fill="#aa855b"/>
   <path d="m139.43,158.629v6.68c.242.078.488.078.73.16 10.34,5.133 22.633,6.027 32.563,12.379 6.593,1.711 12.457,4.886 19.129,6.269 .164,0 .328.082.488.164v-7.816c-17.664-5.863-35.328-11.727-52.91-17.836" fill="#b1885d"/>
   <path d="m192.34 176.46v7.816c12.129 5.133 24.91 8.715 37.855 12.215 4.801 1.141 9.848 1.875 14.977 2.281v-3.582c-12.942-3.34-25.152-9.609-37.852-13.683-4.965-1.711-9.933-3.34-14.98-5.047" fill="#b78a5d"/>
   <path d="m245.172,195.195v3.582c17.582,1.547 37.039-.324 52.914-.324v-2.039c-5.699,0-11.398.328-16.77,1.629l-8.875-1.059-.976,1.059-1.059-1.059c-8.871,1.305-17.176.329-25.234-1.789" fill="#bd8d5e"/>
   <path d="m298.086,196.414v2.039c.324,0 .566,0 .812.078 9.442-.488 19.051-.73 27.922-2.523 8.059-.488 16.2.406 24.094-.242v-3.586c-7.242,1.304-14.406,2.851-21.57,2.199-9.93,2.769-20.758,1.957-31.258,2.035zm52.828,24.922v-5.293c-2.277.812-4.637,1.629-7.082,2.199v2.035c2.445,1.223 4.805,1.383 7.082,1.059" fill="#c48e5e"/>
   <path d="m350.914,192.18v3.586c2.852-.246 5.699-.653 8.469-1.387 2.195,1.469 7.488-.977 7.246,3.176-1.141,6.597-2.117,15.472-9.852,17.101-1.953.246-3.906.817-5.863,1.387v5.293c4.723-.734 9.445-3.504 14.168-4.074 5.535-3.336 4.313-11.074 5.207-16.121 1.141-3.016 3.664-.735 5.047,0 1.793,4.07-3.254,8.062-1.465,13.515-2.441,4.153-8.547,6.516-9.848,11.891 6.918,3.094 10.989-6.516 14.977-10.422 1.465-5.133-4.883-11.973 1.059-15.965 5.375,3.176 7.488,13.684 15.546,11.891h1.465c-4.636-6.676-15.711-10.91-12.941-20.278 3.012,1.465 6.269-1.953 7.246-4.64 3.094-5.945 8.383-10.098 12.453-15.067v-10.179c-8.871,5.863-15.547,14.332-22.223,22.64-3.988,3.825-10.746,3.176-15.546,6.27-5.129-.246-10.176.57-15.145,1.383" fill="#ca915f"/>
   <path d="m403.828,161.887v10.179c1.629-2.035 3.094-4.152 4.07-6.597 16.524-16.207 32.969-31.68 48.762-45.684v-5.863c-3.176.648-6.351,1.547-9.363,2.523-5.453,1.711-7.242,7.493-10.906,11.321-10.422,11.886-23.039,20.113-30.934,33.062-.488.324-1.059.652-1.629,1.059zm52.832-114.094v-10.4219c-5.293-.2461-10.422-4.3164-15.058-6.2734-1.465,1.5468-3.504,1.6289-5.782,1.5468 .571.9766 1.301,1.793 1.059,3.0938-4.316,2.2031-10.418-.7305-15.957-.5664 8.387,12.6211 25.562,1.6289 35.738,12.6211" fill="#d0925e"/>
   <path d="m456.66,37.3711v10.4219c.242.3281.488.5703.813.8945l-.489.5703c5.782-.7305 6.512,7.5742 10.34,9.6914 1.465,4.2344-.246,8.6328-1.058,12.461 3.742-.3282 7.406-1.0586 10.418-3.0938-.813-1.2226-3.254-2.1992-1.547-3.5859 1.058-1.7071 3.664-1.2188 5.129-.5703 1.464,6.0273 12.457.6523 9.769,8.7968 6.43,3.6641 13.106,8.3868 19.457,13.1914v-40.7187c-7.652-1.7891-14.98-4.5586-23.121-5.0469 4.317,5.211 6.024,11.8906 10.422,16.5313-4.723,2.0351-6.758-4.6407-9.281-7.2461-2.606-7.0039-9.606-12.0547-14.977-16.5352l.977-3.582c-3.746-.4063-7.571.8945-11.317-.9766-.082,2.1992 2.035,3.5821 1.465,6.1875-2.359,2.0391-4.64,2.7696-7,2.6094zm0,76.5509v5.863c.242-.246.488-.488.813-.734 6.922-.571 13.922-5.781 20.679-1.629 5.778-1.793 10.989-1.141 16.036,1.629 4.8-.164 10.175,0 15.304.488v-12.055c-17.504,3.34-35.738,2.692-52.832,6.438zm52.832-71.422v-13.4375c-.082-.3242-.246-.6523-.246-1.0586l-2.117-.5703c-1.137,3.2578-4.559.4062-6.676.5703-5.695.5703-13.672-1.3047-19.129,1.5469-1.465-.8945-3.5-.4063-5.211-.5703-.812,2.5273 2.524,1.7109 3.664,2.6054 4.235,4.6446 9.77,6.1094 15.469,6.1914 4.641,1.8711 9.359,3.5 14.246,4.7227" fill="#d6955f"/>
   <path d="m509.492,29.0625v13.4375c4.231.9766 8.547,1.7109 13.106,1.9531l1.547,1.6289-1.547.9766c-4.641.082-8.957-.6484-13.106-1.6289v40.7187c3.094,2.3633 6.106,4.7266 9.035,7.0039 7.082,4.1563 7,12.3787 14.489,15.4727 3.664,1.711 7.898,2.688 11.398,5.215-3.176,3.012-7.57-.57-10.992-1.629-6.348-.977-10.5-11.402-17.5-6.191-2.199.57-4.313,1.058-6.43,1.464v12.055c2.524.324 5.047.652 7.406,1.059 13.27-1.465 25.887,1.382 37.77-4.723 2.363-.164 4.969-.406 7.734-.652v-51.141c-1.629-.6523-3.175-1.3047-4.64-1.957-1.059-.082-2.278.3281-3.094-.5703 2.605.1641 5.129.4883 7.734.8984v-4.8867c-2.195.082-4.23-.4883-5.129-2.1992h5.129v-1.2227c-12.941-4.7226-25.968-9.2851-38.664-12.7031 10.254-2.1172 20.024,3.418 29.387,6.1875 3.09,1.1406 6.184,2.2813 9.277,3.5039v-2.1992c-13.187-6.3516-26.375-12.543-40.863-15.8008-4.152-.8125-10.34.3281-12.047-4.0703" fill="#dd955e"/>
   <path d="m562.402,48.9336v2.1992c5.211,2.0352 10.504,3.9883 16.039,5.375-5.457-2.4453-10.746-5.0508-16.039-7.5742zm0,5.2109v1.2227h1.547c9.199,3.5 19.129,5.0508 27.516,10.832-4.805-5.539-9.93-7.0039-17.094-7.6562-3.988-1.4649-7.98-2.9336-11.969-4.3985zm0,3.4219v4.8867c12.211,2.2774 23.61,8.3047 33.703,15.1446 1.219-1.4649-2.199-3.0118-3.175-4.6407-2.606.4883-1.223-2.7695-3.094-3.1757-7.406-6.4336-17.988-8.2266-26.863-12.2969-.243.082-.407.082-.571.082zm0,6.5156v51.141c13.594-.977 29.633-.653 38.75,10.425 3.825,1.465 9.282,4.477 9.36,9.364-1.625,2.933-3.094-1.223-5.125-.571 2.929,8.715 5.289,17.512 2.031,26.875 2.445-1.875 4.559-6.433 7.816-8.632v-45.442c-3.824.082-7.57-.164-10.418-2.687-3.91-.571-7.492-2.606-9.769-5.7816 1.219-2.0351 3.664-.4101 5.129,0-2.281-2.8515-6.594-4.6406-8.711-7.6562 3.176-2.5234 4.801,2.1172 7.652,2.0351-.406-1.871-4.64-4.6406-7.246-6.2695-6.105-4.3984-12.859-8.1445-18.558-12.2969 9.117.6524 17.828,8.3868 26.375,13.3555h1.058c-9.687-11.4844-24.422-17.9141-38.344-23.8594zm52.832,103.262v-4.481c-.57.895-1.218,1.793-2.117,2.606-9.605,5.051-22.14,4.234-30.527,10.832-1.547,2.281-1.055,4.316-.567,6.758 3.09,2.199 5.454,1.222 9.442,1.468 4.476-6.109 11.723-13.519 19.047-14.906 1.465-.976 3.093-1.707 4.722-2.277" fill="#e5995f"/>
   <path d="m615.234,107.242v45.442c1.141-.813 2.442-1.223 3.989-1.141 1.465,1.141 3.011,2.934 1.629,4.641-3.258,1.304-4.071,4.156-5.618,6.679v4.481c2.848-1.141 5.864-1.875 8.793-2.934 13.348-.812 26.211,1.793 38.176-1.547 1.875-1.465 3.828-2.687 5.945-3.664v-1.465c-4.804,1.383-9.769,2.2-14.734,2.036l-2.035-2.606c1.465-1.875 4.312.57 6.187-.98 3.907-.325 7.243-2.118 10.582-3.825v-21.175c-.652-.243-1.222-.571-1.71-.895-2.442,1.223-6.27.164-8.872-1.059 .489-1.71 4.067-.816 2.036-3.015-.411-3.824-10.016-2.848-4.641-7.735 6.43-1.628 5.777,9.286 12.941,4.563 .082-.082.164-.082.246-.164v-12.379c-2.523.734-5.046,1.547-7.492,2.281-4.64,1.059-10.742-.246-13.918,3.094-3.093,1.223-6.187.082-8.793-1.059-3.906,1.141-9.277-.406-11.476,3.664 .734,4.071-1.141,5.864-.406,9.286 2.113,3.418 6.183,3.257 6.183,7.652-4.637.734-8.953-3.824-11.883-7.652 .325-5.786-1.711-14.825 5.7-17.59 1.546.324 1.546-.571 2.035-1.551-3.746-1.953-8.387-1.465-12.864-1.383" fill="#eb995d"/>
   <path d="m668.148,110.5v12.379c12.211-5.457 24.989-9.285 37.446-14.254 3.906.98 6.511-1.383 9.277-3.094 1.793-1.222 3.91-1.871 6.106-2.359v-4.8868c-17.989,3.0938-35.653,7.0038-52.829,12.2148zm0,20.684v21.175c2.524-1.304 5.047-2.445 7.977-2.851 1.547-.813 1.141-2.524 1.547-3.664-1.305-.895-3.906-.328-4.559-2.117-.57-1.387.731-2.2 1.547-3.094 3.582.324 7.57.73 9.278,4.64v1.059c1.222-1.793 3.015-2.281 5.21-2.035 1.305,1.711 4.399,1.141 6.188.406 8.711-3.176 17.094-7.168 25.641-10.75v-9.609c-2.524.164-5.047.406-7.571,1.871-5.859-1.707-10.254,2.769-16.605,2.609h-1.465v.406c-9.035-1.14-18.805,5.782-27.188,1.954zm0,26.55v1.465c2.684-1.386 5.536-2.363 8.547-3.015 .243-.813.325-1.625.977-2.036-3.094,1.387-6.27,2.688-9.524,3.586" fill="#f29b5e"/>
   <path d="m720.977,98.2852v4.8868c5.211-1.141 10.992-.817 15.632-3.2579 2.684,1.3829 4.395-.8164 6.754-1.5508 2.93-1.8711 7.164,1.5508 9.282-1.625 3.5.8125 5.128-2.6875 7.816-3.586-7.57-2.1992-16.121,1.629-24.34,2.6055-5.129.8164-10.098,1.6289-15.144,2.5274zm0,26.0588v9.609c9.039-3.828 18.156-7.168 28.086-8.793 .57-3.504 3.175.488 4.64-1.551 6.188-5.293 15.223,0 20.188-7.164-15.793.407-30.61,4.805-45.504,6.188-2.442,1.222-4.965,1.469-7.41,1.711" fill="#f89b5c"/>
   <path d="m57.375 122.55v-6.434c-11.805-3.012-23.285-6.758-35.086-10.097 8.3007 5.214 17.258 8.714 26.457 11.972 2.8477 1.711 5.6953 3.176 8.6289 4.559" fill="#627078"/>
   <path d="m57.375 116.12v6.434c9.3594 4.398 19.211 7.82 28 13.437 2.5234 0.41 4.8047 1.223 7.0039 2.117v-13.437c-8.957-2.277-17.828-5.047-27.191-6.676-2.6055-0.57-5.2109-1.222-7.8125-1.875" fill="#6a7478"/>
   <path d="m92.379 124.67v13.437c3.0899 1.305 6.1836 2.606 9.6051 3.016 0.977 2.117 3.825 0 4.637 2.606 6.922 2.199 13.84 4.48 20.84 6.757v-17.183c-7.324-1.707-14.652-3.582-21.895-5.535-4.398-0.899-8.7926-1.957-13.187-3.098" fill="#737a79"/>
   <path d="m127.46 133.3v17.183c11.641 3.746 23.363 7.575 35.004 11.239v-21.578c-11.805-1.875-23.445-4.157-35.004-6.844" fill="#7b7e76"/>
   <path d="m162.46 140.14v21.578c2.769 0.894 5.535 1.793 8.223 2.687 8.464 1.387 15.304 7.004 24.339 7.25-8.14-6.351-15.386-10.18-21.734-18.57 6.676 1.629 12.129 9.203 18.559 12.867 1.875 1.141 3.746 2.281 5.699 3.34v-24.676c-11.805-1.058-23.528-2.523-35.086-4.476" fill="#858477"/>
   <path d="m197.551,144.621v24.676c6.105,3.422 12.453,6.109 19.211,7.98-2.442-3.011-8.547-6.109-7.813-10.261 6.102,3.422 10.824,7.82 16.035,12.461 2.36,1.953 4.965,3.5 7.571,4.804v-7.98c-8.223-5.375-16.852-10.262-24.094-17.102v-.976h3.09c7.004,4.886 14.086,9.281 21.004,13.925v-25.492c-11.723-.242-23.446-.894-35.004-2.035" fill="#928b76"/>
   <path d="m232.555,146.656v25.492c6.84,4.641 13.593,9.364 19.781,14.985 1.383-.246 3.418.324 4.641,1.629l-1.059,2.605h6.266c-3.825-3.176-10.5-5.133-10.825-10.914-2.035-.894-3.988-2.281-5.699-4.152 .488-1.387.895-2.281 2.606-1.465 6.347,4.152 12.781,8.062 19.293,11.727v-7.25c-7.329-3.336-14.735-6.594-22.469-10.75-1.219-2.688-6.43-3.012-6.188-5.7 9.446,4.563 19.133,8.957 28.657,13.356v-6.758c-.735-.652-1.547-1.305-2.36-1.875 .242-.652-.328-1.711.567-2.117-7.325-2.77-14.571-6.84-20.676-11.321 7.816.899 15.14,5.704 22.305,9.774 0,.488.082,1.305-.571,1.547 .246.164.571.328.735.488v-19.871c-11.641.652-23.364.816-35.004.57zm0,29.645v7.98c5.293,2.688 11.07,4.235 16.769,6.028-4.883-5.704-10.664-10.02-16.769-14.008" fill="#9f9071"/>
   <path d="m267.559,146.086v19.871c11.234,8.551 22.629,15.555 33.945,24.84h1.141v-4.887c-2.606-1.793-5.047-3.664-7.329-6.027v-1.465c3.094-.406 5.129,1.629 7.329,3.746v-8.469c-6.594-4.48-13.106-9.039-19.293-13.925v-1.547c7.406,1.629 13.105,7.816 19.293,12.785v-28.258c-6.352,3.176-15.223,0-21.817,2.523-4.398.325-8.793.653-13.269.813zm0,23.375v6.758c7.082,3.258 14.164,6.515 20.921,9.937-5.21-6.355-13.597-11.078-20.921-16.695zm0,9.852v7.25c3.582,1.953 7.082,3.91 10.664,5.781 4.394.324 8.222-.653 12.453-.977-7.731-5.051-15.383-8.633-23.117-12.054" fill="#ab956e"/>
   <path d="m302.645,142.75v28.258c2.441,1.871 4.882,3.582 7.57,4.805 7,3.093 13.023,8.304 20.269,10.914 1.707,3.664 4.231,1.464 7.164,1.871v-.246c-5.046-3.5-10.015-8.469-14.003-13.11l1.058-.976c4.152,3.664 8.547,6.675 12.945,9.609v-6.027c-2.523-1.629-4.886-3.582-6.757-6.188 3.011-1.875 4.312,2.848 6.757,3.5v-9.363c-3.257-1.629-6.515-3.34-9.769-4.969l-2.199-2.605h3.175c2.848,2.199 5.782,3.988 8.793,5.617v-47.07c-.488.246-.976.488-1.546.652-9.036,6.84-17.747,11.562-26.293,19.625 0,3.504-3.993,3.91-6.27,5.215-.242.16-.57.324-.894.488zm0,30.945v8.469c1.464,1.383 3.011,2.77 4.964,3.504 6.348,2.684 9.93,5.535 17.664,3.664-7.082-5.375-14.898-10.426-22.628-15.637zm0,12.215v4.887c2.277,0 4.152-1.059 6.593-.488l-6.593-4.399" fill="#b89866"/>
   <path d="m337.648,116.77v47.07c9.036,4.723 18.965,7.492 27.84,12.461v-1.059c-3.175-2.605-8.793-5.375-9.687-10.262 .406-1.382 2.277-1.382 3.012-.57 4.07,4.563 9.769,7.738 13.917,12.379v-13.191c-3.171-2.852-6.101-5.703-8.218-9.039h3.172l5.046,4.234v-57.82c-11.964,4.722-23.523,10.261-35.082,15.797zm0,49.027v9.363c.161,0 .325,0 .489.082 5.289,3.422 11.312,5.211 17.093,7.246 .813,1.387.813,1.629.571,3.18 5.047,1.465 9.523-1.551 13.918-3.18-10.66-5.617-21.328-11.156-32.071-16.691zm0,12.051v6.027c1.625,1.059 3.172,2.117 4.719,3.258 3.176.488 7.735-.57 11.805-.977-5.129-3.258-11.317-5.051-16.524-8.308zm0,10.504v.246c.161.082.325.082.489.164-.164-.164-.328-.246-.489-.41" fill="#c4995e"/>
   <path d="m372.73,100.973v57.82l11.399,9.77c2.441,1.468 4.559-1.301 5.699-3.094-4.07-5.457-11.316-6.922-15.469-12.379l.977-2.117c6.434,2.445 11.969,7.332 18.074,10.343 3.66-2.363 8.547-4.234 10.418-8.796-2.359-.325-1.547-2.93-3.176-4.153 1.305-.57 3.828.735 3.664,2.606 1.547-.407 2.442-2.035 3.418-3.746v-3.176l-15.3-13.274c1.871-4.234 4.882,1.141 7.242,1.629 2.851,2.606 5.375,4.559 8.058,6.598v-7.82c-2.195-1.465-4.476-3.094-6.511-4.969v-1.625c2.363.16 4.476,1.058 6.511,2.277v-9.527c-6.836-3.418-13.675-6.922-20.429-10.75-.407-.895.488-1.465 1.058-2.035 6.512,3.258 12.86,6.679 19.371,9.855v-23.0467c-3.824.8945-7.73,1.5469-11.718,1.789-7.899,2.1172-15.715,4.8047-23.286,7.8207zm0,62.625v13.191c.571.652 1.141,1.305 1.629,2.117l-1.629,2.035c4.887,1.469 5.782-4.64 8.875-6.105v-2.606c-2.687-3.175-5.859-5.945-8.875-8.632" fill="#d19c56"/>
   <path d="m407.734,91.3633v23.0467c7.735,3.746 15.711,7.082 24.016,9.199 1.383-1.058 2.281-2.523 2.605-4.152-4.316-3.828-11.48-3.582-13.433-9.852 3.258-1.304 5.781,2.524 8.711,3.665 3.5-1.141 4.965,4.394 8.387,2.117l3.011-3.586c-3.422-2.606-8.711-3.094-10.258-7.246 1.301-.653 3.907-1.223 5.047.406 2.36.977 4.723,1.875 7,2.852v-25.2466c-12.211,1.7109-23.441,6.1914-35.086,8.7969zm0,25.9767v9.527c4.071,2.446 7.817,5.863 12.618,6.516 3.175-.406 5.457-3.828 7.246-6.188-6.512-3.422-13.188-6.515-19.864-9.855zm0,13.844v7.82c1.387,1.059 2.852,2.117 4.399,3.258l5.617-4.809c-3.012-2.035-6.516-3.988-10.016-6.269zm0,12.867v3.176c.411-.731.817-1.383 1.305-1.954l-1.305-1.222" fill="#dd9b4c"/>
   <path d="m442.82,82.5664v25.2466c.977.406 1.953.894 2.852,1.382 4.07.328 7.16-1.14 10.336-3.664-4.801-1.547-9.688-2.769-12.942-6.7576 2.684-4.7226 6.106,1.3826 9.278,1.5466 6.594,1.383 12.699,7.164 19.621,4.235-4.805-2.852-10.176-3.992-14.981-6.7581-.406-1.3047 1.141-2.2813 2.036-2.6094 5.21,3.8281 12.375,2.6094 17.093,7.1675 .492.247 1.059.489 1.629.653v-5.6213c-5.207-2.1172-10.746-4.0703-15.547-6.8398 1.383-3.9102-10.175-3.6641-3.175-7.2461 2.199.8945 5.699,2.1172 5.699,5.2109 4.152,2.3633 8.547,4.1524 13.023,5.7813v-18.9727c-2.929.5703-5.941.9766-8.301,2.8477-4.152,1.4648-11.152.7343-14.574,4.6445l-2.035-.9805c-3.5,0-6.754.2461-10.012.7344" fill="#ec9e41"/>
   <path d="m477.74 75.32v18.973c7.164 2.6875 14.41 5.0508 21.086 8.633 1.789-0.164 4.07 0.734 5.207-0.977-4.476-2.8513-9.605-4.3982-13.43-8.7967l2.036-1.6289c6.347 3.4219 12.535 8.7966 19.617 8.7966-8.793-4.4802-17.258-9.445-25.887-14.414-0.406-1.3047 1.141-1.711 1.629-2.6055 8.953 2.6875 16.445 10.258 24.746 12.949-7-9.6133-20.269-13.848-29.387-23.293-1.629 1.3047-3.582 1.8711-5.617 2.3633zm0 22.066v5.6213c3.988 1.383 7.899 2.281 12.293 0.488-3.664-2.441-7.894-4.3163-12.293-6.1093" fill="#f89c35"/>
   <path d="m512.746,96.25h.082-.082" fill="#f89c35"/>
   <path d="m706.57,154.477v-8.227l-.406-.406-9.769,3.664c2.523,2.769 6.511,3.582 10.175,4.969" fill="#627078"/>
   <path d="m706.57,146.25v8.227c3.176,1.218 6.188,2.769 7.895,6.351 0,3.746.734,7.41 2.281,10.668v-19.137c-3.746-1.14-7.164-3.015-10.176-6.109" fill="#6a7478"/>
   <path d="m716.746,152.359v19.137c2.035,4.317 5.371,7.656 10.176,9.121v-2.363c-2.117-4.641-6.106-8.469-6.27-13.844 1.141-2.117 3.094-.082 4.641,0 .406.899.977,1.793 1.629,2.524v-13.356c-3.5,0-6.922-.324-10.176-1.219" fill="#737a79"/>
   <path d="m726.922,153.578v13.356c2.605,3.175 6.43,4.562 10.176,6.191v-2.445c-1.793-1.871-3.258-3.907-2.934-6.27l1.469-.976c-2.606-2.2-8.875-2.77-7.735-6.676 3.012-.41 6.106-.574 9.2-.653v-3.339c-3.422.406-6.84.812-10.176.812zm0,24.676v2.363c.324.082.648.242.976.324-.246-.976-.57-1.871-.976-2.687" fill="#7b7e76"/>
   <path d="m737.098,152.766v3.339c3.418-.082 6.836-.164 10.175-.41v-4.394c-3.339.406-6.757.976-10.175,1.465zm0,17.914v2.445c1.789.813 3.582,1.629 5.289,2.688-.977-1.465-3.336-3.176-5.289-5.133" fill="#858477"/>
   <path d="m747.273,151.301v4.394c3.418-.242 6.836-.566 10.176-1.382v-3.911c-2.281.164-4.558.328-6.84.571-1.14.082-2.199.164-3.336.328" fill="#928b76"/>
   <path d="m757.449,150.402v3.911c1.547-.325 3.012-.735 4.477-1.223 1.789.246 3.742.328 5.695.246v-3.828c-3.336.324-6.754.652-10.172.894" fill="#9f9071"/>
   <path d="m767.621,149.508v3.828c3.34-.164 6.758-.734 10.258-1.305v-3.418c-3.418.325-6.836.649-10.258.895" fill="#ab956e"/>
   <path d="m777.879,148.613v3.418c3.418-.57 6.84-1.14 10.176-1.465v-2.933c-3.418.328-6.836.652-10.176.98" fill="#b89866"/>
   <path d="m788.055,147.633v2.933c.976-.082 1.871-.082 2.847-.082 2.364-1.058 4.887-1.629 7.328-1.953v-1.953c-3.417.324-6.757.649-10.175,1.055" fill="#c4995e"/>
   <path d="m798.23,146.578v1.953c3.336-.406 6.758-.406 10.176-.652v-2.363c-3.34.328-6.758.734-10.176,1.062" fill="#d19c56"/>
   <path d="m808.406,145.516v2.363c3.336-.164 6.758-.652 10.176-2.035v-1.465c-3.34.406-6.758.73-10.176,1.137" fill="#dd9b4c"/>
   <path d="m818.582,144.379v1.465h.242c3.34-.489 6.676-1.547 9.934-2.117v-.407c-3.34.325-6.758.731-10.176,1.059" fill="#ec9e41"/>
   <path d="m828.758,143.32v.407c1.871-.247 3.742-.325 5.617,0l4.559-1.465c-3.34.324-6.676.648-10.176,1.058" fill="#f89c35"/>
   <path d="m285.46 167.02c-4.067-4.399-9.602-7.246-15.059-9.282-1.14 1.954 2.524 2.36 3.664 3.582 3.258 3.34 7.246 6.27 11.395 5.7" fill="#231f20"/>
   <path d="m751.1 167.02c-3.664-0.653-8.305-2.93-12.375-2.036 3.91 1.383 8.55 3.747 12.375 2.036" fill="#fff"/>
   <path d="m323.64 166.44c-0.407-5.129-8.219-5.863-10.825-10.828h-2.605c0.57 6.758 8.629 5.371 10.906 10.828h2.524" fill="#231f20"/>
   <path d="m202.68,163.922c-3.582-2.363-7.895-10.832-13.84-10.344 3.5,3.746 7.57,6.844 10.258,11.402 1.382-.324 2.929.571 3.582-1.058" fill="#231f20"/>
   <path d="m168.082,160.34c.246-3.016-3.5-2.688-5.211-4.156-6.594-3.907-11.476-9.2-19.047-10.911l21.653,15.555c.976-.164 2.035.406 2.605-.488" fill="#231f20"/>
   <path d="m399.188,157.164-.977-2.035c.164-2.363 3.906.488 2.441-2.609-12.941-10.016-26.699-23.207-41.839-30.457-.653.328-.571.98-.571,1.546 13.27,8.309 26.617,18.895 37.774,29.969l-.411.57c-5.207-2.441-9.847-7.98-16.035-8.875v1.629l16.035,11.321c1.305.406 2.364-.489 3.583-1.059" fill="#231f20"/>
   <path d="m343.832,150.973c-2.277-.243-3.906-3.828-6.102-2.606-1.71,2.446 2.766,4.074 4.637,5.211 .977-.324 3.012-1.137 1.465-2.605" fill="#231f20"/>
   <path d="m648.285,148.938c6.024-2.606 14.488-.731 19.617-4.235 .407-3.258-5.453-6.758-7.734-9.691-4.637-1.711-9.93-2.117-12.453,3.582 4.312,7.984-9.035,8.39-3.582,14.496 2.847.488 2.847-2.688 4.152-4.152" fill="#231f20"/>
   <path d="m720.08 149.51v-10.344c-3.418 1.469-6.836 3.016-10.258 4.563 2.446 3.093 6.516 4.398 10.258 5.781" fill="#627078"/>
   <path d="m720.082,139.164v10.344c.328.082.652.246 1.059.406 2.769.164 5.941.164 9.281,0v-14.82c-3.5,1.304-6.922,2.687-10.34,4.07" fill="#687378"/>
   <path d="m730.42 135.09v14.82c3.336-0.242 6.836-0.57 10.258-1.219v-17.101c-3.5 1.058-6.922 2.195-10.258 3.5" fill="#6f7979"/>
   <path d="m740.68,131.594v17.101c2.765-.488 5.371-1.062 7.894-1.793 .813.325 1.629.489 2.442.489v-3.746c-2.36-1.305-4.313-3.747-6.024-5.618-.812-1.062-2.929-1.793-2.199-3.586 3.176-2.847 5.457,1.387 8.223,3.993v-9.204h-.407c-3.418.653-6.675,1.465-9.929,2.364" fill="#757c76"/>
   <path d="m751.016,129.23v9.204c.652.73 1.382,1.218 2.199,1.629l2.035.57-2.035-3.18 2.035-1.465c1.871,1.547 3.988,2.852 6.023,4.317v-9.039c-3.418-.735-6.839-1.465-10.257-2.036zm0,14.415v3.746c3.093.164 5.941-1.875 9.445-1.547-.981-1.305-1.957-3.91-4.152-4.723-.246,1.383.648,3.012-1.059,3.582-1.629.082-3.012-.324-4.234-1.058" fill="#7e8277"/>
   <path d="m761.27 131.27v9.039c1.872 1.386 3.665 2.933 4.883 4.968h3.012c-3.418-1.871-4.313-4.398-7.242-6.679-0.328-1.301 1.219-2.36 2.195-2.606 2.445 1.223 4.887 4.075 7.488 6.352v-8.875c-3.5-0.57-6.918-1.383-10.336-2.199" fill="#838574"/>
   <path d="m771.609,133.465v8.875c3.016,2.687 6.27,4.562 10.258,2.199v-1.789c-1.547-.977-3.254-1.875-3.906-3.668 1.305-1.383 2.605-1.547 3.906-1.055v-3.668c-.082,0-.16,0-.242.082-3.5,0-6.84-.406-10.016-.976" fill="#8b8a74"/>
   <path d="m781.867,134.359v3.668c2.852.977 5.781,4.641 9.606,3.664 0,.571.328.977.734,1.219v-8.387c-3.418-.082-6.836-.164-10.34-.164zm0,8.391v1.789c.41-.242.817-.488 1.305-.812-.406-.407-.895-.653-1.305-.977" fill="#948f71"/>
   <path d="m792.207,134.523v8.387c1.141.817 3.336.41 4.477.328 .894-.898 2.359-.406 3.582-.57-.325-1.223-3.176-1.547-2.118-3.586 1.223-.894 2.606-1.137 4.153-1.055 0,.078.082.161.164.325v-3.582c-3.422-.082-6.84-.247-10.258-.247" fill="#9f946e"/>
   <path d="m802.465,134.77v3.582c2.765,4.398 6.348,4.234 10.336,3.421v-6.597c-3.418-.164-6.836-.246-10.336-.406" fill="#a8996a"/>
   <path d="m812.801,135.176v6.597c3.34-.734 6.84-1.957 10.258-1.304v-4.805c-3.418-.164-6.836-.324-10.258-.488" fill="#b29c65"/>
   <path d="m823.059,135.664v4.805c.164.082.324.082.488.164 3.5,0 6.676-.328 9.851-.653v-3.91c-3.5-.082-6.921-.242-10.339-.406" fill="#bda060"/>
   <path d="m833.398,136.07v3.91c3.418-.488 6.754-1.058 10.254-1.304v-2.36c-3.5,0-6.918-.164-10.254-.246" fill="#c5a257"/>
   <path d="m843.652,136.316v2.36c1.469-.082 3.012-.16 4.641-.082v1.058c.734-2.847 3.746-2.199 5.699-3.175-3.582,0-7-.079-10.34-.161" fill="#cfa550"/>
   <path d="m739.211,145.273c-.242-4.48-7.082-3.257-7.242-8.226-1.223-.488-2.281.406-2.606,1.547-.328,3.91 4.965,5.703 7.817,7.738 .812,0 2.113.082 2.031-1.059" fill="#231f20"/>
   <path d="m656.016,140.633 1.55-2.039c-.652-2.196-3.257-.406-4.64,0-.082,1.469-2.035,3.097-.571,4.644l6.836-.57-3.175-2.035" fill="#fff766"/>
   <path d="m367.68 138.59c-0.813-5.211-8.059-6.758-12.454-9.364 1.223 4.317 6.594 6.352 9.282 9.364h3.172" fill="#231f20"/>
   <path d="m679.301,127.766c.976-.571-.653-2.118-1.059-3.176-3.34-.082-5.863,2.035-8.793,3.176 1.141,1.218 7.164,1.547 9.852,0" fill="#496762"/>
   <path d="m612.059,121.656 7.164-8.386c-.325-1.141-2.36-2.2-3.582-1.059-2.684,5.129-11.071,9.609-5.618,16.043 1.793-1.305.653-4.805 2.036-6.598" fill="#231f20"/>
   <path d="m689.148,125.16c-1.953-1.222-1.464-5.375-4.64-3.097-.895.652-3.254.98-1.625,2.527 1.383,3.258 4.312,1.625 6.265.57" fill="#496762"/>
   <path d="m698.43,123.609c-2.035-1.218-1.953-6.839-5.7-4.152-.894-.082-1.218.816-.976,1.629 .082,3.664 4.07,4.398 6.676,2.523" fill="#496762"/>
   <path d="m708.199,121.656c-.652-2.199-2.933-3.5-2.035-6.269-2.035.812-7.41.324-5.129,4.07 1.625,3.34 4.395,2.199 7.164,2.199" fill="#496762"/>
   <path d="m718.535,119.457c.899-2.035-1.383-4.07-2.035-6.187h-5.695c-.981,2.605 1.465,5.046 3.09,7.328 1.386-1.223 3.421.082 4.64-1.141" fill="#496762"/>
   <path d="m609.699,95.3516v-.7305c-.082.1602-.082.4062-.164.5664 0,.082.082.082.164.1641zm0-2.5235v-4.8867c-.812-.2461-1.547-.5703-2.281-1.0586-1.625,2.5235 1.629,3.582 2.281,5.9453" fill="#627078"/>
   <path d="m609.699,87.9414v4.8867c.164.4883.164,1.1407 0,1.793v.7305c3.012,1.7929-.652,4.6406 2.36,6.5974l2.035.242v-13.273c-1.547-.2422-3.012-.4883-4.395-.9766" fill="#667177"/>
   <path d="m614.094,88.918v13.273c1.386.082 2.851.247 4.316.329v-13.1958c-1.465-.1601-2.93-.2422-4.316-.4062" fill="#6a7375"/>
   <path d="m618.41,89.3242v13.1958c1.465.082 2.93.164 4.395.324v-12.8674c-1.465-.4063-2.93-.5703-4.395-.6524" fill="#6d7474"/>
   <path d="m622.805,89.9766v12.8674c1.465.082 2.929.246 4.316.488v-8.6328c-.328-.3242-.734-.6484-1.058-.9765l.976-2.1993c-1.387-.7304-2.769-1.2187-4.234-1.5468" fill="#717572"/>
   <path d="m627.121,94.6992v8.6328c1.219.164 2.442.406 3.578.652l.817.571v-5.9456c-1.465-1.3828-2.93-2.6875-4.395-3.9102" fill="#757671"/>
   <path d="m631.516,98.6094v5.9456l4.312,2.929v-5.453c-1.465-.976-2.93-2.199-4.312-3.4216zm4.312-1.4649v-1.875l-3.582-1.5468c.734.9765 2.039,2.1992 3.582,3.4218" fill="#78776e"/>
   <path d="m635.828,95.2695v1.875c1.387.9766 2.852,1.8711 4.399,2.5235v-2.6875l-4.399-1.711zm0,6.7615v5.453l1.059.653c1.058-.242 2.199-.407 3.34-.489v-4.152h-1.711c-.977-.406-1.789-.894-2.688-1.465" fill="#7d796c"/>
   <path d="m640.227,96.9805v2.6875c.648.3242 1.218.488 1.871.652 .488,1.547-.813,2.282-1.547,3.176h-.324v4.152c1.464,0 3.011.165 4.394.571v-9.4456l-4.394-1.7929" fill="#837b6b"/>
   <path d="m644.621,98.7734v9.4456c1.059.328 2.117.816 3.094,1.386 .406.079.812.079 1.223.079v-3.418c-.735-.571-1.469-1.305-2.2-1.711-1.465-1.629-1.793-3.422-.57-5.2112l-1.547-.5704" fill="#897d69"/>
   <path d="m648.938,106.266v3.418c1.464,0 2.929-.161 4.394-.407v-2.363c-.164.082-.328.164-.406.246-1.793.653-2.934-.082-3.988-.894zm4.394-2.528v-1.871c-1.223-.324-2.441-.652-3.582-.976 .082,1.464 2.199,2.117 3.582,2.847" fill="#918066"/>
   <path d="m653.332,101.867v1.871c1.301.735 2.035,1.551 0,3.176v2.363c1.465-.242 2.93-.57 4.313-.976v-5.211c-1.383-.406-2.848-.817-4.313-1.223" fill="#988163"/>
   <path d="m657.645,103.09v5.211c1.464-.488 2.933-.977 4.398-1.547v-2.524c-1.387-.328-2.852-.734-4.398-1.14" fill="#9e8260"/>
   <path d="m662.043,104.23v2.524c1.465-.57 2.93-1.141 4.312-1.793-1.218-.082-2.683-.406-4.312-.731" fill="#a4835b"/>
   <path d="m666.44 104.96h-0.083 0.083" fill="#a4835b"/>
   <path d="m559.88 101.38c0.246-0.816-0.652-1.059-0.977-1.4649-6.918 0.9769-14.816 2.8479-20.675-1.5508 6.675-2.6055 14.652-2.6055 21.652-4.6406-4.07-1.5469-9.359 0.3281-14 0.4101-9.199 3.2539-18.316-0.5742-24.746-6.6797-7.004-9.1211-15.711-18.566-25.317-24.27 5.047 6.8437 13.43 12.297 18.559 19.059 11.152 14.414 26.621 26.383 45.504 19.137" fill="#231f20"/>
   <path d="m421.332,100.32-13.84-4.07c1.547,5.047 7.895,3.0117 11.235,5.699 1.382.324 2.441-.57 2.605-1.629" fill="#231f20"/>
   <path d="m441.602,99.9141c-6.352-1.5508-13.11-2.6875-18.645-6.1914-.894.082-2.035-.4883-2.605.4101v1.0547c5.539,4.1563 13.109,3.9102 19.132,6.7615 .977-.894 2.684.324 2.118-2.0349" fill="#231f20"/>
   <path d="m627.039,98.7734c.242-2.9336-3.828-3.9921-4.152-6.6796-2.199,1.1406-1.629,2.9335-1.059,5.2148 .164,1.3828 1.711,1.3828 2.606,2.0352 .894-.0821 2.035.3242 2.605-.5704" fill="#231f20"/>
   <path d="m459.02,92.6641c-4.723-2.6875-10.094-5.293-15.387-5.211 3.664,4.7227 10.586,3.1758 14.98,7.2461 .813-.4062.325-1.4648.407-2.0351" fill="#231f20"/>
   <path d="m482.79 87.941c-1.953-3.1758-6.754-4.9687-10.254-5.1289 1.871 2.8477 6.102 4.8828 9.766 5.6992l0.488-0.5703" fill="#231f20"/>
   <path d="m479.78 56.508c-3.336-7.7383-7.164-15.066-9.847-22.887h-2.606c-0.734 8.7148 6.512 15.637 9.848 23.293l2.605-0.4063" fill="#231f20"/>
   <path d="m526.75 37.777c-0.977-2.3632-3.828-1.7929-5.211-2.039-11.152 1.0625-21.98-1.7891-33.539-1.543l4.152 1.543c11.235 1.3867 23.77 1.3867 34.598 2.039" fill="#231f20"/>
   <path d="m467.324,14.2422v-1.5469l-1.465-.8164c.325.9766.813,1.7109 1.465,2.3633" fill="#627078"/>
   <path d="m467.324,12.6953v1.5469c.406.4062.895.8125 1.465,1.1406v-2.3633c-.324,0-.652,0-.894-.082l-.571-.2422" fill="#6a7478"/>
   <path d="m468.789,13.0195v2.3633c.406.2422.895.5703 1.465.7305v-3.418c-.488.1602-.977.3242-1.465.3242" fill="#737a79"/>
   <path d="m470.254,12.6953v3.418c.406.2461.894.4883 1.465.6523v-5.0508c-.406.4102-.977.7344-1.465.9805" fill="#7b7e76"/>
   <path d="m471.719,11.7148v5.0508c.406.2422.894.4063 1.465.6524v-8.55081l-.649-.57031c.567,1.22265.078,2.52342-.816,3.41792" fill="#858477"/>
   <path d="m473.184,8.86719v8.55081c.488.164.976.4062 1.464.6523v-7.9844l-1.464-1.21871" fill="#928b76"/>
   <path d="m474.648,10.0859v7.9844c.489.2422.977.4883 1.465.8125v-7.5742l-1.465-1.2227" fill="#9f9071"/>
   <path d="m476.113,11.3086v7.5742c.492.3242.981.7344 1.469,1.1406v-7.4921l-1.469-1.2227" fill="#ab956e"/>
   <path d="m477.582,12.5313v7.4921c.488.5704.977,1.1407 1.465,1.8711v-5.2109c-.652-1.0586-1.059-2.2813-.895-3.7461l-.57-.4062" fill="#b89866"/>
   <path d="m479.047,16.6836v5.2109c.242.4102.488.9805.73,1.4688 .246.082.489.1601.735.1601v-5.0468c-.571-.4883-1.141-1.1407-1.465-1.793" fill="#c4995e"/>
   <path d="m480.512,18.4766v5.0468c.488.0821.976,0 1.465-.1601v-3.586c-.571-.4062-1.059-.8125-1.465-1.3007" fill="#d19c56"/>
   <path d="m481.977,19.7773v3.586c.488-.082.976-.2461 1.464-.3281v-2.1993c-.488-.3242-1.058-.7304-1.464-1.0586" fill="#dd9b4c"/>
   <path d="m483.441,20.8359v2.1993c.489-.0821.977-.0821 1.465.082v-1.2227c-.488-.3242-.976-.7304-1.465-1.0586" fill="#ec9e41"/>
   <path d="m484.906,21.8945v1.2227c.328.082.653.3281 1.059.6523l.406-.4062c-.406-.4883-.894-.9805-1.465-1.4688" fill="#f89c35"/>
  </g>
 </g>
</svg>
