<svg width="93" height="148" viewBox="0 0 93 148" fill="none" xmlns="http://www.w3.org/2000/svg">
<path d="M9.61389 31.4479C9.42855 31.3692 6.56589 30.4145 5.68055 30.6945C3.91789 31.2505 4.46055 31.9559 3.59255 32.6999C2.65122 33.5065 1.32722 34.8412 1.08989 35.4505C0.59122 36.7265 0.512553 38.0492 1.36322 39.0625C2.33655 40.2239 3.32322 42.4919 4.49122 42.9919C5.00989 43.2159 5.99922 42.8532 6.88189 42.7545C7.29522 42.7105 9.19122 42.1319 9.46722 41.9905C10.8672 41.2732 11.9712 40.5865 12.4112 39.4625C12.9606 38.0559 13.2632 35.8385 12.8766 34.5012C12.2126 32.2039 10.4646 31.8132 9.61389 31.4479Z" fill="white"/>
<path d="M89.3476 82.9018C88.9396 82.3884 88.4876 81.8938 88.0209 81.4084C85.7796 79.0804 82.9942 77.1084 80.8022 75.8058C78.5462 74.4644 73.6342 72.9404 69.0116 71.6911C65.7716 70.8151 62.6742 70.0711 60.7369 69.6231C60.8036 69.5231 60.9009 69.4231 61.0156 69.3231C61.0636 69.2804 61.1209 69.2378 61.1756 69.1951C61.2689 69.1244 61.3729 69.0511 61.4862 68.9778C61.5449 68.9391 61.6022 68.9018 61.6662 68.8644C61.8489 68.7538 62.0462 68.6431 62.2662 68.5311C72.9916 65.8738 77.7622 55.4804 77.7622 44.2351C77.7622 28.8738 66.5116 15.5858 49.3262 15.3178C32.1409 15.5858 20.8902 28.8738 20.8902 44.2351C20.8902 55.4804 25.6596 65.8738 36.3849 68.5311C36.9622 68.8258 37.4036 69.1084 37.6956 69.3858C36.1329 69.7671 32.7716 70.6138 29.1769 71.6524C24.8249 72.9098 20.1276 74.4511 17.8489 75.8058C15.6569 77.1084 12.8729 79.0804 10.6316 81.4084C10.1649 81.8938 9.7129 82.3884 9.3049 82.9018C7.32223 85.3938 6.14623 88.1884 6.99823 90.9884C8.87023 97.1338 12.9862 94.9644 21.9649 92.4338C22.6556 92.2391 26.5916 91.4191 27.7916 91.2791C27.7609 91.3404 27.7249 91.4164 27.6849 91.4978C27.6516 91.5671 27.6182 91.6378 27.5782 91.7204C27.5476 91.7884 27.5116 91.8698 27.4756 91.9458C27.4209 92.0671 27.3636 92.1978 27.3009 92.3418C27.2662 92.4191 27.2316 92.5031 27.1956 92.5871C27.1236 92.7604 27.0449 92.9498 26.9649 93.1511C26.9316 93.2351 26.8982 93.3204 26.8622 93.4098C26.7716 93.6444 26.6756 93.9004 26.5782 94.1671C26.5489 94.2484 26.5196 94.3258 26.4889 94.4111C26.3716 94.7431 26.2489 95.1004 26.1249 95.4818C26.1129 95.5164 26.1009 95.5471 26.0902 95.5831C25.8089 96.4498 25.5182 97.4364 25.2316 98.5498C25.2142 98.6151 25.1982 98.6858 25.1809 98.7524C25.0609 99.2271 24.9422 99.7231 24.8249 100.242C24.7889 100.402 24.7542 100.571 24.7182 100.735C24.6222 101.179 24.5276 101.634 24.4342 102.108C24.3929 102.324 24.3529 102.547 24.3129 102.768C24.2302 103.216 24.1502 103.678 24.0742 104.151C24.0316 104.41 23.9902 104.674 23.9516 104.94C23.8809 105.406 23.8142 105.888 23.7502 106.378C23.7129 106.668 23.6756 106.959 23.6396 107.258C23.5796 107.763 23.5262 108.287 23.4756 108.815C23.4449 109.122 23.4129 109.422 23.3862 109.735C23.3356 110.315 23.2956 110.916 23.2569 111.522C23.2369 111.811 23.2142 112.088 23.1982 112.382C23.1489 113.291 23.1102 114.223 23.0889 115.19C22.7142 131.458 28.3262 141.579 32.0689 144.832C35.8102 148.087 41.7969 148.087 43.6676 144.11C45.4742 140.27 45.9316 121.608 49.3262 120.326C52.7196 121.608 53.1782 140.27 54.9849 144.11C56.8556 148.087 62.8422 148.087 66.5836 144.832C70.3249 141.579 75.9382 131.458 75.5636 115.19C75.5422 114.223 75.5036 113.291 75.4529 112.382C75.4369 112.087 75.4142 111.808 75.3956 111.518C75.3569 110.915 75.3169 110.315 75.2662 109.739C75.2382 109.422 75.2076 109.118 75.1769 108.808C75.1249 108.282 75.0716 107.76 75.0129 107.258C74.9769 106.959 74.9396 106.668 74.9022 106.378C74.8382 105.888 74.7716 105.406 74.7009 104.94C74.6609 104.674 74.6209 104.41 74.5782 104.151C74.5009 103.678 74.4222 103.216 74.3396 102.77C74.2996 102.547 74.2596 102.323 74.2169 102.108C74.1249 101.634 74.0302 101.179 73.9342 100.735C73.8982 100.571 73.8636 100.402 73.8276 100.24C73.7102 99.7231 73.5916 99.2284 73.4716 98.7551C73.4542 98.6884 73.4369 98.6151 73.4209 98.5498C73.1342 97.4364 72.8436 96.4484 72.5622 95.5831C72.5502 95.5484 72.5409 95.5191 72.5289 95.4844C72.4036 95.1018 72.2809 94.7418 72.1609 94.4071C72.1329 94.3258 72.1049 94.2538 72.0756 94.1751C71.9782 93.9031 71.8809 93.6458 71.7889 93.4084C71.7542 93.3191 71.7209 93.2351 71.6876 93.1524C71.6076 92.9511 71.5302 92.7618 71.4569 92.5884C71.4209 92.5031 71.3849 92.4178 71.3502 92.3391C71.2889 92.1978 71.2316 92.0684 71.1782 91.9484C71.1422 91.8711 71.1049 91.7884 71.0716 91.7191C71.0342 91.6378 71.0009 91.5684 70.9676 91.5004C70.9289 91.4178 70.8916 91.3418 70.8596 91.2791C72.0609 91.4191 75.9969 92.2391 76.6862 92.4338C85.6662 94.9644 89.7822 97.1338 91.6529 90.9884C92.5049 88.1884 91.3302 85.3938 89.3476 82.9018Z" fill="#C51A24"/>
<path d="M77.0325 43.7689C77.0325 55.4876 64.6285 64.9863 49.3272 64.9863C34.0245 64.9863 21.6205 55.4876 21.6205 43.7689C21.6205 32.0503 34.0245 22.5516 49.3272 22.5516C64.6285 22.5516 77.0325 32.0503 77.0325 43.7689Z" fill="#FFB088"/>
<path d="M65.7272 46.7259C66.3005 49.5005 64.8219 52.1525 62.4232 52.6485C60.0245 53.1445 57.6152 51.2979 57.0405 48.5232C56.4672 45.7485 57.9472 43.0965 60.3445 42.6005C62.7432 42.1045 65.1525 43.9512 65.7272 46.7259Z" fill="#442005"/>
<path d="M60.6646 45.9961C60.83 46.7961 60.3166 47.5788 59.5166 47.7441C58.718 47.9095 57.9353 47.3948 57.77 46.5948C57.6046 45.7961 58.118 45.0135 58.918 44.8481C59.718 44.6828 60.4993 45.1961 60.6646 45.9961Z" fill="white"/>
<path d="M60.334 50.8762C60.8993 51.0202 61.514 51.1002 62.0527 51.0056C62.602 50.9442 63.0753 50.6762 63.462 50.3016C63.85 49.9402 64.0673 49.4122 64.2233 48.8469C64.362 48.2762 64.414 47.6496 64.414 47.0389V47.0216C64.414 46.9069 64.5073 46.8136 64.622 46.8136C64.7167 46.8136 64.7953 46.8762 64.822 46.9602C65.0247 47.6176 65.0807 48.2909 65.002 48.9869C64.9313 49.6802 64.6433 50.3896 64.126 50.9536C63.618 51.4909 62.8673 51.8349 62.134 51.8696C61.3927 51.8922 60.7073 51.7029 60.11 51.3109C59.9967 51.2376 59.9647 51.0856 60.0393 50.9722C60.098 50.8816 60.206 50.8442 60.3047 50.8682L60.334 50.8762Z" fill="#632F0C"/>
<path d="M32.9251 46.7259C32.3517 49.5005 33.8304 52.1525 36.2291 52.6485C38.6277 53.1445 41.0371 51.2979 41.6117 48.5232C42.1851 45.7485 40.7051 43.0965 38.3077 42.6005C35.9091 42.1045 33.4997 43.9512 32.9251 46.7259Z" fill="#442005"/>
<path d="M37.987 45.9961C37.8216 46.7961 38.3363 47.5788 39.135 47.7441C39.935 47.9095 40.7176 47.3948 40.883 46.5948C41.0483 45.7961 40.5336 45.0135 39.735 44.8481C38.935 44.6828 38.1523 45.1961 37.987 45.9961Z" fill="white"/>
<path d="M38.3184 50.8762C37.753 51.0202 37.1384 51.1002 36.5997 51.0056C36.0504 50.9442 35.577 50.6762 35.1904 50.3016C34.8024 49.9402 34.585 49.4122 34.429 48.8469C34.2904 48.2762 34.2384 47.6496 34.2384 47.0389V47.0216C34.2384 46.9069 34.145 46.8136 34.0304 46.8136C33.9357 46.8136 33.857 46.8762 33.8304 46.9602C33.6277 47.6176 33.5717 48.2909 33.6504 48.9869C33.7197 49.6802 34.009 50.3896 34.5264 50.9536C35.0344 51.4909 35.785 51.8349 36.5184 51.8696C37.2597 51.8922 37.945 51.7029 38.5424 51.3109C38.6557 51.2376 38.6877 51.0856 38.613 50.9722C38.5544 50.8816 38.4464 50.8442 38.3477 50.8682L38.3184 50.8762Z" fill="#632F0C"/>
<path d="M39.2265 34.112C38.8559 33.96 38.1852 33.8454 37.6425 33.8787C37.0719 33.9014 36.5025 34.028 35.9639 34.2614C35.4345 34.5134 34.9185 34.8374 34.4625 35.2667C33.9972 35.684 33.5985 36.1947 33.2172 36.7267L33.1892 36.7667C32.9252 37.136 32.4132 37.2214 32.0439 36.9574C31.6959 36.708 31.6012 36.236 31.8119 35.8734C32.1972 35.2147 32.6212 34.564 33.1639 33.98C33.6932 33.388 34.3412 32.8774 35.0599 32.4614C35.7905 32.0627 36.6065 31.7974 37.4465 31.6894C38.3132 31.592 39.0839 31.5987 40.0625 31.88C40.6972 32.0627 41.0639 32.724 40.8812 33.3587C40.6985 33.992 40.0372 34.3587 39.4039 34.176C39.3625 34.1654 39.3225 34.1507 39.2839 34.136L39.2265 34.112Z" fill="white"/>
<path d="M58.5892 31.8802C59.5679 31.5989 60.3385 31.5922 61.2052 31.6882C62.0452 31.7976 62.8625 32.0629 63.5919 32.4616C64.3119 32.8776 64.9599 33.3869 65.4892 33.9802C66.0305 34.5642 66.4545 35.2149 66.8399 35.8736C67.0692 36.2656 66.9372 36.7682 66.5465 36.9976C66.1772 37.2136 65.7092 37.1082 65.4652 36.7696L65.4345 36.7269C65.0545 36.1936 64.6545 35.6842 64.1892 35.2669C63.7332 34.8376 63.2185 34.5136 62.6879 34.2616C62.1492 34.0269 61.5812 33.9016 61.0092 33.8789C60.4679 33.8456 59.7972 33.9602 59.4252 34.1122L59.3692 34.1349C58.7585 34.3829 58.0612 34.0896 57.8119 33.4789C57.5639 32.8682 57.8572 32.1709 58.4679 31.9216C58.5079 31.9056 58.5492 31.8922 58.5892 31.8802Z" fill="white"/>
<path d="M81.5976 45.7975C81.5976 35.5455 77.6509 30.0895 77.6509 30.0895H72.9549C72.9549 30.0895 77.3896 45.3375 71.6509 53.3428C61.8096 67.0695 59.0923 54.6908 49.0256 54.6908C38.9589 54.6908 36.2403 67.0695 26.3989 53.3428C20.6603 45.3375 25.0949 30.0895 25.0949 30.0895H20.3989C20.3989 30.0895 16.4523 35.5455 16.4523 45.7975C16.4523 54.7055 16.9643 62.2161 21.3083 68.0135C29.0429 78.3361 40.4816 80.8295 39.6029 78.6668C39.5816 78.6255 39.5149 77.1815 39.5469 77.2135C42.1203 79.7868 47.7629 82.3975 49.0256 82.3975C50.3643 82.3975 56.1789 79.8881 59.3216 76.7441C59.4789 76.5881 59.1536 78.4628 59.0496 78.6668C58.1749 80.8201 69.3083 78.3788 76.8403 68.1468C81.1189 62.3321 81.5976 54.7735 81.5976 45.7975Z" fill="white"/>
<path d="M64.2207 60.9603C56.138 60.4336 56.5233 55.215 52.1993 55.7616C50.79 56.0416 49.6727 56.9336 49.026 58.0976C48.378 56.9336 47.2607 56.0416 45.8513 55.7616C41.5273 55.215 41.9127 60.4336 33.83 60.9603C31.2673 61.3563 35.9553 67.2323 41.5487 66.7443C46.1353 66.3443 48.1327 64.7723 49.026 62.8843C49.918 64.7723 51.9153 66.3443 56.502 66.7443C62.094 67.2323 66.7833 61.3563 64.2207 60.9603Z" fill="#DDDDDD"/>
<path d="M8.79108 34.8997C9.70575 35.7224 12.3351 33.537 14.5737 31.2477C18.8217 26.9024 20.7911 26.2904 21.9644 26.1597C23.1391 26.0304 20.0084 31.693 20.5297 31.861C21.0511 32.0304 33.6164 25.5904 49.0258 25.401C62.6938 25.2344 76.4858 31.861 77.7911 32.0304C79.0951 32.1984 75.1644 12.7104 70.8604 8.01437C66.5564 3.31837 52.6604 0.255701 47.9644 0.385035C43.2684 0.515701 29.7911 3.78504 23.0084 8.61037C18.4884 11.8264 7.48575 33.7264 8.79108 34.8997Z" fill="#C51A24"/>
<path d="M23.2493 36.9257C22.436 36.9257 21.7306 36.7817 21.1786 36.6204C19.5493 37.0177 17.7546 36.5177 16.5666 35.1671C14.8653 33.2311 15.0546 30.2831 16.992 28.5817C18.372 27.3684 19.9626 26.8724 21.732 27.1031C22.344 25.9484 23.3253 24.6671 25.0266 23.9564C26.652 23.2777 28.1573 23.5084 29.3306 23.8817C30.1013 22.8871 31.2413 21.8164 32.964 21.4057C34.6386 21.0084 36.0666 21.4364 37.164 21.9657C38.0453 21.1057 39.2893 20.2271 40.9973 20.0431C42.6786 19.8631 44.0306 20.4431 45.0506 21.0911C46.0106 20.3444 47.324 19.6217 49.0106 19.6177H49.0293C50.7613 19.6177 52.0786 20.3471 53.0546 21.1071C54.0826 20.4457 55.4466 19.8324 57.1746 20.0084C58.92 20.1871 60.1933 21.0924 61.0893 21.9604C62.1986 21.4177 63.656 20.9577 65.3653 21.3551C67.1253 21.7644 68.292 22.8657 69.0773 23.8697C70.26 23.4857 71.7946 23.2284 73.4626 23.9124C75.1986 24.6271 76.1986 25.9377 76.8226 27.1031C78.62 26.8564 80.2346 27.3404 81.6386 28.5604C83.584 30.2511 83.7893 33.1991 82.1 35.1444C80.9066 36.5151 79.0973 37.0244 77.44 36.6097C76.2 36.9671 74.1893 37.2404 71.8986 35.9991C70.7533 35.3777 70.0333 34.4644 69.548 33.6017C68.5106 33.8577 67.284 33.9564 65.9653 33.5444C64.64 33.1284 63.712 32.3137 63.0413 31.5084C62.0453 31.9351 60.8173 32.2444 59.4026 32.0111C57.992 31.7817 56.936 31.0777 56.1466 30.3497C55.1973 30.9057 53.9866 31.3804 52.536 31.3071C51.0813 31.2377 49.9386 30.6444 49.0626 29.9964C48.1973 30.6497 47.064 31.2471 45.616 31.3231C44.1946 31.4017 43.02 30.9577 42.084 30.4217C41.3093 31.1364 40.28 31.8151 38.904 32.0471C37.528 32.2764 36.332 31.9951 35.3506 31.5871C34.6946 32.3777 33.7893 33.1657 32.5 33.5777C31.22 33.9871 30.0213 33.9057 29.008 33.6657C28.532 34.5097 27.828 35.3937 26.7146 36.0057C25.4466 36.7017 24.264 36.9257 23.2493 36.9257Z" fill="white"/>
<path d="M88.0208 81.4088L83.0955 95.2475C83.0955 95.2475 88.7208 98.1155 90.9208 94.2035C95.6168 85.8555 88.0208 81.4088 88.0208 81.4088Z" fill="#025927"/>
<path d="M10.4108 81.4088L15.3361 95.2475C15.3361 95.2475 9.71079 98.1155 7.51079 94.2035C2.81479 85.8555 10.4108 81.4088 10.4108 81.4088Z" fill="#025927"/>
<path d="M23.4752 108.814C23.4458 109.121 23.4138 109.422 23.3858 109.736C23.3365 110.314 23.2952 110.917 23.2565 111.522C23.2378 111.81 23.2152 112.088 23.1978 112.382C23.1485 113.29 23.1112 114.224 23.0885 115.19C22.7138 131.457 28.3272 141.58 32.0685 144.833C35.8098 148.086 41.7965 148.086 43.6685 144.11C45.4738 140.27 45.9312 121.608 49.3258 120.325C52.7205 121.608 53.1778 140.27 54.9845 144.11C56.8552 148.086 62.8418 148.086 66.5845 144.833C70.3258 141.58 75.9378 131.457 75.5632 115.19C75.5418 114.224 75.5032 113.29 75.4525 112.382C75.4378 112.086 75.4138 111.808 75.3952 111.518C75.3565 110.916 75.3165 110.314 75.2658 109.738C75.2392 109.421 75.2072 109.118 75.1765 108.808C75.1245 108.282 64.0898 119.116 49.3258 119.117C34.5605 119.118 23.5272 108.286 23.4752 108.814Z" fill="#990B19"/>
<path d="M75.3997 108.951C76.2131 108.951 76.9184 109.095 77.4704 109.256C79.0997 108.859 80.8944 109.359 82.0824 110.709C83.7837 112.645 83.5944 115.593 81.657 117.295C80.277 118.508 78.6864 119.004 76.9171 118.773C76.3051 119.928 75.3237 121.209 73.6224 121.92C71.9971 122.599 70.4917 122.368 69.3184 121.995C68.5477 122.989 67.4077 124.06 65.6851 124.471C64.0104 124.868 62.5824 124.44 61.4851 123.911C60.6037 124.771 59.3597 125.649 57.6517 125.833C55.9704 126.013 54.6184 125.433 53.5984 124.785C52.6384 125.532 51.3251 126.255 49.6384 126.259H49.6197C47.8877 126.259 46.5704 125.529 45.5944 124.769C44.5664 125.431 43.2024 126.044 41.4744 125.868C39.7291 125.689 38.4557 124.784 37.5597 123.916C36.4504 124.459 34.9931 124.919 33.2837 124.521C31.5237 124.112 30.3571 123.011 29.5717 122.007C28.3891 122.391 26.8544 122.648 25.1864 121.964C23.4504 121.249 22.4504 119.939 21.8264 118.773C20.0291 119.02 18.4144 118.536 17.0104 117.316C15.0651 115.625 14.8597 112.677 16.5491 110.732C17.7424 109.361 19.5517 108.852 21.2091 109.267C22.4491 108.909 24.4597 108.636 26.7504 109.877C27.8957 110.499 28.6157 111.412 29.1011 112.275C30.1384 112.019 31.3651 111.92 32.6837 112.332C34.0091 112.748 34.9371 113.563 35.6077 114.368C36.6037 113.941 37.8317 113.632 39.2464 113.865C40.6571 114.095 41.7131 114.799 42.5024 115.527C43.4517 114.971 44.6624 114.496 46.1131 114.569C47.5677 114.639 48.7104 115.232 49.5864 115.88C50.4517 115.227 51.5851 114.629 53.0331 114.553C54.4544 114.475 55.6291 114.919 56.5651 115.455C57.3397 114.74 58.3691 114.061 59.7451 113.829C61.1211 113.6 62.3171 113.881 63.2984 114.289C63.9544 113.499 64.8597 112.711 66.1491 112.299C67.4291 111.889 68.6277 111.971 69.6411 112.211C70.1171 111.367 70.8211 110.483 71.9344 109.871C73.2024 109.175 74.3851 108.951 75.3997 108.951Z" fill="white"/>
<path d="M64.2207 59.627C56.138 59.1003 56.5233 53.8817 52.1993 54.4283C50.79 54.7083 49.6727 55.6003 49.026 56.7643C48.378 55.6003 47.2607 54.7083 45.8513 54.4283C41.5273 53.8817 41.9127 59.1003 33.83 59.627C31.2673 60.023 35.9553 65.899 41.5487 65.411C46.1353 65.011 48.1327 63.439 49.026 61.551C49.918 63.439 51.9153 65.011 56.502 65.411C62.094 65.899 66.7833 60.023 64.2207 59.627Z" fill="white"/>
<path d="M53.6739 54.5084C53.6739 56.2337 51.7272 57.6324 49.3259 57.6324C46.9245 57.6324 44.9792 56.2337 44.9792 54.5084C44.9792 52.7831 46.9245 51.3844 49.3259 51.3844C51.7272 51.3844 53.6739 52.7831 53.6739 54.5084Z" fill="#EF6D60"/>
<path d="M16.9571 96.6635C15.3024 97.2061 13.7264 97.0195 13.2411 96.2675C12.6971 96.1195 11.7504 95.8141 11.4531 94.9075C11.2198 94.1968 11.5264 93.5475 11.8411 93.0875C11.3158 92.9021 10.6824 92.5608 10.4491 91.8515C10.2171 91.1421 10.5238 90.4928 10.8358 90.0328C10.3118 89.8488 9.67976 89.5075 9.44776 88.7981C9.21443 88.0901 9.52109 87.4408 9.83443 86.9821C9.30909 86.7968 8.67976 86.4555 8.44643 85.7461C8.21309 85.0381 8.51976 84.3888 8.83309 83.9301C8.30909 83.7448 7.67709 83.4035 7.44509 82.6941C7.14776 81.7888 7.72909 80.9821 8.08109 80.5421C8.02909 79.6475 9.18643 78.5661 10.8398 78.0235C12.6438 77.4315 14.3531 77.7061 14.6584 78.6368C14.8918 79.3461 14.5851 79.9941 14.2731 80.4541C14.7971 80.6381 15.4278 80.9795 15.6598 81.6888C15.8931 82.3981 15.5864 83.0475 15.2731 83.5061C15.7971 83.6915 16.4291 84.0315 16.6624 84.7421C16.8944 85.4501 16.5891 86.0981 16.2758 86.5568C16.7998 86.7435 17.4304 87.0835 17.6638 87.7928C17.8971 88.5021 17.5904 89.1515 17.2758 89.6115C17.8011 89.7955 18.4331 90.1368 18.6664 90.8461C18.8998 91.5581 18.5918 92.2088 18.2771 92.6675C18.8024 92.8528 19.4358 93.1941 19.6704 93.9048C19.9758 94.8355 18.7611 96.0715 16.9571 96.6635Z" fill="white"/>
<path d="M81.0937 96.6635C82.7484 97.2061 84.3244 97.0195 84.8097 96.2675C85.3524 96.1195 86.3004 95.8141 86.5977 94.9075C86.831 94.1968 86.523 93.5475 86.2097 93.0875C86.735 92.9021 87.3684 92.5608 87.6004 91.8515C87.8337 91.1421 87.527 90.4928 87.2137 90.0328C87.7377 89.8488 88.3697 89.5075 88.603 88.7981C88.835 88.0901 88.5297 87.4408 88.2164 86.9821C88.7404 86.7968 89.371 86.4555 89.6044 85.7461C89.8377 85.0381 89.5297 84.3888 89.2177 83.9301C89.7417 83.7448 90.3724 83.4035 90.6057 82.6941C90.903 81.7888 90.3204 80.9821 89.9684 80.5421C90.0217 79.6475 88.8644 78.5661 87.211 78.0235C85.407 77.4315 83.6964 77.7061 83.391 78.6368C83.159 79.3461 83.4644 79.9941 83.7777 80.4541C83.2537 80.6381 82.6217 80.9795 82.3897 81.6888C82.1564 82.3981 82.4644 83.0475 82.7764 83.5061C82.2524 83.6915 81.6217 84.0315 81.3884 84.7421C81.155 85.4501 81.4617 86.0981 81.7737 86.5568C81.2497 86.7435 80.619 87.0835 80.387 87.7928C80.1537 88.5021 80.4604 89.1515 80.7737 89.6115C80.2497 89.7955 79.6177 90.1368 79.3844 90.8461C79.151 91.5581 79.459 92.2088 79.7724 92.6675C79.2484 92.8528 78.6137 93.1941 78.3804 93.9048C78.075 94.8355 79.2897 96.0715 81.0937 96.6635Z" fill="white"/>
<path d="M74.3561 105.231C58.2628 112.024 40.3854 112.024 24.2934 105.231C23.5894 104.934 23.2214 104.151 23.4708 103.508C24.1441 101.755 23.5268 99.6364 24.2361 97.7897C24.4974 97.1137 25.2441 96.799 25.8974 97.075C40.9601 103.432 57.6895 103.432 72.7508 97.075C73.4055 96.799 74.1521 97.1137 74.4135 97.7897C75.1228 99.6364 74.5055 101.755 75.1788 103.508C75.4281 104.151 75.0601 104.934 74.3561 105.231Z" fill="black"/>
<path d="M45.5885 102.309V109.781H53.0579L53.0605 102.309H45.5885ZM53.0605 112.26H45.5885C44.2219 112.26 43.1099 111.148 43.1099 109.781V102.309C43.1099 100.943 44.2219 99.8305 45.5885 99.8305H53.0605C54.4272 99.8305 55.5392 100.943 55.5392 102.309V109.781C55.5392 111.148 54.4272 112.26 53.0605 112.26Z" fill="#DB7D26"/>
<path d="M42.7493 90.8483C42.764 91.0483 43.2373 94.0283 43.8933 94.6856C45.1986 95.9949 45.5746 95.1869 46.636 95.6149C47.7853 96.0789 49.5813 96.6376 50.2293 96.5683C51.5933 96.4229 52.8026 95.8829 53.3093 94.6616C53.892 93.2629 55.4493 91.3403 55.356 90.0736C55.3146 89.5096 54.5373 88.8003 54.044 88.0616C53.812 87.7149 52.4266 86.2989 52.1733 86.1203C50.8906 85.2083 49.7733 84.5443 48.5733 84.6723C47.072 84.8323 44.964 85.5869 43.956 86.5456C42.2226 88.1936 42.6826 89.9256 42.7493 90.8483Z" fill="white"/>
</svg>
