<?xml version="1.0" encoding="UTF-8"?>
<svg viewBox="0 0 213.75 113.75" xmlns="http://www.w3.org/2000/svg">
 <g transform="matrix(1.25,0,0,-1.25,0,113.75)">
  <g transform="scale(.24)">
   <path d="m406.695,109.301-.101-4.336 1.386-1.383 4.153-1.488v-2.7659l2.867-2.7695v-1.4648l15.512-30.9375 4.254-8.3868 2.847-5.7382 4.254-6.9219 1.383-4.3321v-5.6406l1.387-5.5351v-.0821l-4.153-4.1523l-2.953-1.3828-2.035-2.586-.832-3.1523 .102-1.2813l5.718,1.3829h12.637l3.891.6484 3.398,1.832 2.504,3.0547 .082.1016l4.719,2.1172 3.969,3.3164 1.203,1.5664l1.465,2.8711-1.465,2.7695-1.387,1.3828l-1.668,2.586-4.984,9.5039-3.684,9.8711-2.32,10.4414l-1.285,9.1406-2.504,9.0351-3.867,8.4063-.833,1.5664l-.285.6523-1.281,5.9021 .184,6.106-42.278.082" fill="#b5a8a4"/>
   <path d="m406.695,109.301-.101-4.336 1.386-1.383 4.153-1.488v-2.7659l2.867-2.7695v-1.4648l15.512-30.9375 4.254-8.3868 2.847-5.7382 4.254-6.9219 1.383-4.3321v-5.6406l1.387-5.5351v-.0821l-4.153-4.1523l-2.953-1.3828-2.035-2.586-.832-3.1523 .102-1.2813l5.718,1.3829h12.637l3.891.6484 3.398,1.832 2.504,3.0547 .082.1016l4.719,2.1172 3.969,3.3164 1.203,1.5664l1.465,2.8711-1.465,2.7695-1.387,1.3828l-1.668,2.586-4.984,9.5039-3.684,9.8711-2.32,10.4414l-1.285,9.1406-2.504,9.0351-3.867,8.4063-.833,1.5664l-.285.6523-1.281,5.9021 .184,6.106-42.278.082z" fill="none" stroke="#b5a8a4" stroke-width=".645"/>
   <path d="m440.48 16.348 5.536-0.1836 5.636 1.1992 5.071 2.4844 4.253 3.7851 2.016 2.5039" fill="none" stroke="#363639" stroke-width=".09167"/>
   <path d="m420.64 102.09v-4.1487l-1.387-4.2344" fill="none" stroke="#363639" stroke-width=".09167"/>
   <path d="m416.39 102.09 1.484-4.1487v-4.2344" fill="none" stroke="#363639" stroke-width=".09167"/>
   <path d="m412.13 100.71h2.867" fill="none" stroke="#363639" stroke-width=".09167"/>
   <path d="m415 97.945 1.387-1.3867" fill="none" stroke="#363639" stroke-width=".09167"/>
   <path d="m434.379,14.9648-.184,1.0157 .649,3.5 1.933,2.4023 2.973,1.3828 .734-6.9179-6.105-1.3829" fill="#fff"/>
   <path d="m434.379,14.9648-.184,1.0157 .649,3.5 1.933,2.4023 2.973,1.3828 .734-6.9179-6.105-1.3829z" fill="none" stroke="#363639" stroke-width=".09167"/>
   <path d="m458.027,245.832-5.453,11.172-4.886,11.359-3.704,11.254-1.648,12.559-1.121,11.722 .551,12.457 2.218,11.825 3.704,11.722 5.984,8.121 7.023,5.903 6.473,3.785 7,2.769 8.121.918 7.024-.55 7.101-1.465 6.473-3.34 6.086-6.816-5.821,4.046-6.554,2.688-6.922,1.465-7.102.105-6.922-1.488-6.55-2.586-5.903-3.969-4.988-4.883-3.969-5.902-2.504-5.719-2.586-11.359-1.097-11.457 .265-11.438 1.668-11.359 2.953-11.172 4.434-10.605 5.539-10.156 49.559-71.727 11.925-9.891 12.825-8.57 13.472-7.672 14.125-6.269 14.676-4.985 15.043-3.5 15.242-2.32 15.41-.918 15.793.551 8.59.914 8.383,2.32 7.938,3.867 7.207,4.989 6.371,6.289 5.269,7.183 4.235,8.039 2.871,8.774 1.382,4.051h9.504v-19.379l-4.882-8.586-2.137-2.77-6.453-7.469-8.121-5.925-10.258-5.981-9.789-3.707-10.239-2.766-10.808-1.019h-16.141l-16.261,1.566-16.243,3.239-15.589,4.882-15.692,5.926-16.711,8.02-14.125,8.039-13.472,9.687-13.477,10.887-44.309,64.625" fill="#796c6b"/>
   <path d="m458.027,245.832-5.453,11.172-4.886,11.359-3.704,11.254-1.648,12.559-1.121,11.722 .551,12.457 2.218,11.825 3.704,11.722 5.984,8.121 7.023,5.903 6.473,3.785 7,2.769 8.121.918 7.024-.55 7.101-1.465 6.473-3.34 6.086-6.816-5.821,4.046-6.554,2.688-6.922,1.465-7.102.105-6.922-1.488-6.55-2.586-5.903-3.969-4.988-4.883-3.969-5.902-2.504-5.719-2.586-11.359-1.097-11.457 .265-11.438 1.668-11.359 2.953-11.172 4.434-10.605 5.539-10.156 49.559-71.727 11.925-9.891 12.825-8.57 13.472-7.672 14.125-6.269 14.676-4.985 15.043-3.5 15.242-2.32 15.41-.918 15.793.551 8.59.914 8.383,2.32 7.938,3.867 7.207,4.989 6.371,6.289 5.269,7.183 4.235,8.039 2.871,8.774 1.382,4.051h9.504v-19.379l-4.882-8.586-2.137-2.77-6.453-7.469-8.121-5.925-10.258-5.981-9.789-3.707-10.239-2.766-10.808-1.019h-16.141l-16.261,1.566-16.243,3.239-15.589,4.882-15.692,5.926-16.711,8.02-14.125,8.039-13.472,9.687-13.477,10.887-44.309,64.625z" fill="none" stroke="#363639" stroke-width=".645"/>
   <path d="m143.875,192.199 508.363,36.555 49.766-28.801 5.801-18.824-.996-6.473-2.403-6.554-3.605-5.903-4.719-5.172l1.586,6.657 .266,6.738-1.102,6.816-2.398,6.371-3.707,5.821-4.782,4.886-5.742,3.786-6.367,2.586-6.738,1.3h-.633l-15.426,3.867-15.512,2.403-15.773.937-15.793-.285-15.691-1.75-5.172-.836l-19.192-4.254-18.746-5.535-18.379-6.82-17.808-7.957-12.09-6.453l-9.789-7.469-8.856-8.508-7.855-9.402-6.82-10.258-.567-.918l-1.387-8.484-5.718-4.153-4.153-15.511l-2.765-1.383-2.953-2.871l-1.098-.832-4.539-1.934-4.887-.734-4.984.734l-9.793,1.281-9.973-.082-9.769-1.484-4.254-1.203-46.711-7.0002-9.137-1.3008-10.605-.0821l-7.856-1.3046-9.605-.3672-9.59,1.1015-9.239,2.4024-8.855,3.7851-63.52,26.7849-11.625,5.434-12.191,4.254-12.453,2.847-.551.102h-.183l-17.18,3.789-16.891,5.066-16.343,6.473-15.774,7.754-15.328,8.957-14.4102,10.156l-5.6172,4.598-12.9258,11.93-11.9062,12.82-10.9063,13.84-9.7734,14.594-8.586,15.226-7.207,15.977-6.0039,16.527-4.8047,17.074-1.3828,6.371 18.8477,46.141h22.1445v-4.883l-.5508-1.203-1.668-1.281-1.5664-.571-1.75-.265-2.4023-.832-1.5664-1.567-.836-1.57-1.3828-1.383-1.6484-1.383-2.1367-1.203-1.75-5.168-4.4375-7.125 .5703-24.261 42.2734-73.11 72.1719-38.039" fill="#968784"/>
   <path d="m143.875,192.199 508.363,36.555 49.766-28.801 5.801-18.824-.996-6.473-2.403-6.554-3.605-5.903-4.719-5.172l1.586,6.657 .266,6.738-1.102,6.816-2.398,6.371-3.707,5.821-4.782,4.886-5.742,3.786-6.367,2.586-6.738,1.3h-.633l-15.426,3.867-15.512,2.403-15.773.937-15.793-.285-15.691-1.75-5.172-.836l-19.192-4.254-18.746-5.535-18.379-6.82-17.808-7.957-12.09-6.453l-9.789-7.469-8.856-8.508-7.855-9.402-6.82-10.258-.567-.918l-1.387-8.484-5.718-4.153-4.153-15.511l-2.765-1.383-2.953-2.871l-1.098-.832-4.539-1.934-4.887-.734-4.984.734l-9.793,1.281-9.973-.082-9.769-1.484-4.254-1.203-46.711-7.0002-9.137-1.3008-10.605-.0821l-7.856-1.3046-9.605-.3672-9.59,1.1015-9.239,2.4024-8.855,3.7851-63.52,26.7849-11.625,5.434-12.191,4.254-12.453,2.847-.551.102h-.183l-17.18,3.789-16.891,5.066-16.343,6.473-15.774,7.754-15.328,8.957-14.4102,10.156l-5.6172,4.598-12.9258,11.93-11.9062,12.82-10.9063,13.84-9.7734,14.594-8.586,15.226-7.207,15.977-6.0039,16.527-4.8047,17.074-1.3828,6.371 18.8477,46.141h22.1445v-4.883l-.5508-1.203-1.668-1.281-1.5664-.571-1.75-.265-2.4023-.832-1.5664-1.567-.836-1.57-1.3828-1.383-1.6484-1.383-2.1367-1.203-1.75-5.168-4.4375-7.125 .5703-24.261 42.2734-73.11 72.1719-38.039z" fill="none" stroke="#968784" stroke-width=".09167"/>
   <path d="m50.4727,350.508 3.8671-.735 4.1524-.285 3.3164.571 9.7109,1.464 4.4141.469 4.2539-.285 2.9531.285 2.0352.551 1.1992.914 .918,1.59-1.3828.183-25.4844,2.586 16.8945.914 12.293,1.668 .4453.184 .3672.367v.653l-.6289,2.195-.9375,1.019-1.3828.938-2.668.812-6.0039,1.122-2.6875.546-3.3984.836-2.7657,1.465-3.789,2.219-2.3985.937-1.957.18h-1.3828l-3.0313-.465-5.6406-1.488-1.9336.285-2.0351-.367-3.9688-1.301-4.1523-1.832-3.8868-2.32-3.8671-2.403-6.918-5.902-5.6406-6.734-4.6993-7.473-3.3203-8.305-2.21872-8.507-.54687-8.954 .73047-8.488 1.46872-6.738 5.086-17.625-.2852,3.867-.3672,3.887 .5508,10.238 2.0352,9.508 3.3164,9.055 4.6211,8.589 5.7187,8.02 6.9219,6.84 7.6719,6.086 2.0351,1.668 .2656.082 .4688-1.387 1.668-.914v-.285" fill="#b5a8a4"/>
   <path d="m50.4727,350.508 3.8671-.735 4.1524-.285 3.3164.571 9.7109,1.464 4.4141.469 4.2539-.285 2.9531.285 2.0352.551 1.1992.914 .918,1.59-1.3828.183-25.4844,2.586 16.8945.914 12.293,1.668 .4453.184 .3672.367v.653l-.6289,2.195-.9375,1.019-1.3828.938-2.668.812-6.0039,1.122-2.6875.546-3.3984.836-2.7657,1.465-3.789,2.219-2.3985.937-1.957.18h-1.3828l-3.0313-.465-5.6406-1.488-1.9336.285-2.0351-.367-3.9688-1.301-4.1523-1.832-3.8868-2.32-3.8671-2.403-6.918-5.902-5.6406-6.734-4.6993-7.473-3.3203-8.305-2.21872-8.507-.54687-8.954 .73047-8.488 1.46872-6.738 5.086-17.625-.2852,3.867-.3672,3.887 .5508,10.238 2.0352,9.508 3.3164,9.055 4.6211,8.589 5.7187,8.02 6.9219,6.84 7.6719,6.086 2.0351,1.668 .2656.082 .4688-1.387 1.668-.914v-.285z" fill="none" stroke="#b5a8a4" stroke-width=".09167"/>
   <path d="m259.46 105.7v-25.383l-4.152-6.0039-6.739-8.4883-8.507-7.8554-5.797-6.5547-3.239-5.5352-1.199-7.2851 1.75-3.0547 0.649-5.3516-1.2-2.4844-3.703-1.8515-4.152-2.3008-3.684-1.1992-9.242-1.75-0.449 3.5-2.5 1.75-0.551 1.8515 0.551 2.4844 1.851 2.4023 3.051 2.9493 1.285 3.0547 2.95 22.976 1.851 2.9531 2.403 3.7032 2.484 9.1406 3.601 9.6055 4.805 9.6875 4.336 9.0388h23.547" fill="#b5a8a4"/>
   <path d="m259.46 105.7v-25.383l-4.152-6.0039-6.739-8.4883-8.507-7.8554-5.797-6.5547-3.239-5.5352-1.199-7.2851 1.75-3.0547 0.649-5.3516-1.2-2.4844-3.703-1.8515-4.152-2.3008-3.684-1.1992-9.242-1.75-0.449 3.5-2.5 1.75-0.551 1.8515 0.551 2.4844 1.851 2.4023 3.051 2.9493 1.285 3.0547 2.95 22.976 1.851 2.9531 2.403 3.7032 2.484 9.1406 3.601 9.6055 4.805 9.6875 4.336 9.0388h23.547z" fill="none" stroke="#b5a8a4" stroke-width=".645"/>
   <path d="m354.348,110.602-11.438,18.277-2.504,3.422-3.5,2.379-4.07,1.203-2.566.101-35.274-15.613-7.101-4.152-3.336-1.934-2.383-3.051-1.199-3.683-.106-2.586 3.606-5.9025 3.05-7.3867 2.403-7.6758 .734-3.0312 1.566-2.504-.101-3.0312 1.484-2.7695 .551-2.0352 1.75-10.2578 .652-9.6875v-10.2383l1.2-1.8515v-1.2032l.652-3.0508v-2.4023l-.652-7.1836-.653-4.2539 .653-4.1523-1.383-2.8711-1.387-1.3828-5.719-.7344-9.89.7344-4.051.4687-2.504.6484-1.934.2657h-4.152l2.402,2.4023 4.989,3.3359 3.867,11.1563-1.465,2.2187 1.465,2.0352-2.668,2.2188 .551,1.75-4.051,7.7539-3.055,7.4687-1.75,7.8555-.285,8.1211-2.848,4.2539-5.636,5.539-9.692,10.418-7.203,10.8091-5.453,2.484-7.937,6.656-4.805,7.203-1.832,6.188-1.203,5.351-.184,5.356 .551,5.25 2.035,4.988 3.219,4.254-16.895-1.387-1.75.184-17.629,2.484-17.257,3.887-16.997,5.172-16.527,6.449-15.957,7.938-15.324,8.957-14.4103,10.257-13.6562,11.336-12.8242,12.293-11.6407,13.375-10.707,14.227-9.7891,14.957-8.3047,15.695-2.9492,7.836-2.8515,8.301-1.4844,6.84-.5508,7.207 .5508,4.414 .3633,3.422 2.0351,5.351 2.9532,4.336 4.8046,5.535 5.4336-15.406 6.2891-14.676 7.6523-14.023 8.6914-13.207 9.9532-12.457 10.9883-11.461 12.0117-10.602 12.6365-9.507 13.762-8.325 14.203-7 14.879-5.82 15.309-4.437 .101-.083l12.09-1.953 12.375-.55 12.269.836 12.192,2.296 11.808,3.524 11.356,4.883 10.707,6.109 .469.262l25.379,9.871l12.742,6.472 15.875,6.739 16.426,5.535 16.812,3.969 16.973,2.769 17.281,1.301l7.652.266 19.762-.551 19.559-2.035 19.398-3.215l15.406-1.485h15.411l15.425,1.301 8.774,1.567l1.648.183 22.43,3.321 22.531,1.933 22.613.465 22.61-.914 22.531-2.219l9.691-.101 12.922-1.282 12.66-2.687 12.274-3.969 11.805-5.433 11.175-6.657 10.442-7.652 9.402-8.875 8.508-9.789 2.949-3.606 2.586-5.433 1.649-7.102 .367-5.453v-3.32l-3.684,7.937-4.519,5.539-.754.832l-10.785,7.938-11.461,6.738-12.09,5.453-12.742,4.235-13.004,2.871-13.211,1.465-13.289.183-9.403-.816l-21.25-2.137-21.125-3.5-20.679-4.988-20.395-6.188-19.945-7.57-19.379-8.953-18.848-10.156-9.504-5.723-26.867-32.297-2.219-4.437-6.164-10.157-7.207-9.406-8.406-9.055-2.586-3.867-10.051-13.0272-3.238-4.8828-1.934-5.457-.55-5.0664-.465-2.4023-1.203-6.004-3.969-9.871-2.117-10.9922-.754-11.2539 .57-11.1758 .918-6.0039 .551-5.7188-1.203-1.75-4.254-2.50389-16.324-1.19922-10.989.64844-5.902.65235h-4.254l1.016,1.93359 3.316,3.78513 2.688,2.7696 1.386,1.3828 1.016-.4688 2.586,3.2383 4.883,12.7383 1.304,12.0117-.753,12.0898-1.282,10.8868v4.8047l.731,7.9375v7.1015l-1.282,1.9336 1.282,3.707v2.8477l1.386,2.7695 2.95,11.2739" fill="#b5a8a4"/>
   <path d="m354.348,110.602-11.438,18.277-2.504,3.422-3.5,2.379-4.07,1.203-2.566.101-35.274-15.613-7.101-4.152-3.336-1.934-2.383-3.051-1.199-3.683-.106-2.586 3.606-5.9025 3.05-7.3867 2.403-7.6758 .734-3.0312 1.566-2.504-.101-3.0312 1.484-2.7695 .551-2.0352 1.75-10.2578 .652-9.6875v-10.2383l1.2-1.8515v-1.2032l.652-3.0508v-2.4023l-.652-7.1836-.653-4.2539 .653-4.1523-1.383-2.8711-1.387-1.3828-5.719-.7344-9.89.7344-4.051.4687-2.504.6484-1.934.2657h-4.152l2.402,2.4023 4.989,3.3359 3.867,11.1563-1.465,2.2187 1.465,2.0352-2.668,2.2188 .551,1.75-4.051,7.7539-3.055,7.4687-1.75,7.8555-.285,8.1211-2.848,4.2539-5.636,5.539-9.692,10.418-7.203,10.8091-5.453,2.484-7.937,6.656-4.805,7.203-1.832,6.188-1.203,5.351-.184,5.356 .551,5.25 2.035,4.988 3.219,4.254-16.895-1.387-1.75.184-17.629,2.484-17.257,3.887-16.997,5.172-16.527,6.449-15.957,7.938-15.324,8.957-14.4103,10.257-13.6562,11.336-12.8242,12.293-11.6407,13.375-10.707,14.227-9.7891,14.957-8.3047,15.695-2.9492,7.836-2.8515,8.301-1.4844,6.84-.5508,7.207 .5508,4.414 .3633,3.422 2.0351,5.351 2.9532,4.336 4.8046,5.535 5.4336-15.406 6.2891-14.676 7.6523-14.023 8.6914-13.207 9.9532-12.457 10.9883-11.461 12.0117-10.602 12.6365-9.507 13.762-8.325 14.203-7 14.879-5.82 15.309-4.437 .101-.083l12.09-1.953 12.375-.55 12.269.836 12.192,2.296 11.808,3.524 11.356,4.883 10.707,6.109 .469.262l25.379,9.871l12.742,6.472 15.875,6.739 16.426,5.535 16.812,3.969 16.973,2.769 17.281,1.301l7.652.266 19.762-.551 19.559-2.035 19.398-3.215l15.406-1.485h15.411l15.425,1.301 8.774,1.567l1.648.183 22.43,3.321 22.531,1.933 22.613.465 22.61-.914 22.531-2.219l9.691-.101 12.922-1.282 12.66-2.687 12.274-3.969 11.805-5.433 11.175-6.657 10.442-7.652 9.402-8.875 8.508-9.789 2.949-3.606 2.586-5.433 1.649-7.102 .367-5.453v-3.32l-3.684,7.937-4.519,5.539-.754.832l-10.785,7.938-11.461,6.738-12.09,5.453-12.742,4.235-13.004,2.871-13.211,1.465-13.289.183-9.403-.816l-21.25-2.137-21.125-3.5-20.679-4.988-20.395-6.188-19.945-7.57-19.379-8.953-18.848-10.156-9.504-5.723-26.867-32.297-2.219-4.437-6.164-10.157-7.207-9.406-8.406-9.055-2.586-3.867-10.051-13.0272-3.238-4.8828-1.934-5.457-.55-5.0664-.465-2.4023-1.203-6.004-3.969-9.871-2.117-10.9922-.754-11.2539 .57-11.1758 .918-6.0039 .551-5.7188-1.203-1.75-4.254-2.50389-16.324-1.19922-10.989.64844-5.902.65235h-4.254l1.016,1.93359 3.316,3.78513 2.688,2.7696 1.386,1.3828 1.016-.4688 2.586,3.2383 4.883,12.7383 1.304,12.0117-.753,12.0898-1.282,10.8868v4.8047l.731,7.9375v7.1015l-1.282,1.9336 1.282,3.707v2.8477l1.386,2.7695 2.95,11.2739z" fill="none" stroke="#b5a8a4" stroke-width=".09167"/>
   <path d="m364.14 154.16-2.766-12.64" fill="none" stroke="#363639" stroke-width=".09167"/>
   <path d="m436.148,169.668 2.118,9.141 .832,9.523-.75,9.402-.735,4.254" fill="none" stroke="#363639" stroke-width=".09167"/>
   <path d="m415 155.64 3.684 7.835 2.504 8.325 1.019 8.57-0.102 6.188" fill="none" stroke="#363639" stroke-width=".09167"/>
   <path d="m415 155.64-5.637-12.743-12.64-22.531" fill="none" stroke="#363639" stroke-width=".09167"/>
   <path d="m276.62 190.82-3.215 1.2h-3.519l-3.137-1.383-1.383-1.305" fill="none" stroke="#363639" stroke-width=".09167"/>
   <path d="m242.75 165.43 6.371 3.218 5.637 4.356 3.504 3.785" fill="none" stroke="#363639" stroke-width=".645"/>
   <path d="m335.99 142.9 7.188 4.989 6.472 6.086 5.454 6.839 3.398 6.086" fill="none" stroke="#363639" stroke-width=".09167"/>
   <path d="m338.76 138.75 6.555 5.172 5.617 6.086 1.953 2.765" fill="none" stroke="#363639" stroke-width=".09167"/>
   <path d="m341.53 131.65 5.168 3.602 3.317 3.5" fill="none" stroke="#363639" stroke-width=".09167"/>
   <path d="m379.73 197.84-5.722-9.504-4.598-10.074-3.156-10.606-1.934-10.906-0.183-2.586" fill="none" stroke="#363639" stroke-width=".09167"/>
   <path d="m359.883,171.051 1.488,4.254 1.199,1.57 .285,2.113-.753,1.957-1.649,1.2-.57.183" fill="none" stroke="#363639" stroke-width=".09167"/>
   <path d="m398.21 103.68 2.582 3.867 8.387 9.137 7.207 9.324 6.187 10.156 2.215 4.437 26.867 32.301 9.508 5.719" fill="none" stroke="#363639" stroke-width=".645"/>
   <path d="m25.172 315.99 2.7695 1.485" fill="none" stroke="#363639" stroke-width=".09167"/>
   <path d="m29.43 315.99-2.8711-1.383" fill="none" stroke="#363639" stroke-width=".09167"/>
   <path d="m27.941 306.2 1.4883 1.383" fill="none" stroke="#363639" stroke-width=".09167"/>
   <path d="m29.43 301.96 1.3828 1.383" fill="none" stroke="#363639" stroke-width=".09167"/>
   <path d="m35.047 301.96-4.2344-1.305" fill="none" stroke="#363639" stroke-width=".09167"/>
   <path d="m35.047 287.84 1.3828 1.383" fill="none" stroke="#363639" stroke-width=".09167"/>
   <path d="m37.914 285.15 4.1523 4.071" fill="none" stroke="#363639" stroke-width=".09167"/>
   <path d="m42.066 275.18 2.8516 2.769" fill="none" stroke="#363639" stroke-width=".09167"/>
   <path d="m44.551 273.98 3.2344 2.583" fill="none" stroke="#363639" stroke-width=".09167"/>
   <path d="m51.938 265.31 2.8711 2.871" fill="none" stroke="#363639" stroke-width=".09167"/>
   <path d="m56.273 258.28 2.7696 1.488" fill="none" stroke="#363639" stroke-width=".09167"/>
   <path d="m64.781 248.52 4.1523 2.769" fill="none" stroke="#363639" stroke-width=".09167"/>
   <path d="m66.164 247.13 2.7695 1.383" fill="none" stroke="#363639" stroke-width=".09167"/>
   <path d="m77.969 237.16 3.707 2.848" fill="none" stroke="#363639" stroke-width=".09167"/>
   <path d="m78.805 235.86 2.8711 1.301" fill="none" stroke="#363639" stroke-width=".09167"/>
   <path d="m87.293 228.75 2.7656 4.254" fill="none" stroke="#363639" stroke-width=".09167"/>
   <path d="m88.676 227.27 2.8711 2.968" fill="none" stroke="#363639" stroke-width=".09167"/>
   <path d="m105.67 216.01 2.848 2.953" fill="none" stroke="#363639" stroke-width=".09167"/>
   <path d="m109.64 212.96 4.234 5.738" fill="none" stroke="#363639" stroke-width=".09167"/>
   <path d="m122.2 207.71 1.567 3.422" fill="none" stroke="#363639" stroke-width=".09167"/>
   <path d="m125.52 206.32 2.3 4.805" fill="none" stroke="#363639" stroke-width=".09167"/>
   <path d="m132.9 202.72 2.118 4.07" fill="none" stroke="#363639" stroke-width=".09167"/>
   <path d="m136.87 200.6 2.77 4.235" fill="none" stroke="#363639" stroke-width=".09167"/>
   <path d="m155.15 193.58 1.465 4.254" fill="none" stroke="#363639" stroke-width=".09167"/>
   <path d="m159.02 192.1 1.855 7.672" fill="none" stroke="#363639" stroke-width=".09167"/>
   <path d="m163.64 192.2v5.637" fill="none" stroke="#363639" stroke-width=".09167"/>
   <path d="m182.02 190.82v5.536" fill="none" stroke="#363639" stroke-width=".09167"/>
   <path d="m186.17 190.82v4.153" fill="none" stroke="#363639" stroke-width=".09167"/>
   <path d="m192.44 185.83-0.653 10.707" fill="none" stroke="#363639" stroke-width=".09167"/>
   <path d="m208.86 180.94-1.465 16.891" fill="none" stroke="#363639" stroke-width=".09167"/>
   <path d="m213.12 172.44-1.484 25.398" fill="none" stroke="#363639" stroke-width=".09167"/>
   <path d="m218.65 193.58-1.097 6.27" fill="none" stroke="#363639" stroke-width=".09167"/>
   <path d="m231.5 197.84-2.035 4.418" fill="none" stroke="#363639" stroke-width=".09167"/>
   <path d="m234.27 200.6-4.258 7.102" fill="none" stroke="#363639" stroke-width=".09167"/>
   <path d="m245.52 204.84-1.383 4.254" fill="none" stroke="#363639" stroke-width=".09167"/>
   <path d="m246.9 206.32-2.765 9.688" fill="none" stroke="#363639" stroke-width=".09167"/>
   <path d="m259.64 209.09-1.383 4.152" fill="none" stroke="#363639" stroke-width=".09167"/>
   <path d="m272.39 220.35-2.871 5.535" fill="none" stroke="#363639" stroke-width=".09167"/>
   <path d="m295.18 231.52-1.567 4.336" fill="none" stroke="#363639" stroke-width=".09167"/>
   <path d="m328.42 242.88-0.938 4.254" fill="none" stroke="#363639" stroke-width=".09167"/>
   <path d="m352.88 247.13-0.367 4.152" fill="none" stroke="#363639" stroke-width=".09167"/>
   <path d="m378.34 249.9v1.383" fill="none" stroke="#363639" stroke-width=".09167"/>
   <path d="m405.13 244.26 1.465 5.64" fill="none" stroke="#363639" stroke-width=".09167"/>
   <path d="m412.13 241.5 1.484 7.02" fill="none" stroke="#363639" stroke-width=".09167"/>
   <path d="m430.51 240.01 1.484 5.64" fill="none" stroke="#363639" stroke-width=".09167"/>
   <path d="m441.87 237.16-1.383 7.102" fill="none" stroke="#363639" stroke-width=".09167"/>
   <path d="m479.99 234.47-1.383 12.66" fill="none" stroke="#363639" stroke-width=".09167"/>
   <path d="m279.39 213.25-0.266 1.383" fill="none" stroke="#363639" stroke-width=".09167"/>
   <path d="m283.74 214.63-1.953 6.289" fill="none" stroke="#363639" stroke-width=".09167"/>
   <path d="m307.64 221.73-5.617 11.278" fill="none" stroke="#363639" stroke-width=".09167"/>
   <path d="m309.12 224.5-1.484 2.77" fill="none" stroke="#363639" stroke-width=".09167"/>
   <path d="m324.63 230.24-2.035 6.922" fill="none" stroke="#363639" stroke-width=".09167"/>
   <path d="m327.48 230.24-0.363 2.77" fill="none" stroke="#363639" stroke-width=".09167"/>
   <path d="m344.48 233.01-2.95 11.254" fill="none" stroke="#363639" stroke-width=".09167"/>
   <path d="m347.25 234.47-0.836 3.238" fill="none" stroke="#363639" stroke-width=".09167"/>
   <path d="m368.39 234.47-0.649 8.406" fill="none" stroke="#363639" stroke-width=".09167"/>
   <path d="m372.62 234.47v2.687" fill="none" stroke="#363639" stroke-width=".09167"/>
   <path d="m388.5,237.16 .184,10.055" fill="none" stroke="#363639" stroke-width=".09167"/>
   <path d="m391 237.16v4.336" fill="none" stroke="#363639" stroke-width=".09167"/>
   <path d="m424.87 227.27 0.938 2.968" fill="none" stroke="#363639" stroke-width=".09167"/>
   <path d="m432.73 225.8 0.649 2.949" fill="none" stroke="#363639" stroke-width=".09167"/>
   <path d="m437.61 224.5 1.383 5.738" fill="none" stroke="#363639" stroke-width=".09167"/>
   <path d="m451.74 221.73-1.383 19.766" fill="none" stroke="#363639" stroke-width=".09167"/>
   <path d="m455.89 221.73v9.895" fill="none" stroke="#363639" stroke-width=".09167"/>
   <path d="m463 223.12-0.551 5.738" fill="none" stroke="#363639" stroke-width=".09167"/>
   <path d="m472.89 225.88-2.77 16.996" fill="none" stroke="#363639" stroke-width=".09167"/>
   <path d="m477.12 227.27-0.734 4.437" fill="none" stroke="#363639" stroke-width=".09167"/>
   <path d="m491.25 231.62-4.234 14.023" fill="none" stroke="#363639" stroke-width=".09167"/>
   <path d="m494.11 233.01-1.383 4.152" fill="none" stroke="#363639" stroke-width=".09167"/>
   <path d="m505.37 237.16-1.387 7.102-1.382 5.64" fill="none" stroke="#363639" stroke-width=".09167"/>
   <path d="m508.14 238.62-1.383 5.637" fill="none" stroke="#363639" stroke-width=".09167"/>
   <path d="m522.36 241.5-2.867 11.172" fill="none" stroke="#363639" stroke-width=".09167"/>
   <path d="m525.13 242.88-1.383 2.769" fill="none" stroke="#363639" stroke-width=".09167"/>
   <path d="m540.64 242.88-2.766 9.789" fill="none" stroke="#363639" stroke-width=".09167"/>
   <path d="m542.11 244.26v4.254" fill="none" stroke="#363639" stroke-width=".09167"/>
   <path d="m553.46 244.26v8.406" fill="none" stroke="#363639" stroke-width=".09167"/>
   <path d="m556.23 245.65-1.386 2.868" fill="none" stroke="#363639" stroke-width=".09167"/>
   <path d="m567.51 245.65-2.766 8.485" fill="none" stroke="#363639" stroke-width=".09167"/>
   <path d="m567.51 245.65v2.868" fill="none" stroke="#363639" stroke-width=".09167"/>
   <path d="m577.38 245.65 1.387 7.02" fill="none" stroke="#363639" stroke-width=".09167"/>
   <path d="m587.25 245.65v7.02" fill="none" stroke="#363639" stroke-width=".09167"/>
   <path d="m602.86 245.65-1.488 5.637" fill="none" stroke="#363639" stroke-width=".09167"/>
   <path d="m605.71 244.26 2.769 5.64" fill="none" stroke="#363639" stroke-width=".09167"/>
   <path d="m615.6 244.26v4.254" fill="none" stroke="#363639" stroke-width=".09167"/>
   <path d="m618.37 245.65v2.868" fill="none" stroke="#363639" stroke-width=".09167"/>
   <path d="m633.88 241.5 1.469 2.766" fill="none" stroke="#363639" stroke-width=".09167"/>
   <path d="m638.11 240.01v4.254" fill="none" stroke="#363639" stroke-width=".09167"/>
   <path d="m652.24 238.62v1.383" fill="none" stroke="#363639" stroke-width=".09167"/>
   <path d="m655.11 237.16 1.383 1.465" fill="none" stroke="#363639" stroke-width=".09167"/>
   <path d="m437.61 157.03-4.234 2.77" fill="none" stroke="#363639" stroke-width=".09167"/>
   <path d="m441.87 161.18-5.719 5.722" fill="none" stroke="#363639" stroke-width=".09167"/>
   <path d="m443.25 164.05-1.383 1.383" fill="none" stroke="#363639" stroke-width=".09167"/>
   <path d="m448.97 169.67-2.953 2.77" fill="none" stroke="#363639" stroke-width=".09167"/>
   <path d="m451.74 172.44-4.336 11.273" fill="none" stroke="#363639" stroke-width=".09167"/>
   <path d="m455.89 175.3-1.383 4.254" fill="none" stroke="#363639" stroke-width=".09167"/>
   <path d="m458.84 178.18-1.469 16.793" fill="none" stroke="#363639" stroke-width=".09167"/>
   <path d="m464.38 180.94-1.383 8.383" fill="none" stroke="#363639" stroke-width=".09167"/>
   <path d="m468.633,183.711-2.301,12.641-.836,6.371-.465,6.371 .285,4.984 .547,4.887" fill="none" stroke="#363639" stroke-width=".09167"/>
   <path d="m478.6 187.94-1.484 5.637-1.387 12.742v8.305" fill="none" stroke="#363639" stroke-width=".09167"/>
   <path d="m485.63 192.2-2.504 14.125" fill="none" stroke="#363639" stroke-width=".09167"/>
   <path d="m495.5 196.35-2.77 14.125" fill="none" stroke="#363639" stroke-width=".09167"/>
   <path d="m506.75 200.6-2.77 21.125" fill="none" stroke="#363639" stroke-width=".09167"/>
   <path d="m509.7 201.99-1.281 6.821" fill="none" stroke="#363639" stroke-width=".09167"/>
   <path d="m513.86 203.45-0.914 3.606" fill="none" stroke="#363639" stroke-width=".09167"/>
   <path d="m518.11 204.84-0.464 4.723" fill="none" stroke="#363639" stroke-width=".09167"/>
   <path d="m527.98 209.09-1.386 9.871" fill="none" stroke="#363639" stroke-width=".09167"/>
   <path d="m530.85 210.48-0.551 3.785" fill="none" stroke="#363639" stroke-width=".09167"/>
   <path d="m542.03 212.96-2.136 11.273" fill="none" stroke="#363639" stroke-width=".09167"/>
   <path d="m546.36 214.63-0.183 2.949" fill="none" stroke="#363639" stroke-width=".09167"/>
   <path d="m556.23 216.01-1.386 11.258" fill="none" stroke="#363639" stroke-width=".09167"/>
   <path d="m559 217.58v2.77" fill="none" stroke="#363639" stroke-width=".09167"/>
   <path d="m561.95 217.58-0.183 4.152" fill="none" stroke="#363639" stroke-width=".09167"/>
   <path d="m574.61 220.35-1.386 14.125" fill="none" stroke="#363639" stroke-width=".09167"/>
   <path d="m577.38 220.35v4.152" fill="none" stroke="#363639" stroke-width=".09167"/>
   <path d="m587.25 221.73 1.488 11.278" fill="none" stroke="#363639" stroke-width=".09167"/>
   <path d="m591.5 221.73v2.77" fill="none" stroke="#363639" stroke-width=".09167"/>
   <path d="m604.25 221.73v11.278" fill="none" stroke="#363639" stroke-width=".09167"/>
   <path d="m607.1 223.12v2.766" fill="none" stroke="#363639" stroke-width=".09167"/>
   <path d="m609.78 222.57 0.266 4.254" fill="none" stroke="#363639" stroke-width=".09167"/>
   <path d="m621.14 223.12v7.121" fill="none" stroke="#363639" stroke-width=".09167"/>
   <path d="m624.09 223.12v2.766" fill="none" stroke="#363639" stroke-width=".09167"/>
   <path d="m633.88 221.73v5.54" fill="none" stroke="#363639" stroke-width=".09167"/>
   <path d="m639.5 220.35 1.488 9.89" fill="none" stroke="#363639" stroke-width=".09167"/>
   <path d="m643.39 220.16 1.383 4.152" fill="none" stroke="#363639" stroke-width=".09167"/>
   <path d="m650.86 217.58 1.383 11.176" fill="none" stroke="#363639" stroke-width=".09167"/>
   <path d="m653.62 217.58 1.484 1.387" fill="none" stroke="#363639" stroke-width=".09167"/>
   <path d="m662.11 216.01 1.387 8.488" fill="none" stroke="#363639" stroke-width=".09167"/>
   <path d="m663.5 213.25 1.383 2.766" fill="none" stroke="#363639" stroke-width=".09167"/>
   <path d="m672 211.86 1.383 7.106" fill="none" stroke="#363639" stroke-width=".09167"/>
   <path d="m674.85 211.86 1.484 1.387" fill="none" stroke="#363639" stroke-width=".09167"/>
   <path d="m681.88 207.71v2.77" fill="none" stroke="#363639" stroke-width=".09167"/>
   <path d="m686.13 203.45 2.848 8.406" fill="none" stroke="#363639" stroke-width=".09167"/>
   <path d="m688.98 201.99v2.852" fill="none" stroke="#363639" stroke-width=".09167"/>
   <path d="m691.75 199.22 2.867 2.765" fill="none" stroke="#363639" stroke-width=".09167"/>
   <path d="m697.46 194.97 2.789 8.484" fill="none" stroke="#363639" stroke-width=".09167"/>
   <path d="m698.85 193.58 1.406 1.387" fill="none" stroke="#363639" stroke-width=".09167"/>
   <path d="m477.04 158.13-2.687 4.539" fill="none" stroke="#363639" stroke-width=".09167"/>
   <path d="m479.99 161.18-6.656 18.277" fill="none" stroke="#363639" stroke-width=".09167"/>
   <path d="m482.76 164.05-1.383 5.617" fill="none" stroke="#363639" stroke-width=".09167"/>
   <path d="m496.88 175.3-3.785 11.359" fill="none" stroke="#363639" stroke-width=".09167"/>
   <path d="m499.75 176.79-1.387 4.152" fill="none" stroke="#363639" stroke-width=".09167"/>
   <path d="m509.07 181.57-3.703 10.625" fill="none" stroke="#363639" stroke-width=".09167"/>
   <path d="m511.09 182.33-1.387 2.77" fill="none" stroke="#363639" stroke-width=".09167"/>
   <path d="m522.36 187.94-2.867 12.66" fill="none" stroke="#363639" stroke-width=".09167"/>
   <path d="m543.49 197.84v2.769" fill="none" stroke="#363639" stroke-width=".09167"/>
   <path d="m525.13 189.33-0.367 2.688" fill="none" stroke="#363639" stroke-width=".09167"/>
   <path d="m540.64 196.35-1.383 9.972" fill="none" stroke="#363639" stroke-width=".09167"/>
   <path d="m561.95 201.99v2.852" fill="none" stroke="#363639" stroke-width=".09167"/>
   <path d="m566.12 203.45v11.176" fill="none" stroke="#363639" stroke-width=".09167"/>
   <path d="m568.9 204.84v2.867" fill="none" stroke="#363639" stroke-width=".09167"/>
   <path d="m581.61 206.32v5.535" fill="none" stroke="#363639" stroke-width=".09167"/>
   <path d="m584.48 207.71v9.871" fill="none" stroke="#363639" stroke-width=".09167"/>
   <path d="m595.74 209.09v4.152" fill="none" stroke="#363639" stroke-width=".09167"/>
   <path d="m598.61 209.09v9.871" fill="none" stroke="#363639" stroke-width=".09167"/>
   <path d="m607.1 209.09-0.368 5.535" fill="none" stroke="#363639" stroke-width=".09167"/>
   <path d="m611.25 210.48v7.101" fill="none" stroke="#363639" stroke-width=".09167"/>
   <path d="m621.14 210.48v4.152" fill="none" stroke="#363639" stroke-width=".09167"/>
   <path d="m625.47 209.09v2.765" fill="none" stroke="#363639" stroke-width=".09167"/>
   <path d="m631.01 209.09v6.918" fill="none" stroke="#363639" stroke-width=".09167"/>
   <path d="m633.88 209.09v4.152" fill="none" stroke="#363639" stroke-width=".09167"/>
   <path d="m640.98 209.09 0.653 5.535" fill="none" stroke="#363639" stroke-width=".09167"/>
   <path d="m643.75 207.71 0.832 3.969" fill="none" stroke="#363639" stroke-width=".09167"/>
   <path d="m657.96 203.45 1.387 2.871" fill="none" stroke="#363639" stroke-width=".09167"/>
   <path d="m662.11 203.45 1.387 5.641" fill="none" stroke="#363639" stroke-width=".09167"/>
   <path d="m672 199.22 1.383 2.765" fill="none" stroke="#363639" stroke-width=".09167"/>
   <path d="m674.85 199.22 1.484 2.765 1.387 2.852" fill="none" stroke="#363639" stroke-width=".09167"/>
   <path d="m683.26 194.97 2.871 4.254" fill="none" stroke="#363639" stroke-width=".09167"/>
   <path d="m691.75 187.94 1.484 2.871" fill="none" stroke="#363639" stroke-width=".09167"/>
   <path d="m697.46 183.71 1.383 1.387v2.847" fill="none" stroke="#363639" stroke-width=".09167"/>
   <path d="m697.46 180.94 1.383 2.766" fill="none" stroke="#363639" stroke-width=".09167"/>
   <path d="m67.551 369.54-2.7695 2.664" fill="none" stroke="#363639" stroke-width=".09167"/>
   <path d="m53.3242,372.121-1.2031-1.586-.5508-1.097-.3633-2.77-.3672-.914-.5507-.469-1.1172-1.387-.3672-2.218 .3672-2.114" fill="none" stroke="#363639" stroke-width=".09167"/>
   <path d="m48.438 353.56v1.671l0.7344 1.649" fill="none" stroke="#363639" stroke-width=".09167"/>
   <path d="m46.32 360.95v-8.304" fill="none" stroke="#363639" stroke-width=".09167"/>
   <path d="m44.102 355.5 1.2031-3.687" fill="none" stroke="#363639" stroke-width=".09167"/>
   <path d="m42.984 352.64 0.5469-1.485" fill="none" stroke="#363639" stroke-width=".09167"/>
   <path d="m40.684 351.16 1.3828-1.387" fill="none" stroke="#363639" stroke-width=".09167"/>
   <path d="m33.66 346.91 1.3867-2.668" fill="none" stroke="#363639" stroke-width=".09167"/>
   <path d="m31.91 343.87 1.75-2.582" fill="none" stroke="#363639" stroke-width=".09167"/>
   <path d="m30.812 341.29 1.4648-1.387" fill="none" stroke="#363639" stroke-width=".09167"/>
   <path d="m26.559 331.5-1.3867 1.488" fill="none" stroke="#363639" stroke-width=".09167"/>
   <path d="m25.172 330.11-2.8672 2.871" fill="none" stroke="#363639" stroke-width=".09167"/>
   <path d="m23.688 328.18-4.2344 4.804" fill="none" stroke="#363639" stroke-width=".09167"/>
   <path d="m19.453 318.86-1.3828 1.383" fill="none" stroke="#363639" stroke-width=".09167"/>
   <path d="m18.07 313.3-2.7695 2.687" fill="none" stroke="#363639" stroke-width=".09167"/>
   <path d="m16.77 309.72-4.2343 4.418" fill="none" stroke="#363639" stroke-width=".09167"/>
   <path d="m16.035 306.85-2.1172 2.039" fill="none" stroke="#363639" stroke-width=".09167"/>
   <path d="m15.301 303.35-1.3828 1.468" fill="none" stroke="#363639" stroke-width=".09167"/>
   <path d="m15.301 299.2-4.1485 4.703" fill="none" stroke="#363639" stroke-width=".09167"/>
   <path d="m15.301 293.56-2.7656 4.254" fill="none" stroke="#363639" stroke-width=".09167"/>
   <path d="m47.785 371.47-1.4649-3.321" fill="none" stroke="#363639" stroke-width=".09167"/>
   <path d="m43.531 369.54-1.4649-4.254" fill="none" stroke="#363639" stroke-width=".09167"/>
   <path d="m40.684 366.67v-2.77" fill="none" stroke="#363639" stroke-width=".09167"/>
   <path d="m35.047 362.41 0.4648-2.848" fill="none" stroke="#363639" stroke-width=".09167"/>
   <path d="m32.277 359.57 0.5508-1.671" fill="none" stroke="#363639" stroke-width=".09167"/>
   <path d="m24.34 354.76 0.8321-2.117" fill="none" stroke="#363639" stroke-width=".09167"/>
   <path d="m60.7109,357.816-4.3359.547-2.5039.836-1.4648,1.649" fill="none" stroke="#363639" stroke-width=".09167"/>
   <path d="m57.656 369.54h1.3867" fill="none" stroke="#363639" stroke-width=".09167"/>
   <path d="m63.297 369.54 2.8672-2.871" fill="none" stroke="#363639" stroke-width=".09167"/>
   <path d="m57.656 366.67 2.7695 1.484 2.8711-1.484-1.4883-1.383h-1.3828l-2.7695 1.383" fill="#fff421"/>
   <path d="m57.656 366.67 2.7695 1.484 2.8711-1.484-1.4883-1.383h-1.3828l-2.7695 1.383z" fill="none" stroke="#363639" stroke-width=".09167"/>
   <path d="m63.297 365.28 1.4844 1.383" fill="none" stroke="#363639" stroke-width=".09167"/>
   <path d="m60.426 368.15v-2.867" fill="none" stroke="#363639" stroke-width=".09167"/>
   <path d="m448.973,204.84-1.938,1.668-1.566,1.281-2.684.285-2.301-.367-9.972,4.152-7.653,2.77-7.961,1.484-8.121.082-8.019-1.281-7.672-2.586-7.102-3.234-19.847-8.489" fill="none" stroke="#363639" stroke-width=".645"/>
   <path d="m273.85 19.113-1.465-5.6367" fill="none" stroke="#363639" stroke-width=".09167"/>
   <path d="m209.62 20.5v1.9336l2.016 3.7031 1.484 1.3828h2.766l1.387-1.3828v-1.3828l-0.184-2.9531-7.469-1.3008" fill="#fff"/>
   <path d="m209.62 20.5v1.9336l2.016 3.7031 1.484 1.3828h2.766l1.387-1.3828v-1.3828l-0.184-2.9531-7.469-1.3008z" fill="none" stroke="#363639" stroke-width=".09167"/>
   <path d="m358.5 71.18v-9.7891l4.254-9.9765-1.383-5.5352 1.383-4.1523" fill="none" stroke="#363639" stroke-width=".09167"/>
   <path d="m296.38 121.76-2.77 4.355" fill="none" stroke="#363639" stroke-width=".09167"/>
   <path d="m290.66 117.6-1.387 2.766" fill="none" stroke="#363639" stroke-width=".09167"/>
   <path d="m287.9 116.22-7.024 7.125" fill="none" stroke="#363639" stroke-width=".09167"/>
   <path d="m282.36 116.22-7.125 7.125" fill="none" stroke="#363639" stroke-width=".09167"/>
   <path d="m285.12 12.094-1.383 1.3828 1.383 4.2539" fill="none" stroke="#363639" stroke-width=".09167"/>
   <path d="m278 12.094-1.387 1.3828 4.254 8.5078v4.1523" fill="none" stroke="#363639" stroke-width=".09167"/>
   <path d="m273.85 12.094 1.382 4.2539 1.383 1.3828 2.77 8.4062" fill="none" stroke="#363639" stroke-width=".09167"/>
   <path d="m213.12 27.52 1.383 1.4649v4.2539" fill="none" stroke="#363639" stroke-width=".09167"/>
   <path d="m207.4 26.137 1.465 2.8477 1.383 2.8711" fill="none" stroke="#363639" stroke-width=".09167"/>
   <path d="m290.48 80.785-2.585-4.7227" fill="none" stroke="#363639" stroke-width=".09167"/>
   <path d="m293.25 73.398-0.73-2.3007-2.871-2.7891" fill="none" stroke="#363639" stroke-width=".09167"/>
   <path d="m287.9 83.922h-2.77l-2.766-4.336" fill="none" stroke="#363639" stroke-width=".09167"/>
   <path d="m287.895,82.4336-2.137-2.1992-.813-2.9688 .547-3.0351 1.75-2.5039 .653-.5469" fill="none" stroke="#363639" stroke-width=".09167"/>
   <path d="m280.87 37.391 2.871-1.3828v-4.1523" fill="none" stroke="#363639" stroke-width=".09167"/>
   <path d="m280.87 34.625 1.488-1.3867-1.488-2.8672" fill="none" stroke="#363639" stroke-width=".09167"/>
   <path d="m282.36 28.984 1.383 1.3867" fill="none" stroke="#363639" stroke-width=".09167"/>
   <path d="m358.5 97.945 1.383-2.8515v-7.0235" fill="none" stroke="#363639" stroke-width=".09167"/>
   <path d="m354.35 97.945 2.769-5.6211" fill="none" stroke="#363639" stroke-width=".09167"/>
   <path d="m352.883,82.4336 2.769.6523 2.036,1.9336 .996,2.586-.368,2.8672-1.199,1.8515" fill="none" stroke="#363639" stroke-width=".09167"/>
   <path d="m350.01 93.711 4.336-4.2539" fill="none" stroke="#363639" stroke-width=".09167"/>
   <path d="m350.01 88.07 2.871-2.7656" fill="none" stroke="#363639" stroke-width=".09167"/>
   <path d="m208.86 147.16 2.77 16.895" fill="none" stroke="#363639" stroke-width=".09167"/>
   <path d="m204.63 147.16 1.383 5.617" fill="none" stroke="#363639" stroke-width=".09167"/>
   <path d="m194.66 151.39v23.914" fill="none" stroke="#363639" stroke-width=".09167"/>
   <path d="m190.5 151.39v8.406" fill="none" stroke="#363639" stroke-width=".09167"/>
   <path d="m172.12 155.64v7.023" fill="none" stroke="#363639" stroke-width=".09167"/>
   <path d="m163.64 158.41 1.386 5.637" fill="none" stroke="#363639" stroke-width=".09167"/>
   <path d="m160.87 159.8 4.152 21.148" fill="none" stroke="#363639" stroke-width=".09167"/>
   <path d="m152.38 161.18 4.234 12.64" fill="none" stroke="#363639" stroke-width=".09167"/>
   <path d="m149.51 162.67 1.383 2.766" fill="none" stroke="#363639" stroke-width=".09167"/>
   <path d="m141.02 165.43 1.387 2.851" fill="none" stroke="#363639" stroke-width=".09167"/>
   <path d="m138.26 166.9 4.152 8.403" fill="none" stroke="#363639" stroke-width=".09167"/>
   <path d="m128.39 171.05 1.383 1.387" fill="none" stroke="#363639" stroke-width=".09167"/>
   <path d="m126.9 172.44 2.872 7.121" fill="none" stroke="#363639" stroke-width=".09167"/>
   <path d="m115.64 176.79 2.847 4.152" fill="none" stroke="#363639" stroke-width=".09167"/>
   <path d="m114.16 178.18 8.485 15.406" fill="none" stroke="#363639" stroke-width=".09167"/>
   <path d="m101.42 186.56 1.383 1.382" fill="none" stroke="#363639" stroke-width=".09167"/>
   <path d="m100.04 187.94 7.02 11.278" fill="none" stroke="#363639" stroke-width=".09167"/>
   <path d="m88.676 196.35 1.3828 2.871" fill="none" stroke="#363639" stroke-width=".09167"/>
   <path d="m85.91 199.22 8.4023 11.254" fill="none" stroke="#363639" stroke-width=".09167"/>
   <path d="m73.168 213.25 5.6367 7.102" fill="none" stroke="#363639" stroke-width=".09167"/>
   <path d="m70.316 216.01 2.8516 1.566" fill="none" stroke="#363639" stroke-width=".09167"/>
   <path d="m59.043 225.88 8.5078 7.125" fill="none" stroke="#363639" stroke-width=".09167"/>
   <path d="m59.043 228.75 1.3828 2.871" fill="none" stroke="#363639" stroke-width=".09167"/>
   <path d="m56.273 231.62 1.3829 1.383" fill="none" stroke="#363639" stroke-width=".09167"/>
   <path d="m53.324 234.47 2.9492 1.386" fill="none" stroke="#363639" stroke-width=".09167"/>
   <path d="m44.918 247.13 7.0195 4.152" fill="none" stroke="#363639" stroke-width=".09167"/>
   <path d="m43.531 248.52 2.789 2.769" fill="none" stroke="#363639" stroke-width=".09167"/>
   <path d="m36.43 259.77 8.4883 4.153" fill="none" stroke="#363639" stroke-width=".09167"/>
   <path d="m35.047 262.54 2.8672 1.387" fill="none" stroke="#363639" stroke-width=".09167"/>
   <path d="m33.66 263.93 1.3867 1.383" fill="none" stroke="#363639" stroke-width=".09167"/>
   <path d="m27.941 273.9 8.4883 4.051" fill="none" stroke="#363639" stroke-width=".09167"/>
   <path d="m26.559 276.56 2.8711 1.386" fill="none" stroke="#363639" stroke-width=".09167"/>
   <path d="m25.172 279.43h2.7695" fill="none" stroke="#363639" stroke-width=".09167"/>
   <path d="m22.305 285.15 2.8672 1.383" fill="none" stroke="#363639" stroke-width=".09167"/>
   <path d="m20.922 289.22 1.3828 1.465" fill="none" stroke="#363639" stroke-width=".09167"/>
   <path d="m19.453 292.18 5.7188 2.765" fill="none" stroke="#363639" stroke-width=".09167"/>
   <path d="m19.453 294.94 2.8516 1.286" fill="none" stroke="#363639" stroke-width=".09167"/>
   <path d="m19.453 297.81 1.4688 1.382" fill="none" stroke="#363639" stroke-width=".09167"/>
   <path d="m193.45 137.18 0.285 2.851" fill="none" stroke="#363639" stroke-width=".09167"/>
   <path d="m191.42 137.84 0.465 6.453" fill="none" stroke="#363639" stroke-width=".09167"/>
   <path d="m175.28 141.23 0.629 3.418" fill="none" stroke="#363639" stroke-width=".09167"/>
   <path d="m173.51 141.52 1.387 8.488" fill="none" stroke="#363639" stroke-width=".09167"/>
   <path d="m160.04 145.12 0.938 3.055" fill="none" stroke="#363639" stroke-width=".09167"/>
   <path d="m158 145.77 1.383 8.387" fill="none" stroke="#363639" stroke-width=".09167"/>
   <path d="m139.72 152.23 0.652 1.015" fill="none" stroke="#363639" stroke-width=".09167"/>
   <path d="m136.12 153.53 1.402 4.153" fill="none" stroke="#363639" stroke-width=".09167"/>
   <path d="m134 154.16 2.867 8.508" fill="none" stroke="#363639" stroke-width=".09167"/>
   <path d="m118.05 162.75 0.812 1.484" fill="none" stroke="#363639" stroke-width=".09167"/>
   <path d="m113.14 164.96 1.566 2.039" fill="none" stroke="#363639" stroke-width=".09167"/>
   <path d="m111.57 166.27 2.586 4.781" fill="none" stroke="#363639" stroke-width=".09167"/>
   <path d="m95.801 175.3 1.3828 1.488" fill="none" stroke="#363639" stroke-width=".09167"/>
   <path d="m91.547 178.18 1.4648 2.769" fill="none" stroke="#363639" stroke-width=".09167"/>
   <path d="m88.676 180.94 5.6367 5.618" fill="none" stroke="#363639" stroke-width=".09167"/>
   <path d="m70.316 196.35 2.8516 2.871" fill="none" stroke="#363639" stroke-width=".09167"/>
   <path d="m68.934 199.22 4.2344 4.23" fill="none" stroke="#363639" stroke-width=".09167"/>
   <path d="m57.656 211.86 1.3867 1.387" fill="none" stroke="#363639" stroke-width=".09167"/>
   <path d="m56.273 214.63 4.1524 4.336" fill="none" stroke="#363639" stroke-width=".09167"/>
   <path d="m42.066 233.01 1.4649 1.465" fill="none" stroke="#363639" stroke-width=".09167"/>
   <path d="m40.684 234.47 5.6367 2.687" fill="none" stroke="#363639" stroke-width=".09167"/>
   <path d="m33.66 244.26 1.3867 1.386" fill="none" stroke="#363639" stroke-width=".09167"/>
   <path d="m32.277 247.13 5.6368 2.769" fill="none" stroke="#363639" stroke-width=".09167"/>
   <path d="m23.789 262.54 4.1523 1.387" fill="none" stroke="#363639" stroke-width=".09167"/>
   <path d="m290.38 72.195 1.75 3.1367" fill="none" stroke="#363639" stroke-width=".09167"/>
   <path d="m707.438,183.246-.45,5.453-1.668,7.102-2.586,5.433-2.949,3.606-8.488,9.789-9.422,8.875-10.441,7.652-11.157,6.657-11.722,5.433-12.375,3.969-12.637,2.687-12.926,1.282-9.605.101l-22.614,2.219-22.613.914-22.633-.465-22.511-1.933-22.43-3.321-1.566-.183l-8.875-1.567-15.407-1.301h-15.429l-15.407,1.485l-19.394,3.215-19.563,2.035-19.761.551-7.653-.266l-17.261-1.301-16.993-2.769-16.793-3.969-16.445-5.535-15.875-6.739-12.641-6.472l-25.48-9.871l-.449-.262-10.727-6.109-11.336-4.883-11.824-3.524-12.09-2.296-12.375-.836-12.273.55-12.192,1.953l-.082.083-15.328,4.437-14.773,5.82-14.309,7-13.656,8.325-12.7423,9.507-12.0078,10.602-10.9726,11.461-9.8907,12.457-8.7539,13.207-7.6719,14.023-6.2695,14.676-5.3515,15.406h-.1016l4.3359,7.125 1.7696,5.168 2.1171,1.203 1.75,1.383 1.2813,1.383 .8359,1.57 1.5664,1.567 2.4024.832 1.7695.265 1.5664.571 1.6524,1.281 .6484,1.203 3.6836-1.387 4.2539-.285 3.3203.571 9.6055,1.464 4.4375.469 4.2344-.285 3.0507.285 1.9336.551 1.3047.914 .8321,1.59-1.3829.183-25.4843,2.586 16.8945.914 12.3555,1.668 .3867.184 .3672.367v.653l-.5508,2.195-1.0195,1.019-1.3829.938-2.5859.812-6.1055,1.122-2.664.546-3.4219.836-2.7656,1.465-3.7852,2.219-2.3008.937-1.9531.18h-1.4687l-3.0508-.465-5.6367-1.488-1.9336.285-2.0352-.367-3.8672-1.301-4.2539-1.832-3.789-2.32-3.9688-2.403-6.918-5.902-5.5351-6.734-4.8047-7.473-3.2383-8.305-2.29686-8.507-.55078-8.954 .83593-8.488 1.38281-6.738 5.0664-16.422-.082.184 5.9844-16.344 7.3086-16.063 8.5898-15.324 9.6875-14.594 10.8867-13.738 12.0117-12.844 12.9024-11.906 5.5547-4.621l14.3904-10.156 15.328-8.953 15.793-7.754 16.325-6.453 16.89-5.067 17.262-3.789h.101l.551-.101 12.457-2.868 12.192-4.234 11.64-5.535-.285-2.953 1.852-6.188 4.804-7.203 7.102-5.824-3.418-7.4688-4.887-9.6875-3.601-9.6055-2.504-9.1406-2.403-3.7032-1.832-2.9531-2.949-22.9765-1.199-3.0547-3.055-2.9493-1.851-2.4023-.653-2.4844 .653-1.8515 2.402-1.75 .465-3.5 9.223,1.75 3.703,1.1992 4.152,2.3008 3.684,1.8515 1.203,2.4844-.551,5.3516-1.852,3.0547 1.2,7.2851 3.238,5.5352 5.902,6.5547 8.508,7.8554 6.633,8.4883 2.871,4.7227 5.617-5.6368 2.871-4.1523 .285-8.1211 1.75-7.8555 3.032-7.5742 4.152-7.6523-.629-1.8516 2.664-2.2187-1.465-2.0352 1.465-2.1172-3.867-11.1719-4.984-3.3203-2.403-2.4804h4.254l1.934-.2852 2.402-.5508 4.149-.5508 9.871-.6484 5.64.6484 1.383,1.3868 1.383,2.9492-.547,4.0508 .547,4.2539 .652,7.2851v2.3203l-.652,3.1368v1.1992l-1.199,1.8515v10.1368l-.551,9.789-1.77,10.1563-.632,2.0351-1.383,2.7696 .082,3.0546-1.567,2.5821-.836,2.9531-2.3,7.6523-2.868,8.4883 .469-.1836 8.852-3.7851 9.242-2.4024 9.605-1.1015 9.586.3672 7.856,1.3046l10.605.0821 9.137,1.3008v-1.3829l-1.281-3.707 1.281-1.9336v-7.1015l-.629-7.9375v-4.8047l1.199-10.8868 .817-12.0898-1.387-12.0117l-4.883-12.7383-2.586-3.2383-.914.4688l-1.387-1.3828-2.765-2.7696-3.34-3.78513-1.016-1.93359h4.254l5.903-.65235 10.988-.64844 16.344,1.19922 4.234,2.50389 1.203,1.75-.551,5.7188-.918,6.0039-.546,11.1758 .73,11.2539 2.117,10.9922 4.07,9.871 1.204,6.004 .367,2.4023 .547,5.0664 1.933,5.457 3.239,4.8828 9.238,11.6402 4.601,1.204 4.621.445 5.454-2.113v-2.5043l3.031-2.9531v-2.4805l-.082,1.0157 15.41-30.9375 4.336-8.3868 2.785-5.7382 4.234-6.9219 1.387-4.3321v-5.6406l1.485-5.5351v-.0821l-4.254-4.1523l-2.953-1.3828-2.036-2.586-.73-3.1523 .082-1.2813l5.637,1.3829h12.64l3.887.6484 3.418,1.832 2.484,3.0547 .102.1016l4.699,2.1172 3.973,3.3164 1.199,1.5664l1.484,2.8711-1.484,2.7695-1.383,1.3828l-1.672,2.586-4.984,9.5039-3.684,9.8711-2.3,10.4414l-1.204,9.1406-2.582,9.0351-3.785,8.4063-.937,1.5664l-.266.6523-1.301,5.9021 .184,6.106v.265l2.766,1.383l4.253,15.43 5.641,4.23 1.383,8.508l.551.918 6.836,10.238 7.836,9.422 8.957,8.489 9.789,7.386l11.988,6.473 17.828,8.019 18.359,6.84 18.848,5.535 19.09,4.153l5.273.914 15.59,1.773 15.797.266 15.793-.918 15.488-2.402 15.426-3.887h.652l6.739-1.281 6.371-2.586 5.719-3.785 4.804-4.887 3.684-5.82 2.402-6.372 1.199-6.835-.285-6.821-1.648-6.554l4.703,5.07 3.684,6.004 2.32,6.554 1.098,6.45" fill="none" stroke="#363639" stroke-width=".645"/>
   <path d="m330.9 136.07 2.504-0.082 4.153-1.203 3.5-2.402 2.504-3.418 11.335-18.277-3.136-11.438-1.383-2.7695" fill="none" stroke="#363639" stroke-width=".645"/>
   <path d="m294.45 119.74-7.023-4.152-3.418-1.953-2.403-3.035-1.199-3.704-0.082-2.585" fill="none" stroke="#363639" stroke-width=".645"/>
   <path d="m219.59,128.047-.203,5.351 .648,5.352 2.035,4.988 3.137,4.153" fill="none" stroke="#363639" stroke-width=".09167"/>
   <path d="m258.26 79.586-9.692 10.418-7.203 10.809-5.453 2.484" fill="none" stroke="#363639" stroke-width=".645"/>
   <path d="m15.8516,303.246 2.0351,9.609 3.3164,9.036 4.6211,8.691 5.7188,7.938 6.9218,6.921 7.6524,6.082 2.0351,1.571 .2852.179" fill="none" stroke="#363639" stroke-width=".09167"/>
   <path d="m28.594 327.24-2.6875-2.582-2.4024-2.953-3.0312-5.434-1.7696-6.105-0.4492-6.086" fill="none" stroke="#363639" stroke-width=".09167"/>
   <path d="m220.219,49.8477 .101,3.4218-1.117,3.0508-.449.6524" fill="none" stroke="#363639" stroke-width=".09167"/>
   <path d="m214.6 52.719 1.382-1.3829" fill="none" stroke="#363639" stroke-width=".09167"/>
   <path d="m215.98 58.356 1.387-4.2539" fill="none" stroke="#363639" stroke-width=".09167"/>
   <path d="m214.6 47.082 1.382-1.3867" fill="none" stroke="#363639" stroke-width=".09167"/>
   <path d="m217.371,49.8477 .731.1836 .468.5703 .184.7343-.184.6485-.468.5508-.731.1836" fill="none" stroke="#363639" stroke-width=".09167"/>
   <path d="m273.59 18.75-2.137-6.1875h-5.066l1.097 1.4844 2.321 2.3008 3.785 2.4023" fill="#fff"/>
   <path d="m273.59 18.75-2.137-6.1875h-5.066l1.097 1.4844 2.321 2.3008 3.785 2.4023z" fill="none" stroke="#363639" stroke-width=".09167"/>
   <path d="m348.813,7.57422v-.73438l-6.922.36719-.649.36719h-2.402l-.735.28516h-5.351l.914,2.03515 6.555,6.82027 2.687-1.75 2.949-2.871 2.77-4.23442 .184-.28516" fill="#fff"/>
   <path d="m348.813,7.57422v-.73438l-6.922.36719-.649.36719h-2.402l-.735.28516h-5.351l.914,2.03515 6.555,6.82027 2.687-1.75 2.949-2.871 2.77-4.23442 .184-.28516z" fill="none" stroke="#363639" stroke-width=".09167"/>
   <path d="m351.4 19.113-2.769-4.1485-4.152-4.2578-1.567-2.8476" fill="none" stroke="#363639" stroke-width=".09167"/>
   <path d="m348.63 21.984-2.77-5.6367h-2.949v-2.8711l-2.769-1.3828-1.383-2.7696-1.383-1.4648" fill="none" stroke="#363639" stroke-width=".09167"/>
   <path d="m357.12 17.73-1.387-2.7657-2.847-4.2578v-1.3828l1.465-1.4648v-1.3828" fill="none" stroke="#363639" stroke-width=".09167"/>
   <path d="m358.5 7.8594v2.8476" fill="none" stroke="#363639" stroke-width=".09167"/>
  </g>
 </g>
</svg>
