<svg width="75" height="64" viewBox="0 0 75 64" fill="none" xmlns="http://www.w3.org/2000/svg">
<path d="M23.3281 31.5508C23.6094 31.5508 23.7617 31.4102 23.7852 31.1289C23.8633 30.4727 23.9453 29.9609 24.0312 29.5938C24.1172 29.2188 24.2539 28.9375 24.4414 28.75C24.6367 28.5547 24.9258 28.4062 25.3086 28.3047C25.6992 28.2031 26.2305 28.1016 26.9023 28C27.1992 27.9609 27.3477 27.8125 27.3477 27.5547C27.3477 27.3047 27.2188 27.1602 26.9609 27.1211C26.2734 26.9805 25.7344 26.8594 25.3438 26.7578C24.9531 26.6562 24.6602 26.5156 24.4648 26.3359C24.2695 26.1484 24.125 25.875 24.0312 25.5156C23.9453 25.1484 23.8633 24.6367 23.7852 23.9805C23.7617 23.707 23.6094 23.5703 23.3281 23.5703C23.0703 23.5703 22.9297 23.7031 22.9062 23.9688C22.8203 24.6406 22.7305 25.168 22.6367 25.5508C22.5508 25.9336 22.4102 26.2227 22.2148 26.418C22.0273 26.6055 21.7383 26.7461 21.3477 26.8398C20.9648 26.9336 20.4297 27.0273 19.7422 27.1211C19.625 27.1289 19.5273 27.1758 19.4492 27.2617C19.3789 27.3398 19.3438 27.4375 19.3438 27.5547C19.3438 27.8047 19.4727 27.9531 19.7305 28C20.4258 28.1406 20.9648 28.2656 21.3477 28.375C21.7383 28.4766 22.0273 28.6211 22.2148 28.8086C22.4102 28.9883 22.5508 29.2617 22.6367 29.6289C22.7305 29.9961 22.8203 30.5039 22.9062 31.1523C22.9141 31.2695 22.957 31.3672 23.0352 31.4453C23.1211 31.5156 23.2188 31.5508 23.3281 31.5508ZM14.7148 28.457C14.8867 28.457 14.9883 28.3672 15.0195 28.1875C15.1055 27.6328 15.1914 27.2383 15.2773 27.0039C15.3633 26.7617 15.5273 26.5977 15.7695 26.5117C16.0117 26.418 16.4141 26.3203 16.9766 26.2188C17.1719 26.1797 17.2695 26.0781 17.2695 25.9141C17.2695 25.7422 17.1758 25.6367 16.9883 25.5977C16.5586 25.5195 16.2266 25.4453 15.9922 25.375C15.7578 25.3047 15.582 25.2148 15.4648 25.1055C15.3477 24.9883 15.2617 24.8164 15.207 24.5898C15.1523 24.3633 15.0898 24.0469 15.0195 23.6406C14.9805 23.4531 14.8789 23.3594 14.7148 23.3594C14.5352 23.3594 14.4336 23.4531 14.4102 23.6406C14.332 24.0547 14.2617 24.3789 14.1992 24.6133C14.1445 24.8398 14.0586 25.0156 13.9414 25.1406C13.832 25.2578 13.6602 25.3477 13.4258 25.4102C13.1914 25.4648 12.8633 25.5273 12.4414 25.5977C12.2461 25.6289 12.1484 25.7344 12.1484 25.9141C12.1484 26.0781 12.2422 26.1797 12.4297 26.2188C12.8516 26.3047 13.1797 26.3828 13.4141 26.4531C13.6562 26.5156 13.8359 26.6055 13.9531 26.7227C14.0703 26.832 14.1562 27.0039 14.2109 27.2383C14.2656 27.4648 14.332 27.7852 14.4102 28.1992C14.4336 28.3711 14.5352 28.457 14.7148 28.457ZM6.96875 56.125C7.19531 56.125 7.32422 56 7.35547 55.75C7.44922 55.1797 7.53516 54.7305 7.61328 54.4023C7.69922 54.082 7.82031 53.8398 7.97656 53.6758C8.14062 53.5195 8.38672 53.3945 8.71484 53.3008C9.05078 53.2148 9.51562 53.1172 10.1094 53.0078C10.3672 52.9531 10.4961 52.8203 10.4961 52.6094C10.4961 52.3906 10.3789 52.2578 10.1445 52.2109C9.53516 52.0938 9.0625 51.9844 8.72656 51.8828C8.39844 51.7891 8.15234 51.6602 7.98828 51.4961C7.82422 51.332 7.70312 51.0938 7.625 50.7812C7.54687 50.4688 7.45703 50.0312 7.35547 49.4688C7.32422 49.2188 7.19531 49.0938 6.96875 49.0938C6.75 49.0938 6.61719 49.2148 6.57031 49.457C6.46875 50.0352 6.37891 50.4844 6.30078 50.8047C6.22266 51.1328 6.10156 51.3789 5.9375 51.543C5.78125 51.707 5.53906 51.832 5.21094 51.918C4.88281 52.0117 4.41406 52.1094 3.80469 52.2109C3.57031 52.25 3.45312 52.3828 3.45312 52.6094C3.45312 52.8203 3.57031 52.9531 3.80469 53.0078C4.41406 53.125 4.88281 53.2305 5.21094 53.3242C5.53906 53.4258 5.78516 53.5586 5.94922 53.7227C6.11328 53.8867 6.23437 54.125 6.3125 54.4375C6.39062 54.7578 6.47656 55.2031 6.57031 55.7734C6.61719 56.0078 6.75 56.125 6.96875 56.125ZM13.4609 51.9883C14.4141 52.9414 15.4258 53.6406 16.4961 54.0859C17.5664 54.5312 18.6445 54.7383 19.7305 54.707C20.8242 54.6758 21.8828 54.4258 22.9062 53.957C23.9375 53.4883 24.8867 52.8164 25.7539 51.9414C26.9414 50.7617 27.7305 49.5234 28.1211 48.2266C28.5117 46.9219 28.5508 45.5156 28.2383 44.0078C28.1523 43.3984 28.0039 42.7734 27.793 42.1328C27.582 41.4922 27.3398 40.8633 27.0664 40.2461C26.793 39.6289 26.5156 39.0508 26.2344 38.5117C25.9609 37.9648 25.7188 37.4844 25.5078 37.0703C25.2969 36.6641 25.0742 36.2383 24.8398 35.793C24.6133 35.3477 24.3945 34.9375 24.1836 34.5625C23.9805 34.1875 23.8047 33.9062 23.6562 33.7188C23.4141 33.3906 23.1172 33.1992 22.7656 33.1445C22.4141 33.082 22.082 33.168 21.7695 33.4023C21.4102 33.668 21.1992 33.9961 21.1367 34.3867C21.0742 34.7695 21.1367 35.2148 21.3242 35.7227L22.7422 39.4844C22.8047 39.6406 22.832 39.7656 22.8242 39.8594C22.8164 39.9453 22.7852 40.0195 22.7305 40.082C22.668 40.1445 22.5938 40.1758 22.5078 40.1758C22.4219 40.168 22.3164 40.1055 22.1914 39.9883L13.3203 31.1172C13.0156 30.8125 12.6602 30.6602 12.2539 30.6602C11.8555 30.6602 11.5039 30.8086 11.1992 31.1055C10.8945 31.4102 10.7422 31.7656 10.7422 32.1719C10.75 32.5781 10.9062 32.9336 11.2109 33.2383L17.832 39.8594C17.6992 39.9219 17.5664 39.9922 17.4336 40.0703C17.3008 40.1406 17.168 40.2188 17.0352 40.3047L9.44141 32.7109C9.13672 32.4062 8.78125 32.2539 8.375 32.2539C7.96875 32.2539 7.61719 32.4062 7.32031 32.7109C7.01562 33.0078 6.86328 33.3594 6.86328 33.7656C6.86328 34.1719 7.01562 34.5234 7.32031 34.8203L14.832 42.3438C14.7305 42.4609 14.6328 42.582 14.5391 42.707C14.4453 42.8242 14.3555 42.9414 14.2695 43.0586L7.35547 36.1445C7.05078 35.8477 6.69141 35.6992 6.27734 35.6992C5.87109 35.6914 5.51953 35.8398 5.22266 36.1445C4.92578 36.4414 4.77734 36.7969 4.77734 37.2109C4.77734 37.6172 4.92578 37.9688 5.22266 38.2656L12.7109 45.7539C12.6562 45.918 12.6016 46.0781 12.5469 46.2344C12.5 46.3906 12.457 46.5469 12.418 46.7031L7.19141 41.4883C6.89453 41.1836 6.54297 41.0312 6.13672 41.0312C5.73047 41.0234 5.375 41.1719 5.07031 41.4766C4.77344 41.7734 4.625 42.1289 4.625 42.543C4.625 42.9492 4.77344 43.3008 5.07031 43.5977L13.4609 51.9883ZM20.0117 32.7812L18.3359 31.1172C18.0312 30.8047 17.6758 30.6523 17.2695 30.6602C16.8633 30.6602 16.5117 30.8086 16.2148 31.1055C16.1758 31.1445 16.1445 31.1836 16.1211 31.2227L19.5078 34.6094C19.5312 34.2734 19.582 33.9531 19.6602 33.6484C19.7461 33.3359 19.8633 33.0469 20.0117 32.7812ZM30.7695 51.9531C31.9492 50.7656 32.7344 49.5234 33.125 48.2266C33.5156 46.9219 33.5586 45.5156 33.2539 44.0078C33.1602 43.4062 33.0078 42.7852 32.7969 42.1445C32.5859 41.4961 32.3438 40.8633 32.0703 40.2461C31.8047 39.6289 31.5312 39.0508 31.25 38.5117C30.9766 37.9648 30.7305 37.4844 30.5117 37.0703C30.3086 36.6641 30.0898 36.2383 29.8555 35.793C29.6289 35.3477 29.4102 34.9414 29.1992 34.5742C28.9883 34.1992 28.8125 33.9141 28.6719 33.7188C28.4297 33.3906 28.1328 33.1992 27.7812 33.1445C27.4297 33.082 27.0977 33.168 26.7852 33.4023C26.4727 33.6133 26.2695 33.8828 26.1758 34.2109C26.3633 34.5625 26.5469 34.918 26.7266 35.2773C26.9062 35.6367 27.0938 35.9922 27.2891 36.3438C27.4922 36.7422 27.7344 37.2227 28.0156 37.7852C28.3047 38.3477 28.5898 38.9609 28.8711 39.625C29.1602 40.2891 29.4141 40.9766 29.6328 41.6875C29.8594 42.3906 30.0156 43.0781 30.1016 43.75C30.4688 45.5859 30.4023 47.293 29.9023 48.8711C29.4023 50.4492 28.4688 51.9219 27.1016 53.2891C26.5938 53.8047 26.0547 54.2578 25.4844 54.6484C26.4297 54.5391 27.3516 54.2539 28.25 53.793C29.1562 53.332 29.9961 52.7188 30.7695 51.9531Z" fill="#FFB72B"/>
<g clip-path="url(#clip0_991_6492)">
<path d="M46.8411 25.1221C47.1505 24.9505 47.442 24.7258 47.7154 24.4481C47.9889 24.1705 48.4117 23.873 48.9838 23.5556C49.369 23.3419 49.6943 23.192 49.9595 23.1059C50.2248 23.0199 50.4719 22.9458 50.7008 22.8837C50.9297 22.8216 51.1872 22.7112 51.4732 22.5526C52.1212 22.1931 52.5418 21.7918 52.735 21.3487C52.9281 20.9057 52.9 20.4594 52.6507 20.0099C52.3657 19.4962 51.9398 19.1447 51.3729 18.9553C50.8059 18.766 50.14 18.7423 49.3752 18.8841C48.6103 19.0259 47.7871 19.3413 46.9057 19.8303C46.4737 20.0699 46.1162 20.2854 45.833 20.4769C45.5499 20.6683 45.3045 20.8521 45.0969 21.0284C44.8893 21.2046 44.6791 21.3899 44.4664 21.5842L42.3258 19.9549C41.6343 19.4377 40.9279 19.0451 40.2068 18.7772C39.4856 18.5093 38.7619 18.3916 38.0356 18.4242C37.3095 18.4568 36.5932 18.6691 35.8868 19.0609L34.8536 19.6341C34.6843 19.728 34.5261 19.7662 34.3789 19.7486C34.2317 19.731 34.1112 19.6375 34.0173 19.4682C33.8683 19.1997 33.9234 18.9344 34.1826 18.6723C34.4418 18.4102 34.7699 18.169 35.1668 17.9488C36.4511 17.2364 37.7591 16.9727 39.0907 17.1576C40.4224 17.3426 41.7707 17.9841 43.1355 19.082L44.5508 20.2091C44.8071 19.983 45.0862 19.7671 45.3882 19.5615C45.6902 19.3558 46.0017 19.1639 46.3227 18.9858C46.5854 18.8401 46.8427 18.7088 47.0947 18.5919C47.3467 18.4749 47.6049 18.366 47.8695 18.265C48.0279 17.9176 48.2104 17.555 48.4169 17.1771C48.6233 16.7992 48.8949 16.3909 49.2316 15.9521C49.6816 15.9926 50.13 15.9958 50.5767 15.9617C51.0235 15.9276 51.4588 15.8522 51.8826 15.7355C52.3064 15.6187 52.7138 15.4518 53.1049 15.2348C53.9105 14.7879 54.5295 14.3453 54.9619 13.9069C55.3943 13.4686 55.6221 12.9778 55.6451 12.4344C55.6681 11.8911 55.4692 11.24 55.0482 10.4811C54.6661 9.79228 54.1955 9.21928 53.6366 8.76213C53.0777 8.30499 52.4674 7.97556 51.8058 7.77385C51.1443 7.5721 50.4646 7.50635 49.7669 7.5766C49.0692 7.64684 48.3892 7.86945 47.727 8.24442L43.6462 6.42023C42.5047 5.93129 41.4373 5.68942 40.444 5.69463C39.4506 5.69984 38.5658 5.91781 37.7893 6.34852C37.4683 6.52663 37.1488 6.75919 36.831 7.04621C36.513 7.33327 36.2352 7.64772 35.9974 7.98957C35.7595 8.33145 35.5969 8.66787 35.5094 8.99883C35.422 9.32978 35.4495 9.62369 35.592 9.88054C35.7216 10.114 35.9969 10.2972 36.4179 10.43C36.839 10.5629 37.3219 10.6595 37.8669 10.7198C38.4118 10.7801 38.9268 10.8208 39.4118 10.8419L46.1652 11.1262C46.0762 11.4199 45.9643 11.6689 45.8297 11.8734C45.695 12.0779 45.5197 12.2401 45.3037 12.3599C44.9651 12.5477 44.5543 12.6534 44.0712 12.6771C43.5882 12.7008 42.9952 12.7053 42.2924 12.6906C41.4041 12.6719 40.5524 12.6539 39.7374 12.6365C38.9224 12.6191 38.1364 12.6334 37.3793 12.6793C36.6223 12.7252 35.8839 12.839 35.1641 13.0207C34.4442 13.2025 33.7341 13.4877 33.0336 13.8762C32.0646 14.4138 31.2778 15.0907 30.6733 15.907C30.0688 16.7233 29.6633 17.6677 29.4568 18.7403C29.2503 19.813 29.2497 21.0023 29.4551 22.3083C28.9881 22.5673 28.6747 22.9244 28.5149 23.3794C28.3551 23.8345 28.3999 24.2868 28.6492 24.7363C28.9309 25.2441 29.3353 25.5465 29.8624 25.6435C30.3895 25.7404 30.9274 25.6367 31.4761 25.3323C32.2326 25.6913 33.0105 25.8896 33.81 25.9271C34.6094 25.9645 35.4209 25.8655 36.2445 25.63C37.0681 25.3945 37.8915 25.0484 38.7146 24.5918C38.7788 24.5562 38.8436 24.5183 38.9091 24.4781C38.9747 24.438 39.0395 24.4001 39.1037 24.3645L44.2822 25.3393C44.9402 25.4934 45.448 25.5419 45.8056 25.4847C46.1632 25.4276 46.5084 25.3067 46.8411 25.1221ZM40.8941 29.3258C41.7405 28.8563 42.3973 28.3889 42.8644 27.9236C43.3316 27.4583 43.696 26.9661 43.9576 26.4469L39.9899 25.6936C39.9289 25.735 39.8636 25.7789 39.7939 25.8253C39.7241 25.8716 39.6426 25.9207 39.5492 25.9725C39.4032 26.0534 39.2289 26.1349 39.0262 26.2167C38.8236 26.2986 38.6027 26.3925 38.3638 26.4984C38.1247 26.6043 37.8768 26.7284 37.62 26.8709C37.1296 27.1429 36.8093 27.4771 36.6589 27.8735C36.5086 28.2699 36.5435 28.6666 36.7637 29.0635C37.0907 29.6531 37.6289 29.9729 38.3781 30.0231C39.1273 30.0731 39.9659 29.8407 40.8941 29.3258ZM51.1112 12.1155C50.9126 12.2256 50.7051 12.2472 50.4886 12.1802C50.2721 12.1134 50.1104 11.9836 50.0035 11.7909C49.8934 11.5925 49.8671 11.3799 49.9247 11.1534C49.9822 10.9268 50.1102 10.7584 50.3087 10.6483C50.513 10.535 50.7218 10.5089 50.9351 10.57C51.1484 10.631 51.3101 10.7608 51.4202 10.9593C51.527 11.1519 51.5518 11.3652 51.4946 11.5993C51.4374 11.8333 51.3096 12.0054 51.1112 12.1155Z" fill="#4D89FF"/>
</g>
<path d="M51.5175 32.8201C51.3317 33.081 51.2276 33.3618 51.2054 33.6625C51.1876 33.9567 51.3013 34.3494 51.5463 34.8403C51.886 35.4947 52.3919 36.1714 53.0641 36.8707C53.7426 37.5744 54.5114 38.2322 55.3706 38.844C56.2297 39.4558 57.0995 39.9649 57.9802 40.3714C58.8671 40.7824 59.6754 41.0415 60.4048 41.1485C60.9489 41.2194 61.3571 41.1984 61.6294 41.0854C61.9062 40.966 62.1375 40.7759 62.3233 40.515C62.8581 39.764 63.1266 38.929 63.1289 38.0099C63.1357 37.0845 62.8642 36.1526 62.3143 35.2144C61.7689 34.2697 60.9362 33.3986 59.8162 32.601C58.6961 31.8035 57.6006 31.3015 56.5295 31.095C55.463 30.8822 54.4936 30.9304 53.6213 31.2396C52.7535 31.5423 52.0522 32.0692 51.5175 32.8201ZM41.9999 38.9328C40.867 40.5238 40.1405 42.1501 39.8205 43.8116C39.5069 45.4777 39.5887 47.08 40.0659 48.6187C40.5386 50.1638 41.402 51.5507 42.6562 52.7795C42.9399 53.0678 43.2226 53.2164 43.5041 53.225C43.7857 53.2337 44.0262 53.0981 44.2256 52.818L51.8252 42.1458C51.9838 41.9231 52.1939 41.7898 52.4554 41.7458C52.7169 41.7018 52.959 41.7591 53.1817 41.9177C53.3981 42.0718 53.5283 42.2796 53.5723 42.5411C53.6226 42.8071 53.5684 43.0515 53.4098 43.2742L45.8102 53.9464C45.6108 54.2265 45.5612 54.4981 45.6615 54.7613C45.7618 55.0245 45.9946 55.2431 46.3599 55.4169C47.9313 56.2002 49.5243 56.5625 51.139 56.5039C52.7492 56.4516 54.287 56.0026 55.7525 55.1567C57.2243 54.3154 58.5267 53.0993 59.6596 51.5083C60.1581 50.8083 60.6056 50.0048 61.0021 49.0979C61.3986 48.1909 61.6783 47.2728 61.8413 46.3435C62.0044 45.4142 61.9882 44.5682 61.7927 43.8056C61.7004 43.4234 61.5593 43.1503 61.3692 42.9862C61.1855 42.8266 61.001 42.7288 60.8157 42.6927C59.8011 42.5552 58.7599 42.2598 57.6921 41.8063C56.6352 41.351 55.5849 40.7518 54.5412 40.0086C53.4976 39.2654 52.5846 38.4666 51.8023 37.6122C51.0309 36.756 50.4144 35.871 49.9526 34.9571C49.8579 34.7938 49.7019 34.6491 49.4847 34.5232C49.2738 34.4018 48.9727 34.36 48.5813 34.3978C47.7967 34.4625 46.992 34.7239 46.1671 35.1819C45.3423 35.6399 44.5661 36.2046 43.8387 36.8759C43.1113 37.5472 42.4984 38.2328 41.9999 38.9328ZM47.9829 40.7333C47.6202 40.475 47.4044 40.1247 47.3357 39.6825C47.2669 39.2403 47.3572 38.8443 47.6064 38.4942C47.8647 38.1315 48.2118 37.9135 48.6476 37.8402C49.088 37.7605 49.4895 37.8499 49.8523 38.1082C50.2086 38.362 50.4212 38.7099 50.49 39.1521C50.5696 39.5925 50.4803 39.994 50.222 40.3568C49.9727 40.7068 49.6247 40.9193 49.178 40.9945C48.7377 41.0741 48.3393 40.9871 47.9829 40.7333ZM44.0143 44.266C43.5943 43.9669 43.3389 43.5645 43.2483 43.0587C43.1685 42.5512 43.2782 42.0874 43.5773 41.6674C43.8719 41.2537 44.2697 41.0048 44.7709 40.9205C45.2785 40.8407 45.7423 40.9504 46.1623 41.2495C46.576 41.5441 46.8227 41.9451 46.9024 42.4527C46.993 42.9584 46.8934 43.4149 46.6033 43.8222C46.3042 44.2422 45.8986 44.4953 45.3866 44.5814C44.8854 44.6657 44.4279 44.5605 44.0143 44.266ZM42.7374 48.6653C42.4256 48.4432 42.2344 48.1392 42.1639 47.7534C42.0953 47.3784 42.1742 47.0318 42.4008 46.7136C42.6229 46.4018 42.9246 46.2138 43.3059 46.1497C43.6936 46.0901 44.0434 46.1713 44.3552 46.3934C44.6734 46.6199 44.8646 46.9239 44.9287 47.3052C44.9928 47.6866 44.9138 48.0332 44.6918 48.345C44.4652 48.6632 44.1635 48.8512 43.7867 48.9089C43.4053 48.9731 43.0556 48.8918 42.7374 48.6653ZM56.0109 46.45C55.6482 46.1917 55.4293 45.8392 55.3542 45.3925C55.2854 44.9503 55.3756 44.5542 55.6249 44.2042C55.8832 43.8415 56.2303 43.6234 56.6661 43.5502C57.1128 43.475 57.5175 43.5666 57.8803 43.8249C58.2366 44.0787 58.4492 44.4267 58.518 44.8689C58.5913 45.3047 58.4987 45.704 58.2404 46.0667C57.9912 46.4167 57.6464 46.6316 57.206 46.7112C56.7657 46.7909 56.3673 46.7038 56.0109 46.45ZM53.961 51.349C53.5473 51.0545 53.2952 50.6543 53.2046 50.1486C53.1248 49.641 53.2345 49.1772 53.5336 48.7572C53.8236 48.3499 54.2192 48.1042 54.7204 48.0199C55.2325 47.9338 55.6954 48.038 56.109 48.3326C56.529 48.6316 56.7812 49.0318 56.8655 49.533C56.9561 50.0387 56.8542 50.4984 56.5596 50.9121C56.2605 51.3321 55.8549 51.5851 55.3428 51.6712C54.8416 51.7555 54.381 51.6481 53.961 51.349ZM50.2213 53.9945C49.9031 53.768 49.7119 53.464 49.6478 53.0826C49.5792 52.7077 49.6581 52.3611 49.8847 52.0429C50.1068 51.7311 50.4085 51.5431 50.7898 51.479C51.1711 51.4148 51.5209 51.4961 51.8391 51.7226C52.1509 51.9447 52.3389 52.2464 52.403 52.6277C52.4735 53.0136 52.3978 53.3625 52.1757 53.6743C51.9491 53.9925 51.6442 54.1782 51.2611 54.2314C50.8797 54.2956 50.5331 54.2166 50.2213 53.9945ZM55.5994 29.4112L56.0457 30.0168C56.1876 30.1946 56.2578 30.3453 56.2562 30.4688C56.2609 30.5968 56.2043 30.71 56.0864 30.8082L55.4551 31.3513L57.3874 32.6986L57.8892 32.1352C58.3317 31.6351 58.5639 31.1003 58.5857 30.5308C58.6076 29.9613 58.417 29.394 58.0138 28.8288L57.491 28.068C57.2498 27.7333 56.9735 27.5556 56.662 27.5352C56.3504 27.5148 56.0672 27.596 55.8122 27.7789C55.5573 27.9618 55.396 28.2018 55.3283 28.4989C55.2606 28.796 55.351 29.1001 55.5994 29.4112ZM64.2001 35.5358C64.5754 35.6688 64.8923 35.6547 65.1509 35.4936C65.4095 35.3325 65.5836 35.1015 65.6731 34.8008C65.7625 34.5001 65.7435 34.2036 65.6159 33.9113C65.4947 33.6236 65.2397 33.4228 64.8508 33.3089L63.9609 33.0637C63.2949 32.8675 62.6932 32.8707 62.1559 33.0731C61.6249 33.28 61.1986 33.6766 60.8771 34.2628L60.5088 34.9214L62.4139 36.3068L62.7111 35.5257C62.7718 35.3867 62.8602 35.2962 62.9764 35.2543C63.099 35.2169 63.2674 35.2361 63.4819 35.3121L64.2001 35.5358ZM49.3346 35.2795L48.3159 31.72C48.2082 31.3459 48.0175 31.0615 47.7439 30.8666C47.4766 30.6763 47.1714 30.6268 46.8282 30.7181C46.4896 30.8031 46.2428 31.0014 46.088 31.3131C45.9331 31.6249 45.9055 31.96 46.005 32.3186L47.0428 35.8917L49.3346 35.2795ZM44.188 38.2036L41.6039 36.3778C41.292 36.1557 40.9718 36.0667 40.6431 36.1108C40.3253 36.153 40.0622 36.3205 39.8537 36.6133C39.6498 36.8996 39.5775 37.2031 39.637 37.5236C39.7074 37.8423 39.8985 38.1126 40.2104 38.3347L42.8013 40.1509L44.188 38.2036ZM40.7653 44.2829L37.6392 44.5313C37.2696 44.5654 36.9651 44.7035 36.7257 44.9454C36.4818 45.1937 36.3728 45.4949 36.3987 45.8491C36.4247 46.2032 36.5744 46.4777 36.8481 46.6726C37.1236 46.8784 37.4516 46.9632 37.832 46.9273L40.939 46.6653L40.7653 44.2829ZM60.7132 43.3822L60.8842 45.7482L64.6002 45.5603C64.9716 45.537 65.2793 45.4013 65.5232 45.153C65.7672 44.9047 65.8739 44.6067 65.8434 44.2589C65.8175 43.9047 65.6677 43.6302 65.394 43.4353C65.1268 43.245 64.7988 43.1601 64.4101 43.1807L60.7132 43.3822ZM59.6331 49.202L58.2464 51.1494L60.8102 53.0038C61.122 53.2259 61.4369 53.3158 61.7547 53.2735C62.0834 53.2295 62.3497 53.0642 62.5536 52.7779C62.7621 52.4851 62.8311 52.1794 62.7607 51.8608C62.7012 51.5403 62.5155 51.269 62.2037 51.0469L59.6331 49.202ZM55.0076 54.4249L52.6994 55.0399L53.468 58.0617C53.5585 58.433 53.7428 58.7129 54.021 58.9014C54.301 59.1008 54.6126 59.1548 54.9557 59.0635C55.3053 58.9767 55.5543 58.7752 55.7028 58.459C55.8531 58.1536 55.8807 57.8184 55.7858 57.4535L55.0076 54.4249Z" fill="#FF4040"/>
<defs>
<clipPath id="clip0_991_6492">
<rect width="30" height="23.0407" fill="white" transform="translate(23 14.5527) rotate(-29.0188)"/>
</clipPath>
</defs>
</svg>
