<svg width="926" height="587" viewBox="0 0 926 587" fill="none" xmlns="http://www.w3.org/2000/svg">
<path fill-rule="evenodd" clip-rule="evenodd" d="M297.34 332.543C300.29 331.833 306.04 332.767 308.093 334.559C310.147 336.314 308.504 338.89 305.629 344.714C302.754 350.539 298.647 359.612 295.622 369.618C292.635 379.587 290.769 390.527 290.881 400.422C290.993 410.316 293.121 419.128 294.241 426.222C295.324 433.353 295.473 438.767 294.241 441.829C292.971 444.89 290.395 445.6 286.699 446.16C283.002 446.757 278.149 447.243 274.863 446.57C271.577 445.936 269.822 444.181 269.001 437.647C268.18 431.113 268.292 419.837 270.942 406.582C273.593 393.365 278.746 378.169 283.04 366.407C287.334 354.646 290.769 346.32 292.523 340.943C294.278 335.604 294.39 333.252 297.34 332.543Z" fill="#8A7D18"/>
<path fill-rule="evenodd" clip-rule="evenodd" d="M914.45 45.6059C909.559 40.4907 901.457 31.6791 893.578 24.137C885.7 16.5949 878.046 10.3596 870.467 7.44726C862.887 4.49761 855.345 4.83365 843.882 6.36448C832.42 7.8953 817 10.6209 803.633 14.8027C790.304 18.9471 778.99 24.6224 769.245 33.3593C759.463 42.1336 751.249 54.0068 740.794 72.4887C730.303 90.9333 717.608 115.987 708.834 131.519C700.097 147.051 695.243 153.063 687.439 159.597C679.599 166.093 668.808 173.187 658.914 177.817C649.019 182.447 640.096 184.687 630.911 185.359C621.726 185.994 612.317 185.061 601.564 181.738C590.811 178.452 578.676 172.814 564.824 162.994C550.934 153.175 535.29 139.173 520.281 124.35C505.308 109.527 490.933 93.883 478.836 83.6152C466.702 73.3102 456.845 68.3816 442.731 62.7811C428.618 57.1805 410.248 50.9451 399.084 47.3608C387.92 43.7764 383.888 42.843 371.566 42.6563C359.208 42.5069 338.523 43.067 317.913 45.6059C297.34 48.1449 276.879 52.588 259.218 59.0847C241.595 65.544 226.772 74.0196 210.307 86.0048C193.841 97.9901 175.695 113.522 159.528 129.876C143.361 146.23 129.136 163.405 114.611 181.7C100.087 199.995 85.2642 219.411 71.0388 238.565C56.8133 257.756 43.1478 276.686 32.6187 299.014C22.0896 321.379 14.6969 347.142 10.4031 363.533C6.10928 379.961 4.91449 387.018 5.28786 400.534C5.6239 414.05 7.5281 434.063 12.2326 451.648C16.9371 469.234 24.4419 484.393 35.4937 499.515C46.5455 514.636 61.1444 529.683 77.0127 539.988C92.9184 550.256 110.094 555.782 128.837 560.225C147.617 564.631 167.966 567.917 195.708 571.277C223.487 574.6 258.621 578.035 297.825 580.201C336.992 582.366 380.154 583.337 415.363 581.433C450.609 579.566 477.903 574.861 498.998 570.68C520.131 566.498 535.066 562.839 545.52 559.329C555.975 555.782 561.986 552.384 563.33 550.63C564.712 548.875 561.389 548.725 548.395 549.211C535.402 549.696 512.701 550.742 478.351 550.816C444.001 550.854 398.038 549.92 357.751 547.867C317.465 545.813 282.853 542.639 254.738 538.57C226.66 534.5 205.005 529.571 180.773 518.744C156.541 507.916 129.733 491.226 111.475 477.449C93.2544 463.708 83.6214 452.881 77.4981 437.722C71.3748 422.525 68.7985 402.998 70.6654 388.661C72.5696 374.323 78.9169 365.138 89.9687 354.609C101.021 344.08 116.777 332.207 127.306 325.038C137.835 317.832 143.137 315.368 150.642 313.239C158.184 311.148 167.966 309.394 173.903 310.215C179.84 311.036 181.93 314.434 184.88 323.022C187.83 331.609 191.601 345.387 193.692 362.3C195.82 379.252 196.305 399.339 195.521 413.826C194.774 428.275 192.758 437.124 192.609 441.941C192.422 446.757 194.065 447.579 200.076 448.774C206.05 449.931 216.393 451.462 228.341 451.873C240.289 452.283 253.805 451.574 262.691 450.566C271.577 449.595 275.796 448.288 276.468 447.131C277.103 445.936 274.153 444.89 271.801 441.418C269.449 437.946 267.694 432.046 269.3 419.837C270.868 407.591 275.796 388.997 280.799 373.24C285.803 357.484 290.88 344.565 294.166 337.658C297.452 330.788 298.983 329.966 304.695 330.601C310.408 331.273 320.265 333.364 330.085 335.268C339.904 337.135 349.687 338.778 366.376 339.973C383.066 341.13 406.738 341.84 433.845 340.197C460.952 338.554 491.531 334.559 511.581 330.788C531.631 327.017 541.152 323.507 546.977 323.208C552.801 322.91 554.929 325.859 557.58 334.073C560.231 342.325 563.405 355.841 565.123 367.117C566.803 378.43 567.064 387.466 566.877 398.48C566.691 409.457 566.093 422.413 565.571 431.337C565.048 440.298 564.562 445.226 565.16 448.176C565.757 451.126 567.4 452.059 572.329 453.217C577.294 454.411 585.509 455.83 595.814 456.241C606.082 456.652 618.44 456.054 625.385 455.345C632.33 454.635 633.86 453.814 634.906 452.47C635.989 451.126 636.549 449.222 635.615 444.928C634.682 440.634 632.218 433.951 631.322 420.547C630.463 407.105 631.135 387.018 634.159 369.469C637.146 351.958 642.448 337.023 649.579 322.312C656.674 307.601 665.597 293.152 674.185 282.399C682.772 271.608 691.024 264.552 703.009 255.441C715.032 246.331 730.788 235.167 743.371 222.622C755.953 210.114 765.362 196.224 771.896 185.882C778.43 175.54 782.052 168.707 787.653 160.717C793.253 152.689 800.758 143.542 809.458 135.813C818.157 128.121 828.051 121.886 839.29 117.816C850.528 113.784 863.111 111.88 872.707 110.349C882.265 108.818 888.874 107.66 893.989 106.54C899.104 105.42 902.726 104.375 904.929 102.769C907.094 101.201 907.804 99.0729 906.796 97.2433C905.788 95.4138 903.099 93.883 896.528 90.9333C889.919 88.021 879.465 83.6526 871.437 80.4416C863.447 77.1932 857.921 75.065 854.561 73.1235C851.238 71.1819 850.043 69.4271 850.342 67.8216C850.641 66.2534 852.395 64.8346 858.444 63.9012C864.53 62.9677 874.872 62.4824 885.327 61.773C895.819 61.0635 906.385 60.1301 912.62 58.7113C918.856 57.2925 920.723 55.4256 920.872 53.7828C920.984 52.1399 919.341 50.7211 914.45 45.6059Z" fill="#F0DA2F"/>
<path fill-rule="evenodd" clip-rule="evenodd" d="M187.643 213.437C216.243 220.083 200.562 258.092 204.594 271.72C212.92 299.798 244.246 326.27 196.343 348.112C200.076 343.445 198.545 345.051 202.802 340.981C230.992 313.911 207.357 306.519 195.633 275.491C190.481 261.826 200.226 228.484 185.739 225.908C182.266 225.348 179.914 222.137 180.437 218.701C180.96 215.266 184.208 212.914 187.643 213.437Z" fill="#8A4F0D"/>
<path fill-rule="evenodd" clip-rule="evenodd" d="M178.794 245.099C197.649 248.758 188.315 273.96 191.265 282.772C197.351 300.918 218.446 317.458 187.68 332.879C189.995 329.742 189.062 330.825 191.713 328.062C209.485 309.692 193.878 305.436 185.477 285.423C181.818 276.649 187.382 254.62 177.823 253.276C175.583 253.014 173.94 250.961 174.239 248.72C174.5 246.443 176.517 244.837 178.794 245.099Z" fill="#DB7C0C"/>
<path fill-rule="evenodd" clip-rule="evenodd" d="M648.161 310.588C604.028 290.463 575.278 350.838 624.489 381.828C617.619 381.417 614.034 380.521 608.135 376.003C570.798 347.589 595.179 274.632 655.143 299.238C658.279 301.142 659.25 305.249 657.346 308.385C655.404 311.521 651.297 312.53 648.161 310.588Z" fill="#8A4F0D"/>
<path fill-rule="evenodd" clip-rule="evenodd" d="M631.172 330.19C618.552 324.441 610.301 341.69 624.377 350.577C622.435 350.427 621.39 350.166 619.71 348.896C609.031 340.757 616.013 319.923 633.151 326.942C634.047 327.502 634.346 328.66 633.786 329.556C633.226 330.452 632.068 330.751 631.172 330.19Z" fill="#8A4F0D"/>
<path fill-rule="evenodd" clip-rule="evenodd" d="M636.362 321.453C611.458 310.103 595.216 344.192 622.995 361.666C619.112 361.441 617.096 360.919 613.773 358.38C592.677 342.362 606.455 301.142 640.32 315.031C642.075 316.114 642.635 318.429 641.552 320.221C640.469 321.976 638.154 322.536 636.362 321.453Z" fill="#DB7C0C"/>
<path fill-rule="evenodd" clip-rule="evenodd" d="M417.081 70.1361C418.051 63.9755 414.84 54.0438 405.245 49.0406C395.686 44.0374 379.669 43.9627 366.638 47.3231C353.607 50.6834 343.563 57.4788 340.166 63.3408C336.768 69.1654 340.054 74.0939 348.231 75.8861C356.445 77.6783 369.55 76.3341 380.005 76.6328C390.459 76.9689 398.225 78.9477 404.647 78.761C411.032 78.5744 416.147 76.2594 417.081 70.1361Z" fill="#DB7C0C"/>
<path fill-rule="evenodd" clip-rule="evenodd" d="M296.033 49.0032C285.205 51.6915 273.743 58.2628 270.756 66.1783C267.731 74.0938 273.183 83.3534 281.509 85.3697C289.798 87.3859 300.962 82.196 310.408 77.1928C319.854 72.2269 327.546 67.4104 330.047 62.7059C332.549 58.0014 329.823 53.3716 323.401 50.4593C316.942 47.547 306.824 46.3149 296.033 49.0032Z" fill="#DB7C0C"/>
<path fill-rule="evenodd" clip-rule="evenodd" d="M553.361 329.481C556.946 336.09 562.098 349.382 564.749 365.847C567.4 382.313 567.512 401.953 567.176 417.223C566.803 432.532 565.981 443.472 562.92 449.894C559.895 456.278 554.594 458.182 547.163 458.593C539.771 459.004 530.25 457.921 520.953 456.278C511.656 454.635 502.583 452.395 497.654 449.632C492.726 446.869 491.904 443.584 492.352 437.759C492.838 431.934 494.593 423.608 497.356 413.938C500.118 404.305 503.89 393.365 506.652 381.305C509.415 369.245 511.17 356.065 511.954 347.851C512.701 339.599 512.477 336.314 515.24 333.775C518.003 331.273 523.753 329.481 529.13 328.025C534.469 326.569 539.397 325.374 542.123 324.627C544.811 323.843 545.297 323.507 546.529 323.246C547.761 323.022 549.777 322.91 553.361 329.481Z" fill="#8A7D18"/>
<path fill-rule="evenodd" clip-rule="evenodd" d="M292.747 441.605C291.478 442.09 291.478 441.567 289.051 442.314C287.483 442.799 286.363 443.285 284.608 443.584C282.592 443.957 281.173 443.92 279.605 444.293C277.626 444.704 276.954 444.89 275.871 444.629C270.868 443.397 270.905 432.942 270.718 427.977C270.569 424.915 270.233 426.408 270.83 423.645C271.278 421.555 271.166 421.107 271.316 418.418C271.353 416.85 271.614 415.095 271.951 413.415C272.324 411.324 272.585 411.586 273.071 408.897C273.369 406.993 273.705 406.246 274.265 404.454L278.671 389.669C278.97 388.548 278.895 388.623 279.269 387.428C279.642 386.159 280.015 384.74 280.575 383.097C281.546 380.222 282.704 377.795 283.861 375.07L289.051 363.308C290.582 360.62 293.83 350.24 294.278 347.702L296.257 338.965C297.303 331.721 299.953 335.194 306.861 335.418C305.629 337.807 305.442 338.927 303.799 341.392L299.692 350.24C296.518 358.604 297.19 355.542 295.622 359.201C295.025 360.508 294.876 361.18 294.689 362.263L293.83 365.287C291.329 372.307 290.619 378.318 289.238 382.724C286.773 390.378 286.699 407.366 287.371 415.245L287.819 418.306C288.043 420.546 287.856 419.352 288.416 421.592L290.134 428.387C290.88 431.113 292.71 438.618 292.747 441.605ZM550.225 325.785L551.233 328.734C551.793 330.078 552.092 331.049 552.54 332.505C553.287 335.044 554.071 337.508 554.855 340.197L555.9 343.221C555.938 343.333 556.012 343.52 556.087 343.632C556.124 343.744 556.199 343.893 556.274 344.005C559.485 350.24 557.282 346.171 559.111 353.563C559.522 355.169 559.671 356.14 560.231 357.596C561.986 362.487 564.301 381.865 564.301 386.234L563.666 407.59C563.554 409.644 563.517 408.3 563.629 410.129C563.928 415.095 563.293 415.954 563.368 418.941C563.405 420.659 563.629 422.115 563.592 424.728C563.554 426.446 563.33 428.537 563.181 430.852C563.144 431.972 563.218 433.017 563.106 434.137L562.92 439.551C562.472 443.733 562.285 445.674 560.493 447.317C557.73 449.894 559.037 449.67 557.394 451.051C555.863 452.283 555.527 451.723 554.332 451.723L553.809 451.76C552.689 452.022 553.175 452.806 549.628 453.142C548.47 453.254 545.521 453.403 543.392 453.403C540.629 453.403 539.547 453.889 537.53 453.665C535.439 453.478 533.722 452.955 532.042 452.918C530.474 452.843 530.1 453.067 529.466 453.105L511.208 451.76C509.117 450.976 508.967 450.678 506.092 450.416L500.342 449.184C496.646 448.064 497.131 448.885 493.734 446.72C493.883 444.778 494.406 440.298 494.742 438.58L495.899 431.897C496.982 426.894 497.318 422.861 498.886 418.493C502.06 409.793 504.823 400.571 507.138 391.162C508.37 386.047 510.199 382.388 510.76 376.713C510.834 375.928 510.909 375.294 510.946 375.107L513.597 363.234C514.157 360.359 515.091 345.872 514.717 342.138C514.344 338.405 515.165 337.396 515.203 334.297L550.225 325.785ZM830.292 11.6663L826.297 11.8903L817 13.4585C815.805 13.6825 815.693 13.7572 815.021 13.8692L808.524 15.0266C806.284 15.3627 792.842 21.0006 790.826 22.1954C786.831 24.585 783.882 27.5346 780.11 30.0735L773.464 35.8608C772.494 37.0556 766.594 41.4614 763.757 44.8218L757.857 51.3184C756.775 52.7373 756.476 53.6333 755.207 54.9028C755.132 54.9775 755.02 55.0895 754.908 55.1642C754.833 55.2388 754.721 55.3509 754.646 55.4255C754.236 55.7989 754.31 55.6496 753.788 56.2843L727.801 101.985L718.131 122.819C718.093 123.006 717.944 123.529 717.869 123.678C717.832 123.827 717.757 123.977 717.72 124.089L707.153 142.869C706.631 143.579 706.444 143.765 705.921 144.512L703.83 147.499C703.793 147.574 703.681 147.723 703.606 147.798L699.313 153.66C699.238 153.735 699.089 153.847 699.014 153.921L697.856 155.041C697.184 155.788 696.998 156.124 696.288 156.871L686.618 165.832C680.607 169.752 678.441 172.664 670.6 176.361L650.774 185.882L636.997 189.578C627.289 190.885 624.339 191.706 615.117 189.168C612.28 188.383 608.098 187.599 605.372 187.077C600.556 186.218 595.776 184.314 591.296 182.522L582.223 179.199C580.767 178.489 581.738 178.974 580.431 178.116C580.394 178.078 579.497 177.481 579.46 177.481C578.639 177.033 579.124 177.294 578.564 177.108C570.835 174.382 570.014 171.208 563.704 167.773C563.106 167.437 562.472 167.139 561.874 166.765C561.426 166.504 560.418 165.682 559.895 165.346C557.879 164.114 557.282 164.45 556.386 162.658C555.826 161.463 557.095 162.434 555.378 160.829C554.668 160.157 554.145 160.157 553.137 159.708C551.457 158.962 550.934 158.476 549.478 157.132C545.147 153.174 540.555 149.665 536.373 145.408L485.408 90.8212C484.026 89.4771 483.765 89.1037 482.122 87.8716C480.516 86.6395 479.994 86.2661 478.388 85.4073C476.036 84.1379 473.758 81.3003 467.374 77.7532C462.072 74.8036 456.471 71.6672 450.759 69.5764L442.395 65.5439C436.682 62.4823 427.834 60.1674 424.735 58.3005C423.428 57.5164 422.121 56.9937 420.627 56.2096C415.998 53.8574 409.65 52.9613 404.946 51.6171C398.412 49.7503 394.305 49.3022 392.027 48.6675C388.667 47.7714 381.274 45.6805 377.54 45.8299C374.815 45.9419 377.615 46.1659 375.412 45.9419C373.993 45.7925 373.695 45.5312 372.761 45.3818C367.534 44.4484 359.133 44.2617 354.055 44.411C352.375 44.4484 352.786 44.3364 351.217 44.4484C345.206 44.8964 338.747 45.1205 333.146 46.0912L327.023 46.726C324.932 47.174 326.052 47.174 323.775 47.4354C321.87 47.6594 321.684 47.5847 320.302 47.9207C318.025 48.4435 316.008 48.7795 313.768 49.2649L307.272 50.6837C304.807 51.2438 302.791 51.1691 300.476 51.8412L294.764 52.8866C292.15 53.372 290.731 53.7827 288.267 54.2681C282.032 55.5375 270.009 59.1966 264.147 61.8102C254.29 66.1413 256.082 64.2745 245.404 70.1364C242.79 71.5926 239.728 72.414 237.414 73.9821C226.66 81.2256 215.049 86.9755 204.967 95.227L178.831 117.629C171.663 124.275 169.497 125.358 161.694 133.796L132.533 166.168C131.152 167.736 130.368 169.043 129.098 170.648C128.389 171.544 127.978 171.843 127.157 172.664C126.037 173.859 126.335 173.747 125.439 174.905C125.364 175.017 125.29 175.129 125.215 175.241L124.692 175.838C124.058 176.548 124.394 175.988 123.61 176.996L112.035 191.408C111.923 191.52 111.587 191.856 111.475 191.968L104.829 201.153C104.456 201.638 104.456 201.638 104.082 202.086C103.97 202.198 103.672 202.572 103.56 202.684C103.485 202.796 103.373 202.908 103.298 202.982C103.223 203.094 103.111 203.206 103.037 203.281L90.6782 218.627C89.4461 220.157 88.5126 221.502 87.0938 222.92C83.0987 226.953 80.1117 231.657 76.3033 235.876L70.9268 242.336C70.2174 243.195 69.6946 243.568 69.0972 244.464L54.3864 268.696C53.1542 270.787 52.4822 271.608 51.1754 273.4C48.8231 276.499 47.1056 280.009 45.3881 283.444L39.3395 297.11C38.2567 298.715 38.8541 297.483 37.846 299.611L28.1756 321.528C25.9354 327.054 24.2552 332.841 21.7163 338.218L13.5768 360.508C12.6433 364.018 8.68558 376.003 10.0297 379.289C10.1044 379.401 10.1791 379.513 10.2164 379.662C11.0378 381.604 10.9258 382.687 10.3284 384.367C7.34144 393.178 8.27487 395.045 8.53623 404.379C8.76026 414.05 7.22943 414.535 9.17097 424.206C11.1125 433.951 9.99238 431.449 12.83 442.575C16.4517 456.764 15.5556 454.598 21.8283 469.122C22.2763 470.168 22.5004 471.213 22.7991 472.109C24.1432 476.328 30.5279 488.986 33.6642 492.869L40.1235 502.203C42.2518 505.451 44.4547 508.326 47.4043 510.753C49.4205 512.433 49.4952 513.404 51.026 515.047C51.9594 516.055 51.7728 515.756 52.9302 516.503L64.3181 524.867C66.0729 526.024 67.5291 526.696 69.2839 527.816L82.6507 535.919C88.886 540.063 93.8145 541.22 100.087 544.431C100.237 544.506 100.909 544.88 101.17 545.066L103.149 547.045C103.149 547.082 104.68 547.717 104.717 547.754L116.03 552.235C123.684 554.849 135.11 556.753 143.174 558.396C145.937 558.918 148.812 559.478 151.165 560.001C157.101 561.308 170.953 561.644 174.911 562.801L182.714 564.594C186.262 565.676 190.667 565.602 194.065 565.34C199.404 564.93 213.368 567.879 219.006 568.925C220.574 569.223 221.956 569.149 223.561 569.298C224.831 569.447 224.682 569.41 226.474 569.895C232.821 571.688 236.368 571.837 243.014 572.584C245.59 572.845 244.881 573.218 247.084 573.592C252.759 574.525 259.181 574.339 264.595 575.272C272.548 576.691 281.808 575.869 289.723 577.848C292.523 578.52 295.884 578.52 297.788 578.52C307.309 578.558 314.739 579.939 323.812 579.902C327.583 579.865 329.898 580.462 332.848 580.462C343.115 580.462 364.211 581.171 374.441 580.35L385.642 580.051C392.102 579.79 399.831 580.611 406.103 579.753C414.243 578.632 422.494 577.251 431.082 577.102C435.376 576.99 436.197 575.347 443.478 575.384C445.531 575.384 448.257 575.533 450.199 575.309C454.343 574.861 459.533 572.621 467.187 572.546C470.921 572.509 474.468 571.277 478.015 570.941C488.917 569.858 502.471 567.618 513.149 564.855C518.638 563.473 524.686 563.025 529.951 561.345C531.071 560.972 531.37 560.935 532.565 560.561L555.826 552.795L549.142 551.899C546.417 551.974 541.152 552.011 538.8 552.683C533.983 554.064 529.914 553.952 524.798 553.915C517.294 553.915 510.946 555.11 504.898 554.587C501.873 554.363 501.537 554.625 499.26 554.998L495.638 554.961C491.606 554.326 477.156 555.073 471.705 555.035L439.035 555.222C430.41 555.782 410.696 553.355 400.017 553.355C396.732 553.355 396.172 552.87 393.259 552.758C390.384 552.683 387.621 553.094 386.277 552.907C381.05 552.235 377.876 552.571 372.948 552.198C365.107 551.563 352.002 549.957 345.878 550.219C331.279 550.779 301.335 546.41 291.665 546.597L278.186 545.888C269.412 544.917 259.48 544.655 250.743 542.863C245.217 541.706 237.6 541.855 232.746 539.951C227.967 538.121 201.346 532.222 194.102 529.907C189.062 528.339 183.797 525.24 179.765 524.045C174.612 522.515 166.062 518.146 161.47 515.234L157.4 512.508C157.288 512.471 157.138 512.396 157.026 512.359C152.77 510.156 138.395 501.158 134.811 497.872C131.45 494.848 127.119 492.645 123.498 489.994C123.386 489.882 123.012 489.583 122.863 489.471C117.86 485.625 112.334 480.659 106.659 476.888C101.991 473.827 95.2707 468.189 91.3876 463.932L80.1491 452.022C80.0744 451.947 79.9624 451.798 79.9251 451.686L78.4689 449.221C77.6475 448.101 78.2822 448.997 77.6848 448.325L75.5193 444.816C74.7725 443.285 75.2579 444.368 74.4738 443.024L70.7027 434.324C67.8651 427.529 68.7239 426.931 67.5291 420.024L66.633 411.25C65.5502 402.961 67.0064 393.701 69.3213 385.823C70.404 382.164 69.5826 380.857 71.0388 377.385L74.6232 370.253C75.9673 367.378 76.6394 365.511 78.2075 363.084C81.2319 358.417 83.5841 354.534 87.3925 350.24L95.532 342.026C95.644 341.914 95.9427 341.541 96.0547 341.429C96.1668 341.354 96.2788 341.242 96.3534 341.13C96.4281 341.055 96.5401 340.943 96.6148 340.831L111.064 329.892C122.527 322.088 120.399 323.918 131.562 318.205C136.566 315.666 141.905 313.463 147.505 312.156C149.559 311.671 149.858 311.036 151.687 310.663C156.989 309.58 161.768 307.825 167.108 307.079C168.452 306.855 167.668 307.116 168.937 306.855C174.052 305.921 176.106 306.631 175.546 303.718L171.7 287.103C169.236 275.641 169.796 256.748 172.596 244.651C173.418 241.178 173.156 239.872 174.5 235.242C176.927 226.916 179.018 219.112 183.237 211.794L191.451 197.979C192.46 196.523 192.908 196.15 193.841 194.731C196.417 190.848 198.172 186.405 201.42 183.119C203.25 181.252 203.922 180.841 206.946 182.41C206.722 184.799 206.162 186.666 204.93 188.309L203.325 190.064C200.002 194.096 198.471 199.846 195.148 203.953C191.713 208.21 192.348 210.002 189.809 214.968C189.062 216.349 189.249 216.424 188.688 217.843C187.531 220.867 185.664 223.256 184.544 226.654C183.163 230.799 181.109 233.935 179.728 238.079C179.391 239.125 179.578 238.863 179.167 240.469C177.039 249.318 177.861 249.542 176.778 257.271C176.442 259.436 175.994 263.095 175.882 264.887C175.546 269.816 177.935 289.269 179.466 294.533C180.773 298.902 181.408 303.793 182.827 308.124C184.283 312.53 185.664 316.824 187.083 320.819C189.323 327.017 191.75 332.841 193.468 339.263C195.148 345.387 197.463 352.369 198.321 358.679C198.732 361.628 198.508 363.794 198.994 366.482C199.367 368.573 199.367 367.826 199.815 369.693C200.114 371 199.964 372.157 200.002 373.016C200.188 378.318 201.831 382.612 201.831 387.354L201.682 394.037C201.682 396.837 202.503 399.003 202.279 401.318C201.383 410.241 200.45 419.352 197.612 428.835C196.903 431.15 196.679 434.063 196.38 436.079C195.857 439.327 195.073 440.335 195.073 443.808C198.583 444.629 201.943 446.123 205.229 446.085L216.467 446.907C220.164 447.019 220.089 447.728 223.375 448.251C227.37 448.923 231.552 450.342 235.733 450.603C242.006 450.976 249.249 451.014 255.186 449.707C257.202 449.296 257.8 449.595 259.517 448.96C261.944 448.101 260.04 448.325 263.288 447.691C264.968 447.355 265.678 447.056 267.321 446.645L265.753 438.991C265.715 438.842 265.603 438.394 265.566 438.244L264.968 433.727C264.408 424.392 265.454 414.834 267.582 405.089C269.113 398.144 271.278 392.17 273.631 385.188C274.303 383.097 275.012 380.297 275.722 378.243L279.866 368.013C282.069 362.45 283.824 359.388 285.84 353.339L288.416 344.603C288.864 343.37 288.566 344.341 289.051 343.034L291.627 312.829L290.47 302.673C290.507 297.035 288.23 291.658 286.027 286.842C285.952 286.73 285.877 286.58 285.84 286.468L285.243 285.348C285.168 285.236 285.093 285.124 285.019 285.012C284.944 284.9 284.869 284.751 284.832 284.639C284.122 283.332 283.712 282.249 283.077 280.718L281.36 277.358C281.322 277.246 281.247 277.097 281.173 276.985L274.004 265.522C271.913 262.946 270.681 260.706 268.366 258.764C265.939 256.711 265.416 254.358 263.251 252.006C261.048 249.617 259.779 249.579 257.576 246.368C257.538 246.256 257.426 246.107 257.352 246.032C255.858 243.904 255.485 244.539 255.485 241.141C257.389 240.133 258.285 240.133 260.152 240.917L263.96 243.68C263.96 243.717 264.632 244.613 264.782 244.763L268.777 249.281C270.382 251.371 271.278 251.894 272.735 253.798L283.824 268.098C287.147 272.654 290.88 279.076 293.009 284.34C298.908 299.088 297.751 310.402 297.825 326.942C299.58 327.353 299.58 327.614 301.708 328.137C316.83 331.833 316.419 329.929 328.666 331.684L350.844 334.708C354.839 334.97 353.01 334.447 357.154 335.156L380.266 337.135C383.925 337.322 384.261 336.575 389.936 336.986L402.444 337.359C407.895 337.172 413.571 338.218 418.649 338.255C426.079 338.293 449.041 337.172 454.716 335.94C461.885 334.409 477.38 335.119 486.453 333.252L498.252 331.46C499.372 331.273 503.889 330.34 504.45 330.34L547.051 320.371C550.673 318.802 543.691 311.335 545.409 297.408C545.857 293.787 545.894 288.858 547.35 285.199C548.769 281.652 548.694 279.038 553.585 278.964C554.481 282.735 555.154 281.689 553.623 286.356L552.391 290.202C550.71 298.342 551.382 309.879 554.145 317.906L562.136 341.578C565.496 350.763 567.251 358.38 568.595 367.864L570.536 390.154C570.611 399.787 569.416 407.889 569.379 416.141V422.936C569.379 425.55 569.939 423.608 569.902 426.296C569.864 428.313 569.603 427.454 569.416 429.731C569.192 432.532 569.118 434.772 568.968 436.228L567.699 448.885C568.632 449.109 568.931 449.109 569.342 449.184L578.228 451.35C585.247 453.105 593.984 454.225 600.518 453.627L610.263 453.739C613.437 453.665 633.375 452.432 633.562 449.931L629.791 439.29C628.633 436.079 628.783 432.644 627.961 428.723C627.812 427.939 626.99 425.848 626.99 425.176C626.99 418.269 625.796 413.154 625.87 404.902C625.87 403.409 625.87 401.803 625.796 400.347C625.46 393.813 627.065 390.677 626.99 384.516C626.916 379.812 630.911 364.466 631.732 359.948L635.13 347.515C635.839 345.499 636.735 344.528 637.445 342.512C638.192 340.421 638.864 338.069 639.312 336.426C640.096 333.476 639.909 333.028 641.365 330.564L642.709 327.091C643.157 325.523 642.747 327.166 643.12 325.635C643.269 325.075 643.307 324.627 643.419 324.216L646.555 317.72C647.414 316.226 647.377 316.674 648.198 315.442C649.281 313.799 649.99 312.119 651.036 310.364C651.745 309.169 651.857 308.684 652.305 307.676C653.164 305.921 652.828 306.743 653.836 305.249C657.458 299.76 660.594 294.608 664.738 289.605C665.597 288.559 665.634 288.447 666.381 287.327C668.584 284.041 670.787 281.913 673.438 279.113L680.98 271.422C683.631 268.733 685.722 265.784 688.672 263.319C690.389 261.901 691.434 261.602 693.189 259.922C699.873 253.462 707.415 248.048 714.994 242.746L725.15 235.428C728.809 232.628 741.205 222.099 742.213 220.307C743.259 218.477 742.101 219.299 743.483 217.619L746.619 215.08C746.731 214.968 747.067 214.669 747.179 214.557C749.195 212.615 750.95 209.778 752.406 207.351L757.335 200.406C758.567 198.726 759.575 197.68 760.732 195.888L766.893 186.815C767.453 185.957 767.752 185.471 768.275 184.538L781.492 163.592C783.321 161.351 783.882 158.626 785.748 156.572C788.623 153.398 791.274 148.881 793.739 146.491L816.402 124.574C816.514 124.499 816.626 124.387 816.738 124.313C825.886 116.621 828.388 118.227 831.935 112.962C838.394 112.962 843.658 110.311 851.163 110.125C857.473 110.013 866.098 107.25 873.267 106.354L891.599 103.591C893.168 103.441 895.034 103.367 896.528 103.031C897.424 102.881 900.411 102.209 901.046 101.948C902.017 101.537 903.697 100.081 904.182 99.4088C900.672 94.1816 897.573 94.779 889.807 91.792C887.903 91.0826 887.791 90.9333 885.7 90.2612C882.452 89.1784 879.241 86.7888 875.918 85.8927L868.973 84.3992C867.33 83.8018 867.256 83.3911 864.978 82.7191C862.252 81.8976 863.373 82.1217 861.058 81.0016C859.452 80.2175 858.78 79.9561 857.175 79.2467L854.15 77.7532C854.001 77.6785 853.59 77.4172 853.441 77.3425C851.35 75.9984 848.55 74.3929 847.243 72.2646L846.235 70.3978C842.725 63.4157 852.134 63.4157 855.98 61.9222C857.697 61.2501 858.407 61.0635 860.535 61.1381C866.023 61.2875 896.379 58.6365 900.523 57.8898L904.854 57.5538C909.932 57.6284 913.442 54.3428 918.296 54.2307L915.271 50.5344C914.861 50.1236 914.674 49.8249 914.189 49.3396C913.068 48.1448 912.956 48.3315 911.836 47.174L889.322 22.8301C886.484 19.9925 884.468 17.0802 881.332 14.4292C878.046 11.6663 873.79 10.6208 869.346 10.0234C866.696 9.68741 865.09 8.60463 862.028 8.30593C859.564 8.04457 856.951 9.2767 854.412 9.53806C847.766 10.2475 844.592 9.50072 841.008 10.2101C838.17 10.7702 835.78 11.0315 833.988 11.2182C832.383 11.4049 831.449 11.6289 830.292 11.6663ZM852.769 70.0617C854.449 67.5228 857.287 67.0748 860.61 66.5147L889.509 64.3865C894.997 64.4238 906.049 64.1998 910.567 62.893C913.442 62.0716 916.242 60.9141 918.818 59.8313C921.283 58.7859 923 57.143 925.054 55.3882C923 50.7584 925.726 51.3558 919.266 43.7016L916.615 40.7147C916.503 40.6026 916.167 40.2666 916.055 40.1546C915.421 39.5572 915.869 40.0053 915.159 39.3705C912.396 36.9436 909.111 35.3008 906.646 32.6125L884.505 9.01534C880.697 5.4683 878.457 6.36439 874.798 5.13226L865.277 1.9586C865.165 1.9586 865.015 1.92126 864.941 1.88392C864.791 1.84659 864.381 1.69724 864.194 1.62256C857.772 -0.2443 846.309 0.763806 840.261 2.18262C831.001 4.34818 821.405 6.55108 812.071 7.85788L801.841 10.5835C794.448 13.7572 788.511 15.8481 781.94 20.6646L774.286 25.9291L751.025 49.5636C748.262 52.6626 746.619 56.3216 744.005 59.458L732.655 79.0227C732.617 79.0974 732.505 79.2094 732.468 79.284L714.621 114.232C713.613 116.099 713.314 118.451 712.306 120.392L701.553 140.106C700.843 141.003 700.47 141.413 699.835 142.347L696.214 147.2C694.72 148.993 694.085 150.411 692.629 152.054C688.597 156.535 680.308 162.994 675.267 166.877L665.298 172.142C661.415 174.158 655.255 177.817 651.11 178.862C646.518 180.057 642.784 181.588 637.856 182.596C635.242 183.119 635.018 183.306 631.77 183.791C631.322 183.866 620.195 184.127 619.075 184.09C616.125 184.09 617.656 183.903 616.125 183.418L593.872 177.742L579.161 170.387C576.062 168.856 575.241 167.363 572.739 166.093C569.939 164.637 567.774 163.853 566.019 161.538C563.704 158.588 561.613 158.588 558.925 156.199L547.462 147.313C546.23 146.454 545.483 145.856 544.4 144.736L541.488 141.973C540.555 141.115 540.891 141.488 539.92 140.741C539.808 140.629 539.024 140.032 538.949 139.994L538.389 139.472C534.394 135.85 528.196 128.457 524.724 124.313L520.617 119.944C520.542 119.87 520.43 119.758 520.355 119.646C520.281 119.571 520.169 119.459 520.094 119.347C517.518 116.584 515.24 113.037 512.552 110.535C510.946 109.079 511.581 109.004 509.863 107.548C504.263 102.844 498.849 95.7871 493.584 90.5226C492.576 89.5144 491.792 88.6557 490.747 87.7223C489.365 86.5648 488.992 86.5648 487.685 85.146C487.312 84.7726 486.565 83.8765 486.341 83.6525L482.122 80.5535C482.01 80.4788 481.861 80.4415 481.749 80.3668C481.039 79.9934 481.412 80.2921 480.628 79.8068L464.835 69.6137C458.861 66.2907 453.634 62.1089 447.436 59.3459L424.398 49.6383C416.968 46.9126 406.589 44.187 399.532 43.1042L385.306 40.6773C380.079 39.8932 367.982 38.1011 363.501 38.6611C360.216 39.1092 359.394 38.3251 355.175 38.5491L337.328 39.5945C334.154 39.7439 331.69 39.9679 328.703 40.416L314.926 42.5442C313.283 42.8429 312.685 43.2536 310.296 43.5896C308.392 43.851 307.496 43.9257 305.218 44.1123L296.033 45.9045C295.921 45.9419 295.772 45.9419 295.66 45.9792C295.585 45.9792 295.436 46.0165 295.324 46.0165C286.997 47.286 283.189 48.6675 275.423 51.5798L251.079 60.5781C248.876 61.7729 245.74 63.229 243.388 64.1624C235.92 67.2241 229.61 72.0779 222.815 76.3344L196.305 93.8829C192.497 97.2433 188.054 100.23 184.357 103.927L182.042 106.167C181.968 106.242 181.856 106.354 181.744 106.428L168.265 118.339C168.004 118.6 167.406 119.16 167.406 119.16L150.343 136.559C146.871 140.442 142.988 143.877 139.889 148.134C139.814 148.209 139.739 148.358 139.665 148.433C139.59 148.545 139.478 148.657 139.403 148.769L124.916 166.429C122.265 169.565 119.727 172.291 117.785 175.689C116.105 178.601 114.313 178.937 112.296 181.513L96.5775 201.339C96.0174 202.124 96.0174 202.198 95.4573 203.057C92.433 207.5 88.5126 210.86 85.7123 215.341L73.279 230.537C69.8067 234.682 69.7693 233.823 65.7742 239.984C64.8781 241.365 64.2807 241.664 63.198 243.083L56.5893 252.828C55.0211 255.068 53.3783 256.86 52.2955 259.25L49.3832 264.813C49.3458 264.887 48.8978 265.485 48.6738 265.784L40.3476 280.644C39.2274 283.183 38.1073 285.162 36.9125 287.925L33.2908 295.579C33.0295 296.139 33.0295 296.176 32.7681 296.736C32.6934 296.886 32.4321 297.334 32.3574 297.483C32.0214 298.043 31.648 298.678 31.312 299.275L26.1968 310.514C23.0978 318.205 19.252 323.32 16.041 333.103C13.5021 340.719 13.2034 338.778 10.9632 344.939C8.16286 352.555 7.04274 359.052 5.06387 366.706C3.4957 372.792 2.86097 379.326 1.74085 385.412C1.06878 388.997 1.74085 391.199 1.36748 395.157C1.06878 398.293 0.882097 401.355 0.844759 405.425C0.807422 412.146 5.62393 441.978 7.56546 448.4L10.1791 457.1C11.8219 462.551 14.3608 467.517 16.3024 472.968C17.2358 475.544 16.8624 474.312 18.0199 476.328L25.338 491.039C28.6237 497.536 37.846 510.529 43.1479 516.13L49.0098 522.701C50.2793 524.083 50.7647 523.933 52.1088 525.24C55.3571 528.488 55.0958 529.161 60.4723 533.268C65.5875 537.151 64.9528 539.242 72.4203 543.311C82.4266 548.763 86.3471 551.899 97.6229 555.409C99.4524 555.969 100.012 556.566 101.469 556.865C102.439 557.089 103.709 557.014 105.389 557.761C106.957 558.433 107.181 558.993 108.077 560.113C108.787 559.702 108.04 559.964 109.347 559.59C111.176 559.105 127.007 562.017 129.248 562.727C132.683 563.81 137.088 563.922 140.934 564.556L164.718 569.037C167.966 569.821 171.252 570.53 174.314 571.277C182.752 573.368 190.518 573.704 198.732 575.123C211.987 577.438 226.959 578.744 240.475 581.321L278.447 582.964C280.837 582.926 282.069 583.225 285.392 583.262C286.811 583.262 288.416 583.449 289.536 583.486L299.505 584.382C301.596 584.382 300.439 584.084 302.156 584.158L327.658 585.689C332.25 585.428 335.312 586.511 340.688 585.988C345.542 585.54 356.295 586.324 362.717 586.1C366.526 585.95 368.467 586.623 371.23 586.66C373.844 586.735 376.121 586.063 379.706 586.1C382.991 586.137 386.053 585.726 387.36 585.689C389.862 585.577 388.853 586.063 391.467 586.025C392.998 585.988 392.288 585.95 393.073 585.838C398.822 585.017 404.498 585.652 411.48 584.569C421.3 583.038 430.26 583.486 439.931 582.03C441.163 581.843 441.648 581.843 443.067 581.694L474.617 577.139C480.367 575.571 486.229 576.317 496.086 573.704C501.239 572.322 507.25 572.21 512.29 570.754C520.43 568.439 530.847 568.551 538.314 565.191L558.029 558.358C559.261 557.873 560.343 557.201 561.538 556.79C567.4 554.662 573.001 555.633 578.676 552.459C582.522 550.293 583.642 552.683 584.09 547.717C581.626 546.522 580.991 548.091 580.692 544.319L576.249 544.394C573.635 544.581 570.648 543.722 568.072 544.282L565.533 544.992C561.314 545.813 556.05 545.216 551.644 545.776C549.254 546.112 548.283 545.589 546.118 545.664L503.665 548.613C501.388 548.949 492.95 549.248 492.315 549.211L481.263 548.277C478.425 548.053 476.969 548.539 475.028 548.763C472.825 548.987 470.51 548.763 468.307 548.8C465.357 548.837 464.648 549.547 462.221 549.323C454.156 548.688 445.494 548.501 437.056 549.136C431.605 549.547 426.452 548.352 420.627 548.128L405.207 548.016C404.162 548.016 401.361 547.157 400.577 547.157C395.313 547.157 393.819 546.522 387.584 546.56C377.428 546.634 364.995 545.514 354.316 544.245C352.711 544.058 352.748 544.021 351.442 543.946C350.321 543.871 349.799 544.469 349.537 543.797C349.5 543.685 349.313 543.759 349.201 543.759C347.297 543.759 348.006 544.058 346.886 544.095L339.606 543.759C335.573 543.759 332.586 543.61 329.338 543.274L315 542.453C307.533 542.266 285.093 539.69 277.588 538.57C273.407 537.972 263.736 534.91 257.725 534.724C253.506 534.574 251.676 533.492 247.831 532.782C244.134 532.073 241.185 531.737 237.451 531.289C231.141 530.542 225.354 527.742 219.305 526.286C217.55 525.838 215.833 525.875 213.966 525.427L191.563 519.042L161.059 505.489C154.936 503.174 149.596 499.253 143.697 496.341L119.279 479.539C118.158 478.569 117.524 477.71 116.404 476.739C114.126 474.798 112.147 473.416 109.944 471.325C104.941 466.621 95.8307 461.729 91.5743 454.15C91.5369 454.038 91.4249 453.889 91.3876 453.777L79.589 437.348C78.8049 435.78 78.8049 434.399 78.2822 433.017C77.5355 431.038 77.0501 431.262 76.266 428.798C75.7059 427.043 75.5939 426.035 75.3326 424.094C74.3618 416.738 75.4446 415.021 74.4365 411.436C73.3164 407.478 73.5404 402.177 73.6897 398.032C73.8017 394.821 74.2498 394.186 74.8098 390.751C76.5647 380.409 79.9997 372.381 85.0029 363.682C87.6165 359.127 89.3714 358.94 92.3584 355.804L108.525 340.309C110.28 339.077 109.571 339.711 111.587 338.853C115.433 337.247 118.196 334.671 121.481 332.393L144.518 320.445C153.143 316.301 165.913 312.567 175.247 312.418C178.607 312.343 177.45 312.156 178.346 314.845C178.757 316.04 178.383 315.069 178.831 316.077L182.08 325.262C184.245 331.012 185.552 337.508 186.784 343.744L189.286 359.836C189.958 363.122 189.734 365.063 190.219 368.498C191.302 376.227 191.078 383.807 191.899 391.274L191.675 411.063C191.675 416.551 189.846 429.358 188.763 434.511C188.539 435.556 188.427 436.34 188.539 438.02C188.651 440.597 187.158 444.106 187.158 446.645C187.195 448.624 188.576 448.139 189.995 448.885C190.107 448.96 190.257 449.035 190.369 449.072C190.406 449.109 191.153 449.595 191.414 449.744C199.18 453.702 210.195 452.619 219.417 454.523L228.826 456.838C230.394 457.212 232.298 456.838 233.941 457.025C234.725 457.137 235.36 457.436 236.48 457.622C239.019 458.108 242.827 457.66 244.62 457.697C248.876 457.772 255.634 458.033 259.779 456.577C261.757 455.905 262.915 455.531 264.856 454.859C269.225 453.329 271.54 456.054 274.116 451.163C277.514 452.769 283.525 452.432 286.363 451.611C289.051 450.827 290.096 451.014 292.598 449.894L295.212 448.549C297.377 447.541 299.132 446.272 300.103 443.882C301.186 441.381 299.356 437.386 298.572 434.585L294.465 414.498C294.166 409.42 293.233 406.657 293.606 401.803L294.428 389.631C294.502 386.383 294.801 385.673 295.51 383.359C296.78 379.139 299.841 365.101 301.522 361.703C303.538 357.708 304.621 353.675 306.375 349.606L311.491 339.487C312.835 336.127 311.64 336.724 315.038 336.836C317.987 336.911 323.14 337.732 326.463 338.965C326.575 339.039 326.724 339.077 326.836 339.151C326.986 339.189 327.098 339.263 327.247 339.301L346.55 341.205C350.583 341.354 353.644 342.885 357.714 343.296C361.075 343.632 364.659 343.258 367.907 343.856L393.558 345.312C397.852 344.864 397.852 345.611 401.697 345.611L416.184 345.461C417.678 345.387 416.296 345.387 417.864 345.424C421.897 345.611 427.796 344.453 431.082 344.453L454.828 343.333C458.525 342.773 459.047 343.333 459.869 343.333L472.115 341.952C483.839 339.786 496.161 338.703 507.847 335.978C510.573 347.552 506.876 364.951 504.972 376.563L498.588 401.243C496.385 407.105 495.339 413.266 493.174 418.978C492.576 420.621 491.942 423.048 491.755 424.579C490.971 430.553 488.507 433.316 488.171 435.407C487.61 439.028 485.856 444.554 486.864 448.027C488.581 454.001 501.948 456.689 506.391 457.697C509.378 458.369 516.547 459.601 519.422 459.489C527.225 459.116 535.514 460.908 543.056 460.423L547.835 459.825C552.279 459.601 555.639 457.958 559.858 457.174L564.861 455.681C568.595 455.681 572.403 457.1 575.054 457.361C579.497 457.772 581.028 457.884 585.061 458.668C592.416 460.012 593.835 459.489 600.07 459.9C601.937 460.012 600.145 460.199 602.124 460.199L625.721 458.332C626.692 458.22 629.94 457.697 630.911 457.622C636.138 457.212 638.378 458.369 641.664 453.403L640.17 449.894C640.096 449.52 640.208 449.856 639.946 448.885C638.005 442.09 634.831 434.399 633.972 427.118C633.86 426.259 633.636 422.637 633.599 421.891L633.188 411.623C633.188 402.662 635.13 394 634.458 384.964C633.823 376.302 636.213 370.216 637.632 361.815C638.714 355.281 644.651 338.367 647.713 331.273C648.31 329.892 648.758 329.294 649.355 327.838C651.67 321.901 654.508 316.488 657.906 311.036C660.445 306.929 664.141 303.158 665.933 298.715C666.717 296.811 665.597 298.678 666.867 296.811C670.899 290.8 675.716 285.423 680.831 280.308L685.199 275.603C685.274 275.529 685.386 275.417 685.461 275.342L688.933 271.459C692.331 267.874 696.55 265.634 699.873 262.087C704.054 257.607 709.543 254.694 714.434 251.222L717.197 248.907C718.915 247.414 721.118 245.621 722.984 244.539C731.423 239.648 733.066 235.391 739.338 230.948C744.192 227.513 747.851 222.51 752.406 218.627L756.289 214.594C756.364 214.52 756.476 214.37 756.513 214.296L760.583 208.732C761.554 206.828 760.956 206.305 762.45 204.401L782.201 173.897C782.948 172.702 783.359 171.992 783.994 170.611C785.823 166.765 789.557 161.949 792.058 158.364L812.407 138.053C821.555 131.108 832.383 121.849 843.136 117.965L873.566 113.373C879.017 112.701 885.775 111.842 890.629 110.125C896.565 108.071 906.236 109.639 909.409 103.516C910.529 101.388 910.716 99.0354 911.239 96.8325C912.434 91.9414 906.385 88.5063 901.643 86.7515C897.984 85.37 893.242 84.9593 888.986 84.1379C884.468 83.2418 882.004 81.6736 878.121 79.7694L867.442 75.2143C862.812 73.1234 857.063 72.8247 852.769 70.0617Z" fill="black"/>
<path fill-rule="evenodd" clip-rule="evenodd" d="M840.186 20.7764C841.866 21.2618 843.995 22.6806 845.189 24.8462C846.384 27.0117 846.608 29.9614 846.496 32.0896C846.384 34.1805 845.899 35.4873 844.032 36.0847C842.128 36.6821 838.842 36.5327 835.967 36.01C833.092 35.45 830.628 34.4419 829.396 33.0977C828.164 31.7162 828.201 30.0361 828.798 28.1319C829.396 26.1903 830.516 24.0994 831.86 22.8673C833.204 21.6725 834.735 21.3738 836.079 21.0378C837.423 20.6644 838.543 20.2537 840.186 20.7764Z" fill="white"/>
<path fill-rule="evenodd" clip-rule="evenodd" d="M841.045 35.4873C840.933 35.4873 840.784 35.4873 840.634 35.4873L833.279 33.7698C832.233 33.023 830.553 32.3883 830.105 31.3429C829.769 30.5588 830.292 28.1692 830.777 27.1611C830.927 26.8251 831.748 25.7049 831.972 25.4809L833.577 24.2861C835.743 23.0913 839.962 22.6433 842.688 22.6433C841.157 28.5799 839.701 28.5052 844.405 35.0393L841.045 35.4873ZM825.737 31.6789C825.737 33.7698 827.977 36.4581 829.545 37.4662C832.084 39.0717 837.797 40.1171 841.754 39.8558C845.936 39.5571 848.886 40.0798 853.18 38.2129C858.631 35.8233 859.004 33.3591 859.751 30.7081C860.423 28.3186 863.821 26.601 857.473 23.2034L856.353 22.7553C847.355 18.7976 845.749 16.2213 834.362 19.4323C832.084 20.067 831.151 20.2537 829.694 21.5232L826.521 26.265C826.483 26.377 826.409 26.5264 826.371 26.6384C825.475 28.7293 825.699 29.1773 825.737 31.6789Z" fill="black"/>
<path fill-rule="evenodd" clip-rule="evenodd" d="M270.532 95.5256C262.541 98.1019 257.352 103.03 258.546 109.639C259.704 116.21 267.246 124.462 276.058 126.702C284.869 128.905 294.988 125.171 299.244 118.451C303.463 111.767 301.82 102.097 295.585 97.3924C289.35 92.688 278.522 92.912 270.532 95.5256Z" fill="#DB7C0C"/>
<path fill-rule="evenodd" clip-rule="evenodd" d="M319.219 105.382C318.286 113.97 317.353 123.864 323.588 129.39C329.823 134.916 343.227 136.111 350.396 131.631C357.565 127.15 358.498 117.032 352.748 107.884C346.998 98.6991 334.528 90.4476 327.807 89.9995C321.124 89.5141 320.153 96.7949 319.219 105.382Z" fill="#DB7C0C"/>
<path fill-rule="evenodd" clip-rule="evenodd" d="M422.382 144.699C412.376 148.321 397.553 158.663 395.91 165.869C394.267 173.038 405.805 177.033 415.811 173.374C425.78 169.752 434.255 158.439 435.898 151.27C437.541 144.102 432.389 141.04 422.382 144.699Z" fill="#DB7C0C"/>
<path fill-rule="evenodd" clip-rule="evenodd" d="M460.018 89.1783C449.34 92.3519 441.088 103.18 442.843 111.058C444.598 118.936 456.359 123.865 467.075 120.691C477.791 117.517 487.424 106.204 485.669 98.3259C483.914 90.4477 470.734 86.0046 460.018 89.1783Z" fill="#DB7C0C"/>
<path fill-rule="evenodd" clip-rule="evenodd" d="M375.449 101.052C373.321 110.236 380.863 122.67 390.608 129.054C400.391 135.402 412.376 135.626 419.694 130.921C426.975 126.217 429.551 116.584 425.668 107.287C421.785 97.9899 411.442 89.0289 400.391 87.5354C389.339 86.0046 377.578 91.8666 375.449 101.052Z" fill="#DB7C0C"/>
<path fill-rule="evenodd" clip-rule="evenodd" d="M239.617 96.6832C235.248 94.9283 227.482 97.0565 223.972 100.79C220.425 104.561 221.135 109.975 225.503 111.73C229.834 113.522 237.824 111.618 241.371 107.884C244.881 104.113 243.948 98.438 239.617 96.6832Z" fill="#DB7C0C"/>
<path fill-rule="evenodd" clip-rule="evenodd" d="M265.118 140.666C263.96 144.811 263.699 151.606 265.491 154.22C267.246 156.796 271.017 155.153 272.174 151.046C273.369 146.902 271.95 140.33 270.196 137.754C268.441 135.14 266.312 136.559 265.118 140.666Z" fill="#DB7C0C"/>
<path fill-rule="evenodd" clip-rule="evenodd" d="M328.89 145.147C319.929 148.32 315 154.444 317.465 158.551C319.929 162.695 329.823 164.786 338.747 161.612C347.708 158.439 355.698 149.963 353.234 145.856C350.769 141.749 337.813 141.973 328.89 145.147Z" fill="#DB7C0C"/>
<path fill-rule="evenodd" clip-rule="evenodd" d="M493.435 123.155C493.323 127.636 495.899 137.045 498.849 140.107C501.799 143.168 505.084 139.845 505.196 135.402C505.308 130.922 502.247 125.284 499.334 122.222C496.385 119.16 493.547 118.675 493.435 123.155Z" fill="#DB7C0C"/>
</svg>
