<svg width="88" height="112" viewBox="0 0 88 112" fill="none" xmlns="http://www.w3.org/2000/svg">
<path d="M35.831 109.628C36.8643 108.378 40.0443 101.717 37.8576 100.813C35.787 99.8438 22.5523 102.081 20.1163 102.713C17.599 103.368 15.191 105.269 16.527 106.498C17.191 107.108 18.651 107.436 20.2603 107.534C19.9883 108.37 20.2443 109.209 21.359 109.698C22.4936 110.198 24.2696 110.225 25.971 109.992C26.3216 110.792 27.147 111.498 28.4936 111.765C31.1363 112.286 34.7616 110.918 35.831 109.628Z" fill="#FF5500"/>
<path d="M51.2802 109.628C50.2468 108.378 47.0668 101.717 49.2535 100.813C51.3228 99.8438 64.5588 102.081 66.9935 102.713C69.5122 103.368 71.9202 105.269 70.5842 106.498C69.9202 107.108 68.4602 107.436 66.8508 107.534C67.1228 108.37 66.8655 109.209 65.7522 109.698C64.6175 110.198 62.8415 110.225 61.1402 109.992C60.7895 110.792 59.9642 111.498 58.6162 111.765C55.9748 112.286 52.3482 110.918 51.2802 109.628Z" fill="#FF5500"/>
<path d="M23.0184 77.7892C19.1691 82.1919 13.8864 86.4025 11.1198 80.7345C7.7891 73.9145 10.2198 67.9172 12.5958 64.2599C13.7411 62.4959 15.7931 59.8825 19.2078 57.9159C22.9171 55.7785 26.9264 56.0972 28.3998 56.9305C30.5624 58.1519 33.5824 61.5865 32.9798 65.7732C32.2544 70.8105 26.4411 73.8745 23.0184 77.7892Z" fill="black"/>
<path d="M64.0913 77.7892C67.942 82.1919 73.2247 86.4025 75.9913 80.7345C79.3207 73.9145 76.8913 67.9172 74.5153 64.2599C73.37 62.4959 71.318 59.8825 67.9033 57.9159C64.194 55.7785 60.1847 56.0972 58.71 56.9305C56.5487 58.1519 53.5287 61.5865 54.1313 65.7732C54.8567 70.8105 60.67 73.8745 64.0913 77.7892Z" fill="black"/>
<path d="M68.1044 76.1798C66.4471 64.3744 55.0018 43.5238 43.5551 43.5238C32.1098 43.5238 20.6644 64.3744 19.0071 76.1798C14.9591 105.032 41.0444 106.816 43.5551 106.548C46.0671 106.816 72.1524 105.032 68.1044 76.1798Z" fill="black"/>
<path d="M56.4963 58.142C67.2216 55.4847 74.6576 51.758 74.6576 40.5127C74.6576 12.8007 60.7416 5.19669 43.5549 4.92869C26.3696 5.19669 12.4536 12.8007 12.4536 40.5127C12.4536 51.758 19.8896 55.4847 30.6149 58.142C30.9203 58.298 31.1829 58.45 31.4109 58.602H55.6949C55.9269 58.45 56.1909 58.298 56.4963 58.142Z" fill="black"/>
<path d="M59.5393 18.0183C52.286 16.9503 47.6593 36.1956 47.466 37.6383C46.7593 42.9209 45.4007 45.4823 43.6927 45.4823C41.982 45.4823 40.618 42.9183 39.9127 37.6063C39.7233 36.1689 35.0993 16.9503 27.8447 18.0183C17.2087 19.5836 13.3713 36.2116 17.2087 45.5263C21.0447 54.8396 36.958 58.2196 43.6927 58.2196C50.4273 58.2196 66.3407 54.8396 70.1767 45.5263C74.0127 36.2116 70.1767 19.5836 59.5393 18.0183Z" fill="white"/>
<path d="M43.6916 40.9051C41.4876 40.9051 39.7236 42.5544 39.649 42.6251C39.569 42.7011 39.545 42.8117 39.585 42.9104C39.645 43.0531 41.081 46.4277 43.6916 46.4277C44.673 46.4277 45.6343 45.9491 46.4716 45.0437C47.2343 44.2184 47.865 43.0197 47.8143 42.7651C47.7516 42.4557 45.8863 40.9051 43.6916 40.9051Z" fill="#FF5500"/>
<path d="M60.4858 75.8283C59.3432 67.6869 51.4498 53.3069 43.5552 53.3069C35.6618 53.3056 27.7685 67.6869 26.6245 75.8283C23.8338 95.7256 41.8232 96.9563 43.5552 96.7723C45.2885 96.9563 63.2778 95.7256 60.4858 75.8283Z" fill="white"/>
<path d="M60.6057 31.9519C60.6737 31.8426 60.6711 31.6972 60.5857 31.5892C60.4777 31.4532 60.2804 31.4292 60.1431 31.5372L60.1311 31.5479C59.6484 31.9279 59.0897 32.1519 58.5084 32.2572C58.2177 32.3092 57.9231 32.3359 57.6297 32.3386C57.3484 32.3399 57.0151 32.3212 56.8017 32.2719C56.7657 32.2626 56.7244 32.2706 56.6857 32.2666C56.0124 32.0306 55.2964 31.9466 54.5764 32.0946C52.1764 32.5906 50.6977 35.2439 51.2711 38.0186C51.8457 40.7932 54.2551 42.6399 56.6537 42.1439C59.0524 41.6466 60.5311 38.9959 59.9577 36.2212C59.7444 35.1972 59.2817 34.3026 58.6617 33.6026C58.7644 33.5506 58.8751 33.5159 58.9751 33.4586C59.6311 33.0906 60.2151 32.5732 60.6057 31.9519" fill="black"/>
<path d="M54.8948 35.4909C55.0601 36.2909 54.5468 37.0736 53.7481 37.2389C52.9481 37.4043 52.1655 36.8896 52.0001 36.0896C51.8348 35.2909 52.3495 34.5096 53.1481 34.3443C53.9481 34.1789 54.7295 34.6909 54.8948 35.4909Z" fill="white"/>
<path d="M54.5641 40.3712C55.1294 40.5166 55.7454 40.5952 56.2827 40.5019C56.8321 40.4392 57.3054 40.1726 57.6921 39.7966C58.0801 39.4352 58.2974 38.9072 58.4534 38.3419C58.5921 37.7726 58.6441 37.1446 58.6441 36.5339V36.5166C58.6441 36.4019 58.7374 36.3086 58.8534 36.3086C58.9467 36.3086 59.0267 36.3712 59.0521 36.4552C59.2547 37.1126 59.3107 37.7872 59.2334 38.4819C59.1614 39.1752 58.8734 39.8859 58.3574 40.4486C57.8494 40.9872 57.0974 41.3312 56.3654 41.3646C55.6241 41.3886 54.9361 41.1979 54.3401 40.8059C54.2267 40.7326 54.1961 40.5806 54.2694 40.4672C54.3281 40.3779 54.4361 40.3392 54.5347 40.3632L54.5641 40.3712Z" fill="#5B5B5A"/>
<path d="M26.5055 31.9519C26.4375 31.8426 26.4401 31.6972 26.5255 31.5892C26.6335 31.4532 26.8308 31.4292 26.9681 31.5372L26.9801 31.5479C27.4615 31.9279 28.0215 32.1519 28.6015 32.2572C28.8935 32.3092 29.1881 32.3359 29.4815 32.3386C29.7628 32.3399 30.0961 32.3212 30.3095 32.2719C30.3455 32.2626 30.3868 32.2706 30.4255 32.2666C31.0988 32.0306 31.8135 31.9466 32.5348 32.0946C34.9335 32.5906 36.4135 35.2439 35.8401 38.0186C35.2655 40.7932 32.8561 42.6399 30.4575 42.1439C28.0588 41.6466 26.5801 38.9959 27.1535 36.2212C27.3668 35.1972 27.8295 34.3026 28.4481 33.6026C28.3468 33.5506 28.2361 33.5159 28.1361 33.4586C27.4801 33.0906 26.8961 32.5732 26.5055 31.9519Z" fill="black"/>
<path d="M32.2151 35.4909C32.0498 36.2909 32.5644 37.0736 33.3631 37.2389C34.1631 37.4043 34.9458 36.8896 35.1111 36.0896C35.2764 35.2909 34.7618 34.5096 33.9631 34.3443C33.1631 34.1789 32.3804 34.6909 32.2151 35.4909Z" fill="white"/>
<path d="M32.5471 40.3712C31.9818 40.5166 31.3658 40.5952 30.8284 40.5019C30.2791 40.4392 29.8058 40.1726 29.4191 39.7966C29.0298 39.4352 28.8138 38.9072 28.6578 38.3419C28.5191 37.7726 28.4658 37.1446 28.4671 36.5339V36.5166C28.4671 36.4019 28.3738 36.3086 28.2578 36.3086C28.1644 36.3086 28.0844 36.3712 28.0591 36.4552C27.8564 37.1126 27.7991 37.7872 27.8778 38.4819C27.9484 39.1752 28.2378 39.8859 28.7538 40.4486C29.2618 40.9872 30.0138 41.3312 30.7458 41.3646C31.4871 41.3886 32.1738 41.1979 32.7711 40.8059C32.8844 40.7326 32.9151 40.5806 32.8418 40.4672C32.7831 40.3779 32.6751 40.3392 32.5751 40.3632L32.5471 40.3712Z" fill="#5B5B5A"/>
<path d="M76.8023 35.9493C75.425 35.9493 74.257 34.8893 74.1463 33.492C72.6156 14.04 57.7436 5.33333 43.685 5.33333C29.625 5.33333 14.753 14.04 13.2223 33.492C13.1076 34.9613 11.8276 36.0547 10.3543 35.9413C8.8863 35.8253 7.7903 34.5413 7.90497 33.0733C9.6943 10.3493 27.7063 -4.0038e-07 43.685 -4.0038e-07C59.6636 -4.0038e-07 77.6743 10.3493 79.4636 33.0733C79.5783 34.5413 78.4823 35.8253 77.0143 35.9413C76.9423 35.9467 76.873 35.9493 76.8023 35.9493Z" fill="#76BBF4"/>
<path d="M13.2867 35.9611C12.9013 41.9518 15.64 48.1638 13.6853 51.2344C11.972 54.6718 0.148 49.3984 0 35.9611C0.148 22.5238 11.972 17.2504 13.6853 20.6878C15.6413 23.7571 12.9013 29.9704 13.2867 35.9611Z" fill="#3B97F2"/>
<path d="M73.8244 35.9611C74.2084 41.9518 71.4698 48.1638 73.4258 51.2344C75.1391 54.6718 86.9631 49.3984 87.1111 35.9611C86.9631 22.5238 75.1391 17.2504 73.4258 20.6878C71.4698 23.7571 74.2084 29.9704 73.8244 35.9611Z" fill="#3B97F2"/>
<path d="M27.7515 54.4389C28.1635 54.6123 28.8222 55.0216 29.4062 55.2643C30.0008 55.5469 30.6302 55.7883 31.2568 56.0069C32.5088 56.4589 33.8262 56.7643 35.1515 57.0163C37.8035 57.5043 40.5822 57.6683 43.4022 57.6483C46.2208 57.6269 48.9902 57.3669 51.7235 56.8536C53.0808 56.5669 54.4342 56.2363 55.7608 55.7949C57.0688 55.3976 58.4662 54.7883 59.5822 54.2909L59.9302 54.1349C60.7795 53.7576 61.7742 54.1389 62.1528 54.9883C62.4048 55.5563 62.3168 56.1909 61.9768 56.6616C60.8102 58.2683 59.5462 59.3096 58.1102 60.3429C56.6755 61.3096 55.1462 62.1483 53.5368 62.7656C50.3342 64.0549 46.8995 64.6363 43.5222 64.7229C40.1528 64.7963 36.6808 64.4136 33.3755 63.1496C31.7235 62.5456 30.1262 61.7336 28.6675 60.6749C27.9542 60.1149 27.2568 59.5483 26.6315 58.8723C25.9862 58.1749 25.4742 57.5496 24.9115 56.5149C24.4648 55.6923 24.7688 54.6656 25.5888 54.2176C26.0568 53.9643 26.5915 53.9523 27.0488 54.1416L27.7515 54.4389Z" fill="#3B97F2"/>
<path d="M73.0667 91.7748C67.1027 91.1962 59.736 81.4708 58.2973 69.2388C58.0533 67.1588 57.792 65.1962 57.3427 63.4308C56.708 60.9375 55.4547 59.3282 53.716 58.7775C52.3053 58.3295 51.072 58.7255 50.792 58.9655C50.9093 58.8642 51.1507 58.4828 51.1507 57.9415H44.0587C44.0587 54.7028 46.9187 52.0828 51.0107 51.5708C56.1373 50.9375 62.2093 53.8042 64.2147 61.6842C64.7733 63.8775 65.0587 66.1548 65.3333 68.3588C66.328 76.3082 69.42 79.1228 75.128 81.9922C76.2987 82.5802 75.7613 84.7975 75.3707 87.6015C74.9267 90.7828 73.74 91.8402 73.0667 91.7748Z" fill="#3B97F2"/>
</svg>
