<?xml version="1.0" encoding="UTF-8"?>
<svg version="1.1" viewBox="0 0 306.2 398.64" xmlns="http://www.w3.org/2000/svg">
 <g transform="translate(-51.705 -20.181)">
  <path d="m243.22 20.188a3.8464 3.8464 0 0 0 -0.8125 0.15625c-10.082 2.8533-17.169 8.4551-23.062 14.562-4.7316-0.46289-9.5344-0.29762-14.406 0.375a3.8464 3.8464 0 0 0 -3.3438 -6.0625c-8.3713 0.4001-16.085 0.48937-23.156 3.1875a3.8464 3.8464 0 0 0 -4.1875 -3.1875c-6.3629 0.61203-13.884 3.2794-21.656 6.7188-1.5082-1.157-3.0527-2.2056-4.6875-3a3.8464 3.8464 0 0 0 -4.25 0.625c-7.0315-3.9769-15.784-8.3592-27.469-8.3438a3.8464 3.8464 0 0 0 -3.8438 3.9375c-8.0025 3.0869-15.558 8.1721-21.406 13.688-3.3154 3.1269-6.1026 6.3543-8.0625 9.5312s-3.3247 6.306-2.8438 9.8125a3.8464 3.8464 0 0 0 2.125 2.9062l0.09375 0.03125c-2.0092 16.276 7.1204 29.181 13.844 36.938a3.8464 3.8464 0 0 0 0.21875 0.1875c-0.92883 4.4267-1.8525 8.8578-2.6562 13.281-2.383 0.37727-4.7299 1.0342-6.7812 2.4062-2.9691 1.9858-5.2425 5.1925-6.25 9.1875a3.8464 3.8464 0 0 0 -0.09375 0.4375c-0.07 0.53525-0.09878 1.0576-0.09375 1.5625-2.57e-4 -0.0455-0.0027-0.0173 0 0.125a3.8464 3.8464 0 0 0 0 0.0312c0.02397 1.0203 0.18552 1.9314 0.40625 2.7188 0.2396 0.86961 0.5788 1.6569 0.9375 2.375 0.53813 1.0752 1.1043 1.9181 1.5312 2.5938 0.60252 0.95514 0.98428 1.621 1.125 2.0625 0.01927 0.0603 0.03967 0.14904 0.0625 0.28125a3.8464 3.8464 0 0 0 0 0.0312c-0.01136-0.0639-0.0024-0.0404 0 0.1875 9.64e-4 0.0875-0.01484 0.11512-0.03125 0.21875-0.02554 0.16745-0.03288 0.22267-0.0625 0.3125 0.01821-0.0552 0.0078 0.0115-0.03125 0.0937 0.02843-0.0599 0.04996-0.0968-0.03125 0.0312 0.02347-0.0365-0.0032 0.0361 0 0.0312 0.0048-7e-3 0.03621-0.0527-0.03125 0.0312-0.01761 0.0217-0.14815 0.17874-0.4375 0.40625-0.24476 0.19252-0.47291 0.36855-0.65625 0.5-0.48754 0.34938-1.2282 0.8404-2.0312 1.6562-0.40872 0.41523-0.76431 0.86349-1.0938 1.375-0.1324 0.20562-0.33732 0.50785-0.5 0.84375h0.03125c-0.15494 0.31468-0.32371 0.63299-0.4375 0.96875-0.13562 0.40019-0.20829 0.87318-0.25 1.25-0.0024 0.0214 0.0022 0.0412 0 0.0625-0.12658 1.2386 0.14102 2.4396 0.5625 3.3438 0.36347 0.78234 0.7277 1.1925 0.875 1.4062 0.61664 0.89615 1.1021 1.4523 1.4062 1.875-0.0745 0.0829 0.01474-0.0329-0.125 0.0937-0.51275 0.4646-1.3729 1.1203-2.3125 2.1875-0.0067 8e-3 -0.0245-8e-3 -0.03125 0a3.8464 3.8464 0 0 0 0 0.0312 3.8464 3.8464 0 0 0 -0.0625 0.0625c-1.3e-5 2e-5 -0.03049 0.0296-0.03125 0.0312 0.02565-0.0466-0.05161 0.0879-0.34375 0.46875l-0.03125-0.0312c-2.6e-5 3e-5 -0.02324 0.0796-0.03125 0.0937a3.8464 3.8464 0 0 0 -0.03125 0.0312c-0.0067 0.0123-0.0648 0.10304-0.09375 0.15625-0.15406 0.27163-0.34362 0.65592-0.34375 0.65625-0.0041 8e-3 -0.03126 0.0625-0.03125 0.0625-0.13566 0.24437-0.29255 0.43479-0.40625 0.71875-0.0059 0.0146-0.02548 0.0165-0.03125 0.0312-0.0049 0.0122 0.0049 0.0188 0 0.0312a3.8464 3.8464 0 0 0 -0.03125 0.0312c-0.15336 0.40577-0.21783 0.70588-0.28125 1-0.25963 1.2038-0.11721 2.0353 0 2.75h-0.03125c0.36786 2.305 1.3125 4.1562 1.3125 4.1562a3.8464 3.8464 0 0 0 1.4062 1.6562c0.41874 0.27309 0.86944 0.54915 1.375 0.84375 0.10904 0.0634 0.18766 0.12058 0.25 0.15625 0.51121 0.29389 1.184 0.61998 1.7812 0.9375-7.5404 14.017-14.391 28.582-16.156 44.938a3.8464 3.8464 0 0 0 1.125 3.1562c-5.2942 11.859-8.8267 24.748-10.312 38.781a3.8464 3.8464 0 0 0 2.5 4c-1.7412 8.6569-9.4756 47.896-9.0938 72.219 0.12286 7.8263 1.7812 22.094 1.7812 22.094a3.8464 3.8464 0 0 0 5.625 2.9375c2.0065 3.4238 4.9799 8.3447 9.4375 14.812 6.9314 10.057 15.685 21.421 24.906 27.031 28.322 17.232 53.571 18.844 89.875 18.75 6.1463-0.016 13.918-1.9012 20.906-3.9688 3.494-1.0338 6.7601-2.1158 9.4062-3.0938s4.5195-1.721 5.9375-2.5312a3.8464 3.8464 0 0 0 1.9062 -2.8125l0.34375-2.4375 6.4062-7.625 14.656-1.75 21.406 1.9688c21.294 1.9808 47.359-3.667 65.969-14.656a3.8464 3.8464 0 0 0 1.375 -5.1875c2.3172-1.2456 4.8726-2.7476 7.6562-4.9375 8.8816-6.9872 18.121-20.071 18.594-44.656 0.15075-7.8338-4.4158-14.114-9.5938-18.531-3.5183-3.0013-7.2158-5.0072-10.688-6.5312a3.8464 3.8464 0 0 0 -1.75 -4.0312c-5.1686-3.1674-9.276-6.9096-15.281-8.7812-1.1704-7.8776-2.4418-13.818-4.4062-21.438 9.7143-3.6839 16.02-8.73 22.812-18.312a3.8464 3.8464 0 0 0 -0.71875 -5.2188l-0.375-0.2806c3.1474-8.0681 4.1475-17.431 2.4375-26.344-1.7748-9.2504-6.5242-18.031-14.75-23.5v-1.4375a3.8464 3.8464 0 0 0 -1.7188 -3.2188c-5.2414-3.4458-12.449-5.4003-21.969-6 0.351-0.63357 0.66322-1.2743 0.875-1.875 0.99014-2.8086 0.5-5.4062 0.5-5.4062a3.8464 3.8464 0 0 0 -0.65625 -1.4375c-1.3563-1.8495-2.9625-3.9449-4.1562-5.9062-1.1723-1.9262-1.7647-3.7192-1.7812-4.2812 0.15546-0.2181 0.73607-0.87891 1.5-2 0.52415-0.76692 1.1194-1.7444 1.75-3a3.8464 3.8464 0 0 0 0.0625 -0.15625c0.304-0.68083 0.51795-1.2819 0.6875-1.8438 0.0346-0.11221 0.0544-0.23903 0.0937-0.375a3.8464 3.8464 0 0 0 0.0312 -0.0312c0.0714-0.25777 0.15171-0.65645 0.25-1.0938h0.0312c-0.077 0.31954-0.0344 0.18681 0.0937-0.375a3.8464 3.8464 0 0 0 0 -0.0625 3.8464 3.8464 0 0 0 0.0937 -0.6875 3.8464 3.8464 0 0 0 0 -0.0937c0.85149-5.0582 0.53542-11.058-3.5312-15.312-5.3056-5.551-12.264-7.3364-18.344-7.7188-4.5078-13.295-9.7376-26.611-16.719-39.75 3.7543-2.3758 7.0796-5.7342 9.6875-10.219a3.8464 3.8464 0 0 0 3 -1.9375c2.661-4.8014 6.1074-14.108 2.25-24.281a3.8464 3.8464 0 0 0 0.78125 -3.875c-2.3295-6.571-7.521-16.705-18.219-22.375a3.8464 3.8464 0 0 0 -2.125 -3.25c-1.246-0.62148-3.67-2.2835-6.875-3.1875-1.2451-0.35138-2.6924-0.45928-4.1872-0.40635a3.8464 3.8464 0 0 0 -3.7812 -2.375zm-164.06 136.34c-0.03619 0.0778-0.11445 0.18653-0.1875 0.34375l-0.03125-0.0312c0.0968-0.1502 0.1299-0.1746 0.21875-0.3125zm-0.25 0.40625 0.03125 0.0312c-0.0056 0.0121 0.0057 0.019 0 0.0312-0.0084 0.0181-0.0227 0.0128-0.03125 0.0312-0.22696 0.48852-0.46863 0.99935-0.46875 1-1.05e-4 5.4e-4 0.28145-0.81295 0.28125-0.8125-2.3e-5 5e-5 0.04669-0.10049 0.0625-0.125 0.0049-8e-3 0.02511-0.0217 0.03125-0.0312 0.02221-0.0344 0.05898-0.0711 0.09375-0.125z"/>
  <path d="m216.94 43.22c6.8996-8.0944 14.313-15.739 26.517-19.193l-1.5152 4.0406c5.9489-4.0977 11.113-0.12164 14.395 1.5152-1.7678 0-2.5254 1.2627-2.5254 1.2627 12.68 4.2611 18.495 15.268 20.961 22.223l-2.5254 0.25254c6.0487 10.332 2.45 19.872-0.25254 24.749l-1.0102-1.7678c-4.0868 10.009-11.393 14.338-19.445 16.415z" fill="#fff" stroke="#000"/>
  <path d="m230.06 56.352c4.3737-5.7324 11.464-11.649 17.425-12.122l-1.5152 3.5355c5.8404-2.6695 10.216-0.28255 15.91 4.5457l-1.2627 2.5254c6.8562 4.4015 2.5171 10.711 1.0101 15.405-4.2008 13.084-11.196 9.4281-16.92 15.657z" fill="#e3dedb"/>
  <path d="m122.64 57.477c14.351-10.482 38.151-23.07 51.984-24.401l-2.7705 7.6838c8.2372-7.3031 17.646-7.0975 29.913-7.6838l-5.7143 7.8571c11.821-3.1536 23.096-3.5752 33.571 0l-7.1429 5.7143c11.556 5.0379 21.852 13.228 30.714 25l-6.7111 1.3714c26.246 36.738 33.363 76.095 46.467 114.15 13.823-0.26148 23.044 1.7785 28.789 5.5558v3.5355c16.611 9.312 19.066 33.401 11.617 48.992l2.5254 2.0203c-7.3489 10.368-12.855 14.548-24.244 18.183 2.855 10.775 4.0477 15.994 5.5558 26.769 6.4163 1.1677 10.317 5.1996 16.668 9.0914l-2.0203 2.5254c7.3678 2.0562 22.465 10.681 22.223 23.234-0.91159 47.372-34.142 46.496-31.82 52.023l6.0609-0.50508c-17.724 10.466-43.335 16.031-63.64 14.142l-21.718-2.0203-16.668 2.0203-8.0812 9.5964-0.50507 3.5355c-3.5355 2.0203-23.744 9.0638-34.345 9.0914-36.193 0.0942-60.324-1.4158-87.883-18.183-16.173-9.8398-35.355-44.447-35.355-44.447l-2.7959 2.5254s-1.6347-14.384-1.7498-21.718c-0.40775-25.975 10.102-77.277 10.102-77.277l-3.5355 1.5152c1.6492-15.577 5.7108-29.707 12.122-42.426l-2.9333 0.50508c1.8554-17.186 9.67-32.67 18.086-47.982 4.7805-32.157 8.741-64.313 18.688-96.47z" fill="#fff" stroke="#000"/>
  <path transform="matrix(-1 0 0 1 409.63 0)" d="m273.88 52.625-21.344 11.375c3.1137 4.1971 16.573 22.481 22.031 35.625 12.387 29.828 21.438 92.156 21.438 92.156a3.0909 3.0909 0 0 1 -1.8438 3.2812c-12.237 5.2307-20.877 8.7287-27.656 12.5s-11.742 7.7409-17.125 14.375c-12.914 15.914-11.581 37.972-3.25 47.312 14.313 12.007 28.041 14.358 42.344 12.344a3.0909 3.0909 0 0 1 3.5 3.4688c-2.5896 19.87-12.614 34.398-27.5 41.281a3.0909 3.0909 0 0 1 -0.6875 0.21875s-9.2418 1.8536-20.156 5.0312-23.577 7.8762-29.562 12.562c-6.996 5.477-16.441 13.382-18.562 34.75-1.21 12.185 7.7464 24.237 21.469 31.719 3.5327 0.73685 6.8945 1.2437 9.3125 1.25 36.103 0.094 59.336-1.3251 86.281-17.719 7.1744-4.365 16.061-15.312 22.781-25.062s11.438-18.281 11.438-18.281a3.0909 3.0909 0 0 1 3 -1.5625c0.48786-4.7777 1.1138-11.491 1.1875-16.188 0.39368-25.078-10.031-76.594-10.031-76.594a3.0909 3.0909 0 0 1 2.7812 -3.7188c-1.8969-13.267-5.5501-25.407-11.094-36.406a3.0909 3.0909 0 0 1 2.0312 -4.4062c-2.4472-14.982-9.4322-28.915-17.156-42.969a3.0909 3.0909 0 0 1 -0.34375 -1.0312c-4.7507-31.956-8.6994-63.705-18.375-95.281l-13.594-12.688c-0.0104-0.0076-0.0208-0.02362-0.0312-0.03125-3.2495-2.3716-7.2066-4.8504-11.281-7.3125zm-161.44 142.88c-9.5358 1.4983-12.841 3.8368-19.938 7.9688-0.0089 5e-3 -0.02234-5e-3 -0.03125 0-6.159 3.6908-12.703 15.258-16.812 27.969 0.48868 4.4736 1.6415 8.775 3.4062 12.469a3.0909 3.0909 0 0 1 -0.84375 3.75l-0.15625 0.125c5.332 7.0719 9.8266 10.602 17.375 13.438 2.1064-19.598 8.2419-45.131 17-65.719zm-23.125 115.03c-5.2207 1.2232-8.6645 3.2275-11.594 5.7812-3.3176 2.8923-6.0813 6.6037-9.8125 10.375-4.3493 4.3961-6.5844 8.6217-8.0312 12.969 2.9061 16.137 10.268 23.726 16.875 28.25 3.3594 2.3002 6.4971 3.7565 8.9688 5.0625 1.2358 0.65298 2.3156 1.2042 3.3438 2.2188 0.51407 0.50728 1.0603 1.2015 1.3438 2.1562 0.23404 0.78833 0.15705 1.6583-0.0625 2.4375 16.406 7.5405 37.512 11.441 54.344 9.875l9.375-0.875c-2.7622-1.1905-5.2287-2.1738-8.5-3.7188-10.854-5.1262-23.351-11.793-30.594-19.094-9.9536-10.034-15.112-22.925-18.625-34.031-1.7564-5.553-3.1168-10.7-4.375-14.781-0.93191-3.0225-1.8547-5.1359-2.6562-6.625z" fill="#e3dedb"/>
  <path d="m297.5 246.26s1.0102 13.132-1.5152 16.668c-2.5254 3.5355-28.284 15.657-32.325 15.152-4.0406-0.50508-37.376-55.558-44.447-56.569-7.0711-1.0102-37.881-9.3439-37.881-9.3439-5.69-8.7422-13.909-11.922-25.132-13.327 0 0-43.938-15.95-63.44-24.633-5.6137-2.4996-1.7498-9.0555-1.7498-9.0555l167.6 42.722z" fill="#c8beb7"/>
  <path d="m273.76 190.7s26.012 31.194 32.325 52.023c2.5571 8.4367-38.078 31.868-40.911 27.779-15.333-22.133-20.632-46.393-57.074-62.124z" fill="#a00"/>
  <path d="m250.53 128.58c6.7463 6.3516 14.307 16.387 11.617 25.254-2.5239 8.3168-13.623 12.382-22.223 13.637-10.345 1.5095-24.215 0.41646-30.305-8.0812-2.9486-4.1145-1.1784-10.588 1.0102-15.152 3.6576-7.6284 11.085-13.461 18.688-17.173 3.6811-1.7971 8.0471-2.441 12.122-2.0203 3.2344 0.3339 6.724 1.3066 9.0914 3.5355z" fill="#c8beb7"/>
  <path d="m155.57 198.28c9.6118 3.0914 19.456 4.5593 27.779 16.668l-5.5558 1.0102c13.647 10.102 14.698 20.708 13.637 30.305l-4.0406 0.50508c2.0243 16.818-10.892 25.109-18.688 28.789l-3.5355-3.0304c-22.406 12.937-45.139 4.9039-54.548-5.5558l-2.5254 5.5558" fill="none" stroke="#000"/>
  <path d="m273.75 190.69s2.554 3.0792 6.0625 7.6562c0 0-46.159 15.498-43.04 19.728 14.868 20.16 32.915 52.272 32.915 52.272-2.3605 0.73365-4.0064 0.86874-4.5 0.15625-15.333-22.133-20.652-46.393-57.094-62.125z" fill="#500"/>
  <path d="m276.66 135.52c5.9982-0.0168 13.226 1.3752 18.308 6.6922 3.4092 3.5669 3.3797 11.482 1.5152 15.657-2.203 4.3867-3.6261 4.3731-3.6465 6.6315-0.0346 3.8261 4.0513 8.9809 6.677 12.561 0 0 1.5152 6.566-9.0914 11.112s-70.741 36.795-102.53 22.223c-35.607-16.322-93.944-37.881-105.56-45.457 0 0-1.3374-3.0284-1.0102-4.5457 0.53241-2.4686 4.2451-3.5535 4.5457-6.0609 0.30522-2.5461-3.8536-4.6424-3.0305-7.0711 0.99202-2.9271 4.2563-3.039 5.2241-5.9742 1.6754-5.0814-4.4601-7.4745-3.7088-13.219 1.6062-6.3692 6.677-9.0846 12.506-9.1128l-0.76404 4.417c0.0875-0.16629 63.3 12.049 90.284 26.414 17.879 9.5176 38.874 15.315 59.094 14.142 12.768-0.74064 36.032-13.185 36.032-13.185z" fill="#a00"/>
  <path d="m238.2 121.83c-3.4181-2.43-5.032-13.009-1.25-14.821 2.4126-1.156 6.0458 0.25448 7.5 2.5 1.8303 2.8263 6.1377 12.098 2.8571 12.857-3.6086 0.83479-5.913 1.7351-9.1071-0.53571z"/>
  <path d="m224.2 122.83c2.5619-3.3203 1.0239-13.911-3.122-14.543-2.6447-0.40306-5.7094 2.0047-6.4464 4.5765-0.92756 3.2369-2.1362 11.086 1.1386 11.869 3.6953 0.88373 6.0357 1.2 8.4298-1.9029z"/>
  <path d="m161.89 56.099c-2.2411-8.2667-8.8171-16.374-15.657-19.698v3.0305c-7.837-4.4284-16.982-10.371-30.052-10.354l0.50508 2.5254c-16.802 5.171-33.905 22.217-32.83 30.052l2.5254 1.2627c-3.2988 15.96 5.7295 28.66 12.627 36.618l2.0203-3.5355c3.0184 6.2894 9.3545 9.5657 15.405 9.3439 7.0039-0.25676 16.677 0.0863 18.435-6.8185 0.81379-3.1965 2.5045-6.2718-1.2627-10.102-6.8152-3.3713-13.497-4.5108-18.183-11.869 0.99955-5.7232 8.0822-18.148 17.678-13.637l-0.75761-3.283c6.2948 2.5617 8.494 11.016 16.415 10.859 7.7828-0.15436 15.814-4.5019 13.132-14.395z" fill="#fff"/>
  <path d="m91.094 136.38c4.509 5.0581 11.927 9.2775 16.937 11.531 9.4331 4.2431 20.857 2.284 30.344 6.4062 10.465 4.5476 16.893 9.3062 28.031 19.656 2.9856 2.7742-8.3636 3.0064-12.125 1.4375-10.132-4.2262-17.003-13.09-27.344-16.438-9.0757-2.9381-17.352-4.3403-25-7.1562-3.568-1.3137-6.9482-4.0062-11.365-4.7736-1.2762-0.22174-1.9457 1.6089-1.8539 2.6486 0.42447 4.806 9.4182 4.2744 8.75 8.2188-0.29374 1.734-2.3781 2.5635-3.9062 3.375-2.0149 1.07-3.0598 1.3004-3.9375 3.4062-0.58417 1.4016-0.16604 2.9821 0.46875 4.3438-3.3775-1.6027-6.0859-3.0084-7.75-4.0938 0 0-1.3585-3.0139-1.0312-4.5312 0.53241-2.4686 4.2619-3.5551 4.5625-6.0625 0.30522-2.5461-3.8543-4.6651-3.0312-7.0938 0.99202-2.9271 4.251-3.0335 5.2188-5.9688 1.6754-5.0814-4.47-7.4746-3.7188-13.219 5.8399-3.9547 4.6708 5.9801 6.75 8.3125zm187.09 3.9375c4.4448 0.10601 8.4097 1.989 9.4688 3.6562 1.1151 1.7555-1.5206 5.5019-6.1562 6.7812zm19.25 14.562c-0.25635 1.1236-0.56421 2.164-0.9375 3-2.203 4.3867-3.6358 4.3667-3.6562 6.625-6.9954 1.9215-8.9143 4.4851-13.86 11.562-3.5522 5.216-15.453 10.58-14.015 4.876 2.0443-8.1089 6.8102-9.867 13.938-15.375 5.3625-4.1442 16.569-9.7213 18.531-10.688z" fill="#500"/>
  <path d="m172.74 318.49c7.0675-1.823 13.809-1.0389 20.203 2.5254l-3.5355 3.0305c15.567 4.8185 34.859 16.364 35.86 22.728l-4.5457 2.0203c10.672 10.102 13.283 20.203 14.647 30.305l-2.0203 0.50508c-1.2319 4.7524-1.9516 9.6754-7.0711 13.132" fill="none" stroke="#000" stroke-linecap="round" stroke-linejoin="round"/>
  <path transform="matrix(-1 0 0 1 409.63 0)" d="m166.43 132.81c0 3.3038-2.5984 5.9821-5.8036 5.9821s-5.8036-2.6783-5.8036-5.9821 2.5984-5.9821 5.8036-5.9821 5.8036 2.6783 5.8036 5.9821z"/>
 </g>
</svg>
