<?xml version='1.0' encoding='utf-8'?>
<svg xmlns="http://www.w3.org/2000/svg" version="1.1" id="Warstwa_1" x="0px" y="0px" width="841.89px" height="595.28px" viewBox="0 0 841.89 595.28" enable-background="new 0 0 841.89 595.28"> <path fill="#542010" d="M333.059,168.345c-0.473,18.164,2.158,40.74,7.045,65.947c6,22,10,40,14.667,60s18,62.666,14.667,114.666 c0,16,0.667,60.667-4.667,74.667c-1.667,5.667-8,21.334,16.333,22.334c53.092,10.041,120.333-1.667,120.333-1.667 s25.563,1.208,14-28.667C501.5,315.5,535.667,284.5,539.74,215.667c2.332-20.667,2.01-41.333,2.01-41.333 C449.096,177.763,448.104,186.5,333.059,168.345z"/> <path fill="none" stroke="#542010" stroke-width="4" stroke-miterlimit="10" d="M340.612,121c0,0-4.778,17.859-5.53,46.773 c67.995,11.231,92.709,13.32,204.659,5.12c0,0-0.303-50.08-1.409-51.893C447.75,128.5,433,129.25,340.612,121z"/> <path fill="#FFFFFF" d="M484.056,391.533c-2.587,3.096-7.193,3.506-10.287,0.919l-26.149-21.86 c-3.095-2.587-3.508-7.192-0.92-10.288l20.554-24.587c2.588-3.096,7.194-3.506,10.289-0.919l26.149,21.861 c3.094,2.585,3.506,7.192,0.919,10.287L484.056,391.533z"/> <path fill="#FFFFFF" d="M441.675,405.777c-0.791,3.956-4.64,6.52-8.594,5.729l-33.422-6.685c-3.955-0.791-6.521-4.638-5.729-8.595 l6.285-31.424c0.791-3.956,4.64-6.521,8.595-5.729l33.422,6.686c3.954,0.79,6.52,4.639,5.729,8.594L441.675,405.777z"/> <path fill="#FFFFFF" d="M489.675,469.111c-0.791,3.956-4.64,6.52-8.594,5.729l-33.422-6.685c-3.955-0.791-6.521-4.638-5.729-8.595 l6.285-31.424c0.791-3.956,4.64-6.521,8.595-5.729l33.422,6.686c3.954,0.79,6.52,4.639,5.729,8.594L489.675,469.111z"/> <path fill="#FFFFFF" d="M450.069,439.129c2.087,3.453,0.979,7.942-2.473,10.028l-29.169,17.632 c-3.452,2.086-7.942,0.981-10.029-2.473l-16.578-27.426c-2.087-3.452-0.979-7.942,2.473-10.029l29.169-17.631 c3.45-2.086,7.941-0.979,10.027,2.473L450.069,439.129z"/> <path fill="#FFFFFF" d="M496.68,402.462c2.087,3.453,0.979,7.942-2.473,10.028l-29.169,17.632 c-3.452,2.086-7.942,0.981-10.029-2.473l-16.577-27.426c-2.088-3.452-0.979-7.942,2.473-10.029l29.169-17.631 c3.45-2.086,7.941-0.979,10.027,2.473L496.68,402.462z"/> <circle fill="#FFFFFF" cx="380.05" cy="208.383" r="10.716"/> <circle fill="#FFFFFF" cx="449.096" cy="286.851" r="8.689"/> <circle fill="#FFFFFF" cx="402.476" cy="304.229" r="8.689"/> <circle fill="#FFFFFF" cx="493.898" cy="341.787" r="8.689"/> <circle fill="#FFFFFF" cx="415.918" cy="255.985" r="5.689"/> <circle fill="#FFFFFF" cx="390.766" cy="411.648" r="5.689"/> <circle fill="#FFFFFF" cx="418.882" cy="469.184" r="3.626"/> <circle fill="#FFFFFF" cx="427.791" cy="269.184" r="3.627"/> <circle fill="#FFFFFF" cx="502.588" cy="241.189" r="3.627"/> <circle fill="#FFFFFF" cx="451.123" cy="235.5" r="5.689"/> <circle fill="#FFFFFF" cx="523.623" cy="202.5" r="5.689"/> <circle fill="none" stroke="#FFFFFF" stroke-width="3" stroke-miterlimit="10" cx="441.787" cy="204.633" r="6.966"/> <circle fill="none" stroke="#FFFFFF" stroke-miterlimit="10" cx="382.426" cy="255.888" r="5.593"/> <circle fill="none" stroke="#FFFFFF" stroke-width="3" stroke-miterlimit="10" cx="482.621" cy="281.912" r="6.967"/> <circle fill="none" stroke="#FFFFFF" stroke-miterlimit="10" cx="434.819" cy="322.316" r="3.402"/> <circle fill="none" stroke="#FFFFFF" stroke-miterlimit="10" cx="496.104" cy="417.338" r="3.402"/> <circle fill="none" stroke="#FFFFFF" stroke-miterlimit="10" cx="499.506" cy="457.081" r="3.402"/> <circle fill="none" stroke="#FFFFFF" stroke-miterlimit="10" cx="434.82" cy="471.246" r="3.402"/> <g> <g> <path fill="#FFFFFF" d="M438.25,205c3.225,0,3.225-5,0-5S435.025,205,438.25,205L438.25,205z"/> </g> </g> <g> <g> <path fill="#FFFFFF" d="M479,281.75c3.225,0,3.225-5,0-5S475.775,281.75,479,281.75L479,281.75z"/> </g> </g> <g> <g> <path fill="#FFFFFF" d="M380.75,257.75c3.224,0,3.224-5,0-5S377.526,257.75,380.75,257.75L380.75,257.75z"/> </g> </g> <circle fill="none" stroke="#FFFFFF" stroke-miterlimit="10" cx="485.649" cy="212.036" r="4.32"/> <g> <g> <path fill="#FFFFFF" d="M515.407,227.171c3.225,0,3.225-5,0-5S512.183,227.171,515.407,227.171L515.407,227.171z"/> </g> </g> <path opacity="0.2" fill="#FFFFFF" d="M357.898,129.615l53.267-2.296c0,0-14.71,68.568-9.553,154.171 c0.863,72.864-0.337,150.786,0.863,214.328c-17.122,0-26.81,1.803-25.643-8.58c9.411-75.287,0-145.742-11.5-208.479 C343.333,195.887,359.339,162.415,357.898,129.615"/> <path opacity="0.2" fill="#E8E4E3" d="M508.681,124.25l-32.635,3.069c0,0,7.954,69.194,4.613,153.661 c-0.56,71.896,0.219,148.783-0.56,211.483c11.092,0,17.368,1.777,16.611-8.468c-6.096-74.288,0-143.808,7.45-205.71 c14.251-81.772,3.883-114.799,4.816-147.164"/> <path opacity="0.2" fill="#FFFFFF" d="M472.008,130.786l-9.683-2.268c0,0,2.674,67.72,1.736,152.265 c-0.157,71.964,0.062,148.922-0.157,211.679c3.112,0,4.874,1.779,4.661-8.475c-1.71-74.356,0-143.94,2.091-205.902 C474.655,196.238,471.746,163.18,472.008,130.786"/> <path fill="none" stroke="#542010" stroke-width="4" stroke-miterlimit="10" d="M340.612,121c6.055-17.333,170.388-20.667,197.719,0 "/> <path fill="#DDDDDD" d="M472.875,337.265c12.384,5.443,27.188,24.923,28,24.86c6.063,5.063,1.713-5,1.713-5l-24.866-20.688 C477.722,336.438,469.721,333.811,472.875,337.265z"/> <g> <path fill="#DDDDDD" d="M398.375,435.493c5.813-3.409,23.596-17.272,30.363-12.835c3.887,6.467,8.646,11.467,2.523-4.316 c-3.512-13.342-27.841,8.395-35.41,12.835c-2.779,1.629,6.623,0.117,9.41-1.519L398.375,435.493z"/> </g> <g> <path fill="#DDDDDD" d="M455.834,408.177c-1.651-1.599-3.842-8.861-3.321-11.463c0.422-2.106,3.103-3.557,4.752-4.562 c4.08-2.484,14.568-7.407,18.39-10.319c2.528-1.927-5.851-2.947-8.416-0.991c-5.239,3.992-10.285,6.491-16.809,10.158 c-15.609,10.343-2.152,11.457,2.303,15.768c-1.609,7.168,2.102,7.168,4.602,13.973L455.834,408.177z"/> </g> <g> <path fill="#DDDDDD" d="M455.5,447.5c-0.363-5.481-2.375-20.394,25.993-13.75c3.153,0.511,2.808-2.609-0.368-3.125 c-4.747-0.769-26.237-6.173-28.875-1.875c-2.364,3.852-2.037,14.413-1.75,18.75C450.712,450.7,455.713,450.721,455.5,447.5 L455.5,447.5z"/> </g> <g> <path fill="#DDDDDD" d="M416.643,398.9c-5.493-0.098-20.521,0.655-11.52-27.056c0.773-3.099-2.365-3.017-3.145,0.104 c-1.165,4.666-8.354,25.627-4.292,28.616c3.64,2.679,14.191,3.239,18.537,3.317C419.43,403.94,419.87,398.959,416.643,398.9 L416.643,398.9z"/> </g> <g> <path fill="#DDDDDD" d="M407.835,367.411c8.476,2.725,17.301,2.13,26,3.5c3.153,0.496,4.508-4.321,1.33-4.822 c-8.67-1.364-17.57-0.789-26-3.5C406.086,361.6,404.779,366.428,407.835,367.411L407.835,367.411z"/> </g> <g opacity="0.4"> <g> <path fill="#DDDDDD" d="M343.589,170.36c-1.461,23.118-0.228,46.047,3.602,68.885c3.936,23.47,10.016,46.545,14.856,69.835 c0.656,3.155,5.475,1.816,4.821-1.33c-4.634-22.297-10.291-44.391-14.329-66.81c-4.206-23.349-5.446-46.908-3.95-70.58 C348.793,167.139,343.792,167.159,343.589,170.36L343.589,170.36z"/> </g> </g> <g opacity="0.4"> <g> <path fill="#DDDDDD" d="M524.273,175.788c1.221,18.859,1.902,37.839-0.961,56.586c-2.87,18.788-8.011,37.244-11.874,55.84 c-0.653,3.146,4.166,4.485,4.822,1.329c3.865-18.609,8.894-37.058,11.873-55.84c3.042-19.181,2.39-38.606,1.14-57.915 C529.066,172.587,524.064,172.566,524.273,175.788L524.273,175.788z"/> </g> </g> <g opacity="0.4"> <g> <path fill="#DDDDDD" d="M376.168,493.254c21.812,3.654,43.773,6.938,65.94,6.898c22.676-0.041,45.267-3.563,67.659-6.771 c3.181-0.456,1.822-5.273-1.33-4.822c-21.57,3.091-43.242,6.308-65.072,6.583c-22.125,0.28-44.107-3.064-65.868-6.711 C374.345,487.904,372.994,492.722,376.168,493.254L376.168,493.254z"/> </g> </g> <g opacity="0.4"> <g> <path fill="#DDDDDD" d="M376.667,484.634c21.649,3.627,43.439,6.872,65.441,6.832c22.51-0.041,44.932-3.52,67.16-6.704 c0.796-0.114,0.456-1.318-0.332-1.205c-21.735,3.113-43.574,6.372-65.571,6.649c-22.29,0.282-44.444-3.104-66.366-6.777 C376.211,483.297,375.873,484.501,376.667,484.634L376.667,484.634z"/> </g> </g> <ellipse fill="#542010" cx="438.876" cy="168.287" rx="102.89" ry="9.58"/> </svg>