<?xml version="1.0" encoding="UTF-8"?>
<svg enable-background="new 0 0 500 500" viewBox="0 0 500 500" xmlns="http://www.w3.org/2000/svg">
 <defs>
  <linearGradient id="g" x1="79.034" x2="424.63" gradientUnits="userSpaceOnUse">
   <stop stop-color="#d0411d" offset="0"/>
   <stop stop-color="#f15a22" offset=".3804"/>
   <stop stop-color="#ee2724" offset=".908"/>
  </linearGradient>
  <linearGradient id="f" x1="191.06" x2="252.12" gradientUnits="userSpaceOnUse">
   <stop stop-color="#fff" offset="0"/>
   <stop stop-color="#fff" offset="1"/>
  </linearGradient>
  <linearGradient id="e" x1="197" x2="254" gradientUnits="userSpaceOnUse">
   <stop stop-color="#fff" offset="0"/>
   <stop stop-color="#fff" offset="1"/>
  </linearGradient>
  <linearGradient id="d" x1="238" x2="248" gradientUnits="userSpaceOnUse">
   <stop stop-color="#fff" offset="0"/>
   <stop stop-color="#fff" offset="1"/>
  </linearGradient>
  <linearGradient id="c" x1="269" x2="384.67" gradientUnits="userSpaceOnUse">
   <stop stop-opacity=".8" offset="0"/>
   <stop offset="1"/>
  </linearGradient>
  <linearGradient id="b" x2="0" y1="133" y2="171" gradientUnits="userSpaceOnUse">
   <stop stop-opacity=".87" offset=".1656"/>
   <stop stop-opacity=".25" offset="1"/>
  </linearGradient>
  <linearGradient id="a" x2="0" gradientUnits="userSpaceOnUse">
   <stop stop-opacity=".35" offset="0"/>
   <stop stop-opacity=".35" offset="1"/>
  </linearGradient>
 </defs>
 <path d="m432,80.997c0-17.119-80.589-30.997-180-30.997s-180,13.878-180,30.997c0,.375.053.747.129,1.119-.078.566-.129,1.146-.129,1.756v31.024c0,6.062 10.114,11.716 27.581,16.493 3.351,18.723 20.419,112.743 20.419,265.726 0,17.058 59.099,30.885 132,30.885s132-13.827 132-30.885c0,0 2.073-204.186 16.999-264.824 19.564-4.96 31.001-10.948 31.001-17.396v-30.146c0-.786-.087-1.523-.217-2.237 .141-.502.217-1.007.217-1.515z"/>
 <path d="m424.626,82.104c0-16.251-77.364-29.427-172.795-29.427s-172.797,13.175-172.797,29.427c0,.355.051.709.124,1.062-.075.538-.124,1.088-.124,1.667v29.452c0,5.755 9.71,11.123 26.478,15.657 3.076,17 19.602,116.632 19.602,262.674 0,16.194 56.733,29.32 126.718,29.32 69.982,0 126.716-13.126 126.716-29.32 0,0 1.99-204.251 16.319-261.818 18.78-4.708 29.76-10.393 29.76-16.514v-28.618c0-.747-.084-1.446-.207-2.125 .133-.475.206-.954.206-1.437z" fill="url(#g)"/>
 <path d="m195 102s28 2 46 0 11 12 1 12-16 1-15 7 1 9-2 12 0 2 6 4 4 8-10 7-21-7-11-8 12-3 8-7-1-5 1-11-3-6-13-7-21-7-11-9z" fill="url(#f)"/>
 <path d="m197 169s32.5 3.5 57 2c0 35-6 182-6 211 0 22 2 32-10 33-16.971 1.414-18-2-24-8s4 0 8-29-22-109-16-149 4-52-9-60z" fill="url(#e)"/>
 <path d="m248 382c0 23 0 33-10 33" fill="url(#d)"/>
 <path d="m384.67 230.33s-3.5 81.333-3.667 92.667c-10.666 12.667-26.666 30.001-50.333 43.334-16.667-4.667-22.334-10-61.667-13.667 18.334-14.333 24-18.667 24-18.667s20.334 3.667 36.667 15.667c14.667-10.333 44.667-50.667 55-119.33z" fill="url(#c)"/>
 <path d="m80.5 120s154.5 61 336.5 3.333c1 2.5 1.5 3.5 1.5 3.5s-158.83 66.834-338-2.833c0.5-3 0-4 0-4z"/>
 <path d="m93.458 127.36s-37.64 171.16 5.275 218.2c59.556 0 178.67 16 178.67 16s130.21-34.375 138.09-236.75c-2.627-12.427-24.598-21.182-33.355-2.542 0 23.965-9.865 150-106.48 198.31-35.908 0-152.91-15.633-152.91-15.633s-21.668-5.554-8.956-113.18h-17.796c-7.008-15.089 19.499-67.269-2.543-64.407z"/>
 <path d="m96 81c0 13.062 66 17 156 17s156-3.749 156-18-61-15-61-15 24 17.333 14 24c-25 7-201.33 4.667-230-1-3-7-9-16 3-21-14 3.75-38 3.062-38 14z"/>
 <path d="m106 133s64.333 23.334 145 22.667 130-16.667 130-16.667-0.666 6.667-1.666 14c-15.667 5.333-78.334 18-128 18s-75.333-1.333-143-21c-0.667-4.667-2.333-17-2.333-17z" fill="url(#b)"/>
 <path d="m457.5 150.5" fill="url(#a)"/>
 <path d="m101 133.5c-3-2 0-0.5-3.333-2.5 0 0-38.108 165.65 3.417 210.57 57.627 0 172.88 16 172.88 16s128.81-36.982 136.44-230.2c-1.694-5.933-16.102-18.644-24.576-0.848 0 22.881-3.389 144.07-111.02 200-34.746 0-153.39-16-153.39-16s-25.756-10.183-13.756-120.18c-0.965-7.727-4.51-45.944-6.666-56.833z" fill="#fff"/>
</svg>
