<?xml version="1.0" encoding="UTF-8"?>
<svg width="533.37" height="355.38" viewBox="0 0 533.372 355.375" xmlns="http://www.w3.org/2000/svg" xmlns:xlink="http://www.w3.org/1999/xlink">
 <defs>
  <linearGradient id="a">
   <stop stop-color="#121003" offset="0"/>
   <stop stop-color="#121003" stop-opacity="0" offset="1"/>
  </linearGradient>
  <linearGradient id="b">
   <stop stop-color="#fefdf8" offset="0"/>
   <stop stop-color="#f5efcd" offset="1"/>
  </linearGradient>
  <linearGradient id="g" x1="317.18" x2="351.15" y1="249.65" y2="205.45" gradientUnits="userSpaceOnUse">
   <stop stop-color="#ac9876" offset="0"/>
   <stop stop-color="#ac9876" stop-opacity="0" offset="1"/>
  </linearGradient>
  <linearGradient id="f" x1="88.028" x2="95.433" y1="206.05" y2="165.61" gradientUnits="userSpaceOnUse" xlink:href="#b"/>
  <linearGradient id="e" x1="197.07" x2="244.73" y1="342.03" y2="344.28" gradientUnits="userSpaceOnUse" xlink:href="#a"/>
  <linearGradient id="d" x1="419.26" x2="469.65" y1="326.7" y2="337.11" gradientUnits="userSpaceOnUse" xlink:href="#a"/>
  <radialGradient id="c" cx="137.56" cy="201.6" r="39.258" gradientUnits="userSpaceOnUse" xlink:href="#b"/>
 </defs>
 <path d="m426.01 332.46c-0.12256 0.61279 1.4707 4.167 1.4707 4.167l6.9858 2.8188 11.52 1.103 18.996-1.5932 3.6767-0.36767 7.9663-3.5542-2.3286-2.3286-7.1084-2.4512-9.0693-1.7158-18.629-0.98046-7.476 0.61278-4.7798 3.064-1.3481 1.9609 0.12256-0.73535z" fill="url(#d)" fill-rule="evenodd"/>
 <path d="m191.52 346.02-5.0264-3.4665 1.9066-7.2796 28.425 3.8131 5.1997-0.51997 11.266 1.9066 7.1062 3.1198-1.5599 1.9066-5.0264 1.9066-8.4928 1.2133-15.079 0.17332-11.613-1.3866-7.1062-1.3866z" fill="url(#e)" fill-rule="evenodd"/>
 <path d="m105.4 41.382 1.4707 10.785 6.6181-0.73535 60.544-11.03 3.6767-20.835 5.1474-2.206-2.6963-3.6767-14.707-2.206 1.4707-6.1279-12.501 1.4707-0.73535-3.9218-9.8046 2.206-8.3339-3.4316-10.05 5.1474-4.167 6.373h-7.8437l-4.167 2.206 2.206 4.9023-4.6572 4.4121-1.4707 16.668z" fill="#ac9876" fill-rule="evenodd"/>
 <path d="m192.817,240.046c.214,0 .427.071.57.143 2.776-1.643 2.277-5.212 2.919-7.283 1.923,0 3.845,3.213 4.985,4.499-.855,3.998-8.83,13.924-11.536,19.422-2.706,7.641-.498,14.709-6.836,21.064-3.134,8.712-1.495,18.137-6.124,25.849-3.633,13.495-14.527,26.063 1.211,35.488 1.923,3.855 17.091,4.999 20.722,5.212 13.103-1.286 21.79-4.285 30.905-12.925h.569c0-1.356 1.14-2.143 1.14-2.999-4.771-4.784-1.639-13.353-1.639-18.208 2.279-.643 3.846-1.357 4.913-2.428-.498-1.356-.427-3.714-.355-4.642 10.041,2.499 4.558-2.855 8.047-8.997h.499c9.328,9.354 8.401,20.493 1.139,31.204-5.554,19.565 26.134,14.924 34.75,11.925 6.48-.356 15.096-.856 17.375-7.782 .142-.072.285-.144.356-.216 0-2.569 2.421-12.353-.356-13.709-.356-1.5-1.638-4.569-1.638-5.499 5.056-7.926-3.988-25.99-9.044-32.418 0-11.21-1.922-17.494-9.613-25.776 .214-1.285 8.901-9.996 10.112-10.354 4.913,5.284 11.393,8.641 18.158,9.996 .071-.143.143-.285.143-.428 .213,0 .356.071.498.143 .57,1.143.071,6.427.641,9.068 3.631,7.854 2.635,10.425 2.635,19.779 2.278,9.64 8.829,16.352 10.325,27.134-.783,9.426-6.551,16.638-4.415,27.062 7.833,9.854 39.378,7.069 49.419,1.071 2.278-6.998.569-18.708-.214-25.349 1.852-1.857 1.211-7.142.214-8.141 1.922-11.853 4.201-33.632-1.852-44.557 0-4.284 9.329,4.641 6.48-2.142 0-2.285.285-5.214 1.069-6.569h.498c.142,1.142.783,2.713 1.068,4.213 3.774,3.784 7.833,14.281 8.189,19.636 3.845,10.64 10.895,21.636 19.227,29.99 7.334,8.14 1.993,26.491 17.161,26.063 14.882-1.999 36.174-21.707 35.035-37.346-1.353-6.641-1.709-13.138-5.84-18.564-.071-.286-.142-.5-.213-.714-6.053-6.713-13.53-21.851-14.028-30.419-2.564-13.067.997-25.491 4.272-37.346 1.78-10.568 1.852-21.493 4.7-31.132 .142-.072.285-.072.427-.072 2.208,11.782-.213,28.134.356,40.915-.071.5-1.21,3.356-.712,4.143 2.635,0 5.483-3.643 6.409-4.57 8.26-2.713 12.39-24.063 12.105-31.204-2.065-12.567-13.316-18.137-17.018-29.347-4.558-4.57-4.771-21.636-7.121-27.706-4.13-6.854-8.901-12.067-13.174-17.994-4.059-7.569-7.192-10.853-14.242-16.351-18.514-9.854-36.459-13.853-56.255-19.708-7.121-1.428-14.455-5.213-21.718-6.998-14.1-7.783-26.49-18.494-41.586-24.563-5.412-7.069-16.449-12.21-24.14-16.066-14.242-20.779-49.989-7.284-69.713-1.071-4.415,0-8.83-.286-13.316-2.5v-.499c1.993-.572 4.13.357 5.839.499 .498-.785.498-.785.569-1.356-6.622-8.14-4.13-4.139-4.7-1.711-8.047.357-8.901,1.928-6.479,9.354-2.351-.071-4.131.214-7.121.357-1.068-1.714-3.135-4.213-3.632-5.712-.285-.072-.642-.143-.997-.215-1.567-1.57-6.766-3.427-8.76-.785 .356.785 4.914,1.285 5.697,1.571 1.78,1.285 6.053,6.141 5.412,8.926-3.917-3.928-8.331-4.142-13.957-2.928 0,0-.854.571-1.211.428 0-.642 1.66223,11.1076 1.59123,10.4646-1.71757-.90298-8.31229-5.04812-10.27823-5.8976-.926,2.357-1.709,4.642-2.136,8.069-6.194,0-10.753-10.639-9.329,6.998-1.922,0-6.337-6.07-7.121-7.926-3.773,0-4.343,6.998-7.049,7.64-.854-1-2.92-4.498-4.842-3.856 0,2.499 2.563,2.928 2.563,5.427-1.852,1.285-3.275,4.356-1.494,3.785 1.067,10.71-16.521,19.279-11.109,28.776 .214,0 .427,0 .641.071 .356-.357.713-.642 1.068-.928 0,4.641-1.638,10.211 3.276,14.281 1.709,2.713.355,4.141 1.281,7.069l.428.214c.926-.357 1.779-.714 2.635-.999 .213,4.07.427,6.64-2.066,10.567 0,3.856 4.985.857 6.553.857 2.776,8.712 3.062,5.998-3.134,13.496-.641,1.928-1.353,3.856-2.065,5.784-1.709.857-4.842,4.355-6.48,6.426-.355,1.428-2.30231,5.57053 1.96969,6.64253 0,.232 6.47173.05843 6.63647,4.22132 .09112,2.30245-.15673,4.79177.26629,4.72827 4.04283-.60694 6.55421-.84769 7.57715-.04073-.57031,3.13556-2.87418,11.4858-3.31442,14.57946-.88048,6.18733-7.98702,26.99906-13.9746,34.75571-5.769,12.854-11.40858,28.65444-11.90758,43.43544 .356,2.57 3.633,26.776 6.837,28.348 0,4.855 9.756,11.925 13.672,14.138 5.197,1.429 17.019.715 21.292-1.285 0-3.355 7.975-6.354 9.257-6.926 8.118-10.211 5.056-21.493-2.351-31.061-1.852-1.215.285-4.57-.499-6.212-.283,0-.64,0-.996.07-2.89665.91089-2.49495.98804-5.40517.9807-3.76917.27838-1.74112,6.922-10.59351,13.92-1.95704.24321-1.92881-5.01944-3.95974-7.64371-.72367-9.18017 17.11837-27.7993 21.47013-36.66335 3.83179-5.57091 5.82172-11.21547 7.38929-13.86164 5.554-11.139 21.434-26.134 21.434-37.416 1.353-.642 5.555,1.857 6.837,2.142 0-3.284-2.991-5.212-4.415-7.926-1.211-9.853 7.619-14.495 15.594-11.067 3.632-1.214 6.978-4.285 9.613.999 7.335-.928 4.344,4.427 6.979,7.069 .142-.071.2894,2.62155.925,5.713 3.632,22.064 5.04112,50.82003-16.25088,66.81503" fill="#9b845d" fill-rule="evenodd"/>
 <path d="m214.96,349.97c2.669-.146 29.917-.433 25.775-7.424-9.894-4.427-15.436-5.152-24.181-3.893 0,.289-.095.864-.095,1.153 .214.071.355.216.498.359 5.642-2.811 17.352,1.37 22.422,3.532-4.918,6.92-43.894,3.58-49.696.36-.214.289-.428.577-.714.865 2.215,3.317 22.349,4.831 25.991,5.048" fill="#231f20" fill-rule="evenodd"/>
 <path d="m444.046,341.183c8.574.402 16.487-.424 24.327-1.91 .431-.68.431-.68.39-.974-2.432-.766-6.793,1.091-10.485.698-3.661,1.351-40.679,1.342-28.985-8.37 5.136-4.202 35.139-.71 38.648.734 2.899,1.105 6.351,3.538 8.783,4.304 .833-7.885-36.984-10.39-42.396-8.616-3.511.776-4.723,1.12-7.94,3.025-8.602,9.379 14.045,10.653 17.658,11.109" fill="#231f20" fill-rule="evenodd"/>
 <path d="m308.282,107.783 .643-.433c-.643.072-.643.072-1,.361 .143,0 .286,0 .357.072" fill="#231f20" fill-rule="evenodd"/>
 <path d="m285.12 237.69 6.7596-18.372 0.17332-1.9066 2.2532-3.8131 0.51997-2.7732 4.1598 3.6398 2.7732 4.5064 0.69329-5.1997-0.34664-8.4928-4.853-12.653-7.2796-9.8794 2.0799-0.51997 7.9729 2.9465 10.399 5.7197 8.1462 5.0264-1.0399-4.6797-1.3866-3.8131 3.8131 1.2133 10.399 4.1598 10.053 6.413 4.6797 3.9864-0.17333-7.7995 3.1198 2.4265 11.959 1.7332 9.7061 15.772v2.2532l-4.6797 0.17333 5.373 26.865-3.8131 7.4529-1.7332 2.9465-5.1997-0.17332-13.173-5.0264-0.17332 5.5463-5.893-1.0399-8.6662-3.1198-7.9729-1.7332-2.4265 4.6797-5.5463-1.9066-12.479-3.2931-8.8395-2.9465-9.3594-8.3195z" fill="url(#g)" fill-rule="evenodd"/>
 <path transform="translate(-4.6387e-6)" d="m136.38 0c-5.9756 0.1224-11.748 4.5684-15.469 9.9688-4.842 0.714-9.1808 2.5095-14.094 5.4375 0 0.357-0.02275 0.697-0.09375 1.125 1.281 0.786 2.7812 1.858 2.7812 3.5-10.326 5.141-4.4062 19.092-4.4062 28.375-0.429 2.07-0.9395 4.1165-1.4375 6.1875 0.641 0.643 6.5002-1.429 8.2812-2 1.067 10.71-16.537 19.284-11.125 28.781 0.214 0 0.44225-0.0085 0.65625 0.0625 0.356-0.357 0.7075-0.62025 1.0625-0.90625 0 4.641-1.6328 10.211 3.2812 14.281 1.709 2.713 0.35525 4.1345 1.2812 7.0625 0.143 0.071 0.26225 0.14775 0.40625 0.21875 0.926-0.357 1.8002-0.715 2.6562-1 0.213 4.07 0.4305 6.6355-2.0625 10.562 0 3.856 4.9632 0.84375 6.5312 0.84375 2.776 8.712 3.071 6.002-3.125 13.5-0.641 1.928-1.3505 3.8532-2.0625 5.7812-1.709 0.857-4.862 4.3665-6.5 6.4375-0.355 1.428-3.772 12.928 0.5 14 0 0.928-16.001 18.706-18.281 20.562-10.539 12.139-29.353 22.994-20.594 42.844 15.591 9.382 22.789-10.665 35.844-12.969 0.0731-0.58937 1.2884-1.7363 1.625-2.2188-1.4189-8.299-9.5425-4.3346 0.125-10.656 2.208-1.714 6.9898-5.072 7.8438-6.5 0.284 0 0.55875 0.08525 0.84375 0.15625-0.69399 4.316-5.1537 13.046-8.2812 17.125 0 0.499-1.2832 1.8618-1.7812 2.7188-0.00471 0-0.02494-0.02715-0.03125-0.03125-5.7083 12.805-10.036 28.606-10.531 43.281 0.356 2.57 3.6085 26.772 6.8125 28.344 0 4.855 9.7715 11.943 13.688 14.156 5.197 1.429 17.008 0.71875 21.281-1.2812 0-3.355 7.968-6.3655 9.25-6.9375 8.118-10.211 5.0632-21.494-2.3438-31.062-1.852-1.215 0.284-4.5768-0.5-6.2188-0.283 0-0.644 0.02375-1 0.09375-3.632 6.426 0.5875 10.408 3.4375 16.406 5.055 15.353-1.5065 18.564-12.688 25.562-6.124 0.856-20.568 1.8502-23.344-5.2188-0.071 1e-5 -0.14875 0.08425-0.21875 0.15625-0.356-0.35599-0.72825-0.715-1.1562-1-19.725-30.562-1.832-68.844 12.125-96.906-0.284-0.286 1.3342-2.2102 1.4062-2.2812-0.072-0.21401-0.13925-0.357-0.28125-0.5l0.4375-0.21875v-0.84375c-0.355 0.42901-1.8675 2.5672-2.4375 2.2812 0-5.07 3.0112-9.929 2.6562-13 0.213-0.07099 0.411-0.0625 0.625-0.0625 0.569-1.142 0.233-1.429 0.375-2 0.214-0.143 0.4215-0.21025 0.5625-0.28125 0-0.14301-0.08525-0.20925-0.15625-0.28125 0.07-0.285 0.15625-0.5985 0.15625-0.8125 0.855-0.50001 0.64125-0.63925 1.2812-0.78125-0.427-0.429-0.4905-0.643-0.5625-1 0.214-0.072 0.4215-0.14775 0.5625-0.21875 0.355-2.428 1.269-4.2822 1.625-5.7812 3.489-7.069 1.8578-43.05-5.4062-47.906-1.067 0.214-2.3412 1.4962-4.4062 1.7812 0-0.642-0.0075-0.62975 0.5625-2.3438 1.068-1.071 0.78325-4.2728 1.2812-5.3438-0.284-6.356 0.43475-5.8078-4.9062-4.5938 0-0.143-0.08525-0.21025-0.15625-0.28125 5.839-9.354 9.7785-15.548 10.062-26.188-0.07-3.142-0.3635-6.1382 0.0625-8.7812 0.356 0 0.21875-0.715 0.21875-1-0.641-0.429-0.71025-0.79925-0.78125-1.1562-1.211 0-2.3545 2.2765-4.5625 1.5625v-0.5c2.136-4.355 1.929-7.1175 2-11.188 0.142-0.072 0.21025-0.15625 0.28125-0.15625 3.845 2.285 2.8452-5.5 6.4062-5.5 2.562 2.071 7.6955 6.6562 10.688 5.1562-0.07099-2.499-0.8815-8.3135 0.1875-9.8125 2.777 0 4.5705 1.786 7.0625 2 0.85501-0.857 0.983-5.9688 1.625-7.4688 2.563 0 9.7678 6.4688 13.969 6.9688 0.284-0.357 0.50475-0.62125 0.71875-0.90625-0.14301-0.214-15.09-8.7898-15.375-8.7188-0.926 2.357-1.7292 4.6355-2.1562 8.0625-6.194 0-10.736-10.637-9.3125 7-1.922 0-6.341-6.0815-7.125-7.9375-3.773 0-4.3565 7.0142-7.0625 7.6562-0.854-1-2.9218-4.4858-4.8438-3.8438 0 2.499 2.5625 2.9072 2.5625 5.4062-1.852 1.285-2.5648 2.0805-5.3438 2.4375 0-6.07 1.7855-9.0692-1.0625-14.781-0.356-3.427 0.87675-17.338 5.7188-14.125 2.991-0.643-0.876-5.929-1.375-6.5 0.855-2.642 6.0712-1.232 7.2812-0.375-0.427 6.641 1.4768 9.4888-1.6562 15.844 0.071 0.214 0.09375 0.43275 0.09375 0.71875 3.488 0.428 4.2555-9.1922 3.6875-10.906 2.85-12.492 12.046-23.274 23.938-14.062 0.498 1.143 7.3278-2.8532 7.9688-3.2812 0.285 0.142 0.55875 0.286 0.84375 0.5 0 9.354 4.0838 0.6165 11.844 1.6875v0.59375c-0.782 0.786-3.5845 9.2008 1.1875 6.3438 2.064-0.142 15.101 1.572 14.531 4-8.047 0.357-8.8908 1.9178-6.4688 9.3438-2.351-0.071-4.135 0.232-7.125 0.375-1.068-1.714-3.128-4.2198-3.625-5.7188-0.28499-0.072-0.645-0.14675-1-0.21875-1.567-1.57-6.756-3.4232-8.75-0.78125 0.35599 0.785 4.9045 1.2765 5.6875 1.5625 1.78 1.285 6.0472 6.1525 5.4062 8.9375-3.917-3.928-8.3428-4.1515-13.969-2.9375 0 0-0.8305 0.5805-1.1875 0.4375 0-0.642-0.08525-1.2945-0.15625-1.9375-3.348-1.642-0.4975 9.215 3.0625 11 1.354-1.357-0.912-5.2065-1.125-7.0625 3.916-4.856 13.16 3.5588 15.938 6.3438 0.783-0.786 0.51425-1.1478 0.65625-1.7188 0.78401 0-0.09375-5.7632-0.09375-5.9062 3.348-0.428 9.3932-0.37875 11.031 2.9062 0.569 0.357 1.0815 0.4375 1.4375 0.4375 1.068-2.214-3.6318-6.429-4.3438-9 3.703 0 9.245 2.4328 13.375 2.7188 4.7-0.286 17.464-3.144 20.312-6 15.666-4.284 33.596-5.5055 47.625 2.5625-1e-5 0.143 0 0.286 0 0.5-1e-5 0-5.4062-1.785-5.4062 0.5 3.631 0.714 6.6208 1.7812 9.4688 3.2812 0 0.071 15.754 8.5852 17.25 11.656 0 1.356-6.5648-2.3475-8.8438-0.0625 1.139 1.143 9.8215 2.5588 12.812 4.3438-0.428 0.428-5.959 0.57675-4.25 2.7188 10.61-0.999 13.798 0.00575 22.344 5.7188 24.282 24.349 64.298 24.982 94.062 38.406 4.202 2.356 21.225 12.564 20.156 17.062-1.281-0.643-1.7872-1.5048-3.7812-1.2188-1e-5 0.142 0 0.286 0 0.5 1.923 2.071 7.002 4.6478 7.5 6.7188 2.493 0.571 11.884 11.92 10.531 16.062-0.783-1.214-3.4245-2.5-5.0625-2.5-0.641 0.643 0.0815 1.232 0.4375 2.375 11.179 0 14.504 47.1 7.3125 54.312 1e-5 5.213 1.7952 8.2785 0.65625 14.062 1e-5 7.283-5.0675 16.087-6.5625 24.156-0.64099 1.928-0.929 5.768-1 8.125-0.14301-0.072-0.3485-0.125-0.5625-0.125-0.427-2.642-0.274-5.2188-2.125-6.7188-1.068 1.071 3.4735 19.341 3.6875 22.625-0.07099 0-0.14775 0.08425-0.21875 0.15625-1.994-1.355-2.112-5.2235-3.75-6.4375l-0.65625 0.21875c1e-5 2.999 8.3328 18.363 10.469 21.219 3.632 9.14 12.027 14.552 13.594 24.906-0.92599-0.28599-1.1308-0.8485-1.3438-1.5625-3.347 0.643 1.361 5.3628 2.5 8.2188 0 3.714-9.7045 24.91-15.188 23.125-1.994 1-7.2382 6.1402-10.656 8.2812-5.91 1.5-11.678 2.9922-13.031-5.2188-0.427 1e-5 -2.2092-7.2065-2.2812-8.0625 1.852 0 1.8572 2.2188 3.2812 2.2188 0.56999-1.144-15.694-19.698-18.969-24.125-6.267-10.854-8.6668-18.302-9.0938-30.156-0.42701-1-0.49825-1.4062-1.2812-1.9062-0.56999 0.286-0.7075 0.99625-1.5625 2.2812-6.124-11.068-5.2155-19.922-8.5625-31.062-0.63999-0.64301-3.4915-8.5-3.5625-9 1.353 0.214 3.6375 0.78125 4.5625 0.78125 1.567-2.142-7.6082-15.149-9.5312-18.219 0.21399-0.07199 0.357-0.125 0.5-0.125 1.282 1.285 11.296 7.5 11.938 7.5-0.42699-2.214-12.226-10.148-16-10.719-1e-5 3.784 9.7408 13.917 11.094 19.344-1.78 0-3.9938-0.838-6.3438-0.625-0.14301 0.286 6.5 22.064 6.5 28.062-3.205 3.213-3.484 4.127-4.125 9.625-2.136 2.142-14.537-4.6572-16.531-6.6562-3.703 1.214-4.0615 3.0862-3.5625 7.6562-3.774 1e-5 -22.435-14.434-24.5-1.9375-0.14199 0-0.3485 0.08425-0.5625 0.15625-5.696-4.642-10.756-5.3485-18.375-5.5625-6.765-1.571-9.263-4.5105-13.25-9.9375 1.139-3.57 8.964-21.147 3.125-21.719-1e-5 8.212-5.693 17.078-10.25 24.219-0.07101 0.071-1.8288 2.4412-2.4688 2.1562-0.21401-3.355-0.146-7.0842-1-9.6562-0.855 1.285-1.144 6.7102-1.5 9.2812-1.068 3.713-7.4015 19.719-12.812 19.719-0.28401-0.64401-0.5-2.6345-0.5-3.0625-0.14299-0.14299-0.2945-0.304-0.4375-0.375-0.92598 0.643-1.7822 4.9385-2.2812 6.9375-4.771 14.353-19.515 18.992-22.719 35.344-3.062 1.499-4.0458-2.802-5.4688 2.125 0 4.284 0.76625 4.285-4.2188 4-1.282 1.285-1.9868 12.799-1.8438 16.656 0.56801 1.999 1.0645 3.9935 1.5625 6.0625-5.34 6.642-20.998 13.695-30.469 11.625-1e-5 -2.428 3.193-4.0455 2.125-6.1875-2.136 0-6.1902 4.2775-11.531 4.0625-14.597-5.854-16.315-12.557-9.9062-26.125 1.852-5.354 3.5838-9.233 5.7188-13.375 1.853-2.428 3.1335-4.144 3.5625-6-1.282-1.285-2.0788 2.0095-3.2188 1.4375-0.427-7.997 1.5755-15.208 6.0625-21.062 0.926-0.856 4.5435-4.0578 4.1875-4.8438-0.641-0.07099-1.287-0.09375-2-0.09375-2.777-8.497 10.99-20.698 13.625-26.625 1.353-11.496 18.519-25.994 14.031-36.562-0.21299-0.072-0.49625-0.0625-0.78125-0.0625-0.07001 0.07199-0.14675 0.13825-0.21875 0.28125-0.498 5.854-10.769 25.99-15.469 27.562-2.491-2.142-5.8995-3.84-5.1875-7.125 1.067 0 2.483 0.625 3.125 0.625 1.353-1.355 0.163-5.053 0.375-6.625 0.07099-0.072 0.1165-0.15625 0.1875-0.15625 1.281 0.857 3.0808 2.3692 4.2188 2.6562 0.712-0.35701 0.553-9 0.625-10 0.854-1.856 1.7085-3.715 2.5625-5.5-0.143-0.28599-0.26325-0.56625-0.40625-0.78125h-0.71875c-2.421 4.285-2.8495 6.5598-3.5625 12.344v1.0625c-1.14-0.856-2.5778-2.071-3.2188-3-1.495 0.499-1.4215 5.4195-1.5625 7.5625-1.211 0-1.272-0.9015-2.625-0.6875-1.639 2.785-2.2805 6.9792-3.5625 10.906-1.282-0.64199-4.4042-5.501-3.9062-7 21.292-15.995 17.788-45.28 14.156-67.344 6.124-4.998 3.4245-10.263 5.0625-11.906-2.99-8.997-13.376-21.649-22.062-24.719-0.997-0.071-2.003-0.125-3-0.125-0.071 0.143-0.14675 0.286-0.21875 0.5-0.356-0.143-0.79175-0.21025-1.2188-0.28125-1e-5 0.142 0 0.3485 0 0.5625 2.065 0.571 11.55 5.4252 10.125 8.2812-7.549-1e-5 5.1195 4.6382 6.1875 5.2812 4.13 5.069 6.6975 9.36 4.5625 16.5-0.07101 0.07199-0.20175 0.14775-0.34375 0.21875-2.635-2.642 0.335-8.0218-7-7.0938-2.635-5.284-5.9618-2.214-9.5938-1-7.975-3.428-16.805 1.2408-15.594 11.094 1.424 2.714 4.4062 4.6222 4.4062 7.9062-1.282-0.285-5.4908-2.767-6.8438-2.125 0 11.282-15.884 26.267-21.438 37.406 0.925 0.429 1.8648 0.84375 2.7188 1.3438 1.993-1.357 7.7682-11.618 9.4062-14.188 2.563-2.928 4.3375-7.2188 6.1875-8.7188 2.85 8.64 6.249 13.718 5.75 23.5 0.997 6.57 5.913 11.289-5.125 9.7188-6.552-1.857-40.796-26.869-42.719-7.375 2.279 8.211 23.503 8.0882 30.125 16.656 8.688 4.355 13.246 9.2595 23.5 10.188 11.893-1.571 8.0402-6.5745 16.656 8.5625 0.214-1e-5 0.4195 0.08425 0.5625 0.15625 2.776-1.643 2.2955-5.2102 2.9375-7.2812 1.923-1e-5 3.8288 3.214 4.9688 4.5-0.855 3.998-8.8252 13.908-11.531 19.406-2.706 7.641-0.50575 14.739-6.8438 21.094-3.134 8.712-1.496 18.132-6.125 25.844-3.633 13.495-14.519 26.044 1.2188 35.469 1.923 3.855 17.088 5.0058 20.719 5.2188 13.103-1.286 21.791-4.2975 30.906-12.938h0.5625c-1e-5 -1.356 1.1562-2.1128 1.1562-2.9688-4.771-4.784-1.6562-13.364-1.6562-18.219 2.279-0.64301 3.8705-1.3665 4.9375-2.4375-0.49799-1.356-0.447-3.697-0.375-4.625 10.041 2.499 4.5735-2.858 8.0625-9h0.5c9.328 9.354 8.387 20.476 1.125 31.188-5.554 19.565 26.134 14.936 34.75 11.938 6.48-0.356 15.096-0.85525 17.375-7.7812 0.14199-0.07201 0.304-0.14675 0.375-0.21875 0-2.569 2.402-12.363-0.375-13.719-0.35601-1.5-1.625-4.57-1.625-5.5 5.056-7.926-4.0065-25.978-9.0625-32.406 0-11.21-1.9028-17.499-9.5938-25.781 0.214-1.285 8.8828-9.9858 10.094-10.344 4.913 5.284 11.391 8.645 18.156 10 0.07101-0.143 0.15625-0.2945 0.15625-0.4375 0.21301-1e-5 0.358 0.053 0.5 0.125 0.56999 1.143 0.055 6.4528 0.625 9.0938 3.631 7.854 2.6562 10.427 2.6562 19.781 2.278 9.64 8.8165 16.343 10.312 27.125-0.78299 9.426-6.5422 16.638-4.4062 27.062 7.833 9.854 39.365 7.0605 49.406 1.0625 2.278-6.998 0.56425-18.703-0.21875-25.344 1.852-1.857 1.2158-7.1572 0.21875-8.1562 1.922-11.853 4.2092-33.606-1.8438-44.531 0-4.284 9.3178 4.6268 6.4688-2.1562-1e-5 -2.285 0.30975-5.2075 1.0938-6.5625h0.5c0.14201 1.142 0.7775 2.7188 1.0625 4.2188 3.774 3.784 7.8315 14.27 8.1875 19.625 3.845 10.64 10.887 21.646 19.219 30 7.334 8.14 1.9882 26.49 17.156 26.062 14.882-1.999 36.17-21.705 35.031-37.344-1.353-6.641-1.7128-13.136-5.8438-18.562-0.07099-0.28599-0.1165-0.50475-0.1875-0.71875-6.053-6.713-13.533-21.87-14.031-30.438-2.564-13.067 0.975-25.489 4.25-37.344 1.78-10.568 1.8708-21.486 4.7188-31.125 0.14199-0.072 0.2955-0.0625 0.4375-0.0625 2.208 11.782-0.22525 28.125 0.34375 40.906-0.071 0.5-1.2168 3.3692-0.71875 4.1562 2.635 0 5.4802-3.6668 6.4062-4.5938 8.26-2.713 12.41-24.046 12.125-31.188-2.065-12.567-13.329-18.134-17.031-29.344-4.558-4.57-4.775-21.649-7.125-27.719-4.13-6.854-8.8832-12.073-13.156-18-4.059-7.569-7.2-10.846-14.25-16.344-18.514-9.854-36.454-13.864-56.25-19.719-7.121-1.428-14.456-5.1838-21.719-6.9688-14.1-7.783-26.498-18.525-41.594-24.594-5.412-7.069-16.465-12.206-24.156-16.062-14.242-20.779-49.964-7.2755-69.688-1.0625-4.415 0-8.8265-0.286-13.312-2.5v-0.5c1.993-0.572 4.1035 0.358 5.8125 0.5 0.498-0.785 0.52275-0.77275 0.59375-1.3438-6.622-8.14-7.785-8.286-19.25-9.5-0.855-0.857 2.2188-4 2.2188-4 0-2.999-10.75 0.28125-13.312 0.28125 0.35501-1.285 0.62125-2.5588 0.90625-3.8438-3.56 0-7.887 0.78125-11.875 1.2812-2.6256-2.0528-5.3776-2.8994-8.0938-2.8438z" fill="#231f20" fill-rule="evenodd"/>
 <path d="m267.018,336.942c3.702-.214 8.331-.785 10.823-2.213 1.496-1.5 2.635-2.856 3.917-3.071 .783.429.783,1.286.071,2.428 2.421.571 8.047-3.284 8.331-3.855 3.774-1.856 2.92-11.282 2.493-14.209-.855-3.214-2.065-5.784-2.635-8.855 .427-.714.926-.784 1.211-.856 1.495-3.998-2.92-24.063-7.762-25.634-1.282-2.285-4.558-6.212-.855-6.212 0-7.641-3.275-14.281-8.83-18.923-1.139.715-3.204,4.212-4.628,6.069-8.616,5.712-8.616,11.71-16.165,20.493-12.176,11.639-6.836,5.784-1.424,19.851 1.068,4.642.285,9.068-.142,14.209h.427c6.053-6.068-3.845,9.283-4.13,9.854-2.777,11.711 11.536,10.924 19.298,10.924" fill="#8c7754" fill-rule="evenodd"/>
 <path d="m338.155,336.8c4.415-.285 19.44-1.143 21.505-4.213 0-10.711 3.276-19.279-3.489-28.348 0-1 .071-.856.356-1.428 .142.071.214.142.285.214 .142-.072.213-.143.285-.214 .783.356 2.777,2.499 2.99,2.57 0-3.642-3.062-8.354-2.349-10.426 .356-.07.712-.07.996-.07 .713,1.642 1.353,2.999 1.709,2.642 0-14.781 5.127-39.63-12.39-45.485 0,1.571 2.208,3.143 2.208,4.928-7.477,4.998-18.942-8.927-25.992-4.499-.925,1.285-1.851,2.57-2.848,3.927-1.994,0-7.975-4.07-11.749-4.641-.713,4.641-1.282,9.354.925,14.494h.356c.143-.999.499-1.428.356-1.928 .57-.071 1.069-.142 1.567-.214 .214.214.427.5.57.786-2.635,4.427-1.496,16.351-.285,21.563 .142,0 .213.071.285.144 1.566-1.571-.356-4.143 2.065-4.927 .356.356.641.714.925,1.07-2.349,5.855 6.124,19.708 5.768,28.49-.641,5.213-11.322,20.922-1.922,22.779 2.136,2.143 14.74,2.786 17.873,2.786" fill="#84704f" fill-rule="evenodd"/>
 <path d="m129.941,266.823c.996-.429 1.993-.786 2.99-1.143 1.923-1.929 3.134-6.498.285-6.498-.498.786-.213,2.142-.428,3.928-3.987,1.999-13.03-1.5-5.981-6.427 4.487-2.071 2.563-3.713 2.991-7.641 2.278-3.999 5.768-2.642 6.194-4.499-4.415-5.069-10.11,3.999-10.324,8.713-1.211.999-2.279,1.855-3.774,3.569-2.706,0-.57-18.637 2.92-20.351 2.207-4.927 7.476-9.854 10.325-13.495 1.495-2.785 2.991-5.498 4.415-8.212-.57-.214-.784-.785-1.994-.5-2.991,7.641-13.886,16.066-18.87,25.277-3.632,9.784-3.347,28.207 11.251,27.279" fill="#231f20" fill-rule="evenodd"/>
 <path d="m174.873,227.479c21.292-1.643 28.413-28.419 28.413-45.199 0-1.285-.071-31.989-7.191-31.989-.144.214-.356.428-.57.714-.641-.143-1.282-.286-1.923-.357-.925-1.857.071-3.856-4.13-3.856-.642.999 0,4.284-1.78,4.427-3.773-3.785-12.533-4.356-13.814,2.356-1.709,0 .569,5.356.926,6.427 6.765,13.567 10.396,35.417 2.492,49.555-6.053,7.568-15.452,4.998-22.359-1.071-7.406-3.713-21.505-12.496-30.121-6.712-.356,4.498 1.354,5.998 6.123,6.64 0,.571 7.264,2.214 8.617,2.357 11.961,5.14 21.503,16.708 35.317,16.708" fill="url(#c)" fill-rule="evenodd"/>
 <path d="m302.337,220.839c3.276-12.854-2.492-27.777-11.037-37.131v-.5c8.758,0 22.288,13.639 28.483,13.639 1.068-1.071-1.994-6.498-2.278-8.069 9.47,2.927 17.659,7.497 25.065,13.424 .783,1 2.208,2.785 3.418,2.499 0-2.927-.57-5.498-.356-7.783 1.139.643 4.273,4.784 4.985,4.784 .712-.714-5.768-9.14-7.691-8.354 0,2.142 1.139,4.713 1.139,7.712-.071,0-.142.071-.213.142-3.489-2.285-22.146-15.78-28.27-14.281-.071.215-.214.429-.356.643 .712,1.857 2.136,4.427 2.136,6.498-4.557-3.285-26.774-15.566-31.474-13.21v.785c8.545,6.427 18.443,23.064 15.666,34.204-.071,0-.143.071-.214.143-2.279-2.57-4.13-5.712-7.477-6.498-.569.572-.498,4.499.356,5.927 1.567,0 1.068-1.928 1.068-2.642 3.561.714 4.914,5.57 6.765,8.212 .143-.074.214-.144.285-.144" fill="#231f20" fill-rule="evenodd"/>
 <path d="m72.262,214.911c10.467-1.928 17.659-11.282 27.059-14.995 .071-.214.071-.357.071-.5-6.48-6.498-11.678-3.284-21.078-.571-.356.357-3.987,2.428-5.625,2.071-1.353-2.785 19.582-8.64 20.081-8.854 5.483-4.785 11.891-8.926 16.52-13.853 2.208-2.713 8.546-21.993 8.189-23.921-2.207,0-4.344,2.285-7.121,2.285-.213-.428.071-6.212 0-7.426h-.498c0,3.142-19.583,23.064-25.422,29.348-.498.214-.854.285-1.282,1.428-1.424,0-11.037,11.282-12.604,13.067-4.201,6.141-9.684,19.636 1.71,21.921" fill="url(#f)" fill-rule="evenodd"/>
 <path d="m444.043,211.342c1.78-2.785 2.278-3.785 2.706-6.07 .427,0 .356-5.426 1.637-5.855l.428.214c.427,2.285.356,4.57-.072,7.427h.499c3.347-6.713 2.35-14.067.783-20.422 0-.786 0-.786.214-1.071 .213-.072.427-.072.641-.072 1.424,1.286 2.278,4.07 3.133,5.998 .213-.071.356-.071.498-.071 1.424-8.569-2.777-17.994-8.545-23.778-1.566-2.571-3.347-5.855-5.269-7.783l-.427.214c0,6.712 3.845,12.282 3.489,19.922-.143,1.214-1.638,6.998-.285,8.354 .285-.285.57-.499.854-.714 1.282.714-3.275,12.639-1.068,17.852-.142.142-.142.142.214,5.569 .214.071.427.142.57.286" fill="#a58f6a" fill-rule="evenodd"/>
 <path d="m176.16 207.7c4.985-7.497 5.769-41.129-4.271-41.129-1.354 2.285-2.493 5.57-4.7 8.069 0 2.356 2.991 13.638 5.269 14.781 1.923-1.5 1.78-3.428 3.348-3.428 1.211 1.642-4.06 11.639-1.923 14.852-2e-3 0.286 1.565 7.569 2.277 6.855" fill="#a58f6a" fill-rule="evenodd"/>
 <path d="m422.538,184.421c2.563-.857-1.211-5.784-.784-6.712 1.78.571 2.279.714 3.276,2.071 .356-.072.641-.143.926-.143 1.424-4.427-3.846-12.139-5.199-16.209 3.774,1.357 2.35,1.714 4.771,3.499 5.199-1.928-5.696-27.705-8.901-30.918-1.139-2.071-4.059-5.927-4.7-7.855 7.477,2.499 10.468,9.497 14.598,15.352h.641c2.848-2.856-14.883-22.135-19.013-17.994 4.202,8.497 18.159,27.205 16.378,36.417-2.634-1-5.269-1.928-7.975-2.857-2.207,2.214 8.83,12.211 7.263,17.066-1.281,0-3.347-1.642-4.984-.857 0,.5 2.919,9.14 3.703,9.14" fill="#231f20" fill-rule="evenodd"/>
 <path d="m239.958,176.567c3.204-7.498.854-19.851-1.495-27.063 .07-.143.142-.285.142-.357 .997,1.357 4.415,4.356 5.626,5.498 2.634-1.785-8.83-11.424-8.83-7.997 3.062,5.498 6.195,18.637 3.916,25.492-1.565-1.571-5.696-10.711-8.972-10.711-.214.428.285,7.854.285,9.068-.215,0-.428.072-.642.143-1.211-.928-6.053-5.57-7.833-3.784 .498,2.784-1.495,5.569-.854,7.568 .214,0 .428.072.569.143 1.709-1.713 2.422-4.355 2.422-5.784 11.75,4.713 5.127,9.569 8.402-3.57 .998,1 6.481,11.354 7.264,11.354" fill="#231f20" fill-rule="evenodd"/>
 <path d="m146.461,172.568c.214-.214.355-.428.497-.643-.925-3.142-1.637-6.498-1.352-9.211 1.566.5 2.99,2.142 5.055,2.785 1.853-1.071-.213-4.713-.213-6.141 .143-.071.213-.143.285-.214 2.136,1.357 5.625,3.641 8.189,3.641 1.067-1.071-5.483-12.567-4.415-15.923 2.064,2.071 2.634,4.998 5.839,6.284 .355-.5-6.124-11.425-6.124-11.425-4.559,0 1.638,16.066 2.136,18.637-5.269-.857-6.907-8.355-7.334.714 .213,1.285.498,1.785.427,2.213-1.496-.857-3.133-2.927-4.771-2.927-.782,2.07-1.14,11.496 1.781,12.21" fill="#231f20" fill-rule="evenodd"/>
 <path d="m114.631,152.433c1.709-.5 2.776-1 3.916-1 3.275-3.285 1.638-23.349-.498-27.634-.071,0-.144,0-.285.072 0,1.856-6.195,9.639-6.907,13.21-1.852.928-5.199,3.499-5.626,6.426 6.623,0 8.189,2.713 8.901,8.926h.499" fill="#a8936f" fill-rule="evenodd"/>
 <path d="m104.874,150.861c1.068-1.428 2.564-2.785 2.351-4.07h-1.354c-.782.785-1.281,2.142-1.281,3.998 .143.001.214.001.284.072" fill="#8c7754" fill-rule="evenodd"/>
 <path d="m212.899,148.861c2.919-2.07 4.272-4.855 5.056-7.211 .214-.072.356-.072.498-.072 1.14,1.285 2.421,2.856 3.489,4.499 2.421,0 2.351-9.426 4.558-10.497 0-1.428 1.78-3.499 1.994-3.856 5.696-7.14 6.765-15.495 7.334-23.563 1.282,0 3.062,1.571 4.345,1.856 1.495-.857-1.068-5.284-1.211-6.498 .355-8.354 3.204-17.565 4.272-25.348-.355-2.857-.712-8.498-2.136-10.354-3.917-14.353-11.679-22.993-26.917-25.349-1.709.072-12.106,3.499-12.177,3.427 .782-2.499 2.491-3.855 1.353-5.569-6.195,0-13.459,10.568-17.802,8.711-1.068,0-1.068-.143-1.354,1.214 .569.928 3.774,3.785 4.699,3.57 1.709-3.427 7.833-7.64 10.539-8.64 0,.643-1.922,5.641-.356,6.427 15.596-11.496 36.104,3.285 37.741,20.35 5.697,11.425-3.204,21.208-.427,33.275-.143,0-.285.071-.499.143-1.068-.786-1.922-1.857-3.347-2.214-1.638,8.283.997,14.995-4.984,22.85-2.492,5.641-6.338,7.426-6.338,15.138-.142,0-.285,0-.498.071-.57-.571-2.563-2.856-3.845-2.856-1.709,3.356-3.49,6.712-5.271,10.068 .714.428.928.428 1.284.428" fill="#231f20" fill-rule="evenodd"/>
 <path d="m207.202,125.87c5.839-4.356 9.115-6.569 7.192-14.495 0-1 8.759-6.427 4.344-10.854 .712-14.281 8.973-20.064-.07-33.703-4.843-4.855-10.967-9.283-16.022-1.214-.214.786-.071,2.428-.57,3.428-2.207-.143-6.906-2.499-8.83-2.071-.568,1.785-.284,3.713-.355,6.069-7.334,7.355-13.602-4.213-15.452-3.927-2.635,6.712 19.226,14.138 17.161.357 3.632.714 6.195,1.571 9.613,1.571l.499-.5c-1.141-6.569 1.565-7.212 6.765-6.712 12.319,6.712 10.752,17.494 6.124,30.204-.072.072-.214.143-.356.215-.713,6.855 2.849,11.996-5.198,14.923-.214.286-.428.572-.713.929 4.06,8.14.144,9.354-5.482,14.995 .071.142.143.285.214.499 .424.071.78.143 1.136.286" fill="#231f20" fill-rule="evenodd"/>
 <path d="m170.316,103.591c2.279-1.143 3.774-2.285 4.13-4.142-.854-.571-2.421,1.286-3.489,2.214-1.993.357-4.272-.5-6.693-.5v.571c2.278,1.214 3.845,1.571 6.052,1.857" fill="#231f20" fill-rule="evenodd"/>
 <path d="m183.276,101.521c.143-.071.285-.143.356-.214 0-3.785-6.267-5.855-9.043-7.069v-.572c5.34-2.642 6.337.143 10.467.143l.285-.285c-2.92-5.856-8.403-.714-12.391-1.714-3.205-8.783-13.103-4.784-9.329,3.713 0,1.428-1.067,1.357-1.637,3.142 .071.071.143.214.213.357 1.639,0 2.92-1.5 3.489-1.857 7.193-2.356 12.106-.928 16.877,4.285 .286-.001.499-.001.713.071" fill="#231f20" fill-rule="evenodd"/>
 <path d="m167.04,92.167c.072-.5.144-.928.144-1.357-.427-.357-.855-.714-1.354-.999-.355.142-.854.785-.854,1.928 .996.356 1.495.428 2.064.428" fill="#fff" fill-rule="evenodd"/>
 <path d="m108.934,91.31c6.266-6.284 6.622-18.851 5.91-25.991-4.415-1.428-10.823,7.783-12.034,12.138 1.851,0 8.83-2.427 5.554,2.5-4.201.999-3.346,11.353.57,11.353" fill="#a6906b" fill-rule="evenodd"/>
 <path d="m150.734,87.596c.213-.286.356-.5.498-.714-2.635-5.284-4.13-4.284-4.557-11.139 3.062,0 4.13.428 6.479-.643 .071-.214.143-.428.213-.571-.641-.857-4.913-5.855-5.695-5.855-.144.142-.285.285-.499.5 .712,1.785 2.92,3.57 3.418,5.069-1.852.286-3.275-.428-5.555-.785-1.067,2.213.997,8.783 2.279,11.353-9.115-2.999-8.83-16.494-16.094-3.998h-.498c-1.78-2.714-3.347-4.785-4.415-7.641h-.499c-1.281,1.285 3.276,10.64 6.267,10.068 .997-2.713 2.279-5.212 4.13-6.141 4.558,3.071 7.62,10.497 14.528,10.497" fill="#231f20" fill-rule="evenodd"/>
 <path d="m162.269,86.668c.355-.429.641-.857.926-1.286 2.492-8.711 8.688,1.643 10.468,1.072 .214-.357.214-.357.285-1.643-2.777-2.285-5.626-6.64-9.542-6.64-.997,1.071-5.626,7.354-2.137,8.497" fill="#231f20" fill-rule="evenodd"/>
 <path d="m264.312,68.317c.213-.143.427-.215.569-.286 0-5.641-.712-9.14-1.639-14.067 5.412.714 10.824,6.855 15.81,8.997 6.622,7.712 5.198.357 5.483-4.57 .142-.071.214-.142.285-.142 4.7,2.57 9.328,5.212 13.957,7.854-1.211-1-17.162-14.209-17.162-9.854 1.282,2.285 1.567,4.642 1.068,7.855-.142,0-.284,0-.427.071-5.269-4.784-14.954-10.996-21.861-13.281 0,.071 2.848,11.282 2.991,13.71-1.211,0-8.973-13.21-12.178-9.997 .285.714.5,1.428.356,2.856-1.922,0-5.554-4.927-8.972-4.284-.144.214 9.043,7.354 9.969,7.14 .641-1.571.712-2.356.783-3.57 4.416.001 8.689,11.568 10.968,11.568" fill="#231f20" fill-rule="evenodd"/>
 <path d="m128.516,32.471c.214-.142.355-.214.499-.285-3.917-4.427-4.629-5.998-5.626-11.925-.143-.143-.356-.286-.854-.143 0,4.927.427,10.497 5.981,12.353" fill="#231f20" fill-rule="evenodd"/>
</svg>
