<?xml version="1.0" encoding="UTF-8"?>
<svg viewBox="0 0 155.3322 684.47906" xmlns="http://www.w3.org/2000/svg">
 <g transform="translate(-279 -196.09)">
  <path d="m335.38 879.9c-25.37-2.6228-44.679-9.7583-51.85-19.161-7.0787-9.2807-5.5572-31.003 4.364-62.305 5.319-16.782 6.3942-25.468 5.6858-45.933-0.50631-14.625-1.5294-22.659-7.2017-56.547-5.4977-32.845-6.5114-40.679-6.0169-46.5 0.32707-3.85 0.66234-8.125 0.74505-9.5s-0.44875-7.9-1.181-14.5c-2.2817-20.565-0.23234-49.563 5.1591-73 1.1583-5.0351 2.1573-13.185 2.2678-18.5 0.17119-8.2356 0.66751-10.698 3.7289-18.5 22.266-56.744 24.137-62.161 27.812-80.5 3.1217-15.576 5.5745-38.993 4.6688-44.574-0.30571-1.8838-1.9958-6.3502-3.7558-9.9252-2.9932-6.0802-3.1528-6.936-2.471-13.251 0.78986-7.3151 0.78828-8.0559-0.041-19.275-0.49165-6.6514-0.30946-7.8384 1.5699-10.228 2.8775-3.6581 9.5355-5.4713 24.865-6.7712 19.268-1.634 42.514 0.59395 48.736 4.671 4.312 2.8253 5.7589 12.201 2.9285 18.975-1.1746 2.8113-1.2398 4.0117-0.31026 5.7179 0.64708 1.1878 1.1838 5.1514 1.1926 8.8082 0.0135 5.5625-0.5076 7.6479-3.1897 12.765-2.871 5.4771-3.2059 6.9969-3.2059 14.55 0 10.337 2.2354 27.884 5.5559 43.61 2.477 11.732 11.655 37.917 22.967 65.526 6.7084 16.373 8.9284 25.107 7.6024 29.91-0.70663 2.5592-0.46444 5.2724 0.97066 10.874 5.9196 23.108 8.6819 53.653 6.7506 74.65-0.68127 7.4067-1.1567 15.717-1.0566 18.467 0.65387 17.954 0.25994 21.924-5.6057 56.5-10.122 59.664-10.288 75.971-1.066 104.36 7.1943 22.148 10.13 47.321 6.5248 55.949-4.2125 10.082-19.14 17.905-41.567 21.783-13.488 2.3327-41.795 3.2752-55.576 1.8506zm-2.5-15.946c1.1-1.1 2-2.3879 2-2.862 0-0.78569-9.4953-3.138-12.667-3.138-1.8026 0-1.6844 3.0536 0.22348 5.7775 2.0351 2.9054 7.6409 3.0249 10.443 0.22251zm0.61047-34.765c2.8464-1.8832 6.1442-11.738 8.9468-26.735 2.8564-15.285 2.2593-32.572-3.9838-115.35-1.3419-17.792-2.5824-32.486-2.7566-32.651s-3.3536-0.62327-7.0651-1.0165l-6.7483-0.71494 0.50568 2.8663c0.6808 3.8588 6.0472 62.083 7.9603 86.366 0.84491 10.725 1.593 25.125 1.6625 32 0.13181 13.047-0.52181 16.704-6.5995 36.926-2.9438 9.7949-3.1927 14.687-0.87744 17.245 1.6635 1.8381 6.8531 2.4544 8.9555 1.0634zm5.7599-275.53c0.47871-3.188 0.61809-6.0486 0.30973-6.3569s-4.3441-0.79669-8.9682-1.0852l-8.4076-0.52453-0.64117 3.8815c-1.3142 7.9559-0.9781 9.2136 2.5868 9.6793 1.7875 0.23349 5.725 0.3745 8.75 0.31336l5.5-0.11116 0.87039-5.7963zm1.5571-19.013c1.4053-3.6961 5.0484-49.919 8.5668-108.69 0.83959-14.025 1.7624-27.638 2.0506-30.25l0.52404-4.75h-7.8122l-0.69236 13.25c-0.91563 17.523-3.156 39.333-5.6238 54.75-4.0719 25.438-6.9906 41.942-10.41 58.864-1.9296 9.55-3.2618 17.763-2.9606 18.25s3.9074 0.88633 8.0135 0.88633c6.879 0 7.5347-0.18151 8.3437-2.3094zm12.547-163.64c0.83912-1.6227 1.5257-4.4914 1.5257-6.375 0-3.0356-0.355-3.4957-3.125-4.0497-4.6822-0.93644-8.6765-0.75514-9.4071 0.42698-1.1631 1.8819-0.81718 9.8222 0.49682 11.405 0.74818 0.9015 2.8809 1.5425 5.1321 1.5425 3.254 0 4.0887-0.45791 5.3776-2.9503zm1.7954-59.532c-3.606-1.5676-7.2602-6.7812-7.266-10.366-6e-3 -3.7716 3.0351-9.1199 6.0814-10.695 1.5485-0.80077 4.5377-1.456 6.6426-1.456 12.356 0 15.495 16.697 4.2335 22.52-3.5079 1.814-5.5143 1.8135-9.6917-3e-3v4.3e-4zm-17.712-32.715c-2.4129-0.66849-5.7214-2.879-8.5277-5.6974-8.9846-9.0237-9.3097-20.507-0.8408-29.694 13.362-14.496 37.119-5.1618 37.131 14.589 8e-3 14.443-13.684 24.703-27.762 20.803zm3.6137-24.458c5.264-4.7638-1.7879-13.401-7.4254-9.095-2.7995 2.1384-3.1991 6.2968-0.83252 8.6633 2.5115 2.5115 5.7714 2.6819 8.2579 0.43167zm20.144-24.352c-7.5228-3.031-4.5365-15.993 3.6846-15.993 8.2075 0 11.187 11.783 3.9285 15.537-3.1816 1.6453-4.4699 1.7224-7.6131 0.45604zm-8.376-24.054c-2.7822-2.7822-2.2205-6.94 1.1954-8.8484 2.3598-1.3184 2.9076-1.2932 5.25 0.24151 3.3788 2.2139 3.5798 6.8784 0.39272 9.1108-2.9526 2.0681-4.3706 1.9636-6.8381-0.50388z"/>
 </g>
</svg>
