<?xml version='1.0' encoding='utf-8'?>
<svg xmlns:xlink="http://www.w3.org/1999/xlink" xmlns="http://www.w3.org/2000/svg" version="1.1" x="0px" y="0px" width="841.89px" height="595.28px" viewBox="0 0 841.89 595.28" enable-background="new 0 0 841.89 595.28"> <g id="Warstwa_2"> </g> <g id="Warstwa_1"> <g> <defs> <rect id="SVGID_1_" width="841.89" height="595.28"/> </defs> <clipPath id="SVGID_2_"> <use xlink:href="#SVGID_1_" overflow="visible"/> </clipPath> <g clip-path="url(#SVGID_2_)"> <linearGradient id="SVGID_3_" gradientUnits="userSpaceOnUse" x1="415.1851" y1="453.7715" x2="415.185" y2="-32.6718"> <stop offset="1.000000e-08" style="stop-color:#B0DAE6"/> <stop offset="1" style="stop-color:#73CADA"/> </linearGradient> <rect x="-19.383" y="-46.458" fill-rule="evenodd" clip-rule="evenodd" fill="url(#SVGID_3_)" width="869.136" height="663.333"/> <g> <linearGradient id="SVGID_4_" gradientUnits="userSpaceOnUse" x1="785.083" y1="-2.5439" x2="776.2933" y2="116.1174"> <stop offset="1.000000e-08" style="stop-color:#FFF7F7"/> <stop offset="0.1362" style="stop-color:#F9F5F6"/> <stop offset="0.3169" style="stop-color:#E8F0F2"/> <stop offset="0.5226" style="stop-color:#CDE7ED"/> <stop offset="0.7467" style="stop-color:#A7DBE5"/> <stop offset="0.9834" style="stop-color:#76CBDB"/> <stop offset="1" style="stop-color:#73CADA"/> </linearGradient> <path fill-rule="evenodd" clip-rule="evenodd" fill="url(#SVGID_4_)" d="M845.219,66.587 c-12.689-1.601-12.395-7.046-22.428-9.929c-4.666-1.34-8.629-2.404-11.594-3.352c0.318-1.343,0.492-2.742,0.492-4.183 c0-9.208-6.904-16.798-15.816-17.89c-2.529-10.427-11.924-18.17-23.127-18.17c-9.824,0-18.254,5.951-21.889,14.444 c-3.654-2.707-8.176-4.31-13.07-4.31c-12.139,0-21.979,9.839-21.979,21.978c0,0.138,0.008,0.274,0.01,0.412 c-7.713,0.722-13.75,7.211-13.75,15.113c0,3.272,1.039,6.301,2.801,8.78c-4.916,2.136-11.445,4.323-17.824,4.48 c-12.691,0.313-26.855,11.203,2.951,7.04c29.805-4.164,70.529-0.988,91.775,0.627c21.248,1.615,26.264-10.223,49.283-7.987 c23.018,2.235,54.889,5.118,55.184-1.928C886.533,64.666,857.908,68.189,845.219,66.587z"/> </g> <g> <linearGradient id="SVGID_5_" gradientUnits="userSpaceOnUse" x1="765.4297" y1="193.8125" x2="784.654" y2="300.2855"> <stop offset="1.000000e-08" style="stop-color:#FFF7F7"/> <stop offset="0.1362" style="stop-color:#F9F5F6"/> <stop offset="0.3169" style="stop-color:#E8F0F2"/> <stop offset="0.5226" style="stop-color:#CDE7ED"/> <stop offset="0.7467" style="stop-color:#A7DBE5"/> <stop offset="0.9834" style="stop-color:#76CBDB"/> <stop offset="1" style="stop-color:#73CADA"/> </linearGradient> <path fill-rule="evenodd" clip-rule="evenodd" fill="url(#SVGID_5_)" d="M841.209,248.499 c-9.797-1.236-9.568-5.439-17.314-7.665c-3.602-1.034-6.66-1.855-8.949-2.587c0.246-1.037,0.381-2.117,0.381-3.229 c0-7.107-5.33-12.967-12.209-13.81c-1.953-8.048-9.205-14.025-17.854-14.025c-7.582,0-14.092,4.593-16.896,11.149 c-2.82-2.09-6.311-3.327-10.09-3.327c-9.369,0-16.965,7.595-16.965,16.965c0,0.106,0.006,0.211,0.008,0.317 c-5.953,0.557-10.613,5.566-10.613,11.666c0,2.526,1.578,8.218,2.938,10.132c-9.828-4.245-24.559-3.026-29.484-2.903 c-4.896,0.121-23.9,7.607-23.9,7.607s29.623,2.441,41.127,0.835c23.008-3.215,54.443-0.763,70.844,0.483 c16.402,1.247,20.275-7.892,38.043-6.165c17.77,1.726,42.371,3.95,42.6-1.489C873.1,247.015,851.004,249.735,841.209,248.499z"/> </g> <linearGradient id="SVGID_6_" gradientUnits="userSpaceOnUse" x1="134.5649" y1="207.7197" x2="153.652" y2="313.4328"> <stop offset="1.000000e-08" style="stop-color:#FFF7F7"/> <stop offset="0.1362" style="stop-color:#F9F5F6"/> <stop offset="0.3169" style="stop-color:#E8F0F2"/> <stop offset="0.5226" style="stop-color:#CDE7ED"/> <stop offset="0.7467" style="stop-color:#A7DBE5"/> <stop offset="0.9834" style="stop-color:#76CBDB"/> <stop offset="1" style="stop-color:#73CADA"/> </linearGradient> <path fill-rule="evenodd" clip-rule="evenodd" fill="url(#SVGID_6_)" d="M209.969,284.251 c-11.564-1.459-11.295-6.42-20.438-9.047c-1.502-0.431-2.918-0.83-4.248-1.205c-1.092-5.002-3.805-9.511-7.654-13.113 c-2.428-4.755-7.102-8.172-12.623-8.848c-1.432-5.897-5.273-10.85-10.422-13.76c-4.805-5.289-11.73-8.613-19.439-8.613 c-10.502,0-19.557,6.164-23.764,15.068c-2.609,0.089-5.09,0.676-7.354,1.671c-8.927,0.682-16.039,7.838-16.65,16.785 c-1.25-0.272-2.547-0.421-3.878-0.421c-9.993,0-18.094,8.101-18.094,18.094c0,3.668,1.095,7.079,2.971,9.93 c-0.845,0.093-1.691,0.157-2.535,0.178c-11.562,0.286-24.469,10.208,2.689,6.415c27.158-3.793,64.265-0.9,83.626,0.572 c19.359,1.471,23.932-9.315,44.904-7.278c20.975,2.037,50.016,4.663,50.283-1.757C247.614,282.5,221.53,285.71,209.969,284.251z"/> <linearGradient id="SVGID_7_" gradientUnits="userSpaceOnUse" x1="290.5708" y1="110.1479" x2="309.6581" y2="215.8623"> <stop offset="1.000000e-08" style="stop-color:#FFF7F7"/> <stop offset="0.1362" style="stop-color:#F9F5F6"/> <stop offset="0.3169" style="stop-color:#E8F0F2"/> <stop offset="0.5226" style="stop-color:#CDE7ED"/> <stop offset="0.7467" style="stop-color:#A7DBE5"/> <stop offset="0.9834" style="stop-color:#76CBDB"/> <stop offset="1" style="stop-color:#73CADA"/> </linearGradient> <path fill-rule="evenodd" clip-rule="evenodd" fill="url(#SVGID_7_)" d="M365.976,186.68c-11.564-1.459-11.295-6.42-20.438-9.047 c-1.502-0.431-2.918-0.83-4.248-1.205c-1.092-5.002-3.805-9.511-7.654-13.113c-2.428-4.755-7.102-8.172-12.623-8.848 c-1.432-5.897-5.273-10.85-10.422-13.76c-4.805-5.289-11.73-8.613-19.439-8.613c-10.502,0-19.557,6.164-23.764,15.068 c-2.609,0.089-5.09,0.676-7.354,1.671c-8.927,0.682-16.039,7.838-16.65,16.785c-1.25-0.272-2.547-0.421-3.878-0.421 c-9.993,0-18.094,8.101-18.094,18.094c0,3.668,1.095,7.079,2.971,9.93c-0.845,0.093-1.691,0.157-2.535,0.178 c-11.562,0.286-24.469,10.208,2.689,6.415c27.158-3.793,64.265-0.9,83.626,0.572c19.359,1.471,23.932-9.315,44.904-7.278 c20.975,2.037,50.016,4.663,50.283-1.757C403.62,184.929,377.536,188.139,365.976,186.68z"/> <rect x="-63.427" y="368.512" fill-rule="evenodd" clip-rule="evenodd" fill="#6AC6D5" width="918.256" height="280.533"/> <g> <linearGradient id="SVGID_8_" gradientUnits="userSpaceOnUse" x1="62.4038" y1="435.1777" x2="155.9136" y2="435.1777"> <stop offset="1.000000e-08" style="stop-color:#B0DAE6"/> <stop offset="1" style="stop-color:#73CADA"/> </linearGradient> <path fill="url(#SVGID_8_)" d="M62.404,434.812c0.705-0.139,14.674-4.911,25.392-2.992c10.719,1.917,26.589,5.477,37.998,2.852 c11.409-2.63,25.245,0.92,29.466,0.932c4.22,0.009-12.896,0.713-25.56,1.884c-12.661,1.174-16.413,2.58-27.668,0.237 c-11.256-2.347-24.153-4.926-29.311-3.755C67.563,435.143,62.404,434.812,62.404,434.812z"/> <linearGradient id="SVGID_9_" gradientUnits="userSpaceOnUse" x1="30.0396" y1="438.9893" x2="97.9355" y2="438.9893"> <stop offset="1.000000e-08" style="stop-color:#B0DAE6"/> <stop offset="1" style="stop-color:#73CADA"/> </linearGradient> <path fill="url(#SVGID_9_)" d="M44.681,436.979c11.948-1.287,19.195,3.277,33.494,2.39c14.299-0.889,19.761-1.252,19.761-1.252 s-12.49,3.816-26.569,3c-14.081-0.813-22.166-3.439-27.791-2.565c-5.626,0.871-13.536,0.439-13.536,0.439L44.681,436.979z"/> <linearGradient id="SVGID_10_" gradientUnits="userSpaceOnUse" x1="84.3374" y1="443.4727" x2="152.2319" y2="443.4727"> <stop offset="1.000000e-08" style="stop-color:#B0DAE6"/> <stop offset="1" style="stop-color:#73CADA"/> </linearGradient> <path fill="url(#SVGID_10_)" d="M98.979,441.462c11.947-1.286,19.193,3.278,33.492,2.39s19.761-1.253,19.761-1.253 s-12.488,3.814-26.569,3.002c-14.08-0.816-22.166-3.44-27.791-2.567c-5.625,0.869-13.535,0.439-13.535,0.439L98.979,441.462z"/> </g> <g> <linearGradient id="SVGID_11_" gradientUnits="userSpaceOnUse" x1="260.9282" y1="445.0039" x2="331.6704" y2="445.0039"> <stop offset="1.000000e-08" style="stop-color:#B0DAE6"/> <stop offset="1" style="stop-color:#73CADA"/> </linearGradient> <path fill="url(#SVGID_11_)" d="M260.928,444.727c0.533-0.104,11.102-3.715,19.209-2.264c8.109,1.45,20.116,4.144,28.747,2.157 c8.631-1.988,19.098,0.696,22.292,0.705c3.192,0.007-9.756,0.539-19.336,1.425c-9.579,0.89-12.417,1.952-20.932,0.18 c-8.516-1.774-18.272-3.726-22.174-2.84C264.832,444.978,260.928,444.727,260.928,444.727z"/> <linearGradient id="SVGID_12_" gradientUnits="userSpaceOnUse" x1="229.54" y1="450.7734" x2="280.9048" y2="450.7734"> <stop offset="1.000000e-08" style="stop-color:#B0DAE6"/> <stop offset="1" style="stop-color:#73CADA"/> </linearGradient> <path fill="url(#SVGID_12_)" d="M240.616,449.251c9.04-0.974,14.522,2.48,25.339,1.808c10.817-0.672,14.95-0.947,14.95-0.947 s-9.449,2.888-20.101,2.271c-10.652-0.616-16.769-2.603-21.024-1.941c-4.256,0.659-10.24,0.332-10.24,0.332L240.616,449.251z"/> <linearGradient id="SVGID_13_" gradientUnits="userSpaceOnUse" x1="270.6177" y1="454.1641" x2="321.9814" y2="454.1641"> <stop offset="1.000000e-08" style="stop-color:#B0DAE6"/> <stop offset="1" style="stop-color:#73CADA"/> </linearGradient> <path fill="url(#SVGID_13_)" d="M281.693,452.643c9.039-0.973,14.521,2.48,25.338,1.809c10.817-0.673,14.95-0.948,14.95-0.948 s-9.448,2.887-20.101,2.271c-10.651-0.617-16.769-2.603-21.024-1.942c-4.255,0.659-10.239,0.334-10.239,0.334L281.693,452.643z"/> <linearGradient id="SVGID_14_" gradientUnits="userSpaceOnUse" x1="309.1431" y1="461.0078" x2="360.5068" y2="461.0078"> <stop offset="1.000000e-08" style="stop-color:#B0DAE6"/> <stop offset="1" style="stop-color:#73CADA"/> </linearGradient> <path fill="url(#SVGID_14_)" d="M320.219,459.486c9.039-0.973,14.521,2.48,25.338,1.809c10.817-0.673,14.95-0.948,14.95-0.948 s-9.448,2.886-20.101,2.271c-10.651-0.617-16.769-2.603-21.024-1.942c-4.255,0.659-10.239,0.334-10.239,0.334L320.219,459.486z"/> </g> <g> <linearGradient id="SVGID_15_" gradientUnits="userSpaceOnUse" x1="114.4946" y1="425.3281" x2="167.7422" y2="425.3281"> <stop offset="1.000000e-08" style="stop-color:#B0DAE6"/> <stop offset="1" style="stop-color:#73CADA"/> </linearGradient> <path fill="url(#SVGID_15_)" d="M114.495,425.118c0.401-0.077,8.355-2.795,14.458-1.704c6.104,1.092,15.141,3.119,21.637,1.625 c6.498-1.497,14.376,0.523,16.78,0.531c2.402,0.004-7.345,0.403-14.555,1.072c-7.21,0.668-9.347,1.471-15.755,0.133 c-6.41-1.334-13.753-2.802-16.691-2.138C117.432,425.31,114.495,425.118,114.495,425.118z"/> <linearGradient id="SVGID_16_" gradientUnits="userSpaceOnUse" x1="96.0654" y1="427.498" x2="134.7275" y2="427.498"> <stop offset="1.000000e-08" style="stop-color:#B0DAE6"/> <stop offset="1" style="stop-color:#73CADA"/> </linearGradient> <path fill="url(#SVGID_16_)" d="M104.402,426.354c6.804-0.733,10.93,1.865,19.072,1.359c8.142-0.505,11.253-0.711,11.253-0.711 s-7.113,2.172-15.13,1.707c-8.019-0.462-12.622-1.959-15.825-1.461c-3.203,0.496-7.707,0.25-7.707,0.25L104.402,426.354z"/> <linearGradient id="SVGID_17_" gradientUnits="userSpaceOnUse" x1="126.9844" y1="430.0508" x2="165.6455" y2="430.0508"> <stop offset="1.000000e-08" style="stop-color:#B0DAE6"/> <stop offset="1" style="stop-color:#73CADA"/> </linearGradient> <path fill="url(#SVGID_17_)" d="M135.32,428.905c6.804-0.73,10.931,1.867,19.072,1.36c8.143-0.506,11.253-0.713,11.253-0.713 s-7.111,2.172-15.129,1.709c-8.018-0.464-12.622-1.96-15.826-1.462c-3.203,0.496-7.706,0.252-7.706,0.252L135.32,428.905z"/> </g> <g> <linearGradient id="SVGID_18_" gradientUnits="userSpaceOnUse" x1="51.9312" y1="410.9688" x2="96.5728" y2="410.9688"> <stop offset="1.000000e-08" style="stop-color:#B0DAE6"/> <stop offset="1" style="stop-color:#73CADA"/> </linearGradient> <path fill="url(#SVGID_18_)" d="M51.931,410.794c0.336-0.066,7.005-2.344,12.122-1.43c5.118,0.917,12.695,2.615,18.141,1.362 c5.447-1.256,12.053,0.438,14.068,0.445c2.014,0.004-6.158,0.34-12.202,0.899c-6.045,0.56-7.836,1.233-13.208,0.112 c-5.375-1.12-11.531-2.351-13.994-1.793C54.394,410.953,51.931,410.794,51.931,410.794z"/> <linearGradient id="SVGID_19_" gradientUnits="userSpaceOnUse" x1="36.481" y1="412.7891" x2="68.8945" y2="412.7891"> <stop offset="1.000000e-08" style="stop-color:#B0DAE6"/> <stop offset="1" style="stop-color:#73CADA"/> </linearGradient> <path fill="url(#SVGID_19_)" d="M43.47,411.829c5.704-0.616,9.164,1.564,15.99,1.14c6.826-0.424,9.435-0.597,9.435-0.597 s-5.963,1.821-12.684,1.432c-6.723-0.387-10.582-1.644-13.268-1.225c-2.686,0.415-6.462,0.21-6.462,0.21L43.47,411.829z"/> <linearGradient id="SVGID_20_" gradientUnits="userSpaceOnUse" x1="94.8154" y1="411.7188" x2="127.2275" y2="411.7188"> <stop offset="1.000000e-08" style="stop-color:#B0DAE6"/> <stop offset="1" style="stop-color:#73CADA"/> </linearGradient> <path fill="url(#SVGID_20_)" d="M101.803,410.759c5.705-0.613,9.165,1.565,15.99,1.141c6.827-0.424,9.434-0.599,9.434-0.599 s-5.962,1.821-12.684,1.433c-6.721-0.387-10.582-1.642-13.268-1.224c-2.686,0.414-6.46,0.211-6.46,0.211L101.803,410.759z"/> </g> <g> <linearGradient id="SVGID_21_" gradientUnits="userSpaceOnUse" x1="64.4727" y1="404.1201" x2="109.1138" y2="404.1201"> <stop offset="1.000000e-08" style="stop-color:#B0DAE6"/> <stop offset="1" style="stop-color:#73CADA"/> </linearGradient> <path fill="url(#SVGID_21_)" d="M64.473,403.944c0.336-0.064,7.005-2.343,12.122-1.429c5.117,0.916,12.694,2.615,18.14,1.361 c5.448-1.255,12.053,0.44,14.068,0.445c2.015,0.004-6.157,0.34-12.202,0.9c-6.045,0.56-7.836,1.232-13.209,0.112 c-5.375-1.121-11.53-2.351-13.993-1.794C66.935,404.104,64.473,403.944,64.473,403.944z"/> <linearGradient id="SVGID_22_" gradientUnits="userSpaceOnUse" x1="49.0215" y1="405.9395" x2="81.4351" y2="405.9395"> <stop offset="1.000000e-08" style="stop-color:#B0DAE6"/> <stop offset="1" style="stop-color:#73CADA"/> </linearGradient> <path fill="url(#SVGID_22_)" d="M56.011,404.979c5.705-0.615,9.165,1.564,15.99,1.14c6.827-0.423,9.434-0.596,9.434-0.596 s-5.963,1.821-12.684,1.433c-6.723-0.389-10.582-1.645-13.268-1.226c-2.686,0.415-6.462,0.209-6.462,0.209L56.011,404.979z"/> <linearGradient id="SVGID_23_" gradientUnits="userSpaceOnUse" x1="74.9438" y1="408.0801" x2="107.356" y2="408.0801"> <stop offset="1.000000e-08" style="stop-color:#B0DAE6"/> <stop offset="1" style="stop-color:#73CADA"/> </linearGradient> <path fill="url(#SVGID_23_)" d="M81.932,407.12c5.704-0.613,9.164,1.564,15.99,1.14c6.827-0.424,9.434-0.598,9.434-0.598 s-5.962,1.821-12.684,1.433c-6.721-0.389-10.582-1.644-13.267-1.225c-2.686,0.415-6.461,0.21-6.461,0.21L81.932,407.12z"/> </g> <g> <linearGradient id="SVGID_24_" gradientUnits="userSpaceOnUse" x1="118.9766" y1="403.9033" x2="163.6177" y2="403.9033"> <stop offset="1.000000e-08" style="stop-color:#B0DAE6"/> <stop offset="1" style="stop-color:#73CADA"/> </linearGradient> <path fill="url(#SVGID_24_)" d="M118.977,403.728c0.336-0.064,7.005-2.343,12.122-1.428c5.118,0.915,12.694,2.614,18.14,1.361 c5.448-1.256,12.053,0.439,14.068,0.446c2.014,0.003-6.157,0.338-12.202,0.898c-6.044,0.56-7.836,1.232-13.209,0.111 c-5.375-1.12-11.53-2.351-13.994-1.791C121.439,403.888,118.977,403.728,118.977,403.728z"/> <linearGradient id="SVGID_25_" gradientUnits="userSpaceOnUse" x1="103.5259" y1="405.7236" x2="135.939" y2="405.7236"> <stop offset="1.000000e-08" style="stop-color:#B0DAE6"/> <stop offset="1" style="stop-color:#73CADA"/> </linearGradient> <path fill="url(#SVGID_25_)" d="M110.516,404.764c5.704-0.615,9.164,1.563,15.989,1.139c6.827-0.422,9.435-0.596,9.435-0.596 s-5.962,1.821-12.684,1.433c-6.723-0.389-10.582-1.645-13.268-1.226c-2.686,0.416-6.461,0.209-6.461,0.209L110.516,404.764z"/> <linearGradient id="SVGID_26_" gradientUnits="userSpaceOnUse" x1="129.4478" y1="407.8633" x2="161.8599" y2="407.8633"> <stop offset="1.000000e-08" style="stop-color:#B0DAE6"/> <stop offset="1" style="stop-color:#73CADA"/> </linearGradient> <path fill="url(#SVGID_26_)" d="M136.437,406.903c5.704-0.613,9.164,1.565,15.989,1.141c6.827-0.425,9.434-0.599,9.434-0.599 s-5.962,1.821-12.684,1.433c-6.721-0.389-10.582-1.642-13.267-1.225c-2.686,0.415-6.461,0.211-6.461,0.211L136.437,406.903z"/> </g> <g> <linearGradient id="SVGID_27_" gradientUnits="userSpaceOnUse" x1="217.5117" y1="414.3066" x2="278.2461" y2="414.3066"> <stop offset="1.000000e-08" style="stop-color:#B0DAE6"/> <stop offset="1" style="stop-color:#73CADA"/> </linearGradient> <path fill="url(#SVGID_27_)" d="M217.512,414.068c0.458-0.091,9.531-3.188,16.491-1.945c6.962,1.247,17.272,3.558,24.68,1.854 c7.411-1.709,16.397,0.597,19.139,0.605c2.74,0.006-8.377,0.463-16.601,1.224c-8.224,0.762-10.661,1.679-17.97,0.153 c-7.312-1.524-15.688-3.198-19.039-2.439C220.862,414.284,217.512,414.068,217.512,414.068z"/> <linearGradient id="SVGID_28_" gradientUnits="userSpaceOnUse" x1="196.4917" y1="416.7812" x2="240.5898" y2="416.7812"> <stop offset="1.000000e-08" style="stop-color:#B0DAE6"/> <stop offset="1" style="stop-color:#73CADA"/> </linearGradient> <path fill="url(#SVGID_28_)" d="M206,415.477c7.76-0.839,12.468,2.128,21.754,1.551c9.287-0.577,12.835-0.812,12.835-0.812 s-8.113,2.479-17.256,1.948c-9.146-0.526-14.397-2.236-18.05-1.666c-3.654,0.564-8.792,0.285-8.792,0.285L206,415.477z"/> <linearGradient id="SVGID_29_" gradientUnits="userSpaceOnUse" x1="275.8555" y1="415.3262" x2="319.9517" y2="415.3262"> <stop offset="1.000000e-08" style="stop-color:#B0DAE6"/> <stop offset="1" style="stop-color:#73CADA"/> </linearGradient> <path fill="url(#SVGID_29_)" d="M285.362,414.021c7.761-0.835,12.468,2.13,21.754,1.552c9.288-0.577,12.835-0.814,12.835-0.814 s-8.111,2.478-17.257,1.949c-9.144-0.526-14.396-2.233-18.05-1.665c-3.654,0.563-8.789,0.287-8.789,0.287L285.362,414.021z"/> </g> <g> <linearGradient id="SVGID_30_" gradientUnits="userSpaceOnUse" x1="234.5742" y1="404.9883" x2="295.3076" y2="404.9883"> <stop offset="1.000000e-08" style="stop-color:#B0DAE6"/> <stop offset="1" style="stop-color:#73CADA"/> </linearGradient> <path fill="url(#SVGID_30_)" d="M234.574,404.749c0.457-0.088,9.531-3.188,16.491-1.943c6.962,1.246,17.271,3.558,24.679,1.852 c7.412-1.707,16.398,0.6,19.139,0.606c2.741,0.005-8.376,0.462-16.6,1.225c-8.225,0.762-10.661,1.677-17.971,0.153 c-7.312-1.525-15.687-3.198-19.038-2.441C237.924,404.967,234.574,404.749,234.574,404.749z"/> <linearGradient id="SVGID_31_" gradientUnits="userSpaceOnUse" x1="213.5527" y1="407.4639" x2="257.6514" y2="407.4639"> <stop offset="1.000000e-08" style="stop-color:#B0DAE6"/> <stop offset="1" style="stop-color:#73CADA"/> </linearGradient> <path fill="url(#SVGID_31_)" d="M223.062,406.157c7.761-0.837,12.468,2.129,21.754,1.551c9.288-0.575,12.835-0.811,12.835-0.811 s-8.113,2.478-17.257,1.949c-9.146-0.528-14.396-2.237-18.05-1.667c-3.653,0.564-8.792,0.284-8.792,0.284L223.062,406.157z"/> <linearGradient id="SVGID_32_" gradientUnits="userSpaceOnUse" x1="248.8203" y1="410.375" x2="292.9165" y2="410.375"> <stop offset="1.000000e-08" style="stop-color:#B0DAE6"/> <stop offset="1" style="stop-color:#73CADA"/> </linearGradient> <path fill="url(#SVGID_32_)" d="M258.328,409.07c7.76-0.835,12.468,2.128,21.754,1.55c9.288-0.576,12.835-0.812,12.835-0.812 s-8.111,2.478-17.256,1.948c-9.145-0.528-14.396-2.235-18.05-1.666c-3.654,0.565-8.79,0.286-8.79,0.286L258.328,409.07z"/> </g> <g> <linearGradient id="SVGID_33_" gradientUnits="userSpaceOnUse" x1="308.7261" y1="404.6934" x2="369.46" y2="404.6934"> <stop offset="1.000000e-08" style="stop-color:#B0DAE6"/> <stop offset="1" style="stop-color:#73CADA"/> </linearGradient> <path fill="url(#SVGID_33_)" d="M308.726,404.454c0.457-0.088,9.531-3.188,16.492-1.942c6.962,1.245,17.271,3.557,24.679,1.853 c7.412-1.709,16.397,0.598,19.139,0.606c2.74,0.005-8.377,0.46-16.6,1.223c-8.224,0.762-10.662,1.677-17.971,0.151 c-7.312-1.523-15.687-3.198-19.039-2.437C312.077,404.672,308.726,404.454,308.726,404.454z"/> <linearGradient id="SVGID_34_" gradientUnits="userSpaceOnUse" x1="287.7056" y1="407.1699" x2="331.8032" y2="407.1699"> <stop offset="1.000000e-08" style="stop-color:#B0DAE6"/> <stop offset="1" style="stop-color:#73CADA"/> </linearGradient> <path fill="url(#SVGID_34_)" d="M297.215,405.864c7.76-0.837,12.467,2.127,21.752,1.549c9.288-0.574,12.835-0.811,12.835-0.811 s-8.112,2.478-17.256,1.949c-9.146-0.529-14.397-2.237-18.05-1.667c-3.654,0.565-8.791,0.284-8.791,0.284L297.215,405.864z"/> <linearGradient id="SVGID_35_" gradientUnits="userSpaceOnUse" x1="322.9722" y1="410.0801" x2="367.0684" y2="410.0801"> <stop offset="1.000000e-08" style="stop-color:#B0DAE6"/> <stop offset="1" style="stop-color:#73CADA"/> </linearGradient> <path fill="url(#SVGID_35_)" d="M332.48,408.775c7.76-0.835,12.467,2.129,21.753,1.552c9.288-0.578,12.835-0.814,12.835-0.814 s-8.111,2.478-17.256,1.948c-9.144-0.528-14.396-2.233-18.05-1.666c-3.654,0.565-8.79,0.287-8.79,0.287L332.48,408.775z"/> </g> <g> <linearGradient id="SVGID_36_" gradientUnits="userSpaceOnUse" x1="-100.4106" y1="472.8486" x2="57.2681" y2="472.8486"> <stop offset="1.000000e-08" style="stop-color:#B0DAE6"/> <stop offset="1" style="stop-color:#73CADA"/> </linearGradient> <path fill="url(#SVGID_36_)" d="M-100.411,472.232c1.187-0.232,24.743-8.282,42.817-5.048 c18.074,3.233,44.835,9.237,64.073,4.808c19.238-4.43,42.568,1.555,49.686,1.573c7.118,0.016-21.747,1.201-43.097,3.18 c-21.352,1.978-27.677,4.348-46.657,0.395c-18.979-3.953-40.726-8.305-49.425-6.326 C-91.711,472.791-100.411,472.232-100.411,472.232z"/> <linearGradient id="SVGID_37_" gradientUnits="userSpaceOnUse" x1="-154.9849" y1="479.2773" x2="-40.4976" y2="479.2773"> <stop offset="1.000000e-08" style="stop-color:#B0DAE6"/> <stop offset="1" style="stop-color:#73CADA"/> </linearGradient> <path fill="url(#SVGID_37_)" d="M-130.297,475.887c20.147-2.171,32.366,5.529,56.478,4.029 c24.111-1.5,33.321-2.111,33.321-2.111s-21.059,6.435-44.801,5.06s-37.378-5.798-46.862-4.327 c-9.485,1.469-22.824,0.741-22.824,0.741L-130.297,475.887z"/> <linearGradient id="SVGID_38_" gradientUnits="userSpaceOnUse" x1="-63.4268" y1="486.8379" x2="51.061" y2="486.8379"> <stop offset="1.000000e-08" style="stop-color:#B0DAE6"/> <stop offset="1" style="stop-color:#73CADA"/> </linearGradient> <path fill="url(#SVGID_38_)" d="M-38.739,483.447c20.147-2.172,32.366,5.529,56.478,4.029c24.111-1.5,33.322-2.113,33.322-2.113 s-21.059,6.436-44.802,5.06c-23.743-1.375-37.378-5.797-46.863-4.327c-9.484,1.47-22.823,0.742-22.823,0.742L-38.739,483.447z"/> </g> <g> <linearGradient id="SVGID_39_" gradientUnits="userSpaceOnUse" x1="24.4727" y1="456.8613" x2="182.1509" y2="456.8613"> <stop offset="1.000000e-08" style="stop-color:#B0DAE6"/> <stop offset="1" style="stop-color:#73CADA"/> </linearGradient> <path fill="url(#SVGID_39_)" d="M24.473,456.246c1.187-0.233,24.743-8.283,42.817-5.049c18.074,3.233,44.835,9.237,64.073,4.809 c19.238-4.43,42.568,1.554,49.686,1.572c7.118,0.017-21.747,1.201-43.097,3.18c-21.352,1.978-27.677,4.348-46.656,0.396 c-18.979-3.954-40.726-8.305-49.425-6.327C33.172,456.804,24.473,456.246,24.473,456.246z"/> <linearGradient id="SVGID_40_" gradientUnits="userSpaceOnUse" x1="-30.1021" y1="463.291" x2="84.3857" y2="463.291"> <stop offset="1.000000e-08" style="stop-color:#B0DAE6"/> <stop offset="1" style="stop-color:#73CADA"/> </linearGradient> <path fill="url(#SVGID_40_)" d="M-5.414,459.9c20.147-2.172,32.367,5.528,56.479,4.029c24.111-1.5,33.321-2.111,33.321-2.111 s-21.059,6.434-44.801,5.06c-23.743-1.376-37.378-5.799-46.863-4.328c-9.485,1.47-22.824,0.742-22.824,0.742L-5.414,459.9z"/> <linearGradient id="SVGID_41_" gradientUnits="userSpaceOnUse" x1="61.4561" y1="470.8496" x2="175.9438" y2="470.8496"> <stop offset="1.000000e-08" style="stop-color:#B0DAE6"/> <stop offset="1" style="stop-color:#73CADA"/> </linearGradient> <path fill="url(#SVGID_41_)" d="M86.144,467.46c20.147-2.171,32.366,5.529,56.479,4.029c24.111-1.5,33.321-2.112,33.321-2.112 s-21.059,6.436-44.802,5.059c-23.743-1.375-37.377-5.796-46.863-4.327c-9.484,1.471-22.823,0.742-22.823,0.742L86.144,467.46z"/> </g> <g> <linearGradient id="SVGID_42_" gradientUnits="userSpaceOnUse" x1="185.6289" y1="482.0391" x2="343.3071" y2="482.0391"> <stop offset="1.000000e-08" style="stop-color:#B0DAE6"/> <stop offset="1" style="stop-color:#73CADA"/> </linearGradient> <path fill="url(#SVGID_42_)" d="M185.629,481.424c1.187-0.233,24.743-8.283,42.817-5.049 c18.074,3.233,44.835,9.237,64.073,4.809c19.238-4.43,42.568,1.554,49.686,1.572c7.117,0.016-21.747,1.201-43.098,3.18 c-21.352,1.978-27.677,4.348-46.656,0.395c-18.979-3.953-40.726-8.305-49.425-6.326 C194.328,481.981,185.629,481.424,185.629,481.424z"/> <linearGradient id="SVGID_43_" gradientUnits="userSpaceOnUse" x1="149.8848" y1="461.0078" x2="264.3721" y2="461.0078"> <stop offset="1.000000e-08" style="stop-color:#B0DAE6"/> <stop offset="1" style="stop-color:#73CADA"/> </linearGradient> <path fill="url(#SVGID_43_)" d="M174.573,457.617c20.147-2.171,32.366,5.529,56.478,4.029c24.111-1.5,33.321-2.111,33.321-2.111 s-21.059,6.435-44.801,5.06c-23.743-1.375-37.378-5.798-46.863-4.327c-9.485,1.469-22.823,0.741-22.823,0.741L174.573,457.617z"/> <linearGradient id="SVGID_44_" gradientUnits="userSpaceOnUse" x1="241.4429" y1="468.5674" x2="355.9302" y2="468.5674"> <stop offset="1.000000e-08" style="stop-color:#B0DAE6"/> <stop offset="1" style="stop-color:#73CADA"/> </linearGradient> <path fill="url(#SVGID_44_)" d="M266.131,465.177c20.147-2.171,32.366,5.529,56.478,4.029c24.111-1.5,33.321-2.112,33.321-2.112 s-21.059,6.436-44.801,5.06c-23.743-1.375-37.378-5.797-46.863-4.327c-9.485,1.47-22.823,0.741-22.823,0.741L266.131,465.177z"/> </g> <path fill="#FEFFB0" d="M981.511,393.372c0,0-354.43,2.148-512.218,21.629c-71.196,8.79-129.779,36.994-86.227,48.897 c74.378,20.329,2.556,39.576,2.556,39.576s-75.445,19.724-179.596,33.723c-104.151,13.999-295.771,23.366-295.771,23.366 l-115.534,62.05l-73.934,513.633l1276.75,27.442l45.215-557.713l-91.594-193.562"/> <path fill-rule="evenodd" clip-rule="evenodd" fill="#FFEC80" d="M539.315,407.2c-40.831,4.597-166.449,55.081-53.479,61.39 s218.766,16.509,121.287,33.885c-97.478,17.375-281.385,63.341-522.737,74.729c-241.352,11.388-249.762-18.672-249.762-18.672 v470.337l1208.129,64.515l64.768-619.093l5.836-104.04C1113.356,370.25,580.146,402.603,539.315,407.2z"/> <path fill-rule="evenodd" clip-rule="evenodd" fill="#F2E079" d="M532.084,412.323c0,0-56.056,16.811-0.659,28.681 c55.396,11.871,216.053,8.706,246.849,39.307c30.796,30.6,21.563,42.471-31.854,56.32C693,550.479,49.537,591.612-83.051,595.28 c-132.587,3.667-54.246,131.335-54.246,131.335l-17.688,94.971c0,0,667.012,33.058,774.871,28.34 c107.859-4.718,437.277,11.761,437.277,11.761l90.709-307.024l-65.77-177.811L532.084,412.323z"/> <path fill-rule="evenodd" clip-rule="evenodd" fill="#D8C96C" d="M879.595,388.911c0,0-332.398,25.851-277.304,37.951 s261.903,10.451,253.652,41.252c-8.25,30.801,45.979,81.751-50.825,90.2s-917.628,94.438-917.628,94.438l29.459,148.295 l899.875,34.125l125.045-200.021L879.595,388.911z"/> <path fill="none" d="M65.934,427.45c0.002,0.046,0.005,0.105,0.008,0.159l1.479-7.131 C66.456,422.548,65.835,424.892,65.934,427.45z"/> <path fill="none" d="M266.907,431.02c0,0-0.109-0.163-0.296-0.449l0.289,0.689C266.904,431.106,266.907,431.02,266.907,431.02z"/> <g> <g> <path fill="#291910" d="M215.449,361.86c0,0,2.521,15.712,37.719,15.454c35.195-0.258,63.325-1.64,63.325-1.64l5.338-9.058 L215.449,361.86z"/> <rect x="257.765" y="262.105" transform="matrix(0.9987 0.051 -0.051 0.9987 16.3447 -12.8044)" fill="#291910" width="2.373" height="103.219"/> </g> <path fill="#F5F5F5" d="M263.833,275.631c0,0,3.874,21.502,3.574,47.951c-0.169,22.164-5.688,38.278-5.688,38.278 s14.454-6.483,27.202-6.483c15.922,0,30.645,8.504,30.645,8.504s-21.852-42.186-35.103-61.008 C271.211,284.053,263.833,275.631,263.833,275.631z"/> <path fill="#F5F5F5" d="M256.357,272.267c0,0-13.357,36.997-21.358,56.933c-6.321,14.66-16.953,29.39-16.953,29.39 s17.434-5.614,25.1-2.14c7.666,3.475,13.21,5.698,13.21,5.698s-3.008-29.38-2.016-44.941 C255.334,301.646,256.357,272.267,256.357,272.267z"/> <path fill="#D9D9D1" d="M244.394,320.61c1.596-8.31,4.606-17.549,7.606-25.523v-2.068c-4,11.071-9.992,25.917-14.015,35.943 c-5.647,13.099-15.338,26.26-15.338,26.26s7.323-2.325,14.097-2.828C237.93,344.731,241.221,332.169,244.394,320.61z"/> <path fill="#D9D9D1" d="M261.72,361.86c0,0,11.612-5.205,23.2-6.285c-0.108-4.661-0.89-22.171-6.562-44.398 c-3.213-12.594-6.405-22.095-8.849-28.56c-2.423-3.098-4.1-5.127-4.972-6.162l-0.269,1.851 c1.003,6.536,3.376,24.352,3.139,45.276C267.238,345.746,261.72,361.86,261.72,361.86z"/> <path fill="#F94557" d="M261.72,263.361c0,0,9.123-5.577,15.184-3.153c6.062,2.425,9.478,2.999,10.359,3.153 c0.882,0.153-4.651,3.128-4.651,3.128l3.991,2.757c0,0-12.564-3.968-17.964-1.543c-5.401,2.424-7.715,2.645-7.715,2.645 L261.72,263.361z"/> </g> <path fill="#3F7780" d="M219.921,379.251c0.673-0.132,14.022-4.694,24.265-2.861s25.408,5.234,36.311,2.726 c10.902-2.512,24.123,0.881,28.156,0.89c4.034,0.011-12.323,0.682-24.423,1.802c-12.1,1.122-15.684,2.465-26.44,0.225 c-10.755-2.239-23.08-4.706-28.009-3.585C224.851,379.566,219.921,379.251,219.921,379.251z"/> <path fill="#3F7780" d="M202.984,381.321c11.417-1.23,18.342,3.133,32.006,2.284c13.664-0.851,18.883-1.197,18.883-1.197 s-11.934,3.646-25.389,2.867c-13.455-0.779-21.182-3.285-26.557-2.452s-12.934,0.42-12.934,0.42L202.984,381.321z"/> <path fill="#3F7780" d="M289.379,383.463c11.418-1.229,18.343,3.134,32.006,2.284c13.665-0.851,18.884-1.197,18.884-1.197 s-11.934,3.647-25.39,2.867c-13.455-0.779-21.182-3.285-26.556-2.452c-5.375,0.833-12.934,0.42-12.934,0.42L289.379,383.463z"/> <path fill-rule="evenodd" clip-rule="evenodd" fill="#1B1A17" d="M476.326,191.728c-0.451-0.986-0.463-1.872-0.85-2.875 c-0.46-1.192-0.998-2.391-1.442-3.587c-0.067-0.181-0.69-0.479-0.942-0.533c-2.564-0.552-3.929-1.33-6.506-1.845 c-0.263-0.053-1.053-0.133-1.299-0.041c-1.232,0.466-2.351,1.268-3.516,1.831c-0.592,0.286-1.048,0.775-1.506,1.213 c-0.893,0.855-4.193,1.822-5.253,1.12c-0.315-0.209-0.472-0.757-0.413-1.119c0.24-1.5,1.348-2.803,3.917-3.406 c1.799-0.214,2.411-1.117,3.374-2.057c0.09-0.088,0.481-0.697,0.4-0.847c-0.936-1.718-2.396-3.515-3.438-5.191 c-0.187-0.301-0.95-0.419-1.478-0.523c-0.979-0.193-1.977-0.327-2.973-0.461c-0.893-0.12-1.819-0.131-2.683-0.329 c-0.942-0.216-1.96-0.417-2.673-1.272c0.49-0.126,0.86-0.267,1.248-0.314c2.629-0.319,5.261-0.622,7.893-0.92 c0.354-0.04,0.721-0.039,1.078-0.023c3.158,0.135,3.641,0.444,4.555,2.861c0.39,1.033,1.077,1.889,2.16,2.564 c0.627,0.392,1.11,0.343,1.721,0.031c0.654-0.335,1.336-0.65,2.05-0.891c0.845-0.284,1.693-0.379,2.463,0.239 c0.215,0.173,0.65,0.196,0.993,0.229c0.654,0.063,1.172,0.512,0.998,0.998c-0.057,0.159-0.562,0.387-0.641,0.34 c-0.58-0.348-1.052-0.119-1.537,0.109c-0.884,0.415-1.453,1.047-1.74,1.813c-0.075,0.202,0.115,0.612,0.338,0.717 c0.803,0.38,0.751,0.733,1.629,0.979c1.047,0.292,2.158,0.433,3.215,0.705c0.346,0.089,0.697,0.339,0.9,0.592 c2.338,2.907,1.84,6.025,0.965,9.155c-0.076,0.276-0.406,0.505-0.617,0.756C476.586,191.74,476.456,191.734,476.326,191.728z"/> <path fill-rule="evenodd" clip-rule="evenodd" fill="#1B1A17" d="M435.01,260.004c0.574-0.855,0.724-1.686,1.24-2.567 c0.615-1.048,1.304-2.09,1.906-3.144c0.09-0.159,0.719-0.343,0.961-0.355c2.479-0.12,3.871-0.638,6.354-0.723 c0.254-0.009,1.003,0.038,1.217,0.164c1.077,0.629,1.994,1.556,2.992,2.264c0.506,0.36,0.855,0.891,1.214,1.373 c0.698,0.941,3.624,2.362,4.723,1.867c0.327-0.147,0.558-0.637,0.56-0.987c0.011-1.446-0.818-2.84-3.119-3.806 c-1.643-0.48-2.074-1.423-2.824-2.455c-0.07-0.097-0.34-0.729-0.24-0.857c1.141-1.468,2.783-2.928,4.016-4.34 c0.223-0.254,0.953-0.246,1.461-0.262c0.941-0.029,1.893,0,2.842,0.028c0.852,0.026,1.717,0.159,2.553,0.107 c0.912-0.057,1.893-0.086,2.691-0.78c-0.438-0.195-0.762-0.384-1.114-0.488c-2.401-0.708-4.808-1.401-7.215-2.089 c-0.324-0.092-0.665-0.148-1.001-0.189c-2.966-0.363-3.464-0.148-4.693,1.979c-0.525,0.91-1.299,1.606-2.415,2.072 c-0.646,0.271-1.089,0.15-1.608-0.238c-0.558-0.416-1.146-0.818-1.773-1.154c-0.742-0.398-1.519-0.619-2.333-0.158 c-0.227,0.129-0.636,0.083-0.961,0.062c-0.62-0.042-1.173,0.299-1.087,0.782c0.027,0.158,0.465,0.451,0.545,0.419 c0.596-0.236,0.998,0.052,1.416,0.341c0.758,0.526,1.189,1.208,1.338,1.973c0.039,0.201-0.203,0.556-0.427,0.621 c-0.809,0.231-0.815,0.572-1.671,0.666c-1.021,0.112-2.08,0.071-3.107,0.163c-0.337,0.03-0.703,0.21-0.932,0.416 c-2.635,2.367-2.658,5.371-2.331,8.446c0.028,0.271,0.3,0.538,0.458,0.807C434.764,259.976,434.887,259.99,435.01,260.004z"/> <path fill-rule="evenodd" clip-rule="evenodd" fill="#1B1A17" d="M483.971,278.049c0.018-0.614-0.135-1.114-0.148-1.729 c-0.016-0.731,0-1.476-0.023-2.207c-0.004-0.111,0.206-0.361,0.303-0.425c0.982-0.648,1.42-1.265,2.414-1.895 c0.102-0.064,0.42-0.214,0.539-0.194c0.602,0.1,1.213,0.403,1.803,0.566c0.299,0.083,0.577,0.298,0.848,0.484 c0.525,0.363,2.086,0.472,2.408-0.062c0.097-0.159,0.065-0.487-0.022-0.684c-0.366-0.812-1.062-1.398-2.249-1.4 c-0.795,0.117-1.212-0.31-1.783-0.712c-0.053-0.038-0.324-0.329-0.316-0.424c0.092-1.089,0.391-2.292,0.533-3.372 c0.025-0.194,0.326-0.361,0.531-0.489c0.377-0.237,0.773-0.444,1.17-0.651c0.354-0.185,0.742-0.314,1.07-0.539 c0.359-0.246,0.753-0.492,0.902-1.067c-0.229-0.007-0.41-0.037-0.58-0.013c-1.164,0.167-2.324,0.343-3.486,0.523 c-0.155,0.024-0.311,0.073-0.457,0.129c-1.307,0.492-1.455,0.729-1.414,2.209c0.018,0.633-0.121,1.204-0.458,1.727 c-0.195,0.303-0.407,0.34-0.719,0.245c-0.335-0.103-0.678-0.189-1.021-0.231c-0.405-0.049-0.779,0.01-0.994,0.459 c-0.061,0.125-0.239,0.196-0.378,0.26c-0.265,0.122-0.403,0.442-0.245,0.692c0.052,0.082,0.305,0.144,0.33,0.107 c0.184-0.272,0.422-0.205,0.666-0.141c0.445,0.117,0.795,0.398,1.053,0.791c0.066,0.104,0.059,0.359-0.017,0.447 c-0.271,0.319-0.188,0.512-0.514,0.765c-0.39,0.303-0.833,0.528-1.229,0.82c-0.13,0.096-0.234,0.283-0.275,0.452 c-0.472,1.943,0.287,3.63,1.205,5.276c0.081,0.145,0.261,0.23,0.395,0.344C483.863,278.09,483.917,278.069,483.971,278.049z"/> <g> <polygon fill="#FFFFFF" points="602.025,97.949 570.408,70.824 538.792,97.949 "/> <polyline fill="#FFFFFF" points="541.022,102.239 541.022,119.882 549.491,102.239 556.951,119.882 565.017,102.239 573.485,119.882 581.152,102.239 589.012,119.073 596.386,102.49 601.109,119.882 602.025,102.239 "/> <polygon fill="#1B1A17" points="575.307,71.005 568.532,71.005 571.92,41.403 "/> <polygon fill="#1B1A17" points="610.496,100.617 571.92,67.521 533.344,100.617 "/> <polygon fill="#141414" points="571.685,67.723 533.344,100.617 533.438,100.617 561.467,93.936 "/> <g> <path fill="#FD220E" d="M612.968,113.483v-0.039c0,0.014-0.003,0.026-0.003,0.039H612.968z"/> <path fill="#FD220E" d="M530.198,113.483c0-0.013-0.003-0.025-0.003-0.039v0.039H530.198z"/> <path fill="#FD220E" d="M612.968,101.514c0-3.776-18.529-8.492-41.385-8.492c-22.858,0-41.388,4.716-41.388,8.492 c0,0.013,0.003,0.026,0.003,0.039h-0.003v11.891c0-3.776,18.529-8.493,41.388-8.493c22.855,0,41.385,4.717,41.385,8.493 v-11.891h-0.003C612.965,101.541,612.968,101.527,612.968,101.514z"/> </g> <path fill="#A61004" d="M612.968,113.5c0,3.775-18.529,6.836-41.385,6.836c-22.858,0-41.388-3.061-41.388-6.836 c0-3.777,18.529-8.494,41.388-8.494C594.438,105.007,612.968,109.723,612.968,113.5z"/> <path fill="#333333" d="M609.746,115.695c0,3.482-17.088,6.305-38.163,6.305c-21.077,0-38.164-2.822-38.164-6.305 c0-3.483,17.087-7.832,38.164-7.832C592.658,107.863,609.746,112.211,609.746,115.695z"/> <path fill="#FFFFFF" d="M571.583,111.897c-18.401,0-33.315,3.798-33.315,6.836v24.15l66.629-0.596v-23.555 C604.896,115.695,589.982,111.897,571.583,111.897z"/> <polygon fill="#019DC3" points="604.896,138.682 600.746,115.755 600.745,115.755 591.381,137.665 581.497,112.29 571.583,136.771 561.397,112.292 561.397,112.292 552.169,137.517 542.3,116.104 538.182,138.706 538.154,141.393 604.896,142.288 "/> <path fill="#292929" d="M538.268,131.829v10.715l15.19,0.204l51.438-0.46v-10.057l-2.892-15.968 c-0.678-0.3-1.463-0.596-2.35-0.883l-8.225,19.243l-8.668-22.252c-0.808-0.07-1.63-0.131-2.463-0.187l-8.732,21.558 l-8.961-21.541c-0.837,0.057-1.663,0.12-2.472,0.191l-8.088,22.11l-8.702-18.881c-0.027-0.058-0.069-0.104-0.104-0.155 c-0.806,0.269-1.521,0.544-2.143,0.823L538.268,131.829z M551.125,137.998c0.195,0.423,0.627,0.692,1.092,0.667 c0.465-0.019,0.873-0.316,1.032-0.753l8.218-22.462l9.053,21.762c0.18,0.429,0.599,0.708,1.063,0.708c0.001,0,0.003,0,0.005,0 c0.466-0.002,0.885-0.286,1.06-0.718l8.828-21.798l8.834,22.678c0.17,0.435,0.586,0.725,1.053,0.733 c0.476-0.005,0.893-0.269,1.077-0.698l7.857-18.387l3.45,19.055v2.337l-64.432-0.864l0.017-1.443l3.447-18.925L551.125,137.998z "/> <path fill="#1B1A17" d="M620.972,145.779c0-4.506-22.112-10.134-49.389-10.134c-27.278,0-49.392,5.628-49.392,10.134 c0,0.016,0.004,0.032,0.004,0.047h-0.004v20.075h98.78v-20.075h-0.003C620.969,145.811,620.972,145.795,620.972,145.779z"/> <path fill="#010204" d="M561.467,135.905c-22.426,1.154-39.275,5.941-39.275,9.875c0,0.016,0.004,0.032,0.004,0.047h-0.004 v20.075h39.275V135.905z"/> <path fill="#010204" d="M620.972,165.998c0,4.507-22.112,8.159-49.389,8.159c-27.278,0-49.392-3.652-49.392-8.159 s22.113-10.135,49.392-10.135C598.859,155.863,620.972,161.491,620.972,165.998z"/> <path fill="#333333" d="M617.126,168.618c0,4.155-20.392,7.523-45.543,7.523c-25.154,0-45.545-3.369-45.545-7.523 c0-4.157,20.391-9.347,45.545-9.347C596.734,159.271,617.126,164.461,617.126,168.618z"/> <path fill="#FD220E" d="M610.374,173.682c0.626-0.462,0.967-0.944,0.967-1.438c0-3.626-17.8-8.159-39.758-8.159 c-21.96,0-39.76,4.533-39.76,8.159c0,0.494,0.342,0.975,0.967,1.438l-4.196,49.526c12.481-3.185,27.161-5.026,42.878-5.026 c15.813,0,30.572,1.862,43.104,5.082L610.374,173.682z"/> <path fill="#CE1305" d="M566.799,218.242V164.16c-19.701,0.592-34.976,4.726-34.976,8.084c0,0.494,0.342,0.975,0.967,1.438 l-4.196,49.526C539.83,220.342,552.848,218.569,566.799,218.242z"/> <path fill="#FFFFFF" d="M618.009,263.796l-1.675-19.766l-0.946-11.163l-0.812-9.604c-12.531-3.22-27.29-5.082-43.104-5.082 c-15.717,0-30.396,1.841-42.878,5.026l-0.814,9.628l-0.949,11.193l-1.677,19.801l-4.834,57.032 c14.035-2.527,31.807-4.041,51.152-4.041c19.45,0,37.307,1.531,51.374,4.081L618.009,263.796z"/> <path fill="#DDCEB8" d="M566.799,218.242c-13.951,0.327-26.969,2.101-38.205,4.967l-0.814,9.628l-0.949,11.193l-1.677,19.801 l-4.834,57.032c12.896-2.322,28.951-3.785,46.479-4.008V218.242z"/> <path fill="#1B1A17" d="M627.177,372.019l-1.921-22.667l-0.426-5.031l-1.984-23.417c-14.067-2.55-31.924-4.081-51.374-4.081 c-19.346,0-37.117,1.514-51.152,4.041l-1.982,23.414l-0.434,5.116l-1.92,22.67l-5.359,63.265h60.959h60.956L627.177,372.019z"/> <path fill="#010204" d="M566.799,429.334V316.855c-17.528,0.223-33.583,1.686-46.479,4.008l-1.982,23.414l-0.434,5.116 l-1.92,22.67l-4.853,57.271H566.799z"/> <g> <g> <path d="M548.481,194.062c-1.766,0.155-3.533,0.396-5.299,0.725c0.154-2.908,0.309-5.814,0.464-8.721 c1.708-0.31,3.419-0.538,5.127-0.686C548.676,188.274,548.578,191.169,548.481,194.062z"/> <path d="M555.622,193.917c-1.743-0.083-3.497-0.078-5.257,0.014c0.077-2.892,0.153-5.784,0.229-8.676 c1.702-0.088,3.4-0.095,5.086-0.02C555.661,188.128,555.642,191.022,555.622,193.917z"/> <path d="M548.052,206.83c-1.852,0.166-3.707,0.428-5.557,0.785c0.172-3.19,0.342-6.38,0.512-9.569 c1.787-0.335,3.578-0.583,5.365-0.741C548.265,200.48,548.158,203.655,548.052,206.83z"/> <path d="M555.534,206.684c-1.826-0.095-3.664-0.093-5.508,0.003c0.085-3.171,0.168-6.344,0.252-9.515 c1.781-0.094,3.557-0.098,5.32-0.013C555.577,200.334,555.555,203.509,555.534,206.684z"/> </g> <path d="M557.146,182.285c-4.773-0.341-9.646-0.02-14.483,0.954c-0.405,0.081-0.81,0.167-1.215,0.257 c-0.065,0.015-0.132,0.029-0.198,0.045c-0.553,8.757-1.106,17.517-1.659,26.28c0.541-0.548,1.087-1.09,1.63-1.624 c0.446-7.71,0.891-15.418,1.338-23.125c4.51-0.912,9.052-1.258,13.516-1.029C556.433,183.454,556.789,182.868,557.146,182.285z "/> </g> <g> <g> <path d="M561.427,260.979c-2.46-0.007-4.921,0.049-7.379,0.166c0.085-4.064,0.171-8.128,0.258-12.193 c2.38-0.105,4.76-0.154,7.141-0.145C561.44,252.863,561.434,256.922,561.427,260.979z"/> <path d="M571.417,261.34c-2.452-0.171-4.907-0.282-7.363-0.333c-0.021-4.056-0.044-8.113-0.067-12.169 c2.376,0.05,4.751,0.157,7.123,0.321C571.212,253.219,571.315,257.279,571.417,261.34z"/> <path d="M561.397,278.878c-2.58-0.002-5.16,0.064-7.736,0.197c0.095-4.459,0.191-8.917,0.287-13.376 c2.489-0.119,4.98-0.176,7.472-0.171C561.413,269.977,561.405,274.427,561.397,278.878z"/> <path d="M571.867,279.254c-2.57-0.185-5.143-0.301-7.716-0.352c-0.024-4.449-0.049-8.898-0.072-13.349 c2.484,0.05,4.971,0.162,7.453,0.336C571.643,270.344,571.755,274.798,571.867,279.254z"/> </g> <path d="M573.036,245.057c-6.733-0.555-13.495-0.651-20.236-0.289c-0.565,0.031-1.13,0.064-1.694,0.101 c-0.092,0.007-0.185,0.013-0.276,0.02c-0.384,12.218-0.767,24.438-1.15,36.659c0.738-0.645,1.479-1.284,2.218-1.918 c0.278-10.769,0.56-21.534,0.837-32.3c6.287-0.343,12.59-0.287,18.874,0.168C572.083,246.683,572.561,245.869,573.036,245.057z "/> </g> <g> <g> <polygon fill="#5E5E5E" points="584.458,362.655 577.081,362.641 577.34,350.461 584.478,350.482 "/> <polygon fill="#5E5E5E" points="594.446,362.676 587.083,362.66 587.016,350.491 594.139,350.516 "/> <polygon fill="#5E5E5E" points="584.429,380.554 576.695,380.554 576.982,367.191 584.45,367.203 "/> <polygon fill="#5E5E5E" points="594.896,380.558 587.18,380.554 587.106,367.207 594.56,367.219 "/> </g> <polygon fill="#010204" points="596.067,346.273 575.835,346.198 574.138,346.193 573.861,346.193 572.71,382.766 574.932,381.007 575.768,348.758 594.637,348.822 "/> </g> <path fill="#91CD46" d="M480.031,409.695c-3.428,0-28.104,4.112-33.59,15.767c-5.483,11.653,6.17,25.71,30.848,25.879 s78.147,0,78.147,0l67.409-2.024c0,0-88.639-15.927-99.452-26.506c-10.813-10.577-15.943-26.824-26.226-22.025 C486.886,405.582,480.031,409.695,480.031,409.695z"/> <path fill="#83B43A" d="M476.978,436.639c-21.544-10.661-2.665-19.769,3.109-26.876c0.054-0.064,0.096-0.123,0.146-0.186 c-0.131,0.076-0.201,0.118-0.201,0.118c-3.428,0-28.104,4.112-33.59,15.767c-5.483,11.653,6.17,25.71,30.848,25.879 s78.147,0,78.147,0l46.38-1.393c-2.872-0.556-6.444-1.059-10.874-1.458C567.205,446.35,498.522,447.299,476.978,436.639z"/> <ellipse fill="#83B43A" cx="540.396" cy="422.058" rx="26.198" ry="16.69"/> <ellipse fill="#91CD46" cx="547.164" cy="422.483" rx="19.365" ry="16.265"/> <path fill="#91CD46" d="M556.241,438.748c0,0-0.51-15.506,14.485-11.809c14.994,3.694,22.364,6.999,33.546-0.88 s20.837-19.313,43.964-9.149c23.127,10.165,10.166,5.147,10.166,5.147s-6.606-21.919,6.354-25.986 c12.961-4.065,40.916,7.858,34.816,19.178s-10.929,20.706-3.56,25.162c7.371,4.454,10.675,7.757,6.607,9.029 c-4.065,1.27-71.365,7.115-90.192,6.861c-18.829-0.255-53.264,1.016-42.02-1.018c11.246-2.032,33.609-8.133,24.715-7.877 c-8.894,0.254-45.849-2.796-36.394-3.559c9.456-0.764,15.414-1.798,14.398-3.051 C572.111,439.546,556.241,438.748,556.241,438.748z"/> <path fill="#83B43A" d="M672.38,418.181c-3.84-6.912-13.216-12.812,6.127-22.04c-5.046-1.083-10.021-1.24-13.751-0.069 c-10.355,3.249-8.22,17.883-6.943,23.642C664.755,428.607,677.348,427.124,672.38,418.181z"/> <g> <path fill="#CE1305" d="M561.467,105.262V93.333c-17.967,1.108-31.271,4.982-31.271,8.181c0,0.013,0.003,0.026,0.003,0.039 h-0.003v11.891C530.195,110.244,543.5,106.371,561.467,105.262z"/> <path fill="#CE1305" d="M530.198,113.483c0-0.013-0.003-0.025-0.003-0.039v0.039H530.198z"/> </g> </g> <g> <ellipse opacity="0.6" fill="#A59953" cx="254.487" cy="557.53" rx="39.137" ry="8.137"/> <circle fill="#FFFFFF" cx="262.975" cy="526.124" r="33.729"/> <g> <g> <path fill="#16A7CA" d="M271.824,506.816l-1.648,2.541c0,0,6.712-1.678,17.955,12.458c3.994,4.931,5.714,10.109,6.246,14.809 c1.969-5.988,2.292-12.594,0.557-19.141c-0.39-1.472-0.88-2.889-1.445-4.258C281.761,499.145,271.824,506.816,271.824,506.816 z"/> <path fill="#16A7CA" d="M267.846,506.1l2.557-0.677c0,0,2.439-6.207,1.326-11.695c-3.014-0.877-6.169-1.338-9.383-1.336 c1.347,1.412,2.534,3.032,3.294,4.843C267.92,502.739,267.846,506.1,267.846,506.1z"/> <path fill="#16A7CA" d="M230.325,515.49c7.574-3.025,13.822-6.07,23.186-6.306c9.777-0.246,12.505,2.259,12.505,2.259 l0.133-3.812c0,0-7.977-6.715-20.654-6.465c-2.107,0.043-4.296,0.254-6.468,0.57 C235.046,505.547,232.062,510.281,230.325,515.49z"/> <path fill="#16A7CA" d="M245.1,555.113c4.684-6.067,11.044-14.493,14.639-20.05c6.173-9.541,9.682-19.402,9.682-19.402 l-1.746-2.273c0,0-15.764,9.122-23.952,16.028c-5.957,5.024-8.855,9.443-10.94,12.976 C235.722,547.744,240.017,552.092,245.1,555.113z"/> <path fill="#16A7CA" d="M284.941,551.147c0.411-3.338,0.576-7.473,0.097-12.269c-1.346-13.448-10.816-24.673-10.816-24.673 l-2.58,0.683c0,0,3.956,7.78,4.341,25.533c0.163,7.529-1.196,13.361-2.891,17.661 C277.6,556.569,281.596,554.176,284.941,551.147z"/> </g> </g> <path fill="#C5D0D0" d="M241.347,532.027c-3.374-12.732-0.963-25.633,5.606-35.924c-13.832,7.068-21.368,23.034-17.228,38.662 c4.059,15.311,18.019,25.353,33.178,25.083C252.629,554.072,244.604,544.319,241.347,532.027z"/> <g> <path fill="#0486AD" d="M249.88,548.848c-3.884-4.799-6.849-10.467-8.533-16.82c-0.026-0.102-0.045-0.202-0.071-0.303 c-4.24,4.178-6.726,7.671-8.494,10.666c0.004,0.008,0.008,0.016,0.012,0.021c0.361,0.657,0.743,1.298,1.145,1.924 c0.008,0.014,0.017,0.026,0.025,0.04c0.799,1.243,1.676,2.422,2.619,3.535c0.033,0.039,0.066,0.078,0.1,0.117 c0.938,1.098,1.943,2.129,3.007,3.09c0.029,0.026,0.058,0.054,0.087,0.08c0.521,0.468,1.058,0.918,1.605,1.352 c0.053,0.042,0.107,0.083,0.16,0.126c1.095,0.854,2.24,1.641,3.428,2.354c0.045,0.027,0.09,0.053,0.134,0.08 C246.575,553.201,248.214,551.06,249.88,548.848z"/> <path fill="#0486AD" d="M240.691,511.733c0.721-3.651,1.887-7.18,3.456-10.514c-1.684,0.087-3.401,0.267-5.11,0.517 c-0.035,0.032-0.071,0.064-0.106,0.098c-0.421,0.407-0.831,0.825-1.229,1.252c-0.112,0.12-0.22,0.243-0.33,0.363 c-0.324,0.358-0.641,0.722-0.948,1.092c-0.093,0.112-0.188,0.223-0.28,0.336c-0.382,0.472-0.752,0.952-1.107,1.442 c-0.057,0.08-0.112,0.162-0.169,0.243c-0.318,0.445-0.624,0.899-0.919,1.36c-0.06,0.091-0.12,0.184-0.178,0.275 c-0.684,1.091-1.305,2.22-1.861,3.381c-0.028,0.061-0.059,0.122-0.087,0.183c-0.561,1.191-1.055,2.418-1.476,3.672 c-0.006,0.019-0.012,0.037-0.019,0.056C233.518,514.215,237.145,512.861,240.691,511.733z"/> </g> <ellipse transform="matrix(0.8527 0.5224 -0.5224 0.8527 306.3984 -66.1035)" fill="#F4FA1E" cx="270.419" cy="510.277" rx="7.514" ry="6.084"/> </g> </g> </g> </g> </svg>