<?xml version="1.0" encoding="UTF-8"?>
<svg viewBox="0 0 150 150" xmlns="http://www.w3.org/2000/svg">
 <g transform="translate(-286.25 -42.5)" fill-rule="evenodd">
  <path d="m378.12 120.61c0 2.94-9.8574 5.7082-25.595 5.7082s-24.566-2.5772-24.566-5.5171 8.8286-5.1349 24.566-5.1349 25.595 2.0039 25.595 4.9438z" fill="#ff0" fill-opacity=".5"/>
  <path d="m374.53 179.91c0 3.8804-9.0202 7.0298-20.134 7.0298s-20.134-3.1493-20.134-7.0298 9.0202-7.0298 20.134-7.0298 20.134 3.1493 20.134 7.0298z" fill="#7573ae" fill-opacity=".14902" stroke="#000" stroke-linejoin="round" stroke-width="2.5"/>
  <path transform="matrix(.6407 .76779 -.76779 .6407 285.03 -133)" d="m249.65 121.76 21.915 6.3659s1.25 17.812-0.625 21.875c-3.75 0.9375-22.812-4.0625-22.812-7.1875s-2.8526-15.428 1.5224-21.053z" fill="#7573ae" fill-opacity=".15" stroke="#000" stroke-width="1.25"/>
  <path transform="matrix(.6407 .76779 -.76779 .6407 285.03 -133)" d="m271.56 128.12s1.25 20.938-0.3125 21.875 15.625-3.4375 15.625-6.875-0.625-17.188-1.5625-19.062-13.75 2.5-13.75 4.0625z" fill="#7573ae" fill-opacity=".15" stroke="#000" stroke-width="1.25"/>
  <path transform="matrix(.6407 .76779 -.76779 .6407 285.03 -133)" d="m250 121.88c1.5625 0.625 17.188 4.375 21.25 6.25 0.9375-0.9375 8.1837-5.222 13.184-4.9096 2.1875 1.5625-12.246-5.0904-16.309-7.278-2.8125 2.8125-13.438 1.5625-18.125 5.9375z" fill="#7573ae" fill-opacity=".15" stroke="#000" stroke-width="1.25"/>
  <path d="m380.82 90.742c0 4.3159-12.772 7.8187-28.509 7.8187s-28.509-3.5028-28.509-7.8187 12.772-7.8187 28.509-7.8187 28.509 3.5028 28.509 7.8187z" fill="#7573ae" fill-opacity=".15" stroke="#000" stroke-linejoin="round" stroke-width="2.5"/>
  <path d="m368.12 176.56 10.312-100.62c-0.3125-1.875 0.9375-4.0625 3.125-4.0625s47.185-9.7268 48.842-9.7268c1.8946-0.94732 0.58571-4.148-1.5723-4.2895-3.579-0.61518-48.52 8.3913-51.02 9.0163s-4.6875 2.1875-5.625 7.1875c1.25 5.3125-9.0625 101.56-9.0625 101.56s0.625 4.6875 5 0.9375z" fill="#fff" stroke="#000" stroke-linejoin="round" stroke-width="2.5"/>
  <path d="m327.96 121.1 6.6764 60.046c3.2133 3.1508 8.0986 4.9505 20.637 5.4527 8.3588-0.67992 12.964-0.79992 18.807-5.4527 0.59706-0.90656 4.1672-59.88 4.1672-59.88-2.0897 2.7197-10.602 4.8559-24.632 5.0825-13.605 0.1911-25.655-2.5286-25.655-5.2482z" fill="#ff0" fill-opacity=".5"/>
  <g transform="matrix(.71828 0 0 .73349 247.6 21.934)">
   <path transform="matrix(1.0738 0 0 1.051 -8.2968 -4.4385)" d="m153.47 91.761c0 22.747-19.841 41.209-44.287 41.209s-44.287-18.461-44.287-41.209 19.841-41.209 44.287-41.209 44.287 18.461 44.287 41.209z" fill="#ffea00" stroke="#000" stroke-linejoin="round" stroke-width="2.3533"/>
   <path d="m152.99 91.998c3.3493 19.079-30.558 43.374-44.287 40.024-20.093-2.6794-45.962-18.936-42.613-39.689-2.0096-17.404 18.166-40.359 42.613-40.359 25.116 1.3397 40.603 13.242 44.287 40.024z" fill="#fff"/>
   <path d="m111.87 87.893s3.3493-30.144 5.0239-29.474c3.6842-2.3445 13.397 2.3445 12.392 6.3637 0.33493 3.0144-17.081 21.435-17.416 23.11z" fill="#ffdb00" stroke="#000" stroke-linejoin="round" stroke-width="2.5"/>
   <path d="m81.388 75.501 24.45 14.067-15.072-25.12c-6.6986-1.3397-11.053 3.0144-9.378 11.053z" fill="#ffdb00" stroke="#000" stroke-linejoin="round" stroke-width="2.5"/>
   <path d="m108.85 88.563-14.402-25.12c0-5.6938 13.397-9.0431 15.742-4.3541 2.3445 3.0144-1.3397 29.474-1.3397 29.474z" fill="#ffdb00" stroke="#000" stroke-linejoin="round" stroke-width="2.5"/>
   <path d="m114.88 88.898s16.746-22.44 18.756-20.766c5.024-2.0096 13.397 4.689 8.7082 13.062 0.33493 2.0096-27.464 5.3589-27.464 7.7034z" fill="#ffdb00" stroke="#000" stroke-linejoin="round" stroke-width="2.5"/>
   <path d="m113.54 92.247s24.785-7.3684 29.809-6.3637c3.6842 1.3397 3.6842 18.086-3.3493 17.081-3.0144 0.66986-25.12-10.048-26.459-10.718z" fill="#ffdb00" stroke="#000" stroke-linejoin="round" stroke-width="2.5"/>
   <path d="m112.87 94.927s23.445 10.718 25.12 14.067c5.3589 5.3589-6.0287 11.388-10.383 10.718-0.66986 1.6746-16.746-25.79-14.737-24.785z" fill="#ffdb00" stroke="#000" stroke-linejoin="round" stroke-width="2.5"/>
   <path d="m110.53 95.932s13.397 25.79 12.727 27.464-9.0431 7.3684-15.407 2.6794c-0.66986-2.6794 0.66987-29.809 2.6794-30.144z" fill="#ffdb00" stroke="#000" stroke-linejoin="round" stroke-width="2.5"/>
   <path d="m107.18 95.932s-4.0192 28.804-6.3637 29.474c-3.0144 2.0096-11.723-0.33492-13.397-6.6986 1.0048-2.6794 16.746-23.445 19.761-22.775z" fill="#ffdb00" stroke="#000" stroke-linejoin="round" stroke-width="2.5"/>
   <path d="m84.402 115.36c3.6842-2.3445 17.416-19.426 18.421-21.101s-27.464 3.3493-27.129 5.0239c-2.0096 3.0144 3.0144 16.746 8.7082 16.077z" fill="#ffdb00" stroke="#000" stroke-linejoin="round" stroke-width="2.5"/>
   <path d="m74.354 94.257c5.3589-0.33493 22.775-3.6842 26.459-3.0144s-21.101-13.732-21.101-11.388c-4.689 1.3397-12.057 8.7082-5.3589 14.402z" fill="#ffdb00" stroke="#000" stroke-linejoin="round" stroke-width="2.5"/>
  </g>
  <path d="m323.8 90.908 10.448 89.832c0.29853 2.6617 8.9558 6.9869 21.494 6.3215 8.3588-0.99814 13.135-0.33272 18.807-6.3215 0.59705-1.3308 6.0532-89.308 6.0532-89.308-2.0897 3.9925-13.516 7.1286-27.547 7.4613-13.434 0-29.256-3.9925-29.256-7.9851z" fill="#7573ae" fill-opacity=".15" stroke="#000" stroke-linejoin="round" stroke-width="2.5"/>
  <path d="m325.94 95.213c0.82469 0.20617 14.188 5.4188 18.019 4.0755 1.5625-0.3125 4.362 83.199 3.9627 85.792-4.3167 0.11929-8.7889-1.3628-12.294-4.4554l-9.6875-85.412z" fill="#fff" fill-opacity=".5"/>
 </g>
</svg>
