<?xml version="1.0" encoding="UTF-8"?>
<svg enable-background="new 0 0 277.662 144.173" viewBox="0 0 277.662 144.173" xmlns="http://www.w3.org/2000/svg">
 <path d="m106.638,129.803c-35.68,0-71.031,1.983-106.638,4.204 35.616,1.191 71.302,7.169 106.907,9.39 35.902,2.239 72.012-.836 107.816-3.302 16.323-1.125 32.81-1.882 49.168-1.882 4.395,0 21.51-.212 9.667-3.168-8.726-2.178-17.036.363-25.879.363-34.215,0-68.179-3.063-102.335-4.612-12.939-.588-25.756-.993-38.706-.993" fill="#e6e6e6" fill-rule="evenodd"/>
 <path d="m94.011,131.205c-1.729,2.771-4.774-1.462-7.018-4.204 1.551,1.04 2.901,2.896 4.211,4.204-3.983,3.268-8.539-.76-12.628-2.803 3.385,1.691 7.047,3.035 9.82,5.605h-9.82c2.626.124 4.453.75 7.015,1.401-2.793,1.327-6.291,3.122-9.821,2.805h21.047c-1.441-2.049-2.403-4.34-2.806-7.008" fill="#d8d0b8" fill-rule="evenodd"/>
 <path d="m196.438,103.172c-1.488.957-2.456,2.246-5.613,0 1.845,0 3.778-.167 5.613,0" fill="#bfbfbf" fill-rule="evenodd"/>
 <path d="m101.025,135.409c2.035.821 3.682-.779 2.806,2.805-1.025-1.021-1.893-1.58-2.806-2.805" fill="#bfbfbf" fill-rule="evenodd"/>
 <path d="m182.406,75.143c-.773.866-2.061.325-1.402,2.803-.218-1.482.489-1.781 1.402-2.803" fill="#7fcc66" fill-rule="evenodd"/>
 <path d="m181.004,77.946c-1.057-.862-2.401-.366-2.806-2.803 .918.917 1.801,1.982 2.806,2.803" fill="#bfbfbf" fill-rule="evenodd"/>
 <path d="m182.406,76.544c-1.125.829-1.249,1.631-2.806,1.401 3.428-.068 3.101-1.807 2.806-1.401" fill="#7fcc66" fill-rule="evenodd"/>
 <path d="m202.051,75.143c-.569,1.438-.566,2.433-2.806,2.803l-2.807-2.803c1.826,0 3.802-.219 5.613,0" fill="#98e57f" fill-rule="evenodd"/>
 <path d="m196.438,75.143c.146-.876 0-1.913 0-2.803 .702,2.682-.026,2.962 0,2.803" fill="#bfbfbf" fill-rule="evenodd"/>
 <path d="m182.406,59.726c.274,8.98.842,12.042-2.806,19.623 5.293-1.801 5.691-5.151 7.016-9.812 2.105-7.412 2.342-15.208 7.017-22.425-7.798,1.123-8.34,6.49-11.227,12.614" fill="#7fcc66" fill-rule="evenodd"/>
 <path d="m199.24 75.143v-2.803 2.803" fill="#bfbfbf" fill-rule="evenodd"/>
 <path d="m148.73,24.689c-11.335-1.282-25.271,4.922-36.479,7.008-13.301,2.476-26.227,1.684-39.287-1.402-11.886-2.809-23.921-9.819-35.91-11.316-7.209-.9-32.293-3.324-35.651,2.908 22.541,0 44.043,1.447 63.843,13.314 9.423,5.647 20.27,7.65 28.766,14.016 6.123,4.589 21.387,5.333 25.256,11.913 1.354,2.303-.669,21.023-2.105,21.023-5.245,0-10.395,21.405-15.045,24.5-6.11,4.068-16.171,35.253.313,31.562-5.021-10.775-5.993-10.508 2.806-21.025 5.356-6.403 10.957-14.469 16.838-22.422 2.838-3.838 9.823-12.836 9.823-16.119 0-2.94 9.808-13.316 11.925-12.612 3.168,1.054 12.054.794 13.33,3.503 1.955,4.149-6.225,20.23-9.121,23.126-10.577,10.574 8.694,6.306 12.629,6.306 10.928,0 20.72-7.423 28.764-2.803 1.774,1.02 6.107,6.368 5.613,9.811h1.403c0-7.25-.29-11.377-7.017-14.015-4.623-1.813-26.967,3.859-29.465-1.401-.733-1.544 7.446-11.858 9.093-14.327 5.031-7.542 6.05-9.194.728-13.704 4.241-2.012 8.007-5.005 11.227-8.409-1.505,8.303 2.879,9.678 9.821,11.214 3.794.84 12.004.34 11.226,5.604-.436,2.948-2.603,4.471-5.612,4.204v1.401c1.247-.331 7.015-1.544 7.015-2.103 0-.473 5.845-7.707 2.104-7.707-3.254,0-17.539-9.454-17.539-10.512 0-9.159 13.106-9.138 16.137-18.22 3.333-9.993 16.933-16.153 25.957-17.519 6.725-1.018 13.324-2.804 20.346-2.804 2.503,0 9.986-4.912 14.733-5.606 3.558-.521 10.026,1.595 11.226-1.401 1.613-4.031-3.42-4.227-5.613-5.606-4.662-2.932-20.809-7.812-23.854-2.802-10.375-4.417-28.712,10.961-39.2,14.453-9.424,3.138-17.944,7.972-27.682,7.972l-31.342-.003" fill="#87e169" fill-rule="evenodd"/>
 <path d="m145.925,56.923c6.724-1.987 32.477-.812 35.079-7.006 1.224,6.032-7.71,10.759-12.629,12.612 12.419,6.767-7.608,28.722-9.821,15.416-1.685,1.371-3.094,1.7-4.209,4.206 .696-3.621 4.146-11.169 1.403-14.016-1.832-1.902-11.381-2.146-14.032-2.802 1.868-1.754 4.678-4.798 4.209-8.41" fill="#57b639" fill-rule="evenodd"/>
 <path d="m2.806,21.886c-4.039-2.229 3.762-2.804 6.264-2.804 5.918,0 11.74-1.401 17.59-1.401 12.457,0 23.497,6.218 35.079,9.812 24.541,7.615 43.574,3.991 68.102.493 11.216-1.6 20.727-3.296 32.222-3.296 6.291,0 12.664.301 18.942,0 6.603-.316 9.307-2.165 15.435-4.205 12.285-4.091 38.973-23.132 50.512-18.219 3.685-6.061 27.088,1.341 29.467,7.007-8.279.866-15.152-2.803-23.151-2.803-3.353,0-11.282,7.299-16.137,8.409-11.189,2.559-18.102,1.647-28.063,9.11-5.745,4.304-13.109,8.197-15.433,14.716-2.859-3.101-8.479-2.533-12.629-1.402-1.057.288-3.512,2.153-5.612,2.804-2.991.927-3.219-.314-4.209,2.804-5.848-3.398-19.277,5.917-22.452,9.811 .145-.882-.24-1.944 0-2.802 .143,8.086-11.576,27.205-21.046,25.226 1.187-1.582 5.665-5.557 3.508-7.707-3.779-3.771-1.711-10.53.703-13.315-2.556-1.657-2.164-6.653-5.614-7.008-3.754-.386-5.823,7.568-7.015,9.811-1.277-4.657-6.628-3.636-9.823-4.204-4.416-.784-13.712-3.888-17.538-7.708-3.271-3.268-12.759-6.866-17.591-8.073-8.549-2.134-15.702-7.519-23.801-10.848-16.54-6.803-30.799-4.021-47.71-4.208" fill="#009919" fill-rule="evenodd"/>
 <path d="m144.52 26.09c21.7 0 42.343 4.064 61.737-7.008" fill="none" stroke="#009919" stroke-linecap="square" stroke-miterlimit="10" stroke-width=".7482"/>
 <path d="m145.92 26.09c21.323 0 41.257 3.884 60.335-7.008" fill="none" stroke="#0a9e23" stroke-linecap="square" stroke-miterlimit="10" stroke-width=".7482"/>
 <path d="m145.92 26.09c21.884 0 40.227 3.037 60.335-7.008" fill="none" stroke="#14a32d" stroke-linecap="square" stroke-miterlimit="10" stroke-width=".7482"/>
 <path d="m145.92 26.09c21.104 0 40.015 3.792 58.932-7.008" fill="none" stroke="#1ea838" stroke-linecap="square" stroke-miterlimit="10" stroke-width=".7482"/>
 <path d="m145.92 26.09c20.882 0 38.771 3.701 57.528-7.008" fill="none" stroke="#28ad42" stroke-linecap="square" stroke-miterlimit="10" stroke-width=".7482"/>
 <path d="m147.33 26.09c20.503 0 37.682 3.521 56.125-7.008" fill="none" stroke="#32b24c" stroke-linecap="square" stroke-miterlimit="10" stroke-width=".7482"/>
 <path d="m157.15,47.113c.544-1.14-.1-1.9 1.403-2.803-1.452,1.292-2.907,2.761-4.209,4.204 .913-2.039.754-2.569 1.403-5.605-.277,3.083-.885,3.151-2.806,5.605-.006-1.353-.188-2.866 0-4.204-1.294,2.807-2.285,5.538-4.212,8.41 3.591-.304 5.067-3.056 8.421-5.607" fill="#007200" fill-rule="evenodd"/>
 <path d="m188.019,30.294c.817.613 4.479,4.732 5.614,4.205 2.31-1.073 1.353-6.903 0-8.409 .275,1.813-.116,3.774 0,5.606-1.285-1.46-3.069-2.634-4.211-4.205 1.738,1.693 2.053,2.703 4.211,4.205-2.32-.175-3.629-.67-5.614-1.402" fill="#007200" fill-rule="evenodd"/>
 <path d="m96.816,47.113c.886.84 2.2.13 1.402,2.805 .648-2.439-.514-1.964-1.402-2.805" fill="#7fd866" fill-rule="evenodd"/>
 <path d="m99.622,47.113c.556,1.418.917,2.75 1.403,4.206 .034-1.694-.731-2.666-1.403-4.206" fill="#7fd866" fill-rule="evenodd"/>
 <path d="m101.025,48.514c.834,1.451.938,3.014 2.806,4.206-.232-2.565-1.593-3.207-2.806-4.206" fill="#7fd866" fill-rule="evenodd"/>
 <path d="m103.831,49.917c.891,1.341.945,3.017 2.807,4.203-.463-1.841-1.672-3.038-2.807-4.203" fill="#7fd866" fill-rule="evenodd"/>
 <path d="m106.64 49.917c1.65 2.708 2.974 5.648 4.21 7.006-1.782-1.645-0.989-5.683-4.21-7.006" fill="#7fd866" fill-rule="evenodd"/>
 <path d="m110.848,52.72c.157,2.832.007,4.871 2.807,5.605-1.051-1.323-4.544-7.243-2.807-5.605" fill="#7fd866" fill-rule="evenodd"/>
 <path d="m112.25 52.72c1.008 2.695 1.731 5.798 4.209 7.006-1.554-2.211-3.021-5.68-4.209-7.006" fill="#7fd866" fill-rule="evenodd"/>
 <path d="m115.06 52.72c1.173 2.798 1.95 5.848 4.209 8.409-2.807-2.552-2.77-6.722-4.209-8.409" fill="#7fd866" fill-rule="evenodd"/>
 <path d="m116.46,52.72c1.442,2.566 1.922,5.244 2.807,8.409 .531-3.189-.377-6.264-2.807-8.409" fill="#7fd866" fill-rule="evenodd"/>
 <path d="m116.46,48.514c-.139,1.85 0,3.75 0,5.606h1.403c0-2.185.475-4.895 0-7.008 .488,1.995-.593.763-1.403,1.402" fill="#007200" fill-rule="evenodd"/>
 <path d="m113.654,47.113c.524,2.487 1.456,4.829 2.806,7.008-.208-2.966-1.362-5.939-2.806-7.008" fill="#007200" fill-rule="evenodd"/>
 <path d="m112.251,47.113c-.152,1.838 0,3.757 0,5.607h1.403c-.168-2.213-.573-3.754-1.403-5.607" fill="#007200" fill-rule="evenodd"/>
 <path d="m109.443,47.113c.011,2.441-.347,3.808 1.404,5.607 .562-2.822-.611-4.473-1.404-5.607" fill="#007200" fill-rule="evenodd"/>
 <path d="m106.638,47.113c.614,1.91-.509,2.786 1.403,4.206-.494-1.481-.893-2.734-1.403-4.206" fill="#007200" fill-rule="evenodd"/>
 <path d="m103.83 47.113c0.267 1.284 0 2.875 0 4.206h1.403c-1.056-3.327-1.214-4.287-1.403-4.206" fill="#007200" fill-rule="evenodd"/>
 <path d="m101.025,45.712c.285,2.336-.908,3.679 1.403,4.206-1.798-1.416-1.11-2.26-1.403-4.206" fill="#007200" fill-rule="evenodd"/>
 <path d="m98.219,44.31c.561,1.411.919,2.752 1.403,4.204-.061-2.597-.504-2.528-1.403-4.204" fill="#007200" fill-rule="evenodd"/>
 <path d="m96.816,42.909c.284,2.335-.907,3.678 1.402,4.204-1.797-1.415-1.11-2.259-1.402-4.204" fill="#007200" fill-rule="evenodd"/>
 <path d="m1.402,20.484c19.88-8.177 41.505,1.165 60.336,7.008 21.134,6.558 40.414,6.728 61.736,1.401 3.476,6.807 14.417,6.641 8.421-1.401 2.11,1.465 3.023,4.046 4.209,7.007 1.537-1.897 2.026-.948 2.806-2.802 4.315,3.552 7.486.074 4.209-4.205 .595-1.732 1.667.471 0-2.803 1.572,1.768 1.862,5.776 5.611,5.605v1.402c-.866.177-1.92-.032-2.806,0v1.401c3.687.509 8.524-.188 9.823-2.803 1.798,1.01 2.37.755 4.209,1.402-.538-4.01-4.598-4.468-8.418-7.008 6.536.87 8.942,8.508 15.433,7.008l-1.402-7.008h1.402c-.426,4.022.993,10.306 5.614,11.212 5.095.999 4.209-6.722 4.209-11.212 .593,1.479 2.186,8.409 3.507,8.409 4.525,0 7.239-1.575 2.104-2.803 2.052-.66 3.297-.948 4.21-1.401-1.088,4.701 2.213,5.447 5.613,2.804-1.706-2.548-1.233-4.496 0-7.008h1.403c-.273,1.814.142,3.779 0,5.605 3.461-3.968 8.87-5.516 8.418-11.212 .351,1.227.986,1.688 1.402,2.804 2.826-3.249 8.648-3.485 7.016-7.008 1.117.613 1.603-.557 1.403,1.401 3.756-.966 7.926-2.439 11.226-4.205-1.019-1.032-1.514-1.973-2.807-2.802 3.74,2.324 11.841,2.82 12.629-2.803 2.477,2.14 4.692.739 2.807-2.804 .732,1.178 1.164.246 1.402,2.804 1.914-1.912 2.421-1.229 2.807-4.205 .961,6.265 3.993,3.104 8.418,2.802-4.17.063-6.307,3.693-1.403,4.205-2.556-.396-3.407-.553-5.612-1.401-2.699,2.064-3.378,4.991-8.418,7.007-2.832,1.133-13.249-3.912-12.629,2.803-2.484-2.261-8.886.309-8.419,5.606-4.999-3.721-7.46-.448-8.419,4.206v-1.402c-1.955,3.298-10.376,5.417-9.82,11.211-1.591-5.458-11.117-2.337-12.629,1.402-2.016-.464-.513.058-1.403-1.402-3.089.572-.797,2.007-2.806,0-2.666,3.475-10.514,2.709-15.436,4.205 .262-.08-6.245.934-7.015,1.403-2.299,1.402-3.427,4.654-5.614,7.008-.006-.934.028-1.871 0-2.805-1.235,5.537-8.113,12.586-7.015,18.222 .174-.897-.201-1.914 0-2.805-1.847,1.753-2.761,4.908-4.209,7.008h1.403c-3.034.896-2.415,1.061-4.209,2.803 .904-1.267 1.018-.244 1.403-2.803-1.985,1.891-2.336.763-2.807,4.203-.679-1.947-.976-3.346-1.402-4.203 6.596-1.376 3.019-8.629-2.809-8.409 8.162,2.803 7.018-.101 7.018-8.409-1.269.431-3.119.723-4.209,1.401 3.124-1.224 4.996-11.211.701-11.211-8.139,0-11.671,3.581-13.33,11.211-.111-3.109.084-4.515 1.403-7.008-2.307,1.455-2.841,1.75-4.21,4.206 .41-4.571-3.833-5.35-5.612-2.804-1.379-.852-4.546-1.664-7.017-2.802-1.724,2.762-4.486.017-7.015-2.803-1.634,2.752-22.691-10.139-29.159-11.432-10.586-2.116-19.346-7.337-29.824-9.955-7.762-1.938-20.869.931-26.607-2.44-1.849,1.807-6.649,2.759-9.821,1.402" fill="#59d859" fill-rule="evenodd"/>
 <path d="m61.738 28.893c10.19 2.193 19.023 5.684 29.49 6.73 10.244 1.023 19.558-4.429 29.441-3.926" fill="none" stroke="#59d859" stroke-linecap="square" stroke-miterlimit="10" stroke-width=".7482"/>
 <path d="m63.141 30.294c9.32 2.442 17.971 4.205 27.596 4.205h14.966c4.724 0 8.582-3.307 13.564-2.802" fill="none" stroke="#5fdb5f" stroke-linecap="square" stroke-miterlimit="10" stroke-width=".7482"/>
 <path d="m63.141 30.294c9.32 2.442 17.971 4.205 27.596 4.205 9.39 0 18.221-2.695 27.127-2.802" fill="none" stroke="#6d6" stroke-linecap="square" stroke-miterlimit="10" stroke-width=".7482"/>
 <path d="m63.141 30.294c9.32 2.442 17.971 4.205 27.596 4.205 8.844 0 17.52-2.902 25.724-2.802" fill="none" stroke="#6cdf6c" stroke-linecap="square" stroke-miterlimit="10" stroke-width=".7482"/>
 <path d="m64.544 30.294c8.997 2.249 16.896 4.205 26.192 4.205 8.844 0 17.52-2.902 25.724-2.802" fill="none" stroke="#73e173" stroke-linecap="square" stroke-miterlimit="10" stroke-width=".7482"/>
 <path d="m65.946 30.294c17.716 6.289 31.44 1.207 49.111 1.402" fill="none" stroke="#79e379" stroke-linecap="square" stroke-miterlimit="10" stroke-width=".7482"/>
 <path d="m65.946 30.294c12.176 2.862 36.659 10.224 47.708 1.402" fill="none" stroke="#7fe57f" stroke-linecap="square" stroke-miterlimit="10" stroke-width=".7482"/>
 <path d="m145.92 42.909c0.567 5.062-1.229 9.29-2.806 14.014" fill="none" stroke="#59d859" stroke-linecap="square" stroke-miterlimit="10" stroke-width="2.2447"/>
 <path d="m145.92 42.909c0.567 5.062-1.229 9.29-2.806 14.014" fill="none" stroke="#68df63" stroke-linecap="square" stroke-miterlimit="10" stroke-width="2.2447"/>
 <path d="m145.92 42.909c0.567 5.062-1.229 9.29-2.806 14.014" fill="none" stroke="#77e56e" stroke-linecap="square" stroke-miterlimit="10" stroke-width="1.4965"/>
 <path d="m145.925,42.909c.316,4.221-.285,8.541-1.402,12.613" fill="none" stroke="#85eb79" stroke-linecap="square" stroke-miterlimit="10" stroke-width=".7482"/>
 <path d="m145.92 42.909c1.547 3.628-0.711 8.096-1.402 12.613" fill="none" stroke="#94f283" stroke-linecap="square" stroke-miterlimit="10" stroke-width=".7482"/>
 <path d="m145.92 42.909c1.541 3.139-0.917 7.006-1.402 11.211" fill="none" stroke="#a3f88e" stroke-linecap="square" stroke-miterlimit="10" stroke-width=".7482"/>
 <path d="m145.925,44.31c2.397,2.135.592,6.029-1.402,9.811" fill="none" stroke="#b2ff99" stroke-linecap="square" stroke-miterlimit="10" stroke-width=".7482"/>
 <path d="m238.532,9.272c-.983-.458-1.851.431-1.403-1.401-3.419,1-7.618,1.778-8.42,4.204 3.69,2.527 9.927,1.648 9.823-2.803" fill="#009919" fill-rule="evenodd"/>
 <path d="m159.957,41.506c-3.603,4.448-5.114-10.734 5.612-2.802-1.665.832-3.879,2.432-5.612,2.802" fill="#009919" fill-rule="evenodd"/>
 <path d="m134.7 52.72c0.331-2.144 1.691-3.243 1.403-5.607 2.889 2.619 4.423 6.285-1.403 5.607" fill="#009919" fill-rule="evenodd"/>
 <path d="m137.51 52.72c-1.57 1.432-2.271 2.858 0 5.605 1.726-2.344 1.053-3.39 0-5.605" fill="#009919" fill-rule="evenodd"/>
 <path d="m136.104,62.53c-.258,1.104.264,1.81-1.403,1.402l1.403,1.402c0-.85-.193-1.979 0-2.804" fill="#009919" fill-rule="evenodd"/>
 <path d="m136.104,66.735c.154.867 0,1.92 0,2.803 1.091-2.082.03-2.636 0-2.803" fill="#009919" fill-rule="evenodd"/>
 <path d="m137.507,66.735c.195-.822 0-1.955 0-2.803 2.388,1.448.346,1.346 0,2.803" fill="#009919" fill-rule="evenodd"/>
 <path d="m137.507,62.53c-.588-1.584-1.437-2.484-1.402-4.205 3.579.616 3.633,2.29 1.402,4.205" fill="#009919" fill-rule="evenodd"/>
 <path d="m136.104,47.113c-.292-1.649-1.537-1.103 0-2.803 0,.884-.154,1.935 0,2.803" fill="#009919" fill-rule="evenodd"/>
 <path d="m138.91 45.712v2.802-2.802" fill="#009919" fill-rule="evenodd"/>
 <path d="m141.716,59.726c-.287,1.721.811,2.865-1.402,2.804 2.235.187 1.116-1.085 1.402-2.804" fill="#009919" fill-rule="evenodd"/>
 <path d="m151.539,45.712c-.756.352-.331,2.059-2.809,1.401v-1.401c.69,0 2.196.286 2.809,0" fill="#009919" fill-rule="evenodd"/>
 <path d="m115.058,47.113c.903-1.035 1.622-1.312 1.402-2.803 .811,2.722-.653,1.945-1.402,2.803" fill="#009919" fill-rule="evenodd"/>
 <path d="m260.98 3.666c-1.61-1.983-3.774-1.606-5.611 0 2.665 2.217 4.119 1.551 5.611 0" fill="#b2d88c" fill-rule="evenodd"/>
 <path d="m256.773,3.666c1.397-.055 2.81,0 4.208,0v-1.401c-2.786-.666-3.177.709-4.208,1.401" fill="#8cb265" fill-rule="evenodd"/>
 <path d="m259.579,2.265c.743,2.047-.586,3.568 2.806,2.802-1.027-1.025-1.59-1.907-2.806-2.802" fill-rule="evenodd"/>
 <path d="m256.773,2.265c-.282.625 0,2.104 0,2.802-2.75-2.343-.439-1.829 0-2.802" fill-rule="evenodd"/>
 <path d="m260.981,3.666c-.409,1.017.389,1.839-1.402,1.401 1.791.438.993-.384 1.402-1.401" fill="#595959" fill-rule="evenodd"/>
 <path d="m256.77 2.265v2.802-2.802" fill="#595959" fill-rule="evenodd"/>
 <path d="m258.177,2.265c.285.61 0,2.117 0,2.802h1.402c.659-2.48-1.048-2.045-1.402-2.802" fill-rule="evenodd"/>
 <path d="m259.58 2.265" fill="#e5e5e5" fill-rule="evenodd"/>
 <path d="m273.611,6.469c.028.127-.502,1.821 2.806,2.803l-2.806-2.803" fill="#009919" fill-rule="evenodd"/>
 <path d="m272.21 6.469c1.65 1.341 2.072 2.591 4.211 2.803-1.876-1.465-2.845-1.981-4.211-2.803" fill="#008506" fill-rule="evenodd"/>
 <path d="m272.206,6.469c.99.858 1.881,1.876 2.808,2.803-.851-1.879-1.874-1.994-2.808-2.803" fill="#007200" fill-rule="evenodd"/>
 <path d="m272.206,6.469c1.62,1.597 2.41.894 2.808,2.803-.855-1.89-1.744-2.038-2.808-2.803" fill="#005f00" fill-rule="evenodd"/>
 <path d="m273.611,7.871c-.189-1.134.207-1.796-1.405-1.401 .813.591 2.808,1.589 2.808,2.102 0,1.558-.894-.218-1.403-.701" fill="#004c00" fill-rule="evenodd"/>
 <path d="m255.37.863c-.824,1.071-.774,1.548-1.403,2.803-.664-2.5.733-1.933 1.403-2.803" fill="#007200" fill-rule="evenodd"/>
 <path d="m263.788,2.265c.18,1.639 1.569,1.067 0,2.802 1.569-1.735.18-1.163 0-2.802" fill="#007200" fill-rule="evenodd"/>
 <path d="m262.385,5.067c-1.955,1.087-2.406,2.063-5.611,0 3.476,3.118 8.329.4 12.627,1.402-2.57-.105-4.59-.81-7.016-1.402" fill="#007200" fill-rule="evenodd"/>
 <path d="m272.21 6.469" fill="#007200" fill-rule="evenodd"/>
 <path d="m251.159.863v2.803-2.803" fill="#007200" fill-rule="evenodd"/>
 <path d="m246.95.863v2.803-2.803" fill="#007200" fill-rule="evenodd"/>
 <path d="m242.741,2.265c.285,1.259.016,1.97 1.403,2.802-2.294.193-1.018-1.101-1.403-2.802" fill="#007200" fill-rule="evenodd"/>
 <path d="m238.532,3.666c.336.63 2.369,1.401.701,1.401-1.478,0-.226-.512-.701-1.401" fill="#007200" fill-rule="evenodd"/>
 <path d="m190.825,33.098c.688,1.463 1.344,2.333 2.808,4.204-.264-3.096-.963-5.125-2.808-4.204" fill="#32bf32" fill-rule="evenodd"/>
 <path d="m190.82 30.294c1.13 1.834 2.583 1.951 2.808 4.205h1.402c-0.311-2.645-1.978-3.478-4.21-4.205" fill="#32bf32" fill-rule="evenodd"/>
 <path d="m193.633,28.893c.759,1.646 1.895,2.003 1.402,4.205h1.403c-.447-2.971-.972-5.457-2.805-4.205" fill="#32bf32" fill-rule="evenodd"/>
 <path d="m179.601,38.704c.881-1.457.23-2.925 2.806-2.803-1.791.371-1.393,1.147-2.806,2.803" fill="#32bf32" fill-rule="evenodd"/>
 <path d="m148.73,47.113c-.939-5.596-4.123-9.974-9.82-9.811 5.505-1.534 10.952,4.366 9.82,9.811" fill="#32bf32" fill-rule="evenodd"/>
 <path d="m148.73,34.499c4.047,2.809 2.809,8.178 2.809,12.614 0-4.603.745-9.005-2.809-12.614" fill="#32bf32" fill-rule="evenodd"/>
 <path d="m151.54 44.31c0.755-1.182 2.181-2.419 1.403-5.606 1.869 3.409 1.073 4.188-1.403 5.606" fill="#32bf32" fill-rule="evenodd"/>
 <path d="m144.52 37.302c-2.229-5.193-12.375-1.629-16.838 0 3.646-1.336 19.361-5.04 16.838 0" fill="#32bf32" fill-rule="evenodd"/>
 <path d="m116.46,49.917c.551-6.01 4.522-10.162 7.015-15.418-1.507,4.772-3.947,12.698-7.015,15.418" fill="#32bf32" fill-rule="evenodd"/>
 <path d="m113.65 47.113c1.375-1.609 2.388-6.625 4.209-8.409-1.514 3.015-0.388 10.648-4.209 8.409" fill="#32bf32" fill-rule="evenodd"/>
 <path d="m109.44 47.113c1.363-3.77 1.004-7.87 2.808-11.212-1.086 3.845-0.53 9.491-2.808 11.212" fill="#32bf32" fill-rule="evenodd"/>
 <path d="m112.251,47.113c-.053-3.797.809-8.157 2.807-9.811-1.841,1.943-1.151,6.13-2.807,9.811" fill="#32bf32" fill-rule="evenodd"/>
 <path d="m106.638,47.113c-.596-3.011-.18-5.863 1.403-7.007-1.482,1.179-1.955,3.986-1.403,7.007" fill="#32bf32" fill-rule="evenodd"/>
 <path d="m106.64 47.113v-4.204 4.204" fill="#009919" fill-rule="evenodd"/>
 <path d="m103.83 47.113v-7.007 7.007" fill="#32bf32" fill-rule="evenodd"/>
 <path d="m101.02 45.712v-5.606 5.606" fill="#32bf32" fill-rule="evenodd"/>
 <path d="m98.219 44.31v-2.804 2.804" fill="#32bf32" fill-rule="evenodd"/>
 <path d="m189.422,49.917c2.456-2.527 6.579-6.369 9.823-9.812 7.775-8.254 13.254-20.793 25.256-22.425v1.401c-.87.197-1.96-.271-2.807,0 3.311,1.629 22.952-.511 26.659-4.204l-1.403-1.401c1.441,1.155 3.025,1.97 4.209,2.802v-1.401c-1.239-.546-1.548-.428-2.806-1.401 1.902.78 3.593.794 5.613,1.401-1.088-.902-1.344-1.305-2.808-2.804 2.054,2.373 4.384,3.936 5.614,0-.874-.157-1.961.26-2.807,0 .772-.22 2.211.159 1.403-1.401 2.091,1.288 17.652,2.091 21.047,0v1.401c-18.173,0-27.626,7.008-44.199,7.008-11.131,0-14.999,9.431-22.45,11.914-4.24,1.413-5.574,8.37-8.418,11.212-3.978,3.979-7.884,4.875-11.926,7.71" fill="#57b639" fill-rule="evenodd"/>
 <path d="m117.86 52.72c-1.031 1.029-1.025 1.023 0 0" fill="#268c26" fill-rule="evenodd"/>
 <path d="m116.46 52.72c-1.029 1.028-1.025 1.024 0 0" fill="#268c26" fill-rule="evenodd"/>
 <path d="m113.65 52.72c-1.031 1.029-1.025 1.023 0 0" fill="#268c26" fill-rule="evenodd"/>
 <path d="m110.848,52.72c-.21-.801 0-1.97 0-2.802-2.11,2.524-.133,2.296 0,2.802" fill="#268c26" fill-rule="evenodd"/>
 <path d="m108.041,51.318c-.706-.704.657-1.905-1.403-1.401 .862,1.442 2.839,2.834 1.403,1.401" fill="#268c26" fill-rule="evenodd"/>
 <path d="m105.23 49.917c-1.031 1.029-1.025 1.023 0 0" fill="#268c26" fill-rule="evenodd"/>
 <path d="m102.429,49.917c-.706-.706.658-1.907-1.403-1.403-.505,2.062.697.697 1.403,1.403" fill="#268c26" fill-rule="evenodd"/>
 <path d="m99.622 47.113" fill="#268c26" fill-rule="evenodd"/>
 <path d="m96.816 47.113" fill="#268c26" fill-rule="evenodd"/>
 <path d="m154.345,24.689c-.176-.292-1.159,1.225 2.806,1.401-1.554.229-1.684-.57-2.806-1.401" fill="#75ef75" fill-rule="evenodd"/>
 <path d="m165.569,26.09c.706.706 1.906-.658 1.402,1.402-2.06.504-.697-.697-1.402-1.402" fill="#75ef75" fill-rule="evenodd"/>
 <path d="m176.795,26.09c.706.706 1.906-.658 1.403,1.402-2.061.504-.697-.697-1.403-1.402" fill="#75ef75" fill-rule="evenodd"/>
 <path d="m202.051,20.484c.336.63 2.367,1.401.701,1.401-1.478.001-.228-.512-.701-1.401" fill="#75ef75" fill-rule="evenodd"/>
 <path d="m182.406,49.917c.016-2.749.234-4.792 1.403-7.008-.632,3.367-.618,2.323-2.806,4.204v-8.409 7.008c-.705-1.945-.906-1.559-1.403-4.206 .331,2.782.701,4.275 1.403,5.606h-1.403c-.119,2.536 1.297,1.978 2.806,2.805" fill="#7fcc66" fill-rule="evenodd"/>
 <path d="m193.633,44.31c-.29-1.954.382-2.88-1.403-4.205l1.403,2.804c-1.539.07-1.521.731-2.808,1.401v-1.401c-.085,1.325-.158,2.887 0,4.204h1.404c-.241-1.641.705-1.571 1.404-2.803" fill="#7fcc66" fill-rule="evenodd"/>
 <path d="m190.825,48.514c-2.949,4.256-7.09,5.911-8.419,11.212 1.289-2.063.584-.259 2.807-1.401h-1.403v1.401c1.4-.752 1.406-.649 2.807-1.401v1.401h-1.403c1.165-.828 1.752-.91 2.806-2.803h-1.402c2.257-2.56 3.033-5.61 4.207-8.409" fill="#57b639" fill-rule="evenodd"/>
 <path d="m195.035,65.334c4.306.294 6.293.663 8.418,4.203-2.015-2.878-5.633-3.091-8.418-4.203" fill="#77d15e" fill-rule="evenodd"/>
 <path d="m159.957,87.756h-4.209c1.33-.205 2.86,0 4.209,0-1.434,1.518-3.945,2.619-7.015,2.805 1.482-.575 4.019-.952 5.611-1.401-.565,2.615-1.644,3.845-4.209,5.606 2.441-2.152 4.958-4.621 5.613-7.01" fill="#77d15e" fill-rule="evenodd"/>
 <path d="m147.328,97.568c2.013.594 1.365,1.336 4.211,1.401v1.401c-2.855.418-2.721-.775-4.211-2.802" fill="#77d15e" fill-rule="evenodd"/>
 <path d="m161.359,93.365c-.609.846.563,1.882-1.402,1.401v1.4c2.7-.981 5.432-1.443 8.418-1.4-2.94.681-4.825-.177-7.016-1.401" fill="#77d15e" fill-rule="evenodd"/>
 <path d="m186.616,93.365c-.209-1.468 0-1.595 0,0-2.436-1.813-4.456-.866-5.612,1.401 1.189-2.186 2.809-1.068 5.612-1.401" fill="#77d15e" fill-rule="evenodd"/>
 <path d="m193.63 100.37c-1.025-1.935-1.214-3.797-2.808-5.604 3.272 1.231 5.138 6.956 5.613 9.811h-1.403c0.503-2.249-0.8-2.529-1.402-4.207" fill="#77d15e" fill-rule="evenodd"/>
 <path d="m126.281,84.954c-1.946-.292-2.792.395-4.209-1.4 2.019,1.265 4.18,1.466 4.209,1.4" fill="#77d15e" fill-rule="evenodd"/>
 <path d="m126.281,87.756c-3.07.827-4.263,1.882-7.015,0 2.222,1.995 4.794,1.995 7.015,0" fill="#77d15e" fill-rule="evenodd"/>
 <path d="m123.48 90.561h-4.208 4.208" fill="#77d15e" fill-rule="evenodd"/>
 <path d="m130.49,79.349c-2.609-.903-4.025-.839-7.016,0 2.607-2.059 5.564-2.057 7.016,0" fill="#77d15e" fill-rule="evenodd"/>
 <path d="m117.86 87.756c-2.003 2.115-4.08 5.799-7.016 9.812 2.497-3.418 3.072-8.799 7.016-9.812" fill="#77d15e" fill-rule="evenodd"/>
 <path d="m109.443,107.378c-.847.606-2.282,2.078-4.209,2.804 1.228-.348 1.691-.988 2.807-1.401-1.643,2.365-.871,1.637-4.21,2.803 1.563.974.377-.051 1.403,1.4 2.844-1.275 4.174-2.6 4.209-5.606" fill="#77d15e" fill-rule="evenodd"/>
 <path d="m101.025,110.182c-.179.842 0,1.938 0,2.802h-1.403l1.403-2.802" fill="#77d15e" fill-rule="evenodd"/>
 <path d="m101.02 122.8h-2.807 2.807" fill="#77d15e" fill-rule="evenodd"/>
 <path d="m98.219,125.6c-.826.192-1.954,0-2.806,0l1.403,1.4c-.406-1.665.3-1.143 1.403-1.4" fill="#77d15e" fill-rule="evenodd"/>
 <path d="m98.219 138.21c-0.98-2.302-1.015-3.601-2.806-5.606h1.403c1.281 2.627 1.697 3.508 1.403 5.606" fill="#77d15e" fill-rule="evenodd"/>
 <path d="m119.267,76.544c5.144-3.499 5.397-16.439 8.418-22.424-1.284,6.975-3.401,22.51-9.821,26.63 1.943-1.528.817-2.282 1.403-4.206" fill="#77d15e" fill-rule="evenodd"/>
 <path d="m179.601,77.946c-1.72-.286-2.992.833-2.806-1.401-.061,2.211 1.085,1.115 2.806,1.401" fill="#bfbfbf" fill-rule="evenodd"/>
 <path d="m181 79.349c-1.975 0.663-2.219 2.653-4.209 0 1.934 1.907 1.849 0.264 4.209 0" fill="#bfbfbf" fill-rule="evenodd"/>
 <path d="m276.417,9.272h-22.45c7.347,0 15.489,2.073 22.45,1.401h-1.403c1.432.351 1.443-.196 1.403-1.401" fill="#59a53f" fill-rule="evenodd"/>
 <path d="m96.816,136.813c1.404.93 2.928.19 2.806,2.802-2.611.124-1.875-1.401-2.806-2.802" fill="#bfbfbf" fill-rule="evenodd"/>
 <path d="m101.025,136.813c2.034.821 3.681-.78 2.806,2.802-1.025-1.025-1.891-1.577-2.806-2.802" fill="#bfbfbf" fill-rule="evenodd"/>
 <path d="m196.438,104.577c-1.487.952-2.46,2.239-5.613,0 2.684,1.344 2.924.296 5.613,0" fill="#bfbfbf" fill-rule="evenodd"/>
 <path d="m192.229,98.969c.548,2.291 3.065,2.937-1.404,4.203h1.404c0-1.281-.292-2.962 0-4.203" fill="#bfbfbf" fill-rule="evenodd"/>
 <path d="m196.438,76.544c-1.367-.661-2.423-.496-2.806-2.804v1.402c2.439-.646 1.965.518 2.806,1.402" fill="#bfbfbf" fill-rule="evenodd"/>
 <path d="m82.784,122.796c.629-.628.633-.631 0,0" fill="#d8d8d8" fill-rule="evenodd"/>
 <path d="m72.964 125.6" fill="#d8d8d8" fill-rule="evenodd"/>
 <path d="m70.157 132.61" fill="#d8d8d8" fill-rule="evenodd"/>
</svg>
