<?xml version="1.0" encoding="UTF-8"?>
<svg viewBox="0 0 165 215" xmlns="http://www.w3.org/2000/svg">
 <g transform="matrix(1.25,0,0,-1.25,0,215)">
  <g transform="scale(.24)">
   <path d="m437.664,37.2695c-2.832,15.168-9.332,29.668-11.5,45.168-1.168,9.168-8.168,14.832-7.5,23.5005 1,9 5.832,16.832 3.832,25.5-4.5,19.167-2.664,43.667 6,62.5-3.164,4.167-5.5,9.5-5.664,14.332-2.668,58.335 58.664,74.168 71.664,28.5 6.168-21 .5-48.332-17-73.165-22.664-32.667-27.664-59.335 1-94.1675 5.5-6.668 8.168-9 15-10.332 3.168-.668 4.836-2.668 6.336-5.668 4.664-1 8.332-7.5 9-11.5 1-4.168.5-4.832-3.836-5.332-2.5-.168-5.664-.168-9,.664 1.5-2.664 2.5-5.332 2.5-8.164 0-2.836-1.164-3.836-6-4.168-3.832-.168-7.5,0-10.832,1.668l-6.5.832c-.168-4.332-.832-5.5-4.168-6.332-4-1.168-7.332,1.832-11,2.332-1.664.168-2.664.832-3.164,2-5-4-17.668,4.332-19.168,11.832" fill="#de89ba"/>
   <path d="m456.832,25.6055c-.336,1-.5,2.5-.168,4.832 1,6.832 7.168,12.332 13,8.168 4-2.668 5.668-7.168 5.5-11.168 0-4.332-.832-5.5-4-6.332-4-1.168-7.332,2-11.168,2.332-1.5.168-2.664.832-3.164,2.168" fill="#828a8f"/>
   <path d="m481.832,26.7695c-3.5,1.836-4,2.668-3.336,6.168 .5,2.332 2,5.668 3.836,8 2.832,3.668 6.5,4.832 9.664,1.668-.164,1.5-.5,2.5-.832,3.164 .668,2.5 2.332,5.668 5.168,6.836 1.664.832 2.5,1.164 3.5,1 .832-.336 1.664-.836 2.832-1.836 3.168-2.5 5.5-5.664 6.168-9.664 1-4.168.5-4.836-3.836-5.336-2.5-.332-5.664-.332-8.832.5 1.332-2.5 2.332-5.332 2.332-8 0-3-1.164-4-6-4.164-3.832-.336-7.5-.168-10.664,1.664" fill="#828a8f"/>
   <path d="m456.832,25.4375c-5-4-17.668,4.168-19.168,11.668-2.832,15.332-9.332,29.832-11.5,45.164-1.168,9.336-8.168,15-7.5,23.6685 1,9 5.832,16.832 3.832,25.5-4.5,19.167-2.664,43.667 6,62.667-3.164,4.165-5.5,9.5-5.664,14.165-.5,7.835.332,14.835 2,21 2.832-6.832 9.832-10.832 21.664-10.665 6.668,0 7.336-3 1.336-5.335-3.5-1.5-8.5-4.332-11.168-8 3-2 5.668-5.5 6.832-9.165-1.332-5 5-10.167 10.168-8.667-7.332-3.333-15.332-2.168-21.168,2.5-1.164-16.833-12.664-40-.664-51.5 4.832-4.833 7.332-15.168-1.336-19-7.5-3.168-8-9.168-4.164-16.5 6.664-12.8325 8.5-35.3325 17-45.6685 4.164-5.164-4.168-5.164-1.836-11.832 1.668-4.668.668-11.332 5.836-11.5 4.164-.168 4.832-6.5 9.332-3.668-.332-2.164-.332-3.832.168-4.832" fill="#cd7eab"/>
   <path d="m475.164,27.2695c.168,2.836-.668,5.668-2.332,8 2.5,5.168-4.336,9.168-12.336,14.668 9.836-2.832 18.836-8.332 18-17.168-.832-3.332-.332-4.332 3.168-6.164l-6.5.664" fill="#cd7eab"/>
   <path d="m491.164,45.6055c-.668.832-1.332,1.164-2.5,1.5-5.168,1.332-7.668,6.332-12.668,8.5 8.836-2.168 10-6 16.836-6.168-.836-1.332-1.5-2.668-1.668-3.832" fill="#cd7eab"/>
   <path d="m493.5 58.938c-8 0.332-15 5.832-19.664 11.5-13.668 17-26.668 38-18.168 62 5.832 16.332 13.668 31.832 20 47.832 4.668 11.668 14.168 15.5 13 28-1.5 15.835-3 31.5-5 47.168 4.668-4.333 8.5-10.5 10.832-18.5 6.168-21 0.5-48.5-17-73.333-22.664-32.667-27.664-59.335 1-94.168 5.5-6.668 8.168-9 15-10.5" fill="#cd7eab"/>
   <path d="m459.33 27.106c-0.5 4.164 3.664 7.832 7.164 9.332 3.168-1.5 6.5-8.832 3.668-11.832-3.668-0.168-7.668 0-10.832 2.5" fill="#96a0a5"/>
   <path d="m483.33 32.106c0.664 3.332 2.664 6.5 4.664 8.164 3.668-2 6.168-8.5 6.668-11.664-4.332-0.336-7.332 3-11.332 3.5" fill="#96a0a5"/>
   <path d="m495.5 44.106c1.5 10.5 8 0.832 9.168-3.5-3.5-0.5-6 2.664-9.168 3.5" fill="#96a0a5"/>
   <path d="m437.664,37.2695c-2.832,15.168-9.332,29.668-11.5,45.168-1.168,9.168-8.168,14.832-7.5,23.5005 1,9 5.832,16.832 3.832,25.5-4.5,19.167-2.664,43.667 6,62.5-3.164,4.167-5.5,9.5-5.664,14.332-2.668,58.335 58.664,74.168 71.664,28.5 6.168-21 .5-48.332-17-73.165-22.664-32.667-27.664-59.335 1-94.1675 5.5-6.668 8.168-9 15-10.332 3.168-.668 4.836-2.668 6.336-5.668 4.664-1 8.332-7.5 9-11.5 1-4.168.5-4.832-3.836-5.332-2.5-.168-5.664-.168-9,.664 1.5-2.664 2.5-5.332 2.5-8.164 0-2.836-1.164-3.836-6-4.168-3.832-.168-7.5,0-10.832,1.668l-6.5.832c-.168-4.332-.832-5.5-4.168-6.332-4-1.168-7.332,1.832-11,2.332-1.664.168-2.664.832-3.164,2-5-4-17.668,4.332-19.168,11.832z" fill="none" stroke="#78485f" stroke-width=".66667"/>
   <path d="m456.832,25.4375c-.5,1.168-.5,2.668-.168,4.832 1,7 7.168,12.336 13,8.168 3.832-2.668 5.668-7 5.5-11" fill="none" stroke="#78485f" stroke-width=".66667"/>
   <path d="m472.83 35.438c2.5 5.168-4.336 9.168-12.336 14.5" fill="none" stroke="#78485f" stroke-width=".66667"/>
   <path d="m481.66 26.606c-3.5 2-4 2.832-3.168 6.332 0.5 2.332 2 5.5 3.836 8 2.832 3.5 6.5 4.832 9.664 1.668 1.5-1.5 3-3.336 4-5.336" fill="none" stroke="#78485f" stroke-width=".66667"/>
   <path d="m492 42.606c-0.332 2.832-1.164 4-3.332 4.5-5.168 1.5-7.668 6.332-12.668 8.664" fill="none" stroke="#78485f" stroke-width=".66667"/>
   <path d="m491.164,45.6055c.668,2.5 2.332,5.664 5.168,6.832 1.664.832 2.5,1.168 3.5,1" fill="none" stroke="#78485f" stroke-width=".66667"/>
   <path d="m465.83 76.77c-2.836 2.668-5.336 6.336-6.668 10.336" fill="none" stroke="#78485f" stroke-width=".66667"/>
   <path d="m450.16 95.27c2.332-8.332 6.832-17.332 11.668-23" fill="none" stroke="#78485f" stroke-width=".66667"/>
   <path d="m449.33 73.77c-2.336 5-4.668 13.168-5.5 19.5" fill="none" stroke="#78485f" stroke-width=".66667"/>
   <path d="m432.5 189.77c-1.332 1.168-2.832 2.5-4 4.168" fill="none" stroke="#78485f" stroke-width=".66667"/>
   <path d="m429 205.44c-26.164 9.167-48 40.832-56.664 88.335-11.5 63.165 45.832 91.165 87.664 44 26.836-30.168 38.836-73.335 33.668-109.34-3.168-21.333-27.668-36-64.668-23" fill="#de89ba"/>
   <path d="m429 205.44c-26.164 9.167-48 40.832-56.664 88.335-11.5 63.165 45.832 91.165 87.664 44 26.836-30.168 38.836-73.335 33.668-109.34-0.832-5-2.668-9.668-5.668-13.668-1.5 15.168-2.832 30.168-5 45.168-3.164 22.835-24.832 38.667-24.5 63.335-12.332-23.168-24.332-46.668-32.5-71.668-6.664-19.835-1.332-33.5 20.5-33.335 6.668 0.168 7.336-2.832 1.336-5.165-3.668-1.5-8.5-4.335-11.168-8.167 1-0.668 2-1.5 3-2.5-3.5 0.667-7 1.667-10.668 3" fill="#cd7eab"/>
   <path d="m429 205.44c-26.164 9.167-48 40.832-56.664 88.335-11.5 63.165 45.832 91.332 87.664 44 26.836-30.168 38.836-73.335 33.668-109.34" fill="none" stroke="#78485f" stroke-width=".66667"/>
   <path d="m521.996,321.438c-3.664,6.667-.164,14.167-3,21-3.664,8.667.668,17.835.168,26.667-.832,11.833-4.832,23.168-2.5,35.168-1.168,2.165-1.832,5.165-1.832,7-6.668,5.165-12.668,29.165-11,49 2.164,26.165 31.332,19.165 25.332-4.835-4.832-19.833 10.168-32.165 10.668-51.333 .164-11-1-22-2.336-32.832-.832-8 3.668-10.5 2.836-17.5-.836-5.835 3.832-9.335 3.5-16.168-.168-4.832-2.5-5.332-4-1.667 0-4 4-7.165.664-11.333-3.5-4-4-4-5.164-1.167-1.336-9.333-4.336-10.833-7.668-1 .332-5.665-2.5-7-5.668-1" fill="#de89ba"/>
   <path d="m527.664,322.273c-.832,4.5-1.332,8.5-1.5,13.165 1.332-5 2.332-10.665 2.332-15.5-.332.667-.664,1.5-.832,2.335" fill="#cd7eab"/>
   <path d="m535.33 322.27c-2.5 4.665-5.5 10.832-2 16-1.836-5.168 0.164-10.168 2-15v-1" fill="#cd7eab"/>
   <path d="m543.832,337.438c-3.168,6.667-6.836,14.5-6.168,20.667 .668,4.333-4.5,7.833-2.832,21.168 1.832,15.5 3.332,32.332-3.5,47.165-6,13.335-7,21.5-6,37 .164,3.667 0,7.167-.5,10.667 4.164-3.5 6.664-10 4.5-18.667-5-19.833 10-32.165 10.5-51.5 .164-10.833-1-21.833-2.336-32.665-.832-8 3.668-10.5 2.836-17.668-.836-5.667 3.832-9.332 3.5-16.167" fill="#cd7eab"/>
   <path d="m521.996,321.438c-3.664,6.667-.164,14.167-3,21-3.664,8.667.668,17.835.168,26.667-.832,11.833-4.832,23.168-2.5,35.168-1.168,2.165-1.832,5.165-1.832,7-6.668,5.165-12.668,29.165-11,49 2.164,26.165 31.332,19.165 25.332-4.835-4.832-19.833 10.168-32.165 10.668-51.333 .164-11-1-22-2.336-32.832-.832-8 3.668-10.5 2.836-17.5-.836-5.835 3.832-9.335 3.5-16.168-.168-4.832-2.5-5.332-4-1.667 0-4 4-7.165.664-11.333-3.5-4-4-4-5.164-1.167-1.336-9.333-4.336-10.833-7.668-1 .332-5.665-2.5-7-5.668-1z" fill="none" stroke="#78485f" stroke-width=".66667"/>
   <path d="m527.66 322.44c-0.832 4.5-1.332 8.5-1.5 13" fill="none" stroke="#78485f" stroke-width=".66667"/>
   <path d="m535.33 323.44c-1.836 4.667-3.836 9.667-2.168 15" fill="none" stroke="#78485f" stroke-width=".66667"/>
   <path d="m532.83 408.77c-5.336 1.665-15.168 0.5-16.168-4.5" fill="none" stroke="#78485f" stroke-width=".66667"/>
   <path d="m514.83 411.27c1.5-1 8.164-0.168 13 2.832" fill="none" stroke="#78485f" stroke-width=".66667"/>
   <path d="m16.164 90.438c-17-6.168-18.336-1.5-1.836 8.832 52.168 32.5 113.84 8.6685 168.67 29.836 25 9.665 43.668 36.833 46.836 80 4.832 67.333-2 141.67 56.832 190 14.332 11.833 25.5 26.668 37.5 40.5 28.332 33.168 69 57.168 115.5 62.333 1.668 2.667 4.5 4.667 7.332 5.835 1.336 2 3.168 3.5 6.168 4.5 1 1.5 2.332 3.165 4.332 4.665 30.5 24.5 68.668 10.167 67.336-15.833-0.836-12.5 8-30.667 4.332-45.667-1.5-6.165-8-8.833-11.168-15.333-3-6-6.664-11.667-10.332-17.332-4.332-6.335-9.332-12.668-14.5-18.335-5-11.833-10.832-23.165-16.832-34.333-4.168-7.667-10-18-13.836-24.832-14.5-25.835-28.5-51.835-35.832-80.335-4.332-16.833-12.332-31.168-22.168-44.668-18.332-24.832-43.164-45.832-62-70.165-12.832-16.5-28.5-27.335-45.5-36-12-6.335-27.664-12.5-44.164-19.336-92.504-37.832-144.84 28.836-236.67-4.332" fill="#f799d1"/>
   <path d="m2.8281 88.606c88.836 53.332 191.67-34.836 258.84 63 12.168 17.833 19 39.665 23.332 59.5 1.5 6.833 0.168 13.833-4.332 18.833-4.5 5.167-3.332 7.167 1.668 4.5 6.664-3.5 8.332 1.167 2 5-4.168 2.5-9.336 6.832-12 12.332-1.336 2.668-1 3.168 1.5 1.168 7.664-5.668 15.832-11.333 25.5-12 49.832-2.833 79 27.5 77.164 47.167-0.832 9.5-2 22.833-3.164 34.333 4-9.833 5-23.833 4.332-35.5 3.5 9 4.668 17.835 4.832 25.5 2.668-8.665 2-19.833-0.164-26.665 2.5 3 3.5 6 3.832 9.332-1.168-16.332 4-19.332 15-13.332 20.668 11.165 23.332 41.332 38 59.165 8.832 10.667 4.5 23.335 8.168 34.835 1.664 5.5 1.664 9.165-1.5 13.832-1.668-1.332-3.836-1-5.836-2.167s-3.5-3.333-4-5.165c-1-4-4.5-2.335-3 1.5 1.168 2.832 3 5.332 5.336 7.332 2.832 2.168 3 8.333-1 2.833-4.336-5.833-13.668-2.5-18.668-8.5-2.168-2.665-3.668-2.333-2.5 0.5 3.332 9.5 14.668 8 20.168 15.167 2.5 3.333 1.5 4.168 0 3.668-6.836-2.668-12.168 0.5-20-2.5-3.336-1.168-3.836 1.5-1.336 1.832 7.336 1 14.668 7.833 21.836 3.333 4.5-2.665 6.832-0.833 1 4.167-6.168 5.333-13.336 1.168-20 3.833-6.168 2.667-13.168 2.167-17.5 8.5 5.332-0.833 10.164-3.165 15.332-4.165-2.332 3.832-1.832 4.332 2.668 2.832 6.664-2.5 13.332 0.5 20.164-1.332 3.336 3.332 4.836 9 1.336 13.332-3.5 4.168-6.668 8.833-9.836 13.168-1.664 2.165 0 3.165 3.168 0.165 2.668-2.665 7-5.165 11.5-7 19.832-7.833 36.332-0.333 29 13.5-1.332 3-1.168 4.167 0.5 3.335 3.832-2 6.5-5.835 7.832-9.835 1 4.335 2.5 4 3.5-2.165 1.336-7.835 6-6.168 10.5-1.668 4.5 4.668 10.168 8 16.336 10.168 11.332 3.665-3 14.332-1.5 23.332 1.164 6.168 5.832 4.668 3.832 12.5-1.832 7.333-5.668 12.168-2 17.833 3.168 4.835-2.832 8.335-4.832 12.667-1.668 3.833-6.836 3.668-7.668 8.168 14.668-3 25.332-13.668 24.668-27.5-0.836-12.5 8-30.835 4.332-45.835-1.5-6-8-8.833-11.168-15.165-3-6-6.664-11.835-10.332-17.335-4.332-6.5-9.332-12.665-14.5-18.333-5-11.832-10.832-23.167-16.832-34.5-4.168-7.5-10-18-13.836-24.667-14.5-25.833-28.5-51.833-35.832-80.333-4.332-16.835-12.332-31.167-22.168-44.667-18.332-24.833-43.164-45.833-62-70.168-12.832-16.5-28.5-27.332-45.5-36-12-6.332-27.664-12.5-44.164-19.332-92.504-37.832-144.84 28.668-236.67-4.332-8-3-12.668-3.5-13.336-2" fill="#de89ba"/>
   <path d="m425.83 369.6c-4 1.168 1.164 9 2.5 8.5 1.5-0.332 1.664-9.667-2.5-8.5" fill="#de89ba"/>
   <path d="m47.496 98.438c65.332 15.832 152.33-32.668 217 25.5 40 35.832 41.5 62.5 58.168 86.332 17.332 24.335 58.168 31.168 53.832 78.003 5-17.835 7.168-36.168 1-53.835 4.168-12.333-2.832-29.333-17-45.5 44.668 47.832 69.668 111.17 100.5 169.84-6.5 32.165-1 52.5 14.668 65.665 3.5 3.167 5.832 7.335 6.832 11.835 0-17.5-12.664-32-13.832-48.5-0.332-4 1.332-6.168 2.668-9.668 10 17.668 20.832 34.668 33.164 50.5 6.336 8.168 9.336 8 13.668 11.668-3-6-6.668-11.668-10.332-17.335-4.5-6.333-9.336-12.665-14.5-18.333-5-11.667-10.836-23.167-17-34.332-4-7.5-9.836-18-13.668-24.835-14.5-25.833-28.5-51.833-35.832-80.333-4.336-16.835-12.336-31.167-22.168-44.5-18.5-25-43.168-46-62-70.335-13-16.5-28.668-27.332-45.5-36-12.168-6.332-27.668-12.5-44.332-19.332-81.504-33.332-131.84 14.332-205.34 3.5" fill="#cd7eab"/>
   <path d="m8.8281 96.106c1.5 1 3.336 2.164 5.336 3.5 1.5-3.336-3.836-6.168-5.336-3.5" fill="#fddd04"/>
   <path d="m16.496 101.1c2.668 1.5 5.168 2.833 7.832 4.165 0.836-4.5-5.832-9.3325-7.832-4.165" fill="#fddd04"/>
   <path d="m25.496 105.77c2.832 1.335 5.668 2.5 8.332 3.5 1.168-5.165-5.5-8.5-8.332-3.5" fill="#fddd04"/>
   <path d="m37.328 110.44c3.168 1.167 6.336 2 9.5 2.832-3.164-7.665-9.332-9.665-9.5-2.832" fill="#fddd04"/>
   <path d="m51.3281,114.27c3.668.835 7.336,1.5 11,2-4.664-8.332-13.5-9.665-11-2" fill="#fddd04"/>
   <path d="m66.9961,116.938c3.168.332 6.332.667 9.668.832-3.336-8.5-14-10-9.668-.832" fill="#fddd04"/>
   <path d="m84.6641,118.27c3.332.168 6.664.335 10.164.5-4.332-9.5-14.664-9.5-10.164-.5" fill="#fddd04"/>
   <path d="m100.828,113.938c1.336,1.5.5,3.667 2.336,5 4.332,0 8.664.167 13.164.167-4.5-2.167-7.664-.335-10.832-6-2.168-4.167-7.4999-2-4.668.833" fill="#fddd04"/>
   <path d="m119.496,113.105c1,2.333.332,4.5 2.668,6.165l9.332.5c-2.332-1.665-3.332-3.832-4.332-6.5-1.668-4.5-10.168-6.165-7.668-.165" fill="#fddd04"/>
   <path d="m139.328,113.438c2.668,2.332 1.168,6 5.336,7.332 3.832.335 7.5.835 11.332,1.5-3-3.332-7.168-4.5-9.332-8.332-3.168-5.668-13-5.333-7.336-.5" fill="#fddd04"/>
   <path d="m165.664,116.77c2.5,2.835.664,6.168 3.5,8.168 4.664,1.167 9.332,2.667 13.832,4.332-7.168-2.165-4.332-10-10.668-13.332-1.164-6.668-11.832-5.168-6.664.832" fill="#fddd04"/>
   <path d="m190 120.77c1.832 4.335-2.5 7.835 0.5 12 3.5 2 6.832 4.335 10 7-4.5-6.5-1.5-11.165-5.168-16.665-3.832-5.5-6.832-6.167-5.332-2.335" fill="#fddd04"/>
   <path d="m210.664,135.938c-2.836,3.167-2.668,7-3.336,10.832 3.168,3.5 6,7.5 8.504,12-3.168-8 4.664-6.5.164-15.332 3.332-5.5 3.332-5.5-.668-7.833-2.832-1.5-2.832-1.5-4.664.333" fill="#fddd04"/>
   <path d="m229.16 163.1c-2.168 4-7 3.833-6.668 10.165 2.5 7 4.5 14.668 5.836 23-0.668-4.832 1.164-10 4.5-13.332 3.332-3.333-0.5-11 3.332-15.5 5.332-6.168-4.168-10.5-7-4.333" fill="#fddd04"/>
   <path d="m241.164,195.27c-5,3.335-11.332,7-11.332,14.168 .664,9.167 1,18.5 1.5,28 .832-5 2.832-9.5 6-13.668 4.332-5.665 1.5-13.165 7.832-17.832 7.5-5.5 1-14-4-10.668" fill="#fddd04"/>
   <path d="m243.164,241.105c-4.5,4.665-6,10.5-11,13.165 .668,13.168 1.5,26.168 3,38.835 .168-4.332.168-9 3.332-11.832 5.168-4.835 2-13.503 7.836-17.335 6.164-4.168 5.664-11.668 9-17.5 5.332-8.833-1.168-12.5-12.168-5.333" fill="#fddd04"/>
   <path d="m247.5 299.27c0.5 8.332-7.5 13.5-7.5 22 3.5 14.665 8.668 28.665 16.168 41.832-2-6.5-2-13.667 1-20.332 3.168-7-3.168-14.168-0.168-21.168 3-6.832-2.832-13.5-1.164-20.167 3.164-13.5-9-13.833-8.336-2.165" fill="#fddd04"/>
   <path d="m287 325.77c-0.832 6.332-13 15.332-9.332 21.332 5.168 8.5-5.832 12.5-3.832 21.168 1.664 6.665-3 12.5 0 19 3.832 4.165 8.164 8.165 12.832 12 5.5 4.5 10.5 9.5 15.332 14.665-6.664-11.333-10.332-25.5-5.164-37.333 3.164-7-3.168-15.832 2.5-21.5 6-6.332 0.664-15.332 4.332-22.167 7-13-14.668-20.5-16.668-7.165" fill="#fddd04"/>
   <path d="m322.16 365.44c-2.332 4.335 0 9.667-5.668 12.5-7.832 4 0 14.5-3.332 21-4.5 9-1.168 19.667 0.832 28.835 3.5 4 6.836 8 10.168 12 6.832 7.832 14.168 15.165 22.168 21.832-9-9.667-17-23.832-11.836-36.332 4.168-9.835-3.832-19.335 1.836-28.835 5-8.333-5.336-17.833-3.836-27.665 1.168-7.335-5.832-11.335-10.332-3.335" fill="#fddd04"/>
   <path d="m361 402.6c-3.332 3.5-5 8.333-5.332 13.833-0.668 9.335-6.832 17.667-2.332 28 4 9.335-3.336 17.667 6 27 9.664 6.667 20 12.5 31 17.335-12.168-7.335-8.168-21.5-14.168-31.335-4.668-8.333 5.332-16.5-0.5-24.333-6.668-8.832 2.832-18.832-2.168-27.5-5.5-9.332-6.832-8.832-12.5-3" fill="#fddd04"/>
   <path d="m402 439.94c-5 4.167-1.332 11.667-5.332 16-5.668 5.835 1.5 12.335-1.168 18.667-3.164 7.5 6.336 12.168 8.336 19.333 8.832 3 18 5.335 27.5 6.835-15.168-8.5-7.168-26.668-14.836-37.335-4.5-6.333 0-14-2.332-21-1.832-5.5-6.832-7-12.168-2.5" fill="#fddd04"/>
   <path d="m16.164 90.438c-17-6.168-18.336-1.5-1.836 8.832 52.168 32.5 113.84 8.6685 168.67 29.836 25 9.665 43.668 36.833 46.836 80 4.832 67.333-2 141.67 56.832 190 14.332 11.833 25.5 26.668 37.5 40.5 28.332 33.168 69 57.168 115.5 62.333 1.668 2.667 4.5 4.667 7.332 5.835 1.336 2 3.168 3.5 6.168 4.5 1 1.5 2.332 3.165 4.332 4.665 30.5 24.5 68.668 10.167 67.336-15.833-0.836-12.5 8-30.667 4.332-45.667-1.5-6.165-8-8.833-11.168-15.333-3-6-6.664-11.667-10.332-17.332-4.332-6.335-9.332-12.668-14.5-18.335-5-11.833-10.832-23.165-16.832-34.333-4.168-7.667-10-18-13.836-24.832-14.5-25.835-28.5-51.835-35.832-80.335-4.332-16.833-12.332-31.168-22.168-44.668-18.332-24.832-43.164-45.832-62-70.165-12.832-16.5-28.5-27.335-45.5-36-12-6.335-27.664-12.5-44.164-19.336-92.504-37.832-144.84 28.836-236.67-4.332z" fill="none" stroke="#78485f" stroke-width=".66667"/>
   <path d="m273.83 252.77c7.5-5.665 15.664-11.332 25.5-12" fill="none" stroke="#78485f" stroke-width=".66667"/>
   <path d="m376.5 288.1c-0.832 9.333-2 22.668-3.164 34.168" fill="none" stroke="#78485f" stroke-width=".66667"/>
   <path d="m377.66 286.77c3.5 9 4.668 18 4.832 25.5" fill="none" stroke="#78485f" stroke-width=".66667"/>
   <path d="m437.5 496.44c0.336 2 1 3.835 2.168 5.5" fill="none" stroke="#78485f" stroke-width=".66667"/>
   <path d="m447 507.77c-2.832-4.835-1.5-11.5 1.168-16.335" fill="none" stroke="#78485f" stroke-width=".66667"/>
   <path d="m453.16 512.27c-8.332-13.168 11.5-28 17.5-38.5" fill="none" stroke="#78485f" stroke-width=".66667"/>
   <path d="m468.664,486.273c-7.668,8.165-11.832,20.332-11.332,30.5 .5,7.5 4.664,12.665 6.664,19 3,9.665-6.164,20-3,41.832 1.668,10.168 17.336,22.168 32.168,22.168 24.668,0 44-21.668 33.332-51.335-3.664-9.833 4.5-28.5-.664-42.333-.668-1.667-1-3.332-1-5.167-1.668-29.165-42.5-29-56.168-14.665" fill="#f799d1"/>
   <path d="m489.5 484.27c-3.664 8.665-15.332 11.832-16.832 22-0.5 3.332 1.332 3.665 2.332 1.165 3.836-8.5 16.336-12.333 14.5-23.165" fill="#de89ba"/>
   <path d="m481.664,504.605c-1.332,2.333-2.5,4.833-3.5,7.168-1.168,3.332-2.168,3.832-3.668,2.832-2.5,5.668-4.332,11.833-4.664,18.168-.168,1.665 1,2 1.664.165 2-5.333 6.5-9.5 8.168-15 1.5-4.165 1.832-9.165 3-12.5 .5-1.665-.5-1.833-1-.833" fill="#de89ba"/>
   <path d="m498.496,490.773c-2.664,5-4.664,10.165-6.164,15.665l-6.168,7.667c.668,6.333-.832,12-8.668,25.833-1,1.835 0,2.335 1.5.835 6.5-7 8.336-16.5 13.5-24.168 1-1.5 1.668-1.167 1.5.5-.164,2.668-.332,6.168-.164,8 8.164-13 5.832-25.832 7.832-33 .668-2.332-1.668-3.832-3.168-1.332" fill="#de89ba"/>
   <path d="m507 490.6c0.168 5.668 3.168 5.5 2.836-0.332-0.168-5.668-3.168-5.5-2.836 0.332" fill="#de89ba"/>
   <path d="m512.164,481.105c1.668,2.5 4,3 2.5,9-1.832,7.168-5.668,12-2,17.668 3.168,4.832-3,8.332-4.832,12.832-1.668,3.668-6.836,3.5-7.668,7.668-1.168,5.5-9.332,2.5-13.332,10.165-1.168,2.5-5.336,5.667-13,8.667-5.168,2-4.668,7.5-8.668,9.833-2.332,1.335-2.832,6.5-4.832,8.5 0,3.667 0,7.667.664,12.167 1.668,10.168 17.336,22.168 32.168,22.168 24.668,0 44-21.668 33.332-51.335-3.664-9.833 4.5-28.333-.664-42.165-.668-1.668-1-3.335-1-5.168-.668-9.832-5.668-16.332-12.668-20" fill="#de89ba"/>
   <path d="m521.832,490.273c-.836,5.832-1.336,11.665 0,17.665 1,5.335-2.336,13.167.5,23.167 1,3.5-1.836,8.168 1.832,18.168 4.332,11.832 4.332,24.832-1,36 6.668-9.168 8.832-22 3.332-36.835-3.5-9.833 4.668-28.5-.664-42.333-.668-1.5-.836-3.332-1-5.167-.168-4.165-1.336-7.665-3-10.665" fill="#cd7eab"/>
   <path d="m468.664,486.273c-7.668,8.165-11.832,20.332-11.332,30.5 .5,7.5 4.664,12.5 6.664,19 3,9.665-6.164,20-3,41.832 1.668,10.168 17.336,22.168 32.168,22.168 24.668,0 44-21.668 33.332-51.335-3.664-9.833 4.5-28.5-.664-42.333-.668-1.667-1-3.332-1-5.167" fill="none" stroke="#78485f" stroke-width=".66667"/>
   <path d="m489.5 484.1c-3.664 8.668-15.332 11.833-16.832 22" fill="none" stroke="#78485f" stroke-width=".66667"/>
   <path d="m486.16 513.94c0.668 6.335-0.832 12-8.668 25.835" fill="none" stroke="#78485f" stroke-width=".66667"/>
   <path d="m469.496,548.773c-4.164,2.832-9.332,4.665-15.5,4.665-10.832-.165-21.664,10.5-29.332,9.835-18-1.668-37.332-5.668-48.668,7.332-2.832-.167-3.664.333-4.832,4-1.668,4.333 3,7.168 4.668,10.833 5.164,11.335 14.332,18.167 35.332,24.835 2.332.668 3.832,1.332 5,2.168 6.332,5.332 9.832,20.164 5.832,28-10.5,20.664 2.5,53.832 26.836,68.164 17.832,10.668 24.664,10.836 39.5.5 19.5-13.664 29-39.832 22.332-61.332-2.832-9-8.832-20-1.168-28.332 8.5-9.5 14.336-21.668 16.836-34.503 4.164-11.833 4.164-25.165 0-36.665-.668-1.835-1.336-3.5-2.336-5.335-3.664-7.333-28.164-12.5-54.5,5.835" fill="#f799d1"/>
   <path d="m450.332,627.605c-3,3.336-3.168,7-1.168,10.5-5.168,3.836-5.168,4.668.5,4-5.168,5.836-10.168,11.668-14,18.668-1.168,1.832-.5,2.168 1,1.168 3.332-2.668 4.832-5.5 7-7.668 3.5-3.168 8-4.832 9.832-9.668 1.5-3.664 5-2.5 3.5,1.336-1.832,3.832-2,9-4.832,12.332-3.332,3.668.832,5.668 1.5,3 1-3.832 3.168-7.168 5.5-10.168 1.332-1.664 1.168-3.664 2.5-5.164 1.332-1.668 2.668-1.336 2,.832-.5,2.832 1,6-1.168,8.5-3.332,3.668 1.668,9.668 2.5,14.5 .168,1.168.836,1.168 1.168-.168 1.832-8.5 1-22.664 3.668-28.164 2-4.168 3.5-3.836 3.664,0 .336,6.664 3.836,12.332 4.336,18.832 .164,3 2,3 2.164.168 .5-7.168-3-13.5-2.664-20.5l3.5,6.664c-1.336-3.164-1.5-5.832-.168-7.164l-.332-2.168c9.332.168 15.664,9 22.832,13.832-.5-1.332-.832-2.5-1.332-3.664 5,1 8.832,6.164 11,11.332-.336-3.668-1-7.5-2.168-11.168-4.668-4.832-10.668-8-16.168-11.832-1.5-1.168-.832-2 1.336-1.5 2.332.5 4.164,2.5 6.832,2.668-2-5.336-1.5-5.836 3.168-6.836-.168-3.664.664-7.5 3.832-10.832 8.5-9.332 14.332-21.5 16.832-34.335-1.5,3.835-3.332,7.503-5.664,10.835-8.168,12.332-21,20.332-33.5,28-7.336,4.5-13.668,6.168-22.336,4-7.832-2-10.664-2-14.664-.168" fill="#fddd04"/>
   <path d="m440.83 635.27c-3.836-0.5-8.668 1-10.668 4.5 3.168-1.5 9.168 0 10.668-4.5" fill="#fddd04"/>
   <path d="m439.5 641.77c-2.832 0.5-3.5 4.332-6.5 4.168-5.164-0.336-3.832 5.832-8.664 7.164 6.664 0 11.5-6.664 15.164-11.332" fill="#fddd04"/>
   <path d="m427.332,666.105c-1.668,2.5-5.836,3.168-7.836.836 .336,1.5.668,3.164 1,4.664 3.336,2.5 5.168-2.5 6.836-5.5" fill="#fddd04"/>
   <path d="m444.332,663.941c-3,4-5.668,8.664-6.168,14-5.832.164-4.168,10.832-12,7 1.332,2.332 2.668,4.5 4.332,6.664 7.168.668 4.5-4.832 8.168-7 6.168-3.5 1.668-14.5 5.668-20.664" fill="#fddd04"/>
   <path d="m451.83 670.6c-2.168 2.5-3 7.5-6.5 8.668-1.5 3.168-1.668 6.5-0.836 9.832 5.168-1 5-14.332 7.336-18.5" fill="#fddd04"/>
   <path d="m455.5 680.94c-2.332 4.164-4.332 8.5-5.832 12.832-3 1-5.5 3.5-6.668 6.5-0.832 1.832-1.664 2.168-3.664 1.168 2 2 4.164 3.664 6.332 5.164 8.832-5.664 5.5-17.5 9.832-25.664" fill="#fddd04"/>
   <path d="m461.832,696.273c-.836,3-.5,5.832.164,8.668 .336,1.832 1,2.164 1.5,1.164 1-2.664 1.168-7 .168-9.332-.668-1.668-1.5-1.832-1.832-.5" fill="#fddd04"/>
   <path d="m466.332,674.941c-.5,4.5-1.836,3-2.668,5.664-.668,1.836-.5,4.836.5,6.836 .668,1.5 1.5,1.664 1.832,0 .668-4.168.836-8.336.336-12.5" fill="#fddd04"/>
   <path d="m473.832,656.941c-1.668,7.5-1.5,15.664 1,22.832-2.336,4.668-1.168,11 2.164,14.332-1.5,7.836 2,18-6.664,22.668 3.664,0 7-1.168 10.832-3.168 5.5-7 .168-14.832 1.668-22.164 .5-2.5-.168-5.836-1.336-7.5-3.164-4-4.5-8-4.664-12.836-.336-5.664-3.5-8.164-3-14.164" fill="#fddd04"/>
   <path d="m485.832,663.441c1.164,4.832 1.664,9.664.832,14.5-.5,3.164 0,5 2.668,5.164 .664,6.5 5.832,12.5 3.832,19.5 3.668-3.832 3.168-10.5 1.5-15.5-.832-2.664-3-6.332-4.832-8.5-1.5-5-1.336-10.5-4-15.164" fill="#fddd04"/>
   <path d="m488.496,654.941c2,5.164 4.5,10.664 8.168,15.164-1.832.668-2.168,3.5-.332,4.336 5.164,2.332 8.664,10.832 6.664,19.664 1.168-1.664 2.168-3.332 3-5 .668-5.5-3.164-9.5-3.832-14.332 2.668,2.832 5.832,5.5 6.168,9.668 .5-1.168 1-2.5 1.332-3.836-2.332-5.832-6.668-10.832-10-16.164-.668-1-1-2.5-2.332-1-3.336-1.836-6-4.5-8.836-8.5" fill="#fddd04"/>
   <path d="m485.66 644.6c4.168 3.5 8 7.168 12.5 10.168 0-1.168 0-1.168 1.332-1.168-4-3.832-9-6.332-13.832-9" fill="#fddd04"/>
   <path d="m502.83 656.6c-0.336 2.168 1.832 3.836 2 6.168 2 1.668 3.832 4.5 6.164 6.5 0.836-5.832-6.664-7.668-8.164-12.668" fill="#fddd04"/>
   <path d="m371.164,574.605h4.668c7.164.5 11.832-2.167 17.832,0 4.168,2.333 8.832,4.5 14,5.833 2.668,5.835 5.332,9.5 8.832,12.335-3.164-4.668-6.664-11.168-7.332-16-3.168-.835-6.168-1.835-9-3.168-.332-5.167 4.668-7.832 9.5-5.667 5.168,2.5 11.5-1 17,.835 8.168,2.665 15.832-1.5 25,.5 2.832.665-2.332-4.5 1.168-4.168 4.164.333 8.5-.5 12.332-2.332-2.168,2.165-5.168,6.165-.5,4.832 21.668-6 29.668-2.832 36,15 .332-1.5.332-2.832 0-4.167-1-3.665-2.332-6.833-4.168-9.5 13.168,8.835 6.836,13.5 11.336,24.335 0-6.5 1.832-12.335-.168-19.168-5.668-19.832 27.832-11.167 17.668,13.668 5.332-12.5 5.664-27 1.164-39.5-.664-1.668-1.5-3.5-2.332-5.335-3.668-7.333-28.168-12.5-54.5,5.835-4.332,3-9.332,4.665-15.668,4.665-10.664,0-21.664,10.5-29.164,9.835-18.168-1.668-37.336-5.668-48.836,7.5-2.832-.335-3.664.165-4.832,3.832" fill="#de89ba"/>
   <path d="m386.5 577.94v1.335c5.336-1.335 8.5 3.332 11.168 9l0.832-1c-1.332-5.5-5.332-12.335-12-9.335" fill="#de89ba"/>
   <path d="m403.66 597.6c4.332 5.668 11.332 9.836 18.332 11.336l0.168-0.836c-5.832-2-11.668-5.332-15.332-10.5-2.168-3-5.168-2.332-3.168 0" fill="#de89ba"/>
   <path d="m420.5 602.1c4.5 4.5 8.5 10.668 15 11.668 8.836 2 13.668 11.832 23.336 9-8.336-2-10-8-16.336-10.332-6.832-2.668-14-5.168-19.332-11-2.832-3-5.668-2-2.668 0.664" fill="#de89ba"/>
   <path d="m420.164,593.273c6.668,3.332 6.668,3.332 10.332,1.665 3.836-1.665 16.5,4.167 20.836-1.833-3.668,1-9.336-1.667-3-4 6.332-2.667 8.664-10.667 9.664-16.167-3.332,10.5-14,18.335-25,18.003-4.164-.168-7.832,2.664-12.164.497-1.5-.833-2.5,1.003-.668,1.835" fill="#de89ba"/>
   <path d="m432.33 573.6c2.664 2 6 0.333 9 1.668-3.5-7.5-6.336-3-9-1.668" fill="#de89ba"/>
   <path d="m463.664,599.941c-2.332.664-1.668,2.664.668,2 4.332-1.168 8.332,1 12.164,2.5 3,1.164 4,.164 2.168-2.668-3.168-5.168-10.332-3.5-15-1.832" fill="#de89ba"/>
   <path d="m486.332,611.105c-1.668.836-4.168,2-3.5,4.336 .332,1.832 1.164,2.664 1.5,1.332 .332-1.332 1.164-2.5 2.5-3.168 2-1.164 1-3.332-.5-2.5" fill="#de89ba"/>
   <path d="m502.5 592.44c-2.164 2.832-3.664 6.332-3.664 10 0 2.164 2 1.832 3.164-0.5 1.336-3.003 1.836-6.003 0.5-9.5" fill="#de89ba"/>
   <path d="m521.664,540.605c-.332,1.333-.668,2.668-1,4.168 5.832,6.832 6.332,18 4.332,25.832 2.5,4.168 3.168,10.168.168,17.333 5.332-12.5 5.668-27 1.168-39.5-.668-1.665-1.336-3.5-2.168-5.333-.5-.832-1.332-1.832-2.5-2.5" fill="#cd7eab"/>
   <path d="m453.496,611.273c3.836,1.5 6.836,4.668 11.5,5.5 2.336.332 4.336-1.5 6.668-.832-.5-6.168-11.168-12.668-18.168-4.668" fill="#fff"/>
   <path d="m459.332,607.605c-1.836,1-3,3.168-2.668,5.336 2.332,1.5 4.5,3 7.168,3.664 3.332-1.832 3.5-6.664.332-8.664-1.5-.336-3.168-.5-4.832-.336" fill="#00a650"/>
   <path d="m384.832,585.438c2.332,3 4.164,6.503 7.664,8.003 2.336.832 3.668-.503 1-2.168-2.332-1.835-3.332-4.168-3.832-6.335-1-4.665-7.668-3.5-4.832.5" fill="#1b1615"/>
   <path d="m461.164,610.105c-1.668.336-1,4.5.832,4.168 1.668-.332 1-4.332-.832-4.168" fill="#1b1615"/>
   <path d="m469.496,548.773c-4.164,3-9.332,4.665-15.5,4.665-10.832-.165-21.664,10.5-29.332,9.835-18-1.668-37.332-5.668-48.668,7.332-2.832-.167-3.664.333-4.832,4-1.668,4.333 3,7.333 4.668,10.833 5.164,11.335 14.332,18.167 35.332,24.835 2.332.832 3.832,1.332 5,2.168 6.332,5.332 9.832,20.164 5.832,28-10.5,20.664 2.5,53.832 26.836,68.164 17.832,10.668 24.664,10.836 39.5.5 19.5-13.664 29-39.832 22.332-61.332-2.832-9-8.832-20-1.168-28.332 8.5-9.5 14.336-21.668 16.836-34.503 4.164-11.665 4.164-25 0-36.665-.668-1.668-1.336-3.5-2.336-5.168" fill="none" stroke="#78485f" stroke-width=".66667"/>
   <path d="m492.83 544.44c-3.836 4-8.336 7.335-12.836 10.335" fill="none" stroke="#78485f" stroke-width=".66667"/>
   <path d="m526.33 584.94c-1.336 3.835-3.336 7.667-5.5 11" fill="none" stroke="#78485f" stroke-width=".66667"/>
   <path d="m507.5 573.94c2 7 0.168 12.835 0.168 19.335" fill="none" stroke="#78485f" stroke-width=".66667"/>
   <path d="m502.33 592.44c-2.168 2.832-3.668 6.164-3.668 9.832 0 2.168 2 2 3.168-0.5" fill="none" stroke="#78485f" stroke-width=".66667"/>
   <path d="m494.83 602.6c-2.5-9.164 7.664-16.667 5.664-24.332-4.5-17.5-18.5-23-42.664-17" fill="none" stroke="#78485f" stroke-width=".66667"/>
   <path d="m447.66 562.1c-6.832 2-14.832 1.833-23 1.168" fill="none" stroke="#78485f" stroke-width=".66667"/>
   <path d="m427.33 577.6c-11 2.168-23-1.332-32.336-6.667-7.5-2.665-12.5 0.335-19-0.333" fill="none" stroke="#78485f" stroke-width=".66667"/>
   <path d="m386.5 579.27c5.168-1.335 8.336 3.332 11 9" fill="none" stroke="#78485f" stroke-width=".66667"/>
   <path d="m409 576.77c0.668 4.665 4.336 11.165 7.336 15.832" fill="none" stroke="#78485f" stroke-width=".66667"/>
   <path d="m445 619.1c5.668 4.668 12 6.668 19.836 8.668" fill="none" stroke="#78485f" stroke-width=".66667"/>
   <path d="m464.83 618.27c-4.668 2.332-6.336-1.832-8.836-4" fill="none" stroke="#78485f" stroke-width=".66667"/>
   <path d="m453.332,611.105c4,1.668 7,4.668 11.5,5.5 2.332.336 4.332-1.5 6.664-.832-.5-6-11.164-12.5-18.164-4.668" fill="none" stroke="#78485f" stroke-width=".66667"/>
   <path d="m464.496,341.773c-5.332,5.665-.332,13.5-5.332,19.332-27.168,31.333-28.832,40.833-12.168,69.5-1.332,2.833-1.332,6.5-2.5,10.333-6.832,22.667 21.836,35.835 32.336,2.667 4.164-13.5-5.668-30.167-12.336-37.832 1.836-2.668 1.836-5.668.668-9.335 1.668-2.165 2.5-4.833 3.332-8.833 1.336-6.332 3.168-13.167 7.836-17.5 6.332-6.167 10.164-15 10.332-23.667 .168-8.165 1.832-16.165 5-24 1.332-3.333 1.668-6 .832-7.833-1.5-3.832-2.332-4-5.164-1.832-.336-1-.836-2-1.5-2.835-1.168-1.333-1.668-1.665-3-1-2,1-3.836,4-5,6.335-.336,0-.836-.168-1.5,0-2.168.165-6,3.832-5.5,10.665-2.336-6.165-9.336-4-6.336,15.835" fill="#f799d1"/>
   <path d="m463.832,330.938c2.664-6.165 4.164-5.833 7.664-.165-.332-1.668-.664-3.168-.664-4.835-1.836-4.665-6.5-4.5-7,5" fill="#de89ba"/>
   <path d="m471.164,320.938c3.332-3.833 7.332-3.333 8.5.5 .332-2.165.332-4-.5-5.165 6.168-6 7.832,1.832 6.332,9.665 .5-2.333 1.168-4.833 2-7.165 .336-.835.5-1.835.5-2.835 3,1.5 3.168,4.5 1,8.167-6.332,10.333-3.832,22.333-4.664,33.668 1.5-3.668 2.332-7.5 2.332-11.335 .168-8.165 1.832-16.165 5-24 1.332-3.333 1.668-6 .832-7.833-1.5-3.832-2.332-4-5.164-1.832-.336-1-.836-2-1.5-2.835-1.168-1.333-1.5-1.665-3-1-2,1-3.836,4-5,6.335-.336,0-.836-.168-1.5,0-1.5,0-4,2-5.168,5.665" fill="#de89ba"/>
   <path d="m476.332,370.105c-9,8.5-10,25.5-25.168,27-6.832.668-6.832,3.168 1.168,5.168-6.836,0-7.168,3.832-3.668,4.5 10.168,2 6,16.332 15.5,19.332 7,2.168 10.832,14.5 10.668,22.833 .664-1.5 1.332-3.333 2-5.165 4.164-13.668-5.668-30.168-12.336-38 1.836-2.668 1.836-5.668.668-9.335 1.668-2 2.668-4.833 3.332-8.833 1.336-6.332 3.168-13.167 7.836-17.5" fill="#de89ba"/>
   <path d="m470.83 325.94c-2.336-6.165-9.336-4-6.336 15.835-5.332 5.665-0.332 13.5-5.332 19.332-27.168 31.333-28.832 40.833-12.168 69.5-1.332 2.833-1.332 6.5-2.5 10.333" fill="none" stroke="#78485f" stroke-width=".66667"/>
   <path d="m476.83 443.6c4.164-13.5-5.668-30.167-12.336-37.832 1.836-2.668 1.836-5.668 0.668-9.335" fill="none" stroke="#78485f" stroke-width=".66667"/>
   <path d="m456.33 400.77c8.5-1.835 10.664-5 12.164-13.168 1.336-6.332 3.168-13.167 7.836-17.5 6.332-6.167 10.164-15 10.332-23.667 0.168-8.165 1.832-16.165 5-24 1.332-3.333 1.668-6 0.832-7.833-1.5-3.832-2.332-4-5.164-1.832" fill="none" stroke="#78485f" stroke-width=".66667"/>
   <path d="m483.332,333.938c1.664-5 2.332-10.333 4.164-15.165 .668-1.835.668-4-.164-6-.336-1-.836-2-1.5-2.835-1.168-1.333-1.668-1.665-3-1-2,1-3.836,4-5,6.335" fill="none" stroke="#78485f" stroke-width=".66667"/>
   <path d="m477.664,335.773c1.332-4.5.832-9.5 1.832-14.335 .836-3.665 0-6.5-3.164-6.165-2.168.165-6,3.832-5.5,10.665 .164,3.335 1.332,6.5 1.332,9.835" fill="none" stroke="#78485f" stroke-width=".66667"/>
   <path d="m304.83 228.27c0.664 19.5-41 31.168-41.5 58.335-0.5 22.5 10 22 21.332 15.833 14.332-8.165 45.332 4.667 43 37.835-1 14.332 17.332 20.665 26 8.165 23-33.333 29.5-77.668 20-112.83-12.332-45.5-70.668-40.835-68.832-7.335" fill="#f799d1"/>
   <path d="m304.832,228.27c.664,19.5-41,31.168-41.5,58.335 0,2.668.664,2.168 1.5-.332 12.164-36.835 41.832-22.668 40-58.003" fill="#de89ba"/>
   <path d="m300.5 257.44c-12.664 8.667-25 21-29.832 36-1.332 4.5-0.168 6.167 1.832 1.835 5.668-13 16.668-23.335 28.168-31.168 0-2-0.168-4.835-0.168-6.667" fill="#de89ba"/>
   <path d="m369.83 225.6c2.164 6.665-3.336 11.665-2 22.165 3.332 25.003 7.164 54.003-0.5 75.003 11.5-28.5 13.664-60.503 6.332-87.168-1-3.667-2.332-7-3.832-10" fill="#de89ba"/>
   <path d="m263.33 286.6c0.5-27.167 42.164-38.835 41.5-58.335-1.836-33.5 56.5-38.165 68.832 7.335 9.5 35.165 3 79.333-20 112.67" fill="none" stroke="#78485f" stroke-width=".66667"/>
   <path d="m243.16 31.438c8.832 15.832 10 34.332 10.332 51.832 0.168 9-2.664 16.5 1.168 23.836 6.5 12.5 16 23.5 17.168 38.165 2.164 25.835 12.5 51.5 28.5 72.5 2.832 3.835 4.164 7.5 4.332 10.835 1.832 35.333 57.832 44.5 68.832 7.165 5.5-18.332-8.832-31.165-17.164-46-16-28.165-44.168-46.832-59.5-75.5-3.168-6-4-10.5-5.668-15.5-2-6.164 4.668-11.664 2.5-18.332-1.5-5.168-1-9.332 1.168-13.668 5.332-11.164 9-25.332 22-29.832 4.5-1.5 7-7.668 6.332-12 2.668-3.168 4.332-8.168 3.332-12.168-0.832-3.5-1.5-4-5.5-5.164-6-1.8359-13.332 1-16.164 6.664l-4.836 1c-0.5-1.832-1.164-3.5-2.5-4.832-0.332-2.332-1.5-4.832-2.664-6.668-3.336-4.6641-4.5-5.1641-9.5-3.832-4.5 1.168-8.336 4.5-11.336 9.168-2.5-2.3359-4.664 1.332-8.164-0.16797-0.836-0.5-3.336-2.332-5-0.66797-6.336-11.664-14.668-11.5-18 2-5.5 4-4 13.336 0.332 21.168" fill="#f799d1"/>
   <path d="m243 10.606c-1.164 5.5 3.836 11.664 10 11.5 6.336-0.168 11.168-7.668 8-13.5-6.332-11.836-14.664-11.668-18 2" fill="#828a8f"/>
   <path d="m285.5 0.10547c-4.5 1.1641-8.332 4.5-11.332 9.1641-1.832 2.668 3 13.336 10.332 14.168 7.336 0.832 13.836-8.168 13.168-12.832-0.332-2.336-1.332-4.836-2.668-6.668-3.332-4.668-4.332-5.168-9.5-3.832" fill="#828a8f"/>
   <path d="m305 14.438c-1.5 3 3 11 7.336 14.332 2.832 2.336 8.832-0.832 11-3.5 2.832-3.164 4.5-8.332 3.5-12.332-0.836-3.332-1.668-3.832-5.5-5-6.168-2-13.336 1-16.336 6.5" fill="#828a8f"/>
   <path d="m268.164,12.7695c-1.832,3-3.832,6.336-6.168,9.168l-.664,3.832c2.164,1.836 3.5,4.5 4,7.168 .832,4.5 2.832.832 2.5-3.668-.5-5.332 2-11.5.332-16.5" fill="#de89ba"/>
   <path d="m300.164,17.4375c-2.332,4.168-5.668,8.332-10,10.5 0,3.5-.5,8.832-2.332,13.832l1.332.5c6.332-7 11.332-17.164 11-24.832" fill="#de89ba"/>
   <path d="m316.164,28.9375-1.5,4.332c-13.832,6.668-24.332,21.5-28.168,36-1.5,6-2.832,6.168-3,.168-.164-4.168 1-8.668 2.5-12.168 1.168-2.832-.332-3.664-2-1.164-6.832,10.164-4.5,23-5.5,34.5-.5,5.164-2.164,7-4.5,3.164-4.164-6.664-6,2-.164,12.3355 9.832,17.333 22.664,20.833 38.332,46.165 7.5,12.168 17,18.668 24.832,32.835 3.836,6.665 3.5,10.333-.832,13.833-4.832,3.832-2.668,8.167 3,3.667 6.332-5 25.668.833 25,9.833-.332,6.332 6.668,10.332 6,17.332-.832,6.168-3.332,10-2.5,17.5 2.5-3.165 4.5-7 5.832-11.5 5.5-18.332-8.832-31.165-17.164-46-16-28.165-44-47-59.336-75.665-3.164-6-4-10.5-5.832-15.4995-2-6 4.668-11.668 2.668-18.336-1.668-5.164-1.168-9.164 1-13.664 5.332-11.168 9-25.168 22-29.668 4.5-1.668 7.164-7.668 6.332-12-1.5,1.668-4.332,3.5-7,4" fill="#de89ba"/>
   <path d="m292.164,160.77c.832,8.5 5,16.335 10.332,22.835 2.336,2.833 4.5.333 2.5-2.667-4.164-6.668-7.832-13-10.5-20.333-1.164-3.335-2.664-2.835-2.332.165" fill="#de89ba"/>
   <path d="m318.83 227.77c-4 2.5-8.5 10.835-6.336 16.5 1-4.665 3.336-9.665 8.168-11.665 3.832-1.5 1.832-7-1.832-4.835" fill="#de89ba"/>
   <path d="m249.83 3.9375c0.332 4-0.168 8.832-1.836 11.668 2.5 1.5 5.168 2 8 1.332 0.336-4.168-0.5-8.332-2-12.332-1.832-1.3359-3-1-4.164-0.66797" fill="#96a0a5"/>
   <path d="m285.5 3.9375c-5.832 3-5.5 11.5-2.332 16 1.832 2.668 5.668 2 7.168-1.332 1.832-3.668 2.5-8 1.5-11.836-1.336-4.332-2.336-4.6641-6.336-2.832" fill="#96a0a5"/>
   <path d="m322.66 11.606c-4.832-2.5-18.668 4.332-10.832 10 5.332 3.832 8.664 3.164 11.164-1.336 1.5-2.832-1.332-5.332-0.332-8.664" fill="#96a0a5"/>
   <path d="m242.83 10.27c-5.5 4-4 13.336 0.332 21.168 8.832 15.832 10 34.332 10.332 51.832 0.168 9-2.664 16.5 1.168 23.836 6.5 12.5 16 23.5 17.168 38.165 2.164 25.835 12.5 51.5 28.5 72.5 2.832 3.835 4.164 7.5 4.332 10.835" fill="none" stroke="#78485f" stroke-width=".66667"/>
   <path d="m373.5 235.77c5.5-18.332-8.832-31.165-17.164-46-16-28.165-44.168-46.832-59.5-75.5-3.168-6-4-10.5-5.668-15.5-2-6.164 4.668-11.664 2.5-18.332-1.5-5.168-1-9.332 1.168-13.668 5.332-11.164 9-25.332 22-29.832 4.5-1.5 7-7.668 6.332-12 2.668-3.168 4.332-8.168 3.332-12.168-0.832-3.5-1.5-4-5.5-5.164-6-1.8359-13.332 1-16.164 6.664-1.5 3 2.832 10.836 7.332 14.336 2.832 2.164 8.668-1 11-3.668" fill="none" stroke="#78485f" stroke-width=".66667"/>
   <path d="m304.83 14.27-4.836 1c-0.5-1.832-1.164-3.5-2.5-4.832-0.332-2.332-1.5-4.832-2.664-6.668-3.336-4.6641-4.5-5.1641-9.5-3.832-4.5 1.168-8.336 4.5-11.336 9.168-1.832 2.664 3 13.164 10.336 14 7.332 0.832 13.832-8 13.164-12.668" fill="none" stroke="#78485f" stroke-width=".66667"/>
   <path d="m274 9.1055c-2.5-2.3359-4.664 1.332-8.164-0.16797-0.836-0.5-3.336-2.332-5-0.66797-6.336-11.664-14.668-11.5-18 2-1.168 5.5 3.832 11.668 10 11.668 6.332-0.168 11.164-7.668 8-13.668" fill="none" stroke="#78485f" stroke-width=".66667"/>
   <path d="m265 8.4375c6.5 5.5 2.168 14 2.668 21" fill="none" stroke="#78485f" stroke-width=".66667"/>
   <path d="m300 15.27c1.336 7.836-4 19.5-11 27.168" fill="none" stroke="#78485f" stroke-width=".66667"/>
   <path d="m283.33 55.77c-0.5 1.836-1 3.5-1.336 5.336" fill="none" stroke="#78485f" stroke-width=".66667"/>
   <path d="m274.5 64.77c0.668-4 1.668-7.164 3-10.664" fill="none" stroke="#78485f" stroke-width=".66667"/>
   <path d="m269.66 53.106c-1.5 6.164-2.668 11-3 16.5" fill="none" stroke="#78485f" stroke-width=".66667"/>
   <path d="m292 160.77c0.836 8.668 5.168 16.335 10.5 22.835" fill="none" stroke="#78485f" stroke-width=".66667"/>
  </g>
 </g>
</svg>
