<?xml version="1.0" encoding="UTF-8"?>
<svg viewBox="0 0 383.50134 421.40234" xmlns="http://www.w3.org/2000/svg">
 <defs>
  <radialGradient id="b" cx="71.72" cy="214.56" r="97.161" gradientTransform="matrix(1.3565 1.5952 -1.5842 1.3471 575.58 306.08)" gradientUnits="userSpaceOnUse">
   <stop stop-color="#fff" offset="0"/>
   <stop stop-color="#fbfbfb" offset=".18"/>
   <stop stop-color="#cbcbcb" offset=".38101"/>
   <stop stop-color="#a7a7a7" offset=".5"/>
   <stop stop-color="#aaa" offset=".57098"/>
   <stop stop-color="#fff" offset="1"/>
  </radialGradient>
  <radialGradient id="a" cx="121.24" cy="276.67" r="167.98" gradientTransform="matrix(-1.1123 2.3025 -2.5674 -1.2402 1164.8 575.53)" gradientUnits="userSpaceOnUse">
   <stop stop-color="#fff" offset="0"/>
   <stop stop-color="#fbfbfb" offset=".18"/>
   <stop stop-color="#cbcbcb" offset=".45049"/>
   <stop stop-color="#a7a7a7" offset=".54451"/>
   <stop stop-color="#aaa" offset=".66102"/>
   <stop stop-color="#fff" offset="1"/>
  </radialGradient>
 </defs>
 <g transform="translate(-205.75 -391.36)" stroke="#000" stroke-linecap="square">
  <path d="m348.54 677.75c0.98544 25.098-17.329 41.763-47.326 46.19-12.652 1.867-40.303 11.007-44.504-12.401-3.9696-22.117 11.057-24.262 28.38-27.398 34.509-6.2472 24.365-26.102 37.595-26.947 7.7428-0.49408 23.02 0.23701 25.855 20.555z" stroke-width="9"/>
  <path transform="matrix(.47623 .02867 -.03354 .5608 482.59 329.81)" d="m24.048 805.62c0 21.516-18.734 38.959-41.844 38.959s-41.844-17.442-41.844-38.959 18.734-38.959 41.844-38.959 41.844 17.442 41.844 38.959z" fill="#fff" stroke-width="17.384"/>
  <path d="m348.27 776.78c0.41655 19.137-10.687 18.472-50.61 22.915-27.96 3.1117-35.594 2.3596-37.997-15.47-2.7541-20.435 7.0537-27.374 22.933-28.809 41.398-3.7408 64.304-11.08 65.673 21.364z" stroke-width="9"/>
  <path d="m459.66 735.34c-5.3364 46.32-23.451 65.725-77.433 66.236-61.082 0.57812-105.91-10.277-107.68-50.396-2.1954-49.74 29.873-73.586 44.101-89.68 24.027-27.18 70.606-52.343 93.231-44.566 17.247 5.9282 55.891 47.98 47.778 118.41z" fill="url(#b)" stroke-width="9"/>
  <path d="m458.01 762.63c0.37639 25.115-17.691 45.028-48.432 45.021-16.87-4e-3 -25.235 1.5747-32.175-0.33022-6.031-1.6553-11.698-6.229-12.015-13.153-1.1892-25.956 11.575-30.179 27.508-30.892 35.032-1.5687 26.519-21.304 39.766-21.825 7.7526-0.3049 23.008 0.79897 25.349 21.18z" stroke-width="9"/>
  <path transform="matrix(.41226 -.11472 .11545 .41347 272.52 399.08)" d="m122.86 105.22c0 59.173-53.726 107.14-120 107.14s-120-47.969-120-107.14 53.726-107.14 120-107.14 120 47.969 120 107.14z" stroke-width="20.998"/>
  <path d="m538.02 590.06c-10.949 81.197-116.97 117.82-210.42 96.472-89.501-20.446-132.14-79.571-110.64-158.62 22.017-80.932 96.084-136.75 187.05-124.4s144.96 105.35 134.01 186.54z" fill="url(#a)" stroke-width="9"/>
  <path transform="matrix(.19558 .41282 -.4276 .17203 799.53 862.6)" d="m-868.57 158.08c0 50.495-51.167 91.429-114.29 91.429s-114.29-40.934-114.29-91.429 51.167-91.429 114.29-91.429 114.29 40.934 114.29 91.429z" stroke-width="19.632"/>
  <path d="m338.35 624.32c-1.0739 7.964-11.438 13.139-23.133 11.552s-20.316-9.3394-19.242-17.303 11.892-16.509 23.588-14.922 19.862 12.71 18.788 20.674z" stroke-width="9"/>
  <path d="m280.01 623.31s-12.402 24.091 11.895 28.161c11.502 1.9365 24.284-15.225 24.284-15.225s1.4939 16.029 15.596 24.959c12.582 7.9678 21.795 6.686 31.132 3.6516 12.801-4.16 14.982-15.913 14.982-15.913" fill="none" stroke-width="9"/>
  <g transform="matrix(.4063 .19054 -.18706 .42577 397.04 339.17)" stroke-width="19.704">
   <path d="m-141.12 505.79c-51.719 63.679-41.909 136.03 2.8948 160.38 32.897 17.881 68.312 25.497 100.15-2.5615 46.051-40.59 19.286-66.313 51.617-111.81 28.411-39.985 20.026-86.695-7.5366-104.07-32.957-20.776-95.402-5.613-147.12 58.066z"/>
   <g transform="translate(0 -12.379)">
    <path d="m10.378 529.19c1.5579 29.341-20.852 53.154-50.022 53.154s-54.108-23.813-55.666-53.154 20.852-53.154 50.022-53.154 54.108 23.813 55.666 53.154z" fill="#fff"/>
    <path d="m-71.101 544.24c-0.02051-0.0202 15.062-42.327 40.347-36.442 18.695 4.3516 22.019 34.62 22.019 34.62" fill="none"/>
   </g>
  </g>
  <g transform="matrix(.65946 -.06833 .06235 .70212 706.63 569.41)" stroke-width="13.166">
   <path d="m-394.82-68.084c42.228 29.076 58.906 77.018 40.319 118.24-20.967 46.494-85.327 49.521-117.24 27.464-21.744-15.03-16.611-53.074-31.083-73.954-16.682-24.068-13.705-47.448 1.928-73.704 18.8-31.575 63.845-27.117 106.07 1.9589z"/>
   <g transform="matrix(.99025 .13929 -.13929 .99025 -733.65 -477.41)">
    <path d="m383.04 397.1c0 20.891-19.083 37.846-42.597 37.846s-42.597-16.955-42.597-37.846 19.083-37.846 42.597-37.846 42.597 16.955 42.597 37.846z" fill="#fff"/>
    <path d="m309.84 403.6s5.8307-27.502 22.615-26.594c20.8 1.1255 24.611 25.412 24.611 25.412" fill="none"/>
   </g>
  </g>
  <path d="m445.77 706.18c-10.212 22.933-35.471 32.816-64.242 21.953-15.788-5.9612-24.172-7.4374-30-11.671-5.0643-3.6791-8.7641-9.9614-6.6318-16.555 7.9932-24.715 21.422-24.16 36.586-19.201 9.8494 3.2209 21.338 9.9462 26.369 8.7491 7.1491-1.7012 10.324-10.619 18.509-15.135 4.7316-2.6104 10.286-5.2459 14.552-4.3575 6.0609 1.2622 10.41 8.8098 14.574 12.669-1.0672 4.5337 4.4425 7.3457 2.7719 11.036-7.4517 0.90281-10.949 9.0575-12.488 12.512z" stroke-width="9"/>
 </g>
</svg>
