<?xml version="1.0" encoding="UTF-8"?>
<svg width="210mm" height="297mm" version="1.1" viewBox="0 0 744.09448819 1052.3622047" xmlns="http://www.w3.org/2000/svg" xmlns:xlink="http://www.w3.org/1999/xlink">
 <defs>
  <linearGradient id="t">
   <stop stop-color="#fff" offset="0"/>
   <stop stop-color="#fff" stop-opacity="0" offset="1"/>
  </linearGradient>
  <linearGradient id="u">
   <stop stop-color="#8b0000" offset="0"/>
   <stop stop-color="#8b0000" stop-opacity="0" offset="1"/>
  </linearGradient>
  <linearGradient id="ag" x1="442.43" x2="763.12" y1="1737" y2="1485.3" gradientTransform="matrix(.8646 0 0 .8646 21.973 -922.64)" gradientUnits="userSpaceOnUse">
   <stop stop-color="#006400" offset="0"/>
   <stop stop-color="#006400" stop-opacity="0" offset="1"/>
  </linearGradient>
  <linearGradient id="ah" x1="431.43" x2="182.48" y1="1873.3" y2="1907.3" gradientTransform="matrix(.9667 .015851 -.015851 .9667 24.163 -1117.1)" gradientUnits="userSpaceOnUse">
   <stop stop-color="#006400" offset="0"/>
   <stop stop-color="#006400" stop-opacity="0" offset="1"/>
  </linearGradient>
  <linearGradient id="ai" x1="346.56" x2="-12.929" y1="1762.1" y2="1527.4" gradientTransform="matrix(.86239 -.10531 .10451 .86894 -153.85 -901.15)" gradientUnits="userSpaceOnUse">
   <stop stop-color="#006400" offset="0"/>
   <stop stop-color="#006400" stop-opacity="0" offset="1"/>
  </linearGradient>
  <linearGradient id="aj" x1="610.37" x2="644.72" y1="719.79" y2="639.61" gradientTransform="matrix(.80269 0 0 .80269 -141.19 53.856)" gradientUnits="userSpaceOnUse" xlink:href="#u"/>
  <linearGradient id="ak" x1="610.37" x2="644.72" y1="719.79" y2="639.61" gradientTransform="matrix(.92839 0 0 .92839 -139.99 -96.788)" gradientUnits="userSpaceOnUse" xlink:href="#u"/>
  <linearGradient id="al" x1="610.37" x2="644.72" y1="719.79" y2="639.61" gradientTransform="matrix(.80269 0 0 .80269 -53.153 84.424)" gradientUnits="userSpaceOnUse" xlink:href="#u"/>
  <filter id="y" x="-.023072" y="-.025006" width="1.0461" height="1.05" color-interpolation-filters="sRGB">
   <feGaussianBlur stdDeviation="9.7853515"/>
  </filter>
  <linearGradient id="aa" x1="335.26" x2="452.04" y1="800.22" y2="673.22" gradientUnits="userSpaceOnUse">
   <stop offset="0"/>
   <stop stop-opacity="0" offset="1"/>
  </linearGradient>
  <linearGradient id="ab" x1="224.44" x2="443.22" y1="830.87" y2="622.87" gradientTransform="translate(4,-1)" gradientUnits="userSpaceOnUse">
   <stop offset="0"/>
   <stop stop-opacity="0" offset="1"/>
  </linearGradient>
  <linearGradient id="ac" x1="649.29" x2="480.07" y1="473.57" y2="572.57" gradientUnits="userSpaceOnUse">
   <stop offset="0"/>
   <stop stop-opacity="0" offset="1"/>
  </linearGradient>
  <filter id="v" x="-.06" y="-.06" width="1.12" height="1.12" color-interpolation-filters="sRGB">
   <feGaussianBlur stdDeviation="2.9244419"/>
  </filter>
  <filter id="w" x="-.048" y="-.048" width="1.096" height="1.096" color-interpolation-filters="sRGB">
   <feGaussianBlur stdDeviation="2.3395535"/>
  </filter>
  <filter id="x" x="-.06" y="-.06" width="1.12" height="1.12" color-interpolation-filters="sRGB">
   <feGaussianBlur stdDeviation="2.9244419"/>
  </filter>
  <linearGradient id="ad" x1="221.9" x2="495.49" y1="1383.4" y2="1492.3" gradientTransform="matrix(.93643 0 0 .8646 4.1513 -924.37)" gradientUnits="userSpaceOnUse">
   <stop stop-color="#006400" offset="0"/>
   <stop stop-color="#006400" stop-opacity="0" offset="1"/>
  </linearGradient>
  <linearGradient id="z" x1="365.92" x2="358.85" y1="553.89" y2="580.76" gradientTransform="matrix(1.1939 0 0 1.1939 -68.085 -102.65)" gradientUnits="userSpaceOnUse" xlink:href="#t"/>
  <linearGradient id="ae" x1="365.92" x2="358.85" y1="553.89" y2="580.76" gradientTransform="matrix(1.3808 0 0 1.3808 -56.856 -277.8)" gradientUnits="userSpaceOnUse" xlink:href="#t"/>
  <linearGradient id="af" x1="365.92" x2="358.85" y1="553.89" y2="580.76" gradientTransform="matrix(1.1939 0 0 1.1939 24.842 -68.416)" gradientUnits="userSpaceOnUse" xlink:href="#t"/>
 </defs>
 <g transform="matrix(.76063 0 0 .76063 75.198 141.24)">
  <path d="m464.71 564.6c-23.214 42.849-35.303 133.12 20.826 186.69-54.109 14.621-51.79 40.524-58.042 93.438-32.303-40.435-83.739 0.12143-144.51 80.207-53.121-27.564-112-1.3181-170.81 24.247 35.7-66.402 67.031-105.53 43.592-166.41 84.985-46.992 70.505-105.1 67.826-147.12 50.045 23.355 179.92-43.908 241.12-71.05z" fill="#003800" fill-rule="evenodd" stroke="#002c00" stroke-width="8.3002"/>
  <path d="m464.71 564.6c-23.214 42.849-35.303 133.12 20.826 186.69-54.109 14.621-51.79 40.524-58.042 93.438-32.303-40.435-83.739 0.12143-144.51 80.207-53.121-27.564-112-1.3181-170.81 24.247 35.7-66.402 67.031-105.53 43.592-166.41 84.985-46.992 70.505-105.1 67.826-147.12 50.045 23.355 179.92-43.908 241.12-71.05z" fill="url(#ah)" fill-rule="evenodd"/>
  <g transform="matrix(.8646 0 0 .8646 53.213 77.625)" fill-rule="evenodd">
   <path d="m378.34 591.15c-50.644 0.1955-108.32 46.413-128.85 101.76-40.307-42.368-108.9-22.878-160.26-2.0423 20.766-49.99-44.122-83.809-130.05-85.677-1.3486-62.651-54.634-103.56-107.26-144.75 78.344-0.55515 157.58-19.708 201.41-71.826 64.399 59.902 142.19 73.395 179.16 49.827 39.724 49.929 64.341 106.11 145.85 152.72z" fill="#003800" stroke="#002c00" stroke-width="9.6"/>
   <path d="m372.94 593.01s-161.78-41.672-242.53-61.75c-92.731-23.056-277.11-69.044-277.11-69.044s180.26 32.618 268.97 55.047c84.633 21.399 250.68 75.747 250.68 75.747z" fill="#006c00"/>
   <path d="m79.21 530.51-116.04 63.107s35.558-19.251 57.079-26.871c34.446-12.196 58.963-36.236 58.963-36.236z" fill="#005800"/>
   <path d="m87.276 504.48 11.295-9.597c-3.9534-5.6295-3.9703-20.751-5.2395-32.852-1.8922 13.845-3.4896 26.979-6.0558 42.449z" fill="#008000"/>
   <path d="m137.61 658.18 78.229-89.632s-5.2449 5.1294-22.609 16.804c0 0-33.787 36.928-40.2 43.697-10.301 10.873-15.42 29.132-15.42 29.132z" fill="#005800"/>
   <path d="m220.78 536.97 13.835-8.7428c-7.4179-9.3535-3.9732-38.912-7.3348-58.32-1.9758 21.881-3.506 42.658-6.5003 67.063z" fill="#006400"/>
   <path d="m339.3 688.4-1.0865-18.143c-13.026 2.2876-39.834-16.739-60.438-23.74 20.152 13.524 39.471 26.027 61.525 41.883z" fill="#006400"/>
  </g>
  <path d="m380.33 588.73c-43.787 0.16903-93.657 40.129-111.4 87.978-34.849-36.632-94.151-19.781-138.56-1.7658 17.954-43.222-38.148-72.462-112.44-74.077-1.166-54.168-47.237-89.543-92.74-125.15 67.736-0.47999 136.24-17.04 174.14-62.101 55.679 51.791 122.94 63.457 154.91 43.08 34.345 43.169 55.63 91.743 126.1 132.04z" fill="url(#ai)" fill-rule="evenodd"/>
  <path d="m376.38 592.42c34.693-26.375 38.258-77.629 40.404-130.02 49.48 8.003 68.475-43.758 93.049-84.581 11.441 44.846 68.291 30.728 147.3-12.168 33.145 42.02 90.795 42.306 148.13 43.12-53.539 40.974-88.356 63.622-91.666 121.87-80.447 16.794-105.66 55.703-118.94 90.933-52.968-36.692-158.41-28.746-218.28-29.158z" fill="#003800" fill-rule="evenodd" stroke="#003800" stroke-width="8.3002"/>
  <path d="m404.01 593.68c-21.044-39.01-74.858-52.086-130.16-63.981 18.526-47.114-32.705-75.444-71.169-107.21 50.031-2.8623 46.512-61.349 16.856-146.98 51.416-24.713 63.384-81.294 75.851-137.47 32.765 60.251 59.493 130.26 120.8 144.39-10.052 86.347 17.161 107.07 51.958 126.7-42.254 56.858-51.579 125.81-64.132 184.55z" fill="#003800" fill-rule="evenodd" stroke="#003000" stroke-width="8.3002"/>
  <path d="m404.01 593.68c-21.044-39.01-74.858-52.086-130.16-63.981 18.526-47.114-32.705-75.444-71.169-107.21 50.031-2.8623 46.512-61.349 16.856-146.98 51.416-24.713 63.384-81.294 75.851-137.47 32.765 60.251 59.493 130.26 120.8 144.39-10.052 86.347 17.161 107.07 51.958 126.7-42.254 56.858-51.579 125.81-64.132 184.55z" fill="url(#ad)" fill-rule="evenodd"/>
  <path d="m376.38 592.42c34.693-26.375 38.258-77.629 40.404-130.02 49.48 8.003 68.475-43.758 93.049-84.581 11.441 44.846 68.291 30.728 147.3-12.168 33.145 42.02 90.795 42.306 148.13 43.12-53.539 40.974-88.356 63.622-91.666 121.87-80.447 16.794-105.66 55.703-118.94 90.933-52.968-36.692-158.41-28.746-218.28-29.158z" fill="url(#ag)" fill-rule="evenodd"/>
  <g transform="matrix(.8646 0 0 .8646 53.213 77.625)" fill-rule="evenodd">
   <path d="m376.96 590.7s155.34-73.092 231.45-105.66c87.399-37.392 259.27-102.63 259.27-102.63s-164.64 74.308-248.47 109.78c-79.979 33.846-242.25 98.499-242.25 98.499z" fill="#006c00"/>
   <path d="m647.54 463.95 54.674-119.31s-16.805 36.492-29.374 55.399c-20.117 30.262-25.3 63.914-25.3 63.914z" fill="#005800"/>
   <path d="m656.61 489.32-3.2672 14.338c6.4899 2.0702 24.497 20.985 32.704 29.768-6.7314-12.053-22.274-30.368-29.437-44.106z" fill="#008000"/>
   <path d="m525.19 398.26c1.6136 40.711-2.4994 79.513-8.8496 117.57 0 0 1.1168-7.1886 7.9709-26.802 0 0 4.8832-49.371 5.9531-58.553 1.7184-14.748-5.0744-32.216-5.0744-32.216z" fill="#005800"/>
   <path d="m531.2 543.7-0.79358 14.186c11.458 2.9307 21.302 29.306 35.517 42.597-11.445-18.44-22.587-35.742-34.723-56.783z" fill="#006400"/>
  </g>
  <path d="m463.77 570.01s-109.6 117.5-163.7 176.48c-62.126 67.731-185.78 202.34-185.78 202.34s110.54-137.25 170.29-201.87c57-61.654 179.19-176.95 179.19-176.95z" fill="#006c00" fill-rule="evenodd"/>
  <path d="m275.81 789.38-0.68718 126.89s0.28291-38.842 3.8326-60.504c5.6813-34.671-3.1454-66.385-3.1454-66.385z" fill="#005800" fill-rule="evenodd"/>
  <path d="m257.72 770.64-2.8277-13.934c-6.5422 0.75884-19.221-6.1544-29.947-10.627 10.728 7.9407 20.996 15.306 32.775 24.561z" fill="#008000" fill-rule="evenodd"/>
  <path d="m409.75 798.57-38.995-107.11s1.8771 6.7784 3.6438 26.788c0 0 15.347 45.445 18.058 53.96 4.3558 13.679 17.293 26.366 17.293 26.366z" fill="#005800" fill-rule="evenodd"/>
  <path d="m400.24 589s-37.48-140.38-54.122-210.28c-19.11-80.275-51.647-240.16-51.647-240.16s39.488 151.44 57.459 228.37c17.146 73.4 48.31 222.08 48.31 222.08z" fill="#006c00" fill-rule="evenodd"/>
  <path d="m330.97 338.7-100.2-65.71s30.222 22.584 45.417 36.313c24.32 21.975 54.781 29.397 54.781 29.397z" fill="#005800" fill-rule="evenodd"/>
  <path d="m355.89 335.09 12.619 5.0909c3.0398-5.178 15.577-10.904 25.092-16.456-12.265 3.7709-23.819 7.5007-37.71 11.365z" fill="#008000" fill-rule="evenodd"/>
  <path d="m259.9 436.14 115.71 32.151s-6.4178-2.1096-23.262-11.099c0 0-44.565-12.122-52.824-14.513-13.267-3.8417-39.621-6.5384-39.621-6.5384z" fill="#005800" fill-rule="evenodd"/>
  <path d="m383.98 450.39 12.957 7.3738c4.7005-9.2588 30.641-17.769 45.355-27.696-18.966 6.7427-36.832 13.412-58.312 20.322z" fill="#008000" fill-rule="evenodd"/>
  <circle transform="matrix(.8646 0 0 .8646 53.213 77.625)" cx="387.33" cy="621.87" r="58.489" fill="url(#ab)" filter="url(#x)"/>
  <circle transform="matrix(.8646 0 0 .8646 53.213 77.625)" cx="468.18" cy="553.57" r="58.489" fill="url(#ac)" filter="url(#v)"/>
  <circle transform="matrix(.8646 0 0 .8646 53.213 77.625)" cx="469.15" cy="661.22" r="58.489" fill="url(#aa)" filter="url(#w)"/>
  <circle cx="410.29" cy="580.27" r="13.834" fill="#002c00"/>
  <path transform="matrix(.8646 0 0 .8646 54.213 77.625)" d="m337.7 127.67c-14.42 64.976-28.261 130.42-87.729 159 34.3 99.044 38.37 166.69-19.496 170 16.573 13.688 35.193 26.824 50.93 40.736-38.837 18.959-112.21 3.9747-173.47-53.006-43.83 52.118-123.06 71.271-201.41 71.826 52.629 41.189 105.91 82.103 107.26 144.75 85.925 1.8682 150.81 35.688 130.05 85.678 41.405-16.796 94-32.709 133.95-16.058 3.3215 44.805 0.9172 98.697-80.582 143.76 27.11 70.418-9.1275 115.67-50.418 192.47 68.018-29.569 136.12-59.926 197.56-28.045 70.291-92.627 129.78-139.53 167.14-92.768 7.2304-61.2 4.5487-91.158 67.131-108.07-28.304-27.013-41.605-62.096-45.385-97.184a58.489 58.489 0 0 0 38.008 -54.75 58.489 58.489 0 0 0 -10.609 -33.469c45.742 3.2257 90.24 11.615 120.21 32.375 15.365-40.747 44.52-85.748 137.56-105.17 3.8287-67.37 44.098-93.565 106.02-140.96-66.319-0.9414-133-1.2732-171.33-49.873-91.385 49.614-157.14 65.943-170.37 14.074-22.947 38.119-41.691 84.475-78.176 96.055 8.621-19.998 19.299-39.468 32.955-57.844-40.247-22.706-71.722-46.674-60.096-146.54-70.908-16.346-101.82-97.314-139.72-167zm24.836 464.75c7.3075 1.9906 14.449 4.1142 21.363 6.416a58.489 58.489 0 0 0 -8.9805 5.7773c-4.3428-4.0355-8.4597-8.1025-12.383-12.193zm-4.1465 83.838a58.489 58.489 0 0 0 16.92 20.707c-17.146 5.2437-33.593 9.2248-48.58 11.283 9.1817-12.019 19.96-22.87 31.66-31.99z" fill-opacity=".17647" fill-rule="evenodd" filter="url(#y)"/>
  <circle cx="361.3" cy="591.95" r="50.57" fill="#f00"/>
  <circle cx="361.3" cy="591.95" r="50.57" fill="url(#aj)" stroke="#5d0000" stroke-width="3.1126"/>
  <circle cx="362.86" cy="568.75" r="17.734" fill="url(#z)"/>
  <g transform="matrix(.8646 0 0 .8646 53.213 77.625)">
   <circle cx="441.18" cy="525.57" r="58.489" fill="#f00"/>
   <circle cx="441.18" cy="525.57" r="58.489" fill="url(#ak)" stroke="#5d0000" stroke-width="3.2"/>
   <circle cx="441.58" cy="498.74" r="20.511" fill="url(#ae)"/>
  </g>
  <circle cx="449.33" cy="622.52" r="50.57" fill="#f00"/>
  <circle cx="449.33" cy="622.52" r="50.57" fill="url(#al)" stroke="#3b0000" stroke-width="2.7667"/>
  <circle cx="455.79" cy="602.98" r="17.734" fill="url(#af)"/>
 </g>
</svg>
