<?xml version="1.0" encoding="UTF-8"?>
<svg viewBox="0 0 248.3246 299.18173" xmlns="http://www.w3.org/2000/svg" xmlns:xlink="http://www.w3.org/1999/xlink">
 <defs>
  <clipPath id="n">
   <path d="m191.22 104.82c-4 11.75-18.854 9.5-22.354 13-19.015 19.015-20.49 6.4963-29.235 6.9697-13.067 0.7073-28.5-2.7761-32.89-4.5947-5.542-2.2958-11.535-6.7108-12.852-9.5156-7.125 2.375-3.7734 8.1317-3.5234 13.382-3.7178 0.7803-17.464 9.5141-11.308 15.239 0 0 8.3343-1.591 11.731 0.9556 14.241 10.678 32.084 9.6096 41.452 9.4393 56.046-1.0183 78.879-14.022 73.587-19.956-8.902-9.9806-5.5143-24.37-14.609-24.919z"/>
  </clipPath>
  <clipPath id="m">
   <path d="m183.52 118.73c-7.0294-15.525-18.606-7.5486-23.75-6-8.8284 2.6576-18.299-2.4039-20 12.188 3.1187 0.8687 7-1.9375 7.5 15.812 0.6192 21.983-2.5 63.25-2.5 63.25 39-7 18.25 12 48.25 0 0 0-2.6693-70.164-9.5-85.25z"/>
  </clipPath>
  <clipPath id="ax">
   <path d="m238.32 208.18c0 52.191-42.809 81-95 81s-94-28.809-94-81 42.309-94.5 94.5-94.5 94.5 42.309 94.5 94.5z"/>
  </clipPath>
  <clipPath id="l">
   <path d="m127.57 139.25c9.8995 20.506 1.4142 46.669 1.4142 46.669 11.5 0.75 9.2916 7.7071 24.042 0.7071l-1.4142-53.033z"/>
  </clipPath>
  <clipPath id="aw">
   <path d="m202 91.862c0 29.271-15.98 47.056-53 47.5s-53-18.229-53-47.5 23.729-50 53-50 53 20.729 53 50z"/>
  </clipPath>
  <clipPath id="av">
   <path d="m125.82 19.182c26.5-13 66.5-13.5 76 7s13.5 33.5 14 46c0.5276 13.19 9 25 9 25l-6 3.5s-3.5 2-8.5-13c-6.4904-19.471-10.5-16-10.5-16"/>
  </clipPath>
  <clipPath id="au">
   <path d="m131.82 19.682c-8-5-18.475-2.1109-18.475 4.3891s-5.0526 13.474-8.0607 14.45c-4.8891 1.5858-3.2669 10.544 3.318 8.636 7.0027-2.0285 20.218-9.4749 35.718 7.5251s15 34 31 34.5 12.617 14.331 21.5 11c8-3 6.5-3.5 6-11.5s1.5-6.5 1.5-9.5-3.7604-3.0207-14-23.5c-7-14-19.525-18.918-34.5-28-5.2185-3.1651-24-8-24-8z"/>
  </clipPath>
  <linearGradient id="d">
   <stop stop-color="#091e56" offset="0"/>
   <stop stop-color="#091e56" stop-opacity=".203" offset="1"/>
  </linearGradient>
  <linearGradient id="j">
   <stop stop-color="#2e5fa8" offset="0"/>
   <stop stop-color="#1e3c6b" offset=".535"/>
   <stop stop-color="#2d5da5" offset="1"/>
  </linearGradient>
  <linearGradient id="k">
   <stop stop-color="#005abc" offset="0"/>
   <stop stop-color="#0094f8" stop-opacity="0" offset="1"/>
  </linearGradient>
  <linearGradient id="e">
   <stop stop-color="#fff" stop-opacity=".618" offset="0"/>
   <stop stop-color="#fff" stop-opacity=".254" offset="1"/>
  </linearGradient>
  <linearGradient id="a">
   <stop stop-color="#212121" stop-opacity=".913" offset="0"/>
   <stop stop-color="#212121" stop-opacity=".109" offset="1"/>
  </linearGradient>
  <linearGradient id="f">
   <stop stop-color="#fff" stop-opacity=".848" offset="0"/>
   <stop stop-color="#fff" stop-opacity=".254" offset="1"/>
  </linearGradient>
  <linearGradient id="g">
   <stop stop-color="#2e5fa8" offset="0"/>
   <stop stop-color="#1e3c6b" offset=".51"/>
   <stop stop-color="#2d5da5" offset="1"/>
  </linearGradient>
  <linearGradient id="h">
   <stop stop-color="#cb00a3" offset="0"/>
   <stop stop-color="#73005b" offset=".5"/>
   <stop stop-color="#a08" offset="1"/>
  </linearGradient>
  <linearGradient id="i">
   <stop stop-color="#f9f9f9" offset="0"/>
   <stop stop-color="#cdf3fb" offset=".685"/>
   <stop stop-color="#afd1d8" offset=".842"/>
   <stop stop-color="#ceebf1" offset="1"/>
  </linearGradient>
  <linearGradient id="c" x1="100.85" x2="113.53" y1="150.97" y2="163.61" gradientUnits="userSpaceOnUse">
   <stop stop-color="#fff" offset="0"/>
   <stop stop-color="#fff" stop-opacity="0" offset="1"/>
  </linearGradient>
  <linearGradient id="b" x1="126.05" x2="114.78" y1="174.34" y2="163.38" gradientUnits="userSpaceOnUse">
   <stop stop-color="#333" offset="0"/>
   <stop stop-color="#333" stop-opacity="0" offset="1"/>
  </linearGradient>
  <linearGradient id="ah" x1="107.08" x2="107.65" y1="85.411" y2="92.852" gradientUnits="userSpaceOnUse">
   <stop stop-color="#ffbc78" offset="0"/>
   <stop stop-color="#f60" offset="1"/>
  </linearGradient>
  <linearGradient id="v" x1="127.57" x2="157.76" y1="165.09" y2="167.39" gradientUnits="userSpaceOnUse" xlink:href="#g"/>
  <linearGradient id="u" x1="109.2" x2="188.94" y1="129.45" y2="127.2" gradientUnits="userSpaceOnUse" xlink:href="#g"/>
  <linearGradient id="t" x1="147.26" x2="207" y1="114.96" y2="142.31" gradientUnits="userSpaceOnUse" xlink:href="#g"/>
  <linearGradient id="s" x1="193.27" x2="145.27" y1="210.18" y2="99.182" gradientUnits="userSpaceOnUse" xlink:href="#a"/>
  <linearGradient id="at" x1="124.03" x2="60.472" y1="86.173" y2="94.305" gradientUnits="userSpaceOnUse" xlink:href="#a"/>
  <linearGradient id="as" x1="87.952" x2="104.59" y1="94.949" y2="56.574" gradientUnits="userSpaceOnUse" xlink:href="#f"/>
  <linearGradient id="ar" x1="129.18" x2="134.8" y1="192.37" y2="154.62" gradientUnits="userSpaceOnUse" xlink:href="#f"/>
  <linearGradient id="aq" x1="141.98" x2="166.07" y1="173.31" y2="178.26" gradientUnits="userSpaceOnUse" xlink:href="#a"/>
  <linearGradient id="ap" x1="137.46" x2="178.45" y1="109.5" y2="212" gradientUnits="userSpaceOnUse" xlink:href="#f"/>
  <linearGradient id="ao" x1="134.46" x2="186.71" y1="162.74" y2="181.74" gradientUnits="userSpaceOnUse" xlink:href="#h"/>
  <linearGradient id="an" x1="92.016" x2="189.19" y1="127.37" y2="130.73" gradientUnits="userSpaceOnUse" xlink:href="#a"/>
  <linearGradient id="am" x1="92.294" x2="192.35" y1="136.78" y2="137.03" gradientUnits="userSpaceOnUse" xlink:href="#f"/>
  <linearGradient id="al" x1="83.682" x2="210.01" y1="128.13" y2="122.88" gradientUnits="userSpaceOnUse" xlink:href="#h"/>
  <linearGradient id="ak" x1="126.51" x2="160.47" y1="150.97" y2="154.22" gradientUnits="userSpaceOnUse" xlink:href="#h"/>
  <linearGradient id="aj" x1="135.85" x2="177.71" y1="28.268" y2="17.662" gradientUnits="userSpaceOnUse" xlink:href="#e"/>
  <linearGradient id="ai" x1="195.77" x2="186.98" y1="75.433" y2="34.951" gradientUnits="userSpaceOnUse" xlink:href="#a"/>
  <linearGradient id="ag" x1="187.65" x2="150.06" y1="129.24" y2="101.74" gradientUnits="userSpaceOnUse" xlink:href="#k"/>
  <linearGradient id="af" x1="232.44" x2="90.129" y1="256.5" y2="186.5" gradientUnits="userSpaceOnUse" xlink:href="#k"/>
  <linearGradient id="ae" x1="201.7" x2="215.99" y1="179.51" y2="186.69" gradientUnits="userSpaceOnUse" xlink:href="#e"/>
  <linearGradient id="ad" x1="212.42" x2="218.4" y1="168.89" y2="186.79" gradientUnits="userSpaceOnUse" xlink:href="#d"/>
  <linearGradient id="ac" x1="-15.207" x2="17.377" y1="204.68" y2="226.6" gradientTransform="matrix(-.89051 -.69131 -.69131 .89051 356.3 1.6316)" gradientUnits="userSpaceOnUse" xlink:href="#d"/>
  <linearGradient id="ab" x1="202.82" x2="230.46" y1="177.93" y2="197.94" gradientUnits="userSpaceOnUse" xlink:href="#j"/>
  <linearGradient id="aa" x1="65.142" x2="42.683" y1="183.86" y2="168.13" gradientUnits="userSpaceOnUse" xlink:href="#d"/>
  <linearGradient id="z" x1="46.778" x2="53.629" y1="149.97" y2="153.94" gradientUnits="userSpaceOnUse" xlink:href="#e"/>
  <linearGradient id="y" x1="43.022" x2="51.409" y1="166.8" y2="173.96" gradientUnits="userSpaceOnUse" xlink:href="#e"/>
  <linearGradient id="x" x1="18.602" x2="51.186" y1="158.3" y2="180.23" gradientUnits="userSpaceOnUse" xlink:href="#d"/>
  <linearGradient id="w" x1="26.379" x2="60.606" y1="165.23" y2="164.86" gradientUnits="userSpaceOnUse" xlink:href="#j"/>
  <radialGradient id="o" cx="488.48" cy="463.89" r="20.032" gradientTransform="matrix(.78729 -.90923 .86685 .75059 -331.4 552.01)" gradientUnits="userSpaceOnUse">
   <stop stop-color="#fff" offset="0"/>
   <stop stop-color="#dedede" offset=".659"/>
   <stop stop-color="#e0e0e0" offset="1"/>
  </radialGradient>
  <radialGradient id="r" cx="158.65" cy="20.12" r="49.5" gradientTransform="matrix(.17301 .92097 -1.2316 .23136 168.35 -115.72)" gradientUnits="userSpaceOnUse">
   <stop stop-color="#f95252" offset="0"/>
   <stop stop-color="#d40000" offset="1"/>
  </radialGradient>
  <radialGradient id="q" cx="364.98" cy="428.78" r="53.95" gradientTransform="matrix(1.1704 .01311 -.01032 .92124 -294.25 -314.83)" gradientUnits="userSpaceOnUse" xlink:href="#i"/>
  <radialGradient id="p" cx="350.77" cy="543.32" r="95.45" gradientTransform="matrix(1.3685 -.05082 .04748 1.2784 -390.59 -491.78)" gradientUnits="userSpaceOnUse" xlink:href="#i"/>
 </defs>
 <g transform="translate(-7.6754,-6.6805)">
  <path d="m193.51 89.741c0 29.271-15.98 47.056-53 47.5s-53-18.229-53-47.5 23.729-50 53-50 53 20.729 53 50z" fill="url(#q)"/>
  <path d="m125.6545,129.8165c7.652,3.722 16.6266,5.3871 25.9784,4.2003 23.8198-3.0228 40.8917-23.1085 38.131-44.8627-1.2956-10.2097-6.7614-18.9464-14.626-25.059l.0788.1533c.6609,1.3702 1.2505,2.7687 1.767,4.2146s.9588,2.9342 1.3217,4.4493c.363,1.515.6415,3.0663.8417,4.6438s.318,3.1492.3449,4.7068-.0314,3.0947-.1703,4.6238-.3588,3.0451-.6564,4.537-.6844,2.9586-1.1335,4.4045-.9588,2.8734-1.552,4.2647-1.2608,2.7549-1.9908,4.0828-1.5279,2.625-2.3876,3.8808-1.7769,2.4708-2.7588,3.6458c-.9819,1.175-2.035,2.3107-3.1319,3.3963s-2.2456,2.1227-3.4503,3.1101-2.4672,1.9141-3.7724,2.7946-2.6523,1.7088-4.0507,2.4737-2.8356,1.4664-4.3199,2.107-3.0133,1.2162-4.5764,1.7239-3.171.9565-4.8055,1.3224-3.2978.656-4.9963.8716-3.3816.3501-5.0556.4041-3.3432.021-4.9835-.0802l-.0456-.009z" fill="url(#ag)" opacity=".222"/>
  <path transform="matrix(.69648 -.2616 .18877 .96518 -219.93 -241.32)" d="m335.1686,446.3717c0,1.1716-.7123,2.1213-1.591,2.1213s-1.591-.9497-1.591-2.1213 .7123-2.1213 1.591-2.1213 1.591.9497 1.591,2.1213z" fill="#666"/>
  <path transform="translate(-238.61 -338.99)" d="m391.03 445.13c0 1.4645-1.1872 2.6517-2.6517 2.6517s-2.6517-1.1872-2.6517-2.6517 1.1872-2.6517 2.6517-2.6517 2.6517 1.1872 2.6517 2.6517z" fill="#666"/>
  <path transform="matrix(.99527 0 0 1.1002 -236.96 -387.45)" d="m385.37 453.44c0 1.7574-1.5829 3.182-3.5355 3.182s-3.5355-1.4246-3.5355-3.182 1.5829-3.182 3.5355-3.182 3.5355 1.4246 3.5355 3.182z" fill="#666"/>
  <path transform="matrix(.99507 -.09915 .09915 .99507 -280.61 -311.69)" d="m338.35 454.68c0 1.4645-0.7914 2.6517-1.7678 2.6517s-1.7678-1.1872-1.7678-2.6517 0.7914-2.6517 1.7678-2.6517 1.7678 1.1872 1.7678 2.6517z" fill="#666"/>
  <path transform="matrix(.8788 -.12597 .16553 1.0553 -276.08 -327.42)" d="m350.37 458.22c0 1.855-1.5038 3.3588-3.3588 3.3588s-3.3588-1.5038-3.3588-3.3588 1.5038-3.3588 3.3588-3.3588 3.3588 1.5038 3.3588 3.3588z" fill="#666"/>
  <path transform="matrix(.31858 -.95153 .98563 .30756 -432.48 314.64)" d="m363.1 458.75c0 2.1479-1.8995 3.8891-4.2426 3.8891s-4.2426-1.7412-4.2426-3.8891 1.8995-3.8891 4.2426-3.8891 4.2426 1.7412 4.2426 3.8891z" fill="#666"/>
  <path transform="matrix(.80375 0 0 .88067 -145.29 -303.01)" d="m375.12 458.57c0 1.2692-1.0289 2.2981-2.2981 2.2981s-2.2981-1.0289-2.2981-2.2981 1.0289-2.2981 2.2981-2.2981 2.2981 1.0289 2.2981 2.2981z" fill="#666"/>
  <path transform="matrix(-.20417 -.97593 .93713 -.17223 -244.5 538.52)" d="m357.09 458.66c0 2.392-2.1765 4.331-4.8614 4.331s-4.8614-1.9391-4.8614-4.331 2.1765-4.331 4.8614-4.331 4.8614 1.9391 4.8614 4.331z" fill="#666"/>
  <path transform="matrix(.11093 -.99383 .99383 .11093 -371.29 415.04)" d="m357.09 458.66c0 2.392-2.1765 4.331-4.8614 4.331s-4.8614-1.9391-4.8614-4.331 2.1765-4.331 4.8614-4.331 4.8614 1.9391 4.8614 4.331z" fill="#666"/>
  <path d="m124.44 80.295c2.4749 0 3.9775 10.253 0.7955 16.264s-11.133 12.591-14.849 10.43c-4.6981-2.7323-7.0711-17.147-7.0711-17.147z" fill="#6f8a91" opacity=".382"/>
  <path d="m119.55 73.846c-9.2531-1.1399-15.512 0.1542-23.338 2.505-3.8442 1.1547-9.904 4.1518-13.752 5.2955-4.5748 1.3599-7.7982 1.1877-12.248 2.913-1.2814 0.4968-2.4327 1.1552-5.9078 3.8209 2.2685 2.0268 6.4081 1.6197 9.3702 2.4882 6.3088 1.8497 7.9858 2.5158 14.415 3.8904 6.1026 1.3048 11.344 2.5274 17.543 3.2452 5.4459 0.6306 10.142 3.9461 14.742 0.964 8.5225-4.0885 8.5732-21.505-0.8244-25.122z" fill="url(#ah)"/>
  <path d="m113.0651,74.0279c-2.9146-.0277-5.6819.3551-8.75.9688-8.125,1.625-15.6349,6.387-23.25,7.875-10.875,2.125-14,4.5-14,4.5s15.5618-2.5651 53.625-10.25c.8528-.1722-1.2686-2.409-2.125-2.5625-1.9469-.3489-3.7513-.5146-5.5-.5313z" fill="url(#as)" opacity=".412"/>
  <path d="m66.753 88.872c8.125 1.125 17.282 4.4734 27.281 6.25 8.0078 1.4227 16.344 2.9761 21.188 3.8437 4.2136 0.7549 10.178-5.2472 7.5267-7.8989-1.7766-1.7766-55.995-2.1949-55.995-2.1949z" fill="url(#at)" opacity=".12"/>
  <path transform="translate(-8.4853,-2.1213)" d="m113.49 52.916c0.659 1.7463 1.2224 3.3544 10.13 0.4767 8.5674-2.7678 17.529-2.6676 23.717 2.2822s20.444 25.65 24.156 32.368 6.0507 9.346 12.965 9.3655c10.769 0.0303 14.44 11.955 13.746 17.098-0.6154 4.5548 8.2907-7.1945 8.2907-7.1945l-51.088-63.109z" clip-path="url(#aw)" fill="#6f8a91" opacity=".547"/>
  <path d="m125.01 23.741c26.5-13 66.5-13.5 76 7s13.5 33.5 14 46c0.5276 13.19 9 25 9 25l-6 3.5s-3.5 2-8.5-13c-6.4904-19.471-10.5-16-10.5-16" fill="url(#r)"/>
  <path d="m183.92 59.966c7.4246-3.3588 4.4194-17.147 9.1924-16.971s6.5408 15.203 4.0659 25.809c-1.2967 5.5571-3.0052 9.3692-3.0052 9.3692z" fill="url(#ai)" opacity=".366"/>
  <path d="m133.73 29.189c4.375-6.25 21.125-10.75 31.625-11.75 3.6279-0.3455 18.762 0.39 5.25 5.125-14.625 5.125-18.375 12.875-17.375 18.375-5.7692-3.6557-15.535-8.4025-19.5-11.75z" fill="url(#aj)" opacity=".539"/>
  <path transform="translate(-.8099,4.5591)" d="m165.06 9c-13.358 0.0073-33.135 2.8519-40.25 9.8125l2.2813 3.875c5.5219-5.4164 22.374-11.693 43.219-13.5-1.591-0.1105-3.3417-0.1885-5.25-0.1875zm34.188 12.312c6.2666 14.349 7.8455 22.587 10.719 34.844 1.8643 7.9524 2.0771 13.004 1.7188 15.688-0.6731 5.0407 3.0525 8.4916 2.9063 11.344-0.1232 2.4017-0.5456 4.0714-2.2813 4.75-2.2932 0.8966-2.4688-0.875-2.4688-0.875l0.5313 8.6563 10.062 0.1563-1.75-59.375-19.438-15.188zm2.0938 27.375s1.0548 33.054-9.375 16.438l3.0313 7.5938 14.469 16.812s0.5313-5.1422 0.5313-9.0313-6.1875-9.5313-6.1875-9.5313c1.4142-3.6239 0.5313-11.662 0.5313-8.6563s-1.5938 7.0625-1.5938 7.0625-1.9347 2.4712-0.3438-2.125-1.0625-18.562-1.0625-18.562z" clip-path="url(#av)" fill="#333" opacity=".366"/>
  <path transform="matrix(.76162 0 0 .76162 -127.82 -243.86)" d="m471 473.86-7.4753-1.0435-4.2137 6.0183-5.4343-5.238-6.9464 2.3922-1.3176-7.4318-7.0259-2.1477 3.3024-6.7869-4.4216-5.8672 6.6609-3.5497-0.1285-7.3457 7.4753 1.0435 4.2137-6.0183 5.4343 5.238 6.9464-2.3922 1.3176 7.4318 7.0259 2.1477-3.3024 6.787 4.4216 5.8672-6.6609 3.5497z" fill="url(#o)" stroke="#fff"/>
  <path d="m131.01 24.241c-8-5-18.475-2.1109-18.475 4.3891s-5.0526 13.474-8.0607 14.45c-4.8891 1.5858-3.2669 10.544 3.318 8.636 7.0027-2.0285 20.218-9.4749 35.718 7.5251s15 34 31 34.5 12.617 14.331 21.5 11c8-3 6.5-3.5 6-11.5s1.5-6.5 1.5-9.5-3.7604-3.0207-14-23.5c-7-14-19.525-18.918-34.5-28-5.2185-3.1651-24-8-24-8z" fill="#f9f9f9" stroke="#d7e3f4"/>
  <path transform="translate(-.8099,4.5591)" d="m139.47 21.625c11.406 4.0938 12.51 4.3448 15.562 6.3125 3.976 2.5632 18.712 10.744 25.844 16.812s9.336 14.147 18.5 29.625c6.4573 10.906-9.3191 1.6086-4.125 9.25 5.3708 7.9013-6.9903 7.9937-7.4688 7.3125-1.8687-2.9445-5.9556-3.9277-10.375-4.2813-3.3769-0.2702-8.5807 2.4157-16.094-4.125-8.3168-9.1562-13.757-23.135-22.188-33.062-2.9422-3.0961-10.641-6.9478-17.75-7-0.474-0.0035-0.9392 0.031-1.4063 0.0625-9.4141 0.6356-13.3 6.3889-17.438 1.4688l-0.4063-1.4375 0.1875-2.875c5.8832-2.8147 10.997-4.6594 28.812-3-6.558-1.0148-11.359-1.3426-15.219-1.2813-4.6226 0.0735-7.8983 0.7101-11.219 1.4063l5.7188-6.7813s-0.7429-1.8933 7.2188-3.9688c1.9028-0.496 5.6738-0.7933 8.2813-0.2188 0 0-2.6407-0.9588-7.2188-0.8438-4.5781 0.1151-4.1725 0.2936-6.3438 0.5313-9.2914 3.1018-11.334 11.261-14.719 18.25l5.0625 4.75v0.0625c0.0425 0.0378 0.1421 0.0854 0.1875 0.125 7.7968 6.8016 58.268 39.939 58.469 39.031l24.625 11.938s12.633 10.702 15.719 4.5313c2.1358-4.2715 3.1357-7.2978 3.5-9.4063 1.0012 1.3099 1.453 1.8527 1.5625 1.9688-0.1616-0.2565-0.8417-1.2062-1.5313-2.1563 0.413-2.6026 2.8032-16.622 2.0313-16.781l-31.438-48.219-36.344-8zm20.219 22.344c-1.1943 0.0798-0.9834 1.1553 1.3125 2.3438 10.625 5.5 12.884 19.896 19.125 26.25s11.991 5.1916 2.125-1.625c-6.0157-4.1563-10.312-22.188-20.125-26.375-1.0539-0.4498-1.8946-0.63-2.4375-0.5938z" clip-path="url(#au)" fill="#ececec"/>
  <path transform="matrix(1 0 -.2297 1 -144.66 -342.88)" d="m352.67 407.48c0 3.1242-1.7808 5.6569-3.9775 5.6569s-3.9775-2.5327-3.9775-5.6569 1.7808-5.6569 3.9775-5.6569 3.9775 2.5327 3.9775 5.6569z" fill="#333"/>
  <path transform="matrix(1 0 -.13218 1 -185.39 -345.54)" d="m374.94 410.66c0 3.4171-2.1765 6.1872-4.8614 6.1872s-4.8614-2.7701-4.8614-6.1872 2.1765-6.1872 4.8614-6.1872 4.8614 2.7701 4.8614 6.1872z" fill="#333"/>
  <path d="m112.9213,59.7275c-1.6209-1.1105-4.0144.2344-5.346,3.0039-.8647,1.7983-1.0655,3.7555-.6588,5.2107 .0997-1.0775.4144-2.2247.9439-3.3259 1.4685-3.0541 4.0632-4.5678 5.7954-3.381 .1776.1217.3368.2556.4823.4217-.2118-.8409-.6196-1.5204-1.2167-1.9295z" fill="#fff" opacity=".366"/>
  <path d="m132.7713,59.7771c-1.8392-1.1428-4.5551.2412-6.0662,3.0912-.9811,1.8505-1.2091,3.8646-.7475,5.3621 .1131-1.1088.4702-2.2893 1.071-3.4225 1.6663-3.1428 4.6105-4.7005 6.5761-3.4793 .2015.1252.3821.2631.5472.434-.2404-.8653-.7031-1.5646-1.3806-1.9856z" fill="#fff" opacity=".366"/>
  <path transform="matrix(.79934 0 0 .57001 27.083 125.76)" d="m258 284.18c0 11.598-53.278 21-119 21s-119-9.402-119-21 53.278-21 119-21 119 9.402 119 21z" fill="#b7c4c8" stroke="#d7e3f4" stroke-linejoin="round"/>
  <path d="m50.875 164.82c-6.0255-5.3038-13.758-10.497-21.124-12.579-8.7666-2.4781-10.762 12.294-10.307 19.615 0.1006 8.5471 8.5999 8.6239 17.769 14.456 5.5804 3.5492 18.585 6.7833 23.847 3.2517 1.3054-6.757 2.9346-17.584-0.5383-23.885-0.7088-6.163-1.8239-18.678-7.2113-17.294-8.0383 2.0656-1.5486 9.8285-1.7267 16.094-6.4018 1.9415-6.9851 8.4546-6.7414 9.6274" fill="url(#w)" stroke="#5f8dd3"/>
  <path d="m29.485 154.11c-6-2.125-9.5 11.875-8.375 18.5s16.5 11.125 20 14.5c-1.75-7.125-14.51-7.7711-15.625-18.875-0.562-5.5973 0.5925-11.633 4-14.125z" fill="url(#x)" opacity=".79"/>
  <path d="m52.735 165.99c-6.4021 1.485-7.9997 8.4239-3.625 14-1.625-5.375-1.375-9.125 3.625-14z" fill="url(#y)" opacity=".502"/>
  <path d="m52.9223,149.611c-3.3671,1.4439-2.7994,5.5016-.9375,8.3125-1.75-5.75.9375-8.3125.9375-8.3125z" fill="url(#z)" opacity=".502"/>
  <path d="m55.715 150.5c0.7955 1.9445 3.0052 7.1595 3.5355 15.026 0 0 3.7348 9.0379 0.4937 21.996-0.6234 2.4926-12.68 4.1566-11.49-0.3535 0.4073-1.5436 8.8706 3.1829 11.11-6.4838 0.6136-2.6485-3.6402-2.5282-3.7803-7.8869-0.0881-3.3681 2.4294-7.0951 2.4294-7.0951s0.5101-7.5414-1.2374-9.9879c-1.3258-1.8562-2.2981-3.0936-1.0607-5.2149z" fill="url(#aa)" opacity=".79"/>
  <path d="m237.51 212.74c0 52.191-42.809 81-95 81s-94-28.809-94-81 42.309-94.5 94.5-94.5 94.5 42.309 94.5 94.5z" fill="url(#p)"/>
  <path d="m90.4383,275.8007c14.8933,9.6309 33.0716,15.3853 52.7833,15.3853 50.2071,0 90.9079-36.7736 90.9079-82.136 0-21.2896-9.0382-40.6423-23.7432-55.2347 .0386.1125.085.2224.1232.3351 1.0102,2.984 1.8652,6.0075 2.556,9.1093s1.2165,6.2713 1.5706,9.4749 .5235,6.4596.5235,9.7491-.1694,6.5455-.5235,9.7491-.8798,6.3426-1.5706,9.4444-1.5459,6.1557-2.556,9.1398-2.1986,5.8934-3.5107,8.7437-2.7454,5.6471-4.3421,8.3476-3.3405,5.3253-5.2044,7.8602-3.8606,4.989-5.9743,7.3423-4.3364,4.6078-6.6826,6.7634-4.8296,4.212-7.3909,6.1541-5.2171,3.7713-7.976,5.4839-5.6219,3.2856-8.5611,4.7527-5.9516,2.8159-9.0538,4.0215-6.268,2.2708-9.5158,3.1989-6.571,1.7111-9.9469,2.3459-6.8297,1.137-10.3164,1.4624-7.0135.4874-10.5936.4874-7.1069-.1621-10.5936-.4874-6.9405-.8276-10.3164-1.4624l-.0924-.0305z" fill="url(#af)" opacity=".222"/>
  <path transform="translate(-.8099,4.5591)" d="m191.94 107.12c-4 11.75-18.875 9.5-22.375 13-19.015 19.015-20.474 6.4954-29.219 6.9688-13.067 0.7073-28.516-2.7752-32.906-4.5938-5.542-2.2958-9.7455 3.1798-11.062 0.375-7.125 2.375-5.5625-1.75-5.3125 3.5-3.7178 0.7803-17.973 16.641-10.188 13.469 2.0072-0.8178 6.8754-0.3092 10.375 2.0938 13.366 9.1775 32.32 10.233 41.688 10.062 0.2973-5e-3 0.5796-0.0252 0.875-0.0312 0.9135 8.7938 2.1256 22.682 0.9375 24.719-1.75 3-4.375 6.25-4.875 10.125 6.625 0.625 7.25 4.375 14.25 4.125 1.8256-0.0652 2.9356-0.1702 3.5938-0.2813l-0.8125 14.656s12.344-2.2813 17.594-1.0313 10.031 1.5313 10.031 1.5313 4.4063 3.7813 8.4063 2.7813 10.812-3.7188 10.812-3.7188c0.3197-24.938-2.7051-54.554-3.3125-60.25 13.805-4.2842 18.903-9.444 16.094-12.594-8.902-9.9806-5.4993-24.357-14.594-24.906z" clip-path="url(#ax)" fill="#6f8a91"/>
  <path d="m126.76 143.81c9.8995 20.506 1.4142 46.669 1.4142 46.669 11.5 0.75 9.2916 7.7071 24.042 0.7071l-1.4142-53.033z" fill="url(#ak)"/>
  <path transform="translate(-.8099,4.5591)" d="m131.17 162c1.5026-1.591 6.0104-2.8284 10.341-2.2981 2.5907 0.3172 4.0659 1.7678 8.2201 2.4749 0 0 1.2986 17.193-0.8839 17.059-4.331-0.2652-4.8613-3.0052-10.253-3.4471-4.7439-0.3888-7.3362 0.2652-9.5459 1.591z" clip-path="url(#l)" fill="url(#v)"/>
  <path d="m190.41 109.38c-4 11.75-18.854 9.5-22.354 13-19.015 19.015-20.49 6.4963-29.235 6.9697-13.067 0.7073-28.5-2.7761-32.89-4.5947-5.542-2.2958-11.535-6.7108-12.852-9.5156-7.125 2.375-3.7734 8.1317-3.5234 13.382-3.7178 0.7803-17.464 9.5141-11.308 15.239 0 0 8.3343-1.591 11.731 0.9556 14.241 10.678 32.084 9.6096 41.452 9.4393 56.046-1.0183 78.879-14.022 73.587-19.956-8.902-9.9806-5.5143-24.37-14.609-24.919z" fill="#0f0"/>
  <path transform="translate(-.8099,4.5591)" d="m149.66 144.41-20 4 0.6196 2.2768c5.5489 0.5248 12.306-1.4009 13.578 3.8438s0.77 17.52 0.5009 21.624c-0.3535 5.3917 0.9407 13.586-8.7721 11.66 5.2149 4.0659 15.574 2.1266 15.574 2.1266l-1.6875-39.844z" clip-path="url(#l)" fill="#333" opacity=".369"/>
  <path d="m190.41 109.38c-4 11.75-18.854 9.5-22.354 13-19.015 19.015-20.49 6.4963-29.235 6.9697-13.067 0.7073-28.5-2.7761-32.89-4.5947-5.542-2.2958-11.535-6.7108-12.852-9.5156-7.125 2.375-3.7734 8.1317-3.5234 13.382-3.7178 0.7803-17.464 9.5141-11.308 15.239 0 0 8.3343-1.591 11.731 0.9556 14.241 10.678 32.084 9.6096 41.452 9.4393 56.046-1.0183 78.879-14.022 73.587-19.956-8.902-9.9806-5.5143-24.37-14.609-24.919z" fill="url(#al)"/>
  <path transform="translate(-.8099,4.5591)" d="m182.6875,111.0938c-.3464.009-.6953.0391-1.0625.0937l-9.625,4.375 9.5,34.125 17.875-8.25c3.375-4.625-.3811-11.1354-4.25-14.125-2.75-2.125-3.4751-4.3306-3.875-7.5-.5041-3.9956-3.3668-8.8486-8.5625-8.7188zm-83.0938,3.4063c0,0-5.1149.847-4.75,5.6563 .2409,3.1748.3438,3.5313.7188,5.6563-4.375,1.5-6.3805,3.6845-8.25,6.2188-2.0225,2.7416-1.875,5.5625-1,8.0625l12.25,5.4375c0,0-.7716-3.0509.7188-7.9688 .6391-2.1088 2.7225-5.4476 6.5-7.5313 1.2237-.675.4011-3.2966.5313-5.75 .2187-4.1211 2.125-4.2188 2.125-4.2188l-8.8438-5.5625zm17.9375,6.875c-1e-005,0 2.4959,1.7084 2.0938,3.7188-.8487,4.2431-.5414,8.453-.9688,11.3125-.1846,1.2352-1.9554,6.036-1.4063,14.1563 .3093,4.5738 19.3988,1.3443 19.3438.5313-.5322-7.8687-.849-12.3422-.7188-13.8125 .082-.9258.3186-6.8457-1.2188-11.8125-1.4298-4.6193-1.5-2.75-1.5-2.75l-15.625-1.3438z" clip-path="url(#n)" fill="url(#u)"/>
  <path transform="translate(-.8099,4.5591)" d="m177.34 100.75c-28.266 0.2856-82.094 11.188-82.094 11.188-6.875 1.25 13.475 17.297 53.75 13.75 34.892-3.073 46.078-17.363 45.156-20.875-0.8033-3.0592-7.3903-4.1577-16.812-4.0625zm27.906 27.062c-5.25 17-63.002 19.903-84.875 18.25-22.078-1.6687-23.511-6.9249-30.75-9.75-5.125-2-7.2033 0.8647-11.25 0.25-9.875-1.5-1.875 12.375-1.875 12.375l85.75 6.625 48.5-13.25-1.625-13.75-3.875-0.75z" clip-path="url(#n)" fill="#1a1a1a" opacity=".416"/>
  <path d="m91.114 132.09c-0.8607-5e-3 -5.4547 0.8251-5.5685 4.773-0.0531 1.8416 1.6463-1.9705 12.724 5.7541 3.8229 2.6657 19.031 9.5613 54.716 6.079 33.244-3.2441 44.827-10.373 48.614-15.369-3.182-3.0052-4.0659-7.4246-4.0659-7.4246-22.274 21.92-71.419 20.031-84.499 14.142-14.764-6.6472-14.936-7.9142-21.92-7.955z" fill="url(#am)" opacity=".259"/>
  <path d="m96.94 128.74c-1.1876-0.7356-6.0284-5.313-4.75-4.75 2.034 0.8957 10.365 4.1688 12.513 5.6368 12.157 8.3097 45.328 12.839 89.084-6.7885-33.713 23.908-76.793 19.157-88.15 11.353-4.6797-3.2156-5.0161-3.172-8.6961-5.4513z" fill="url(#an)" opacity=".391"/>
  <path d="m182.71 123.29c-7.0294-15.525-18.606-7.5486-23.75-6-8.8284 2.6576-18.299-2.4039-20 12.188 3.1187 0.8687 7-1.9375 7.5 15.812 0.6192 21.983-2.5 63.25-2.5 63.25 39-7 18.25 12 48.25 0 0 0-2.6693-70.164-9.5-85.25z" fill="url(#ao)"/>
  <path transform="translate(-.8099,4.5591)" d="m173.88 111.38c-5.25 0-8.6483 3.759-10.812 4.625-2.0009 0.8006-3.2215 0.3357-12.375 1.4375-6.75 0.8125-6.75 5.5625-6.9375 9.4375l2.625 10.062s1.6935-5.9873 6.5-7.5c4.7065-1.4811 11.16-0.8244 15.094-1.4063 2.8687-0.4243 16.969-6.0313 18.406-0.7813 0 0 0.4375-7.8125-4.875-12.438-1.0625-1.5-2.375-3.4375-7.625-3.4375zm-15.469 33.219c-5.2934 0.1823-11.114 2.038-11.844 5.5625l-1.7813 14.688s0.3582-0.0233 2.6563-1.4375 13.44-0.5294 20.688 0.5313 8.6416-1.2402 18.188-1.5938c2.3709-0.0878 3.8532-0.0933 4.75-0.0937l-1.5625-13.844s-1.0438-1.2518-2.2813-2.3125-12.554 1.9375-13.969 1.9375-3.1967-0.7117-8.5-2.6563c-1.6573-0.6077-3.9377-0.8641-6.3438-0.7813zm32.656 17.656 0.0312 0.2813s2.6829-0.2826-0.0312-0.2813zm1.625 13.719c-17.854 3.7123-22.558 4.9918-31.469 3.7188-3.9214-0.5602-13.068-1.0551-16.25 3.1875l-2.3125 12.188c29.522-4.9497 36.411 9.5539 50.906-1.4063l-0.875-17.688z" clip-path="url(#m)" fill="url(#t)"/>
  <path transform="translate(-.8099,4.5591)" d="m178.44 106.12-8.75 2.75c7.9357 0.5429 9.1875 5.5625 10.812 8.6875 3.3603 6.4621 7.6679 43.541 7.5688 64.951-0.0785 16.954-3.6699 22.542-8.8188 26.456 2.1213 0.0884 15.5-4.2813 15.5-4.2813s-1e-5 -60.75-4.5-72.75-11.812-25.812-11.812-25.812zm-18.094 5.8438c-1.567 0.037-5.0859 0.2813-8.0625 1.5 6.625 0.5625 15.488 5.7436 15.488 23.51 3.851-13.41 5.033-21.189-6.6134-25.01 0 0-0.2902-0.0123-0.8125 0zm-19.031 12.281c-1.0752 0.1025-1.9773 0.5596-2.375 1.1563l3.375 59.219s2.034 2.2077 3.625-4.1563 2.9026-48.695 0.7813-52.938c-1.3258-2.6517-3.6143-3.4522-5.4063-3.2813z" clip-path="url(#m)" fill="url(#s)" opacity=".708"/>
  <path d="m145.1901,120.6841c-.2319.0171-.4583.044-.6875.0937-2.2644.4911-4.0602,5.3402-2.375,6.2813 2.5579,1.4284 6.2672.9078 6.3438,10.6563 .063,8.0201.9802,11.5639-2.375,60.6563 3.0052-9.5459 4.7299-48.1543 5.2188-56.75 .9944-17.4843-2.6461-21.1943-6.125-20.9375zm34.5,44.5625c-3.375,30.5-2.625,34.625-9.75,36.625-5.4993,1.5437-1.875,2.625-1.875,2.625s6.5168,3.8705 8.125,1.625c1.8117-2.5295 4.625-8.75 3.5-40.875z" fill="url(#ap)" opacity=".399"/>
  <path d="m165.01 158.43s-8.834 17.131-13.435 32.527 6.364 10.96 9.8995 10.253c0.8839-0.1768-7.4246-4.4194 3.5355-42.78z" fill="url(#aq)" opacity=".749"/>
  <path d="m132.43 159.88c-0.219-1.6067 2.0725-3.165 2.2364-1.5518 1.8527 18.24 0.3345 25.427-0.3726 27.858-0.7164 2.4627-4.773 4.6924-4.0217 2.5633 1.4692-4.1632 3.493-19.076 2.1579-28.869z" fill="url(#ar)" opacity=".453"/>
  <g transform="translate(-8.4853,-2.1213)">
   <path transform="matrix(.91481 0 0 .86795 97.641 -21.69)" d="m32 216.56c0 5.73-4.645 10.375-10.375 10.375s-10.375-4.645-10.375-10.375 4.645-10.375 10.375-10.375 10.375 4.6451 10.375 10.375z" fill="#666"/>
   <path transform="translate(7.6754,6.6805)" d="m109.6875,151.2188c-4.8327,0-8.75,3.7307-8.75,8.3438 0,2.0961.8202,4.0022 2.1563,5.4688-.4169-1.0624-.6563-2.2302-.6563-3.4375 0-5.2477 4.3284-9.5 9.6563-9.5 .6449,0 1.2656.0686 1.875.1875-1.263-.6753-2.7306-1.0625-4.2813-1.0625z" fill="url(#c)" opacity=".366"/>
   <path d="m117.5174,174.7058c4.8327,0 8.75-3.7307 8.75-8.3438 0-2.0961-.8202-4.0022-2.1563-5.4688 .4169,1.0624.6563,2.2302.6563,3.4375 0,5.2477-4.3284,9.5-9.6563,9.5-.6449,0-1.2656-.0686-1.875-.1875 1.263.6753 2.7306,1.0625 4.2813,1.0625z" fill="url(#b)" opacity=".366"/>
  </g>
  <g transform="matrix(.97672 0 0 1.0834 -18.317 13.333)">
   <path transform="matrix(.91481 0 0 .86795 97.641 -21.69)" d="m32 216.56c0 5.73-4.645 10.375-10.375 10.375s-10.375-4.645-10.375-10.375 4.645-10.375 10.375-10.375 10.375 4.6451 10.375 10.375z" fill="#666"/>
   <path transform="translate(7.6754,6.6805)" d="m109.6875,151.2188c-4.8327,0-8.75,3.7307-8.75,8.3438 0,2.0961.8202,4.0022 2.1563,5.4688-.4169-1.0624-.6563-2.2302-.6563-3.4375 0-5.2477 4.3284-9.5 9.6563-9.5 .6449,0 1.2656.0686 1.875.1875-1.263-.6753-2.7306-1.0625-4.2813-1.0625z" fill="url(#c)" opacity=".366"/>
   <path d="m117.5174,174.7058c4.8327,0 8.75-3.7307 8.75-8.3438 0-2.0961-.8202-4.0022-2.1563-5.4688 .4169,1.0624.6563,2.2302.6563,3.4375 0,5.2477-4.3284,9.5-9.6563,9.5-.6449,0-1.2656-.0686-1.875-.1875 1.263.6753 2.7306,1.0625 4.2813,1.0625z" fill="url(#b)" opacity=".366"/>
  </g>
  <g transform="matrix(.82771 0 0 .99509 -1.8365 59.355)">
   <path transform="matrix(.91481 0 0 .86795 97.641 -21.69)" d="m32 216.56c0 5.73-4.645 10.375-10.375 10.375s-10.375-4.645-10.375-10.375 4.645-10.375 10.375-10.375 10.375 4.6451 10.375 10.375z" fill="#666"/>
   <path transform="translate(7.6754,6.6805)" d="m109.6875,151.2188c-4.8327,0-8.75,3.7307-8.75,8.3438 0,2.0961.8202,4.0022 2.1563,5.4688-.4169-1.0624-.6563-2.2302-.6563-3.4375 0-5.2477 4.3284-9.5 9.6563-9.5 .6449,0 1.2656.0686 1.875.1875-1.263-.6753-2.7306-1.0625-4.2813-1.0625z" fill="url(#c)" opacity=".366"/>
   <path d="m117.5174,174.7058c4.8327,0 8.75-3.7307 8.75-8.3438 0-2.0961-.8202-4.0022-2.1563-5.4688 .4169,1.0624.6563,2.2302.6563,3.4375 0,5.2477-4.3284,9.5-9.6563,9.5-.6449,0-1.2656-.0686-1.875-.1875 1.263.6753 2.7306,1.0625 4.2813,1.0625z" fill="url(#b)" opacity=".366"/>
  </g>
  <g transform="matrix(.7439 0 0 .78897 16.579 119.08)">
   <path transform="matrix(.91481 0 0 .86795 97.641 -21.69)" d="m32 216.56c0 5.73-4.645 10.375-10.375 10.375s-10.375-4.645-10.375-10.375 4.645-10.375 10.375-10.375 10.375 4.6451 10.375 10.375z" fill="#666"/>
   <path transform="translate(7.6754,6.6805)" d="m109.6875,151.2188c-4.8327,0-8.75,3.7307-8.75,8.3438 0,2.0961.8202,4.0022 2.1563,5.4688-.4169-1.0624-.6563-2.2302-.6563-3.4375 0-5.2477 4.3284-9.5 9.6563-9.5 .6449,0 1.2656.0686 1.875.1875-1.263-.6753-2.7306-1.0625-4.2813-1.0625z" fill="url(#c)" opacity=".366"/>
   <path d="m117.5174,174.7058c4.8327,0 8.75-3.7307 8.75-8.3438 0-2.0961-.8202-4.0022-2.1563-5.4688 .4169,1.0624.6563,2.2302.6563,3.4375 0,5.2477-4.3284,9.5-9.6563,9.5-.6449,0-1.2656-.0686-1.875-.1875 1.263.6753 2.7306,1.0625 4.2813,1.0625z" fill="url(#b)" opacity=".366"/>
  </g>
  <path d="m220.86 182.81c-1.2865-2.7376-15.625-13.496-20.886-6.7556-3.8182 4.8922-6.9937 19.891-4.3693 26.084 1.5075 3.5577 11.474 9.8277 16.742 8.9649 6.9066-1.1312 7.5217-15.514 9.2032-19.727 2.2752-5.7004-1.4135-8.7194-1.8203-11.475-1.0682-7.2365-2.934-11.776-6.5889-11.553-4.4733 0.2728-5.3766 6.2406-5.3766 6.2406" fill="url(#ab)" stroke="#5f8dd3"/>
  <path d="m217.11 181.89c6.9205 1.8972 1.3467 16.445-1.2457 24.656-2.2809 7.2241-15.449 0.2688-18.009-3.9282 4.0731 2.3711 6.7172 2.8668 10.953 1.99 2.3723-0.4911-1.0284-6.9169 0.5078-11.502 0.8912-2.6602 7.055-2.9397 7.2578-5.1878 0.2777-3.0783-3.8635-7.2333 0.5362-6.0272z" fill="url(#ac)" opacity=".79"/>
  <path d="m211.29 169.97c2.8728-2.8498 7.4925 2.4269 6.7856 8.4119-0.9776-6.7147-3.1203-7.2151-6.7856-8.4119z" fill="url(#ad)"/>
  <path d="m196.23 199.39c0.0161-6.3636 4.305-9.0053 3.8754-12.76-1.3039-11.393 17.651-3.9758 9.1564-10.152-11.144-7.9842-14.881 20.294-13.032 22.911z" fill="url(#ae)" opacity=".502"/>
 </g>
</svg>
