<?xml version="1.0" encoding="UTF-8"?>
<svg viewBox="0 0 744.09 1052.4" xmlns="http://www.w3.org/2000/svg">
 <defs>
  <filter id="k">
   <feGaussianBlur stdDeviation="5.186893"/>
  </filter>
  <linearGradient id="p" x1=".20703" x2=".95312" y1=".44141" y2=".019531">
   <stop stop-color="#f00" offset="0"/>
   <stop stop-color="#ffaad4" stop-opacity=".996" offset="1"/>
  </linearGradient>
  <linearGradient id="n" x1=".39453" x2=".51562" y1=".72656" y2=".34375">
   <stop stop-color="#0f0" offset="0"/>
   <stop stop-color="#d4ffaa" stop-opacity=".996" offset="1"/>
  </linearGradient>
  <linearGradient id="q" x1=".3125" y1=".64844">
   <stop stop-color="#ff7f00" offset="0"/>
   <stop stop-color="#ffaa56" stop-opacity=".996" offset="1"/>
  </linearGradient>
  <linearGradient id="s" x1=".38672" y1=".75781">
   <stop stop-color="#ff0" offset="0"/>
   <stop stop-color="#ffa" stop-opacity=".996" offset="1"/>
  </linearGradient>
  <linearGradient id="r" x1=".27734" x2=".82422" y1=".71484" y2=".19922">
   <stop stop-color="#00f" offset="0"/>
   <stop stop-color="#0ff" stop-opacity=".996" offset="1"/>
  </linearGradient>
  <linearGradient id="o" x1=".44531" y1=".45312">
   <stop offset="0"/>
   <stop stop-color="#fff" offset=".75391"/>
   <stop stop-color="#fff" offset="1"/>
  </linearGradient>
  <linearGradient id="a" x1=".27734" y1=".34766">
   <stop offset="0"/>
   <stop stop-color="#fff" offset="1"/>
  </linearGradient>
  <linearGradient id="m" x1=".63046" x2=".25492" y1=".97279" y2=".0526">
   <stop stop-color="#241f1c" offset="0"/>
   <stop stop-color="#241f1c" stop-opacity="0" offset="1"/>
  </linearGradient>
  <linearGradient id="l" x1=".7677" x2="-2.8e-5" y1="1.0778" y2="-.24986">
   <stop stop-color="#241f1c" offset="0"/>
   <stop stop-color="#241f1c" stop-opacity="0" offset="1"/>
  </linearGradient>
 </defs>
 <g fill-rule="evenodd">
  <g fill="#6c5d53" filter="url(#k)" stroke="url(#a)">
   <g stroke-width="0">
    <path d="m77.655 405.25c37.091-104.09 127.88-160.47 211.82-179.57 147.37 29.2 200.31 73.588 229.38 135.4-29.862-2.0719-54.349-20.139-95.641 11.798-25.915-4.747-47.262-29.528-83.862 12.596-23.061-18.18-50.64-19.844-85.692 5.8017-21.556-18.997-46.779-23.596-80.552 5.3703-34.906-15.591-67.431-16.954-95.449 8.6057z"/>
    <path d="m77.655 405.25c37.091-104.09 127.88-160.47 211.82-179.57 147.37 29.2 200.31 73.588 229.38 135.4-29.862-2.0719-54.349-20.139-95.641 11.798-25.915-4.747-47.262-29.528-83.862 12.596-23.061-18.18-50.64-19.844-85.692 5.8017-21.556-18.997-46.779-23.596-80.552 5.3703-34.906-15.591-67.431-16.954-95.449 8.6057z"/>
    <path d="m87.655 387.74c40.873-83.248 105.01-131.71 185.76-155.35-56.994 35.912-83.984 90.272-102.63 149.76-21.763-8.549-40.335-22.687-83.122 5.586z"/>
    <path d="m173.61 382.91c5.0029-13.45 38.755-122.7 107.51-151.16-23.813 64.552-27.603 71.321-30.933 142.75-21.763-8.549-33.792-19.862-76.579 8.4117z"/>
    <path d="m424.65 355.12c-5.2739-12.015-46.762-115.76-134.02-124.84 28.051 56.203 39.415 72.417 45.849 138.28 22.919-11.419 41.297-32.891 88.17-13.437z"/>
    <path d="m513.75 348.9c-0.30743-3.4304-64.393-103.98-218.51-119.41 4.825 3.9686 108.19 60.785 129.32 125.97 28.361-11.616 23.028-25.22 89.193-6.5568z"/>
    <path d="m288.4 227.56c-19.87 21.186-47.175 109.07-37.598 147.28 29.407-27.51 60.476-25.122 85.43-6.7723-7.0539-51.108-18.715-105.41-47.833-140.51z"/>
    <path d="m87.655 387.74c40.873-83.248 105.01-131.71 185.76-155.35-56.994 35.912-83.984 90.272-102.63 149.76-21.763-8.549-40.335-22.687-83.122 5.586z"/>
    <path d="m173.61 382.91c5.0029-13.45 38.755-122.7 107.51-151.16-23.813 64.552-27.603 71.321-30.933 142.75-21.763-8.549-33.792-19.862-76.579 8.4117z"/>
    <path d="m288.4 227.56c-19.87 21.186-47.175 109.07-37.598 147.28 29.407-27.51 60.476-25.122 85.43-6.7723-7.0539-51.108-18.715-105.41-47.833-140.51z"/>
    <path d="m424.65 355.12c-5.2739-12.015-46.762-115.76-134.02-124.84 28.051 56.203 39.415 72.417 45.849 138.28 22.919-11.419 41.297-32.891 88.17-13.437z"/>
    <path d="m513.75 348.9c-0.30743-3.4304-64.393-103.98-218.51-119.41 4.825 3.9686 108.19 60.785 129.32 125.97 28.361-11.616 23.028-25.22 89.193-6.5568z"/>
    <path d="m284.19 227.1l0.7671-13.102 5.5608-1.0563 3.4343 13.618-9.7622 0.5401z"/>
   </g>
   <path d="m300 374.79l15.714 275.71v-2.8572" stroke-linecap="round" stroke-width="8.5"/>
   <g stroke-width="0">
    <path d="m311.61 644.26s-0.85315 42.516-0.53571 55.536c0.20795 8.5294 16.95 6.5045 15.536-0.71429-2.4672-12.595-6.9643-54.821-6.9643-54.821h-8.0357z"/>
    <path d="m311.61 644.26s-0.85315 42.516-0.53571 55.536c0.20795 8.5294 16.95 6.5045 15.536-0.71429-2.4672-12.595-6.9643-54.821-6.9643-54.821h-8.0357z"/>
   </g>
  </g>
  <g stroke-width="0">
   <g stroke="url(#a)">
    <path d="m66.226 388.11c37.091-104.09 127.88-160.47 211.82-179.57 147.37 29.2 200.31 73.588 229.38 135.4-29.862-2.0719-54.349-20.139-95.641 11.798-25.915-4.747-47.262-29.528-83.862 12.596-23.061-18.18-50.64-19.844-85.692 5.8017-21.556-18.997-46.779-23.596-80.552 5.3703-34.906-15.591-67.431-16.954-95.449 8.6057z"/>
    <path d="m66.226 388.11c37.091-104.09 127.88-160.47 211.82-179.57 147.37 29.2 200.31 73.588 229.38 135.4-29.862-2.0719-54.349-20.139-95.641 11.798-25.915-4.747-47.262-29.528-83.862 12.596-23.061-18.18-50.64-19.844-85.692 5.8017-21.556-18.997-46.779-23.596-80.552 5.3703-34.906-15.591-67.431-16.954-95.449 8.6057z" fill="#7f00ff" opacity=".5"/>
    <path d="m76.226 370.59c40.873-83.248 105.01-131.71 185.76-155.35-56.994 35.912-83.984 90.272-102.63 149.76-21.763-8.549-40.335-22.687-83.122 5.586z" fill="#aa00d4"/>
    <path d="m162.18 365.76c5.0029-13.45 38.755-122.7 107.51-151.16-23.813 64.552-27.603 71.321-30.933 142.75-21.763-8.549-33.792-19.862-76.579 8.4117z" fill="#7137c8"/>
    <path d="m413.22 337.98c-5.2739-12.015-46.762-115.76-134.02-124.84 28.051 56.203 39.415 72.417 45.849 138.28 22.919-11.419 41.297-32.891 88.17-13.437z" fill="#37c871"/>
    <path d="m502.33 331.76c-0.30743-3.4304-64.393-103.98-218.51-119.41 4.825 3.9686 108.19 60.785 129.32 125.97 28.361-11.616 23.028-25.22 89.193-6.5568z" fill="#fc0"/>
    <path d="m276.97 210.42c-19.87 21.186-47.175 109.07-37.598 147.28 29.407-27.51 60.476-25.122 85.43-6.7723-7.0539-51.108-18.715-105.41-47.833-140.51z" fill="#3737c8"/>
   </g>
   <path d="m76.226 370.59c40.873-83.248 105.01-131.71 185.76-155.35-56.994 35.912-83.984 90.272-102.63 149.76-21.763-8.549-40.335-22.687-83.122 5.586z" fill="url(#p)" stroke="url(#o)"/>
   <g stroke="url(#a)">
    <path d="m162.18 365.76c5.0029-13.45 38.755-122.7 107.51-151.16-23.813 64.552-27.603 71.321-30.933 142.75-21.763-8.549-33.792-19.862-76.579 8.4117z" fill="url(#q)"/>
    <path d="m277.97 210.42c-19.87 21.186-47.175 109.07-37.598 147.28 29.407-27.51 60.476-25.122 85.43-6.7723-7.0539-51.108-18.715-105.41-47.833-140.51z" fill="url(#s)"/>
    <path d="m413.22 337.98c-5.2739-12.015-46.762-115.76-134.02-124.84 28.051 56.203 39.415 72.417 45.849 138.28 22.919-11.419 41.297-32.891 88.17-13.437z" fill="url(#n)" opacity=".5"/>
    <path d="m502.33 331.76c-0.30743-3.4304-64.393-103.98-218.51-119.41 4.825 3.9686 108.19 60.785 129.32 125.97 28.361-11.616 23.028-25.22 89.193-6.5568z" fill="url(#r)"/>
    <path d="m272.76 209.95l0.7671-13.102 5.5608-1.0563 3.4343 13.618-9.7622 0.5401z" fill="url(#l)"/>
   </g>
  </g>
  <g stroke="url(#a)">
   <path d="m288.57 357.65l15.714 275.71v-2.8572" fill="none" stroke-linecap="round" stroke-width="8.5"/>
   <g stroke-width="0">
    <path d="m300.18 627.11s-0.85315 42.516-0.53571 55.536c0.20795 8.5294 16.95 6.5045 15.536-0.71429-2.4672-12.595-6.9643-54.821-6.9643-54.821h-8.0357z" fill="#675a5a"/>
    <path d="m300.18 627.11s-0.85315 42.516-0.53571 55.536c0.20795 8.5294 16.95 6.5045 15.536-0.71429-2.4672-12.595-6.9643-54.821-6.9643-54.821h-8.0357z" fill="url(#m)"/>
   </g>
  </g>
 </g>
</svg>
