<svg width="21" height="24" viewBox="0 0 21 24" fill="none" xmlns="http://www.w3.org/2000/svg">
<path d="M1.23055 22.012C2.04435 22.8323 2.90372 23.2457 3.80867 23.2522C4.71362 23.2587 5.56648 22.8616 6.36727 22.0608C6.66675 21.7679 6.9646 21.3935 7.26082 20.9378C7.55705 20.4821 7.84839 20.0019 8.13484 19.4973C8.4213 18.9928 8.69637 18.5192 8.96004 18.0765C9.22371 17.6338 9.47274 17.2757 9.70711 17.0022L11.7872 19.0921C12.1648 19.4762 12.5701 19.6698 13.003 19.6731C13.4359 19.6764 13.838 19.4925 14.2091 19.1214L15.4688 17.8518C15.8399 17.4742 16.0255 17.0738 16.0255 16.6507C16.0255 16.2275 15.8302 15.8238 15.4395 15.4397L7.81258 7.803C7.42847 7.41889 7.02319 7.2252 6.59676 7.22195C6.17033 7.2187 5.76831 7.40262 5.3907 7.77371L4.13094 9.04324C3.75985 9.41433 3.5743 9.81472 3.5743 10.2444C3.5743 10.6741 3.76636 11.081 4.15047 11.4651L6.24031 13.5452C5.96688 13.7731 5.6088 14.0188 5.16609 14.2825C4.72338 14.5462 4.25138 14.8229 3.75008 15.1126C3.24878 15.4023 2.77026 15.6953 2.31453 15.9915C1.8588 16.2877 1.48446 16.5823 1.19149 16.8753C0.390705 17.6761 -0.00643166 18.529 7.87547e-05 19.4339C0.00658917 20.3388 0.416746 21.1982 1.23055 22.012ZM5.48836 9.91238L6.27938 9.14089C6.40959 9.01068 6.54142 8.94395 6.67488 8.9407C6.80835 8.93745 6.93693 9.00092 7.06063 9.13113L14.1212 16.1819C14.3751 16.4423 14.3685 16.706 14.1016 16.9729L13.3399 17.7444C13.073 18.0309 12.806 18.0341 12.5391 17.7542L10.2052 15.4104C10.0229 15.2281 9.82267 15.1451 9.60457 15.1614C9.38647 15.1777 9.17325 15.2867 8.96492 15.4886C8.77612 15.6774 8.55151 15.9931 8.29109 16.4358C8.03068 16.8785 7.74422 17.3798 7.43172 17.9397C7.11922 18.4996 6.78556 19.053 6.43074 19.5999C6.07593 20.1468 5.70321 20.6123 5.31258 20.9964C4.84383 21.4717 4.3409 21.7077 3.80379 21.7044C3.26668 21.7011 2.75399 21.4586 2.2657 20.9768C1.78393 20.4951 1.54142 19.984 1.53816 19.4436C1.53491 18.9033 1.77091 18.3987 2.24617 17.93C2.63028 17.5459 3.09578 17.1748 3.64266 16.8167C4.18953 16.4586 4.74292 16.1233 5.30281 15.8108C5.86271 15.4983 6.36564 15.2135 6.8116 14.9563C7.25757 14.6992 7.57495 14.4762 7.76375 14.2874C7.95906 14.0791 8.06649 13.8642 8.08602 13.6429C8.10555 13.4215 8.02417 13.2229 7.84188 13.0472L5.48836 10.7034C5.22143 10.4365 5.22143 10.1728 5.48836 9.91238ZM3.75984 20.7132C4.09187 20.7132 4.37508 20.5944 4.60945 20.3567C4.84383 20.1191 4.96102 19.8343 4.96102 19.5022C4.96102 19.1702 4.84383 18.887 4.60945 18.6526C4.37508 18.4183 4.09187 18.3011 3.75984 18.3011C3.42781 18.3011 3.14298 18.4183 2.90535 18.6526C2.66772 18.887 2.54891 19.1702 2.54891 19.5022C2.54891 19.8343 2.66772 20.1191 2.90535 20.3567C3.14298 20.5944 3.42781 20.7132 3.75984 20.7132ZM15.3321 16.4065L19.9708 11.7679C20.5111 11.2275 20.7764 10.6497 20.7667 10.0345C20.7569 9.41923 20.4753 8.83165 19.922 8.27175L12.2559 0.595971C11.9955 0.342065 11.7042 0.174422 11.3819 0.0930415C11.0596 0.0116613 10.7406 0.0132889 10.4249 0.0979243C10.1091 0.18256 9.83081 0.348575 9.58992 0.595971C9.34903 0.843367 9.18302 1.16563 9.09188 1.56277C8.90959 2.35053 8.75496 3.01622 8.62801 3.55984C8.50106 4.10346 8.38061 4.56895 8.26668 4.95632C8.15275 5.34369 8.02742 5.69526 7.8907 6.01101C7.75399 6.32676 7.58797 6.64415 7.39266 6.96316C7.19735 7.28217 6.94995 7.65001 6.65047 8.06668L7.77352 9.18972C8.20321 8.62983 8.54663 8.12039 8.80379 7.6614C9.06095 7.20242 9.27579 6.73204 9.44832 6.25027C9.62085 5.7685 9.78849 5.21999 9.95125 4.60476C10.114 3.98953 10.3126 3.24571 10.547 2.37332C10.5925 2.20405 10.6625 2.07872 10.7569 1.99734C10.8513 1.91596 10.9571 1.88015 11.0743 1.88992C11.1915 1.89969 11.3054 1.95991 11.4161 2.07058L18.7305 9.37527C18.9584 9.60314 19.0723 9.84401 19.0723 10.0979C19.0723 10.3518 18.9681 10.583 18.7598 10.7913L14.2384 15.3128L15.3321 16.4065ZM13.7891 10.8401C13.9194 10.9703 14.1684 10.9833 14.5362 10.8792C14.9041 10.775 15.3207 10.5976 15.7862 10.347C16.2517 10.0963 16.6993 9.80984 17.129 9.48757C17.5587 9.16531 17.8972 8.84793 18.1446 8.53543L15.9962 6.39675C15.9051 7.26264 15.656 8.0211 15.2491 8.67214C14.8422 9.32319 14.3653 9.92214 13.8184 10.469C13.6817 10.5992 13.672 10.7229 13.7891 10.8401Z" fill="white"/>
</svg>
