<?xml version="1.0" encoding="UTF-8"?>
<svg viewBox="0 0 744.09 1052.4" xmlns="http://www.w3.org/2000/svg">
 <defs>
  <radialGradient id="e" cx="97.428" cy="250.66" r="167.98" gradientTransform="matrix(1.9161 .34883 .5107 -2.8052 531.32 1001.8)" gradientUnits="userSpaceOnUse">
   <stop stop-color="#fff" offset="0"/>
   <stop stop-color="#fbfbfb" offset=".29046"/>
   <stop stop-color="#cbcbcb" offset=".49888"/>
   <stop stop-color="#a7a7a7" offset=".58028"/>
   <stop stop-color="#aaa" offset=".66102"/>
   <stop stop-color="#fff" offset="1"/>
  </radialGradient>
  <radialGradient id="d" cx="111.45" cy="192.85" r="97.161" gradientTransform="matrix(-.70719 -2.0787 -1.8036 .5321 682.01 628.63)" gradientUnits="userSpaceOnUse">
   <stop stop-color="#fff" offset="0"/>
   <stop stop-color="#fbfbfb" offset=".25468"/>
   <stop stop-color="#cbcbcb" offset=".46286"/>
   <stop stop-color="#a7a7a7" offset=".55956"/>
   <stop stop-color="#aaa" offset=".70522"/>
   <stop stop-color="#fff" offset="1"/>
  </radialGradient>
  <radialGradient id="f" y1="1" y2="1" cx="-207.87" cy="410.73" r="37.908" gradientTransform="matrix(2.2728 .69528 -.52455 1.7028 482.96 -135.01)" gradientUnits="userSpaceOnUse">
   <stop stop-color="#fff" offset="0"/>
   <stop stop-color="#fbfbfb" offset=".18"/>
   <stop stop-color="#cbcbcb" offset=".38101"/>
   <stop stop-color="#a7a7a7" offset=".5"/>
   <stop stop-color="#aaa" offset=".57098"/>
   <stop stop-color="#fff" offset="1"/>
  </radialGradient>
 </defs>
 <g transform="matrix(.99976 -.021998 .021998 .99976 -6.1852 21.556)">
  <g stroke="#000" stroke-linecap="square">
   <g stroke-width="9">
    <path d="m274.9 489.73c-11.247 22.459-27.844 43.41-55.118 29.228-14.967-7.7825-31.736-21.852-37.016-26.742-4.5882-4.2498-7.5078-10.922-4.5963-17.212 10.914-23.58 34.134-9.5406 48.602-2.8264 31.808 14.762 6.124-22.324 35.402-12.93 7.3876 2.3702 20.047 11.318 12.726 30.483h6.1e-5z"/>
    <path d="m527.39 559.1c-8.7071 23.56-32.741 35.617-61.41 24.523-15.733-6.088-24.104-7.6326-29.89-11.912-5.028-3.7191-8.6642-10.029-6.4626-16.602 8.2525-24.638 21.68-23.973 36.798-18.892 33.24 11.172 32.418-10.306 44.961-6.0142 7.3407 2.5117 21.171 9.0434 16.004 28.897z"/>
    <path d="m286.59 452.46c-43.105-17.015-70.308-6.0475-94.585 38.887l-9.601 24.806c5.2415 26.019 22.019 58.321 68.348 59.419 67.319 1.5967 109.49-15.302 120.88-33.932 4.1184-21.446-15.678-61.799-85.045-89.18z" fill="url(#d)"/>
   </g>
   <path d="m229.87 428.47c-14.936-5.0833-31.068 2.6159-36.03 17.197-4.9623 14.581 3.1233 30.522 18.06 35.605 14.936 5.0833 31.068-2.6159 36.03-17.197 4.9623-14.581-3.1233-30.522-18.06-35.605z" fill="url(#f)" stroke-width="10.518"/>
   <path d="m482.25 313.3c-9.1562 23.694 4.8738 51.171 31.337 61.37 26.463 10.2 55.338-0.74023 64.494-24.435 9.1561-23.694-4.8739-51.171-31.337-61.37-26.463-10.2-55.338 0.74026-64.494 24.435z" stroke-width="20.998"/>
   <path d="m264.93 454.59c3.0773 81.874 105.08 128.54 200.15 116.29 91.054-11.73 139.19-66.473 125.4-147.22-14.119-82.677-82.465-145.37-174.2-141.84-91.729 3.5276-154.44 90.895-151.36 172.77z" fill="url(#e)" stroke-width="9"/>
   <path d="m246.66 393.72c20.654 10.726 49.394-0.64026 64.191-25.387 14.797-24.746 10.049-53.502-10.606-64.228-20.654-10.726-49.394 0.64023-64.191 25.387-14.797 24.746-10.049 53.502 10.606 64.228z" stroke-width="19.632"/>
   <g stroke-width="9">
    <path d="m460.37 507.93c0.30182 8.0304 10.119 14.18 21.913 13.726 11.794-0.45355 21.121-7.3391 20.819-15.37-0.30182-8.0304-10.247-17.578-22.041-17.124-11.794 0.45355-20.994 10.737-20.692 18.768z"/>
    <path d="m518.53 512.54s10.024 25.174-14.552 26.884c-11.635 0.81958-22.704-17.493-22.704-17.493s-3.0309 15.81-17.927 23.341c-13.291 6.7188-22.338 4.5555-31.339 0.63592-12.341-5.3736-13.38-17.282-13.38-17.282" fill="none"/>
    <path d="m562.51 420.66c31.11 20.349 37.466 53.789 22.06 71.292-11.312 12.852-25.178 21.547-42.71 13.942-25.361-11.001-17.781-26.394-38.055-41.63-17.816-13.389-21.053-35.288-11.922-47.113 10.917-14.14 39.518-16.84 70.627 3.5091z"/>
    <path d="m500.06 448.34c3.601 13.198 16.532 20.345 28.864 15.954 12.332-4.3907 19.418-18.665 15.817-31.863-3.6011-13.198-16.532-20.345-28.864-15.954-12.332 4.3906-19.418 18.665-15.817 31.863z" fill="#fff"/>
    <path d="m532.22 438.95c-4.6654-3.0537-10.596-3.0666-20.128 5.174" fill="none"/>
    <path d="m364.48 422.56c-31.211 14.59-48.266 45.613-41.534 76.615 7.5946 34.971 49.024 45.534 72.62 34.45 16.079-7.5535 17.677-34.587 29.789-47.15 13.961-14.481 15.059-31.072 8.3057-51.319-8.1216-24.349-37.971-27.186-69.182-12.595z"/>
    <path d="m369.29 450.32c-0.79199 14.716 11.19 27.304 26.745 28.097 15.555 0.79355 28.823-10.506 29.615-25.222 0.79199-14.716-11.19-27.304-26.745-28.097-15.555-0.79358-28.823 10.506-29.615 25.222z" fill="#fff"/>
    <path d="m413.75 455.16c-13.333-4.7912-22.039-2.355-27.477-0.21436" fill="none"/>
   </g>
   <g stroke-width="9">
    <path d="m389.01 581.25c-15.262 19.95-41.781 24.391-65.909 5.3426-13.241-10.453-20.786-14.395-25.054-20.19-3.7092-5.0353-5.325-12.136-1.2848-17.769 15.145-21.114 27.78-16.522 40.731-7.2123 28.473 20.468 34.015-0.29785 44.737 7.4987 6.2749 4.5629 17.567 14.879 6.7802 32.33z"/>
    <path d="m243.87 535.72c-3.5333 24.868-24.478 41.73-54.843 36.943-16.664-2.627-25.173-2.3682-31.732-5.3292-5.7002-2.5729-10.587-7.9722-9.824-14.862 2.8612-25.826 16.126-28.012 31.977-26.239 34.849 3.8974 29.509-16.922 42.676-15.377 7.7056 0.90424 22.604 4.3667 21.747 24.864z"/>
   </g>
  </g>
 </g>
</svg>
