<?xml version="1.0" encoding="UTF-8"?>
<svg viewBox="0 0 744.09448819 1052.3622047" xmlns="http://www.w3.org/2000/svg">
 <g transform="translate(-294.96 -55.558)" fill="#008000" stroke="#fff" stroke-width="2">
  <path d="m654.55 859.73c-1.043-6.7293-1.9904-13.473-3.0304-20.203-1.1456-7.413-2.4569-14.8-3.5355-22.223-0.9279-6.3857-1.6012-12.807-2.5254-19.193-0.46381-3.2051-0.52693-6.5125-1.5152-9.5964-0.45955-1.434-2.0203-4.0406-2.0203-4.0406s4.3015 1.6798 6.566 2.0203c1.9978 0.30041 4.0415-0.0593 6.0609 0 2.8658 0.0842 5.7217 0.62423 8.5863 0.50508 3.5683-0.14842 7.1307-0.69468 10.607-1.5152 2.5908-0.6116 5.0108-1.8148 7.5762-2.5254 1.4959-0.41433 4.5457-1.0102 4.5457-1.0102l-1.0102 5.0508s-0.0486 8.7549 0 13.132c0.0842 7.5776 0.0339 15.165 0.50508 22.728 0.41037 6.5877 1.2325 13.145 2.0203 19.698 0.58824 4.8934 1.2942 9.7724 2.0203 14.647 0.62796 4.216 1.3546 8.4167 2.0203 12.627 0.85165 5.3859 1.6793 10.776 2.5254 16.162 0.50251 3.1992 1.5152 9.5964 1.5152 9.5964l-37.881 0.50507s0.16093-7.7478 0-11.617c-0.1685-4.0511-0.52115-8.0968-1.0102-12.122-0.51408-4.2314-1.3674-8.4147-2.0203-12.627z"/>
  <path d="m629.29 660.22 11.617 0.50508c3.8722 0.16836 7.7474 0.73065 11.617 0.50508 5.2776-0.30767 10.563-1.1142 15.657-2.5254 0.87374-0.24201 2.5254-1.0102 2.5254-1.0102s-0.0945 5.0525 0 7.5762c0.25272 6.7485 0.77223 13.491 1.5152 20.203 1.4041 12.685 3.9945 25.215 5.5558 37.881 1.242 10.076 1.9648 20.209 3.0305 30.305 0.64012 6.0645 0.71209 12.227 2.0203 18.183 0.57106 2.6 2.5254 7.5761 2.5254 7.5761s-7.0386 1.8343-10.607 2.5254c-3.3427 0.64744-6.7157 1.1562-10.102 1.5152-2.684 0.28463-5.3827 0.55534-8.0812 0.50508-3.3834-0.063-6.7821-0.35258-10.102-1.0102-1.7242-0.34156-5.0508-1.5152-5.0508-1.5152s2.099-4.9485 2.5254-7.5762c0.70117-4.3208 0.26123-8.7625 0-13.132-0.50598-8.4632-2.2001-16.816-3.0305-25.254-0.85999-8.7383-1.0622-17.536-2.0203-26.264-0.77941-7.1002-1.789-14.179-3.0305-21.213-1.1363-6.4384-3.0404-12.732-4.0406-19.193-0.25884-1.6721 0.0101-3.4391-0.50507-5.0508-0.41331-1.2929-2.0203-3.5355-2.0203-3.5355z"/>
  <path d="m628.79 655.68s7.0352 1.4985 10.607 1.5152c2.5477 0.0119 5.0311-0.89228 7.5761-1.0102 4.2078-0.19491 8.4159 0.61181 12.627 0.50508 1.859-0.0471 3.7114-0.26788 5.5558-0.50508 1.0157-0.13063 2.1554 0.0269 3.0304-0.50507 0.71931-0.43728 1.5152-2.0203 1.5152-2.0203s-2.2954-3.5785-3.0305-5.5558c-3.0605-8.2333-4.143-17.09-5.5558-25.759-0.98085-6.0188-1.4761-12.109-2.0203-18.183-0.66267-7.3954-0.91878-14.822-1.5152-22.223-0.58405-7.2472-2.1546-14.449-2.0203-21.718 0.0721-3.9044 1.1695-7.727 1.5152-11.617 0.31334-3.5256 0.50508-10.607 0.50508-10.607s-4.9984 1.5885-7.5761 2.0203c-4.6611 0.78072-9.4191 0.84168-14.142 1.0102-2.8603 0.10202-8.5863 0-8.5863 0l-7.0711 5.0508-4.5457 2.0203s2.8467 14.789 4.0406 22.223c1.1591 7.2171 1.9553 14.488 3.0305 21.718 1.429 9.6097 3.3947 19.142 4.5457 28.789 0.74043 6.2057 0.79873 12.479 1.5152 18.688 0.39035 3.3824 1.6788 6.7006 1.5152 10.102-0.10001 2.0801-1.5152 6.0609-1.5152 6.0609z"/>
  <path d="m656.06 534.97s-4.6158 2.0397-7.0711 2.5254c-3.4722 0.6869-7.0766 0.24471-10.607 0.50508-3.3748 0.24892-6.7183 1.0816-10.102 1.0102-2.3804-0.0503-4.7112-0.69412-7.0711-1.0102-1.3453-0.18017-2.8746 0.18981-4.0406-0.50508-1.2441-0.74144-2.1526-2.136-2.5254-3.5355-0.8709-3.27 0.64018-6.7378 1.0102-10.102 0.46347-4.2138 1.5152-12.627 1.5152-12.627s8.4176 0.34573 12.627 0.50508c4.7137 0.17845 9.4294 0.30312 14.142 0.50508 3.3683 0.14435 10.102 0.50507 10.102 0.50507s-0.0763 3.3689 0 5.0508c0.16853 3.7154 0.53575 7.4229 1.0102 11.112 0.26126 2.0314 1.0102 6.0609 1.0102 6.0609z"/>
 </g>
 <g transform="translate(287.89 169.71)" fill="#008000" stroke="#fff" stroke-width="2">
  <path d="m78.287 679.11s1.5902-14.46 2.0203-21.718c0.38858-6.5566 0.42088-13.13 0.50507-19.698 0.11868-9.259-0.10765-18.52 0-27.779 0.0842-7.2409 0.42089-14.477 0.50508-21.718 0.092-7.9123 0.65265-15.853 0-23.739-0.16893-2.0412-0.53958-4.0675-1.0102-6.0609-0.52612-2.2287-2.0203-6.566-2.0203-6.566s5.294 2.3178 8.0812 3.0305c4.6135 1.1796 9.3922 1.6827 14.142 2.0203 3.5266 0.25063 7.0831 0.29161 10.607 0 4.0824-0.33787 12.122-2.0203 12.122-2.0203s-2.3972 6.3022-3.0305 9.5964c-1.7209 8.9524-1.7918 18.161-2.0203 27.274-0.17728 7.0708 0.59756 14.141 0.50507 21.213-0.13226 10.113-1.133 20.198-1.5152 30.305-0.2482 6.5635-0.64962 13.131-0.50507 19.698 0.15971 7.2553 1.5152 21.718 1.5152 21.718z"/>
  <path d="m79.802 547.79s14.047 3.3642 21.213 4.0406c5.6989 0.53791 11.522 0.91692 17.173 0 1.5766-0.25584 4.5457-1.5152 4.5457-1.5152s-1.1415-3.3332-1.5152-5.0508c-1.048-4.8159-1.5935-9.7371-2.0203-14.647-0.80241-9.231-0.9344-18.514-1.0102-27.779-0.0688-8.4193 0.16356-16.841 0.50507-25.254 0.33524-8.2582 0.88848-16.508 1.5152-24.749 0.42304-5.5627 0.71451-11.147 1.5152-16.668 0.61608-4.2479 2.5254-12.627 2.5254-12.627s-6.0369 1.1854-9.0914 1.5152c-3.3519 0.3619-6.7393 0.75339-10.102 0.50508-3.4245-0.25291-6.7552-1.2499-10.102-2.0203-3.8998-0.89786-7.672-2.3567-11.617-3.0305-1.9984-0.34131-6.0609-0.50508-6.0609-0.50508s0.84173 12.452 1.0102 18.688c0.22272 8.2466-0.0982 16.5 0 24.749 0.0842 7.0726 0.29 14.143 0.50508 21.213 0.13832 4.5467 0.0987 9.1064 0.50507 13.637 0.53178 5.9286 1.9745 11.751 2.5254 17.678 0.35868 3.8593 0.66183 7.744 0.50508 11.617-0.27446 6.7812-2.5254 20.203-2.5254 20.203z"/>
  <path d="m82.327 343.24s0.65638 16.499 0.50508 24.749c-0.10823 5.9012-0.58973 11.79-1.0102 17.678-0.42128 5.8991-0.79501 11.808-1.5152 17.678-0.51908 4.2308-2.0203 12.627-2.0203 12.627s7.3848 2.1087 11.112 3.0305c4.5204 1.118 9.0185 2.4368 13.637 3.0305 4.5117 0.57996 9.1128 0.9772 13.637 0.50507 2.0712-0.21615 6.0609-1.5152 6.0609-1.5152s-1.0057-12.449-1.0102-18.688c-5e-3 -6.4065 0.51481-12.806 1.0102-19.193 0.51033-6.5807 1.4952-13.118 2.0203-19.698 0.46957-5.8835 1.0102-17.678 1.0102-17.678l0.50508-1.5152s-9.0816 1.165-13.637 1.0102c-3.5694-0.12133-7.0442-1.262-10.607-1.5152-4.5342-0.32224-9.0953 0.18891-13.637 0-2.0256-0.0842-6.0609-0.50507-6.0609-0.50507z"/>
 </g>
 <g transform="translate(7.0711 6.0609)" fill="#008000" stroke="#fff" stroke-width="2">
  <path d="m385.88 813.97 2.0203 35.355 45.457 10.102s-4.4571-20.798-4.0406-31.315c0.25874-6.5328 4.0406-19.193 4.0406-19.193s-9.8507 4.8424-15.152 6.0609c-4.606 1.0586-9.417 1.1031-14.142 1.0102-6.097-0.11997-18.183-2.0203-18.183-2.0203z"/>
  <path d="m385.88 808.41s8.5912 3.4436 13.132 4.0406c4.51 0.59302 9.1421 0.1926 13.637-0.50507 3.108-0.4824 6.0902-1.5845 9.0914-2.5254 3.4041-1.0672 10.102-3.5355 10.102-3.5355s-2.1024-8.3555-2.5254-12.627c-0.61382-6.199-0.33827-12.468 0-18.688 0.50582-9.3009 1.9812-18.524 3.0305-27.779 1.2985-11.454 2.3648-22.94 4.0406-34.345 1.2675-8.6264 2.6529-17.248 4.5457-25.759 0.98412-4.4251 3.5355-13.132 3.5355-13.132s-6.8937 3.2138-10.607 3.5355c-3.3921 0.29392-6.731-1.0327-10.102-1.5152-3.7004-0.52981-7.4446-0.7896-11.112-1.5152-3.9257-0.77682-7.8244-1.7527-11.617-3.0304-2.0741-0.69883-6.0609-2.5254-6.0609-2.5254s0.0715 22.237-0.50508 33.335c-0.3946 7.5958-1.3052 15.156-2.0203 22.728-0.79543 8.4224-1.893 16.818-2.5254 25.254-0.50398 6.7239-0.84174 13.462-1.0102 20.203-0.1682 6.7322 0.1463 13.47 0 20.203-0.0842 3.875 0.28511 7.8222-0.50508 11.617-0.47808 2.2957-2.5254 6.566-2.5254 6.566z"/>
  <path d="m396.99 662.95s10.462 5.6289 16.162 7.0711c3.9308 0.99439 8.105 0.45816 12.122 1.0102 4.416 0.60685 8.7002 3.0034 13.132 2.5254 2.5496-0.27502 7.0711-3.0305 7.0711-3.0305l-1.5152-7.5761s-0.18216-6.7456-0.50507-10.102c-0.22805-2.37-1.0102-7.0711-1.0102-7.0711l3.5355-8.5863s-7.4156-0.24003-11.112 0c-3.8968 0.25307-7.7345 1.0934-11.617 1.5152-3.8641 0.41982-7.7309 0.92252-11.617 1.0102-4.0431 0.0912-12.122-0.50508-12.122-0.50508s1.0931 5.7056 1.0102 8.5863c-0.0836 2.9051-0.83402 5.7609-1.5152 8.5863-0.53672 2.2261-2.0203 6.566-2.0203 6.566z"/>
 </g>
 <path d="m217.86 72.005s2.0905 5.8683 2.1429 8.9286c0.10188 5.9527-2.5946 11.627-3.5714 17.5-0.61053 3.6706-1.0181 7.3731-1.4286 11.071-0.56714 5.1098-1.1902 10.222-1.4286 15.357-0.24285 5.2325-0.25257 10.482 0 15.714 0.17878 3.7034 0.3291 7.4388 1.0714 11.071 1.5001 7.3407 3.9021 14.513 6.7857 21.429 2.0699 4.964 4.5194 9.8089 7.5 14.286 2.4835 3.7302 5.6579 6.9522 8.5714 10.357 2.6868 3.1399 5.5455 6.1305 8.2143 9.2857 4.6467 5.4936 9.3813 10.936 13.571 16.786 3.1159 4.3497 5.725 9.0409 8.5714 13.571 1.195 1.902 2.6861 3.6499 3.5714 5.7143 3.3914 7.9079 5.4307 16.454 6.4286 25 0.71804 6.1498-0.35714 18.571-0.35714 18.571l10.357-2.8572s4.9519-95.7-12.143-138.93c-1.5589-3.9421-5.2139-6.6858-7.8572-10-2.0056-2.5147-4.0499-4.9981-6.0714-7.5-2.9796-3.6877-5.7598-7.545-8.9286-11.071-1.4629-1.628-3.3872-2.8502-4.6428-4.6428-2.261-3.2281-3.216-7.2-5-10.714-1.23-2.423-2.1319-5.1043-3.9286-7.1429-2.1413-2.4295-5.1845-3.8855-7.8571-5.7143-1.6352-1.1189-3.5874-1.825-5-3.2143-3.6724-3.6117-8.5714-12.857-8.5714-12.857z" fill="#008000" stroke="#fff" stroke-width="2"/>
 <path d="m274.29 78.791s-0.16795 27.464-1.7857 41.071c-0.65875 5.541-2.1599 10.949-3.2143 16.429-0.84706 4.4022-1.8597 8.7774-2.5 13.214-0.17089 1.1842-0.37859 2.3752-0.35714 3.5714 0.0474 2.6429 0.60575 5.2552 1.0714 7.8571 0.96681 5.402 2.5686 10.676 3.5714 16.071 0.87996 4.7341 1.9805 9.4733 2.1429 14.286 0.19731 5.8494-1.1903 11.652-1.4286 17.5-0.18903 4.639-0.38295 9.3015 0 13.929 0.35836 4.33 1.5456 8.5536 2.1429 12.857 0.74096 5.3389 1.3708 10.697 1.7857 16.071 0.42194 5.4651 0.59521 10.948 0.71428 16.429 0.38016 17.496 0 52.5 0 52.5h9.6429s-1.2823-49.871 1.0714-74.643c1.4866-15.646 6.84-30.772 8.2143-46.429 0.27066-3.0834 0.29359-6.2044 0-9.2857-0.29897-3.1377-0.23605-6.541-1.7857-9.2857-0.78744-1.3947-3.2083-1.6544-3.5714-3.2143-0.58146-2.4976 2.1885-4.6672 2.8571-7.1428 0.84725-3.137 1.4123-6.3935 1.4286-9.6429 0.0174-3.485-0.80159-6.9289-1.4286-10.357-2.3068-12.613-5.0194-25.179-8.5714-37.5-1.3976-4.8477-3.2521-9.553-5-14.286-0.79655-2.1568-1.8723-4.2167-2.5-6.4286-1.2559-4.4252-2.5-13.571-2.5-13.571z" fill="#008000" stroke="#fff" stroke-width="2"/>
 <path d="m283.93 312.72s4.442-36.473 7.1429-54.643c1.1712-7.879 2.2668-15.781 3.9286-23.571 1.1807-5.5349 2.7939-10.969 4.2857-16.429 1.3707-5.0162 2.3028-10.193 4.2857-15 1.5036-3.645 3.5956-7.0318 5.7143-10.357 2.93-4.5987 5.9815-9.1735 9.6429-13.214 3.0005-3.3115 6.3381-6.3674 10-8.9286 3.0988-2.1673 6.6201-3.6612 10-5.3572 3.7604-1.8869 7.432-4.0422 11.429-5.3571 2.3065-0.75888 4.7266-1.1893 7.1429-1.4286 3.6725-0.36365 7.381 0 11.071 0 4.5238 0 9.048 0.058 13.571 0 4.644-0.0595 9.3061 0.0932 13.929-0.35714 5.649-0.55034 11.198-1.8642 16.786-2.8572 3.2185-0.5719 6.4512-1.0792 9.6429-1.7857 3.7213-0.82369 7.3174-2.1982 11.071-2.8571 4.947-0.86831 9.9865-1.1259 15-1.4286 9.2719-0.55971 27.857-0.71429 27.857-0.71429s-11.35-2.7208-17.143-3.2143c-7.7111-0.65689-15.477 0.2097-23.214 0.35715-5.2385 0.0998-10.477 0.19077-15.714 0.35714-5.8352 0.18538-11.663 0.8521-17.5 0.71429-4.0622-0.0959-8.0818-1.2067-12.143-1.0714-9.2722 0.30884-18.319 2.9502-27.5 4.2857-4.3985 0.63987-8.8846 0.78091-13.214 1.7857-5.134 1.1915-10.28 2.6559-15 5-4.9094 2.4379-9.3833 5.7495-13.571 9.2857-3.7954 3.2046-7.4112 6.7148-10.357 10.714-5.877 7.9788-10.479 16.922-14.286 26.071-2.0981 5.0429-3.071 10.483-4.6428 15.714-2.5793 8.5835-5.3878 17.099-7.8572 25.714-1.9016 6.6346-3.7504 13.288-5.3571 20-2.0112 8.4016-4.6593 16.746-5.3571 25.357-0.41394 5.1078-1.5919 10.781 0.71428 15.357 1.8659 3.7026 9.6429 7.8571 9.6429 7.8571z" fill="#008000" stroke="#fff" stroke-width="2"/>
 <path d="m281.07 345.22c-1.1992-6.5622-0.59522-13.33-0.71429-20-0.11687-6.5466-0.36885-13.106 0-19.643 0.35771-6.3397 1.3146-12.633 2.1429-18.929 0.62807-4.774 0.88312-9.6382 2.1429-14.286 0.83861-3.0938 1.1071-6.8787 3.5714-8.9286 0.93335-0.77638 2.4231-0.32029 3.5714-0.71429 3.7768-1.2959 7.1886-3.4828 10.714-5.3571 4.7068-2.5023 9.6001-4.746 13.929-7.8571 2.6011-1.8696 4.5199-4.5899 7.1429-6.4286 1.6572-1.1617 3.4977-2.0581 5.3571-2.8572 2.767-1.189 5.5986-2.3747 8.5714-2.8571 3.2903-0.53394 6.7156-0.56891 10 0 1.7438 0.30205 3.2734 1.3972 5 1.7857 1.1672 0.26266 3.5714 0.35714 3.5714 0.35714s-10.504 2.9414-15.357 5.3571c-3.4584 1.7213-6.1473 4.7841-9.6429 6.4286-3.374 1.5873-7.8608 0.8142-10.714 3.2143-3.667 3.0843-3.3723 9.1668-6.4286 12.857-2.0047 2.4206-5.1566 3.6199-7.5 5.7143-2.8251 2.5249-5.7032 5.097-7.8571 8.2143-1.7254 2.497-2.7251 5.428-3.9286 8.2143-1.5692 3.6329-3.2601 7.2493-4.2857 11.071-0.9993 3.724-1.705 7.5737-1.7857 11.429-0.11029 5.2706 1.3902 10.457 1.7857 15.714 0.24129 3.2074 0.29761 6.4269 0.35715 9.6429 0.0705 3.8089-0.25795 7.6278 0 11.429 0.17898 2.6372 1.0489 5.214 1.0714 7.8572 0.0429 5.0351 3.2226 14.479-1.7857 15-9.2488 0.96213-7.257-17.281-8.9286-26.429z" fill="#008000" stroke="#fff" stroke-width="2"/>
 <path d="m275.36 334.51c-0.41727-7.7716-1.3808-15.512-2.5-23.214-1.0442-7.1864-2.4259-14.324-3.9286-21.429-1.2667-5.9889-2.5008-12.002-4.2857-17.857-1.5926-5.2246-3.811-10.238-5.7143-15.357-1.5488-4.1662-2.7085-8.4982-4.6429-12.5-1.9992-4.1359-4.559-7.9875-7.1428-11.786-2.1026-3.0908-4.2024-6.2266-6.7857-8.9286-3.8553-4.0323-8.376-7.3914-12.857-10.714-4.0049-2.9697-8.1367-5.8018-12.5-8.2143-4.0094-2.2168-8.2471-4.0106-12.5-5.7143-6.0811-2.436-12.442-4.1161-18.571-6.4286-7.9427-2.9967-15.514-6.9689-23.571-9.6429-3.6174-1.2005-7.3909-1.8671-11.071-2.8571-2.9846-0.80285-5.8868-1.9525-8.9286-2.5-2.8217-0.50785-5.7286-0.34283-8.5714-0.71428-10.073-1.3161-19.946-3.9026-30-5.3572-3.2007-0.46308-6.462-0.48733-9.6428-1.0714-3.7487-0.68837-7.3457-2.0538-11.071-2.8571-2.7168-0.5858-8.2143-1.4286-8.2143-1.4286s13.102-0.68545 19.643-0.35714c5.029 0.25244 9.9689 1.5806 15 1.7857 3.2138 0.13099 6.4276-0.44726 9.6429-0.35714 8.9638 0.25125 17.839 1.8884 26.786 2.5 8.2029 0.56078 16.495-0.0277 24.643 1.0714 4.2358 0.57136 8.452 1.4853 12.5 2.8571 4.339 1.4704 8.3672 3.7372 12.5 5.7143 5.283 2.5273 10.705 4.8233 15.714 7.8571 4.5219 2.7387 8.8053 5.8901 12.857 9.2857 4.0652 3.4068 7.6171 7.383 11.429 11.071 3.5696 3.4543 7.4366 6.6248 10.714 10.357 3.425 3.9001 6.3243 8.2372 9.2857 12.5 2.9955 4.3119 6.0266 8.622 8.5714 13.214 2.8655 5.1709 5.1423 10.65 7.5 16.071 2.6626 6.1223 5.0987 12.342 7.5 18.571 2.2352 5.7986 4.5546 11.575 6.4286 17.5 1.1146 3.5242 2.1749 7.0816 2.8571 10.714 0.79586 4.238 1.3514 8.5458 1.4286 12.857 0.0855 4.7745-0.66859 9.5274-1.0714 14.286-0.53464 6.315-1.27 12.612-1.7857 18.929-0.28158 3.4491-0.71429 10.357-0.71429 10.357s-7.4205-17.253-8.9286-26.429c-0.0965-0.58736 0.0319-1.1913 0-1.7857z" fill="#008000" stroke="#fff" stroke-width="2"/>
 <path d="m291.07 433.08s-4.456-13.223-6.0714-20c-1.1209-4.7025-1.4759-9.5612-2.5-14.286-0.70343-3.2452-1.7922-6.3986-2.5-9.6428-1.1598-5.3161-1.6876-10.757-2.8571-16.071-1.0055-4.5685-2.3836-9.0469-3.5714-13.571-1.3124-4.9992-2.531-10.024-3.9286-15-1.0082-3.5898-2.0889-7.1595-3.2143-10.714-1.0226-3.2301-1.8176-6.556-3.2143-9.6428-1.3636-3.0136-3.338-5.7116-5-8.5714-1.3132-2.2598-2.9349-4.3683-3.9286-6.7857-1.0758-2.6172-1.6954-5.4202-2.1428-8.2143-0.3018-1.8845-0.35715-5.7143-0.35715-5.7143s3.1822 6.4504 5.3572 9.2857c1.8444 2.4045 4.3273 4.2449 6.4286 6.4286 3.0374 3.1565 6.405 6.0622 8.9286 9.6428 1.7791 2.5244 2.7929 5.5107 4.2857 8.2143 2.3982 4.3435 5.2451 8.4376 7.5 12.857 2.0106 3.9407 3.8077 7.9991 5.3572 12.143 1.8332 4.9025 3.3068 9.9394 4.6428 15 1.2756 4.8316 2.2924 9.7315 3.2143 14.643 0.7113 3.7896 1.1098 7.6325 1.7857 11.429 0.74482 4.1834 1.9808 8.2826 2.5 12.5 0.30581 2.4841 0.25853 4.9991 0.35715 7.5 0.15017 3.8084 0.52515 7.6209 0.35714 11.429-0.13213 2.9946-1.0714 8.9286-1.0714 8.9286z" fill="#008000" stroke="#fff" stroke-width="2"/>
 <path d="m289.64 441.29c-1.4348-3.8516-1.7844-8.0484-2.1429-12.143-0.2596-2.9648-0.26262-5.964 0-8.9286 0.29878-3.3728 0.97658-6.712 1.7857-10 0.56681-2.3033 1.1919-4.6127 2.1429-6.7857 0.38479-0.87928 1.0501-1.618 1.4286-2.5 0.98014-2.2844 2.1429-7.1429 2.1429-7.1429s1.9916 4.729 2.8571 7.1429c0.92764 2.5872 1.5089 5.2936 2.5 7.8571 1.1333 2.9315 2.7752 5.6478 3.9286 8.5714 0.69076 1.751 1.4298 3.5088 1.7857 5.3571 0.76676 3.9815-0.0149 8.1544 0.71428 12.143 0.35888 1.9631 1.219 3.8008 1.7857 5.7143 0.8777 2.9634 2.0794 5.8667 2.5 8.9286 0.90721 6.6046 0 20 0 20l-5-0.71429s-12.701-17.494-16.429-27.5z" fill="#008000" stroke="#fff" stroke-width="2"/>
 <path d="m280 425.22s3.6952 10.392 6.0714 15.357c2.1864 4.5686 5.1167 8.7453 7.5 13.214 1.7537 3.2884 3.184 6.7456 5 10 1.4327 2.5676 3.2994 4.8846 4.6429 7.5 0.70717 1.3766 1.7857 4.2857 1.7857 4.2857l14.286 6.7857 5.7143-0.35714-0.71429-8.9286s-2.3374-3.2232-3.2143-5c-1.3999-2.8366-3.2143-8.9286-3.2143-8.9286s-2.7342-3.8324-3.2143-6.0714c-0.77539-3.616 0.39095-7.3874 0.71428-11.071 0.1885-2.1478 0.71429-6.4286 0.71429-6.4286s-3.1543 3.1189-4.2857 5c-1.8458 3.069-2.8901 6.5725-3.9286 10-0.81251 2.6817-1.6328 5.4164-1.7857 8.2143-0.1241 2.271 0.71428 6.7857 0.71428 6.7857s-1.5847-4.9164-2.8571-7.1429c-1.6423-2.8737-4.128-5.1779-6.0714-7.8571-2.1132-2.9134-4.0104-5.978-6.0714-8.9286-3.8595-5.5251-11.786-16.429-11.786-16.429z" fill="#008000" stroke="#fff" stroke-width="2"/>
 <path d="m331.79 475.93c-2.1671-1.9366-7.1428-5-7.1428-5s-3.1979 5.8086-6.0714 6.7857c-1.8348 0.6239-3.8895-0.41879-5.7143-1.0714-3.9631-1.4174-7.5502-3.7657-11.071-6.0714-2.769-1.8132-5.335-3.928-7.8571-6.0714-1.8613-1.5818-5.3571-5-5.3571-5s2.5142 10.494 5.7143 14.643c1.978 2.5642 5.3344 3.6837 7.8572 5.7143 2.2334 1.7977 4.5119 3.582 6.4286 5.7143 1.3692 1.5232 1.992 3.696 3.5714 5 2.4237 2.001 5.6194 2.8498 8.5714 3.9286 2.0889 0.76334 4.2057 1.8566 6.4286 1.7857 2.8975-0.0924 6.0595-0.91775 8.2143-2.8571 1.6625-1.4963 2.5867-3.8511 2.8572-6.0714 0.22022-1.8077-0.26266-3.7255-1.0714-5.3571-1.1987-2.4182-3.3446-4.273-5.3572-6.0714z" fill="#008000" stroke="#fff" stroke-width="2"/>
 <path d="m311.52 562.57c-2.6999-3.129-4.4105-6.9606-6.0972-10.693-1.2213-2.7025-2.1934-5.5266-2.8849-8.4106-0.78672-3.2812-1.1781-6.6625-1.4197-10.041-0.16925-2.3669-0.28136-4.7598-0.0188-7.1377 0.10623-0.96215 0.54246-1.8895 0.64135-2.852 0.25614-2.4929-0.13421-7.4741-0.13421-7.4741s3.5482 3.7617 5.2062 5.7344c1.7769 2.1143 3.2411 4.4615 5.0747 6.5315 2.0968 2.3671 4.64 4.3545 6.7546 6.7073 1.2665 1.4091 2.5841 2.8078 3.5424 4.425 2.0642 3.4837 2.6196 7.6865 4.648 11.19 0.99833 1.7243 2.4646 3.1562 3.6578 4.7615 1.8478 2.4861 4.0049 4.8028 5.4209 7.5408 3.0543 5.9059 6.4622 18.84 6.4622 18.84l-5.3028 1.0669s-18.536-12.06-25.55-20.189z" fill="#008000" stroke="#fff" stroke-width="2.0668"/>
 <path d="m296.54 550.79s7.1061 8.5033 11.121 12.354c3.694 3.5428 8.016 6.4577 11.878 9.8382 2.8415 2.4874 5.4094 5.2465 8.303 7.6802 2.283 1.9201 4.9251 3.4533 7.133 5.4495 1.1621 1.0507 3.1962 3.4158 3.1962 3.4158l16.684 1.4215 5.6811-2.3247-3.6095-8.1621s-3.4125-2.223-4.8761-3.5916c-2.3365-2.1849-6.1454-7.2922-6.1454-7.2922s-4.0118-2.6588-5.2223-4.6008c-1.9549-3.1364-1.9904-7.0949-2.8527-10.678-0.50275-2.0888-1.3526-6.3042-1.3526-6.3042s-2.192 4.0355-2.7318 6.2011c-0.88078 3.5332-0.80804 7.1969-0.75402 10.787 0.0423 2.8088 0.0938 5.6703 0.84269 8.3591 0.6079 2.1824 2.9171 6.1436 2.9171 6.1436s-3.1961-4.0798-5.2062-5.7344c-2.5944-2.1356-5.8604-3.4412-8.6975-5.2888-3.085-2.0091-5.9996-4.2359-9.0437-6.2981-5.7002-3.8617-17.264-11.375-17.264-11.375z" fill="#008000" stroke="#fff" stroke-width="2.0668"/>
 <path d="m365.46 580.54c-2.824-1.0702-8.8612-2.2246-8.8612-2.2246s-1.3671 6.5843-3.9663 8.5046c-1.6596 1.2261-4.0808 0.95883-6.1427 0.97898-4.4781 0.0437-8.8756-0.92024-13.192-1.867-3.3948-0.74452-6.681-1.8438-9.9319-2.9854-2.3992-0.84244-7.0498-2.846-7.0498-2.846s5.9411 9.0107 10.528 11.805c2.8349 1.7272 6.6014 1.614 9.8166 2.649 2.8464 0.9163 5.7342 1.8044 8.3674 3.146 1.8811 0.95847 3.2149 2.7885 5.2384 3.4673 3.1051 1.0416 6.6211 0.72927 9.9641 0.71831 2.3656-8e-3 4.8661 0.28558 7.0981-0.55465 2.9094-1.0952 5.8502-2.9729 7.4093-5.5495 1.2029-1.988 1.3796-4.5277 0.93654-6.7134-0.3607-1.7795-1.4702-3.418-2.8178-4.6736-1.9973-1.8609-4.7734-2.8614-7.396-3.8552z" fill="#008000" stroke="#fff" stroke-width="2.0668"/>
 <path d="m420 570.22c-2.9633-22.904-1.0159-46.213 0-69.286 0.35749-8.1188 2.1302-16.159 2.1428-24.286 0.0174-11.231-1.8725-22.384-2.8571-33.571-0.69166-7.8592-1.1944-15.739-2.1429-23.571-0.9554-7.8892-2.0649-15.769-3.5714-23.571-1.5766-8.1655-2.4028-16.657-5.7143-24.286-3.0765-7.0872-8.4987-12.906-12.857-19.286-3.279-4.7995-6.4143-9.7108-10-14.286-3.1226-3.984-6.3675-7.9031-10-11.429-3.7627-3.6519-7.9323-6.8751-12.143-10-2.7574-2.0464-5.503-4.1729-8.5714-5.7143-3.1629-1.5888-6.6896-2.3187-10-3.5714-2.3984-0.9076-5.0444-1.3832-7.1429-2.8572-2.3461-1.6479-3.8658-4.237-5.7143-6.4286-1.9659-2.3307-3.3134-5.2632-5.7143-7.1428-2.6842-2.1015-9.2857-4.2857-9.2857-4.2857s9.965 3.4423 15 5c4.9678 1.5368 10.299 2.0618 15 4.2857 3.403 1.61 5.8116 4.9784 9.2857 6.4286 3.5768 1.4931 7.6472 1.292 11.429 2.1428 4.5637 1.0269 9.1138 2.1531 13.571 3.5714 3.8771 1.2336 8.0438 2.0282 11.429 4.2857 4.3442 2.8974 7.879 7.0435 10.714 11.429 3.3612 5.1985 4.6209 11.489 7.1429 17.143 2.2562 5.0575 5.1137 9.8472 7.1428 15 1.7383 4.4141 3.1448 8.9666 4.2857 13.571 1.2803 5.1677 1.9433 10.469 2.8571 15.714 0.99437 5.7071 1.656 11.476 2.8571 17.143 1.5805 7.4571 4.3633 14.641 5.7143 22.143 2.0365 11.309 2.518 22.844 3.5714 34.286 0.54747 5.9462 0.87235 11.912 1.4286 17.857 0.62454 6.6757 2.2842 13.297 2.1429 20-0.20297 9.6282-3.1538 19.008-4.2857 28.571-0.64611 5.4588-1.2487 10.935-1.4286 16.429-0.36631 11.187 5.6132 23.507 0.71429 33.571-2.0842 4.2816-11.429 8.5714-11.429 8.5714s-2.9712-8.9323-3.5714-13.571z" fill="#008000" stroke="#fff" stroke-width="2"/>
 <path d="m432.86 571.65s-13.049-24.043-12.857-37.143c0.10818-7.384 5.2968-13.788 7.8571-20.714 2.1933-5.934 4.1288-11.964 6.4286-17.857 1.7843-4.5727 3.4262-9.2289 5.7143-13.571 1.8472-3.5058 3.6702-7.1549 6.4286-10 3.218-3.3191 7.5399-5.3572 11.429-7.8571 4.6713-3.0031 9.3535-6.0195 14.286-8.5714 5.7758-2.9884 11.991-5.0494 17.857-7.8571 6.5317-3.1264 12.567-7.2992 19.286-10 3.9146-1.5736 8.0378-2.5975 12.143-3.5714 2.5901-0.61452 5.299-0.69245 7.8571-1.4286 2.4644-0.70912 7.1429-2.8572 7.1429-2.8572s-7.6714 9.0157-12.143 12.857c-2.8556 2.4532-6.025 4.547-9.2857 6.4286-8.2102 4.7376-17.214 7.9479-25.714 12.143-7.9258 3.9114-16.508 6.8304-23.571 12.143-4.7113 3.5432-8.8895 7.9412-12.143 12.857-4.5896 6.9351-7.3405 14.978-10 22.857-2.8994 8.5903-4.8142 17.507-6.4286 26.429-2.135 11.799-4.2857 35.714-4.2857 35.714z" fill="#008000" stroke="#fff" stroke-width="2"/>
 <path d="m430 618.79c7.6936-22.157 4.8405-46.659 7.1429-70 0.49303-4.9984 1.3295-9.9784 1.4286-15 0.0847-4.2915 0.46128-8.7289-0.71429-12.857-0.81707-2.8692-2.7065-5.3261-4.2857-7.8571-3.7068-5.9411-7.007-12.383-12.143-17.143-4.0729-3.775-9.3354-6.0548-14.286-8.5714-5.9919-3.0462-12.928-4.2055-18.571-7.8571-3.819-2.4712-6.6213-6.2401-10-9.2857-5.6398-5.0839-11.155-10.332-17.143-15-5.9379-4.6293-11.855-9.4553-18.571-12.857-6.5157-3.3-14.17-3.9002-20.714-7.1429-2.3076-1.1434-6.4286-4.2857-6.4286-4.2857s9.5181 14.654 15.714 20.714c6.0948 5.9606 14.227 9.4686 20.714 15 3.587 3.0587 6.4611 6.8858 10 10 4.9696 4.3731 10.631 7.9019 15.714 12.143 2.4595 2.0522 4.7859 4.2593 7.1429 6.4286 4.0898 3.7642 8.2974 7.4151 12.143 11.429 4.7883 4.9975 9.5141 10.107 13.571 15.714 3.2555 4.499 6.8243 9.0144 8.5714 14.286 2.2584 6.814 2.4031 14.255 2.1429 21.429-0.20151 5.5547-2.167 10.913-2.8571 16.429-0.77088 6.1607-1.1903 12.367-1.4286 18.571-0.26498 6.8997-1.8701 14.068 0 20.714 1.3604 4.8349 7.8571 12.857 7.8571 12.857s3.9817-4.9245 5-7.8572z" fill="#008000" stroke="#fff" stroke-width="2"/>
 <path d="m430 638.79c-0.65081-7.9594 3.5685-15.618 4.2857-23.571 0.32073-3.557-0.0991-7.1442 0-10.714 0.11909-4.2907 0.5952-8.5665 0.71429-12.857 0.0727-2.618-0.5772-5.3025 0-7.8572 1.2205-5.4018 4.2934-10.251 7.1429-15 3.5038-5.8391 8.4234-10.724 12.143-16.429 4.194-6.4318 6.2805-14.303 11.429-20 2.7465-3.0392 10-7.1429 10-7.1429s-12.118-0.66947-17.143 2.1429c-2.6608 1.489-3.7154 4.8403-5.7143 7.1429-3.6438 4.1974-7.8507 7.8891-11.429 12.143-2.2989 2.7332-4.5986 5.5044-6.4286 8.5714-3.4934 5.855-5.5651 12.452-8.5714 18.571-2.7236 5.5438-6.2038 10.724-8.5714 16.429-1.8184 4.3816-3.0273 8.9974-4.2857 13.571-1.103 4.0092-2.3778 8.0124-2.8571 12.143-0.41174 3.5476-0.3305 7.1582 0 10.714 0.35868 3.8593 0.56056 7.8904 2.1428 11.429 1.5942 3.5648 7.1429 9.2857 7.1429 9.2857l13.571 1.4286s-3.283-6.4722-3.5714-10z" fill="#008000" stroke="#fff" stroke-width="2"/>
 <path d="m438.57 652.36c-3.9825 4.2138-10.752 6.8965-16.429 5.7143-4.1238-0.8589-7.314-4.8491-9.2857-8.5714-2.254-4.2551-3.0426-9.5553-2.1428-14.286 0.97671-5.1352 4.0496-9.9899 7.8571-13.571 2.3268-2.1887 5.6487-2.9966 8.5714-4.2857 3.0342-1.3383 6.505-1.7643 9.2857-3.5714 4.235-2.7522 7.3458-6.9508 10.714-10.714 3.0503-3.408 8.5714-10.714 8.5714-10.714s-9.0518 21.115-12.143 32.143c-1.0461 3.7321-1.5451 7.599-2.1429 11.429-0.59213 3.7932-0.66085 7.6669-1.4286 11.429-0.34662 1.6984-0.23797 3.7402-1.4286 5z" fill="#008000" stroke="#fff" stroke-width="2"/>
 <path d="m372.14 197.36s1.4261 23.471 3.5714 35c1.4898 8.0067 3.9404 15.817 6.4286 23.571 2.0944 6.5276 4.831 12.832 7.1428 19.286 2.2092 6.1671 4.5809 12.287 6.4286 18.571 2.5572 8.6983 4.4844 17.573 6.4286 26.429 2.6535 12.086 4.3566 24.372 7.1428 36.429 3.329 14.405 8.4934 28.366 11.429 42.857 2.3864 11.782 5 35.714 5 35.714s-0.59524-50.952-0.71429-76.429c-0.0267-5.7142 0.85653-11.493 0-17.143-1.0837-7.148-4.311-13.802-6.4286-20.714-3.1328-10.227-4.5488-21.125-9.2857-30.714-3.2484-6.5762-9.6494-11.261-12.857-17.857-4.8773-10.029-5.4204-21.682-9.2857-32.143-1.9942-5.3972-5.1472-10.318-7.1429-15.714-3.2669-8.8344-7.8571-27.143-7.8571-27.143z" fill="#008000" stroke="#fff" stroke-width="2"/>
 <path d="m425.71 448.08s-15.612-48.35-12.857-72.857c0.54823-4.8777 4.2733-8.8792 5.7143-13.571 1.782-5.8028 2.3402-11.913 3.5714-17.857 0.69144-3.3382 1.201-6.7237 2.1428-10 1.54-5.3567 3.412-10.638 5.7143-15.714 2.2448-4.9493 5.2464-9.5192 7.8571-14.286 1.4332-2.6166 2.3816-5.5605 4.2857-7.8571 2.1598-2.6051 5.2478-4.2739 7.8571-6.4286 4.3018-3.5521 8.1474-7.7241 12.857-10.714 3.3272-2.1124 7.2085-3.1993 10.714-5 3.8879-1.997 7.2244-5.2332 11.429-6.4286 5.5012-1.5641 11.425-0.59521 17.143-0.71428 3.5706-0.0744 7.1498-0.22192 10.714 0 1.9159 0.11928 3.8149 0.99179 5.7143 0.71428 6.4348-0.94014 11.493-6.519 17.857-7.8571 4.427-0.93088 9.0476 0 13.571 0h15.714c3.0952 0 6.201 0.2553 9.2857 0 2.8867-0.23891 5.7002-1.8107 8.5714-1.4286 6.231 0.82924 11.815 4.5217 17.143 7.8571 4.4444 2.7824 7.6941 7.2246 12.143 10 2.4409 1.5228 7.8572 3.5714 7.8572 3.5714s-19.489-2.3804-29.286-2.8571c-5.7075-0.27776-11.442 0.38693-17.143 0-5.2744-0.35796-10.431-1.9496-15.714-2.1429-3.8144-0.1395-7.6188 0.94874-11.429 0.71428-3.8686-0.23808-7.5536-2.0586-11.429-2.1428-5.0496-0.10972-10.051 1.1332-15 2.1428-7.2433 1.4777-14.468 3.2238-21.429 5.7143-5.4175 1.9384-10.536 4.6341-15.714 7.1429-7.9541 3.8536-16.553 6.771-23.571 12.143-5.8886 4.5069-11 10.184-15 16.429-6.2735 9.793-10.181 21.018-13.571 32.143-2.5453 8.3528-4.7278 16.987-5 25.714-0.34425 11.04 3.2644 21.859 4.2857 32.857 0.79381 8.5479 2.9207 17.26 1.4286 25.714-0.94549 5.357-6.4286 15-6.4286 15z" fill="#008000" stroke="#fff" stroke-width="2"/>
 <path d="m431.43 532.36s5.3523-59.01-3.5714-86.429c-3.4539-10.612-9.9557-20.764-18.571-27.857-7.1687-5.902-16.938-7.6801-25.714-10.714-8.4077-2.9068-17.256-4.3879-25.714-7.1429-3.8686-1.26-11.429-4.2857-11.429-4.2857s13.909 10.587 21.429 15c7.0718 4.1501 15.283 6.2232 22.143 10.714 5.5097 3.607 11.268 7.4317 15 12.857 4.0123 5.8322 5.0536 13.236 7.1429 20 3.0508 9.8768 5.7389 19.882 7.8571 30 1.877 8.9653 2.0699 18.255 4.2857 27.143 1.7668 7.0868 7.1429 20.714 7.1429 20.714z" fill="#008000" stroke="#fff" stroke-width="2"/>
 <path d="m488.33 699.04s-3.8263 10.4-6.3094 15.378c-2.2847 4.5801-5.3722 8.7806-7.8693 13.264-1.8375 3.2992-3.3259 6.762-5.2306 10.028-1.5027 2.5769-3.474 4.9105-4.8804 7.5338-0.74028 1.3808-1.8587 4.2928-1.8587 4.2928l-15.23 6.9585-6.1322-0.27505 0.64903-8.901s2.4642-3.2426 3.3812-5.0242c1.464-2.8443 3.3298-8.9362 3.3298-8.9362s2.8817-3.8548 3.3672-6.0911c0.78411-3.6116-0.51596-7.3507-0.9109-11.015-0.23026-2.1361-0.85013-6.3914-0.85013-6.3914s3.4233 3.0612 4.6611 4.9184c2.0195 3.03 3.1852 6.504 4.3436 9.9024 0.90634 2.6589 1.8218 5.3705 2.0224 8.1544 0.16281 2.2597-0.67708 6.7671-0.67708 6.7671s1.635-4.918 2.9702-7.153c1.7234-2.8847 4.3587-5.2142 6.4076-7.9096 2.2279-2.9309 4.2221-6.0093 6.3936-8.9765 4.0662-5.5562 12.423-16.525 12.423-16.525z" fill="#008000" stroke="#fff" stroke-width="2.0668"/>
 <path d="m433.46 750.27c2.2985-1.9589 7.5939-5.0796 7.5939-5.0796s3.5052 5.739 6.5993 6.6715c1.9756 0.59539 4.1653-0.47188 6.1135-1.1475 4.2311-1.4674 8.0468-3.8563 11.793-6.2019 2.9455-1.8446 5.6694-3.9866 8.3458-6.1566 1.9752-1.6014 5.679-5.0544 5.679-5.0544s-2.5586 10.485-5.9357 14.662c-2.0874 2.5813-5.6719 3.7434-8.3505 5.8009-2.3714 1.8216-4.7913 3.6306-6.8186 5.7808-1.4483 1.5361-2.0876 3.7085-3.7642 5.0292-2.5728 2.0267-5.9884 2.917-9.1398 4.0328-2.23 0.78934-4.4855 1.9081-6.87 1.8688-3.1082-0.0511-6.5097-0.82843-8.8457-2.7292-1.8023-1.4666-2.8242-3.7984-3.1433-6.0055-0.25982-1.797 0.23287-3.7135 1.0788-5.3496 1.2537-2.4249 3.5305-4.3021 5.665-6.1213z" fill="#008000" stroke="#fff" stroke-width="2.0668"/>
</svg>
