<?xml version="1.0" encoding="UTF-8"?>
<svg width="246.29mm" height="213.98mm" version="1.1" viewBox="0 0 872.6681 758.18688" xmlns="http://www.w3.org/2000/svg" xmlns:xlink="http://www.w3.org/1999/xlink">
 <defs>
  <linearGradient id="d">
   <stop stop-color="#956b4f" offset="0"/>
   <stop stop-color="#dcb17e" offset="1"/>
  </linearGradient>
  <linearGradient id="e" x1="540.34" x2="537.79" y1="728.94" y2="705.58" gradientTransform="translate(-4.1669 -34.345)" gradientUnits="userSpaceOnUse" xlink:href="#d"/>
  <linearGradient id="f" x1="653.82" x2="649.87" y1="658.85" y2="643.74" gradientUnits="userSpaceOnUse" xlink:href="#d"/>
 </defs>
 <g transform="translate(20.461 -165.64)">
  <g transform="matrix(.95099 -.015495 .015477 .95215 264.74 -30.688)">
   <path d="m14.286 227.36-10.714 16.429 556.43 659.29c4.5238 3.6466 9.0476 3.5166 13.571 2.1429 6.3498-7.004 5.5299-13.682 4.6429-20.357z" fill="#aa7243"/>
   <path d="m14.286 227.36 11.429-2.1428 555.23 655.77c4.9708 5.871 3.9771 14.172 2.2295 17.19-3.0005 5.1813-8.5876 8.3639-15.046 7.7525 9.7467-4.8518 9.5835-15.275 4.641-21.093z" fill="#c5966c"/>
  </g>
  <g transform="matrix(.97421 .020162 -.020217 .97158 219.72 -103.88)">
   <path d="m117.33 795.33 135.71-244.63c2.111-2.6882 7.9631-14.503 24.15-6.5765 8.8638 8.3058 2.6046 16.598 2.6046 16.598l-142.14 244.29c-2.7566 4.7375-10.705 11.509-20.061 5.764-2.4891-8.2406-0.25625-15.443-0.25625-15.443z" fill="#a36840"/>
   <path d="m110.71 793.79 142.71-244.31s6.2856-10.147 15.758-3.3622 2.6046 16.598 2.6046 16.598l-142.14 244.29s-5.263 8.3096-14.704 2.8175c-9.4411-5.492-4.2244-16.032-4.2244-16.032z" fill="#b57e49"/>
  </g>
  <g transform="matrix(.98376 0 0 .99497 239.87 -59.769)">
   <path d="m525.41 671.27 8.2075 25.064 13.507-1.9461c8.7315-3.624 10.688-11.274 9.7859-14.268-0.78337-7.3058-6.0446-13.532-14.521-11.364z" fill="url(#e)"/>
   <path d="m8.8388 743.26c-8.4185 1.1751-12.621 5.8215-11.364 14.395 0.90576 6.177 5.7476 12.169 13.385 11.112l525.41-72.731c8.8868-1.2302 11.505-8.4869 10.607-14.268-0.89848-5.7815-3.7174-13.09-14.268-11.617z" fill="#a57b52"/>
  </g>
  <g transform="translate(0 -.35714)">
   <path d="m92.5 698.08 251.76-66.284 10.065 3.8546-256.11 73.144z" fill="#a04a25"/>
   <path d="m92.429 723.56 247.22-64.763 14.212-23.109-253.61 69.184z" fill="#a75d36"/>
  </g>
  <g transform="translate(.053314 .98297)">
   <path d="m30.179 237.18 12.5 15.357 258.29-40.808-13.929-15z" fill="#d29b68"/>
   <path d="m43.942 252.07 256.53-40.714-4.375 11.616-256.53 40.714z" fill="#c07849"/>
  </g>
  <g transform="translate(-20.456 -126.02)">
   <path d="m810.36 898.01-5.9978 11.49-228.38 71.789-9.1071-10.357z" fill="#a26438"/>
   <path d="m553.97 957.48 240.16-75.761 16.162 16.415-241.17 76.267z" fill="#b37745"/>
  </g>
  <path d="m46.72 235.15 16.162 15.91s60.625 148.62 100.02 218.3c41.351 73.145 105.91 199.85 219.45 221.88 91.196 17.693 103.98 0.17276 182.84-16.668l210.11-55.053c0.5499 0.27496-123.4 19.407-189.91 5.5558-54.937-11.441-110.89-70.139-157.08-128.29-64.52-81.229-137.76-279.05-137.76-279.05l-15.784-18.309z" fill="#dfda11"/>
  <path d="m552.86 689.33 219.66-60.397c1.9864-2.4545 3.5988-5.5377 2.8978-9.2916-0.76957-4.1214-3.2326-10.213-11.743-8.9651l-24.117 3.5355-199.38 54.761z" fill="url(#f)"/>
  <path d="m44.405 763.57 239.93-63.88c2.1697-2.5961 3.9308-5.857 3.1652-9.8275-0.84057-4.3591-3.5309-10.802-12.826-9.4822l-26.342 3.7394-217.77 57.919z" fill="#975b28"/>
  <path d="m525.41 671.27 8.2075 25.064 13.507-1.9461c8.0865-1.1652 10.684-8.4869 9.7859-14.268-0.89848-5.7815-4.281-12.881-14.521-11.364z" fill="url(#e)"/>
  <path d="m8.8388 743.26c-8.4185 1.1751-12.621 5.8215-11.364 14.395 0.90576 6.177 5.7476 12.169 13.385 11.112l525.41-72.731c8.8868-1.2302 11.505-8.4869 10.607-14.268-0.89848-5.7815-3.7174-13.09-14.268-11.617z" fill="#a57b52"/>
  <g transform="translate(-58.171 -56.367)">
   <path d="m117.33 795.33 135.71-244.63c2.111-2.6882 7.9631-14.503 24.15-6.5765 8.8638 8.3058 2.6046 16.598 2.6046 16.598l-142.14 244.29c-2.7566 4.7375-10.705 11.509-20.061 5.764-2.4891-8.2406-0.25625-15.443-0.25625-15.443z" fill="#a36840"/>
   <path d="m110.71 793.79 142.71-244.31s6.2856-10.147 15.758-3.3622 2.6046 16.598 2.6046 16.598l-142.14 244.29s-5.263 8.3096-14.704 2.8175c-9.4411-5.492-4.2244-16.032-4.2244-16.032z" fill="#b57e49"/>
  </g>
  <path d="m14.286 227.36-10.714 16.429 556.43 659.29c4.5238 3.6466 9.0476 3.5166 13.571 2.1429 6.3498-7.004 5.5299-13.682 4.6429-20.357z" fill="#aa7243"/>
  <path d="m14.286 227.36 11.429-2.1428 555.23 655.77c4.9708 5.871 3.9771 14.172 2.2295 17.19-3.0005 5.1813-8.5876 8.3639-15.046 7.7525 9.7467-4.8518 8.2511-14.726 3.3178-20.552z" fill="#c5966c"/>
  <ellipse cx="19.152" cy="755.15" rx="3.6161" ry="3.9955" fill="#cfcfcf"/>
  <path transform="matrix(.86424 0 0 .96667 2.6164 25.194)" d="m19.196 757.18-1.7844-0.92714-0.08929-2.0089 1.6951-1.0818 1.7844 0.92714 0.08929 2.0089z" fill="#535353"/>
  <g transform="translate(38.806 -11.266)">
   <ellipse cx="19.152" cy="755.15" rx="3.6161" ry="3.9955" fill="#cfcfcf"/>
   <path transform="matrix(.86424 0 0 .96667 2.6164 25.194)" d="m19.196 757.18-1.7844-0.92714-0.08929-2.0089 1.6951-1.0818 1.7844 0.92714 0.08929 2.0089z" fill="#535353"/>
  </g>
  <g transform="translate(56.231 -41.57)">
   <ellipse cx="19.152" cy="755.15" rx="3.6161" ry="3.9955" fill="#cfcfcf"/>
   <path transform="matrix(.86424 0 0 .96667 2.6164 25.194)" d="m19.196 757.18-1.7844-0.92714-0.08929-2.0089 1.6951-1.0818 1.7844 0.92714 0.08929 2.0089z" fill="#535353"/>
  </g>
  <g transform="matrix(1.1111 0 0 1.1111 380.73 -135.36)">
   <ellipse cx="19.152" cy="755.15" rx="3.6161" ry="3.9955" fill="#cfcfcf"/>
   <path transform="matrix(.86424 0 0 .96667 2.6164 25.194)" d="m19.196 757.18-1.7844-0.92714-0.08929-2.0089 1.6951-1.0818 1.7844 0.92714 0.08929 2.0089z" fill="#535353"/>
  </g>
  <g transform="matrix(1.1397 0 0 1.1397 503.83 -11.496)">
   <ellipse cx="19.152" cy="755.15" rx="3.6161" ry="3.9955" fill="#cfcfcf"/>
   <path transform="matrix(.86424 0 0 .96667 2.6164 25.194)" d="m19.196 757.18-1.7844-0.92714-0.08929-2.0089 1.6951-1.0818 1.7844 0.92714 0.08929 2.0089z" fill="#535353"/>
  </g>
  <g transform="matrix(1.2963 0 0 1.2963 502.23 -295.38)">
   <ellipse cx="19.152" cy="755.15" rx="3.6161" ry="3.9955" fill="#cfcfcf"/>
   <path transform="matrix(.86424 0 0 .96667 2.6164 25.194)" d="m19.196 757.18-1.7844-0.92714-0.08929-2.0089 1.6951-1.0818 1.7844 0.92714 0.08929 2.0089z" fill="#535353"/>
  </g>
  <g transform="translate(2.4554 -502.79)">
   <ellipse cx="19.152" cy="755.15" rx="3.6161" ry="3.9955" fill="#cfcfcf"/>
   <path transform="matrix(.86424 0 0 .96667 2.6164 25.194)" d="m19.196 757.18-1.7844-0.92714-0.08929-2.0089 1.6951-1.0818 1.7844 0.92714 0.08929 2.0089z" fill="#535353"/>
  </g>
 </g>
</svg>
