<?xml version="1.0" encoding="UTF-8"?>
<svg viewBox="0 0 297.5 115" xmlns="http://www.w3.org/2000/svg">
 <g transform="matrix(1.25,0,0,-1.25,0,115)">
  <g transform="scale(.24)">
   <path d="m761.336,71.6211 12.969.3711 6.754.5156 5.324-.8867 5.18-.543h26.105l3.891-.3711h3.379l3.777-.5156 4.008-.4023 4.293-.5157 4.293-.5156 3.894-.5156h3.891l3.894-.543h4.809l3.75-.5156 1.945-.3711 3.379-1.5742 4.922-1.2891 4.293.5156 4.293,1.8321v3.4922l-14.941,6.2382-19.719,3.2344-48.832,2.8633-26.074-1.832-9.477.5429-14.539-.5429 14.539-8.6719" fill="#b5a8a4"/>
   <path d="m761.336,71.6211 12.969.3711 6.754.5156 5.324-.8867 5.18-.543h26.105l3.891-.3711h3.379l3.777-.5156 4.008-.4023 4.293-.5157 4.293-.5156 3.894-.5156h3.891l3.894-.543h4.809l3.75-.5156 1.945-.3711 3.379-1.5742 4.922-1.2891 4.293.5156 4.293,1.8321v3.4922l-14.941,6.2382-19.719,3.2344-48.832,2.8633-26.074-1.832-9.477.5429-14.539-.5429 14.539-8.6719z" fill="none" stroke="#363639" stroke-width=".9075"/>
   <path d="m772.87 71.992v3.5234" fill="none" stroke="#363639" stroke-width=".12875"/>
   <path d="m776.77 72.508v3.5195" fill="none" stroke="#363639" stroke-width=".12875"/>
   <path d="m780.54 72.508v3.5195" fill="none" stroke="#363639" stroke-width=".12875"/>
   <path d="m784.44 72.137v3.4922" fill="none" stroke="#363639" stroke-width=".12875"/>
   <path d="m788.33 72.137v3.4922" fill="none" stroke="#363639" stroke-width=".12875"/>
   <path d="m793.65 71.219v3.3789" fill="none" stroke="#363639" stroke-width=".12875"/>
   <path d="m798.83 71.219v3.3789" fill="none" stroke="#363639" stroke-width=".12875"/>
   <path d="m804.16 71.621v3.3477" fill="none" stroke="#363639" stroke-width=".12875"/>
   <path d="m809.48 71.621v3.3477" fill="none" stroke="#363639" stroke-width=".12875"/>
   <path d="m814.8 71.621v3.3477" fill="none" stroke="#363639" stroke-width=".12875"/>
   <path d="m820.13 71.621v3.3477" fill="none" stroke="#363639" stroke-width=".12875"/>
   <path d="m825.45 71.219v3.3789" fill="none" stroke="#363639" stroke-width=".12875"/>
   <path d="m830.78 70.305v3.5195" fill="none" stroke="#363639" stroke-width=".12875"/>
   <path d="m835.98 69.789v3.5195" fill="none" stroke="#363639" stroke-width=".12875"/>
   <path d="m840.4 68.871v3.3789" fill="none" stroke="#363639" stroke-width=".12875"/>
   <path d="m844.29 68.359v3.5195" fill="none" stroke="#363639" stroke-width=".12875"/>
   <path d="m848.04 68.359v3.5195" fill="none" stroke="#363639" stroke-width=".12875"/>
   <path d="m851.41 68.359v3.5195" fill="none" stroke="#363639" stroke-width=".12875"/>
   <path d="m854.79 67.844v3.4921" fill="none" stroke="#363639" stroke-width=".12875"/>
   <path d="m858.31 67.844v3.4921" fill="none" stroke="#363639" stroke-width=".12875"/>
   <path d="m861.55 67.844v3.4921" fill="none" stroke="#363639" stroke-width=".12875"/>
   <path d="m865.07 66.41 0.774 3.3789" fill="none" stroke="#363639" stroke-width=".12875"/>
   <path d="m926.723,57.1953 4.293-.5156 3.89,1.0312 2.321.9141 1.945,1.9492 1.574,1.4297 .516.5156-1.032.3985-3.003.5156-2.321.5156-4.949.5156-3.234-.5156-3.524-1.0312 3.524-5.7227" fill="#dad1ce"/>
   <path d="m926.723,57.1953 4.293-.5156 3.89,1.0312 2.321.9141 1.945,1.9492 1.574,1.4297 .516.5156-1.032.3985-3.003.5156-2.321.5156-4.949.5156-3.234-.5156-3.524-1.0312 3.524-5.7227z" fill="none" stroke="#363639" stroke-width=".12875"/>
   <path d="m933.992,63.4336 3.235-1.9453 2.461-.5156 3.378.5156 2.344,1.0312 2.09,1.9453-4.035.7735-1.43,1.0586-.773.5156-1.574.8867-2.977,1.0586h-2.719l-1.945-.5156-1.031-.543 2.976-4.2656" fill="#dad1ce"/>
   <path d="m933.992,63.4336 3.235-1.9453 2.461-.5156 3.378.5156 2.344,1.0312 2.09,1.9453-4.035.7735-1.43,1.0586-.773.5156-1.574.8867-2.977,1.0586h-2.719l-1.945-.5156-1.031-.543 2.976-4.2656z" fill="none" stroke="#363639" stroke-width=".12875"/>
   <path d="m750.176,86.9336 18.804.5156 19.864-.5156 20.636-.9141 17.918-1.4336 12.997-.5156 9.589-1.4297 5.321-1.4297h10.133l3.378.9141 4.809,1.9453 1.945.5156 3.75.5157 3.008-1.0313 .516-.5117 .914-.918 .515-1.4297-.515-.9179-.914-1.0313-1.949-.914-2.461-.5157-4.293-.5156h-3.379l2.863-.5156 2.977.5156h2.347l1.43-.5156 2.976-.3985 1.833-.375 .89-1.0585 1.574-.5157 1.43-.8867h4.781l2.489-.543 1.031-1.4023 .258-1.4297h1.547l.914.5156 1.574.3711h.887l1.429-.3711 1.434-.9179 1.429-1.0313 2.461-.5156 1.832.5156 1.547,1.4336 1.946.5156h2.863l1.945-.9179 1.434-1.0313h1.543l1.32,1.0313 1.945.9179 2.977.3711h3.75l1.574-.3711 1.285-1.4336 .918-1.0312 1.032-1.9453-.516-1.8321-.918-1.0312-1.43-.9141-1.402-.5156-1.43-.5156-.515-2.3477v-1.0312l-1.977-1.9453-1.945-.5157-.887-.3984-4.293-.5156h-2.465l-3.777.5156-3.492.9141-2.348.5156-3.891.5156h-4.265l-3.004.5156h-2.32l-2.489.3985-2.976.5156-4.809,1.0313-9.476,2.8632-4.008,2.3477-2.348,1.9453-2.859,1.9453-2.321.5156-4.035.918-1.832.5156-3.379.9141-10.617,1.4023-10.648,1.4297-12.996,1.5742-12.594.7735h-35.176l-3.75-.3985-4.437.3985-4.266-.3985h-7.27l-3.89,10.5313" fill="#c5b9b5"/>
   <path d="m750.176,86.9336 18.804.5156 19.864-.5156 20.636-.9141 17.918-1.4336 12.997-.5156 9.589-1.4297 5.321-1.4297h10.133l3.378.9141 4.809,1.9453 1.945.5156 3.75.5157 3.008-1.0313 .516-.5117 .914-.918 .515-1.4297-.515-.9179-.914-1.0313-1.949-.914-2.461-.5157-4.293-.5156h-3.379l2.863-.5156 2.977.5156h2.347l1.43-.5156 2.976-.3985 1.833-.375 .89-1.0585 1.574-.5157 1.43-.8867h4.781l2.489-.543 1.031-1.4023 .258-1.4297h1.547l.914.5156 1.574.3711h.887l1.429-.3711 1.434-.9179 1.429-1.0313 2.461-.5156 1.832.5156 1.547,1.4336 1.946.5156h2.863l1.945-.9179 1.434-1.0313h1.543l1.32,1.0313 1.945.9179 2.977.3711h3.75l1.574-.3711 1.285-1.4336 .918-1.0312 1.032-1.9453-.516-1.8321-.918-1.0312-1.43-.9141-1.402-.5156-1.43-.5156-.515-2.3477v-1.0312l-1.977-1.9453-1.945-.5157-.887-.3984-4.293-.5156h-2.465l-3.777.5156-3.492.9141-2.348.5156-3.891.5156h-4.265l-3.004.5156h-2.32l-2.489.3985-2.976.5156-4.809,1.0313-9.476,2.8632-4.008,2.3477-2.348,1.9453-2.859,1.9453-2.321.5156-4.035.918-1.832.5156-3.379.9141-10.617,1.4023-10.648,1.4297-12.996,1.5742-12.594.7735h-35.176l-3.75-.3985-4.437.3985-4.266-.3985h-7.27l-3.89,10.5313z" fill="none" stroke="#363639" stroke-width=".9075"/>
   <path d="m931.531,61.4883-3.379-.9141h-5.324l-2.863,1.4297-2.461.5156-3.375.3985h-6.758l-2.863-.3985h-6.352l-3.234.3985-4.035,1.0312-5.699,1.2891-2.86,1.9453-2.461,1.0586-4.297,1.9492" fill="none" stroke="#363639" stroke-width=".9075"/>
   <path d="m769.496,76.8008-.887,2.0898-1.062,2.3203-.512,2.8594 .512.5156 .547.5157h1.945" fill="none" stroke="#363639" stroke-width=".12875"/>
   <path d="m773.789,76.8008-.918,2.9765-.512,3.7813 .914.5117 .516.5156 1.574.5157" fill="none" stroke="#363639" stroke-width=".12875"/>
   <path d="m778.598,77.832-.516,1.9453-.402,2.8633v.918l.918,1.0273h1.429" fill="none" stroke="#363639" stroke-width=".12875"/>
   <path d="m783.922,76.8008 .516,2.4609v2.3477l-.918,1.4336 .402.5156 1.031.5117 1.43.5156" fill="none" stroke="#363639" stroke-width=".12875"/>
   <path d="m789.246,76.8008 .516,2.0898-.516,1.9453-.402,1.2891 .402.918 .914.5156 1.031.5117" fill="none" stroke="#363639" stroke-width=".12875"/>
   <path d="m794.168,77.3164 .402,1.9453-.402,1.9492 .402.9141 1.028.5156 1.289.4024h.543" fill="none" stroke="#363639" stroke-width=".12875"/>
   <path d="m799.895,77.3164 .511,1.5742-.511,1.9453 .511,1.2891 .375.918 1.973.5156h.887" fill="none" stroke="#363639" stroke-width=".12875"/>
   <path d="m804.703,76.8008 .887,2.0898v3.2344l1.574.5156h.887" fill="none" stroke="#363639" stroke-width=".12875"/>
   <path d="m810.4 77.316 1.032 1.0313-0.516 1.4296v1.4336l1.574 0.9141h1.43" fill="none" stroke="#363639" stroke-width=".12875"/>
   <path d="m816.637,76.4023 .515,1.9454v1.9453l1.032,1.3164 1.429.5156h.516" fill="none" stroke="#363639" stroke-width=".12875"/>
   <path d="m823.906,76.0273 1.032,1.8047-1.032,1.9453v1.0586l1.547.375h.914" fill="none" stroke="#363639" stroke-width=".12875"/>
   <path d="m829.23,75.5156-.515,1.8008 .515,2.4609 1.032,1.0586h1.945" fill="none" stroke="#363639" stroke-width=".12875"/>
   <path d="m835.07,74.9688 .371,1.832v1.5469l.543,1.4296 .516.5157 1.434.5429h1.031" fill="none" stroke="#363639" stroke-width=".12875"/>
   <path d="m839.992,73.9375 .774,2.0898v1.8047l1.058,1.0586 1.949.3711" fill="none" stroke="#363639" stroke-width=".12875"/>
   <path d="m845.203,73.5664 1.031,1.9492v1.8008l1.286.5156 1.062.5157" fill="none" stroke="#363639" stroke-width=".12875"/>
   <path d="m850.53 72.508v1.4297l0.516 2.0898 1.43 1.2891 0.886 1.0313" fill="none" stroke="#363639" stroke-width=".12875"/>
   <path d="m855.305,71.9922 .918,1.5742v1.9492l.515,1.8008 1.575,1.0313 .371.5429" fill="none" stroke="#363639" stroke-width=".12875"/>
   <path d="m860.117,70.707 .512,2.3164v1.9454l1.434,1.832 .515.5156" fill="none" stroke="#363639" stroke-width=".12875"/>
   <path d="m864.01 70.191v2.3164l1.058 1.9453 1.289 1.0625" fill="none" stroke="#363639" stroke-width=".12875"/>
   <path d="m868.816,67.6992v2.0899l.516.9179 .914,1.8008 1.547,1.4297" fill="none" stroke="#363639" stroke-width=".12875"/>
   <path d="m877.52,70.1914 .515.8867 .914,1.9453 .918.9141" fill="none" stroke="#363639" stroke-width=".12875"/>
   <path d="m882.33 67.699 1.027 1.0586 0.403 1.0313 1.43 1.832" fill="none" stroke="#363639" stroke-width=".12875"/>
   <path d="m887.137,64.8672 1.027,1.9453 .918,2.4609 1.402.918" fill="none" stroke="#363639" stroke-width=".12875"/>
   <path d="m890.89 64.465 1.945 1.8321 1.031 1.4023v1.0586" fill="none" stroke="#363639" stroke-width=".12875"/>
   <path d="m895.29 63.434 1.059 1.4336 1.031 2.3164" fill="none" stroke="#363639" stroke-width=".12875"/>
   <path d="m900.62 62.52 1.059 1.9453 0.371 1.8321v0.5156" fill="none" stroke="#363639" stroke-width=".12875"/>
   <path d="m906.457,63.4336 .398,1.4336v1.4297l-.398.5156" fill="none" stroke="#363639" stroke-width=".12875"/>
   <path d="m911.148,62.918 .516,1.9492 .516.8867v.543" fill="none" stroke="#363639" stroke-width=".12875"/>
   <path d="m915.672,63.4336 .801,1.8047 .515,1.0586v.5156" fill="none" stroke="#363639" stroke-width=".12875"/>
   <path d="m920.37 62.52 1.031 0.9141 1.028 1.0312v2.3477" fill="none" stroke="#363639" stroke-width=".12875"/>
   <path d="m924.77 60.973 1.95 1.5468 0.371 1.9453v0.7735" fill="none" stroke="#363639" stroke-width=".12875"/>
   <path d="m929.957,60.9727 1.574,1.5468 .516,1.9453v1.8321l-.516.8867" fill="none" stroke="#363639" stroke-width=".12875"/>
   <path d="m873.109,77.3164-.515,1.0313-.543.914-1.805,1.0313" fill="none" stroke="#363639" stroke-width=".12875"/>
   <path d="m876.602,77.832-.516,1.0586-1.027,1.9453-.516.375" fill="none" stroke="#363639" stroke-width=".12875"/>
   <path d="m880.38 79.262-0.512 1.5742-1.433 1.8047h-0.399" fill="none" stroke="#363639" stroke-width=".12875"/>
   <path d="m875.059,64.4648v1.2891l.511,1.4297 .516.5156" fill="none" stroke="#363639" stroke-width=".12875"/>
   <path d="m879.32 62.004 1.059 1.9453 0.516 1.2891" fill="none" stroke="#363639" stroke-width=".12875"/>
   <path d="m884.273,60.0586 .915,1.4297v1.4297l.515.5156" fill="none" stroke="#363639" stroke-width=".12875"/>
   <path d="m890.113,58.625 .371,1.4336 .403,1.9453h.515" fill="none" stroke="#363639" stroke-width=".12875"/>
   <path d="m894.922,57.7109 .371,1.4297 .516.918v.9141" fill="none" stroke="#363639" stroke-width=".12875"/>
   <path d="m899.188,57.7109 .398.9141 .516,1.4336v.9141" fill="none" stroke="#363639" stroke-width=".12875"/>
   <path d="m902.047,57.7109 1.031.9141 .543,1.0313v.9179" fill="none" stroke="#363639" stroke-width=".12875"/>
   <path d="m906.457,57.7109 1.43.3985 .918,1.0312 .511,1.4336" fill="none" stroke="#363639" stroke-width=".12875"/>
   <path d="m911.664,56.1641 2.063,1.0312 .914,1.9453 .515.918" fill="none" stroke="#363639" stroke-width=".12875"/>
   <path d="m916.988,54.7344 .887.914 1.059,2.0625v.3985l.515,1.0312v.5157" fill="none" stroke="#363639" stroke-width=".12875"/>
   <path d="m922.426,54.7344 .402,1.4297 .371,1.5468v.3985l-.371,1.5469" fill="none" stroke="#363639" stroke-width=".12875"/>
   <path d="m926.21 55.648 0.516 1.5469v1.9453" fill="none" stroke="#363639" stroke-width=".12875"/>
   <path d="m573.086,241.926 2.859,11.164 3.121,14.797 2.204,14.683 .773,3.75 1.434,2.864 2.203,1.546 1.429.801 2.348.629v6.754l.629,2.207 2.234,2.203 .774,2.203 2.203,4.18l5.324,13.223 4.406,12.48 .661,6.098 2.976,3.633 2.203,2.207 .774,5.179 1.429,4.407 2.203,3.007 3.895,1.43h2.863l34.145-7.414 44.539-15.457 45.937-39.984 .774-8.559v-6.613l-.774-11.821-1.429-9.589-2.977-11.047-3.637-9.617-3.777-11.165-3.75-11.792-8.816-6.899-145.547,22.727-3.633,7.785" fill="#fcd2b2"/>
   <path d="m573.086,241.926 2.859,11.164 3.121,14.797 2.204,14.683 .773,3.75 1.434,2.864 2.203,1.546 1.429.801 2.348.629v6.754l.629,2.207 2.234,2.203 .774,2.203 2.203,4.18l5.324,13.223 4.406,12.48 .661,6.098 2.976,3.633 2.203,2.207 .774,5.179 1.429,4.407 2.203,3.007 3.895,1.43h2.863l34.145-7.414 44.539-15.457 45.937-39.984 .774-8.559v-6.613l-.774-11.821-1.429-9.589-2.977-11.047-3.637-9.617-3.777-11.165-3.75-11.792-8.816-6.899-145.547,22.727-3.633,7.785z" fill="none" stroke="#363639" stroke-width=".9075"/>
   <path d="m668,91.1992 2.977-2.9765 2.203-2.8633 3.117-2.3164 2.863-.6602 5.953-2.2031 2.235-.7734 3.605-1.4297 1.574.7695-.773.6602 2.207-.6602 3.117-.7695 1.434-.7735 2.203-1.4336 3.633-1.5742 .773.7735 .774-.7735 2.976-1.4297 3.637-1.4297 5.98-1.5468 1.547-.7735v.7735l-.773.6601-.774,1.543h3.778l1.406-.6563 3.004-1.5468 2.203-2.3477 3.637-.6289-1.434,2.2031-.773,1.4336 3.75-1.4336 3.007-.7734 4.407-.8008h14.14l-3.75,1.5742h5.325l4.265.7735 2.348.6601 2.859.8867h2.207l-2.207.6563 1.547.7734h1.43l-2.203.8008-3.633,1.4024h-.774l-.8,1.4335-2.207,1.5743-1.43,2.2031-12.707,4.4062-25.848,9.6172-14.914,3.6367-16.371,2.2032-13.996-1.4297-6.754-7.4141" fill="#fcd2b2"/>
   <path d="m668,91.1992 2.977-2.9765 2.203-2.8633 3.117-2.3164 2.863-.6602 5.953-2.2031 2.235-.7734 3.605-1.4297 1.574.7695-.773.6602 2.207-.6602 3.117-.7695 1.434-.7735 2.203-1.4336 3.633-1.5742 .773.7735 .774-.7735 2.976-1.4297 3.637-1.4297 5.98-1.5468 1.547-.7735v.7735l-.773.6601-.774,1.543h3.778l1.406-.6563 3.004-1.5468 2.203-2.3477 3.637-.6289-1.434,2.2031-.773,1.4336 3.75-1.4336 3.007-.7734 4.407-.8008h14.14l-3.75,1.5742h5.325l4.265.7735 2.348.6601 2.859.8867h2.207l-2.207.6563 1.547.7734h1.43l-2.203.8008-3.633,1.4024h-.774l-.8,1.4335-2.207,1.5743-1.43,2.2031-12.707,4.4062-25.848,9.6172-14.914,3.6367-16.371,2.2032-13.996-1.4297-6.754-7.4141z" fill="none" stroke="#363639" stroke-width=".9075"/>
   <path d="m764.457,110.434-5.066,5.179-3.778,1.547-5.953,2.235-5.211,1.402-7.383,1.574-7.414,2.859-5.179,2.977-3.782,3.637-2.859,3.777-3.75,1.402-3.008.801-4.519-.801-5.067-2.976 .657-5.84 5.183-5.836 5.981-3.781 11.164-2.203 8.957-1.547 5.84-1.574 5.953-1.403h8.187l2.203.774 8.844-2.203" fill="#bf801f"/>
   <path d="m764.457,110.434-5.066,5.179-3.778,1.547-5.953,2.235-5.211,1.402-7.383,1.574-7.414,2.859-5.179,2.977-3.782,3.637-2.859,3.777-3.75,1.402-3.008.801-4.519-.801-5.067-2.976 .657-5.84 5.183-5.836 5.981-3.781 11.164-2.203 8.957-1.547 5.84-1.574 5.953-1.403h8.187l2.203.774 8.844-2.203z" fill="none" stroke="#363639" stroke-width=".9075"/>
   <path d="m313.07 220.63 55.699-31.914v-28.711l-6.898-11.934-8.043-15.457-5.98-11.019-6.727-12.739-8.074-12.449-5.953-8.8477-4.434-7.3828-8.934-11.938-5.867-7.4102-7.527-5.8398-1.43-2.9766-4.41-6.6406-3.75-5.1836-7.41-8.043-10.391-8.957-8.16-5.9844-8.957-5.8359-5.84-2.9766-4.55-2.207h-2.977l-1.43 1.5469v5.0664l2.203 5.9805v9.5898l0.774 7.4141 2.976 6.6132 2.204 8.1836 1.574 11.82-0.774 2.836-0.8 1.5742 0.8 1.4297 0.774 2.207 1.429 4.5196 3.637 11.051 2.317 11.82 0.66 8.8162 1.547 12.739 1.429 2.976-0.773 1.43v3.633l1.433 2.98 1.543 1.43 3.782 9.617 5.179 14.797 5.207 13.996 5.184 13.398 3.777 10.246 4.407 11.934 2.976 8.848 18.578 5.953" fill="#fde9d5"/>
   <path d="m313.07 220.63 55.699-31.914v-28.711l-6.898-11.934-8.043-15.457-5.98-11.019-6.727-12.739-8.074-12.449-5.953-8.8477-4.434-7.3828-8.934-11.938-5.867-7.4102-7.527-5.8398-1.43-2.9766-4.41-6.6406-3.75-5.1836-7.41-8.043-10.391-8.957-8.16-5.9844-8.957-5.8359-5.84-2.9766-4.55-2.207h-2.977l-1.43 1.5469v5.0664l2.203 5.9805v9.5898l0.774 7.4141 2.976 6.6132 2.204 8.1836 1.574 11.82-0.774 2.836-0.8 1.5742 0.8 1.4297 0.774 2.207 1.429 4.5196 3.637 11.051 2.317 11.82 0.66 8.8162 1.547 12.739 1.429 2.976-0.773 1.43v3.633l1.433 2.98 1.543 1.43 3.782 9.617 5.179 14.797 5.207 13.996 5.184 13.398 3.777 10.246 4.407 11.934 2.976 8.848 18.578 5.953z" fill="none" stroke="#363639" stroke-width=".9075"/>
   <path d="m437.555,230.105-11.68,4.438-17.145,8.156-29.71,14.168-16.372,5.84-15.425,3.75-12.739.66-12.593-2.976-6.614-3.637-4.406-5.211-3.008-6.754-3.75-9.473-2.347-5.953-2.203-6.64-2.204-6.614-2.863-5.179l.66-2.207 .774-.801 2.203-.629h.773v.629l2.231,1.574 5.953.633h6.64l7.387-2.207 4.551-2.203 3.75-2.864 2.863-3.089 2.203-.801 3.004-.629 2.203-.805 2.207-1.543 3.118-2.09 3.636-2.976 3.75-5.184 2.864-4.406 3.746-7.414 2.207-5.84 2.347-2.976 1.43-2.231 2.203-2.976 1.574-3.637 2.836,5.211 6.641,16.859 7.527,12.594 9.586,10.391 7.528,5.98 5.839,2.836 8.844.801h6.758l8.816-.801 4.407,16.226" fill="#fcd2b2"/>
   <path d="m437.555,230.105-11.68,4.438-17.145,8.156-29.71,14.168-16.372,5.84-15.425,3.75-12.739.66-12.593-2.976-6.614-3.637-4.406-5.211-3.008-6.754-3.75-9.473-2.347-5.953-2.203-6.64-2.204-6.614-2.863-5.179l.66-2.207 .774-.801 2.203-.629h.773v.629l2.231,1.574 5.953.633h6.64l7.387-2.207 4.551-2.203 3.75-2.864 2.863-3.089 2.203-.801 3.004-.629 2.203-.805 2.207-1.543 3.118-2.09 3.636-2.976 3.75-5.184 2.864-4.406 3.746-7.414 2.207-5.84 2.347-2.976 1.43-2.231 2.203-2.976 1.574-3.637 2.836,5.211 6.641,16.859 7.527,12.594 9.586,10.391 7.528,5.98 5.839,2.836 8.844.801h6.758l8.816-.801 4.407,16.226z" fill="none" stroke="#fcd2b2" stroke-width=".12875"/>
   <path d="m568.934,216.883-11.02-10.278-95.687-2.316-14.942,5.18-11.16,10.39-37.754,19.207-76.48,28.051 17,2.203h16.375l11.16.774 8.187.656h8.157l11.82-1.43 14.14-.773 12.594-1.43 10.391-1.433 8.043-.774 6.758-.769 6.754-1.434 7.414-2.203 8.957-1.43 5.839-1.574 8.958-2.836 14-3.777 16.371-5.985 13.367-5.179 13.367-7.414 8.844-4.407 8.957-4.406 5.957-1.433 3.633-5.18" fill="#fabd3f"/>
   <path d="m568.934,216.883-11.02-10.278-95.687-2.316-14.942,5.18-11.16,10.39-37.754,19.207-76.48,28.051 17,2.203h16.375l11.16.774 8.187.656h8.157l11.82-1.43 14.14-.773 12.594-1.43 10.391-1.433 8.043-.774 6.758-.769 6.754-1.434 7.414-2.203 8.957-1.43 5.839-1.574 8.958-2.836 14-3.777 16.371-5.985 13.367-5.179 13.367-7.414 8.844-4.407 8.957-4.406 5.957-1.433 3.633-5.18z" fill="none" stroke="#fabd3f" stroke-width=".12875"/>
   <path d="m572.711,219.086-39.356-67.262-17.117,4.434-10.246,15.57-15.597,16.891-25.305,12.562-22.84,8.961 1.402,2.231 2.231,1.406 2.207.801h3.633l1.547-.801 1.429-.633 1.434-.773h3.746l3.781.773 2.977.633 6.64,1.574h5.84l4.52-.773 5.984-.801 5.18-1.406 5.211-.801 7.383-1.43h21.554l6.641.801 4.519.629 6.641,3.008 4.41,2.203h7.528l2.203.773 2.203.657 2.207,2.32 .769,1.43 6.641-2.977" fill="#bf801f"/>
   <path d="m572.711,219.086-39.356-67.262-17.117,4.434-10.246,15.57-15.597,16.891-25.305,12.562-22.84,8.961 1.402,2.231 2.231,1.406 2.207.801h3.633l1.547-.801 1.429-.633 1.434-.773h3.746l3.781.773 2.977.633 6.64,1.574h5.84l4.52-.773 5.984-.801 5.18-1.406 5.211-.801 7.383-1.43h21.554l6.641.801 4.519.629 6.641,3.008 4.41,2.203h7.528l2.203.773 2.203.657 2.207,2.32 .769,1.43 6.641-2.977z" fill="none" stroke="#bf801f" stroke-width=".12875"/>
   <path d="m433.148,213.879-8.816.801h-6.758l-8.844-.801-5.839-2.836-7.528-5.98-9.586-10.391-7.527-12.594-6.641-16.859-2.836-5.211" fill="none" stroke="#363639" stroke-width=".9075"/>
   <path d="m294.5 214.68 2.863 5.179 2.204 6.614 2.203 6.64 2.347 5.953 3.75 9.473 3.008 6.754 4.406 5.211 6.614 3.637" fill="none" stroke="#363639" stroke-width=".9075"/>
   <path d="m292.953,184.281h12.707l8.07-.629 7.387-1.574 5.324-1.433 6.61-2.204 3.637-2.203 4.437-1.429 3.891-.774 2.836-.773 4.55-.774" fill="none" stroke="#363639" stroke-width=".9075"/>
   <path d="m255.828,62.4023-.66,3.6368v2.2031l.66,4.5234 2.317,3.6367 1.433,3.7774 2.203,8.043 .66,10.3906 1.543,5.8397v5.18l2.348,3.004 2.203,1.433 1.434.77 3.777.773h2.203l5.84-2.347h2.203l3.121-.629 3.633-.774 3.75.774 3.637-.774" fill="none" stroke="#363639" stroke-width=".9075"/>
   <path d="m249.988,26.168 1.434,3.7773 .769,2.9766-.769,5.0664v5.1797l1.543,4.4375 1.433,1.4023v3.0078l.77,1.543 1.434,1.4336 .773.6562h2.203l1.43-.6562h1.433l2.977-.7734 3.117-.6602h7.414l3.637-.7695" fill="none" stroke="#363639" stroke-width=".9075"/>
   <path d="m269.309,122.371 1.433.656v2.203l.801,2.204v2.98l.629,4.406 .773,3.637 1.43,3.777 1.574,3.633 1.43,2.977 .773,2.207 3.637,14.168 6.098,16.226 5.066,13.227 5.18,12.594 5.98,15.57 2.207,4.437 1.543,2.204 1.434,1.429 .801,2.977" fill="none" stroke="#363639" stroke-width=".9075"/>
   <path d="m511.832,151.824-5.84,1.43-3.004,3.637-2.976,5.32-3.782,8.848-2.203,5.179-.773,2.203-3.633,2.204-5.183,5.21-7.528,6.614-6.64,2.976-5.18,2.203-6.754,1.43-6.613,2.203-4.438.805-3.633,1.43l-1.402,3.75v2.976l1.402,2.231 2.231,1.406 2.207.801h3.633v.773l-.657-2.207 1.43-2.203 1.43-.801 3.75-1.402 6.754-3.008 4.41-1.543 3.004-.773 2.836-1.43 2.23-1.574 1.547-.774 2.977-1.433 3.777-.657 3.637-.773 2.976-.773 2.977-2.204 2.863-2.203 4.551-3.636 2.203-2.977 2.203-3.004 2.203-4.41 2.207-5.18 2.203-3.636 3.004-3.633 2.203-2.203 4.551-1.575h1.547l.66-1.433-13.367-8.184" fill="#fcd2b2"/>
   <path d="m511.832,151.824-5.84,1.43-3.004,3.637-2.976,5.32-3.782,8.848-2.203,5.179-.773,2.203-3.633,2.204-5.183,5.21-7.528,6.614-6.64,2.976-5.18,2.203-6.754,1.43-6.613,2.203-4.438.805-3.633,1.43l-1.402,3.75v2.976l1.402,2.231 2.231,1.406 2.207.801h3.633v.773l-.657-2.207 1.43-2.203 1.43-.801 3.75-1.402 6.754-3.008 4.41-1.543 3.004-.773 2.836-1.43 2.23-1.574 1.547-.774 2.977-1.433 3.777-.657 3.637-.773 2.976-.773 2.977-2.204 2.863-2.203 4.551-3.636 2.203-2.977 2.203-3.004 2.203-4.41 2.207-5.18 2.203-3.636 3.004-3.633 2.203-2.203 4.551-1.575h1.547l.66-1.433-13.367-8.184z" fill="none" stroke="#fcd2b2" stroke-width=".12875"/>
   <path d="m443.65 203.52 3.633-1.43 4.438-0.805 6.613-2.203 6.754-1.43 5.18-2.203 6.64-2.976 7.528-6.614 5.183-5.21 3.633-2.204 0.773-2.203 2.203-5.179 3.782-8.848 2.976-5.32 3.004-3.637 5.84-1.43" fill="none" stroke="#363639" stroke-width=".9075"/>
   <path d="m322.664,259.703 2.231.801 4.523,1.43 4.437-.657 5.036-1.574 3.777-2.836 4.555-1.574 3.632-1.43 5.18-2.976 2.977-1.434 3.636-1.543 5.325-2.203 5.84-1.574 3.003-.774 3.637-.66 3.117-1.429 3.637-.774 2.203-.773 2.203-2.203 1.547-1.43 .66-2.207 1.543-1.574 1.434-.629 1.574-.774 7.383-2.23 8.187-3.637 5.067-2.203 3.121-1.547 2.976-.656 2.977-1.547 2.203-1.43 1.43-1.574 .773-2.836 .66-2.203 .77-2.203 3.008-3.008 1.429-.769 4.524-1.547h.773l-1.402,3.75v2.976l1.402,2.231 2.231,1.406 2.207.801h3.633v.773l.773,2.203 .774,1.43v1.547l-.774,2.203-.773.66-2.203,1.543-.661.66-1.574.774-2.832,1.429-3.004,1.575-3.094.628-5.207.801-4.41.774-4.406.629-4.551,1.574-4.41,1.433-3.633,2.204-4.41,2.976-4.437,2.203-5.321,3.008-6.613,4.52-5.984,1.433-3.746.656-5.184,1.547-4.434,1.43-4.41,2.207-6.754,3.777l-.773,1.43v1.434l-3.637-.661-5.18.661h-2.203l-2.234.769-2.203,1.547v2.09l-1.547.773h-2.977l-2.203.774-3.004.656h-9.589l-3.004-.656-2.207-1.547-1.543-1.43-1.434-1.433-1.43-1.543-1.547-2.864v-2.203l8.934.629" fill="#fde9d5"/>
   <path d="m322.664,259.703 2.231.801 4.523,1.43 4.437-.657 5.036-1.574 3.777-2.836 4.555-1.574 3.632-1.43 5.18-2.976 2.977-1.434 3.636-1.543 5.325-2.203 5.84-1.574 3.003-.774 3.637-.66 3.117-1.429 3.637-.774 2.203-.773 2.203-2.203 1.547-1.43 .66-2.207 1.543-1.574 1.434-.629 1.574-.774 7.383-2.23 8.187-3.637 5.067-2.203 3.121-1.547 2.976-.656 2.977-1.547 2.203-1.43 1.43-1.574 .773-2.836 .66-2.203 .77-2.203 3.008-3.008 1.429-.769 4.524-1.547h.773l-1.402,3.75v2.976l1.402,2.231 2.231,1.406 2.207.801h3.633v.773l.773,2.203 .774,1.43v1.547l-.774,2.203-.773.66-2.203,1.543-.661.66-1.574.774-2.832,1.429-3.004,1.575-3.094.628-5.207.801-4.41.774-4.406.629-4.551,1.574-4.41,1.433-3.633,2.204-4.41,2.976-4.437,2.203-5.321,3.008-6.613,4.52-5.984,1.433-3.746.656-5.184,1.547-4.434,1.43-4.41,2.207-6.754,3.777l-.773,1.43v1.434l-3.637-.661-5.18.661h-2.203l-2.234.769-2.203,1.547v2.09l-1.547.773h-2.977l-2.203.774-3.004.656h-9.589l-3.004-.656-2.207-1.547-1.543-1.43-1.434-1.433-1.43-1.543-1.547-2.864v-2.203l8.934.629z" fill="none" stroke="#fde9d5" stroke-width=".12875"/>
   <path d="m322.664,259.703 2.231.801 4.523,1.43 4.437-.657 5.036-1.574 3.777-2.836 4.555-1.574 3.632-1.43 5.18-2.976 2.977-1.434 3.636-1.543 5.325-2.203 5.84-1.574 3.003-.774 3.637-.66 3.117-1.429 3.637-.774 2.203-.773 2.203-2.203 1.547-1.43 .66-2.207 1.543-1.574 1.434-.629 1.574-.774 7.383-2.23 8.187-3.637 5.067-2.203 3.121-1.547 2.976-.656 2.977-1.547 2.203-1.43 1.43-1.574 .773-2.836 .66-2.203 .77-2.203 3.008-3.008 1.429-.769 4.524-1.547" fill="none" stroke="#363639" stroke-width=".9075"/>
   <path d="m313.73,259.074v2.203l1.547,2.864 1.43,1.543 1.434,1.433 1.543,1.43 2.207,1.547 3.004.656h9.589l3.004-.656 2.203-.774" fill="none" stroke="#363639" stroke-width=".9075"/>
   <path d="m338.891,269.32h16.375l11.16.774 8.187.656h8.157l11.82-1.43 14.14-.773 12.594-1.43 10.391-1.433 8.043-.774 6.758-.769 6.754-1.434 7.414-2.203 8.957-1.43 5.839-1.574 8.958-2.836 14-3.777 16.371-5.985 13.367-5.179 13.367-7.414 8.844-4.407 8.957-4.406 5.957-1.433" fill="none" stroke="#363639" stroke-width=".9075"/>
   <path d="m565.3 222.06 8.043-2.977" fill="none" stroke="#363639" stroke-width=".9075"/>
   <path d="m452.496,222.836-.773.66-2.203,1.543-.661.66-1.574.774-2.832,1.429-3.004,1.575-3.094.628-5.207.801-4.41.774-4.406.629-4.551,1.574-4.41,1.433-3.633,2.204-4.41,2.976-4.437,2.203-5.321,3.008-6.613,4.52-5.984,1.433-3.746.656-5.184,1.547-4.434,1.43-4.41,2.207" fill="none" stroke="#363639" stroke-width=".9075"/>
   <path d="m457.676,213.246h5.211l2.976.633h5.981l4.41-.633h3.75l4.434-.773 4.41-1.43 5.179-.801 4.411-2.203 4.55-1.434 5.207-1.542 4.41-1.547 5.18-1.43 3.778-1.574 4.41-2.207 3.632-2.203 2.977-1.43 .773-1.434 1.434-1.543 .801-2.207 .773-4.406" fill="none" stroke="#363639" stroke-width=".9075"/>
   <path d="m508.195,221.289-2.203-1.43v-.773l.629-1.43 2.977-2.203 4.437-2.98 4.406-.801 3.895-1.43 4.406-.773 3.637-.629 4.41-1.574 4.551-.661 5.98-.773 5.067-.769 11.277-1.547h2.863" fill="none" stroke="#363639" stroke-width=".9075"/>
   <path d="m420.555,230.105 4.55-2.203 4.407-.629h2.203l3.008-.8 2.203-.774 2.203-.66 .629-2.203 2.492-2.203 2.203-1.547h1.43l.633-.773 3.777,1.546h7.383l3.008.774 3.746,1.43 3.636.773h7.414l5.325.66 5.84.77 3.75.773" fill="none" stroke="#363639" stroke-width=".9075"/>
   <path d="m335.258,265.684h4.433l4.524-.774 1.433-.769 2.204-1.434 2.347-1.43 3.633-2.976 2.203-1.434 2.207-.801 3.633-1.402 4.551-2.348 2.347-.656 5.84-1.433 3.637-1.688 2.977-.629" fill="none" stroke="#363639" stroke-width=".9075"/>
   <path d="m453.27,211.043 5.839-2.203 5.321-1.574 4.41-1.434h3.004l1.433-.769 2.977-1.547 4.551-3.004 2.203-1.434 2.863-.773 3.75-.657 5.18-2.203 2.234-.773 1.403-1.434 5.32-5.953 2.863-3.633 1.574-2.207" fill="none" stroke="#363639" stroke-width=".9075"/>
   <path d="m303.344,236.09-.805-2.207v-1.574l.805-2.204 2.316-1.429 1.43-1.403 .773.629-.773,3.004 .773,1.403 .66.804h-.66l-4.519,2.977" fill="#c5b9b5"/>
   <path d="m303.344,236.09-.805-2.207v-1.574l.805-2.204 2.316-1.429 1.43-1.403 .773.629-.773,3.004 .773,1.403 .66.804h-.66l-4.519,2.977z" fill="none" stroke="#363639" stroke-width=".12875"/>
   <path d="m307.09,245.707-2.203-4.437-2.348-2.977-.773-.773v-1.43l1.578-2.207 2.316-1.574 1.43.804h1.433l1.575.77 .773,1.433v2.204l.629,2.203 .801,1.547 1.429,2.089 1.547,1.543 .661,1.434 1.542,4.551 .661,4.406v1.574l-2.864-3.004-5.179-5.324-3.008-2.832" fill="#fde9d5"/>
   <path d="m307.09,245.707-2.203-4.437-2.348-2.977-.773-.773v-1.43l1.578-2.207 2.316-1.574 1.43.804h1.433l1.575.77 .773,1.433v2.204l.629,2.203 .801,1.547 1.429,2.089 1.547,1.543 .661,1.434 1.542,4.551 .661,4.406v1.574l-2.864-3.004-5.179-5.324-3.008-2.832z" fill="none" stroke="#363639" stroke-width=".12875"/>
   <path d="m303.344,243.359-.805-2.089 .805-2.204 1.543-2.32 1.433-.656h.77l-.77,2.203 .77,1.43 .773.773-1.543.774-2.976,2.089" fill="#c5b9b5"/>
   <path d="m303.344,243.359-.805-2.089 .805-2.204 1.543-2.32 1.433-.656h.77l-.77,2.203 .77,1.43 .773.773-1.543.774-2.976,2.089z" fill="none" stroke="#363639" stroke-width=".12875"/>
   <path d="m311.5,255.293-2.203-2.977-1.434-1.429-4.519-2.348-1.578-1.43v-5.183l1.578-1.43 4.519-.773v.773l1.434.774 .801.656 .773,2.207v.769l.629,1.434 1.574.773 1.43,2.344 .773.774 1.43,1.433 1.434,1.43 .773,2.203 1.43,1.574 1.547,1.434 .773,2.203-1.547.773-2.976-.773-4.411-1.43-2.23-3.781" fill="#fde9d5"/>
   <path d="m311.5,255.293-2.203-2.977-1.434-1.429-4.519-2.348-1.578-1.43v-5.183l1.578-1.43 4.519-.773v.773l1.434.774 .801.656 .773,2.207v.769l.629,1.434 1.574.773 1.43,2.344 .773.774 1.43,1.433 1.434,1.43 .773,2.203 1.43,1.574 1.547,1.434 .773,2.203-1.547.773-2.976-.773-4.411-1.43-2.23-3.781z" fill="none" stroke="#363639" stroke-width=".12875"/>
   <path d="m308.523,253.863-1.433-2.203-.77-1.433v-3.118l.77-2.207 .773,2.207 .66.801 2.348.629 .629.914 1.574,2.207-1.574,1.43-2.977.773" fill="#c5b9b5"/>
   <path d="m308.523,253.863-1.433-2.203-.77-1.433v-3.118l.77-2.207 .773,2.207 .66.801 2.348.629 .629.914 1.574,2.207-1.574,1.43-2.977.773z" fill="none" stroke="#363639" stroke-width=".12875"/>
   <path d="m321.117,267.117-2.976-2.207-1.434-.769-1.43-1.434-2.203-2.203-1.574-1.43-2.977-1.574-1.433-1.434-.77-.773-.66-1.43 2.863-2.203 2.348-.773 2.203-.66 2.203.66v3.777l.661.629 .769,1.574 2.977,2.207 2.207.629 1.429,2.231 .918,1.546-3.121,3.637" fill="#fde9d5"/>
   <path d="m321.117,267.117-2.976-2.207-1.434-.769-1.43-1.434-2.203-2.203-1.574-1.43-2.977-1.574-1.433-1.434-.77-.773-.66-1.43 2.863-2.203 2.348-.773 2.203-.66 2.203.66v3.777l.661.629 .769,1.574 2.977,2.207 2.207.629 1.429,2.231 .918,1.546-3.121,3.637z" fill="none" stroke="#fde9d5" stroke-width=".12875"/>
   <path d="m321.117,267.117-2.976-2.207-1.434-.769-1.43-1.434-2.203-2.203-1.574-1.43-2.977-1.574-1.433-1.434-.77-.773-.66-1.43 2.863-2.203 2.348-.773 2.203-.66 2.203.66v3.777l.661.629 .769,1.574 2.977,2.207 2.207.629 1.429,2.231 .918,1.546" fill="none" stroke="#363639" stroke-width=".12875"/>
   <path d="m317.48,137.824-9.617,5.84-15.57,2.977-13.508,5.183-1.406,4.434 1.406,3.75 6.899,3.008h18.429l8.961-2.235 13.367-6.726 9.618-5.211 17.773-5.953 57.906-9.5h26.989l33.375,2.859 30.511,10.391h5.184l13.367-2.203 13.25-2.204 13.367-1.574 10.504.801 23.758,5.84 19.234,3.75 38.555-4.41 14.801-5.981 5.32-5.039 .633-9.617-5.066-13.367-8.301-13.3675-17.778-12.4804-17.144-7.3828-20.637-5.211-12.594-.6289-14.14,2.2031h1.144-1.144l.375-2.2031-5.957,2.2031-8.957,3.6368v-.6602l-11.047,4.2969v-1.4336l-8.961,3.75v-2.3164l-6.613,4.5195 .773-.7734-.773-1.4297-2.977,2.2031-5.207,2.8633-3.75,2.2031 1.402-3.6328h-.629l-4.41,2.2031-3.004,1.4297v-1.4297l-.773-.7734-2.863,1.5742-5.325,2.8359h.805l-.805-.6328-2.976,1.4336-5.066,3.6328-1.543.7735 .773-2.2032-6.613,5.1802h-3.121l-2.204-1.543-2.203,1.543-3.636,1.433 .629-.66-1.43-2.316-2.203.769-5.184,2.207h-3.117l1.543-2.976-5.18.769-4.406.774h-.773v-1.543l-5.067,2.316-4.695,1.43h-.629l-.774-1.43v-.773l-3.632,1.433-3.008,1.543h-2.203l-.774-.773-.656-.77-3.75.77-4.551.773h-12.453l-3.777-.773-7.383.773-7.414,1.434-7.527,2.203-6.614,3.633-7.414,3.121-8.187,3.008-4.52.628-7.269,1.575-10.535,2.976-19.208,13.25" fill="#fde9d5"/>
   <path d="m317.48,137.824-9.617,5.84-15.57,2.977-13.508,5.183-1.406,4.434 1.406,3.75 6.899,3.008h18.429l8.961-2.235 13.367-6.726 9.618-5.211 17.773-5.953 57.906-9.5h26.989l33.375,2.859 30.511,10.391h5.184l13.367-2.203 13.25-2.204 13.367-1.574 10.504.801 23.758,5.84 19.234,3.75 38.555-4.41 14.801-5.981 5.32-5.039 .633-9.617-5.066-13.367-8.301-13.3675-17.778-12.4804-17.144-7.3828-20.637-5.211-12.594-.6289-14.14,2.2031h1.144-1.144l.375-2.2031-5.957,2.2031-8.957,3.6368v-.6602l-11.047,4.2969v-1.4336l-8.961,3.75v-2.3164l-6.613,4.5195 .773-.7734-.773-1.4297-2.977,2.2031-5.207,2.8633-3.75,2.2031 1.402-3.6328h-.629l-4.41,2.2031-3.004,1.4297v-1.4297l-.773-.7734-2.863,1.5742-5.325,2.8359h.805l-.805-.6328-2.976,1.4336-5.066,3.6328-1.543.7735 .773-2.2032-6.613,5.1802h-3.121l-2.204-1.543-2.203,1.543-3.636,1.433 .629-.66-1.43-2.316-2.203.769-5.184,2.207h-3.117l1.543-2.976-5.18.769-4.406.774h-.773v-1.543l-5.067,2.316-4.695,1.43h-.629l-.774-1.43v-.773l-3.632,1.433-3.008,1.543h-2.203l-.774-.773-.656-.77-3.75.77-4.551.773h-12.453l-3.777-.773-7.383.773-7.414,1.434-7.527,2.203-6.614,3.633-7.414,3.121-8.187,3.008-4.52.628-7.269,1.575-10.535,2.976-19.208,13.25z" fill="none" stroke="#fde9d5" stroke-width=".12875"/>
   <path d="m564.926,75.7695h1.144-1.144l.375-2.2031-5.957,2.2031-8.957,3.6368v-.6602l-11.047,4.2969v-1.4336l-8.961,3.75v-2.3164l-6.613,4.5195 .773-.7734-.773-1.4297-2.977,2.2031-5.207,2.8633-3.75,2.2031 1.402-3.6328h-.629l-4.41,2.2031-3.004,1.4297v-1.4297l-.773-.7734-2.863,1.5742-5.325,2.8359h.805l-.805-.6328-2.976,1.4336-5.066,3.6328-1.543.7735 .773-2.2032-6.613,5.1802h-3.121l-2.204-1.543-2.203,1.543-3.636,1.433 .629-.66-1.43-2.316-2.203.769-5.184,2.207h-3.117l1.543-2.976-5.18.769-4.406.774h-.773v-1.543l-5.067,2.316-4.695,1.43h-.629l-.774-1.43v-.773l-3.632,1.433-3.008,1.543h-2.203l-.774-.773-.656-.77-3.75.77-4.551.773h-12.453l-3.777-.773-7.383.773-7.414,1.434-7.527,2.203-6.614,3.633-7.414,3.121-8.187,3.008-4.52.628-7.269,1.575-10.535,2.976" fill="none" stroke="#363639" stroke-width=".9075"/>
   <path d="m219.074,182.078 8.301,3.004 16.891,4.406 8.957,4.41 9.617-2.203 13.48-5.211 25.848-28.019 4.551-5.211 4.41-6.613 .769-1.543h2.981l1.43-.66 .773-1.547 1.43-1.43 1.574-1.43h.629l.801,1.43v-1.43l1.433-2.207 .774-1.574 1.543-1.43h.773l.801,1.43 1.402-2.203 2.235-1.43-.801,1.43 2.203-3.633 5.211-5.84l-8.043,3.633-9.734,5.184-5.868,2.859-12.707,4.41-1.547.801-4.293.773-4.55.657h-2.864l-6.097,1.547-2.86.66-2.976.769-1.434,1.434-2.976,1.543-2.977,2.207-1.43.773-1.691.656h-2.203l-4.438.774-2.832.801-3.777,1.402-2.863,1.434-3.121,1.574-2.204.629h-10.359l-2.863-.629h-3.008l-2.316.629-2.977,1.687-2.234,1.43h-7.383l-3.637.805-3.117,1.402-5.84,4.434 19.203,13.226" fill="#fcd2b2"/>
   <path d="m219.074,182.078 8.301,3.004 16.891,4.406 8.957,4.41 9.617-2.203 13.48-5.211 25.848-28.019 4.551-5.211 4.41-6.613 .769-1.543h2.981l1.43-.66 .773-1.547 1.43-1.43 1.574-1.43h.629l.801,1.43v-1.43l1.433-2.207 .774-1.574 1.543-1.43h.773l.801,1.43 1.402-2.203 2.235-1.43-.801,1.43 2.203-3.633 5.211-5.84l-8.043,3.633-9.734,5.184-5.868,2.859-12.707,4.41-1.547.801-4.293.773-4.55.657h-2.864l-6.097,1.547-2.86.66-2.976.769-1.434,1.434-2.976,1.543-2.977,2.207-1.43.773-1.691.656h-2.203l-4.438.774-2.832.801-3.777,1.402-2.863,1.434-3.121,1.574-2.204.629h-10.359l-2.863-.629h-3.008l-2.316.629-2.977,1.687-2.234,1.43h-7.383l-3.637.805-3.117,1.402-5.84,4.434 19.203,13.226z" fill="none" stroke="#fcd2b2" stroke-width=".12875"/>
   <path d="m199.871,168.852 5.84-4.434 3.117-1.402 3.637-.805h7.383l2.234-1.43 2.977-1.687 2.316-.629h3.008l2.863.629h10.359l2.204-.629 3.121-1.574 2.863-1.434 3.777-1.402 2.832-.801 4.438-.774h2.203l1.691-.656 1.43-.773 2.977-2.207 2.976-1.543 1.434-1.434 2.976-.769 2.86-.66 6.097-1.547h2.864l4.55-.657 4.293-.773 1.547-.801 12.707-4.41 5.868-2.859 9.734-5.184 7.641-3.633" fill="none" stroke="#363639" stroke-width=".9075"/>
   <path d="m272.172,227.902 2.203-.629 1.574-.8 1.43-.774v-4.41l1.406-.656 1.574-.774 .657-2.203v-3.777l.773-2.836v-3.004l2.977-1.434 1.574-.773 1.547-1.543 1.429-2.203-.773-1.574 2.203-3.637 .774-1.43 .773-1.547 1.43-1.429 2.98-1.547 5.063-4.438 6.757-6.613 5.981-2.859 1.434-2.203 1.542-1.547 4.411-4.41 3.777-1.43 2.977-.801 .773-1.402 2.203-3.008 2.234-1.43 4.407-3.09 4.406-1.433 3.75-1.574 3.781-1.43 5.067-2.203 5.179-.774 4.551-.66 3.777-.773 .629-.77 2.207-1.433 5.207-1.543 3.637-.66 3.891-.774 5.066-1.43h2.203l8.817-.773h9.734l17.918.773 12.477.657 11.164,1.547 5.953,1.429v-.769h3.008l3.746.769h.66v-1.429l4.551,1.429 8.043,2.207v-1.433l-.774-1.543 5.324,1.543 5.184,2.203h1.43v-.77h4.406l2.207,1.543 2.977.66h.8v-1.433l5.953,4.41 5.211,3.637 .629-1.434 5.981,1.434 3.121,3.117 4.406,4.41 3.637,1.43 2.976.773 4.438-.773 3.75-1.43-2.977-1.402 2.203-3.008-1.574-.914-5.84-8.817-14.914-9.617-2.203,3.778-5.211-1.547-2.832-.657 2.832-2.203h-2.203l2.977-2.207-.774-.801-4.406-.773h-5.98l1.574-1.43 4.406-2.203h-4.406l-3.782.774h-8.042l3.636-2.977-6.613-.773h-4.406l-3.895-.774 .774-.66 .773-.773-5.98.773h-8.047l2.207-1.543 1.429-.66h-9.73l-4.41.66h-9.473l3.637-.66h-3.637l-3.894,1.43-3.633.773 2.203-2.203 .629-.774 1.691-.656h-10.508l3.782-1.547 2.832-.656h-15.426l-5.984.656h-1.43l5.066-1.429-4.41.773-2.203.656-5.84,1.547-5.207,2.09 2.977-2.09h.656-6.754l-4.41.656-4.406.774-4.407,2.203-1.433.66 2.203-2.203h-.77l-3.781.77-5.953.773-3.004,1.434-2.863,2.203v-2.977l-4.406,1.547-3.895.77-4.406,1.433-3.637,3.004 1.434-2.23-2.207.656-5.836,2.203-2.207,1.574-3.891,2.207-2.863,2.203v-.773l.629-4.438-2.203.801-2.833,3.637-1.574,1.43-2.207,1.547 .774-2.204 1.433-1.574v-.629l-2.207.629-2.203,2.231h-.773l1.547-2.231 .773-2.203-.773.801-2.977,2.976-3.004,1.43-3.75,1.434-7.414,2.203-2.977,1.543 .774-2.203 .801-.774-4.438,2.977-3.894.773 1.578-1.543 .769-.773-5.98,2.316-4.41,1.434h-1.43l-4.406,1.429-1.547.774 .773-2.977-1.429,2.203-1.692,2.204-2.203,3.007-1.43,1.403-1.574.914h-5.84l-1.402,2.203-.801,2.207-.773,1.43-1.434.773-1.43.801-.773,1.43-.914,1.402-.633,2.234 .633,1.547v5.18l-.633,2.23-1.574,2.836-2.859,2.203-2.977,3.004v1.434l-.773,10.359 15.57,26.621" fill="#fabd3f"/>
   <path d="m272.172,227.902 2.203-.629 1.574-.8 1.43-.774v-4.41l1.406-.656 1.574-.774 .657-2.203v-3.777l.773-2.836v-3.004l2.977-1.434 1.574-.773 1.547-1.543 1.429-2.203-.773-1.574 2.203-3.637 .774-1.43 .773-1.547 1.43-1.429 2.98-1.547 5.063-4.438 6.757-6.613 5.981-2.859 1.434-2.203 1.542-1.547 4.411-4.41 3.777-1.43 2.977-.801 .773-1.402 2.203-3.008 2.234-1.43 4.407-3.09 4.406-1.433 3.75-1.574 3.781-1.43 5.067-2.203 5.179-.774 4.551-.66 3.777-.773 .629-.77 2.207-1.433 5.207-1.543 3.637-.66 3.891-.774 5.066-1.43h2.203l8.817-.773h9.734l17.918.773 12.477.657 11.164,1.547 5.953,1.429v-.769h3.008l3.746.769h.66v-1.429l4.551,1.429 8.043,2.207v-1.433l-.774-1.543 5.324,1.543 5.184,2.203h1.43v-.77h4.406l2.207,1.543 2.977.66h.8v-1.433l5.953,4.41 5.211,3.637 .629-1.434 5.981,1.434 3.121,3.117 4.406,4.41 3.637,1.43 2.976.773 4.438-.773 3.75-1.43-2.977-1.402 2.203-3.008-1.574-.914-5.84-8.817-14.914-9.617-2.203,3.778-5.211-1.547-2.832-.657 2.832-2.203h-2.203l2.977-2.207-.774-.801-4.406-.773h-5.98l1.574-1.43 4.406-2.203h-4.406l-3.782.774h-8.042l3.636-2.977-6.613-.773h-4.406l-3.895-.774 .774-.66 .773-.773-5.98.773h-8.047l2.207-1.543 1.429-.66h-9.73l-4.41.66h-9.473l3.637-.66h-3.637l-3.894,1.43-3.633.773 2.203-2.203 .629-.774 1.691-.656h-10.508l3.782-1.547 2.832-.656h-15.426l-5.984.656h-1.43l5.066-1.429-4.41.773-2.203.656-5.84,1.547-5.207,2.09 2.977-2.09h.656-6.754l-4.41.656-4.406.774-4.407,2.203-1.433.66 2.203-2.203h-.77l-3.781.77-5.953.773-3.004,1.434-2.863,2.203v-2.977l-4.406,1.547-3.895.77-4.406,1.433-3.637,3.004 1.434-2.23-2.207.656-5.836,2.203-2.207,1.574-3.891,2.207-2.863,2.203v-.773l.629-4.438-2.203.801-2.833,3.637-1.574,1.43-2.207,1.547 .774-2.204 1.433-1.574v-.629l-2.207.629-2.203,2.231h-.773l1.547-2.231 .773-2.203-.773.801-2.977,2.976-3.004,1.43-3.75,1.434-7.414,2.203-2.977,1.543 .774-2.203 .801-.774-4.438,2.977-3.894.773 1.578-1.543 .769-.773-5.98,2.316-4.41,1.434h-1.43l-4.406,1.429-1.547.774 .773-2.977-1.429,2.203-1.692,2.204-2.203,3.007-1.43,1.403-1.574.914h-5.84l-1.402,2.203-.801,2.207-.773,1.43-1.434.773-1.43.801-.773,1.43-.914,1.402-.633,2.234 .633,1.547v5.18l-.633,2.23-1.574,2.836-2.859,2.203-2.977,3.004v1.434l-.773,10.359 15.57,26.621z" fill="none" stroke="#fabd3f" stroke-width=".12875"/>
   <path d="m256.602,201.281 .773-10.359v-1.434l2.977-3.004 2.859-2.203 1.574-2.836 .633-2.23v-5.18l-.633-1.547 .633-2.234 .914-1.402 .773-1.43 1.43-.801 1.434-.773 .773-1.43 .801-2.207 1.402-2.203h5.84l1.574-.914 1.43-1.403 2.203-3.007 1.692-2.204 1.429-2.203-.773,2.977 1.547-.774 4.406-1.429h1.43l4.41-1.434 5.98-2.316-.769.773-1.578,1.543 3.894-.773 4.438-2.977-.801.774-.774,2.203 2.977-1.543 7.414-2.203 3.75-1.434 3.004-1.43 2.977-2.976 .773-.801-.773,2.203-1.547,2.231h.773l2.203-2.231 2.207-.629v.629l-1.433,1.574-.774,2.204 2.207-1.547 1.574-1.43 2.833-3.637 2.203-.801-.629,4.438v.773l2.863-2.203 3.891-2.207 2.207-1.574 5.836-2.203 2.207-.656-1.434,2.23 3.637-3.004 4.406-1.433 3.895-.77 4.406-1.547v1.547l-3.75,2.977-5.207,2.859 1.429-2.203-4.406,2.203-5.183,2.207-2.204,3.004-.656-2.203h-.773l-3.778,2.976-2.98,3.633-.77.774v-2.203h-.773l-2.863,2.203-3.778,2.203 .774-1.543v-.66l-2.977,1.433-4.41,2.977-.773,1.429-1.43-2.203-3.004,2.203-2.98,2.977-3.746,3.637-.661-2.836-3.777,2.207-3.637,3.746-1.543,3.637-2.976,3.004-.805-1.43-1.402,1.43-2.231,2.207-.773,1.429-2.203,2.977-.774-2.203-.66.773-5.18,3.633-1.429,2.203-3.121,2.981-1.43-2.981-2.32,2.207-1.43,3.004-.801,2.977-.633,2.203-2.976-2.203h-.801l-.629,2.203-.801.66-.773,1.547-2.203-1.547-.66.773-.774,1.543 .774,5.84v.66l-2.977.774-.914,1.574v2.203l-1.434,3.75-1.543,1.43-4.296-2.864-1.543-4.519v-.805" fill="#bf801f"/>
   <path d="m256.602,201.281 .773-10.359v-1.434l2.977-3.004 2.859-2.203 1.574-2.836 .633-2.23v-5.18l-.633-1.547 .633-2.234 .914-1.402 .773-1.43 1.43-.801 1.434-.773 .773-1.43 .801-2.207 1.402-2.203h5.84l1.574-.914 1.43-1.403 2.203-3.007 1.692-2.204 1.429-2.203-.773,2.977 1.547-.774 4.406-1.429h1.43l4.41-1.434 5.98-2.316-.769.773-1.578,1.543 3.894-.773 4.438-2.977-.801.774-.774,2.203 2.977-1.543 7.414-2.203 3.75-1.434 3.004-1.43 2.977-2.976 .773-.801-.773,2.203-1.547,2.231h.773l2.203-2.231 2.207-.629v.629l-1.433,1.574-.774,2.204 2.207-1.547 1.574-1.43 2.833-3.637 2.203-.801-.629,4.438v.773l2.863-2.203 3.891-2.207 2.207-1.574 5.836-2.203 2.207-.656-1.434,2.23 3.637-3.004 4.406-1.433 3.895-.77 4.406-1.547v1.547l-3.75,2.977-5.207,2.859 1.429-2.203-4.406,2.203-5.183,2.207-2.204,3.004-.656-2.203h-.773l-3.778,2.976-2.98,3.633-.77.774v-2.203h-.773l-2.863,2.203-3.778,2.203 .774-1.543v-.66l-2.977,1.433-4.41,2.977-.773,1.429-1.43-2.203-3.004,2.203-2.98,2.977-3.746,3.637-.661-2.836-3.777,2.207-3.637,3.746-1.543,3.637-2.976,3.004-.805-1.43-1.402,1.43-2.231,2.207-.773,1.429-2.203,2.977-.774-2.203-.66.773-5.18,3.633-1.429,2.203-3.121,2.981-1.43-2.981-2.32,2.207-1.43,3.004-.801,2.977-.633,2.203-2.976-2.203h-.801l-.629,2.203-.801.66-.773,1.547-2.203-1.547-.66.773-.774,1.543 .774,5.84v.66l-2.977.774-.914,1.574v2.203l-1.434,3.75-1.543,1.43-4.296-2.864-1.543-4.519v-.805z" fill="none" stroke="#bf801f" stroke-width=".12875"/>
   <path d="m272.172,227.902 2.203-.629 1.574-.8 1.43-.774v-4.41l1.406-.656 1.574-.774 .657-2.203v-3.777l.773-2.836v-3.004l2.977-1.434 1.574-.773 1.547-1.543 1.429-2.203-.773-1.574 2.203-3.637 .774-1.43 .773-1.547 1.43-1.429 2.98-1.547 5.063-4.438 6.757-6.613 5.981-2.859 1.434-2.203 1.542-1.547 4.411-4.41 3.777-1.43 2.977-.801 .773-1.402 2.203-3.008 2.234-1.43 4.407-3.09 4.406-1.433 3.75-1.574 3.781-1.43 5.067-2.203 5.179-.774 4.551-.66 3.777-.773 .629-.77 2.207-1.433 5.207-1.543 3.637-.66 3.891-.774 5.066-1.43h2.203l8.817-.773h9.734l17.918.773 12.477.657 11.164,1.547 5.953,1.429v-.769h3.008l3.746.769h.66v-1.429l4.551,1.429 8.043,2.207v-1.433l-.774-1.543 5.324,1.543 5.184,2.203h1.43v-.77h4.406l2.207,1.543 2.977.66h.8v-1.433l5.953,4.41 5.211,3.637 .629-1.434 5.981,1.434 3.121,3.117 4.406,4.41 3.637,1.43 2.976.773" fill="none" stroke="#363639" stroke-width=".9075"/>
   <path d="m564.926,75.7695 11.019-2.2031 11.938-2.2305h6.64l-2.203.6563 6.094.7734h4.41v2.2032l8.817-1.4024 4.437.6289-.805.7735-.769.8007 6.754-.8007 7.383-.7735 4.437.7735-2.863,1.4335h8.961-.774l-2.203,3.004 4.406,1.5468 2.977.6563-.773.7734h-.774l2.981,1.4297 6.609,1.5469h4.551l-.656.6601-1.692.7696 9.106,1.4336 17-.6602-2.204.6602 5.18,1.5742h5.067l-2.204,1.4023v.8008l9.731,3.6367 8.844.7735-.657.7695 1.43,1.4336h7.387l-2.977,1.4297 6.754,1.434h3.75l-2.976,1.543-3.75.773h9.589l-.632.66-1.575.77h5.985l4.406-.77v.77l-2.977,1.433 3.637.774 6.867-1.434-.769,1.434h3.633l7.386-.774-3.636,2.203h6.64l2.977-.629v2.833l6.613-1.43 3.777-.774h.774l-1.547,1.575l-8.07,2.832-5.324,1.574 .8-1.574h-.8l-4.411,1.574-.769.773 .769-2.347-1.429.804-3.75,2.317-.657-1.547v-.77l-2.976,1.543-3.781,2.977v.805l-.629-3.008-2.348,2.203-2.203,3.008-.774-1.575h-1.429l-3.004,2.348-1.406,1.43-.801-.774-3.633,1.547-11.277,8.817-18.578,4.433-14.797.633h-10.246l-9.106-1.434-5.062-5.179-4.411-5.18 2.864,1.543-1.434-2.977-2.203-2.203 2.977,1.547-.774-2.203-.769-2.976-2.207-2.235h2.207v.66l.769-2.98-1.43-3.777-1.546-3.633-4.407-3.637 3.633,1.43-1.43-2.977-2.203-2.203-3.777-2.2032-5.984-2.2031h.8l-2.203-2.2031-2.23-1.4336h-2.207 .66v-.8008l-5.066-2.9765h-3.891l2.461-1.4336 1.43-.7696-4.551-1.4336-4.406-.7734h-1.547l2.203-1.4297-.656-.7734-4.411-.6563-2.976.6563 1.429-2.2031h.774l-6.609-1.4297h-5.985l2.063-2.2071h.8l-3.636-.8007h-3.778l-2.863-.7735h-2.976l-16.344,1.5742" fill="#fcd2b2"/>
   <path d="m564.926,75.7695 11.019-2.2031 11.938-2.2305h6.64l-2.203.6563 6.094.7734h4.41v2.2032l8.817-1.4024 4.437.6289-.805.7735-.769.8007 6.754-.8007 7.383-.7735 4.437.7735-2.863,1.4335h8.961-.774l-2.203,3.004 4.406,1.5468 2.977.6563-.773.7734h-.774l2.981,1.4297 6.609,1.5469h4.551l-.656.6601-1.692.7696 9.106,1.4336 17-.6602-2.204.6602 5.18,1.5742h5.067l-2.204,1.4023v.8008l9.731,3.6367 8.844.7735-.657.7695 1.43,1.4336h7.387l-2.977,1.4297 6.754,1.434h3.75l-2.976,1.543-3.75.773h9.589l-.632.66-1.575.77h5.985l4.406-.77v.77l-2.977,1.433 3.637.774 6.867-1.434-.769,1.434h3.633l7.386-.774-3.636,2.203h6.64l2.977-.629v2.833l6.613-1.43 3.777-.774h.774l-1.547,1.575l-8.07,2.832-5.324,1.574 .8-1.574h-.8l-4.411,1.574-.769.773 .769-2.347-1.429.804-3.75,2.317-.657-1.547v-.77l-2.976,1.543-3.781,2.977v.805l-.629-3.008-2.348,2.203-2.203,3.008-.774-1.575h-1.429l-3.004,2.348-1.406,1.43-.801-.774-3.633,1.547-11.277,8.817-18.578,4.433-14.797.633h-10.246l-9.106-1.434-5.062-5.179-4.411-5.18 2.864,1.543-1.434-2.977-2.203-2.203 2.977,1.547-.774-2.203-.769-2.976-2.207-2.235h2.207v.66l.769-2.98-1.43-3.777-1.546-3.633-4.407-3.637 3.633,1.43-1.43-2.977-2.203-2.203-3.777-2.2032-5.984-2.2031h.8l-2.203-2.2031-2.23-1.4336h-2.207 .66v-.8008l-5.066-2.9765h-3.891l2.461-1.4336 1.43-.7696-4.551-1.4336-4.406-.7734h-1.547l2.203-1.4297-.656-.7734-4.411-.6563-2.976.6563 1.429-2.2031h.774l-6.609-1.4297h-5.985l2.063-2.2071h.8l-3.636-.8007h-3.778l-2.863-.7735h-2.976l-16.344,1.5742z" fill="none" stroke="#fcd2b2" stroke-width=".12875"/>
   <path d="m564.926,75.7695 11.019-2.2031 11.938-2.2305h6.64l-2.203.6563 6.094.7734h4.41v2.2032l8.817-1.4024 4.437.6289-.805.7735-.769.8007 6.754-.8007 7.383-.7735 4.437.7735-2.863,1.4335h8.961-.774l-2.203,3.004 4.406,1.5468 2.977.6563-.773.7734h-.774l2.981,1.4297 6.609,1.5469h4.551l-.656.6601-1.692.7696 9.106,1.4336 17-.6602-2.204.6602 5.18,1.5742h5.067l-2.204,1.4023v.8008l9.731,3.6367 8.844.7735-.657.7695 1.43,1.4336h7.387l-2.977,1.4297 6.754,1.434h3.75l-2.976,1.543-3.75.773h9.589l-.632.66-1.575.77h5.985l4.406-.77v.77l-2.977,1.433 3.637.774 6.867-1.434-.769,1.434h3.633l7.386-.774-3.636,2.203h6.64l2.977-.629v2.833l6.613-1.43 3.777-.774h.774l-1.547,1.575" fill="none" stroke="#363639" stroke-width=".9075"/>
   <path d="m764.457,110.434-8.07,2.832-5.324,1.574 .8-1.574h-.8l-4.411,1.574-.769.773 .769-2.347-1.429.804-3.75,2.317-.657-1.547v-.77l-2.976,1.543-3.781,2.977v.805l-.629-3.008-2.348,2.203-2.203,3.008-.774-1.575h-1.429l-3.004,2.348-1.406,2.203" fill="none" stroke="#363639" stroke-width=".9075"/>
   <path d="m722.27 124.57-3.778 4.293-1.429 3.75v3.004" fill="none" stroke="#363639" stroke-width=".9075"/>
   <path d="m656.949,128.207-.773-9.617 10.39-10.36 9.731-5.21 9.476-8.8169 14.942-6.6406 18.547-3.75 25.961-5.0664 19.234.6602-5.066,2.2031-2.203.7734 3.636.6602 .629.7695-4.265,2.207h-3.004l-.774.7696 3.778,2.207 1.402.8008h-7.527l-2.204.6289 1.43,1.5742 .774.6289-1.403.8047-5.211.7695-3.633,1.4336-4.41.7735-5.324.7695-5.18,2.0898-3.004,2.9765-2.863,2.207 2.231-.66h3.636l-3.004,2.203-4.41,1.434-3.633,1.429-1.546,1.575-1.575,2.203-.66.629 3.008-1.403 2.977-.8-.774.8-2.976,2.977-1.575,1.547-3.636,3.636-1.543,1.575-2.864,1.429-2.976.774-3.637.773h-2.203l-1.687-.773-1.434.773-1.43,1.43h-1.574l-4.406,1.43-27.395.773" fill="#fcd2b2"/>
   <path d="m656.949,128.207-.773-9.617 10.39-10.36 9.731-5.21 9.476-8.8169 14.942-6.6406 18.547-3.75 25.961-5.0664 19.234.6602-5.066,2.2031-2.203.7734 3.636.6602 .629.7695-4.265,2.207h-3.004l-.774.7696 3.778,2.207 1.402.8008h-7.527l-2.204.6289 1.43,1.5742 .774.6289-1.403.8047-5.211.7695-3.633,1.4336-4.41.7735-5.324.7695-5.18,2.0898-3.004,2.9765-2.863,2.207 2.231-.66h3.636l-3.004,2.203-4.41,1.434-3.633,1.429-1.546,1.575-1.575,2.203-.66.629 3.008-1.403 2.977-.8-.774.8-2.976,2.977-1.575,1.547-3.636,3.636-1.543,1.575-2.864,1.429-2.976.774-3.637.773h-2.203l-1.687-.773-1.434.773-1.43,1.43h-1.574l-4.406,1.43-27.395.773z" fill="none" stroke="#fcd2b2" stroke-width=".12875"/>
   <path d="m757.188,82.3828 2.203-.7734 5.066-2.2031-.656-.6602-1.574-.7695 2.23-.7735 1.547-.8008h-1.547l-2.23-.6328-2.836-.8007-4.551-.7735-4.551-.6289h-3.637l-4.406.6289-6.613,1.5742-5.324,1.4336-3.633,2.2032h-1.574l.8-1.4297-4.437.7695-4.406,1.4336-2.977.7734v-.7734l-1.574-.7734-5.18,1.5468-2.207,1.4297-2.976,1.4297-1.43.7734h-3.008l-.629-.7734 .629-1.4297-7.383,1.4297-4.551,2.207-1.429,2.2032-4.41,2.9765-.774,3.6367-2.203,2.3438-4.551,1.4336-3.636.6562-3.633.7735-3.778,3.75-5.183,4.437-4.551,6.61-1.43,3.75v4.437l1.43,3.637l3.008,2.977 2.316.773h5.211l-2.207-.773-1.57-1.434h3.777l-.801-.773-2.207-1.43 6.641-2.203-2.859-.774-1.575-.656 3.004-2.348 4.407-.628h.66l-2.09-1.575-1.547-.66 2.207-2.32h3.746l.66-.77-2.976-1.433v-.774l2.976-.8 4.551-1.43 2.203-.774-4.406-2.203 3.75-1.433 2.859-.77h3.75l-2.203-.66-.773-.773 2.976-1.543 3.637-.661h1.574l-2.347-1.5465-1.43-2.0898 1.43-.7695 5.984-1.5743h4.551l-2.235-2.207h14.797l-2.203-2.2031 2.203-.6289 5.985-.8008 5.207-.7734 4.41.7734-1.574-1.4336 3.777-.7734 4.551-.7696h3.636l-2.234-2.207h5.984l2.86-.7695 5.183.7695-.773-.7695 2.203-1.4336 3.895.7734h3.004" fill="#fde9d5"/>
   <path d="m757.188,82.3828 2.203-.7734 5.066-2.2031-.656-.6602-1.574-.7695 2.23-.7735 1.547-.8008h-1.547l-2.23-.6328-2.836-.8007-4.551-.7735-4.551-.6289h-3.637l-4.406.6289-6.613,1.5742-5.324,1.4336-3.633,2.2032h-1.574l.8-1.4297-4.437.7695-4.406,1.4336-2.977.7734v-.7734l-1.574-.7734-5.18,1.5468-2.207,1.4297-2.976,1.4297-1.43.7734h-3.008l-.629-.7734 .629-1.4297-7.383,1.4297-4.551,2.207-1.429,2.2032-4.41,2.9765-.774,3.6367-2.203,2.3438-4.551,1.4336-3.636.6562-3.633.7735-3.778,3.75-5.183,4.437-4.551,6.61-1.43,3.75v4.437l1.43,3.637l3.008,2.977 2.316.773h5.211l-2.207-.773-1.57-1.434h3.777l-.801-.773-2.207-1.43 6.641-2.203-2.859-.774-1.575-.656 3.004-2.348 4.407-.628h.66l-2.09-1.575-1.547-.66 2.207-2.32h3.746l.66-.77-2.976-1.433v-.774l2.976-.8 4.551-1.43 2.203-.774-4.406-2.203 3.75-1.433 2.859-.77h3.75l-2.203-.66-.773-.773 2.976-1.543 3.637-.661h1.574l-2.347-1.5465-1.43-2.0898 1.43-.7695 5.984-1.5743h4.551l-2.235-2.207h14.797l-2.203-2.2031 2.203-.6289 5.985-.8008 5.207-.7734 4.41.7734-1.574-1.4336 3.777-.7734 4.551-.7696h3.636l-2.234-2.207h5.984l2.86-.7695 5.183.7695-.773-.7695 2.203-1.4336 3.895.7734h3.004z" fill="none" stroke="#fde9d5" stroke-width=".12875"/>
   <path d="m651.625,126.664-1.43-3.637v-4.437l1.43-3.75 4.551-6.61 5.183-4.437 3.778-3.75 3.633-.7735 3.636-.6562 4.551-1.4336 2.203-2.3438 .774-3.6367 4.41-2.9765 1.429-2.2032 4.551-2.207 7.383-1.4297-.629,1.4297 .629.7734h3.008l1.43-.7734 2.976-1.4297 2.207-1.4297 5.18-1.5468 1.574.7734v.7734l2.977-.7734 4.406-1.4336 4.437-.7695-.8,1.4297h1.574l3.633-2.2032 5.324-1.4336 6.613-1.5742 4.406-.6289h3.637l4.551.6289 4.551.7735 2.836.8007 2.23.6328h1.547l-1.547.8008-2.23.7735 1.574.7695 .656.6602-5.066,2.2031-2.203.7734 3.636.6602 .629.7695-4.265,2.207h-3.004l-.774.7696 3.778,2.207 1.402.8008h-7.527l-2.204.6289 1.43,1.5742 .774.6289-1.403.8047-5.211.7695-3.633,1.4336-4.41.7735-5.324.7695-5.18,2.0898-3.004,2.9765-2.863,2.207 2.231-.66h3.636l-3.004,2.203-4.41,1.434-3.633,1.429-1.546,1.575-1.575,2.203-.66.629 3.008-1.403 2.977-.8-.774.8-2.976,2.977-1.575,1.547-3.636,3.636-1.543,1.575-2.864,1.429-2.976.774-3.637.773h-2.203l-1.687-.773-1.434.773-1.43,1.43h-1.574l-4.406,1.43" fill="none" stroke="#363639" stroke-width=".9075"/>
   <path d="m717.059,140.031 .773,14.024 .656,11.793 1.547,11.164 2.231,9.472 3.636,12.594 2.203,8.188 2.977,11.047h-.773l-6.637,2.32-5.84,2.203-5.324,2.203-3.637,2.863-3.75,3.004-3.633,3.637-2.207,2.203-4.406,3.75-5.324,2.203-7.414,3.008-15.571,2.203-8.183.629h-5.184l-5.207-.629h-2.976l-3.637,1.543-2.203,2.207-2.203,6.641-.774.773-3.121.629-2.203-.629h-1.434l-1.429.629-1.574.801-1.43.773-2.207.657-1.543-.657-.66-.773v-.801l-1.43-.629h-2.203l-1.692.629-3.632,1.574-3.75.657-2.864-.657-2.976-.773-2.203-1.43-3.008-3.008-2.317-3.75-2.863-5.207-.773-1.402-1.43-.805-1.574-.769-1.43.769-.773.805-1.434.629h-1.543l-2.863-.629-2.32-.805-4.434-2.976l-2.977-11.821-3.781-10.246-3.633-5.98-5.297-3.637-6.64-6.726-5.18-7.414-5.84-11.821-3.777-9.472-2.977-8.961-2.203-5.067l-3.008-1.687-2.203-2.836-4.406-2.203-3.121-2.231-1.43-.773-1.406-2.207h-2.23v-1.543h-2.977l1.43-2.203 2.203-.66v-.774l-2.203-.773h-5.067l4.41-2.86h-2.976l2.976-2.207-2.976-2.203 4.406-.801 1.43.801-2.203-3.004 5.183,1.43 .801-2.203 2.977,2.976 5.98-5.179v3.75l6.613-2.977-.773,2.977 8.301-2.977-.774,1.43 7.387-.66-.773,1.433h11.046l4.524.774 9.617,1.429 15.57,1.43 7.414,2.207 7.528,1.574 7.387-.773 6.64-1.434 8.93-3.004 8.07-2.203h10.504l2.977,1.43 5.839,1.574-3.632-2.23h1.429l-2.976-1.547 6.609,3.777 .805.629h7.527l5.18-.629 4.406-.801 8.188-1.429l5.179-.774 3.637-1.433 1.574-1.543 1.43-.774h1.434l1.687.774 6.613.773 2.86-1.547 2.207-.66 3.75-2.977 2.203-2.203 1.574.774v1.429l3.75-2.203 2.859-2.23v1.574l2.981-2.348 2.23-1.433-3.636,5.984-3.778,4.293-1.429,3.75v7.414" fill="#fde9d5"/>
   <path d="m717.059,140.031 .773,14.024 .656,11.793 1.547,11.164 2.231,9.472 3.636,12.594 2.203,8.188 2.977,11.047h-.773l-6.637,2.32-5.84,2.203-5.324,2.203-3.637,2.863-3.75,3.004-3.633,3.637-2.207,2.203-4.406,3.75-5.324,2.203-7.414,3.008-15.571,2.203-8.183.629h-5.184l-5.207-.629h-2.976l-3.637,1.543-2.203,2.207-2.203,6.641-.774.773-3.121.629-2.203-.629h-1.434l-1.429.629-1.574.801-1.43.773-2.207.657-1.543-.657-.66-.773v-.801l-1.43-.629h-2.203l-1.692.629-3.632,1.574-3.75.657-2.864-.657-2.976-.773-2.203-1.43-3.008-3.008-2.317-3.75-2.863-5.207-.773-1.402-1.43-.805-1.574-.769-1.43.769-.773.805-1.434.629h-1.543l-2.863-.629-2.32-.805-4.434-2.976l-2.977-11.821-3.781-10.246-3.633-5.98-5.297-3.637-6.64-6.726-5.18-7.414-5.84-11.821-3.777-9.472-2.977-8.961-2.203-5.067l-3.008-1.687-2.203-2.836-4.406-2.203-3.121-2.231-1.43-.773-1.406-2.207h-2.23v-1.543h-2.977l1.43-2.203 2.203-.66v-.774l-2.203-.773h-5.067l4.41-2.86h-2.976l2.976-2.207-2.976-2.203 4.406-.801 1.43.801-2.203-3.004 5.183,1.43 .801-2.203 2.977,2.976 5.98-5.179v3.75l6.613-2.977-.773,2.977 8.301-2.977-.774,1.43 7.387-.66-.773,1.433h11.046l4.524.774 9.617,1.429 15.57,1.43 7.414,2.207 7.528,1.574 7.387-.773 6.64-1.434 8.93-3.004 8.07-2.203h10.504l2.977,1.43 5.839,1.574-3.632-2.23h1.429l-2.976-1.547 6.609,3.777 .805.629h7.527l5.18-.629 4.406-.801 8.188-1.429l5.179-.774 3.637-1.433 1.574-1.543 1.43-.774h1.434l1.687.774 6.613.773 2.86-1.547 2.207-.66 3.75-2.977 2.203-2.203 1.574.774v1.429l3.75-2.203 2.859-2.23v1.574l2.981-2.348 2.23-1.433-3.636,5.984-3.778,4.293-1.429,3.75v7.414z" fill="none" stroke="#fde9d5" stroke-width=".12875"/>
   <path d="m513.633,143.664-2.203-.773h-5.067l4.41-2.86h-2.976l2.976-2.207-2.976-2.203 4.406-.801 1.43.801-2.203-3.004 5.183,1.43 .801-2.203 2.977,2.976 5.98-5.179v3.75l6.613-2.977-.773,2.977 8.301-2.977-.774,1.43 7.387-.66-.773,1.433h11.046l4.524.774" fill="none" stroke="#363639" stroke-width=".9075"/>
   <path d="m571.54 134.82 15.57 1.43 7.414 2.207 7.528 1.574 7.387-0.773 6.64-1.434 8.93-3.004 8.07-2.203h10.504l2.977 1.43 5.839 1.574-3.632-2.23h1.429l-2.976-1.547" fill="none" stroke="#363639" stroke-width=".9075"/>
   <path d="m679.934,133.391 5.179-.774 3.637-1.433 1.574-1.543 1.43-.774h1.434l1.687.774 6.613.773 2.86-1.547 2.207-.66 3.75-2.977 2.203-2.203 1.574.774v1.429l3.75-2.203 2.859-2.23v1.574l2.981-2.348 2.23-1.433" fill="none" stroke="#363639" stroke-width=".9075"/>
   <path d="m530.78 160.78 2.203 5.067 2.977 8.961 3.777 9.472 5.84 11.821 5.18 7.414 6.64 6.726 5.297 3.637 3.633 5.98 3.781 10.246 2.977 11.821" fill="none" stroke="#363639" stroke-width=".9075"/>
   <path d="m731.08 218.31-2.977-11.047-2.203-8.188-3.636-12.594-2.231-9.472-1.547-11.164-0.656-11.793-0.773-14.024" fill="none" stroke="#363639" stroke-width=".9075"/>
   <path d="m974.094,66.5547 1.687-4.8086 .774-3.2617 .914-2.4649 1.574-1.5429h2.461l2.461,1.5429 1.547,7.2735v7.2695l-.887,4.0352-1.574,4.1484v4.0391l.914,2.4609 .66,13.625-1.574,20.2659-8.957,27.504-3.121,6.355-2.461,3.379-4.153,3.891-2.461,4.035-2.203,4.926-3.379,11.304-6.496,8.817-5.695,5.722-4.953,7.27-5.582,6.5-4.149,6.469-4.668,6.382-3.375,4.922-4.808,5.582-3.235,3.235-5.726,4.953-9.731,10.359-12.996,11.309-9.73,8.957-6.469,4.152-8.074,3.117-7.27,6.5-6.609,5.696-7.273,7.929-4.809,4.922-4.004,1.688-8.187,5.582-8.961,6.496-4.036,2.348-1.687,3.378-1.547,2.317-4.922,2.465-8.844,4.035-12.195,4.035-13.765,5.695-18.692,6.496-14.543,4.809-12.965,4.926-15.457,3.89-10.531,4.036-10.621,2.464-13.766,3.235-12.996,2.488h-6.496l-1.547.773-.914,1.688-1.547.629-3.261-.629h-2.465l-3.117-.914-3.352-1.547-2.488-.914-2.321-1.574-2.461-.774-4.035-.918-1.687-.629-2.348-1.832-1.687-1.546-1.692-2.344-.773-1.692-1.543-2.316 4.008-.918 23.496-8.844 17.804-6.468 10.649-7.27 23.613-9.762 9.617-4.008 15.43-12.078 22.727-14.539 14.539-4.008 20.379-12.996 26.734-15.312 14.539-13.766 7.273-3.234 3.262-5.582 7.383-10.535 6.5-5.696 4.035-5.722 6.356-3.121 3.375-4.922 5.695-8.817 7.273-4.953 8.184-5.695 9.734-10.391 15.313-16.23 10.531-12.852 4.152-12.992 4.008-3.234 5.578-4.809 9.762-13.769 8.961-12.051 18.691-21.8088 7.27-10.6485 4.008-5.582" fill="#fabd3f"/>
   <path d="m974.094,66.5547 1.687-4.8086 .774-3.2617 .914-2.4649 1.574-1.5429h2.461l2.461,1.5429 1.547,7.2735v7.2695l-.887,4.0352-1.574,4.1484v4.0391l.914,2.4609 .66,13.625-1.574,20.2659-8.957,27.504-3.121,6.355-2.461,3.379-4.153,3.891-2.461,4.035-2.203,4.926-3.379,11.304-6.496,8.817-5.695,5.722-4.953,7.27-5.582,6.5-4.149,6.469-4.668,6.382-3.375,4.922-4.808,5.582-3.235,3.235-5.726,4.953-9.731,10.359-12.996,11.309-9.73,8.957-6.469,4.152-8.074,3.117-7.27,6.5-6.609,5.696-7.273,7.929-4.809,4.922-4.004,1.688-8.187,5.582-8.961,6.496-4.036,2.348-1.687,3.378-1.547,2.317-4.922,2.465-8.844,4.035-12.195,4.035-13.765,5.695-18.692,6.496-14.543,4.809-12.965,4.926-15.457,3.89-10.531,4.036-10.621,2.464-13.766,3.235-12.996,2.488h-6.496l-1.547.773-.914,1.688-1.547.629-3.261-.629h-2.465l-3.117-.914-3.352-1.547-2.488-.914-2.321-1.574-2.461-.774-4.035-.918-1.687-.629-2.348-1.832-1.687-1.546-1.692-2.344-.773-1.692-1.543-2.316 4.008-.918 23.496-8.844 17.804-6.468 10.649-7.27 23.613-9.762 9.617-4.008 15.43-12.078 22.727-14.539 14.539-4.008 20.379-12.996 26.734-15.312 14.539-13.766 7.273-3.234 3.262-5.582 7.383-10.535 6.5-5.696 4.035-5.722 6.356-3.121 3.375-4.922 5.695-8.817 7.273-4.953 8.184-5.695 9.734-10.391 15.313-16.23 10.531-12.852 4.152-12.992 4.008-3.234 5.578-4.809 9.762-13.769 8.961-12.051 18.691-21.8088 7.27-10.6485 4.008-5.582z" fill="none" stroke="#fabd3f" stroke-width=".12875"/>
   <path d="m659.152,339.301 5.985-4.551 8.816-3.777 8.957-3.633 5.84-2.977 8.328-3.636 8.817-5.981 8.96-6.613 6.61-5.84 6.64-5.18 7.528-3.777 5.183-2.207h5.067l2.976-.77 2.204-2.207 3.121-2.203 3.004-1.429 3.636-1.575 7.383-3.636 2.863-.774 2.317-2.203 11.191-5.18 5.039-2.863 1.946-.773 8.96-6.641 8.071-6.609 7.527-6.758 4.41-1.543 5.836-9.477 4.555-7.414 6.609-5.98 6.758-6.614 4.406-2.203 2.348-2.203 2.832-4.41 .801-2.203 2.976-4.551 3.637-2.976 4.406-2.864 4.551-3.004 6.758-3.636 8.043-9.586 8.957-9.617 8.816-11.164 2.203-3.379 5.325-5.067 1.433-2.976 1.574-5.18 .629-4.438 2.204-2.976 2.234-.656 2.203-.774 2.316-1.433 2.864-2.977 4.55-7.41 1.547-4.41 3.633-5.324 3.637-4.407 11.305-11.0193 6.5-8.8476 8.957-11.0196 8.16-8.957-2.981,7.3828-3.633,5.211-5.324,5.1796-5.84,8.043-5.839,8.8481-4.664,5.953-2.864,5.207-3.777,4.523-6.613,7.414-2.204,3.633-1.429,2.977v4.437l-1.692,1.402-1.429.801-4.407,2.207-1.433,1.43-2.203,2.203-.774.774-3.004,5.179-2.203,4.438-4.523,5.437-5.211,5.324-8.043,8.043-8.184,11.164-4.55,5.067-5.84,5.211-5.84,2.976-6.871,5.18-4.293,6.641-3.75,5.179-3.633,6.614 .629,3.004-.629,1.433-1.691,2.203-2.204,1.543-6.64,2.977-2.977,1.433-3.633,4.407-4.55,5.211-4.41,5.179-5.84,5.985-9.731,6.609-10.39,7.414-8.957,5.066-5.442,2.977-7.41,3.637-2.98,1.543-3.778,2.207-1.543,1.429 .77,1.575 .773,1.429-.773.774-2.977,1.433h-3.633l-4.437.77-2.203.66-2.203.774-2.321,2.347-2.203,1.403h-3.008l-4.406,2.203-4.406,2.347-2.207,1.43-2.203,2.203-2.348,2.207-4.406,1.43-3.778,1.574-3.636,2.832-2.977,3.008-2.203,2.203-3.008,2.977-3.746,2.203-6.613,2.863-8.188,2.977-8.183,3.003-9.59,3.637-7.414,3.891h-8.188" fill="#fde9d5"/>
   <path d="m659.152,339.301 5.985-4.551 8.816-3.777 8.957-3.633 5.84-2.977 8.328-3.636 8.817-5.981 8.96-6.613 6.61-5.84 6.64-5.18 7.528-3.777 5.183-2.207h5.067l2.976-.77 2.204-2.207 3.121-2.203 3.004-1.429 3.636-1.575 7.383-3.636 2.863-.774 2.317-2.203 11.191-5.18 5.039-2.863 1.946-.773 8.96-6.641 8.071-6.609 7.527-6.758 4.41-1.543 5.836-9.477 4.555-7.414 6.609-5.98 6.758-6.614 4.406-2.203 2.348-2.203 2.832-4.41 .801-2.203 2.976-4.551 3.637-2.976 4.406-2.864 4.551-3.004 6.758-3.636 8.043-9.586 8.957-9.617 8.816-11.164 2.203-3.379 5.325-5.067 1.433-2.976 1.574-5.18 .629-4.438 2.204-2.976 2.234-.656 2.203-.774 2.316-1.433 2.864-2.977 4.55-7.41 1.547-4.41 3.633-5.324 3.637-4.407 11.305-11.0193 6.5-8.8476 8.957-11.0196 8.16-8.957-2.981,7.3828-3.633,5.211-5.324,5.1796-5.84,8.043-5.839,8.8481-4.664,5.953-2.864,5.207-3.777,4.523-6.613,7.414-2.204,3.633-1.429,2.977v4.437l-1.692,1.402-1.429.801-4.407,2.207-1.433,1.43-2.203,2.203-.774.774-3.004,5.179-2.203,4.438-4.523,5.437-5.211,5.324-8.043,8.043-8.184,11.164-4.55,5.067-5.84,5.211-5.84,2.976-6.871,5.18-4.293,6.641-3.75,5.179-3.633,6.614 .629,3.004-.629,1.433-1.691,2.203-2.204,1.543-6.64,2.977-2.977,1.433-3.633,4.407-4.55,5.211-4.41,5.179-5.84,5.985-9.731,6.609-10.39,7.414-8.957,5.066-5.442,2.977-7.41,3.637-2.98,1.543-3.778,2.207-1.543,1.429 .77,1.575 .773,1.429-.773.774-2.977,1.433h-3.633l-4.437.77-2.203.66-2.203.774-2.321,2.347-2.203,1.403h-3.008l-4.406,2.203-4.406,2.347-2.207,1.43-2.203,2.203-2.348,2.207-4.406,1.43-3.778,1.574-3.636,2.832-2.977,3.008-2.203,2.203-3.008,2.977-3.746,2.203-6.613,2.863-8.188,2.977-8.183,3.003-9.59,3.637-7.414,3.891h-8.188z" fill="none" stroke="#fde9d5" stroke-width=".12875"/>
   <path d="m974.094,66.5547 1.687-4.8086 .774-3.2617 .914-2.4649 1.574-1.5429h2.461l2.461,1.5429 1.547,7.2735v7.2695l-.887,4.0352-1.574,4.1484v4.0391l.914,2.4609 .66,13.625-1.574,20.2659-8.957,27.504-3.121,6.355-2.461,3.379-4.153,3.891-2.461,4.035-2.203,4.926-3.379,11.304-6.496,8.817-5.695,5.722-4.953,7.27-5.582,6.5-4.149,6.469-4.668,6.382-3.375,4.922-4.808,5.582-3.235,3.235-5.726,4.953-9.731,10.359-12.996,11.309-9.73,8.957-6.469,4.152-8.074,3.117-7.27,6.5-6.609,5.696-7.273,7.929-4.809,4.922-4.004,1.688-8.187,5.582-8.961,6.496-4.036,2.348-1.687,3.378-1.547,2.317-4.922,2.465-8.844,4.035-12.195,4.035-13.765,5.695-18.692,6.496-14.543,4.809-12.965,4.926-15.457,3.89-10.531,4.036-10.621,2.464-13.766,3.235-12.996,2.488h-6.496l-1.547.773-.914,1.688-1.547.629-3.261-.629h-2.465l-3.117-.914-3.352-1.547-2.488-.914-2.321-1.574-2.461-.774-4.035-.918-1.687-.629-2.348-1.832-1.687-1.546-1.692-2.344-.773-1.692-1.543-2.316" fill="none" stroke="#363639" stroke-width=".9075"/>
   <path d="m659.41,339.047 5.84-4.551 8.961-3.781 8.957-3.633 5.84-2.977 8.187-3.636 8.957-5.981 8.961-6.613 6.61-5.84 6.64-5.18 7.528-3.777 5.066-2.207h5.184l2.976-.769 2.203-2.207 3.121-2.231 2.86-1.402 3.777-1.574 7.387-3.637 2.863-.774 2.348-2.203 11.16-5.211 5.039-2.832 1.977-.801 8.929-6.613 8.071-6.609 7.527-6.758 4.41-1.543 5.836-9.504 4.551-7.387 6.613-5.836 6.613-6.757 4.551-2.203 2.348-2.204 2.859-4.41 .774-2.203 2.976-4.551 3.637-3.004 4.406-2.835 4.551-3.004 6.613-3.637 8.188-9.586 8.957-9.617 8.816-11.164 2.203-3.379 5.324-5.067 1.434-2.976 1.574-5.18 .629-4.437 2.231-2.977 2.207-.656 2.203-.774 2.203-1.433 2.977-2.977 4.55-7.41 1.434-4.41 3.746-5.324 3.637-4.407 11.164-11.0191 6.64-8.8437 8.957-11.0196 7.903-8.9609" fill="none" stroke="#363639" stroke-width=".9075"/>
   <path d="m676.44 335.67 7.27-3.121 4.152-2.461 4.922-0.914 4.668-1.574 8.957-4.782 4.149-1.687 4.039-3.266 4.808-4.808 5.696-4.922 6.496-4.008 6.5-2.348 4.004-1.687 4.039-2.348 4.922-1.687 3.261-0.774h13.77" fill="none" stroke="#363639" stroke-width=".9075"/>
   <path d="m807.02,287.094-10.504,1.691h-21.039l-3.375-1.691h-2.321v-1.543l.774-1.547 2.461-2.492 9.617-4.004 9.847-5.727 10.532-6.355 7.269-5.723 7.274-4.781 4.922-4.809 5.695-4.953 4.035-4.777 2.461-3.379 2.465-3.121 2.344-1.688 4.812-1.574 5.063-.773 3.121.773" fill="none" stroke="#363639" stroke-width=".9075"/>
   <path d="m906.082,218.43-10.644,2.461-8.961.8-9.618,1.661-11.421.8h-7.27l-4.809-.8-2.461-.774v-1.687l1.575-1.547 4.007-7.414 5.723-7.899 4.926-4.152 5.582-4.809 5.723-2.343 4.007-2.465 1.688-1.688 5.726-8.957 5.583-6.355 6.496-7.414 7.269-6.356 1.688-3.117 2.464-5.84 2.461-3.234 1.543-3.121 .805-1.575 3.234-1.687 1.543-1.66" fill="none" stroke="#363639" stroke-width=".9075"/>
   <path d="m974.094,131.328-8.817,1.547-5.582,2.348-4.293.769h-7.273l-4.004-.769h-2.492l-3.09.769h-4.18l-4.008-.769h-1.574l-.886-2.348 .886-2.461 3.266-4.008 6.496-8.187 5.582-7.27 4.922-7.156 4.035-5.6953 4.781-6.5 4.035-5.7227 4.149-4.7812 3.238-4.0352" fill="none" stroke="#363639" stroke-width=".9075"/>
   <path d="m623.6 341.36v-23.5l2.575-10.504 2.347-9.617 3.235-6.469 5.84-6.496 4.695-4.953" fill="none" stroke="#363639" stroke-width=".9075"/>
   <path d="m605.172,325.906 4.008,4.18 .769,2.461 .805,2.32 .769,2.488 .774,2.321" fill="none" stroke="#363639" stroke-width=".9075"/>
   <path d="m612.3 344.48v-5.582l2.461-5.726 1.691-7.27 0.774-12.851 1.687-10.504v-12.078" fill="none" stroke="#363639" stroke-width=".9075"/>
   <path d="m706.41,255.695-8.043,3.235-11.422,3.121-8.843,2.461-7.383,2.461-8.043,1.574-8.188,1.687-3.234.774-4.035.773-4.922,1.574h-4.695l-.887-.66-1.574-1.687-.891-2.461 .891-3.121 1.574-4.922 2.461-8.188 .656-11.16 .887-6.5v-3.234l3.265-5.723 .774-1.547 .914-2.461" fill="none" stroke="#363639" stroke-width=".9075"/>
   <path d="m598.531,161.957 6.641,8.039 5.582,7.274 5.695,4.808 4.809,4.809 6.496,3.375 5.695,3.121 4.809,1.687 1.574,1.547 1.805,2.461 1.547,2.492-.887,3.09-.66,2.492-.918,1.688 .918,3.09 .66.918 4.148,3.117h4.008l5.582.918h4.949l3.235-1.574 7.414-1.547 5.582-.914 6.496-.918h7.242l5.867.918 5.582.914" fill="none" stroke="#363639" stroke-width=".9075"/>
   <path d="m643.984,342.938-.8-.801h-.887l-3.121-.774-1.692.258-3.234.402-1.574.915-1.688,1.546-.773,1.688-1.688,2.461-2.347,1.574-2.575.773-2.347.774-4.035.914-2.321,1.176-1.172,1.289-.66,2.719 .145,2.089 .773,2.461 1.688,1.289 2.863.254 4.406.258 3.235-.629 4.035-1.172 2.461-.918 1.949-1.285 2.09-1.691 1.945-2.719 1.172-1.574 3.352-.774 3.261-.773 3.235-.914 4.808-1.547 2.606-1.43 1.543-.515 4.297-1.946 1.543-1.316 1.433-2.207v-3.891l.774-1.547-1.547-1.687h-1.692l-1.543-.258-2.234.113-2.461,1.692-1.805,1.687-1.687,1.547-.656-.89-1.032-.512-1.691-.402-2.602.402-1.289,1.402-.773.914-1.688,1.575" fill="#fde9d5"/>
   <path d="m643.984,342.938-.8-.801h-.887l-3.121-.774-1.692.258-3.234.402-1.574.915-1.688,1.546-.773,1.688-1.688,2.461-2.347,1.574-2.575.773-2.347.774-4.035.914-2.321,1.176-1.172,1.289-.66,2.719 .145,2.089 .773,2.461 1.688,1.289 2.863.254 4.406.258 3.235-.629 4.035-1.172 2.461-.918 1.949-1.285 2.09-1.691 1.945-2.719 1.172-1.574 3.352-.774 3.261-.773 3.235-.914 4.808-1.547 2.606-1.43 1.543-.515 4.297-1.946 1.543-1.316 1.433-2.207v-3.891l.774-1.547-1.547-1.687h-1.692l-1.543-.258-2.234.113-2.461,1.692-1.805,1.687-1.687,1.547-.656-.89-1.032-.512-1.691-.402-2.602.402-1.289,1.402-.773.914-1.688,1.575z" fill="none" stroke="#363639" stroke-width=".9075"/>
   <path d="m530.78 161.04-2.347-1.547v-4.922l0.773-2.347 3.262-3.235 1.687-1.687 4.008-2.461h1.574" fill="none" stroke="#363639" stroke-width=".9075"/>
   <path d="m524.43 153-0.918-2.461 0.918-1.547 2.316-2.347 2.465-1.801" fill="none" stroke="#363639" stroke-width=".9075"/>
   <path d="m554.395,186.227-1.692-3.235-.769-1.687v-3.235l-.774-1.574v-1.687l.774-2.465h4.921l4.036,1.691 2.461,1.543 2.347,2.492 3.235,1.547 4.808,1.688 2.461.773 4.953,2.461 3.235,1.688 3.234,2.347 4.035,2.348 4.153,1.805 4.035,1.574" fill="none" stroke="#363639" stroke-width=".9075"/>
   <path d="m559.977,199.879 1.687,3.234 2.348,2.465 1.687,1.574 1.692,2.461 2.316,3.235 .914,2.461 1.574,3.121 1.547,2.461 1.692,1.687 3.23,1.574h8.074l5.696-1.574 4.921-1.687h5.583l5.726.8h4.922l4.035.887 1.688-1.687 .773-1.547 .773-1.688v-5.726l-2.46-3.09-1.547-2.492-4.149-3.235" fill="none" stroke="#363639" stroke-width=".9075"/>
   <path d="m584.391,256.469 2.347,4.922 1.688,4.808 1.547,4.035v8.817l2.461,4.035 3.379,1.691 2.347.774 3.231-.774 4.039-1.691 5.695-2.348 4.035-1.687 2.461-1.543 1.688-2.348 1.546-2.465 .801-3.375 1.692-5.582 .773-10.504 .77-8.843-.77-6.5-2.465-6.469-4.808-4.035" fill="none" stroke="#363639" stroke-width=".9075"/>
   <path d="m620.082,362.402 2.719-3.121 1.949-1.429 1.832-.918 1.945-.887 1.688-.516 1.176-1.058 1.285-.774 1.176-1.031 1.289-.77 .914-.66 1.031-.258 1.172-.144 1.289-.113 .918-.399 1.57-.515 .891-.403 .656-.629 .773-.918 .258-.769 .516-.516 .398-.918v-.258" fill="none" stroke="#363639" stroke-width=".9075"/>
   <path d="m625.406,361.113 1.289-1.058 1.832-.774 1.289-.66 .657-.113 .773-.656 .516-.258 .66-.918 1.027-.887 1.059-.398 1.289-.516 1.289-.66 3.004-.914 2.976-1.031 1.547-.661 .914-.371 .918-.914 .657-.918 1.546-.629 1.29-.515 1.171-.145 1.289-.515 1.317-.399 .66-.515 .629-.661 .656-.769 .258-.633v-1.832" fill="none" stroke="#363639" stroke-width=".9075"/>
   <path d="m664.363,342.137 1.688-.371 1.289-.516 .773-1.059 .774-1.144 .543-1.434v-2.605l-.258-.141h-.66l-.399.258-.773.398h-2.203l-.774.258-.515.403-.657.629-.257.914v3.523l.113.516 .398.257h.258l.66.114" fill="#c5b9b5"/>
   <path d="m664.363,342.137 1.688-.371 1.289-.516 .773-1.059 .774-1.144 .543-1.434v-2.605l-.258-.141h-.66l-.399.258-.773.398h-2.203l-.774.258-.515.403-.657.629-.257.914v3.523l.113.516 .398.257h.258l.66.114z" fill="none" stroke="#363639" stroke-width=".12875"/>
   <path d="m652.543,339.418h1.172l.918-.371 .769-.66 .633-.774 .543-.398 .516-.402 .515.285 .516.117 .258.398 .254.629 .144,1.059v.633l-.144.914-.512.773-.516,1.059-.402.773-.371.371-.66.403-.258.398h-.258l-1.945-.398-.258-.145-.656-.258-.66-.773-.114-.656-.257-.629v-.516l.257-.66 .114-.141 .402-1.031" fill="#c5b9b5"/>
   <path d="m652.543,339.418h1.172l.918-.371 .769-.66 .633-.774 .543-.398 .516-.402 .515.285 .516.117 .258.398 .254.629 .144,1.059v.633l-.144.914-.512.773-.516,1.059-.402.773-.371.371-.66.403-.258.398h-.258l-1.945-.398-.258-.145-.656-.258-.66-.773-.114-.656-.257-.629v-.516l.257-.66 .114-.141 .402-1.031z" fill="none" stroke="#363639" stroke-width=".12875"/>
   <path d="m640.863,341.766-.656.257-.117.372-.258.656v1.316l.887,1.289 .773.918 .918.258h1.832l.887-.144 .656-.372 .66-.66 .371-1.031 .145-.543 .141-.887v-1.574l-.141-.371-.402-.66-.114-.399h-1.172l-.144.399-.516.515-.258.403-.628.113-1.059.145-.371-.258h-.805l-.629.258" fill="#c5b9b5"/>
   <path d="m640.863,341.766-.656.257-.117.372-.258.656v1.316l.887,1.289 .773.918 .918.258h1.832l.887-.144 .656-.372 .66-.66 .371-1.031 .145-.543 .141-.887v-1.574l-.141-.371-.402-.66-.114-.399h-1.172l-.144.399-.516.515-.258.403-.628.113-1.059.145-.371-.258h-.805l-.629.258z" fill="none" stroke="#363639" stroke-width=".12875"/>
   <path d="m626.066,360.453h-.402l-.656-.254-.633-.258-.254-.144-.258-.516" fill="none" stroke="#363639" stroke-width=".12875"/>
   <path d="m629.184,359.168h-.914l-.403-.285-1.172-.633-.371-.398" fill="none" stroke="#363639" stroke-width=".12875"/>
   <path d="m632.277,357.336-1.031.258-.773-.258-.914-.402-.375-.516" fill="none" stroke="#363639" stroke-width=".12875"/>
   <path d="m635.797,354.73-1.547.145-.656-.402-.66-.371-.114-.258" fill="none" stroke="#363639" stroke-width=".12875"/>
   <path d="m639.289,353.441-.773-.14-.516-.117-.113-.258-.543-.399" fill="none" stroke="#363639" stroke-width=".12875"/>
   <path d="m643.984,352.012h-1.058l-.516-.114-.629-.289-.402-.371-.258-.402" fill="none" stroke="#363639" stroke-width=".12875"/>
   <path d="m647.102,349.293-.657.113-.66-.113-.656-.258-.629-.258-.145-.515" fill="none" stroke="#363639" stroke-width=".12875"/>
   <path d="m649.938,348.52h-1.805l-.656-.258-.516-.66-.516-.399-.515-.371" fill="none" stroke="#363639" stroke-width=".12875"/>
   <path d="m652.801,347.203-.774.258h-1.031l-1.058-.371-1.032-.402-.258-.372-.656-.918-.515-.773" fill="none" stroke="#363639" stroke-width=".12875"/>
   <path d="m619.969,361.113-1.059.371h-1.031l-.774-.371-.773-.402-.801-.77-.629-1.058-.257-.375" fill="none" stroke="#363639" stroke-width=".12875"/>
   <path d="m620.742,360.199-1.031-.258-.914-.402-.918-.656-.399-.891-.515-1.316-.258-.629" fill="none" stroke="#363639" stroke-width=".12875"/>
   <path d="m622.945,358.883h-1.289l-.656-.375-.918-.774-.773-1.316-.399-1.027" fill="none" stroke="#363639" stroke-width=".12875"/>
   <path d="m625.406,357.852-1.543-.118-.402-.656-.66-.773-.629-1.43-.258-1.031-.258-.543" fill="none" stroke="#363639" stroke-width=".12875"/>
   <path d="m628.527,356.047-1.547-.258-.398-.258-.516-.656-.402-.66-.258-.516v-.515" fill="none" stroke="#363639" stroke-width=".12875"/>
   <path d="m631.391,354.473-1.176-.258-.399-.113-.886-.918-.403-.914-.66-1.29" fill="none" stroke="#363639" stroke-width=".12875"/>
   <path d="m634.625,352.012-1.176-.114-.773-.402-1.285-1.172-.145-.66-.258-.887" fill="none" stroke="#363639" stroke-width=".12875"/>
   <path d="m639.289,350.723h-.773l-1.032-.258-.769-.141-1.434-.66-1.316-.887-.774-.918-.371-.656-.398-.629" fill="none" stroke="#363639" stroke-width=".12875"/>
   <path d="m642.41,349.664-.629.145-1.316-.145-1.289-.371-.66-.258-1.43-.918-.773-1.027-.661-.774" fill="none" stroke="#363639" stroke-width=".12875"/>
   <path d="m268.02,215.051 1.175-2.203 .516-2.207v-1.688l-.516-1.687-.515-1.688-1.176-1.031-1.688-1.176-2.203-.516h-1.172l-1.031,2.723 1.031,2.86 .657,2.718 1.687,1.692 3.235,2.203" fill="#363639"/>
   <path d="m268.02,215.051 1.175-2.203 .516-2.207v-1.688l-.516-1.687-.515-1.688-1.176-1.031-1.688-1.176-2.203-.516h-1.172l-1.031,2.723 1.031,2.86 .657,2.718 1.687,1.692 3.235,2.203z" fill="none" stroke="#363639" stroke-width=".12875"/>
   <path d="m246.984,167.535 7.786,1.059 5.066,1.66 1.574,1.691 2.203,3.262-1.172,3.379-1.031,1.543-1.058,2.863 .543,2.719v1.691l.515,2.203-.515,2.204-1.059,1.171v1.575l1.059,2.836 1.144.398 1.059.66h.515l.66,2.203 .512,6.098 2.207,5.438 3.235,3.894 3.375,5.609 1.031,6.614-.371,7.125 .371,7.785v1.687l.66,1.063 .516,1.687 1.027,2.203 .66,1.032v1.687l-.66,1.692-1.027,1.027-1.547,1.176-1.832.656-4.41.375-3.235-.375-3.375-.656-5.066-2.203-7.672-3.895-9.988-6.098-13.254-5.98-11.676-5.066-16.746-5.582-19.465-5.954-16.113-3.921-12.051-3.348-17.289-4.953-16.086-3.891-19.9767-3.75-15.457-4.039-11.6797-2.203-5.582-.398-3.8906-.633-4.4375-1.575-4.4063-2.316-2.7226-1.687-3.375-1.575-2.2032-1.031-2.8632-.66-4.9219-1.688-3.3789-1.031-3.2344-2.203-3.3789-2.863-2.8594-1.543-2.6054-1.692-2.8633-1.171-2.2032-.516-1.6914-.66-1.0273-.399-1.1758-1.691-.51561-1.145v-2.203l1.69141-1.172 3.2344-1.574h5.5781l1.5781-.633 6.2383-2.203 4.9219-1.574 6.6133-2.203 6.2382-1.031 7.1289.375 6.0977.656 12.8516,1.172 13.7656,1.031 20.6368,2.207 16.488,1.172h8.844l14.539,1.031h10.648l11.02.516h7.273l8.844,1.687h21.524l5.582-.629h21.179l10.504,1.172 4.41.629" fill="#fabd3f"/>
   <path d="m246.984,167.535 7.786,1.059 5.066,1.66 1.574,1.691 2.203,3.262-1.172,3.379-1.031,1.543-1.058,2.863 .543,2.719v1.691l.515,2.203-.515,2.204-1.059,1.171v1.575l1.059,2.836 1.144.398 1.059.66h.515l.66,2.203 .512,6.098 2.207,5.438 3.235,3.894 3.375,5.609 1.031,6.614-.371,7.125 .371,7.785v1.687l.66,1.063 .516,1.687 1.027,2.203 .66,1.032v1.687l-.66,1.692-1.027,1.027-1.547,1.176-1.832.656-4.41.375-3.235-.375-3.375-.656-5.066-2.203-7.672-3.895-9.988-6.098-13.254-5.98-11.676-5.066-16.746-5.582-19.465-5.954-16.113-3.921-12.051-3.348-17.289-4.953-16.086-3.891-19.9767-3.75-15.457-4.039-11.6797-2.203-5.582-.398-3.8906-.633-4.4375-1.575-4.4063-2.316-2.7226-1.687-3.375-1.575-2.2032-1.031-2.8632-.66-4.9219-1.688-3.3789-1.031-3.2344-2.203-3.3789-2.863-2.8594-1.543-2.6054-1.692-2.8633-1.171-2.2032-.516-1.6914-.66-1.0273-.399-1.1758-1.691-.51561-1.145v-2.203l1.69141-1.172 3.2344-1.574h5.5781l1.5781-.633 6.2383-2.203 4.9219-1.574 6.6133-2.203 6.2382-1.031 7.1289.375 6.0977.656 12.8516,1.172 13.7656,1.031 20.6368,2.207 16.488,1.172h8.844l14.539,1.031h10.648l11.02.516h7.273l8.844,1.687h21.524l5.582-.629h21.179l10.504,1.172 4.41.629z" fill="none" stroke="#fabd3f" stroke-width=".12875"/>
   <path d="m16.828 169.74 9.875 3.262 8.8125 4.406 12.852 3.379 13.367 3.234 15.457 2.719 8.8164 2.235 10.02 2.832 7.8987 2.203 8.844 1.574 8.816 2.203 12.738 3.379 10.617 2.863 12.079 2.719 8.445 2.719 5.469 2.203 2.832 1.691 4.953 2.719 5.582 1.688 5.578 1.058 5.582 1.805 3.75 1.058 2.203 1.145 2.207 1.059 0.656 0.515-1.172-0.515h-2.718l-3.895-0.657-3.89-1.031-10.508-2.203-7.813-2.234-7.785-2.204-16.601-4.41-10.536-3.375-12.707-3.75-4.406-1.691-5.582-1.688-6.098-1.687-6.238-1.574-12.738-3.379-9.9882-2.203-14.398-3.895-11.562-3.375-13.883-3.75-4.4101-1.687-3.375-1.176-2.2071-0.516-2.2304-1.027-2.8321-1.176-2.8633-1.687-4.4101-1.575-3.2617-0.629 0.6601-1.574" fill="#bf801f"/>
   <path d="m16.828 169.74 9.875 3.262 8.8125 4.406 12.852 3.379 13.367 3.234 15.457 2.719 8.8164 2.235 10.02 2.832 7.8987 2.203 8.844 1.574 8.816 2.203 12.738 3.379 10.617 2.863 12.079 2.719 8.445 2.719 5.469 2.203 2.832 1.691 4.953 2.719 5.582 1.688 5.578 1.058 5.582 1.805 3.75 1.058 2.203 1.145 2.207 1.059 0.656 0.515-1.172-0.515h-2.718l-3.895-0.657-3.89-1.031-10.508-2.203-7.813-2.234-7.785-2.204-16.601-4.41-10.536-3.375-12.707-3.75-4.406-1.691-5.582-1.688-6.098-1.687-6.238-1.574-12.738-3.379-9.9882-2.203-14.398-3.895-11.562-3.375-13.883-3.75-4.4101-1.687-3.375-1.176-2.2071-0.516-2.2304-1.027-2.8321-1.176-2.8633-1.687-4.4101-1.575-3.2617-0.629 0.6601-1.574z" fill="none" stroke="#bf801f" stroke-width=".12875"/>
   <path d="m16.828 169.74 9.875 3.262 8.8125 4.406 12.852 3.379 13.367 3.234 15.457 2.719 8.8164 2.235 10.02 2.832 7.8987 2.203 8.844 1.574 8.816 2.203 12.738 3.379 10.617 2.863 12.079 2.719 8.445 2.719 5.469 2.203 2.832 1.691 4.953 2.719 5.582 1.688 5.578 1.058 5.582 1.805 3.75 1.058 2.203 1.145 2.207 1.059 0.656 0.515-1.172-0.515" fill="none" stroke="#363639" stroke-width=".9075"/>
   <path d="m9.55469,169.109 .51561,1.145 1.1758,1.691 1.0273.399 1.6914.66 2.2032.516 2.8633,1.171 2.6054,1.692 2.8594,1.543 3.3789,2.863 3.2344,2.203 3.3789,1.031 4.9219,1.688 2.8632.66 2.2032,1.031 3.375,1.575 2.7226,1.687 4.4063,2.316 4.4375,1.575 3.8906.633 5.582.398 11.6797,2.203 15.457,4.039 19.9767,3.75 16.086,3.891 17.289,4.953 12.051,3.348 16.113,3.921 19.465,5.954 16.746,5.582 11.676,5.066 13.254,5.98 9.988,6.098 7.672,3.895 5.066,2.203 3.375.656 3.235.375 4.41-.375 1.832-.656 1.547-1.176 1.027-1.027 .66-1.692v-1.687l-.66-1.032-1.027-2.203-.516-1.687-.66-1.063v-1.687l-.371-7.785 .371-7.125-1.031-6.614-3.375-5.609-3.235-3.894-2.207-5.438-.512-6.098" fill="none" stroke="#363639" stroke-width=".9075"/>
   <path d="m9.55469,169.109v-2.203l1.69141-1.172 3.2344-1.574h5.5781l1.5781-.633 6.2383-2.203 4.9219-1.574 6.6133-2.203 6.2382-1.031 7.1289.375 6.0977.656 12.8516,1.172 13.7656,1.031 20.6368,2.207 16.488,1.172h8.844l14.539,1.031h10.648l11.02.516h7.273l8.844,1.687h21.524l5.582-.629h21.179l10.504,1.172" fill="none" stroke="#363639" stroke-width=".9075"/>
   <path d="m246.984,167.535 7.786,1.059 5.066,1.66 1.574,1.691 2.203,3.262-1.172,3.379-1.031,1.543-1.058,2.863 .543,2.719v1.691l.515,2.203-.515,2.204-1.059,1.171v1.575l1.059,2.836 1.144.398 1.059.66h.515" fill="none" stroke="#363639" stroke-width=".9075"/>
   <path d="m271.4 246.48-2.718-2.204-1.176-1.058-1.027-2.203-0.661-1.688-0.515-2.836 0.515-2.605v-4.406" fill="none" stroke="#363639" stroke-width=".12875"/>
   <path d="m269.71 228.82 1.172-1.543-1.172-3.378-0.516-1.688-1.175-2.203-1.028-2.234-1.176-1.145-2.203-2.203-2.203-1.574-2.203-1.692-0.66-2.203v-4.406l1.289-1.692" fill="none" stroke="#363639" stroke-width=".12875"/>
   <path d="m261.41,222.207 .629-1.574 .402-1.176v-3.375l-1.031-1.66" fill="none" stroke="#363639" stroke-width=".12875"/>
   <path d="m9.5547 169.11 2.7187-1.574 1.6914-1.172 3.8907-0.629h9.4765l15.457 1.172 24.93 1.688 27.133 2.207 16.23 2.203 18.289 2.719 16.113 1.172 22.184 1.031 22.727 2.203 19.464 1.176 15.571-0.516 11.05 0.516" fill="none" stroke="#363639" stroke-width=".9075"/>
   <path d="m223.227,178.586 5.98-.66 3.895.66 4.921.516 1.832.515 1.032,1.688v.515l-.66,1.172-1.543.516" fill="none" stroke="#363639" stroke-width=".12875"/>
   <path d="m195.461,217.77-5.582-2.719-3.891-2.203-4.437-2.207-5.582-1.688-3.891-1.687-3.379-.516-2.719-1.172-1.687-.515" fill="none" stroke="#363639" stroke-width=".9075"/>
   <path d="m160.398,202.855-2.203-1.027-1.175-1.176-.372-1.058-.656-1.145 .656-1.687 3.235-2.75 2.203-1.032 3.894-1.8 2.719-.516h3.379" fill="none" stroke="#363639" stroke-width=".9075"/>
   <path d="m188.82,206.75 1.059,1.688 .516.515 1.691.516 3.891.515 1.687.657 3.238.515 1.688.516 1.031.516h3.918l1.805-1.032h-2.864l-2.203-.515-2.863-1.172-2.719-1.031-2.718-1.172-1.688-.516-3.234-1.172h-1.832l-.403,1.172" fill="#363639"/>
   <path d="m188.82,206.75 1.059,1.688 .516.515 1.691.516 3.891.515 1.687.657 3.238.515 1.688.516 1.031.516h3.918l1.805-1.032h-2.864l-2.203-.515-2.863-1.172-2.719-1.031-2.718-1.172-1.688-.516-3.234-1.172h-1.832l-.403,1.172z" fill="none" stroke="#363639" stroke-width=".12875"/>
   <path d="m188.82 205.58h-2.316" fill="none" stroke="#363639" stroke-width=".12875"/>
   <path d="m213.754,206.75 2.719-.516 1.687-.656 2.231-1.031 1.031-1.176 .516-2.203 .66-1.172 .629-1.547 1.058-1.058v-1.805l-1.058-1.031-1.805-1.172h-4.406l-1.688-1.031" fill="none" stroke="#363639" stroke-width=".12875"/>
   <path d="m220.39 205.06v1.687l-0.657 2.203" fill="none" stroke="#363639" stroke-width=".12875"/>
   <path d="m230.383,210.641v2.207l.515,1.574 1.172,2.203 1.547,1.688 1.172.515 2.719,1.176 1.176.629 2.863.398h4.922l2.719-.398 1.171-.629 1.575-1.176 1.144-1.574 .547-1.172v-1.66l-.547-1.574-.512-1.176-1.691-1.031-.516-1.172-.629-1.688-1.058-1.031-1.688-1.687-2.207-.516-3.23-1.176h-3.524l-2.203.66-1.547,1.032-1.171,1.171-1.032,1.032-1.172.515-.515,2.86" fill="#bf801f"/>
   <path d="m230.383,210.641v2.207l.515,1.574 1.172,2.203 1.547,1.688 1.172.515 2.719,1.176 1.176.629 2.863.398h4.922l2.719-.398 1.171-.629 1.575-1.176 1.144-1.574 .547-1.172v-1.66l-.547-1.574-.512-1.176-1.691-1.031-.516-1.172-.629-1.688-1.058-1.031-1.688-1.687-2.207-.516-3.23-1.176h-3.524l-2.203.66-1.547,1.032-1.171,1.171-1.032,1.032-1.172.515-.515,2.86z" fill="none" stroke="#bf801f" stroke-width=".12875"/>
   <path d="m234.273,212.188 1.547-.516 1.172-1.031 1.031-1.172h2.204l1.691.515 .656,1.172 .516,1.032 .66,1.175v.516l-.66.543-.516,1.66-1.027.543h-1.32l-1.543-.543h-.661l-1.031-1.031-1.172-1.172-.515-.516-1.032-1.175" fill="#fff"/>
   <path d="m234.273,212.188 1.547-.516 1.172-1.031 1.031-1.172h2.204l1.691.515 .656,1.172 .516,1.032 .66,1.175v.516l-.66.543-.516,1.66-1.027.543h-1.32l-1.543-.543h-.661l-1.031-1.031-1.172-1.172-.515-.516-1.032-1.175z" fill="none" stroke="#363639" stroke-width=".12875"/>
   <path d="m243.75,213.879 3.234.543" fill="none" stroke="#363639" stroke-width=".12875"/>
   <path d="m234.27 212.19-1.687-0.516" fill="none" stroke="#363639" stroke-width=".12875"/>
   <path d="m233.102,215.051 .515,1.031 1.688,1.172 1.687,1.059 1.692.515h1.543l1.691.629 1.172-.629 1.058-.515 1.145-.543 1.176-1.145 .515,1.145v1.058l-.515,1.805-1.692,1.058h-5.578l-1.691-.66-3.891-1.574" fill="none" stroke="#363639" stroke-width=".12875"/>
   <path d="m244.148,210.641-1.058-1.172-.516-1.031-1.687-.657h-2.864l-2.203.657-.515.515-1.032.516" fill="none" stroke="#363639" stroke-width=".12875"/>
   <path d="m230.898,208.953 .516-1.172 .656-1.031 1.547-1.172 2.863-1.031 1.028-1.176h4.039l2.601.66 1.145.516" fill="none" stroke="#363639" stroke-width=".12875"/>
   <path d="m248.672,202.855 .516,1.692 .542,2.203 1.145,1.031 1.059,1.688 1.144,1.172 .547,1.031 .516,1.691 .629,1.688v2.203" fill="none" stroke="#363639" stroke-width=".12875"/>
   <path d="m237.508,211.301-.371,1.031 .371.516 .66,1.031 .516.656v-.656l.656-1.031v-.516l-1.832-1.031" fill="#1478b6"/>
   <path d="m237.508,211.301-.371,1.031 .371.516 .66,1.031 .516.656v-.656l.656-1.031v-.516l-1.832-1.031z" fill="none" stroke="#1478b6" stroke-width=".12875"/>
   <path d="m263.871,182.992 1.172-2.203v-5.066l-1.172-1.547 .656-1.172v-2.203l1.547-1.692 1.176-2.203 1.172-.543h1.144l.403-1.031" fill="none" stroke="#363639" stroke-width=".9075"/>
   <path d="m271.141,160.926 2.203-1.832 3.379.656h1.687l1.547-.656 1.059-1.031 1.144-2.204 1.688-2.718 2.207-1.176 2.23-1.688v1.688l-.398,1.176h.398l3.379-1.692 3.348-1.172" fill="none" stroke="#363639" stroke-width=".9075"/>
   <path d="m269.969,179.617 .656-1.691v-1.031l-.656-2.204 .656-1.687 1.031-.66 2.348-1.028 1.031-.515 1.172-1.692 2.578-.515" fill="none" stroke="#363639" stroke-width=".9075"/>
   <path d="m276.207,166.363h2.578v-2.203l1.832-.633 1.028-.398 .515-1.805 .66-1.058 2.719-1.547 2.348-.656" fill="none" stroke="#363639" stroke-width=".9075"/>
   <path d="m277.24 221.03v-3.261l-0.515-1.688-1.172-2.719-0.516-1.175" fill="none" stroke="#363639" stroke-width=".9075"/>
   <path d="m281.64 208.44 0.515-2.204-0.515-2.203-1.688-1.691-1.547-1.688-2.203-1.058" fill="none" stroke="#363639" stroke-width=".9075"/>
   <path d="m288.28 200.65-1.058-1.687-1.172-2.203-1.032-1.176-2.863-1.574-1.543-1.032-1.832-0.628" fill="none" stroke="#363639" stroke-width=".9075"/>
   <path d="m293.324,192.352v-1.688l-.629-1.687-.402-1.063-1.172-1.172-1.144-.371" fill="none" stroke="#363639" stroke-width=".9075"/>
   <path d="m241.145,162.469 3.89.66 2.207.398 1.172-.398 .516-1.172 1.172-1.691 1.574-1.172h4.008l1.031-1.031 2.234-1.172 2.719-.375h3.375" fill="none" stroke="#363639" stroke-width=".12875"/>
   <path d="m253.883,163.527 1.801-1.57 1.574-1.031h3.894l.516-.66 1.687-1.547h1.688l1.691-.656" fill="none" stroke="#363639" stroke-width=".12875"/>
   <path d="m268.938,155.344h1.687l2.203-1.176 1.176-1.027 1.547.515 1.172.512 1.687-.512 1.547-1.176 2.203-1.546v-.657" fill="none" stroke="#363639" stroke-width=".12875"/>
  </g>
 </g>
</svg>
