<svg width="90" height="136" viewBox="0 0 90 136" fill="none" xmlns="http://www.w3.org/2000/svg">
<path d="M88.8523 57.912C86.6363 50.628 81.2897 52.2147 74.5203 54.2227C73.5603 54.508 72.5337 54.8133 71.431 55.124C66.939 56.3893 63.119 56.5706 60.5883 56.3693C70.6537 52.64 77.7137 42.352 77.7137 30.9186C77.7137 14.1573 62.8803 0.286654 44.5817 -1.22462e-05C26.3457 0.286654 11.511 14.1573 11.511 30.9186C11.511 42.352 18.5723 52.64 28.6377 56.3693C26.1097 56.5706 22.287 56.3906 17.795 55.124C16.6923 54.8133 15.6643 54.508 14.7057 54.2227C7.93634 52.216 2.58968 50.6266 0.373675 57.912C-2.13966 66.1626 8.72434 73.3813 12.1137 75.396C15.1723 77.216 18.3417 78.3533 20.435 78.9826C19.0123 82.5066 16.647 90.0693 16.375 101.829C15.9697 119.469 22.2617 129.739 26.043 133.025C28.6937 135.329 32.3163 136.341 35.4963 135.672C37.911 135.163 39.7817 133.732 40.7643 131.645C41.555 129.961 42.007 126.801 42.679 121.781C43.0963 118.677 43.779 113.569 44.6123 110.723C45.4457 113.569 46.1297 118.677 46.547 121.781C47.2177 126.801 47.6697 129.961 48.4617 131.645C49.443 133.732 51.315 135.163 53.7283 135.672C54.379 135.809 55.0457 135.876 55.719 135.876C58.3483 135.876 61.0737 134.859 63.183 133.025C66.9643 129.739 73.2563 119.469 72.851 101.829C72.579 90.0693 70.2137 82.5066 68.791 78.9826C70.883 78.3533 74.0523 77.216 77.111 75.396C80.5003 73.3813 91.3657 66.1626 88.8523 57.912Z" fill="#DB7D26"/>
<path d="M44.6128 2.00051C27.4274 2.26984 13.5101 15.5578 13.5101 30.9178C13.5101 42.1645 20.9461 52.5578 31.6714 55.2138C32.6808 55.7312 33.3421 56.2085 33.3421 56.6872C33.3421 57.5592 30.7554 58.4298 26.7354 58.4298C24.0874 58.4298 20.8181 58.0525 17.2528 57.0485C12.5794 55.7312 9.22344 54.5125 6.81544 54.5125C4.59678 54.5125 3.18344 55.5472 2.28611 58.4938C0.415442 64.6392 8.27278 70.7845 13.1368 73.6778C18.0008 76.5698 23.2394 77.6525 23.2394 77.6525C23.2394 77.6525 18.7501 85.6058 18.3754 101.874C18.0008 118.14 23.6128 128.262 27.3554 131.516C29.1328 133.062 31.4154 133.872 33.5248 133.872C35.8554 133.872 37.9728 132.881 38.9541 130.794C40.7608 126.954 41.2194 108.291 44.6128 107.008C48.0074 108.291 48.4648 126.954 50.2714 130.794C51.2528 132.881 53.3701 133.872 55.7021 133.872C57.8101 133.872 60.0928 133.062 61.8701 131.516C65.6128 128.262 71.2248 118.14 70.8514 101.874C70.4768 85.6058 65.9861 77.6525 65.9861 77.6525C65.9861 77.6525 71.2248 76.5698 76.0888 73.6778C80.9528 70.7845 88.8101 64.6392 86.9394 58.4938C86.0434 55.5472 84.6288 54.5125 82.4114 54.5125C80.0021 54.5125 76.6474 55.7312 71.9741 57.0485C68.4088 58.0525 65.1381 58.4298 62.4914 58.4298C58.4688 58.4298 55.8834 57.5592 55.8834 56.6872C55.8834 56.2085 56.5448 55.7312 57.5541 55.2138C68.2794 52.5578 75.7154 42.1645 75.7154 30.9178C75.7154 15.5578 61.7981 2.26984 44.6128 2.00051ZM44.6128 3.33384C60.7514 3.59651 74.3821 16.2245 74.3821 30.9178C74.3821 41.7858 67.1688 51.4592 57.2328 53.9192C57.1341 53.9445 57.0381 53.9805 56.9461 54.0272C55.7021 54.6632 54.5501 55.4258 54.5501 56.6872C54.5501 59.5418 60.6288 59.7632 62.4914 59.7632C64.6634 59.7632 68.1341 59.5152 72.3354 58.3312C73.4541 58.0165 74.4981 57.7058 75.4728 57.4178C78.4314 56.5392 80.7701 55.8458 82.4114 55.8458C83.8861 55.8458 84.8914 56.3432 85.6648 58.8818C87.5168 64.9685 77.4461 71.3192 75.4074 72.5298C70.8061 75.2672 65.7661 76.3378 65.7154 76.3485C65.2994 76.4338 64.9501 76.7152 64.7741 77.1005C64.5981 77.4872 64.6168 77.9352 64.8234 78.3058C64.8674 78.3832 69.1568 86.2338 69.5181 101.905C69.8954 118.342 64.1088 127.805 60.9954 130.51C59.5128 131.801 57.5834 132.539 55.7021 132.539C53.7088 132.539 52.1688 131.695 51.4781 130.226C50.8648 128.923 50.3488 125.07 49.8501 121.342C48.6408 112.311 47.7168 106.755 45.0848 105.762C44.9328 105.703 44.7728 105.675 44.6128 105.675C44.4528 105.675 44.2941 105.703 44.1408 105.762C41.5088 106.755 40.5848 112.311 39.3754 121.342C38.8768 125.07 38.3608 128.923 37.7488 130.226C37.0568 131.695 35.5168 132.539 33.5248 132.539C31.6701 132.539 29.6914 131.781 28.2301 130.51C25.1168 127.805 19.3301 118.342 19.7074 101.905C20.0688 86.2338 24.3594 78.3832 24.4008 78.3085C24.6101 77.9378 24.6301 77.4898 24.4528 77.1018C24.2781 76.7138 23.9261 76.4338 23.5101 76.3485C23.4594 76.3378 18.4368 75.2765 13.8181 72.5298C11.7794 71.3192 1.70878 64.9685 3.56078 58.8818C4.33544 56.3432 5.33944 55.8458 6.81544 55.8458C8.45544 55.8458 10.7941 56.5392 13.7541 57.4178C14.7274 57.7058 15.7714 58.0165 16.8901 58.3312C21.0928 59.5152 24.5634 59.7632 26.7354 59.7632C28.5981 59.7632 34.6754 59.5418 34.6754 56.6872C34.6754 55.4258 33.5234 54.6632 32.2794 54.0272C32.1888 53.9805 32.0914 53.9445 31.9928 53.9192C22.0568 51.4592 14.8434 41.7858 14.8434 30.9178C14.8434 16.2245 28.4741 3.59651 44.6128 3.33384" fill="white"/>
<path d="M61.0138 33.4095C61.5871 36.1841 60.1084 38.8348 57.7098 39.3308C55.3111 39.8268 52.9018 37.9815 52.3284 35.2068C51.7538 32.4321 53.2338 29.7788 55.6311 29.2828C58.0298 28.7868 60.4391 30.6348 61.0138 33.4095Z" fill="#442005"/>
<path d="M55.9519 32.6803C56.1173 33.4803 55.6026 34.2616 54.8039 34.4269C54.0039 34.5923 53.2226 34.0789 53.0573 33.2789C52.8919 32.4803 53.4053 31.6976 54.2039 31.5323C55.0039 31.3669 55.7866 31.8803 55.9519 32.6803Z" fill="white"/>
<path d="M55.6206 37.5592C56.1859 37.7045 56.8006 37.7832 57.3393 37.6898C57.8886 37.6272 58.3619 37.3605 58.7486 36.9845C59.1366 36.6245 59.3539 36.0952 59.5099 35.5298C59.6486 34.9605 59.7006 34.3325 59.7006 33.7232V33.7058C59.7006 33.5898 59.7939 33.4965 59.9086 33.4965C60.0033 33.4965 60.0819 33.5592 60.1086 33.6432C60.3113 34.3005 60.3673 34.9752 60.2886 35.6698C60.2193 36.3632 59.9299 37.0738 59.4126 37.6365C58.9046 38.1752 58.1539 38.5192 57.4206 38.5525C56.6793 38.5765 55.9939 38.3858 55.3966 37.9938C55.2833 37.9205 55.2513 37.7685 55.3259 37.6552C55.3846 37.5658 55.4926 37.5272 55.5913 37.5525L55.6206 37.5592Z" fill="#632F0C"/>
<path d="M28.2123 33.4095C27.6377 36.1841 29.1177 38.8348 31.5163 39.3308C33.9137 39.8268 36.323 37.9815 36.8977 35.2068C37.471 32.4321 35.9923 29.7788 33.5937 29.2828C31.195 28.7868 28.7857 30.6348 28.2123 33.4095Z" fill="#442005"/>
<path d="M33.2742 32.6803C33.1088 33.4803 33.6222 34.2616 34.4222 34.4269C35.2208 34.5923 36.0035 34.0789 36.1688 33.2789C36.3342 32.4803 35.8208 31.6976 35.0208 31.5323C34.2208 31.3669 33.4395 31.8803 33.2742 32.6803Z" fill="white"/>
<path d="M33.605 37.5592C33.0397 37.7045 32.425 37.7832 31.8863 37.6898C31.337 37.6272 30.8637 37.3605 30.477 36.9845C30.089 36.6245 29.8717 36.0952 29.7157 35.5298C29.577 34.9605 29.525 34.3325 29.525 33.7232V33.7058C29.525 33.5898 29.4317 33.4965 29.317 33.4965C29.2223 33.4965 29.1437 33.5592 29.117 33.6432C28.9143 34.3005 28.8583 34.9752 28.937 35.6698C29.0077 36.3632 29.2957 37.0738 29.813 37.6365C30.321 38.1752 31.0717 38.5192 31.805 38.5525C32.5463 38.5765 33.233 38.3858 33.829 37.9938C33.9423 37.9205 33.9743 37.7685 33.8997 37.6552C33.841 37.5658 33.733 37.5272 33.6343 37.5525L33.605 37.5592Z" fill="#632F0C"/>
<path d="M44.6127 49.136C40.6487 49.136 37.4234 46.3747 37.4234 42.9787C37.4234 42.6093 37.7221 42.312 38.0901 42.312C38.4594 42.312 38.7567 42.6093 38.7567 42.9787C38.7567 45.6387 41.3834 47.8027 44.6127 47.8027C47.8421 47.8027 50.4687 45.6387 50.4687 42.9787C50.4687 42.6093 50.7661 42.312 51.1354 42.312C51.5034 42.312 51.8021 42.6093 51.8021 42.9787C51.8021 46.3747 48.5767 49.136 44.6127 49.136Z" fill="#632F0C"/>
<path d="M27.8016 20.9836C27.6829 20.9836 27.5629 20.9529 27.4549 20.8876C27.1416 20.6956 27.0416 20.2862 27.2309 19.9702C30.4389 14.6876 35.1176 16.3676 35.1656 16.3889C35.5109 16.5169 35.6856 16.9009 35.5549 17.2462C35.4256 17.5889 35.0416 17.7636 34.7016 17.6369C34.5509 17.5849 30.9896 16.3489 28.3722 20.6636C28.2456 20.8689 28.0269 20.9836 27.8016 20.9836Z" fill="white"/>
<path d="M61.424 20.9836C61.1986 20.9836 60.98 20.8689 60.8533 20.6636C58.2173 16.3182 54.5626 17.6209 54.528 17.6356C54.1866 17.7702 53.8 17.5916 53.6706 17.2462C53.54 16.9009 53.7146 16.5169 54.06 16.3889C54.1066 16.3689 58.7866 14.6876 61.9946 19.9702C62.184 20.2862 62.084 20.6956 61.7706 20.8876C61.6626 20.9529 61.5426 20.9836 61.424 20.9836Z" fill="white"/>
<path d="M9.21183 66.3873C9.68383 65.2766 10.5705 64.9886 11.2825 64.7593C11.9545 64.5406 12.3145 64.4046 12.5385 63.8766C12.7625 63.3513 12.6118 62.9966 12.3012 62.3633C11.9745 61.6913 11.5665 60.8553 12.0385 59.746C12.5105 58.6366 13.3958 58.35 14.1092 58.1206C14.7785 57.9046 15.1385 57.766 15.3625 57.242C15.5065 56.9033 15.8972 56.746 16.2372 56.89C16.5758 57.034 16.7332 57.4246 16.5892 57.7633C16.1172 58.8726 15.2318 59.1593 14.5185 59.39C13.8492 59.6046 13.4892 59.742 13.2652 60.2673C13.0412 60.7926 13.1918 61.146 13.4998 61.7793C13.8292 62.4526 14.2372 63.29 13.7652 64.3993C13.2932 65.51 12.4065 65.7966 11.6945 66.026C11.0225 66.2446 10.6625 66.382 10.4385 66.91C10.2132 67.4353 10.3652 67.79 10.6732 68.4246C11.0012 69.098 11.4092 69.9353 10.9358 71.046C10.7918 71.3846 10.4012 71.542 10.0612 71.3993C9.7225 71.254 9.56517 70.862 9.70917 70.5246C9.9345 69.9966 9.7825 69.642 9.4745 69.0073C9.1465 68.3353 8.73983 67.498 9.21183 66.3873Z" fill="white"/>
<path d="M80.0145 66.3873C79.5425 65.2766 78.6558 64.9886 77.9438 64.7593C77.2718 64.5406 76.9118 64.4046 76.6878 63.8766C76.4638 63.3513 76.6145 62.9966 76.9238 62.3633C77.2518 61.6913 77.6598 60.8553 77.1878 59.746C76.7158 58.6366 75.8291 58.35 75.1158 58.1206C74.4465 57.9046 74.0878 57.766 73.8638 57.242C73.7198 56.9033 73.3278 56.746 72.9891 56.89C72.6505 57.034 72.4931 57.4246 72.6371 57.7633C73.1091 58.8726 73.9945 59.1593 74.7078 59.39C75.3771 59.6046 75.7371 59.742 75.9611 60.2673C76.1838 60.7926 76.0345 61.146 75.7251 61.7793C75.3971 62.4526 74.9878 63.29 75.4611 64.3993C75.9331 65.51 76.8198 65.7966 77.5318 66.026C78.2038 66.2446 78.5638 66.382 78.7878 66.91C79.0118 67.4353 78.8611 67.79 78.5531 68.4246C78.2251 69.098 77.8171 69.9353 78.2905 71.046C78.4345 71.3846 78.8251 71.542 79.1638 71.3993C79.5038 71.254 79.6611 70.862 79.5158 70.5246C79.2918 69.9966 79.4425 69.642 79.7518 69.0073C80.0785 68.3353 80.4865 67.498 80.0145 66.3873Z" fill="white"/>
<path d="M33.4083 121.932C32.227 121.685 31.7723 120.872 31.407 120.218C31.0617 119.602 30.8577 119.277 30.2963 119.16C29.7377 119.044 29.419 119.26 28.859 119.686C28.263 120.14 27.523 120.704 26.343 120.458C25.1617 120.212 24.7083 119.4 24.343 118.744C24.0003 118.129 23.7963 117.804 23.2377 117.686C22.8763 117.613 22.6457 117.26 22.7203 116.9C22.7963 116.538 23.1497 116.306 23.5097 116.382C24.6897 116.628 25.143 117.441 25.5083 118.094C25.851 118.71 26.055 119.036 26.615 119.153C27.1737 119.269 27.491 119.052 28.051 118.626C28.647 118.172 29.3883 117.609 30.5683 117.854C31.7497 118.101 32.2043 118.913 32.5697 119.568C32.915 120.182 33.119 120.51 33.6803 120.626C34.2417 120.742 34.559 120.526 35.1217 120.1C35.7177 119.646 36.459 119.082 37.6403 119.33C38.0017 119.404 38.2323 119.757 38.1577 120.118C38.0817 120.478 37.7283 120.71 37.3683 120.634C36.807 120.517 36.4897 120.736 35.927 121.161C35.331 121.614 34.5897 122.178 33.4083 121.932Z" fill="white"/>
<path d="M55.8178 121.932C56.9991 121.685 57.4538 120.872 57.8178 120.218C58.1631 119.602 58.3685 119.277 58.9285 119.16C59.4885 119.044 59.8071 119.26 60.3671 119.686C60.9618 120.14 61.7031 120.704 62.8831 120.458C64.0631 120.212 64.5178 119.4 64.8818 118.744C65.2258 118.129 65.4298 117.804 65.9885 117.686C66.3485 117.613 66.5805 117.26 66.5045 116.9C66.4298 116.538 66.0765 116.306 65.7165 116.382C64.5365 116.628 64.0831 117.441 63.7178 118.094C63.3751 118.71 63.1711 119.036 62.6111 119.153C62.0525 119.269 61.7338 119.052 61.1751 118.626C60.5791 118.172 59.8378 117.609 58.6565 117.854C57.4751 118.101 57.0205 118.913 56.6551 119.568C56.3111 120.182 56.1058 120.51 55.5458 120.626C54.9845 120.742 54.6671 120.526 54.1045 120.1C53.5085 119.646 52.7671 119.082 51.5858 119.33C51.2245 119.404 50.9938 119.757 51.0685 120.118C51.1445 120.478 51.4965 120.71 51.8578 120.634C52.4178 120.517 52.7365 120.736 53.2991 121.161C53.8951 121.614 54.6365 122.178 55.8178 121.932Z" fill="white"/>
<path d="M51.482 69.1529C51.482 72.9463 48.406 76.0209 44.6126 76.0209C40.8193 76.0209 37.7446 72.9463 37.7446 69.1529C37.7446 65.3583 40.8193 62.2849 44.6126 62.2849C48.406 62.2849 51.482 65.3583 51.482 69.1529Z" fill="#C51A24"/>
<path d="M51.482 87.8196C51.482 91.6129 48.406 94.6876 44.6126 94.6876C40.8193 94.6876 37.7446 91.6129 37.7446 87.8196C37.7446 84.0249 40.8193 80.9516 44.6126 80.9516C48.406 80.9516 51.482 84.0249 51.482 87.8196Z" fill="#007736"/>
</svg>
