<svg width="25" height="20" viewBox="0 0 25 20" fill="none" xmlns="http://www.w3.org/2000/svg">
<path d="M12.7894 1.26978V2.84204H14.8389L16.4888 1.26978H12.7894ZM6.7636 2.84204H11.3854V1.26978H6.7636V2.84204ZM0 6.41626H1.64991V4.37524C1.64991 3.86743 1.78826 3.48495 2.06494 3.22778C2.34164 2.97062 2.73618 2.84204 3.24857 2.84204H5.35964V1.26978H3.21784C2.15206 1.26978 1.3493 1.52206 0.809582 2.02661C0.269861 2.53117 0 3.28801 0 4.29712L0 6.41626ZM0 12.7639H1.64991V7.75415H0L0 12.7639ZM3.21784 19.2483H5.35964V17.676H3.24857C2.73618 17.676 2.34164 17.5474 2.06494 17.2903C1.78826 17.0331 1.64991 16.6506 1.64991 16.1428V14.1018H0L0 16.2209C0 17.23 0.269861 17.9869 0.809582 18.4915C1.3493 18.996 2.15206 19.2483 3.21784 19.2483ZM6.7636 19.2483H11.3854V17.676H6.7636V19.2483ZM12.7894 19.2483H17.4111V17.676H12.7894V19.2483ZM20.9569 19.2483C22.0227 19.2483 22.8254 18.996 23.3651 18.4915C23.9049 17.9869 24.1747 17.23 24.1747 16.2209V14.1018H22.5248V16.1428C22.5248 16.6506 22.3864 17.0331 22.1098 17.2903C21.8331 17.5474 21.4385 17.676 20.9262 17.676H18.8048V19.2483H20.9569ZM24.1747 12.7639V9.4729L22.5248 11.0452V12.7639H24.1747ZM13.0455 12.3342C13.5785 12.8355 14.178 13.1741 14.844 13.3499C15.5102 13.5256 16.1814 13.5272 16.8578 13.3547C17.5341 13.1822 18.149 12.8322 18.7024 12.3049L23.7341 7.51001C23.8571 7.38631 23.9169 7.24145 23.9134 7.07544C23.91 6.90943 23.8468 6.77434 23.7238 6.67017C23.6008 6.55298 23.4591 6.49601 23.2985 6.49927C23.138 6.50252 22.9928 6.566 22.863 6.6897L17.8825 11.4456C17.2882 12.0055 16.6187 12.287 15.874 12.2903C15.1293 12.2936 14.4871 12.0283 13.9473 11.4944C13.3871 10.9475 13.1053 10.3225 13.102 9.61938C13.0985 8.91626 13.3906 8.28475 13.9781 7.72485L20.2703 1.74829C20.6597 1.3772 21.0901 1.18351 21.5616 1.16724C22.0329 1.15096 22.4326 1.29582 22.7606 1.60181C23.0816 1.9078 23.2336 2.28377 23.2165 2.72974C23.1995 3.1757 22.9962 3.58748 22.6068 3.96509L16.4888 9.83423C16.3659 9.95794 16.2292 10.0182 16.079 10.0149C15.9286 10.0116 15.7954 9.95141 15.6792 9.83423C15.5563 9.71704 15.4948 9.58846 15.4948 9.44849C15.4948 9.30852 15.5597 9.17668 15.6895 9.05298L20.0243 4.92212C20.1542 4.80493 20.2191 4.67147 20.2191 4.52173C20.2191 4.37199 20.1644 4.23853 20.0551 4.12134C19.9321 4.01717 19.7937 3.96509 19.64 3.96509C19.4863 3.96509 19.348 4.02694 19.225 4.15063L14.8492 8.31079C14.4939 8.64933 14.3146 9.04809 14.3112 9.50708C14.3077 9.96609 14.47 10.3518 14.798 10.6643C15.1464 10.9964 15.5546 11.1608 16.0226 11.1575C16.4906 11.1542 16.909 10.9768 17.2779 10.6252L23.4369 4.7561C23.8673 4.34595 24.1542 3.90649 24.2977 3.43774C24.4412 2.96899 24.448 2.50676 24.3182 2.05103C24.1884 1.5953 23.9322 1.18188 23.5496 0.810791C23.167 0.452718 22.7349 0.211833 22.2533 0.0881348C21.7716 -0.0355631 21.2814 -0.0290527 20.7827 0.107666C20.284 0.244385 19.8262 0.511312 19.4095 0.908447L13.0865 6.93384C12.5332 7.46118 12.1677 8.04874 11.99 8.69653C11.8124 9.34432 11.8124 9.98884 11.99 10.6301C12.1677 11.2714 12.5195 11.8394 13.0455 12.3342Z" fill="white"/>
</svg>
